<svg width="24" height="25" viewBox="0 0 24 25" fill="none" xmlns="http://www.w3.org/2000/svg">
<path d="M24 1.83929C24 1.46429 23.8393 1.14286 23.5714 0.875C23.3036 0.660714 22.9821 0.5 22.6607 0.5H1.33929C0.910714 0.5 0.589286 0.660714 0.375 0.875C0.107143 1.14286 0 1.46429 0 1.83929V23.1607C0 23.5357 0.107143 23.8571 0.375 24.125C0.589286 24.3929 0.910714 24.5 1.33929 24.5H12.8036V15.1786H9.69643V11.5893H12.8036V8.91071C12.8036 7.41071 13.2321 6.23214 14.0893 5.375C14.9464 4.57143 16.0714 4.14286 17.4643 4.14286C18.5357 4.14286 19.5 4.19643 20.25 4.25V7.51786H18.3214C17.625 7.51786 17.1429 7.67857 16.875 8C16.6607 8.26786 16.5536 8.69643 16.5536 9.28571V11.5893H20.1429L19.6607 15.1786H16.5536V24.5H22.6607C23.0357 24.5 23.3571 24.3929 23.625 24.125C23.8393 23.8571 24 23.5357 24 23.1607V1.83929Z" fill="white"/>
</svg>
