<svg width="24" height="25" viewBox="0 0 24 25" fill="none" xmlns="http://www.w3.org/2000/svg">
<g clip-path="url(#clip0_454_2742)">
<path fill-rule="evenodd" clip-rule="evenodd" d="M23.4667 12.7667C23.4667 11.9667 23.3333 11.0334 23.2 10.3667H12V15.0334H18.4C18.1333 16.5 17.3333 17.7 16 18.6334V21.7H20C22.2667 19.5667 23.4667 16.3667 23.4667 12.7667Z" fill="#4285F4"/>
<path fill-rule="evenodd" clip-rule="evenodd" d="M12.0002 24.5C15.2002 24.5 18.0002 23.4334 20.0002 21.5667L16.0002 18.6334C14.9335 19.3 13.6002 19.8334 12.0002 19.8334C8.9335 19.8334 6.26683 17.7 5.3335 14.9H1.3335V17.8334C3.20016 21.8334 7.3335 24.5 12.0002 24.5Z" fill="#34A853"/>
<path fill-rule="evenodd" clip-rule="evenodd" d="M5.33333 14.7666C5.06667 14.1 4.93333 13.3 4.93333 12.5C4.93333 11.7 5.06667 10.9 5.33333 10.2333V7.16663H1.33333C0.4 8.76663 0 10.5 0 12.5C0 14.5 0.4 16.2333 1.33333 17.8333L5.33333 14.7666Z" fill="#FBBC05"/>
<path fill-rule="evenodd" clip-rule="evenodd" d="M12.0002 5.3C13.7335 5.3 15.3335 5.96667 16.5335 7.03333L20.0002 3.56667C18.0002 1.7 15.2002 0.5 12.0002 0.5C7.3335 0.5 3.20016 3.16667 1.3335 7.16667L5.3335 10.2333C6.26683 7.43333 8.9335 5.3 12.0002 5.3Z" fill="#EA4335"/>
</g>
<defs>
<clipPath id="clip0_454_2742">
<rect width="24" height="24" fill="white" transform="translate(0 0.5)"/>
</clipPath>
</defs>
</svg>
