<svg width="24" height="20" viewBox="0 0 24 20" fill="none" xmlns="http://www.w3.org/2000/svg">
<path d="M21.5331 5.23514C21.5483 5.44294 21.5483 5.65079 21.5483 5.85859C21.5483 12.1968 16.5991 19.5 7.55333 19.5C4.7665 19.5 2.17768 18.7132 0 17.3477C0.395955 17.3922 0.776628 17.407 1.18782 17.407C3.48728 17.407 5.60407 16.65 7.29444 15.3586C5.13199 15.3141 3.31979 13.9336 2.69542 12.0336C3.00001 12.0781 3.30456 12.1078 3.62439 12.1078C4.066 12.1078 4.50766 12.0484 4.9188 11.9445C2.66499 11.4992 0.974582 9.56952 0.974582 7.23905V7.1797C1.62938 7.53595 2.39087 7.75861 3.19792 7.78826C1.87304 6.9273 1.00505 5.45779 1.00505 3.79528C1.00505 2.90467 1.24866 2.08826 1.67508 1.37576C4.09642 4.28513 7.73605 6.1851 11.8172 6.39295C11.7411 6.0367 11.6954 5.66564 11.6954 5.29454C11.6954 2.65232 13.8883 0.5 16.6142 0.5C18.0304 0.5 19.3096 1.0789 20.2081 2.01406C21.3198 1.80626 22.3858 1.40546 23.33 0.856253C22.9644 1.96956 22.1878 2.90472 21.1675 3.49842C22.1574 3.39457 23.1168 3.12732 24 2.75627C23.3301 3.70623 22.4924 4.55229 21.5331 5.23514Z" fill="white"/>
</svg>
