<svg width="46" height="32" viewBox="0 0 46 32" fill="none" xmlns="http://www.w3.org/2000/svg">
<path d="M0 4.00098C0 1.79184 1.79086 0.000976562 4 0.000976562H42C44.2091 0.000976562 46 1.79184 46 4.00098V28.001C46 30.2101 44.2091 32.001 42 32.001H4C1.79086 32.001 0 30.2101 0 28.001V4.00098Z" fill="white"/>
<path fill-rule="evenodd" clip-rule="evenodd" d="M19.5123 15.9596H18.0337V15.3794C18.0337 14.6247 18.4648 14.4088 18.8368 14.4088C19.2471 14.4088 19.5668 14.5909 19.5668 14.5909L20.0702 13.4405C20.0702 13.4405 19.5599 13.1069 18.6323 13.1069C17.5895 13.1069 16.4029 13.6948 16.4029 15.54V15.9596H13.9276V15.3794C13.9276 14.6247 14.3587 14.4088 14.7299 14.4088C14.9413 14.4088 15.2256 14.4579 15.4608 14.5909L15.9641 13.4405C15.6637 13.2637 15.181 13.1069 14.5263 13.1069C13.4834 13.1069 12.2969 13.6948 12.2969 15.54V15.9596H11.3501V17.2184H12.2969V21.6656H13.9276V17.2184H16.4029V21.6656H18.0337V17.2184H19.5123V15.9596ZM7.60621 20.6418C7.17739 20.6418 6.96375 20.4313 6.96375 20.0831C6.96375 19.4391 7.6846 19.2186 9.00026 19.0795C9.00026 19.941 8.41774 20.6418 7.60621 20.6418ZM8.17336 15.7919C7.23349 15.7919 6.15145 16.2353 5.56432 16.7033L6.10073 17.8322C6.57182 17.4011 7.3334 17.033 8.02043 17.033C8.67288 17.033 9.03331 17.2512 9.03331 17.6901C9.03331 17.9867 8.7943 18.1358 8.34243 18.1942C6.65635 18.414 5.33301 18.8789 5.33301 20.1792C5.33301 21.2098 6.06692 21.8338 7.21351 21.8338C8.03119 21.8338 8.75972 21.3788 9.10631 20.7786V21.6655H10.631V17.9498C10.631 16.4151 9.56433 15.7919 8.17336 15.7919ZM23.4849 15.9596V21.6656H25.1172V18.9167C25.1172 17.6095 25.908 17.2261 26.4597 17.2261C26.6749 17.2261 26.9654 17.2883 27.1575 17.432L27.4549 15.9235C27.2029 15.8159 26.9393 15.792 26.7233 15.792C25.8841 15.792 25.357 16.164 25.0088 16.9187V15.9596H23.4849ZM33.1773 16.7943C33.5131 16.3025 34.1579 15.7922 35.0209 15.7922C36.0638 15.7922 36.9268 16.4392 36.9268 17.7219V21.6658H35.296V18.2375C35.296 17.4821 34.8411 17.1685 34.41 17.1685C33.8705 17.1685 33.331 17.6619 33.331 18.7286V21.6658H31.7003V18.249C31.7003 17.4706 31.2714 17.1685 30.805 17.1685C30.2893 17.1685 29.7375 17.6734 29.7375 18.7286V21.6658H28.1045V15.9597H29.6776V16.8227C29.9535 16.2717 30.5506 15.7922 31.4136 15.7922C32.2044 15.7922 32.8653 16.1587 33.1773 16.7943ZM22.1151 21.6659H20.4859V15.9598H22.1151V21.6659Z" fill="#060809"/>
<path fill-rule="evenodd" clip-rule="evenodd" d="M29.9905 8.00098C25.5855 8.00098 21.6592 11.0588 20.5449 14.9904H22.1419C23.0725 12.0625 26.2318 9.49262 29.9905 9.49262C34.5592 9.49262 38.5077 12.9708 38.5077 18.3856C38.5077 19.6014 38.3501 20.6973 38.052 21.6656H39.6013L39.6166 21.6125C39.8702 20.6135 39.9993 19.5284 39.9993 18.3856C39.9993 12.3468 35.5989 8.00098 29.9905 8.00098Z" fill="#0FA0EA"/>
<path d="M4 1.00098H42V-0.999023H4V1.00098ZM45 4.00098V28.001H47V4.00098H45ZM42 31.001H4V33.001H42V31.001ZM1 28.001V4.00098H-1V28.001H1ZM4 31.001C2.34315 31.001 1 29.6578 1 28.001H-1C-1 30.7624 1.23858 33.001 4 33.001V31.001ZM45 28.001C45 29.6578 43.6569 31.001 42 31.001V33.001C44.7614 33.001 47 30.7624 47 28.001H45ZM42 1.00098C43.6569 1.00098 45 2.34412 45 4.00098H47C47 1.23955 44.7614 -0.999023 42 -0.999023V1.00098ZM4 -0.999023C1.23858 -0.999023 -1 1.23955 -1 4.00098H1C1 2.34412 2.34315 1.00098 4 1.00098V-0.999023Z" fill="#F2F4F7"/>
</svg>
