<svg width="46" height="32" viewBox="0 0 46 32" fill="none" xmlns="http://www.w3.org/2000/svg">
<path d="M0 4.00098C0 1.79184 1.79086 0.000976562 4 0.000976562H42C44.2091 0.000976562 46 1.79184 46 4.00098V28.001C46 30.2101 44.2091 32.001 42 32.001H4C1.79086 32.001 0 30.2101 0 28.001V4.00098Z" fill="#1F72CD"/>
<path fill-rule="evenodd" clip-rule="evenodd" d="M8.12722 11.3345L3.88574 20.9968H8.96339L9.59287 19.4562H11.0317L11.6612 20.9968H17.2503V19.821L17.7483 20.9968H20.6394L21.1374 19.7961V20.9968H32.7611L34.1745 19.4962L35.498 20.9968L41.4682 21.0092L37.2133 16.1926L41.4682 11.3345H35.5906L34.2147 12.8073L32.9329 11.3345H20.2878L19.202 13.8284L18.0907 11.3345H13.0237V12.4703L12.46 11.3345H8.12722ZM9.10972 12.7065H11.5848L14.3982 19.2586V12.7065H17.1095L19.2825 17.4043L21.2852 12.7065H23.983V19.6399H22.3415L22.3281 14.207L19.9348 19.6399H18.4664L16.0598 14.207V19.6399H12.6827L12.0425 18.0855H8.58358L7.94468 19.6385H6.1353L9.10972 12.7065ZM32.1598 12.7065H25.4849V19.6358H32.0564L34.1745 17.3393L36.2161 19.6358H38.3502L35.2483 16.1913L38.3502 12.7065H36.3087L34.2013 14.9766L32.1598 12.7065ZM10.3138 13.8796L9.17419 16.6486H11.452L10.3138 13.8796ZM27.1332 15.4078V14.1421V14.1409H31.2982L33.1155 16.165L31.2176 18.2002H27.1332V16.8185H30.7747V15.4078H27.1332Z" fill="white"/>
<path d="M4 1.00098H42V-0.999023H4V1.00098ZM45 4.00098V28.001H47V4.00098H45ZM42 31.001H4V33.001H42V31.001ZM1 28.001V4.00098H-1V28.001H1ZM4 31.001C2.34315 31.001 1 29.6578 1 28.001H-1C-1 30.7624 1.23858 33.001 4 33.001V31.001ZM45 28.001C45 29.6578 43.6569 31.001 42 31.001V33.001C44.7614 33.001 47 30.7624 47 28.001H45ZM42 1.00098C43.6569 1.00098 45 2.34412 45 4.00098H47C47 1.23955 44.7614 -0.999023 42 -0.999023V1.00098ZM4 -0.999023C1.23858 -0.999023 -1 1.23955 -1 4.00098H1C1 2.34412 2.34315 1.00098 4 1.00098V-0.999023Z" fill="#F2F4F7"/>
</svg>
