<svg width="46" height="32" viewBox="0 0 46 32" fill="none" xmlns="http://www.w3.org/2000/svg">
<path d="M0 6.00098C0 2.68727 2.68629 0.000976562 6 0.000976562H40C43.3137 0.000976562 46 2.68727 46 6.00098V26.001C46 29.3147 43.3137 32.001 40 32.001H6C2.68629 32.001 0 29.3147 0 26.001V6.00098Z" fill="white"/>
<path fill-rule="evenodd" clip-rule="evenodd" d="M12.6968 11.1254C12.31 11.5945 11.6912 11.9646 11.0723 11.9118C10.995 11.2773 11.298 10.6033 11.6525 10.187C12.0393 9.70454 12.7161 9.36091 13.264 9.33447C13.3285 9.99531 13.0771 10.6429 12.6968 11.1254ZM13.2575 12.0373C12.7123 12.0051 12.2149 12.2054 11.8131 12.3671C11.5545 12.4712 11.3356 12.5594 11.169 12.5594C10.9821 12.5594 10.7541 12.4665 10.4981 12.3623C10.1626 12.2256 9.77915 12.0695 9.37699 12.077C8.45521 12.0902 7.59789 12.6255 7.12733 13.4779C6.16042 15.1829 6.87593 17.7073 7.81061 19.0951C8.26827 19.7823 8.81619 20.5357 9.53814 20.5093C9.85576 20.497 10.0842 20.3976 10.3207 20.2947C10.5929 20.1763 10.8757 20.0533 11.3173 20.0533C11.7435 20.0533 12.0139 20.1731 12.2735 20.2881C12.5203 20.3975 12.7574 20.5025 13.1092 20.4961C13.857 20.4828 14.3275 19.8088 14.7852 19.1215C15.2791 18.3839 15.4962 17.664 15.5291 17.5547L15.533 17.5421C15.5322 17.5413 15.5261 17.5384 15.5153 17.5334L15.5153 17.5334C15.3502 17.4559 14.0883 16.8636 14.0762 15.2754C14.064 13.9424 15.0771 13.2669 15.2366 13.1606L15.2366 13.1606C15.2463 13.1541 15.2528 13.1498 15.2558 13.1475C14.6112 12.1695 13.6056 12.0637 13.2575 12.0373ZM18.4337 20.4234V10.1209H22.2047C24.1514 10.1209 25.5115 11.4954 25.5115 13.5044C25.5115 15.5133 24.1256 16.9011 22.1531 16.9011H19.9937V20.4234H18.4337ZM19.9935 11.469H21.792C23.1457 11.469 23.9192 12.2091 23.9192 13.511C23.9192 14.8128 23.1457 15.5596 21.7855 15.5596H19.9935V11.469ZM30.6619 19.1876C30.2494 19.9938 29.3405 20.5027 28.3607 20.5027C26.9103 20.5027 25.8983 19.6171 25.8983 18.2822C25.8983 16.9606 26.8781 16.2006 28.6894 16.0883L30.6361 15.9693V15.401C30.6361 14.5617 30.1011 14.1057 29.1471 14.1057C28.3607 14.1057 27.787 14.5221 27.671 15.1565H26.2657C26.3109 13.8216 27.5356 12.8501 29.1922 12.8501C30.9778 12.8501 32.1381 13.8084 32.1381 15.2952V20.4234H30.6942V19.1876H30.6619ZM28.7796 19.2801C27.948 19.2801 27.4195 18.8704 27.4195 18.2426C27.4195 17.595 27.9287 17.2183 28.9021 17.1588L30.636 17.0465V17.628C30.636 18.5928 29.8367 19.2801 28.7796 19.2801ZM36.9274 20.8265C36.3022 22.6306 35.5866 23.2253 34.0654 23.2253C33.9493 23.2253 33.5626 23.2121 33.4723 23.1857V21.9499C33.569 21.9631 33.8075 21.9764 33.93 21.9764C34.6197 21.9764 35.0065 21.679 35.245 20.9058L35.3868 20.4498L32.7439 12.9493H34.3748L36.2119 19.0356H36.2441L38.0813 12.9493H39.667L36.9274 20.8265Z" fill="black"/>
<path d="M6 1.00098H40V-0.999023H6V1.00098ZM45 6.00098V26.001H47V6.00098H45ZM40 31.001H6V33.001H40V31.001ZM1 26.001V6.00098H-1V26.001H1ZM6 31.001C3.23858 31.001 1 28.7624 1 26.001H-1C-1 29.867 2.13401 33.001 6 33.001V31.001ZM45 26.001C45 28.7624 42.7614 31.001 40 31.001V33.001C43.866 33.001 47 29.867 47 26.001H45ZM40 1.00098C42.7614 1.00098 45 3.23955 45 6.00098H47C47 2.13498 43.866 -0.999023 40 -0.999023V1.00098ZM6 -0.999023C2.13401 -0.999023 -1 2.13498 -1 6.00098H1C1 3.23955 3.23858 1.00098 6 1.00098V-0.999023Z" fill="#F2F4F7"/>
</svg>
