<svg width="46" height="32" viewBox="0 0 46 32" fill="none" xmlns="http://www.w3.org/2000/svg">
<path d="M0 4.00098C0 1.79184 1.79086 0.000976562 4 0.000976562H42C44.2091 0.000976562 46 1.79184 46 4.00098V28.001C46 30.2101 44.2091 32.001 42 32.001H4C1.79086 32.001 0 30.2101 0 28.001V4.00098Z" fill="white"/>
<path opacity="0.87" d="M39.8273 16.5512C39.6488 16.436 39.4178 16.4779 39.2918 16.6559C39.2708 16.6874 38.8088 17.3576 38.0003 17.3576C37.6852 17.3576 37.4437 17.2633 37.2862 17.0644C37.2757 17.0539 37.2652 17.0329 37.2547 17.0225C37.2547 17.0225 37.2652 17.0225 37.2652 17.012C39.1763 15.9229 39.1553 14.9909 39.0713 14.6453C38.9558 14.2264 38.5883 13.9542 38.1158 13.9542C37.0237 13.9542 36.2992 15.1689 36.2992 16.2999C36.2992 16.4465 36.3097 16.5826 36.3307 16.7188C35.9422 17.0015 35.3437 17.3576 34.8186 17.3576C34.5141 17.3576 34.2831 17.2633 34.1361 17.0853C34.0836 17.0225 34.0416 16.9492 34.0101 16.8759C35.4697 16.457 36.0262 15.525 35.9212 14.7815C35.8582 14.2997 35.4907 13.9542 35.0391 13.9542C34.0206 13.9542 33.2856 15.0223 33.1701 16.0695C32.9706 16.0486 32.8026 15.9962 32.6451 15.8915C32.6661 15.7239 32.6871 15.5564 32.6871 15.3993C32.6871 15.0537 32.6241 14.7605 32.4981 14.5301C32.33 14.2264 32.0465 14.0589 31.721 14.0589C31.5425 14.0589 31.385 14.1531 31.2905 14.3207C31.1015 14.6663 31.2275 15.3365 31.574 15.8705C31.637 15.9753 31.7105 16.0695 31.7945 16.1638C31.6055 16.7711 31.2065 17.3471 30.7025 17.3471C30.4715 17.3471 30.3035 17.2738 30.1565 17.1272C29.957 16.9073 29.8205 16.5198 29.7785 16.0276C31.2065 14.2474 31.91 12.4986 31.511 11.6713C31.3745 11.3885 31.1225 11.2314 30.818 11.2314C29.831 11.2314 29.2429 12.509 29.0119 15.1375C29.0014 15.2946 28.9909 15.4936 28.9909 15.703C28.4659 16.4151 27.5944 17.3471 26.8173 17.3471C26.5968 17.3471 26.4288 17.2738 26.3238 17.1167C26.3133 17.1062 26.3028 17.0853 26.2923 17.0748C26.3028 17.0748 26.3133 17.0644 26.3238 17.0539C28.2454 15.8182 28.2139 14.8862 28.1194 14.5511C28.0144 14.1846 27.6784 13.9437 27.2479 13.9437C26.1348 13.9437 25.3788 15.2213 25.3788 16.4151C25.3788 16.5198 25.3893 16.6245 25.3998 16.7293C25.0428 16.9806 24.7593 17.211 24.4758 17.4309C24.5178 17.1062 24.5808 16.6874 24.6543 16.0695C24.6753 15.9439 24.6858 15.8391 24.6963 15.7868C24.7593 15.3365 24.0137 15.2422 23.9297 15.7449C23.8457 16.2685 23.6252 17.3471 23.0057 17.3471C22.6382 17.3471 22.4387 16.9387 22.4807 16.3418C22.5332 15.3993 23.0477 14.6348 23.6777 14.6348C23.8982 14.6348 24.0032 14.8652 24.0032 14.8652C24.2027 15.2213 24.8223 14.9176 24.6858 14.5406C24.6228 14.373 24.4233 13.9437 23.6987 13.9437C22.2287 13.9437 21.7667 15.4307 21.7037 16.4151C21.6932 16.5722 21.6932 16.7293 21.7142 16.8863C21.5041 17.1377 21.2626 17.3471 21.0211 17.3471C20.7901 17.3471 20.6431 17.0853 20.7271 16.4884C20.8111 15.9124 20.8741 15.4412 20.9056 15.1689C21.0841 13.9228 19.5196 13.9542 19.5196 13.9542C19.5196 13.9542 19.4986 13.2211 18.9001 13.2211C18.5955 13.2211 18.312 13.462 18.312 13.9123C18.312 14.3312 18.6585 14.5406 18.6585 14.5406C18.585 15.1899 18.2805 17.3471 17.598 17.3471C17.2935 17.3471 17.2725 17.0225 17.304 16.7921C17.346 16.4779 17.3985 15.9334 17.4195 15.7972C17.4825 15.3469 16.737 15.2527 16.653 15.7554C16.569 16.279 16.3485 17.3576 15.7289 17.3576C15.3614 17.3576 15.1619 16.8968 15.1934 16.3313C15.2459 15.3784 15.7604 14.6453 16.3905 14.6453C16.611 14.6453 16.716 14.8757 16.716 14.8757C16.884 15.2318 17.5245 14.9804 17.3985 14.5511C17.346 14.3626 17.136 13.9542 16.4115 13.9542C14.9414 13.9542 14.4794 15.4412 14.4164 16.4256C14.4059 16.5826 14.4059 16.7292 14.4164 16.8654C14.2064 17.1481 13.9544 17.3576 13.7129 17.3576C13.4924 17.3576 13.3243 17.2424 13.3663 16.7502C13.3873 16.5198 13.6499 14.9385 13.6394 14.6558C13.6079 14.1741 13.3873 13.9646 12.8518 13.9646C12.2848 13.9646 11.8648 14.2579 11.6863 14.4359C11.6863 14.4359 11.9488 12.4462 12.0013 12.0587C12.0538 11.6608 11.2768 11.6503 11.2348 12.0587C11.2138 12.2368 11.0038 13.8076 10.8148 15.2736C10.3737 16.2371 9.5022 17.7031 8.21065 17.7031C5.76406 17.7031 6.88761 12.3834 9.18719 12.3834C9.72271 12.3834 9.4812 13.2421 9.12419 13.7552C8.87218 14.1322 9.5127 14.5511 9.86972 13.9542C10.8568 12.2891 10.0272 11.6713 9.23969 11.6713C5.83757 11.6713 4.57752 18.4362 8.11615 18.4362C9.28169 18.4362 10.0692 17.7869 10.5732 17.0748C10.5207 17.4728 10.4892 17.745 10.4787 17.7974C10.4157 18.2163 11.2033 18.1849 11.2453 17.8288C11.2768 17.6089 11.3923 16.6769 11.4868 15.9543C11.5393 15.5459 12.0433 14.7919 12.6103 14.7919C12.7468 14.7919 12.8308 14.9281 12.8203 15.0433C12.7993 15.1794 12.5578 16.9492 12.5683 17.211C12.6103 17.9545 13.1458 18.122 13.6499 18.122C14.0489 18.122 14.3744 17.9335 14.6369 17.6403C14.8154 17.9335 15.0884 18.122 15.4664 18.122C16.317 18.122 16.611 17.5147 16.611 17.5147C16.611 17.5147 16.716 18.122 17.451 18.122C18.9421 18.122 19.2886 15.5354 19.3621 14.6663C19.4461 14.6663 19.9711 14.6977 20.0656 14.9909C20.1496 15.2736 19.8871 16.1742 19.8661 17.1062C19.8556 17.5984 20.0341 18.122 20.8111 18.122C21.2836 18.122 21.6617 17.9021 21.9242 17.6613C22.1027 17.944 22.3757 18.122 22.7432 18.122C23.1632 18.122 23.4467 17.9859 23.6252 17.8498C23.6147 17.9335 23.6042 18.0068 23.5937 18.0906V18.1011C23.5937 18.0906 21.6302 19.5043 21.6302 20.8343C21.6302 21.3579 21.8717 21.693 22.4912 21.693C23.7197 21.693 24.1082 20.0489 24.2868 18.698C24.2973 18.6352 24.3078 18.5723 24.3078 18.52C24.4968 18.3734 24.6753 18.2372 24.8538 18.1011C25.1058 17.9021 25.3578 17.7136 25.6413 17.5042C25.6518 17.5251 25.6728 17.5461 25.6833 17.567C25.9458 17.9231 26.3343 18.1116 26.8068 18.1116C27.6994 18.1116 28.5289 17.4309 29.1169 16.7607C29.2114 17.0853 29.3479 17.3995 29.5789 17.6508C29.8625 17.9545 30.251 18.122 30.692 18.122C31.5425 18.122 32.1305 17.4413 32.4456 16.6559C32.6766 16.7607 32.9391 16.8235 33.2121 16.8444C33.2751 17.1167 33.3801 17.368 33.5481 17.567C33.7581 17.8183 34.1466 18.122 34.8291 18.122C35.5117 18.122 36.1837 17.7555 36.6352 17.4518C36.6562 17.4832 36.6772 17.5147 36.6982 17.5461C36.9082 17.8079 37.3177 18.122 38.0108 18.122C39.2393 18.122 39.9218 17.1167 39.9533 17.0748C40.0478 16.9073 39.9953 16.6664 39.8273 16.5512ZM22.5857 20.9495C22.4702 20.9495 22.3862 20.8762 22.3862 20.7296C22.3862 20.0594 23.4257 19.1483 23.4362 19.1483C23.3102 20.0489 22.9427 20.9495 22.5857 20.9495ZM27.2269 14.6663C27.3214 14.6663 27.3424 14.7396 27.3634 14.7815C27.4054 14.9281 27.2584 15.4831 26.1348 16.258C26.1978 15.525 26.6493 14.6663 27.2269 14.6663ZM30.797 12.0168C31.1225 12.0168 30.86 13.1269 29.8205 14.6767C30.062 12.6137 30.398 12.0168 30.797 12.0168ZM34.9551 14.6663C35.1232 14.6663 35.1337 14.8338 35.1442 14.8966C35.1862 15.2108 34.8921 15.7763 33.9261 16.1009C34.0311 15.4202 34.4826 14.6663 34.9551 14.6663ZM38.1053 14.6663C38.2208 14.6663 38.2838 14.75 38.3153 14.8548C38.3783 15.0747 38.0843 15.6297 37.0552 16.258C37.0762 15.525 37.5172 14.6663 38.1053 14.6663Z" fill="black"/>
<path d="M4 1.00098H42V-0.999023H4V1.00098ZM45 4.00098V28.001H47V4.00098H45ZM42 31.001H4V33.001H42V31.001ZM1 28.001V4.00098H-1V28.001H1ZM4 31.001C2.34315 31.001 1 29.6578 1 28.001H-1C-1 30.7624 1.23858 33.001 4 33.001V31.001ZM45 28.001C45 29.6578 43.6569 31.001 42 31.001V33.001C44.7614 33.001 47 30.7624 47 28.001H45ZM42 1.00098C43.6569 1.00098 45 2.34412 45 4.00098H47C47 1.23955 44.7614 -0.999023 42 -0.999023V1.00098ZM4 -0.999023C1.23858 -0.999023 -1 1.23955 -1 4.00098H1C1 2.34412 2.34315 1.00098 4 1.00098V-0.999023Z" fill="#F2F4F7"/>
</svg>
