<svg width="46" height="32" viewBox="0 0 46 32" fill="none" xmlns="http://www.w3.org/2000/svg">
<path d="M0 4.00098C0 1.79184 1.79086 0.000976562 4 0.000976562H42C44.2091 0.000976562 46 1.79184 46 4.00098V28.001C46 30.2101 44.2091 32.001 42 32.001H4C1.79086 32.001 0 30.2101 0 28.001V4.00098Z" fill="white"/>
<path fill-rule="evenodd" clip-rule="evenodd" d="M21.118 25.7347H24.5794C29.9827 25.7347 34.2884 21.448 34.4572 16.1527V16.0686C34.3728 10.6893 29.9827 6.31851 24.5794 6.40256H20.6959C15.5459 6.57067 11.4935 10.9414 11.6623 16.1527C11.6623 21.364 15.8836 25.6506 21.118 25.7347ZM13.3508 16.0686C13.3508 11.6978 16.9811 8.08358 21.3713 8.08358C25.7614 8.08358 29.3917 11.6978 29.3917 16.0686C29.3917 20.4393 25.7614 24.0536 21.3713 24.0536C16.9811 24.0536 13.3508 20.4393 13.3508 16.0686ZM22.6377 21.448V10.7733C25.5925 11.5297 27.4499 14.4716 26.6901 17.4134C26.1835 19.4307 24.6639 20.9437 22.6377 21.448ZM16.1369 14.7238C15.377 17.6656 17.15 20.6915 20.1049 21.448V10.7733C18.1631 11.2776 16.6434 12.7905 16.1369 14.7238Z" fill="#0079BE"/>
<path d="M4 1.00098H42V-0.999023H4V1.00098ZM45 4.00098V28.001H47V4.00098H45ZM42 31.001H4V33.001H42V31.001ZM1 28.001V4.00098H-1V28.001H1ZM4 31.001C2.34315 31.001 1 29.6578 1 28.001H-1C-1 30.7624 1.23858 33.001 4 33.001V31.001ZM45 28.001C45 29.6578 43.6569 31.001 42 31.001V33.001C44.7614 33.001 47 30.7624 47 28.001H45ZM42 1.00098C43.6569 1.00098 45 2.34412 45 4.00098H47C47 1.23955 44.7614 -0.999023 42 -0.999023V1.00098ZM4 -0.999023C1.23858 -0.999023 -1 1.23955 -1 4.00098H1C1 2.34412 2.34315 1.00098 4 1.00098V-0.999023Z" fill="#F2F4F7"/>
</svg>
