<svg width="46" height="32" viewBox="0 0 46 32" fill="none" xmlns="http://www.w3.org/2000/svg">
<path d="M0 4.00098C0 1.79184 1.79086 0.000976562 4 0.000976562H42C44.2091 0.000976562 46 1.79184 46 4.00098V28.001C46 30.2101 44.2091 32.001 42 32.001H4C1.79086 32.001 0 30.2101 0 28.001V4.00098Z" fill="white"/>
<path d="M25 31.001L44 25.251V28.001C44 29.6578 42.6569 31.001 41 31.001H25Z" fill="#FD6020"/>
<path fill-rule="evenodd" clip-rule="evenodd" d="M39.1916 12.1488C40.5853 12.1488 41.3518 12.7935 41.3518 14.0113C41.4215 14.9426 40.7943 15.7306 39.9581 15.8738L41.8396 18.5244H40.3762L38.7734 15.9455H38.6341V18.5244H37.4494V12.1488H39.1916ZM38.6341 15.0859H38.9825C39.749 15.0859 40.0975 14.7277 40.0975 14.083C40.0975 13.5099 39.749 13.1517 38.9825 13.1517H38.6341V15.0859ZM33.3379 18.5244H36.6829V17.4498H34.5226V15.7306H36.6132V14.656H34.5226V13.2233H36.6829V12.1488H33.3379V18.5244ZM29.8536 16.4469L28.2508 12.1488H26.9965L29.5749 18.6676H30.202L32.7804 12.1488H31.5261L29.8536 16.4469ZM15.7073 15.3724C15.7073 17.1633 17.101 18.6676 18.8432 18.6676C19.4007 18.6676 19.8885 18.5244 20.3763 18.3095V16.8767C20.0279 17.3066 19.5401 17.5931 18.9826 17.5931C17.8676 17.5931 16.9617 16.7335 16.9617 15.5873V15.444C16.892 14.2979 17.7979 13.295 18.9129 13.2233C19.4704 13.2233 20.0279 13.5099 20.3763 13.9397V12.507C19.9582 12.2204 19.4007 12.1488 18.9129 12.1488C17.101 12.0055 15.7073 13.5099 15.7073 15.3724ZM13.547 14.5844C12.8502 14.2979 12.6411 14.1546 12.6411 13.7964C12.7108 13.3666 13.0592 13.0084 13.4773 13.08C13.8258 13.08 14.1742 13.2949 14.4529 13.5815L15.0801 12.7219C14.5923 12.292 13.9651 12.0055 13.338 12.0055C12.3624 11.9339 11.5261 12.7219 11.4564 13.7248V13.7964C11.4564 14.656 11.8049 15.1575 12.9198 15.5157C13.1986 15.5873 13.4773 15.7306 13.7561 15.8738C13.9651 16.0171 14.1045 16.232 14.1045 16.5186C14.1045 17.02 13.6864 17.4498 13.2683 17.4498H13.1986C12.6411 17.4498 12.1533 17.0917 11.9442 16.5902L11.1777 17.3782C11.5958 18.1662 12.432 18.596 13.2683 18.596C14.3833 18.6676 15.2892 17.808 15.3589 16.6618V16.4469C15.2892 15.5873 14.9407 15.1575 13.547 14.5844ZM9.50522 18.5244H10.6899V12.1488H9.50522V18.5244ZM4 12.1488H5.74216H6.09059C7.76306 12.2204 9.0871 13.6531 9.01741 15.3724C9.01741 16.3037 8.59929 17.1633 7.90243 17.808C7.27526 18.3095 6.50871 18.596 5.74216 18.5244H4V12.1488ZM5.5331 17.4498C6.09059 17.5215 6.71776 17.3065 7.13588 16.9484C7.554 16.5186 7.76306 15.9455 7.76306 15.3007C7.76306 14.7277 7.554 14.1546 7.13588 13.7248C6.71776 13.3666 6.09059 13.1517 5.5331 13.2233H5.18466V17.4498H5.5331Z" fill="black"/>
<path fill-rule="evenodd" clip-rule="evenodd" d="M23.9302 12.001C22.188 12.001 20.7246 13.4337 20.7246 15.2962C20.7246 17.0871 22.1183 18.5915 23.9302 18.6631C25.742 18.7348 27.1357 17.2304 27.2054 15.3679C27.1357 13.5053 25.742 12.001 23.9302 12.001V12.001Z" fill="#FD6020"/>
<path d="M4 1.00098H42V-0.999023H4V1.00098ZM45 4.00098V28.001H47V4.00098H45ZM42 31.001H4V33.001H42V31.001ZM1 28.001V4.00098H-1V28.001H1ZM4 31.001C2.34315 31.001 1 29.6578 1 28.001H-1C-1 30.7624 1.23858 33.001 4 33.001V31.001ZM45 28.001C45 29.6578 43.6569 31.001 42 31.001V33.001C44.7614 33.001 47 30.7624 47 28.001H45ZM42 1.00098C43.6569 1.00098 45 2.34412 45 4.00098H47C47 1.23955 44.7614 -0.999023 42 -0.999023V1.00098ZM4 -0.999023C1.23858 -0.999023 -1 1.23955 -1 4.00098H1C1 2.34412 2.34315 1.00098 4 1.00098V-0.999023Z" fill="#F2F4F7"/>
</svg>
