<svg width="46" height="32" viewBox="0 0 46 32" fill="none" xmlns="http://www.w3.org/2000/svg">
<path d="M0 4.00098C0 1.79184 1.79086 0.000976562 4 0.000976562H42C44.2091 0.000976562 46 1.79184 46 4.00098V28.001C46 30.2101 44.2091 32.001 42 32.001H4C1.79086 32.001 0 30.2101 0 28.001V4.00098Z" fill="white"/>
<path d="M10.4321 12.6615C10.8157 12.5357 11.226 12.4674 11.653 12.4674C13.5164 12.4674 15.0707 13.7659 15.4273 15.4908L18.0679 14.9626C17.462 12.031 14.8205 9.82422 11.653 9.82422C10.9278 9.82422 10.2297 9.94011 9.57812 10.1536L10.4321 12.6615Z" fill="#FECA2F"/>
<path d="M7.28936 21.1578L8.87042 19.1163C8.16468 18.4025 7.71925 17.3603 7.71925 16.1987C7.71925 15.0379 8.16427 13.9957 8.8698 13.2824L7.28791 11.2412C6.08871 12.454 5.33301 14.2255 5.33301 16.1987C5.33301 18.1728 6.08982 19.945 7.28936 21.1578Z" fill="#1BA7DE"/>
<path d="M15.4281 16.9072C15.0704 18.6319 13.517 19.9287 11.6552 19.9287C11.2281 19.9287 10.8169 19.8603 10.4333 19.7341L9.57812 22.2432C10.2308 22.4578 10.929 22.5738 11.6552 22.5738C14.8198 22.5738 17.4596 20.3685 18.0679 17.438L15.4281 16.9072Z" fill="#EC412A"/>
<path fill-rule="evenodd" clip-rule="evenodd" d="M30.7721 11.2412V18.4962L32.0741 19.0181L31.4582 20.449L30.1707 19.9315C29.8812 19.8101 29.6852 19.6252 29.5364 19.4163C29.3935 19.2025 29.2875 18.9104 29.2875 18.5162V11.2412H30.7721ZM20.8979 16.6334C20.9303 14.5587 22.6971 12.9025 24.8411 12.9343C26.6608 12.9619 28.1685 14.1944 28.5645 15.8336L21.5266 18.7424C21.1178 18.138 20.8854 17.4109 20.8979 16.6334ZM22.5083 16.9242C22.4986 16.8372 22.4918 16.7479 22.4944 16.6579C22.5146 15.4355 23.5548 14.4601 24.8179 14.4804C25.5055 14.4893 26.116 14.7937 26.5287 15.2649L22.5083 16.9242ZM26.3805 18.2712C25.9563 18.6702 25.3811 18.9132 24.746 18.9045C24.3107 18.8975 23.9073 18.7714 23.5644 18.5615L22.7142 19.8714C23.2965 20.2273 23.983 20.4379 24.7232 20.449C25.8006 20.4645 26.7826 20.0552 27.4966 19.3795L26.3805 18.2712ZM36.1907 14.4803C35.9371 14.4803 35.6934 14.52 35.4657 14.5939L34.9591 13.1259C35.3457 13.0011 35.7598 12.9333 36.1907 12.9333C38.0711 12.9333 39.6398 14.2249 39.9995 15.9407L38.4313 16.2499C38.22 15.2401 37.2971 14.4803 36.1907 14.4803ZM33.6159 19.5062L34.6755 18.3474C34.2023 17.9423 33.9043 17.3506 33.9043 16.691C33.9043 16.0321 34.2023 15.4407 34.6751 15.0358L33.6147 13.8771C32.8108 14.5656 32.3043 15.5715 32.3043 16.691C32.3043 17.8119 32.8112 18.8175 33.6159 19.5062ZM36.1906 18.9025C37.296 18.9025 38.2187 18.1434 38.4312 17.1351L39.999 17.4456C39.6375 19.1595 38.0693 20.4494 36.1906 20.4494C35.7594 20.4494 35.3448 20.3814 34.957 20.2559L35.4649 18.7885C35.693 18.8622 35.9368 18.9025 36.1906 18.9025Z" fill="black"/>
<path d="M4 1.00098H42V-0.999023H4V1.00098ZM45 4.00098V28.001H47V4.00098H45ZM42 31.001H4V33.001H42V31.001ZM1 28.001V4.00098H-1V28.001H1ZM4 31.001C2.34315 31.001 1 29.6578 1 28.001H-1C-1 30.7624 1.23858 33.001 4 33.001V31.001ZM45 28.001C45 29.6578 43.6569 31.001 42 31.001V33.001C44.7614 33.001 47 30.7624 47 28.001H45ZM42 1.00098C43.6569 1.00098 45 2.34412 45 4.00098H47C47 1.23955 44.7614 -0.999023 42 -0.999023V1.00098ZM4 -0.999023C1.23858 -0.999023 -1 1.23955 -1 4.00098H1C1 2.34412 2.34315 1.00098 4 1.00098V-0.999023Z" fill="#F2F4F7"/>
</svg>
