<svg width="46" height="32" viewBox="0 0 46 32" fill="none" xmlns="http://www.w3.org/2000/svg">
<path d="M0 6.00098C0 2.68727 2.68629 0.000976562 6 0.000976562H40C43.3137 0.000976562 46 2.68727 46 6.00098V26.001C46 29.3147 43.3137 32.001 40 32.001H6C2.68629 32.001 0 29.3147 0 26.001V6.00098Z" fill="white"/>
<ellipse cx="22.58" cy="15.914" rx="10.58" ry="10.58" fill="#6481E7"/>
<path fill-rule="evenodd" clip-rule="evenodd" d="M17.958 16.3444L22.7038 19.15V8.46973L17.958 16.3444Z" fill="white"/>
<path fill-rule="evenodd" clip-rule="evenodd" d="M22.7041 8.46973V19.15L27.4499 16.3444L22.7041 8.46973Z" fill="#C1CCF5"/>
<path fill-rule="evenodd" clip-rule="evenodd" d="M22.7041 14.1875L17.958 16.3444L22.7038 19.1499L27.4499 16.3447L22.7041 14.1875Z" fill="#8299EC"/>
<path fill-rule="evenodd" clip-rule="evenodd" d="M22.7041 14.1875L17.958 16.3444L22.7038 19.1499L22.7041 14.1875Z" fill="#C1CCF5"/>
<path fill-rule="evenodd" clip-rule="evenodd" d="M17.958 17.2441L22.7038 23.9321V20.0481L17.958 17.2441Z" fill="white"/>
<path fill-rule="evenodd" clip-rule="evenodd" d="M22.7041 20.0481V23.9324L27.453 17.2441L22.7041 20.0481Z" fill="#C1CCF5"/>
<path d="M6 1.00098H40V-0.999023H6V1.00098ZM45 6.00098V26.001H47V6.00098H45ZM40 31.001H6V33.001H40V31.001ZM1 26.001V6.00098H-1V26.001H1ZM6 31.001C3.23858 31.001 1 28.7624 1 26.001H-1C-1 29.867 2.13401 33.001 6 33.001V31.001ZM45 26.001C45 28.7624 42.7614 31.001 40 31.001V33.001C43.866 33.001 47 29.867 47 26.001H45ZM40 1.00098C42.7614 1.00098 45 3.23955 45 6.00098H47C47 2.13498 43.866 -0.999023 40 -0.999023V1.00098ZM6 -0.999023C2.13401 -0.999023 -1 2.13498 -1 6.00098H1C1 3.23955 3.23858 1.00098 6 1.00098V-0.999023Z" fill="#F2F4F7"/>
</svg>
