<svg width="46" height="32" viewBox="0 0 46 32" fill="none" xmlns="http://www.w3.org/2000/svg">
<path d="M0 4.00098C0 1.79184 1.79086 0.000976562 4 0.000976562H42C44.2091 0.000976562 46 1.79184 46 4.00098V28.001C46 30.2101 44.2091 32.001 42 32.001H4C1.79086 32.001 0 30.2101 0 28.001V4.00098Z" fill="white"/>
<path fill-rule="evenodd" clip-rule="evenodd" d="M19.3424 14.2094H13.5023H13.4053C13.8512 8.47341 16.1812 6.73831 22.2506 6.66856C22.344 6.66797 22.4349 6.66797 22.5271 6.66797H22.6912C22.7837 6.66797 22.8743 6.66797 22.968 6.66856C23.7367 6.67737 24.4449 6.7132 25.0976 6.78001C25.0498 6.78163 25.0029 6.78324 24.9502 6.78897C24.9013 6.79382 24.8401 6.79746 24.7678 6.80176C24.0496 6.84447 22.2386 6.95217 20.5816 8.95388C19.602 10.1385 19.505 14.2094 19.505 14.2094H19.3424ZM18.9103 21.1891C18.2255 22.0455 17.2398 21.9879 17.226 21.9871V25.4677C14.7872 24.4831 13.6879 22.4301 13.4013 18.6446C13.3666 18.1885 13.3459 17.7877 13.333 17.4555L19.5051 17.4532L19.501 17.8205L19.501 17.8212L19.501 17.8223C19.4937 18.4576 19.4796 19.6893 19.4812 19.7304C19.4859 19.9112 19.4402 20.5272 18.9103 21.1891ZM27.0517 7.1239C30.1531 7.94989 31.4965 10.0142 31.8172 14.255C31.917 15.5722 31.9056 16.4496 31.9056 16.4496C31.9056 16.4496 31.9172 17.3274 31.8173 18.6445C31.3807 24.4172 29.0534 26.1609 22.9681 26.231C22.8744 26.2316 22.3442 26.2316 22.2508 26.231C21.1953 26.2186 20.2562 26.1548 19.4171 26.0299C19.4208 26.0299 19.4244 26.0299 19.428 26.0299C19.4537 26.0296 19.4789 26.0294 19.5051 26.0276C20.6061 25.9645 22.139 25.1153 23.0514 23.1398C23.4499 22.2759 23.5569 20.7338 23.5569 20.7338V17.4539H23.5572V17.453H26.8903H27.052V14.2091H26.8903H23.5575C23.5575 14.2091 23.5575 14.2086 23.5572 14.2085C23.5572 14.2085 23.5558 14.2051 23.5546 14.1989L23.5537 14.1947C23.5528 14.192 23.5521 14.1893 23.5513 14.1861C23.5504 14.1823 23.5492 14.178 23.5475 14.1727C23.5474 14.1715 23.5472 14.1701 23.5469 14.1686C23.5466 14.1666 23.5462 14.1643 23.5461 14.1624C23.5436 14.153 23.5414 14.1439 23.5396 14.1314C23.5387 14.1283 23.5382 14.1247 23.5377 14.1209C23.5374 14.1184 23.537 14.1159 23.5365 14.1135C23.5342 14.1013 23.5323 14.089 23.5304 14.0744C23.5289 14.0687 23.5285 14.0616 23.528 14.0549C23.5279 14.0534 23.5278 14.0518 23.5277 14.0503C23.5254 14.0349 23.5238 14.0202 23.5218 14.0026C23.5216 13.999 23.5215 13.9952 23.5213 13.9914C23.5211 13.9857 23.5209 13.98 23.5204 13.9747C23.5201 13.971 23.5199 13.9674 23.5197 13.9637C23.5187 13.9487 23.5177 13.9336 23.5174 13.9167C23.5173 13.9117 23.5173 13.9064 23.5173 13.9011C23.5173 13.8958 23.5173 13.8905 23.5171 13.8854C23.5171 13.8781 23.517 13.8708 23.5169 13.8635C23.5166 13.8486 23.5163 13.8335 23.5171 13.8172C23.5171 13.8115 23.5175 13.8054 23.5179 13.7992C23.5182 13.7945 23.5185 13.7897 23.5186 13.785C23.5192 13.759 23.5202 13.7332 23.523 13.7044C23.5233 13.7002 23.5238 13.6958 23.5243 13.6913C23.5248 13.6864 23.5254 13.6814 23.5257 13.6766C23.5285 13.6452 23.5321 13.6135 23.537 13.5797C23.5373 13.5765 23.5379 13.5732 23.5385 13.5699C23.5391 13.5667 23.5398 13.5635 23.5401 13.5605C23.5459 13.5223 23.5522 13.4835 23.5606 13.4427C23.5606 13.4418 23.5609 13.4405 23.5612 13.4392C23.6202 13.1556 23.7468 12.8066 24.0004 12.4111C24.6823 11.35 26.6189 11.4 26.9903 11.4196C27.0292 11.422 27.0511 11.4236 27.0517 11.4236V7.1239ZM19.2939 26.0097C19.2961 26.0098 19.2983 26.0098 19.3006 26.0098C19.2984 26.0098 19.2961 26.0098 19.2939 26.0097H19.2939Z" fill="#659AD2"/>
<path d="M4 1.00098H42V-0.999023H4V1.00098ZM45 4.00098V28.001H47V4.00098H45ZM42 31.001H4V33.001H42V31.001ZM1 28.001V4.00098H-1V28.001H1ZM4 31.001C2.34315 31.001 1 29.6578 1 28.001H-1C-1 30.7624 1.23858 33.001 4 33.001V31.001ZM45 28.001C45 29.6578 43.6569 31.001 42 31.001V33.001C44.7614 33.001 47 30.7624 47 28.001H45ZM42 1.00098C43.6569 1.00098 45 2.34412 45 4.00098H47C47 1.23955 44.7614 -0.999023 42 -0.999023V1.00098ZM4 -0.999023C1.23858 -0.999023 -1 1.23955 -1 4.00098H1C1 2.34412 2.34315 1.00098 4 1.00098V-0.999023Z" fill="#F2F4F7"/>
</svg>
