<svg width="46" height="32" viewBox="0 0 46 32" fill="none" xmlns="http://www.w3.org/2000/svg">
<path d="M0 4.00098C0 1.79184 1.79086 0.000976562 4 0.000976562H42C44.2091 0.000976562 46 1.79184 46 4.00098V28.001C46 30.2101 44.2091 32.001 42 32.001H4C1.79086 32.001 0 30.2101 0 28.001V4.00098Z" fill="white"/>
<path fill-rule="evenodd" clip-rule="evenodd" d="M8.24155 10.3244C7.43777 10.3257 6.78745 10.9184 6.78589 11.6508V11.6509V20.4576V20.4576C6.7859 20.4633 6.78595 20.469 6.78604 20.4747C6.78595 20.469 6.7859 20.4633 6.78589 20.4576M6.81592 20.7248C6.95242 21.3288 7.53823 21.7829 8.24155 21.7841H23.3871V21.7841H8.24155C7.53824 21.7828 6.95243 21.3288 6.81592 20.7248ZM23.3871 10.3244V10.3244H8.24155M8.24155 9.33398H37.2278C38.632 9.3342 39.7697 10.3708 39.7702 11.6509V20.4576C39.7697 21.7372 38.632 22.7739 37.2278 22.7744H8.24155C6.83724 22.7739 5.6997 21.7372 5.69922 20.4576V11.6509C5.6997 10.3708 6.83724 9.3342 8.24155 9.33398Z" fill="#0F3365"/>
<path fill-rule="evenodd" clip-rule="evenodd" d="M25.8653 19.0166H24.5938V14.3097H25.7665V14.915H25.7807C26.035 14.4449 26.5721 14.2324 27.1515 14.2324C28.169 14.2324 28.7267 15.1146 28.7267 15.9258C28.7267 16.9174 28.1404 17.7416 27.0453 17.7416C26.6003 17.7416 26.1198 17.5937 25.8795 17.1945H25.8653V19.0166ZM26.6429 16.8531C27.123 16.8531 27.4128 16.4862 27.4128 15.9516C27.4128 15.5071 27.1372 15.121 26.6429 15.121C26.1764 15.121 25.8652 15.4945 25.8652 15.9966C25.8652 16.4862 26.2188 16.8531 26.6429 16.8531ZM33.5993 19.0166C33.8609 19.0682 34.1221 19.094 34.3907 19.094C35.4906 19.094 35.7979 18.366 36.1315 17.576L36.1316 17.5757C36.1516 17.5283 36.1717 17.4807 36.1921 17.4329L37.5418 14.3097H36.2701L35.5139 16.4988H35.4998L34.7084 14.3097H33.3383L34.8284 17.7416C34.7371 18.0378 34.4968 18.2053 34.1863 18.2053C34.0092 18.2053 33.8537 18.1863 33.6844 18.1344L33.5993 19.0166ZM33.1253 17.7735C33.0689 17.5095 33.0545 17.2457 33.0545 16.9815V15.7324C33.0545 14.7085 32.2422 14.3417 31.3025 14.3417C30.7583 14.3417 30.285 14.4122 29.8329 14.58L29.8538 15.3654C30.2074 15.1853 30.6171 15.1143 31.0266 15.1143C31.486 15.1143 31.8607 15.2366 31.8677 15.694C31.7052 15.668 31.4793 15.6484 31.2744 15.6484C30.596 15.6484 29.3738 15.7712 29.3738 16.7949C29.3738 17.5228 30.0238 17.8511 30.7515 17.8511C31.2744 17.8511 31.6276 17.6641 31.9171 17.2457H31.9309C31.9309 17.3478 31.9384 17.4499 31.9459 17.5533L31.9459 17.5533V17.5533C31.9512 17.626 31.9566 17.6992 31.9594 17.7735H33.1253ZM30.5605 16.7113C30.5605 16.3894 30.8995 16.2671 31.3306 16.2671C31.4658 16.2671 31.5973 16.2735 31.7203 16.2795C31.771 16.282 31.8202 16.2844 31.8676 16.2863C31.8676 16.6789 31.564 17.0786 31.0832 17.0786C30.7866 17.0786 30.5605 16.9428 30.5605 16.7113Z" fill="#FFFFFE"/>
<path fill-rule="evenodd" clip-rule="evenodd" d="M13.5419 17.665H14.8136V14.3104H13.5419V17.665ZM13.5419 13.763H14.8136V12.9131H13.5419V13.763ZM17.9237 14.2332C18.0719 14.2332 18.2273 14.2525 18.3546 14.2715L18.2908 15.2374C18.1497 15.1989 18.0083 15.1989 17.8601 15.1989C17.2667 15.1989 16.9345 15.5918 16.9345 16.2487V17.665H15.6629V14.3105H16.8216V14.9284H16.8355C17.0547 14.5036 17.3727 14.2332 17.9237 14.2332ZM22.6847 15.9912C22.6847 17.0987 21.7591 17.7424 20.5442 17.7424C19.3291 17.7424 18.4035 17.0987 18.4035 15.9912C18.4035 14.8769 19.3291 14.2332 20.5442 14.2332C21.7591 14.2332 22.6847 14.8769 22.6847 15.9912ZM19.7176 15.9912C19.7176 16.487 19.9577 16.9311 20.5442 16.9311C21.1305 16.9311 21.3708 16.487 21.3708 15.9912C21.3708 15.4888 21.1305 15.0446 20.5442 15.0446C19.9577 15.0446 19.7176 15.4888 19.7176 15.9912ZM11.5126 14.3105H12.6644V17.2726C12.6644 18.6503 11.9297 19.0948 10.446 19.0948C9.83849 19.0948 9.33683 18.9786 9.04 18.8824L9.10374 17.968C9.49222 18.1418 9.8172 18.2447 10.3471 18.2447C11.082 18.2447 11.4774 17.9294 11.4774 17.2726V17.0919H11.4631C11.1596 17.4852 10.7357 17.665 10.2271 17.665C9.21668 17.665 8.58789 16.9701 8.58789 15.9781C8.58789 14.98 9.10374 14.2332 10.2481 14.2332C10.792 14.2332 11.2302 14.5036 11.4987 14.9156H11.5126V14.3105ZM10.6227 15.1218C10.1493 15.1218 9.90203 15.5017 9.90203 15.9587C9.90203 16.4801 10.2412 16.7766 10.6227 16.7766C11.0747 16.7766 11.4352 16.429 11.4352 15.9136C11.4352 15.54 11.1948 15.1218 10.6227 15.1218Z" fill="#D8232A"/>
<path d="M4 1.00098H42V-0.999023H4V1.00098ZM45 4.00098V28.001H47V4.00098H45ZM42 31.001H4V33.001H42V31.001ZM1 28.001V4.00098H-1V28.001H1ZM4 31.001C2.34315 31.001 1 29.6578 1 28.001H-1C-1 30.7624 1.23858 33.001 4 33.001V31.001ZM45 28.001C45 29.6578 43.6569 31.001 42 31.001V33.001C44.7614 33.001 47 30.7624 47 28.001H45ZM42 1.00098C43.6569 1.00098 45 2.34412 45 4.00098H47C47 1.23955 44.7614 -0.999023 42 -0.999023V1.00098ZM4 -0.999023C1.23858 -0.999023 -1 1.23955 -1 4.00098H1C1 2.34412 2.34315 1.00098 4 1.00098V-0.999023Z" fill="#F2F4F7"/>
</svg>
