<svg width="46" height="32" viewBox="0 0 46 32" fill="none" xmlns="http://www.w3.org/2000/svg">
<path d="M0 4.00098C0 1.79184 1.79086 0.000976562 4 0.000976562H42C44.2091 0.000976562 46 1.79184 46 4.00098V28.001C46 30.2101 44.2091 32.001 42 32.001H4C1.79086 32.001 0 30.2101 0 28.001V4.00098Z" fill="white"/>
<path fill-rule="evenodd" clip-rule="evenodd" d="M33.3333 16.0011C33.3333 21.8922 28.5577 26.6678 22.6667 26.6678C16.7756 26.6678 12 21.8922 12 16.0011C12 10.1101 16.7756 5.33447 22.6667 5.33447C28.5577 5.33447 33.3333 10.1101 33.3333 16.0011ZM19.7712 16.7931L21.2749 11.1529H24.5338L23.4058 15.5399L24.91 14.9132L24.5338 16.2917L23.0296 16.7931L22.2777 19.5507H27.6676L27.1661 21.5558H18.5173L19.395 18.1716L18.1417 18.6731L18.5173 17.2946L19.7712 16.7931Z" fill="#A5A8A9"/>
<path d="M4 1.00098H42V-0.999023H4V1.00098ZM45 4.00098V28.001H47V4.00098H45ZM42 31.001H4V33.001H42V31.001ZM1 28.001V4.00098H-1V28.001H1ZM4 31.001C2.34315 31.001 1 29.6578 1 28.001H-1C-1 30.7624 1.23858 33.001 4 33.001V31.001ZM45 28.001C45 29.6578 43.6569 31.001 42 31.001V33.001C44.7614 33.001 47 30.7624 47 28.001H45ZM42 1.00098C43.6569 1.00098 45 2.34412 45 4.00098H47C47 1.23955 44.7614 -0.999023 42 -0.999023V1.00098ZM4 -0.999023C1.23858 -0.999023 -1 1.23955 -1 4.00098H1C1 2.34412 2.34315 1.00098 4 1.00098V-0.999023Z" fill="#F2F4F7"/>
</svg>
