<svg width="46" height="32" viewBox="0 0 46 32" fill="none" xmlns="http://www.w3.org/2000/svg">
<path d="M0 4.00098C0 1.79184 1.79086 0.000976562 4 0.000976562H42C44.2091 0.000976562 46 1.79184 46 4.00098V28.001C46 30.2101 44.2091 32.001 42 32.001H4C1.79086 32.001 0 30.2101 0 28.001V4.00098Z" fill="white"/>
<path d="M25.6768 15.6085C25.6768 20.5465 21.7197 24.5495 16.8384 24.5495C11.9571 24.5495 8 20.5465 8 15.6085C8 10.6705 11.9571 6.66748 16.8384 6.66748C21.7197 6.66748 25.6768 10.6705 25.6768 15.6085Z" fill="#ED0006"/>
<path d="M37.1426 15.6085C37.1426 20.5465 33.1855 24.5495 28.3042 24.5495C23.4229 24.5495 19.4658 20.5465 19.4658 15.6085C19.4658 10.6705 23.4229 6.66748 28.3042 6.66748C33.1855 6.66748 37.1426 10.6705 37.1426 15.6085Z" fill="#0099DF"/>
<path fill-rule="evenodd" clip-rule="evenodd" d="M22.5712 8.80322C24.4715 10.4432 25.6765 12.8834 25.6765 15.6083C25.6765 18.3332 24.4715 20.7735 22.5712 22.4134C20.6708 20.7735 19.4658 18.3332 19.4658 15.6083C19.4658 12.8834 20.6708 10.4432 22.5712 8.80322Z" fill="#6C6BBD"/>
<path d="M4 1.00098H42V-0.999023H4V1.00098ZM45 4.00098V28.001H47V4.00098H45ZM42 31.001H4V33.001H42V31.001ZM1 28.001V4.00098H-1V28.001H1ZM4 31.001C2.34315 31.001 1 29.6578 1 28.001H-1C-1 30.7624 1.23858 33.001 4 33.001V31.001ZM45 28.001C45 29.6578 43.6569 31.001 42 31.001V33.001C44.7614 33.001 47 30.7624 47 28.001H45ZM42 1.00098C43.6569 1.00098 45 2.34412 45 4.00098H47C47 1.23955 44.7614 -0.999023 42 -0.999023V1.00098ZM4 -0.999023C1.23858 -0.999023 -1 1.23955 -1 4.00098H1C1 2.34412 2.34315 1.00098 4 1.00098V-0.999023Z" fill="#F2F4F7"/>
</svg>
