<svg width="46" height="32" viewBox="0 0 46 32" fill="none" xmlns="http://www.w3.org/2000/svg">
<path d="M0 4.00098C0 1.79184 1.79086 0.000976562 4 0.000976562H42C44.2091 0.000976562 46 1.79184 46 4.00098V28.001C46 30.2101 44.2091 32.001 42 32.001H4C1.79086 32.001 0 30.2101 0 28.001V4.00098Z" fill="white"/>
<path d="M29.309 15.9398C30.0174 15.9552 30.7298 15.9085 31.4353 15.964C32.1498 16.0973 32.322 17.179 31.6872 17.5332C31.2541 17.7666 30.7396 17.6201 30.2701 17.6613H29.309V15.9398ZM31.8449 13.9913C32.0022 14.5468 31.4668 15.0455 30.9318 14.969H29.309C29.3204 14.4452 29.2868 13.8766 29.3255 13.3803C29.9756 13.3986 30.6316 13.343 31.2779 13.4094C31.5556 13.4792 31.788 13.7075 31.8449 13.9913ZM35.7501 5.75346C35.7803 6.81431 35.7545 7.93123 35.7631 9.01361C35.7611 13.4141 35.7674 17.8145 35.7597 22.2153C35.7312 23.8645 34.2696 25.2976 32.6318 25.3305C30.9924 25.3371 29.3528 25.3315 27.7132 25.3333V18.6806C29.4996 18.6714 31.287 18.6994 33.0727 18.6667C33.901 18.6147 34.8084 18.0681 34.847 17.1565C34.9445 16.2409 34.0813 15.6077 33.2618 15.5077C32.9468 15.4995 32.956 15.4158 33.2618 15.3793C34.0434 15.2104 34.6572 14.4014 34.4273 13.5912C34.2313 12.739 33.2894 12.4092 32.506 12.4109C30.9087 12.4 29.311 12.4094 27.7136 12.4062C27.7239 11.1642 27.692 9.92092 27.7307 8.67985C27.8573 7.06041 29.3557 5.72491 30.9704 5.75388C32.5639 5.75364 34.157 5.75364 35.7501 5.75358V5.75346Z" fill="url(#paint0_linear_1752_203928)"/>
<path d="M9.66163 8.84739C9.70242 7.2008 11.1703 5.77952 12.8059 5.75545C14.4393 5.75042 16.0728 5.75473 17.7061 5.75327C17.7016 11.2624 17.715 16.7722 17.6994 22.281C17.6365 23.9076 16.1847 25.3018 14.5668 25.3306C12.9304 25.3365 11.2938 25.3314 9.65733 25.3331V18.4561C11.2469 18.8316 12.9138 18.9915 14.5354 18.7424C15.5047 18.5864 16.5653 18.1104 16.8934 17.1048C17.1349 16.2446 16.999 15.3393 17.0349 14.4564V12.406H14.2286C14.2159 13.7621 14.2544 15.1205 14.2082 16.4749C14.1326 17.3074 13.3081 17.8364 12.523 17.8081C11.5492 17.8184 9.61962 17.1024 9.61962 17.1024C9.61477 14.5617 9.64787 11.3799 9.66163 8.84763V8.84739Z" fill="url(#paint1_linear_1752_203928)"/>
<path d="M18.7525 13.2333C18.6048 13.2647 18.7228 12.7302 18.6851 12.5274C18.6951 11.2454 18.664 9.96192 18.7022 8.68078C18.8284 7.0545 20.3383 5.71565 21.9596 5.75372H26.7342C26.7297 11.2629 26.743 16.7726 26.7275 22.2815C26.6645 23.9081 25.2126 25.3022 23.5947 25.331C21.9582 25.3372 20.3216 25.332 18.685 25.3336V17.7989C19.8027 18.716 21.3218 18.8588 22.7143 18.8612C23.764 18.8609 24.8077 18.699 25.8271 18.4569V17.0766C24.6782 17.6491 23.3277 18.0128 22.0542 17.6839C21.1658 17.4627 20.5209 16.6042 20.5352 15.6873C20.4323 14.7339 20.9912 13.7273 21.9281 13.4439C23.0914 13.0797 24.3593 13.3582 25.4497 13.8317C25.6833 13.954 25.9205 14.1057 25.827 13.7152V12.6303C24.0033 12.1964 22.0625 12.0367 20.2303 12.5087C19.7 12.6583 19.1833 12.8852 18.7525 13.2335V13.2333Z" fill="url(#paint2_linear_1752_203928)"/>
<path d="M4 1.00098H42V-0.999023H4V1.00098ZM45 4.00098V28.001H47V4.00098H45ZM42 31.001H4V33.001H42V31.001ZM1 28.001V4.00098H-1V28.001H1ZM4 31.001C2.34315 31.001 1 29.6578 1 28.001H-1C-1 30.7624 1.23858 33.001 4 33.001V31.001ZM45 28.001C45 29.6578 43.6569 31.001 42 31.001V33.001C44.7614 33.001 47 30.7624 47 28.001H45ZM42 1.00098C43.6569 1.00098 45 2.34412 45 4.00098H47C47 1.23955 44.7614 -0.999023 42 -0.999023V1.00098ZM4 -0.999023C1.23858 -0.999023 -1 1.23955 -1 4.00098H1C1 2.34412 2.34315 1.00098 4 1.00098V-0.999023Z" fill="#F2F4F7"/>
<defs>
<linearGradient id="paint0_linear_1752_203928" x1="27.6582" y1="15.1248" x2="35.7124" y2="15.1248" gradientUnits="userSpaceOnUse">
<stop stop-color="#58B03A"/>
<stop offset="1" stop-color="#55B330"/>
</linearGradient>
<linearGradient id="paint1_linear_1752_203928" x1="9.48608" y1="15.7307" x2="17.5742" y2="15.7307" gradientUnits="userSpaceOnUse">
<stop stop-color="#0F6EB6"/>
<stop offset="1" stop-color="#006DBA"/>
</linearGradient>
<linearGradient id="paint2_linear_1752_203928" x1="18.6732" y1="15.3147" x2="26.7327" y2="15.3147" gradientUnits="userSpaceOnUse">
<stop stop-color="#DE0D3D"/>
<stop offset="1" stop-color="#E30138"/>
</linearGradient>
</defs>
</svg>
