<svg width="46" height="32" viewBox="0 0 46 32" fill="none" xmlns="http://www.w3.org/2000/svg">
<path d="M0 4.00098C0 1.79184 1.79086 0.000976562 4 0.000976562H42C44.2091 0.000976562 46 1.79184 46 4.00098V28.001C46 30.2101 44.2091 32.001 42 32.001H4C1.79086 32.001 0 30.2101 0 28.001V4.00098Z" fill="white"/>
<path d="M5.83838 14.4112C5.5253 14.4112 5.49442 14.3095 5.49442 13.5685V13.4421C5.49442 12.6986 5.5253 12.5979 5.83838 12.5979H12.9976C13.3118 12.5979 13.3426 12.6986 13.3426 13.4411V13.5675C13.3426 14.3095 13.3112 14.4107 12.9976 14.4107H5.83838V14.4112ZM5.83838 11.1483C5.5253 11.1483 5.49442 11.0471 5.49442 10.3051V10.1787C5.49442 9.43413 5.5253 9.33398 5.83838 9.33398H12.9976C13.3118 9.33398 13.3426 9.43514 13.3426 10.1787V10.3051C13.3426 11.0471 13.3112 11.1483 12.9976 11.1483H5.83838ZM6.91088 20.8384C6.91088 19.6103 7.55167 18.9351 8.51584 18.9351C8.87984 18.9351 9.17126 19.0342 9.5358 19.2036C9.66797 19.2664 9.77738 19.2411 9.95072 18.8572L10.0769 18.5962C10.2015 18.2816 10.2107 18.1516 10.0596 18.0818C9.61272 17.8375 8.92101 17.6832 8.32355 17.6832C6.62109 17.6832 5.33301 18.9427 5.33301 20.8384C5.33301 22.7336 6.62109 23.9931 8.32301 23.9931C8.92101 23.9931 9.62842 23.8393 10.0769 23.5935C10.2264 23.5252 10.2167 23.3937 10.0932 23.0791L9.96859 22.8034C9.79526 22.419 9.6853 22.3973 9.55205 22.457C9.18751 22.6274 8.88038 22.7265 8.51584 22.7265C7.55167 22.7265 6.91251 22.066 6.91251 20.8384H6.91142H6.91088ZM27.1963 23.7027C27.1963 23.8696 27.1291 23.9152 26.6238 23.9152H26.5734C26.0409 23.9152 25.9667 23.8924 25.925 23.7705C25.8971 23.6878 25.8748 23.6035 25.8584 23.5181C25.5767 23.8327 25.2371 24.0007 24.7198 24.0007C23.4653 24.0007 22.7113 23.1408 22.7113 21.7579C22.7113 20.2633 23.5503 19.3781 24.7945 19.3781C25.145 19.3781 25.4678 19.4793 25.717 19.6634V17.7211C25.717 17.5912 25.7333 17.537 26.432 17.537H26.4824C27.1291 17.537 27.1958 17.5912 27.1958 17.7211V23.7027H27.1963ZM25.7176 20.7539C25.6321 20.6667 25.5282 20.5972 25.4124 20.5496C25.2965 20.5021 25.1713 20.4776 25.0448 20.4778C24.488 20.4778 24.2236 20.9294 24.2236 21.7589C24.2236 22.2344 24.3314 22.5364 24.488 22.6947C24.6288 22.858 24.8455 22.9107 25.054 22.9107C25.3113 22.9107 25.5101 22.8515 25.6022 22.7417C25.684 22.6578 25.717 22.5278 25.717 22.2283V20.7534L25.7181 20.7539H25.7176ZM34.7341 23.7331C34.7341 23.8621 34.6675 23.9152 34.0191 23.9152H33.9693C33.2716 23.9152 33.257 23.8621 33.257 23.7331V17.7211C33.257 17.5912 33.2716 17.537 33.9688 17.537H34.0186C34.6664 17.537 34.7336 17.5912 34.7336 17.7211V23.7331H34.7341ZM29.532 22.1348C29.6143 22.6795 29.9794 22.9415 30.553 22.9415C30.9945 22.9415 31.4078 22.8505 31.8909 22.6578C31.9917 22.6198 32.0821 22.6578 32.1888 22.9628L32.2647 23.1337C32.3714 23.4483 32.3622 23.5181 32.2473 23.5783C31.6732 23.8772 31.0757 23.9996 30.4111 23.9996C28.9421 23.9996 28.0207 23.1651 28.0207 21.7362C28.0207 20.3468 28.8673 19.3781 30.3206 19.3781C31.7582 19.3781 32.496 20.3311 32.496 21.6512C32.496 22.0892 32.4553 22.1348 32.2891 22.1348H29.532ZM31.0172 21.2835C30.9945 20.8242 30.7951 20.4236 30.3049 20.4236C29.8797 20.4236 29.5721 20.7221 29.5141 21.2835H31.0172ZM37.0351 22.1348C37.1164 22.6795 37.4826 22.9415 38.0567 22.9415C38.4944 22.9415 38.9115 22.8505 39.393 22.6578C39.4916 22.6198 39.5848 22.6578 39.692 22.9628L39.7673 23.1337C39.874 23.4483 39.8653 23.5181 39.751 23.5783C39.1769 23.8772 38.5783 23.9996 37.9132 23.9996C36.4436 23.9996 35.5233 23.1651 35.5233 21.7362C35.5233 20.3468 36.3683 19.3781 37.8222 19.3781C39.2608 19.3781 39.9997 20.3311 39.9997 21.6512C39.9997 22.0892 39.958 22.1348 39.7917 22.1348H37.0346H37.0351ZM38.522 21.2835C38.4949 20.8242 38.2972 20.4236 37.807 20.4236C37.3834 20.4236 37.0747 20.7221 37.0173 21.2835H38.522ZM20.3475 20.7843C20.2726 20.692 20.176 20.6172 20.0652 20.5654C19.9543 20.5137 19.8322 20.4864 19.7083 20.4859C19.1515 20.4859 18.8866 20.9385 18.8866 21.7438C18.8866 22.4266 19.0838 22.9339 19.6904 22.9339C19.9158 22.9339 20.0804 22.8803 20.198 22.7716C20.3052 22.6653 20.3475 22.5187 20.3475 22.198V20.7843ZM21.8425 23.7027C21.8425 23.8696 21.7769 23.9152 21.2705 23.9152H21.2022C20.6714 23.9152 20.5966 23.8924 20.5555 23.7705C20.527 23.6879 20.5047 23.6036 20.4888 23.5181C20.2072 23.8327 19.8659 24.0007 19.3503 24.0007C18.1461 24.0007 17.3732 23.155 17.3732 21.7751C17.3732 20.24 18.3287 19.3781 19.4586 19.3781C19.9158 19.3781 20.3133 19.5562 20.53 19.8091L20.5555 19.6169C20.5625 19.5258 20.5891 19.4651 21.135 19.4651H21.1941C21.7596 19.4651 21.8414 19.5021 21.8414 19.6422V23.7027H21.8425ZM14.9097 18.1678C15.4654 18.1678 15.499 18.1743 15.499 18.3433V19.4641H16.4551C16.5872 19.4641 16.6284 19.4869 16.6284 19.9087V19.9709C16.6284 20.3918 16.5872 20.4161 16.4551 20.4161H15.499V22.4276C15.499 22.7645 15.5645 22.9415 15.8966 22.9415C16.0699 22.9415 16.2216 22.9107 16.3711 22.8656C16.5282 22.8095 16.5878 22.8803 16.695 23.2323L16.7199 23.3168C16.8358 23.7027 16.8017 23.7331 16.6538 23.8009C16.3548 23.9314 15.9551 24.0007 15.5819 24.0007C14.4027 24.0007 14.0706 23.4483 14.0706 22.4873V20.4161H13.5138C13.373 20.4161 13.3378 20.3908 13.3378 19.9709V19.9087C13.3378 19.4869 13.3724 19.4651 13.5138 19.4651H14.1367C14.2044 19.1045 14.3193 18.5967 14.3946 18.3433C14.4363 18.1971 14.4612 18.1678 14.9097 18.1678ZM11.82 19.4651C12.4684 19.4651 12.5258 19.5172 12.5258 19.6488V23.7331C12.5258 23.8696 12.4684 23.9152 11.82 23.9152H11.7778C11.0644 23.9152 11.0481 23.8696 11.0481 23.7331V19.6488C11.0481 19.5172 11.0644 19.4651 11.7778 19.4651H11.82ZM11.7778 17.4688C12.2458 17.4688 12.5848 17.8061 12.5848 18.1895C12.5828 18.2856 12.5602 18.3803 12.5186 18.4682C12.4769 18.5561 12.4169 18.6354 12.3422 18.7014C12.1905 18.8354 11.9874 18.9083 11.7778 18.9037C11.3152 18.9037 10.9723 18.5663 10.9723 18.1895C10.9723 17.8051 11.3152 17.4688 11.7778 17.4688Z" fill="#EE293D"/>
<path d="M4 1.00098H42V-0.999023H4V1.00098ZM45 4.00098V28.001H47V4.00098H45ZM42 31.001H4V33.001H42V31.001ZM1 28.001V4.00098H-1V28.001H1ZM4 31.001C2.34315 31.001 1 29.6578 1 28.001H-1C-1 30.7624 1.23858 33.001 4 33.001V31.001ZM45 28.001C45 29.6578 43.6569 31.001 42 31.001V33.001C44.7614 33.001 47 30.7624 47 28.001H45ZM42 1.00098C43.6569 1.00098 45 2.34412 45 4.00098H47C47 1.23955 44.7614 -0.999023 42 -0.999023V1.00098ZM4 -0.999023C1.23858 -0.999023 -1 1.23955 -1 4.00098H1C1 2.34412 2.34315 1.00098 4 1.00098V-0.999023Z" fill="#F2F4F7"/>
</svg>
