<svg width="46" height="32" viewBox="0 0 46 32" fill="none" xmlns="http://www.w3.org/2000/svg">
<path d="M0 4.00098C0 1.79184 1.79086 0.000976562 4 0.000976562H42C44.2091 0.000976562 46 1.79184 46 4.00098V28.001C46 30.2101 44.2091 32.001 42 32.001H4C1.79086 32.001 0 30.2101 0 28.001V4.00098Z" fill="white"/>
<path fill-rule="evenodd" clip-rule="evenodd" d="M36.3909 18.5985H37.509H37.51C37.627 18.6008 37.7242 18.5042 37.7285 18.3813V15.1233C37.7285 14.7141 37.7493 14.3445 37.9062 13.975C38.0139 13.6939 38.2677 13.5046 38.5557 13.4906C39.2709 13.4906 39.264 14.3145 39.2586 14.9618C39.2582 15.0164 39.2577 15.0697 39.2577 15.1212V18.4084C39.2715 18.5139 39.3551 18.5939 39.4563 18.5985H40.5844C40.6913 18.6008 40.7835 18.5196 40.7999 18.4084V14.5992C40.7999 14.0136 40.7999 13.1983 40.5069 12.714C40.1902 12.192 39.6996 12.001 39.1971 12.001C38.4226 12.001 37.9827 12.3956 37.6689 13.2234H37.6471V12.2974C37.6244 12.2006 37.5432 12.1315 37.4485 12.1283H36.4078C36.2978 12.1255 36.2041 12.2117 36.1923 12.3267V18.3813C36.1937 18.4974 36.2806 18.5924 36.3909 18.5985ZM35.3383 15.4229C35.3383 13.5125 34.4377 12.0093 32.7724 12.0093C31.1498 12.0093 30.2492 13.4875 30.2492 15.3592C30.2492 17.2309 31.1389 18.7341 32.7724 18.7341C34.3453 18.7341 35.3383 17.2696 35.3383 15.4229ZM31.9035 15.1682C31.9035 14.4291 31.9561 13.2453 32.7833 13.2453C33.1388 13.2453 33.39 13.4134 33.5161 13.8309C33.6631 14.3143 33.684 14.926 33.684 15.4354C33.684 16.2121 33.6512 17.4856 32.7724 17.4856C31.9032 17.4856 31.9034 15.9415 31.9035 15.1927L31.9035 15.1682ZM10.9212 18.611H12.0424H12.0433C12.0996 18.6123 12.1541 18.5901 12.1947 18.5492C12.2354 18.5082 12.2588 18.4519 12.2598 18.3928V15.1849L12.2598 15.1346C12.2593 14.4371 12.2587 13.5146 13.0344 13.5146C13.7514 13.5146 13.7403 14.3252 13.7314 14.9797V14.9797V14.9797C13.7304 15.0503 13.7295 15.1191 13.7295 15.1849V18.3938C13.7314 18.5097 13.818 18.6044 13.9281 18.611H15.0522C15.1083 18.6121 15.1625 18.5897 15.2029 18.5488C15.2433 18.5079 15.2666 18.4517 15.2677 18.3928V15.1849L15.2675 15.1086C15.2669 14.7687 15.266 14.3101 15.3729 14.0251C15.482 13.7338 15.7456 13.5388 16.0432 13.5292C16.3679 13.5292 16.6191 13.6441 16.7026 14.0512C16.7451 14.2471 16.7396 14.7014 16.736 15.0026C16.7351 15.0737 16.7343 15.1362 16.7343 15.1849V18.3938C16.7357 18.5099 16.8226 18.6049 16.9329 18.611H18.054C18.1103 18.6123 18.1648 18.5901 18.2054 18.5492C18.246 18.5082 18.2695 18.4519 18.2705 18.3928V14.5731C18.2705 14.4801 18.272 14.3849 18.2736 14.2887L18.2736 14.2886C18.2828 13.7183 18.2925 13.1112 17.9875 12.6753C17.6177 12.1809 17.0231 11.9345 16.4319 12.0308C15.8406 12.127 15.3447 12.551 15.1346 13.1399C14.8198 12.3747 14.37 12.0187 13.6788 12.0187C12.9877 12.0187 12.4743 12.3747 12.2022 13.1399H12.1814V12.3496C12.1755 12.237 12.0899 12.1471 11.9828 12.1408H10.9371C10.8217 12.1396 10.7264 12.2356 10.7226 12.3569V18.4116C10.7328 18.5205 10.8172 18.6053 10.9212 18.611ZM8.96997 18.6569C8.89613 18.7242 8.79001 18.7355 8.70484 18.6851C8.38711 18.4072 8.29132 18.257 8.14422 18.0263C8.11892 17.9866 8.09209 17.9445 8.06236 17.899C7.4457 18.5588 7.00977 18.7561 6.21238 18.7561C5.26803 18.7561 4.5332 18.1433 4.5332 16.9178C4.5332 15.9605 5.02971 15.3102 5.72482 14.9907C6.23809 14.7539 6.92294 14.6805 7.51502 14.6169C7.62511 14.6051 7.73199 14.5936 7.83397 14.5815V14.4291C7.83397 14.4001 7.83419 14.3705 7.83442 14.3405V14.3405V14.3405V14.3404V14.3404V14.3403C7.83638 14.0805 7.83857 13.7911 7.69793 13.5731C7.56089 13.356 7.30072 13.2672 7.06836 13.2672C6.64037 13.2672 6.25905 13.4979 6.16571 13.975C6.15388 14.0863 6.07242 14.1754 5.96711 14.1921L4.8887 14.0679C4.83489 14.0598 4.78659 14.0289 4.75506 13.9823C4.72354 13.9358 4.71154 13.8777 4.72188 13.8216C4.97112 12.4353 6.16273 12.0167 7.23022 12.0167C7.77637 12.0167 8.48936 12.1691 8.91834 12.6033C9.42192 13.099 9.41881 13.7478 9.4154 14.4569C9.41512 14.5155 9.41484 14.5744 9.41484 14.6337V16.4699C9.41484 16.9645 9.58938 17.2105 9.77323 17.4696L9.77327 17.4696C9.79509 17.5004 9.81705 17.5313 9.83886 17.5629C9.91035 17.6673 9.92624 17.7978 9.83886 17.8761C9.60947 18.0775 9.20234 18.4492 8.97891 18.659L8.96997 18.6569ZM7.83892 15.782L7.83895 15.8392C7.83935 16.2734 7.83968 16.6416 7.62939 17.0347C7.45065 17.3666 7.16764 17.5712 6.85187 17.5712C6.42189 17.5712 6.17066 17.2267 6.17066 16.7152C6.17066 15.711 7.02763 15.5283 7.83892 15.5283V15.782ZM24.4757 17.4653C24.4975 17.4961 24.5195 17.5271 24.5414 17.5587C24.6169 17.6673 24.6327 17.7946 24.5364 17.8667C24.307 18.0681 23.8999 18.4408 23.6765 18.6496C23.6022 18.716 23.4964 18.7268 23.4113 18.6767C23.0923 18.3976 22.9977 18.2496 22.8485 18.0159C22.8236 17.9769 22.7971 17.9355 22.7679 17.8907C22.1522 18.5504 21.7133 18.7477 20.9189 18.7477C19.9745 18.7477 19.2397 18.1349 19.2397 16.9105C19.2397 15.9521 19.7332 15.3018 20.4363 14.9824C20.9507 14.7447 21.6394 14.6715 22.2332 14.6085C22.3409 14.597 22.4455 14.5859 22.5454 14.5742V14.4249C22.5454 14.396 22.5457 14.3665 22.5459 14.3366C22.5478 14.0766 22.55 13.7872 22.4084 13.57C22.2753 13.3528 22.0102 13.2631 21.7788 13.2631C21.3508 13.2631 20.9715 13.4938 20.8772 13.9708C20.865 14.0819 20.7837 14.1708 20.6786 14.188L19.5912 14.0648C19.537 14.057 19.4883 14.026 19.4565 13.9791C19.4248 13.9323 19.4128 13.8738 19.4234 13.8174C19.6736 12.43 20.8653 12.0125 21.9327 12.0125C22.4779 12.0125 23.1909 12.1649 23.6209 12.5991C24.1255 13.0922 24.1219 13.736 24.1181 14.4415C24.1177 14.5037 24.1174 14.5664 24.1174 14.6295V16.4668C24.1174 16.9603 24.2918 17.2062 24.4757 17.4653ZM21.5604 17.565C21.8752 17.565 22.1592 17.3604 22.3369 17.0294C22.5479 16.6342 22.5477 16.2642 22.5474 15.8246L22.5474 15.7778V15.5231C21.7361 15.5231 20.8792 15.7047 20.8792 16.71C20.8792 17.2205 21.1304 17.565 21.5604 17.565ZM25.4907 12.3361V13.1983C25.4901 13.2575 25.5126 13.3143 25.5529 13.3555C25.5933 13.3967 25.6479 13.4188 25.7041 13.4165H27.6346L25.4211 16.757C25.3201 16.9362 25.2724 17.143 25.2841 17.351V18.2331C25.2841 18.3604 25.4182 18.5055 25.5463 18.4335C26.767 17.7681 28.2188 17.7653 29.4418 18.4262C29.5819 18.5024 29.7139 18.3552 29.7139 18.2278V17.3009C29.7102 17.1591 29.6343 17.0304 29.5153 16.9637C28.8709 16.5826 28.1211 16.471 27.4121 16.4887L29.3227 13.6221C29.5004 13.3653 29.5997 13.2025 29.5997 13.0783V12.3361C29.6003 12.2771 29.5779 12.2204 29.5378 12.1793C29.4977 12.1381 29.4433 12.1159 29.3872 12.1179H25.7002C25.644 12.1146 25.5892 12.1364 25.5493 12.178C25.5093 12.2196 25.488 12.277 25.4907 12.3361Z" fill="black"/>
<path fill-rule="evenodd" clip-rule="evenodd" d="M27.3349 22.4607C27.5901 21.7936 28.1581 20.2987 27.888 19.9365H27.89C27.6211 19.5735 26.1116 19.764 25.4327 19.8497L25.4313 19.8499C25.2247 19.876 25.193 19.687 25.3786 19.5503C26.5842 18.6598 28.5593 18.9145 28.7886 19.2152C29.018 19.5158 28.7261 21.5974 27.597 22.5912C27.4233 22.7436 27.2574 22.6621 27.3349 22.4607ZM19.223 23.49C21.8485 23.49 24.906 22.6183 27.0121 20.9846V20.9877C27.3607 20.7121 27.0618 20.3071 26.7063 20.4658C24.4073 21.4852 21.9395 22.0173 19.4444 22.0316C15.9828 22.0316 12.6343 21.0337 9.92541 19.377C9.68808 19.2319 9.51132 19.4877 9.70993 19.6745C12.3179 22.1481 15.7105 23.5088 19.223 23.49Z" fill="#FF9900"/>
<path d="M4 1.00098H42V-0.999023H4V1.00098ZM45 4.00098V28.001H47V4.00098H45ZM42 31.001H4V33.001H42V31.001ZM1 28.001V4.00098H-1V28.001H1ZM4 31.001C2.34315 31.001 1 29.6578 1 28.001H-1C-1 30.7624 1.23858 33.001 4 33.001V31.001ZM45 28.001C45 29.6578 43.6569 31.001 42 31.001V33.001C44.7614 33.001 47 30.7624 47 28.001H45ZM42 1.00098C43.6569 1.00098 45 2.34412 45 4.00098H47C47 1.23955 44.7614 -0.999023 42 -0.999023V1.00098ZM4 -0.999023C1.23858 -0.999023 -1 1.23955 -1 4.00098H1C1 2.34412 2.34315 1.00098 4 1.00098V-0.999023Z" fill="#F2F4F7"/>
</svg>
