<svg width="46" height="32" viewBox="0 0 46 32" fill="none" xmlns="http://www.w3.org/2000/svg">
<path d="M0 6.00098C0 2.68727 2.68629 0.000976562 6 0.000976562H40C43.3137 0.000976562 46 2.68727 46 6.00098V26.001C46 29.3147 43.3137 32.001 40 32.001H6C2.68629 32.001 0 29.3147 0 26.001V6.00098Z" fill="#5A31F4"/>
<path d="M25.6934 14.633C25.6934 16.6278 24.2948 18.0518 22.3405 18.0518H20.4992C20.4789 18.0518 20.4588 18.0558 20.44 18.0636C20.4212 18.0714 20.4042 18.0829 20.3899 18.0973C20.3755 18.1117 20.3642 18.1288 20.3565 18.1476C20.3488 18.1664 20.3448 18.1865 20.3449 18.2069V20.8286C20.3449 20.8696 20.3287 20.909 20.2998 20.938C20.2709 20.9671 20.2316 20.9835 20.1906 20.9837H18.9022C18.8716 20.9835 18.8417 20.9744 18.8162 20.9573C18.7908 20.9403 18.7709 20.9161 18.7591 20.8878C18.7514 20.8693 18.7473 20.8495 18.7472 20.8294V11.3685C18.7471 11.3482 18.751 11.328 18.7587 11.3092C18.7664 11.2904 18.7777 11.2733 18.7921 11.2589C18.8064 11.2445 18.8235 11.2331 18.8422 11.2253C18.861 11.2175 18.8811 11.2135 18.9015 11.2135H22.3487C24.2948 11.2112 25.6934 12.6352 25.6934 14.633ZM24.0866 14.633C24.0866 13.4862 23.3045 12.6479 22.2438 12.6479H20.4992C20.4789 12.6479 20.4588 12.652 20.44 12.6598C20.4212 12.6676 20.4042 12.679 20.3899 12.6934C20.3755 12.7078 20.3642 12.7249 20.3565 12.7437C20.3488 12.7625 20.3448 12.7827 20.3449 12.803V16.454C20.3449 16.4949 20.3612 16.5342 20.3901 16.5631C20.4191 16.5921 20.4583 16.6083 20.4992 16.6083H22.2438C23.3045 16.6158 24.0866 15.7768 24.0866 14.633ZM26.0754 19.1687C26.062 18.8627 26.1253 18.5583 26.2595 18.2831C26.3938 18.0078 26.5947 17.7705 26.8439 17.5926C27.3466 17.2143 28.1324 17.0188 29.2859 16.9784L30.5144 16.9349V16.5724C30.5144 15.8458 30.0275 15.5386 29.2455 15.5386C28.4634 15.5386 27.9676 15.8158 27.8537 16.269C27.8444 16.3009 27.8248 16.3287 27.798 16.3483C27.7711 16.3678 27.7386 16.3779 27.7054 16.3769H26.4919C26.4695 16.3775 26.4473 16.3731 26.4268 16.3642C26.4064 16.3553 26.3881 16.3419 26.3734 16.3251C26.3586 16.3083 26.3478 16.2884 26.3416 16.267C26.3354 16.2455 26.334 16.2229 26.3376 16.2008C26.5173 15.1266 27.411 14.3102 29.3009 14.3102C31.3114 14.3102 32.0373 15.2465 32.0373 17.0338V20.8286C32.0369 20.87 32.0201 20.9096 31.9907 20.9386C31.9612 20.9677 31.9214 20.9839 31.88 20.9837H30.6567C30.6158 20.9836 30.5766 20.9675 30.5474 20.9387C30.5331 20.9244 30.5217 20.9073 30.514 20.8885C30.5063 20.8698 30.5024 20.8497 30.5024 20.8294V20.5455C30.5029 20.522 30.4962 20.499 30.4833 20.4794C30.4704 20.4598 30.4518 20.4446 30.4301 20.4357C30.4084 20.4269 30.3845 20.4248 30.3615 20.4299C30.3386 20.4349 30.3177 20.4467 30.3017 20.4638C29.9346 20.8631 29.3421 21.1515 28.393 21.1515C26.9968 21.1515 26.0754 20.4249 26.0754 19.1687ZM30.5144 18.3462V18.0518L28.9234 18.1357C28.0852 18.1784 27.5975 18.5267 27.5975 19.1132C27.5975 19.6436 28.0447 19.9372 28.826 19.9372C29.8874 19.9372 30.5144 19.3642 30.5144 18.3462ZM33.2658 23.8512V22.7515C33.266 22.7285 33.2713 22.7057 33.2813 22.6849C33.2913 22.6642 33.3058 22.6458 33.3236 22.6313C33.3415 22.6167 33.3624 22.6062 33.3847 22.6006C33.4071 22.595 33.4304 22.5943 33.4531 22.5987C33.6403 22.6339 33.8313 22.6519 34.0224 22.6526C34.3507 22.6686 34.675 22.574 34.9432 22.3838C35.2114 22.1937 35.4081 21.9191 35.5018 21.6039L35.5812 21.3507C35.5927 21.3167 35.5927 21.2799 35.5812 21.2459L33.0321 14.6989C33.0229 14.6752 33.0195 14.6496 33.0224 14.6243C33.0253 14.599 33.0342 14.5748 33.0485 14.5537C33.0628 14.5326 33.082 14.5153 33.1045 14.5033C33.1269 14.4913 33.1519 14.4849 33.1774 14.4847H34.4134C34.445 14.485 34.4757 14.4948 34.5016 14.5129C34.5275 14.5309 34.5474 14.5563 34.5587 14.5858L36.2898 19.2031C36.3007 19.2338 36.3207 19.2604 36.3473 19.2792C36.3739 19.2979 36.4056 19.308 36.4381 19.308C36.4707 19.308 36.5024 19.2979 36.529 19.2792C36.5555 19.2604 36.5756 19.2338 36.5865 19.2031L38.0899 14.5985C38.1003 14.5671 38.1204 14.5397 38.1473 14.5203C38.1742 14.501 38.2065 14.4906 38.2397 14.4907H39.5183C39.544 14.4908 39.5692 14.4972 39.5918 14.5092C39.6144 14.5212 39.6338 14.5385 39.6483 14.5596C39.6628 14.5807 39.672 14.605 39.675 14.6305C39.6781 14.6559 39.675 14.6817 39.6659 14.7057L36.9393 21.9762C36.3115 23.6661 35.2351 24.0984 34.0501 24.0984C33.8254 24.1044 33.6006 24.0774 33.3834 24.0182C33.3473 24.0087 33.3157 23.9867 33.2942 23.9561C33.2727 23.9256 33.2626 23.8884 33.2658 23.8512ZM10.4676 10.6681C8.84364 10.6566 7.27702 11.2678 6.08997 12.376C6.03921 12.4225 6.00756 12.4862 6.00119 12.5548C5.99482 12.6233 6.01418 12.6918 6.05551 12.7468L6.79036 13.7506C6.81418 13.784 6.84504 13.8118 6.88076 13.832C6.91647 13.8522 6.95619 13.8644 6.9971 13.8676C7.03802 13.8708 7.07914 13.865 7.11758 13.8506C7.15602 13.8362 7.19083 13.8136 7.21958 13.7843C7.64641 13.3576 8.15401 13.0202 8.71273 12.7919C9.27144 12.5636 9.87005 12.449 10.4736 12.4547C12.9935 12.4547 14.3096 14.3514 14.3096 16.224C14.3096 18.26 12.9268 19.6923 10.9395 19.7207C9.40389 19.7207 8.24657 18.7027 8.24657 17.3582C8.24817 17.0185 8.32512 16.6834 8.47189 16.377C8.61865 16.0707 8.83156 15.8007 9.09527 15.5866C9.15102 15.54 9.18626 15.4734 9.19341 15.4011C9.20055 15.3288 9.17903 15.2566 9.13348 15.2001L8.36118 14.2248C8.33782 14.1953 8.30879 14.1707 8.27581 14.1527C8.24282 14.1346 8.20654 14.1233 8.16912 14.1194C8.13169 14.1156 8.09388 14.1193 8.0579 14.1303C8.02193 14.1413 7.98853 14.1594 7.95967 14.1836C7.48536 14.5657 7.10261 15.0492 6.83949 15.5985C6.57636 16.1478 6.43953 16.7491 6.43904 17.3582C6.43904 19.6728 8.40612 21.4886 10.926 21.5036H10.9597C13.9515 21.4646 16.1149 19.2488 16.1149 16.2203C16.1149 13.5311 14.1343 10.6681 10.4683 10.6681H10.4676Z" fill="white"/>
<path d="M6 1.00098H40V-0.999023H6V1.00098ZM45 6.00098V26.001H47V6.00098H45ZM40 31.001H6V33.001H40V31.001ZM1 26.001V6.00098H-1V26.001H1ZM6 31.001C3.23858 31.001 1 28.7624 1 26.001H-1C-1 29.867 2.13401 33.001 6 33.001V31.001ZM45 26.001C45 28.7624 42.7614 31.001 40 31.001V33.001C43.866 33.001 47 29.867 47 26.001H45ZM40 1.00098C42.7614 1.00098 45 3.23955 45 6.00098H47C47 2.13498 43.866 -0.999023 40 -0.999023V1.00098ZM6 -0.999023C2.13401 -0.999023 -1 2.13498 -1 6.00098H1C1 3.23955 3.23858 1.00098 6 1.00098V-0.999023Z" fill="#F2F4F7"/>
</svg>
