<svg width="46" height="32" viewBox="0 0 46 32" fill="none" xmlns="http://www.w3.org/2000/svg">
<path d="M0 4.00098C0 1.79184 1.79086 0.000976562 4 0.000976562H42C44.2091 0.000976562 46 1.79184 46 4.00098V28.001C46 30.2101 44.2091 32.001 42 32.001H4C1.79086 32.001 0 30.2101 0 28.001V4.00098Z" fill="white"/>
<path fill-rule="evenodd" clip-rule="evenodd" d="M33.16 15.914C33.16 21.7572 28.4232 26.494 22.58 26.494C16.7368 26.494 12 21.7572 12 15.914C12 10.0708 16.7368 5.33398 22.58 5.33398C28.4232 5.33398 33.16 10.0708 33.16 15.914ZM25.1218 11.9831C26.5935 12.4885 27.6701 13.2453 27.4589 14.6536C27.3055 15.6849 26.7317 16.1837 25.9692 16.3583C27.0153 16.9007 27.3717 17.9302 27.0405 19.175C26.4116 20.9663 24.9166 21.1171 22.9282 20.7427L22.4454 22.6683L21.2798 22.3786L21.756 20.4788C21.4538 20.404 21.145 20.324 20.8269 20.2386L20.3487 22.1477L19.1845 21.858L19.6666 19.9284L17.3189 19.3383L17.8981 18.0087C17.8981 18.0087 18.7574 18.2356 18.7455 18.2191C19.0756 18.3005 19.2223 18.0861 19.2801 17.9439L20.5884 12.7174C20.6031 12.4707 20.5174 12.1598 20.0452 12.042C20.0631 12.0294 19.1984 11.8323 19.1984 11.8323L19.5086 10.592L21.8596 11.1721L22.3378 9.26438L23.5027 9.55412L23.0344 11.4242C23.3479 11.495 23.6627 11.5671 23.9689 11.6431L24.4338 9.78498L25.5993 10.0747L25.1218 11.9831ZM22.3329 15.1655C23.1269 15.376 24.8546 15.8341 25.1557 14.6331C25.4629 13.4044 23.7844 13.0333 22.9626 12.8516C22.8695 12.831 22.7873 12.8128 22.7203 12.7961L22.1399 15.1153C22.1952 15.129 22.2601 15.1462 22.3329 15.1655ZM21.4333 18.8995C22.3843 19.15 24.4641 19.6979 24.7951 18.3745C25.1338 17.0214 23.1173 16.5708 22.1334 16.3508L22.1333 16.3508L22.1332 16.3508C22.0233 16.3263 21.9264 16.3046 21.847 16.2848L21.2067 18.8409C21.2716 18.857 21.3476 18.877 21.4327 18.8994L21.4333 18.8995L21.4333 18.8995Z" fill="#F7931A"/>
<path d="M4 1.00098H42V-0.999023H4V1.00098ZM45 4.00098V28.001H47V4.00098H45ZM42 31.001H4V33.001H42V31.001ZM1 28.001V4.00098H-1V28.001H1ZM4 31.001C2.34315 31.001 1 29.6578 1 28.001H-1C-1 30.7624 1.23858 33.001 4 33.001V31.001ZM45 28.001C45 29.6578 43.6569 31.001 42 31.001V33.001C44.7614 33.001 47 30.7624 47 28.001H45ZM42 1.00098C43.6569 1.00098 45 2.34412 45 4.00098H47C47 1.23955 44.7614 -0.999023 42 -0.999023V1.00098ZM4 -0.999023C1.23858 -0.999023 -1 1.23955 -1 4.00098H1C1 2.34412 2.34315 1.00098 4 1.00098V-0.999023Z" fill="#F2F4F7"/>
</svg>
