<svg width="46" height="32" viewBox="0 0 46 32" fill="none" xmlns="http://www.w3.org/2000/svg">
<path d="M0 4.00098C0 1.79184 1.79086 0.000976562 4 0.000976562H42C44.2091 0.000976562 46 1.79184 46 4.00098V28.001C46 30.2101 44.2091 32.001 42 32.001H4C1.79086 32.001 0 30.2101 0 28.001V4.00098Z" fill="white"/>
<path d="M14.0244 6.66895H21.1686C22.1659 6.66895 22.7862 7.50572 22.5535 8.53573L19.2274 23.2362C18.9927 24.2626 17.9942 25.1001 16.9962 25.1001H9.85265C8.85677 25.1001 8.2351 24.2626 8.46775 23.2362L11.7953 8.53573C12.0279 7.50572 13.0259 6.66895 14.0244 6.66895Z" fill="#E21836"/>
<path d="M20.5738 6.66797H28.7895C29.7866 6.66797 29.3369 7.50474 29.1024 8.53475L25.7767 23.2352C25.5434 24.2617 25.6162 25.0992 24.617 25.0992H16.4013C15.4021 25.0992 14.7838 24.2617 15.0185 23.2352L18.344 8.53475C18.5801 7.50474 19.576 6.66797 20.5738 6.66797Z" fill="#00447C"/>
<path d="M28.464 6.66797H35.6083C36.607 6.66797 37.2272 7.50474 36.9927 8.53475L33.667 23.2352C33.4323 24.2617 32.4331 25.0992 31.4346 25.0992H24.2937C23.2945 25.0992 22.6747 24.2617 22.9088 23.2352L26.2349 8.53475C26.4676 7.50474 27.4649 6.66797 28.464 6.66797Z" fill="#007B84"/>
<path d="M15.8901 11.3795C15.1554 11.3872 14.9385 11.3795 14.8692 11.3626C14.8425 11.4929 14.3467 13.8471 14.3454 13.8491C14.2386 14.3254 14.1609 14.6649 13.8971 14.8841C13.7474 15.0116 13.5725 15.0731 13.3698 15.0731C13.044 15.0731 12.8542 14.9065 12.8224 14.5907L12.8163 14.4822C12.8163 14.4822 12.9155 13.8443 12.9155 13.8407C12.9155 13.8407 13.4358 11.6953 13.529 11.4117C13.5339 11.3956 13.5353 11.3872 13.5365 11.3795C12.5237 11.3886 12.3442 11.3795 12.3318 11.3626C12.325 11.3857 12.3 11.5188 12.3 11.5188L11.7687 13.9367L11.7231 14.1418L11.6348 14.8126C11.6348 15.0116 11.6727 15.174 11.7483 15.3113C11.9903 15.7467 12.6808 15.812 13.0714 15.812C13.5746 15.812 14.0467 15.7019 14.3657 15.5009C14.9195 15.1641 15.0644 14.6376 15.1936 14.1698L15.2535 13.9298C15.2535 13.9298 15.7895 11.7016 15.8805 11.4117C15.884 11.3956 15.8854 11.3872 15.8901 11.3795ZM17.7138 13.177C17.5846 13.177 17.3484 13.2092 17.1363 13.3162C17.0594 13.3569 16.9866 13.4039 16.9098 13.4507L16.9791 13.1931L16.9411 13.1497C16.4913 13.2435 16.3907 13.256 15.9752 13.3162L15.9404 13.3401C15.8921 13.7518 15.8493 14.0614 15.6705 14.8707C15.6024 15.169 15.5317 15.4702 15.4608 15.7677L15.48 15.8056C15.9057 15.7824 16.0349 15.7824 16.405 15.7887L16.4349 15.7552C16.4819 15.5073 16.488 15.4492 16.5922 14.9471C16.6411 14.7091 16.7431 14.186 16.7935 13.9997C16.8859 13.9556 16.9772 13.9123 17.0642 13.9123C17.2716 13.9123 17.2464 14.0985 17.2384 14.1727C17.2295 14.2973 17.1539 14.7042 17.0764 15.0536L17.0247 15.2791C16.9887 15.4456 16.9491 15.6075 16.9131 15.7726L16.9288 15.8056C17.3484 15.7824 17.4764 15.7824 17.8348 15.7887L17.8769 15.7552C17.9417 15.368 17.9607 15.2644 18.0756 14.7006L18.1334 14.4416C18.2458 13.9347 18.3022 13.6776 18.2172 13.4682C18.1273 13.2336 17.9118 13.177 17.7138 13.177ZM19.751 13.7077C19.5279 13.7518 19.3857 13.7812 19.2443 13.8002C19.1041 13.8233 18.9674 13.8443 18.7518 13.8751L18.7348 13.8911L18.7191 13.9038C18.6966 14.0691 18.681 14.212 18.6512 14.3799C18.6259 14.5536 18.5871 14.751 18.5239 15.0346C18.475 15.2517 18.4497 15.3273 18.4218 15.4037C18.3947 15.48 18.3647 15.5542 18.3097 15.7677L18.3226 15.7874L18.3334 15.8056C18.5349 15.7957 18.6667 15.7887 18.8022 15.7874C18.9375 15.7824 19.0776 15.7874 19.2946 15.7887L19.3136 15.7728L19.334 15.7552C19.3653 15.5627 19.37 15.5109 19.3892 15.4169C19.4081 15.3162 19.4409 15.1767 19.5212 14.8042C19.5591 14.6293 19.6014 14.4549 19.6408 14.2763C19.6817 14.0985 19.7245 13.9234 19.7653 13.7484L19.7592 13.7273L19.751 13.7077ZM19.7558 12.9921C19.5531 12.8689 19.1973 12.908 18.9579 13.0781C18.7191 13.2448 18.692 13.4815 18.894 13.6062C19.0932 13.726 19.4503 13.6903 19.6877 13.5187C19.9259 13.3484 19.9557 13.114 19.7558 12.9921ZM20.9816 15.8441C21.3917 15.8441 21.812 15.7278 22.1284 15.3826C22.3719 15.1026 22.4835 14.686 22.5222 14.5144C22.6481 13.9458 22.55 13.6803 22.4269 13.5187C22.2399 13.2722 21.9094 13.1931 21.5665 13.1931C21.3603 13.1931 20.8693 13.2141 20.4857 13.5782C20.2102 13.8408 20.0829 14.1971 20.0061 14.5388C19.9286 14.8869 19.8394 15.5136 20.3993 15.7468C20.572 15.8232 20.821 15.8441 20.9816 15.8441ZM20.9495 14.5648C21.0441 14.1342 21.1557 13.7728 21.4406 13.7728C21.6639 13.7728 21.68 14.0417 21.5808 14.4737C21.563 14.5696 21.4815 14.9262 21.3713 15.078C21.2943 15.19 21.2033 15.258 21.1026 15.258C21.0727 15.258 20.8945 15.258 20.8917 14.9857C20.8903 14.8512 20.917 14.7139 20.9495 14.5648ZM23.5473 15.7888L23.5793 15.7553C23.6248 15.5073 23.6323 15.4491 23.7329 14.9472C23.7833 14.7091 23.8874 14.186 23.9363 13.9998C24.029 13.9555 24.1186 13.9121 24.2085 13.9121C24.4145 13.9121 24.3894 14.0984 24.3812 14.1726C24.3737 14.2974 24.2982 14.7041 24.2193 15.0535L24.1704 15.279C24.1329 15.4457 24.0922 15.6074 24.0561 15.7726L24.0718 15.8056C24.4929 15.7825 24.616 15.7825 24.9764 15.7888L25.02 15.7553C25.0832 15.3679 25.1002 15.2643 25.2186 14.7007L25.2751 14.4415C25.3879 13.9345 25.445 13.6777 25.3614 13.4683C25.269 13.2336 25.052 13.177 24.8568 13.177C24.7274 13.177 24.4901 13.2091 24.2792 13.3163C24.2038 13.357 24.1282 13.4038 24.054 13.4507L24.1186 13.1931L24.084 13.1496C23.6344 13.2435 23.5316 13.2561 23.1167 13.3163L23.0848 13.3401C23.0345 13.7519 22.9935 14.0613 22.8147 14.8708C22.7466 15.1691 22.6759 15.4702 22.6052 15.7678L22.6242 15.8056C23.0507 15.7825 23.178 15.7825 23.5473 15.7888ZM26.6409 15.8055C26.6674 15.6725 26.8246 14.8842 26.826 14.8842C26.826 14.8842 26.9599 14.3057 26.9681 14.2847C26.9681 14.2847 27.0102 14.2245 27.0524 14.2007H27.1144C27.6993 14.2007 28.3598 14.2007 28.8775 13.8086C29.2298 13.5397 29.4706 13.1427 29.578 12.6601C29.6059 12.5418 29.6264 12.4011 29.6264 12.2604C29.6264 12.0756 29.5904 11.8927 29.4863 11.7499C29.2223 11.3696 28.6966 11.3627 28.0897 11.3598C28.0878 11.3598 27.7905 11.3627 27.7905 11.3627C27.0137 11.3725 26.7022 11.3696 26.5742 11.3535C26.5634 11.4118 26.543 11.5154 26.543 11.5154C26.543 11.5154 26.2648 12.843 26.2648 12.8451C26.2648 12.8451 25.5989 15.6677 25.5675 15.8007C26.2458 15.7923 26.5239 15.7923 26.6409 15.8055ZM27.1565 13.4472C27.1565 13.4472 27.4524 12.1223 27.451 12.1274L27.4606 12.0594L27.4647 12.0076L27.583 12.0202C27.583 12.0202 28.1931 12.0741 28.2074 12.0756C28.4482 12.1715 28.5475 12.4187 28.4782 12.7413C28.415 13.0362 28.2292 13.2841 27.9904 13.4039C27.7938 13.5053 27.553 13.5137 27.3049 13.5137H27.1443L27.1565 13.4472ZM28.9986 14.5893C28.9204 14.9324 28.8305 15.5591 29.3876 15.7825C29.5652 15.8603 29.7244 15.8834 29.8861 15.875C30.057 15.8655 30.2153 15.7773 30.3619 15.6504C30.3487 15.7025 30.3354 15.7547 30.3222 15.807L30.3474 15.8405C30.7481 15.8232 30.8724 15.8232 31.3066 15.8266L31.3459 15.7957C31.4093 15.4121 31.469 15.0396 31.6338 14.3057C31.714 13.9542 31.7941 13.6061 31.8765 13.256L31.8636 13.2175C31.4154 13.303 31.2956 13.3213 30.8644 13.3842L30.8317 13.4116C30.8273 13.4473 30.8228 13.4815 30.8186 13.5158C30.7516 13.4043 30.6544 13.3091 30.5045 13.2497C30.3128 13.1721 29.8625 13.2722 29.4754 13.635C29.2034 13.894 29.0728 14.2489 28.9986 14.5893ZM29.94 14.6103C30.0359 14.1874 30.1461 13.8296 30.4317 13.8296C30.6123 13.8296 30.7074 14.0012 30.688 14.2937C30.6727 14.3667 30.6562 14.4436 30.6365 14.5305C30.6079 14.6562 30.5769 14.7808 30.5468 14.9055C30.5162 14.9909 30.4805 15.0714 30.4413 15.125C30.3678 15.2321 30.193 15.2987 30.0923 15.2987C30.0638 15.2987 29.8875 15.2987 29.8814 15.0312C29.8801 14.898 29.9067 14.7609 29.94 14.6103ZM34.8559 13.2141L34.8212 13.1734C34.3777 13.2659 34.2974 13.2806 33.8899 13.3372L33.86 13.368C33.8586 13.3731 33.8574 13.3808 33.8553 13.3878L33.8539 13.3808C33.5506 14.1012 33.5594 13.9458 33.3125 14.513C33.3111 14.4871 33.3111 14.471 33.3097 14.4436L33.2479 13.2141L33.2091 13.1734C32.7445 13.2659 32.7335 13.2806 32.3044 13.3372L32.271 13.368C32.2663 13.3827 32.2663 13.3989 32.2635 13.4164L32.2663 13.4227C32.3199 13.7049 32.3071 13.6419 32.3609 14.0872C32.3859 14.3057 32.4194 14.5255 32.4445 14.7413C32.4868 15.1025 32.5105 15.2804 32.5622 15.8316C32.2724 16.3238 32.2038 16.5101 31.9248 16.9421L31.9268 16.9464L31.7303 17.2662C31.7079 17.2999 31.6875 17.323 31.6589 17.3328C31.6276 17.3488 31.5868 17.3517 31.5302 17.3517H31.4214L31.2596 17.9056L31.8146 17.9154C32.1404 17.914 32.3452 17.7571 32.4554 17.5463L32.8044 16.9308H32.7988L32.8356 16.8874C33.0703 16.3672 34.8559 13.2141 34.8559 13.2141ZM28.9986 20.4887H28.7631L29.6345 17.5219H29.9236L30.0153 17.2162L30.0242 17.5561C30.0134 17.7662 30.174 17.9524 30.5957 17.9216H31.0835L31.2514 17.3503H31.0678C30.9623 17.3503 30.9134 17.3229 30.9194 17.2641L30.9106 16.9183H30.0073V16.9201C29.7153 16.9264 28.8432 16.949 28.6667 16.9974C28.453 17.054 28.2278 17.2207 28.2278 17.2207L28.3163 16.9147H27.4714L27.2953 17.5219L26.4123 20.5341H26.241L26.0729 21.1013H27.7558L27.6993 21.2904H28.5286L28.5836 21.1013H28.8162L28.9986 20.4887ZM28.3081 18.1247C28.1728 18.1632 27.921 18.2801 27.921 18.2801L28.145 17.5219H28.8162L28.6543 18.0743C28.6543 18.0743 28.4469 18.0869 28.3081 18.1247ZM28.321 19.208C28.321 19.208 28.1101 19.2352 27.9713 19.2675C27.8346 19.3101 27.5783 19.4446 27.5783 19.4446L27.8096 18.6555H28.4843L28.321 19.208ZM27.9449 20.4957H27.2715L27.4667 19.8298H28.138L27.9449 20.4957ZM29.5665 18.6555H30.5372L30.3977 19.1205H29.4142L29.2665 19.6289H30.1271L29.4755 20.5734C29.4298 20.6427 29.3889 20.6673 29.3435 20.6868C29.2978 20.7107 29.2379 20.7386 29.1686 20.7386H28.9299L28.7658 21.2954H29.3903C29.7149 21.2954 29.9066 21.1434 30.0482 20.9439L30.495 20.3143L30.591 20.9536C30.6113 21.0733 30.6949 21.1434 30.7515 21.1706C30.814 21.2029 30.8786 21.2583 30.9699 21.2665C31.0677 21.2708 31.1384 21.2742 31.1855 21.2742H31.4923L31.6765 20.6512H31.5555C31.486 20.6512 31.3664 20.6391 31.346 20.6167C31.3256 20.5895 31.3256 20.5475 31.3147 20.4837L31.2173 19.8431H30.8187L30.9936 19.6289H31.9752L32.1261 19.1205H31.2173L31.3589 18.6555H32.2649L32.433 18.082H29.7318L29.5665 18.6555ZM21.3686 20.6252L21.5951 19.8494H22.5262L22.6963 19.2724H21.7644L21.9066 18.7948H22.8174L22.9861 18.2361H20.7074L20.5421 18.7948H21.0598L20.9217 19.2724H20.4026L20.2306 19.8592H20.7481L20.4462 20.8857C20.4054 21.0216 20.4653 21.0734 20.5033 21.1365C20.5421 21.1979 20.5815 21.2386 20.6699 21.2618C20.7612 21.2827 20.8237 21.2953 20.9087 21.2953H21.9584L22.1454 20.656L21.6801 20.7218C21.5902 20.7218 21.3414 20.7107 21.3686 20.6252ZM21.4754 16.9112L21.2394 17.3502C21.1889 17.4461 21.1434 17.5056 21.1025 17.5331C21.0665 17.5562 20.9951 17.5659 20.8916 17.5659H20.7685L20.604 18.1275H21.0128C21.2094 18.1275 21.3604 18.0533 21.4325 18.0162C21.51 17.9735 21.5304 17.9979 21.5903 17.9384L21.7284 17.8152H23.0051L23.1746 17.2305H22.24L22.4031 16.9112H21.4754ZM23.3603 20.6365C23.3385 20.6042 23.3542 20.5474 23.3874 20.4291L23.7364 19.2401H24.9778C25.1587 19.2374 25.2893 19.2352 25.3743 19.229C25.4656 19.2191 25.5648 19.1856 25.6729 19.1254C25.7846 19.0623 25.8417 18.9958 25.8899 18.9194C25.9437 18.8432 26.0301 18.6765 26.1043 18.4194L26.5429 16.9148L25.2547 16.9225C25.2547 16.9225 24.858 16.9827 24.6833 17.0492C24.5071 17.1234 24.2553 17.3306 24.2553 17.3306L24.3716 16.9182H23.5758L22.4617 20.7218C22.4222 20.8695 22.3957 20.9767 22.3896 21.0411C22.3875 21.1104 22.4746 21.1791 22.531 21.2309C22.5977 21.2827 22.6963 21.2743 22.7908 21.2827C22.8903 21.2904 23.0317 21.2953 23.2269 21.2953H23.8384L24.0262 20.6428L23.4787 20.696C23.4202 20.696 23.3778 20.6637 23.3603 20.6365ZM23.9615 18.437H25.2655L25.1826 18.7045C25.1709 18.7107 25.1431 18.6912 25.0104 18.7073H23.8813L23.9615 18.437ZM24.2228 17.54H25.5376L25.4431 17.8621C25.4431 17.8621 24.8233 17.8559 24.7241 17.8747C24.2874 17.9525 24.0322 18.1927 24.0322 18.1927L24.2228 17.54ZM25.2118 19.6001C25.201 19.6401 25.1839 19.6644 25.1601 19.6827C25.1336 19.7003 25.0907 19.7066 25.0268 19.7066H24.841L24.852 19.3808H24.0792L24.0478 20.9732C24.0466 21.0881 24.0574 21.1546 24.1391 21.2078C24.2208 21.2743 24.4724 21.2828 24.8111 21.2828H25.2954L25.4702 20.6867L25.0486 20.7106L24.9084 20.719C24.8893 20.7106 24.871 20.7029 24.8506 20.6819C24.8329 20.6638 24.8029 20.6749 24.8078 20.56L24.8111 20.1518L25.2532 20.133C25.492 20.133 25.594 20.0531 25.6811 19.9769C25.7641 19.9039 25.7913 19.82 25.8226 19.7066L25.8968 19.3452H25.2893L25.2118 19.6001Z" fill="#FEFEFE"/>
<path d="M4 1.00098H42V-0.999023H4V1.00098ZM45 4.00098V28.001H47V4.00098H45ZM42 31.001H4V33.001H42V31.001ZM1 28.001V4.00098H-1V28.001H1ZM4 31.001C2.34315 31.001 1 29.6578 1 28.001H-1C-1 30.7624 1.23858 33.001 4 33.001V31.001ZM45 28.001C45 29.6578 43.6569 31.001 42 31.001V33.001C44.7614 33.001 47 30.7624 47 28.001H45ZM42 1.00098C43.6569 1.00098 45 2.34412 45 4.00098H47C47 1.23955 44.7614 -0.999023 42 -0.999023V1.00098ZM4 -0.999023C1.23858 -0.999023 -1 1.23955 -1 4.00098H1C1 2.34412 2.34315 1.00098 4 1.00098V-0.999023Z" fill="#F2F4F7"/>
</svg>
