<svg width="46" height="32" viewBox="0 0 46 32" fill="none" xmlns="http://www.w3.org/2000/svg">
<path d="M0 4.00098C0 1.79184 1.79086 0.000976562 4 0.000976562H42C44.2091 0.000976562 46 1.79184 46 4.00098V28.001C46 30.2101 44.2091 32.001 42 32.001H4C1.79086 32.001 0 30.2101 0 28.001V4.00098Z" fill="white"/>
<path fill-rule="evenodd" clip-rule="evenodd" d="M32.266 10.3834C35.2161 15.6095 33.3713 22.2375 28.1455 25.1875C22.9196 28.1374 16.2917 26.2923 13.3416 21.0662C10.3915 15.8401 12.2364 9.2121 17.4622 6.26214C22.688 3.31218 29.3159 5.15735 32.266 10.3834ZM23.0925 10.9259C24.6639 10.6349 26.0088 10.7682 26.5309 12.1344C26.9144 13.1342 26.653 13.87 26.0593 14.4111C27.2687 14.3682 28.1072 15.1089 28.4394 16.3895C28.7814 18.3092 27.5205 19.1988 25.5531 19.8678L26.0935 21.8338L24.9048 22.1631L24.3715 20.2235C24.0635 20.3092 23.7469 20.3935 23.4193 20.4778L23.9555 22.4267L22.768 22.7553L22.2251 20.7861L19.8275 21.4436L19.6741 19.9621C19.6741 19.9621 20.5573 19.7311 20.5382 19.7224C20.8745 19.6285 20.8976 19.3627 20.8774 19.2063L19.4088 13.8713C19.2973 13.6432 19.0637 13.4084 18.5819 13.5415C18.5916 13.5212 17.7188 13.7814 17.7188 13.7814L17.3699 12.5155L19.7655 11.8475L19.2299 9.89976L20.418 9.5708L20.9434 11.4797C21.2595 11.3848 21.5775 11.2903 21.8897 11.2038L21.3673 9.3072L22.556 8.9779L23.0925 10.9259ZM22.205 15.1802C23.0213 14.9676 24.7977 14.505 24.4607 13.2789C24.1151 12.0248 22.4266 12.5403 21.5998 12.7927C21.5061 12.8213 21.4235 12.8465 21.3552 12.8654L22.007 15.2327C22.0633 15.217 22.1301 15.1997 22.205 15.1802ZM23.2857 18.974C24.2626 18.7179 26.3993 18.1579 26.0271 16.8072C25.6469 15.4261 23.6159 16.041 22.6249 16.3411C22.5142 16.3746 22.4165 16.4042 22.3355 16.4266L23.0534 19.0359C23.1196 19.0175 23.1978 18.997 23.2853 18.9741L23.2854 18.9741L23.2857 18.974Z" fill="#8FC258"/>
<path d="M4 1.00098H42V-0.999023H4V1.00098ZM45 4.00098V28.001H47V4.00098H45ZM42 31.001H4V33.001H42V31.001ZM1 28.001V4.00098H-1V28.001H1ZM4 31.001C2.34315 31.001 1 29.6578 1 28.001H-1C-1 30.7624 1.23858 33.001 4 33.001V31.001ZM45 28.001C45 29.6578 43.6569 31.001 42 31.001V33.001C44.7614 33.001 47 30.7624 47 28.001H45ZM42 1.00098C43.6569 1.00098 45 2.34412 45 4.00098H47C47 1.23955 44.7614 -0.999023 42 -0.999023V1.00098ZM4 -0.999023C1.23858 -0.999023 -1 1.23955 -1 4.00098H1C1 2.34412 2.34315 1.00098 4 1.00098V-0.999023Z" fill="#F2F4F7"/>
</svg>
