<svg width="46" height="32" viewBox="0 0 46 32" fill="none" xmlns="http://www.w3.org/2000/svg">
<path d="M0 4.00098C0 1.79184 1.79086 0.000976562 4 0.000976562H42C44.2091 0.000976562 46 1.79184 46 4.00098V28.001C46 30.2101 44.2091 32.001 42 32.001H4C1.79086 32.001 0 30.2101 0 28.001V4.00098Z" fill="white"/>
<path fill-rule="evenodd" clip-rule="evenodd" d="M5.33301 19.2095C5.35609 19.0854 5.37723 18.9653 5.39795 18.8475C5.42998 18.6655 5.46101 18.4892 5.49669 18.3128C5.64777 17.5151 5.79989 16.7185 5.95202 15.9219L5.95202 15.9219L5.95203 15.9219L5.95203 15.9218L5.95204 15.9218L5.95206 15.9217C6.1042 15.125 6.25633 14.3284 6.40742 13.5306C6.42841 13.4296 6.45779 13.3622 6.55851 13.3454C7.34334 13.2275 8.13236 13.1433 8.91719 13.3412C9.60129 13.5096 10.0797 13.9937 10.1595 14.562C10.3232 15.6944 9.66425 16.5995 8.68636 16.9236C8.17014 17.092 7.64552 17.1341 7.11251 17.0836C6.9866 17.071 6.94883 17.1046 6.92784 17.2267C6.81453 17.8455 6.69701 18.4601 6.5753 19.0748C6.56691 19.1253 6.52074 19.2052 6.49136 19.2052C6.20617 19.2115 5.92567 19.2108 5.63411 19.21H5.63408H5.63406H5.63403H5.634H5.63398L5.63355 19.21C5.53484 19.2097 5.43486 19.2095 5.33301 19.2095ZM7.37662 16.0859L7.37664 16.0859C7.54081 16.0904 7.69583 16.0946 7.84697 16.0775C8.28346 16.0312 8.6318 15.8333 8.82906 15.4166C9.0515 14.9451 8.89201 14.4441 8.47232 14.2968C8.17434 14.1915 7.86796 14.2126 7.56158 14.2547C7.52381 14.2589 7.47345 14.3178 7.46505 14.3557C7.40634 14.6643 7.34764 14.9742 7.28672 15.2957L7.13769 16.0817C7.21974 16.0817 7.29919 16.0838 7.37662 16.0859ZM12.7742 18.4012C12.7078 18.4705 12.6456 18.5402 12.5848 18.6083L12.5848 18.6083L12.5848 18.6083L12.5848 18.6083L12.5848 18.6083L12.5848 18.6083C12.4535 18.7554 12.3287 18.8952 12.1824 19.0074C11.7417 19.3484 11.2381 19.4242 10.7303 19.1884C10.2266 18.9569 10.021 18.5064 10 17.976C9.95385 16.8605 10.3442 15.9386 11.2801 15.2987C11.8676 14.8946 12.5434 14.7725 13.2442 14.8104C13.4761 14.824 13.7062 14.8644 13.9368 14.9048C14.061 14.9266 14.1854 14.9484 14.3103 14.9661C14.453 14.9872 14.4739 15.0672 14.4488 15.1892C14.4152 15.3649 14.3812 15.5403 14.3472 15.7157L14.3472 15.7157L14.3472 15.7157L14.3472 15.7158L14.3472 15.7158L14.347 15.717L14.3469 15.7171C14.2198 16.3734 14.093 17.0282 13.9871 17.6856C13.9264 18.0619 13.9021 18.4475 13.8781 18.8291L13.8781 18.8294C13.8739 18.8959 13.8697 18.9623 13.8654 19.0284C13.857 19.1632 13.8234 19.2179 13.6849 19.2137C13.4247 19.2053 13.1645 19.2053 12.9043 19.2137C12.77 19.2179 12.7238 19.1674 12.7364 19.0369C12.7484 18.8926 12.7561 18.7441 12.7641 18.5898C12.7673 18.5279 12.7706 18.4651 12.7742 18.4012ZM13.068 15.7996C12.6609 15.6859 12.3209 15.7659 12.0355 16.0059C11.4983 16.4605 11.2549 17.0499 11.3011 17.7529C11.3137 17.9676 11.3976 18.1738 11.6242 18.2665C11.8509 18.3591 12.0565 18.2917 12.2328 18.1402C12.3377 18.0476 12.4384 17.9423 12.514 17.8244C12.81 17.3712 12.8909 16.86 12.973 16.3408L12.973 16.3408L12.973 16.3407L12.973 16.3407L12.973 16.3407L12.973 16.3407C13.0015 16.1606 13.0302 15.9795 13.068 15.7996ZM19.015 18.157C19.2459 18.8979 19.8796 19.3105 20.9918 19.3105C21.7556 19.2894 22.5153 18.8558 22.9895 17.9634C23.2413 17.4835 23.3337 16.9699 23.3001 16.4311C23.2707 15.9133 23.0651 15.4755 22.6454 15.164C22.2047 14.8356 21.7011 14.7683 21.1639 14.8272C19.3676 15.0293 18.6331 16.9362 19.015 18.157ZM20.2102 17.5388L20.2102 17.5388C20.2107 17.5173 20.2111 17.4959 20.2111 17.4751C20.2237 16.9909 20.3413 16.5405 20.6308 16.1406C20.7609 15.9638 20.9246 15.8291 21.1429 15.7786C21.5877 15.6775 21.9529 15.9343 21.9948 16.4184C22.0452 17.012 21.9025 17.5593 21.529 18.0349C21.3863 18.2118 21.2058 18.3338 20.975 18.3549C20.5595 18.3928 20.2447 18.1107 20.2111 17.6687C20.2083 17.6265 20.2093 17.5823 20.2102 17.5388ZM24.299 14.9156H25.365C25.3482 15.1429 25.3314 15.3618 25.3105 15.5849C25.3493 15.5487 25.3868 15.5129 25.4236 15.4777L25.4238 15.4776L25.4238 15.4776L25.4238 15.4775L25.4238 15.4775C25.5023 15.4026 25.5775 15.3309 25.6546 15.265C26.0701 14.903 26.5444 14.743 27.0942 14.8314C27.5474 14.9072 27.8622 15.2397 27.9126 15.707C27.9673 16.1932 27.8764 16.6649 27.7856 17.1355L27.7856 17.1355L27.7657 17.2393C27.729 17.4298 27.6927 17.6202 27.6565 17.8105L27.656 17.813C27.5763 18.2319 27.4967 18.6501 27.4131 19.0663C27.4005 19.1211 27.3376 19.201 27.2956 19.2052C26.9347 19.2137 26.5737 19.2095 26.2128 19.2052C26.2007 19.2052 26.1886 19.1987 26.1702 19.1887C26.1631 19.1849 26.155 19.1805 26.1456 19.1758C26.2128 18.8264 26.2799 18.4728 26.3429 18.1192C26.4394 17.5761 26.5318 17.0373 26.6157 16.4942C26.6325 16.4016 26.6241 16.3048 26.6115 16.2122C26.5779 15.888 26.3387 15.7407 26.0281 15.8375C25.726 15.9343 25.5455 16.1701 25.3986 16.4311C25.1804 16.8142 25.1048 17.2393 25.0293 17.6645V17.6645L25.0293 17.6645C25.0103 17.7699 24.9916 17.8751 24.9729 17.9801C24.9087 18.3409 24.8448 18.7002 24.7732 19.0621C24.7607 19.1168 24.6977 19.201 24.6557 19.2052C24.3614 19.2153 24.0644 19.2147 23.7478 19.214H23.7478H23.7476H23.7474H23.7472C23.6667 19.2138 23.5849 19.2137 23.5016 19.2137C23.7786 17.7655 24.0388 16.3469 24.299 14.9156ZM30.3509 18.3296C29.9061 18.2749 29.6081 17.9634 29.6375 17.5256C29.7303 17.5256 29.8226 17.527 29.9145 17.5284H29.9145C30.0968 17.5312 30.2772 17.534 30.4559 17.5256C30.8881 17.5003 31.312 17.4288 31.7065 17.2309C32.2102 16.9783 32.4452 16.5616 32.4074 16.0185C32.3697 15.4671 32.0717 15.0671 31.5387 14.9072C30.7412 14.6672 30.0068 14.8356 29.3814 15.3702C28.6218 16.0185 28.3364 16.8773 28.4455 17.8582C28.5211 18.5527 28.8988 19.0495 29.5871 19.2263C30.3258 19.4157 31.0518 19.3147 31.7527 19.0284C31.8031 19.0074 31.8618 18.9274 31.8576 18.8769C31.8476 18.6715 31.8267 18.466 31.8059 18.2606C31.8007 18.2093 31.7955 18.1579 31.7905 18.1065C31.7767 18.1065 31.7664 18.1058 31.7586 18.1053C31.7473 18.1045 31.7409 18.104 31.7359 18.1065C31.6898 18.1234 31.6436 18.1402 31.6016 18.157C31.1987 18.3128 30.7832 18.3802 30.3509 18.3296ZM31.0014 16.4647C30.7454 16.5994 30.0823 16.6794 29.7591 16.6121C29.8263 16.0522 30.418 15.6144 30.9175 15.7365C31.0854 15.7786 31.2071 15.867 31.2365 16.048C31.2658 16.2248 31.1777 16.3721 31.0014 16.4647ZM33.8302 17.5425C33.7925 17.955 34.0862 18.2707 34.5353 18.3297C34.955 18.3802 35.3579 18.317 35.7524 18.1739C35.7888 18.1602 35.8239 18.1466 35.8624 18.1316L35.8625 18.1315C35.8952 18.1188 35.9303 18.1052 35.9707 18.0897C35.9789 18.1789 35.988 18.2663 35.9969 18.3524L35.9969 18.3525C36.0155 18.5308 36.0335 18.7038 36.042 18.8769C36.0462 18.9274 35.9875 19.0074 35.9413 19.0285C35.2278 19.3232 34.4933 19.4242 33.7421 19.2179C33.0664 19.0327 32.7138 18.5402 32.6299 17.8666C32.525 17.0036 32.7474 16.2248 33.3476 15.585C33.9939 14.8988 34.7871 14.6546 35.7021 14.9072C36.2603 15.063 36.5582 15.4671 36.5918 16.0354C36.6254 16.5911 36.3736 17.0078 35.849 17.252C35.3201 17.4962 34.7577 17.534 34.187 17.5467C34.0736 17.5425 33.9561 17.5425 33.8302 17.5425ZM33.9519 16.6458C34.0283 16.641 34.1033 16.6373 34.1772 16.6336C34.3634 16.6242 34.5427 16.6152 34.72 16.5911C34.8879 16.57 35.0557 16.5195 35.2068 16.448C35.3705 16.3764 35.4503 16.2249 35.4251 16.0396C35.3999 15.8628 35.2824 15.7786 35.1187 15.7365C34.6235 15.6018 34.0065 16.0565 33.9519 16.6458ZM36.8226 18.3296C36.768 18.6159 36.7177 18.8979 36.6631 19.2095C36.7472 19.2095 36.83 19.2096 36.9119 19.2098C37.2348 19.2105 37.5428 19.2111 37.8508 19.201C37.8802 19.201 37.9264 19.1211 37.9348 19.0705C37.9776 18.8603 38.0173 18.649 38.057 18.4378C38.1301 18.0484 38.2032 17.6593 38.2957 17.2772C38.5014 16.4269 38.8497 16.1322 39.6765 16.0227C39.7101 16.0185 39.7647 15.9806 39.773 15.9512C39.8257 15.7093 39.8729 15.4655 39.9218 15.2126C39.947 15.0827 39.9726 14.9503 39.9997 14.8146C39.2023 14.7304 38.7574 15.1934 38.3713 15.7617L38.3774 15.6801C38.3964 15.4286 38.4157 15.1726 38.4384 14.903C38.3512 14.903 38.2655 14.9027 38.1811 14.9024C37.9325 14.9017 37.6944 14.9009 37.4563 14.9072C37.4228 14.9114 37.3598 14.9872 37.3556 15.0335C37.2661 16.1154 37.0541 17.1736 36.8423 18.2311L36.8226 18.3296Z" fill="black"/>
<path fill-rule="evenodd" clip-rule="evenodd" d="M25.7107 9.83665C25.6682 9.82541 25.6257 9.81416 25.5832 9.80469C25.4531 9.80469 25.323 9.80469 25.1845 9.8089C25.1372 9.81839 25.0899 9.82873 25.0422 9.83916C24.9841 9.85186 24.9255 9.86469 24.8655 9.87625C24.2234 9.99833 23.6191 10.2214 23.0357 10.5161C21.7724 11.156 20.6392 11.9853 19.6236 12.9661C18.9479 13.6144 18.2931 14.2922 17.6594 14.9868C16.5472 16.2076 15.5945 17.5505 14.8349 19.0238C14.4446 19.7858 14.092 20.5646 13.9325 21.4107C13.9032 21.5665 13.9535 21.7475 14.0039 21.9033C14.0249 21.9664 14.1424 22.0127 14.2221 22.038C14.2431 22.0464 14.3061 21.9411 14.3354 21.8822C14.3459 21.8594 14.3565 21.836 14.3675 21.8121C14.5497 21.4128 14.7962 20.8728 15.01 20.5154C15.4633 19.7576 15.8212 19.1712 16.329 18.4513C17.1432 17.2937 18.0945 16.1578 19.0934 15.1559C20.0377 14.2088 20.9834 13.3619 22.1711 12.722C22.7167 12.4315 23.2749 12.1453 23.8457 11.9095C24.832 11.5012 25.8602 11.2233 26.9178 11.0676C27.0312 11.0507 27.1823 10.9623 27.22 10.8697C27.2536 10.7855 27.1739 10.6256 27.0941 10.5456C26.771 10.213 26.3932 9.96045 25.9232 9.88467C25.8523 9.87415 25.7815 9.8554 25.7107 9.83665ZM16.1024 15.5803C16.3038 15.0331 16.4045 14.4648 16.4171 13.8754C16.4115 13.8123 16.4069 13.7491 16.4022 13.686C16.3929 13.5597 16.3836 13.4334 16.3668 13.3071C16.2534 12.3305 15.8338 11.5012 15.1664 10.7897C15.0867 10.7098 14.9776 10.6466 14.8685 10.6087C14.7593 10.5666 14.688 10.6298 14.6964 10.7561C14.6966 10.7587 14.6968 10.7614 14.697 10.7641C14.7052 10.8711 14.7137 10.9818 14.7342 11.0886C14.7636 11.2569 14.7929 11.4253 14.8222 11.5938C14.9264 12.1929 15.0308 12.7934 15.1455 13.3913C15.2588 13.9933 15.3847 14.5911 15.519 15.1846C15.5651 15.3741 15.6407 15.5635 15.733 15.7403C15.8044 15.875 15.9051 15.8624 15.9974 15.7403L15.9974 15.7403C16.0394 15.6898 16.0814 15.6393 16.1024 15.5803Z" fill="#FC461E"/>
<path d="M4 1.00098H42V-0.999023H4V1.00098ZM45 4.00098V28.001H47V4.00098H45ZM42 31.001H4V33.001H42V31.001ZM1 28.001V4.00098H-1V28.001H1ZM4 31.001C2.34315 31.001 1 29.6578 1 28.001H-1C-1 30.7624 1.23858 33.001 4 33.001V31.001ZM45 28.001C45 29.6578 43.6569 31.001 42 31.001V33.001C44.7614 33.001 47 30.7624 47 28.001H45ZM42 1.00098C43.6569 1.00098 45 2.34412 45 4.00098H47C47 1.23955 44.7614 -0.999023 42 -0.999023V1.00098ZM4 -0.999023C1.23858 -0.999023 -1 1.23955 -1 4.00098H1C1 2.34412 2.34315 1.00098 4 1.00098V-0.999023Z" fill="#F2F4F7"/>
</svg>
