<svg width="46" height="32" viewBox="0 0 46 32" fill="none" xmlns="http://www.w3.org/2000/svg">
<path d="M0 6.00098C0 2.68727 2.68629 0.000976562 6 0.000976562H40C43.3137 0.000976562 46 2.68727 46 6.00098V26.001C46 29.3147 43.3137 32.001 40 32.001H6C2.68629 32.001 0 29.3147 0 26.001V6.00098Z" fill="white"/>
<path fill-rule="evenodd" clip-rule="evenodd" d="M12.3223 6.60938H23.1099C30.4403 6.60938 33.2573 10.7333 33.2573 15.9459C33.2573 22.1813 29.32 25.3155 23.1099 25.3155H12.3223V6.60938ZM13.3465 7.73108V24.2598H23.1098C28.9998 24.2598 32.2008 21.4225 32.2008 15.9789C32.2008 10.3704 28.7437 7.73108 23.1098 7.73108H13.3465ZM16.2276 16.2758C17.306 16.2758 18.1802 15.3748 18.1802 14.2634C18.1802 13.1519 17.306 12.2509 16.2276 12.2509C15.1491 12.2509 14.2749 13.1519 14.2749 14.2634C14.2749 15.3748 15.1491 16.2758 16.2276 16.2758ZM14.6591 17.1336H17.7962V22.8741H14.6591V17.1336Z" fill="black"/>
<path fill-rule="evenodd" clip-rule="evenodd" d="M28.6474 12.4157H29.5437V15.187H30.8561C30.504 10.1393 26.6307 9.01758 23.1095 9.01758H19.3643V12.4157H19.9084C20.9328 12.4157 21.541 13.1085 21.541 14.2632C21.541 15.4179 20.9328 16.1107 19.9405 16.1107H19.3643V22.874H23.1095C28.8394 22.874 30.7921 20.1357 30.8881 16.1107H28.6474V12.4157ZM24.3259 15.187V16.1107H22.0852V12.4157H24.2619V13.3395H22.9815V13.7683H24.1979V14.6921H23.0135V15.187H24.3259ZM24.71 16.1107L25.7983 12.4157H27.0788L28.1671 16.1107H27.2388L27.0467 15.4179H25.8623L25.6703 16.1107H24.71ZM26.1285 14.4612H26.1185V14.4941L26.1285 14.4612ZM26.1285 14.4612H26.7587L26.4706 13.4384H26.4386L26.1285 14.4612ZM19.3643 15.187V13.3395H19.9084C20.2606 13.3395 20.6447 13.4384 20.6447 14.2632C20.6447 15.088 20.2926 15.187 19.9084 15.187H19.3643Z" fill="#D50072"/>
<path d="M6 1.00098H40V-0.999023H6V1.00098ZM45 6.00098V26.001H47V6.00098H45ZM40 31.001H6V33.001H40V31.001ZM1 26.001V6.00098H-1V26.001H1ZM6 31.001C3.23858 31.001 1 28.7624 1 26.001H-1C-1 29.867 2.13401 33.001 6 33.001V31.001ZM45 26.001C45 28.7624 42.7614 31.001 40 31.001V33.001C43.866 33.001 47 29.867 47 26.001H45ZM40 1.00098C42.7614 1.00098 45 3.23955 45 6.00098H47C47 2.13498 43.866 -0.999023 40 -0.999023V1.00098ZM6 -0.999023C2.13401 -0.999023 -1 2.13498 -1 6.00098H1C1 3.23955 3.23858 1.00098 6 1.00098V-0.999023Z" fill="#F2F4F7"/>
</svg>
