<svg width="46" height="32" viewBox="0 0 46 32" fill="none" xmlns="http://www.w3.org/2000/svg">
<path d="M0 6.00098C0 2.68727 2.68629 0.000976562 6 0.000976562H40C43.3137 0.000976562 46 2.68727 46 6.00098V26.001C46 29.3147 43.3137 32.001 40 32.001H6C2.68629 32.001 0 29.3147 0 26.001V6.00098Z" fill="white"/>
<path fill-rule="evenodd" clip-rule="evenodd" d="M33.268 24.8285C33.268 25.2981 33.0814 25.7485 32.7494 26.0805C32.4173 26.4126 31.9669 26.5991 31.4973 26.5991H13.7727C13.54 26.5994 13.3095 26.5538 13.0944 26.4649C12.8794 26.3761 12.684 26.2457 12.5193 26.0812C12.3547 25.9168 12.2241 25.7215 12.135 25.5066C12.0459 25.2916 12 25.0612 12 24.8285V7.10464C12 6.87195 12.0459 6.64153 12.135 6.42657C12.2241 6.21162 12.3547 6.01633 12.5193 5.85189C12.684 5.68744 12.8794 5.55706 13.0944 5.46819C13.3095 5.37933 13.54 5.33372 13.7727 5.33399H31.4961C31.9657 5.33399 32.4161 5.52054 32.7482 5.8526C33.0802 6.18466 33.2668 6.63503 33.2668 7.10464L33.268 24.8285Z" fill="#EDAA00"/>
<path d="M23.8751 16.1965V12.3884L24.8695 12.1529V12.6515C24.8695 12.6515 25.1266 11.9952 25.7238 11.8427C25.9077 11.7964 26.0003 11.8242 26.0003 11.8242V12.7956C25.8213 12.798 25.6445 12.8349 25.4795 12.9043C25.1109 13.0495 24.9258 13.3674 24.9258 13.8503V15.953L23.8751 16.1965ZM18.6352 17.4347C18.6352 17.4347 18.4742 17.1933 18.4742 16.3353V14.4395L17.9623 14.5602V13.7799L18.4746 13.6592V12.8077L19.5318 12.5582V13.4077L20.2786 13.2306V14.0113L19.5318 14.1888V16.1204C19.5318 16.9981 19.7648 17.1667 19.7648 17.1667L18.6352 17.4347ZM20.3889 15.1695C20.3889 14.4922 20.4855 13.9984 20.6923 13.6194C20.9382 13.1695 21.3426 12.8765 21.931 12.7425C23.0904 12.4789 23.5085 13.1654 23.492 14.0854C23.4868 14.4141 23.488 14.5747 23.488 14.5747L21.4453 15.0548V15.0878C21.4453 15.7317 21.5805 16.0363 21.9877 15.9494C22.3394 15.8753 22.4372 15.6548 22.465 15.3828C22.4698 15.3381 22.4714 15.2266 22.4714 15.2266L23.4288 14.9973C23.4288 14.9973 23.4312 15.0757 23.4288 15.163C23.42 15.5288 23.3137 16.4359 21.9837 16.7498C20.7241 17.0488 20.3877 16.2794 20.3877 15.1695H20.3889ZM21.972 13.4515C21.6336 13.5284 21.4561 13.8604 21.4489 14.4105L22.4767 14.1658C22.4787 14.1409 22.4787 14.0854 22.4787 14C22.4767 13.5852 22.3483 13.3662 21.9724 13.4515H21.972ZM29.5762 12.9425C29.536 11.7827 29.837 10.862 31.1308 10.5682C31.9565 10.3807 32.2692 10.5948 32.4278 10.802C32.5803 11 32.639 11.2668 32.639 11.6407V11.7099L31.6257 11.9513V11.8101C31.6257 11.3674 31.505 11.1984 31.1831 11.2789C30.8004 11.3751 30.6458 11.738 30.6458 12.4608V12.7976C30.6458 13.532 30.7464 13.8685 31.1871 13.7759C31.5702 13.6954 31.6225 13.3606 31.6298 13.066C31.6298 13.0198 31.6326 12.8717 31.6326 12.8717L32.6443 12.6334V12.7908C32.6414 13.7534 32.134 14.3602 31.1827 14.5815C29.8736 14.889 29.6168 14.1312 29.5766 12.9425H29.5762ZM26.0763 14.5659C26.0763 13.6837 26.5938 13.4049 27.3717 13.0833C28.0707 12.794 28.0856 12.6503 28.0888 12.3992C28.0925 12.1879 27.9947 12.0065 27.6462 12.0954C27.3263 12.1759 27.2413 12.4085 27.2244 12.5936C27.2186 12.6586 27.2164 12.7239 27.218 12.7892L26.2373 13.0206C26.2307 12.8251 26.2535 12.6298 26.3049 12.4411C26.4619 11.9135 26.9275 11.5586 27.7299 11.373C28.773 11.1316 29.1211 11.5903 29.1227 12.3026V13.9892C29.1227 14.8049 29.274 14.924 29.274 14.924L28.311 15.1522C28.2578 15.0408 28.2144 14.925 28.1814 14.8061C28.1814 14.8061 27.9709 15.3369 27.2442 15.5083C26.4796 15.6878 26.0771 15.2154 26.0771 14.5663L26.0763 14.5659ZM28.0832 13.3618C27.9208 13.4756 27.7493 13.5759 27.5705 13.6616C27.2486 13.819 27.1041 14.0121 27.1041 14.3099C27.1041 14.5679 27.2651 14.7377 27.5548 14.6653C27.8667 14.5872 28.0832 14.2962 28.0832 13.8926V13.3618ZM13.1091 20.104C12.9992 20.1038 12.8914 20.0739 12.797 20.0176C12.7027 19.9612 12.6252 19.8805 12.5729 19.7839C12.5205 19.6873 12.4952 19.5783 12.4996 19.4685C12.5039 19.3587 12.5378 19.2521 12.5976 19.1599L12.6041 19.1514L12.6157 19.1486L14.0524 18.8094V19.9012L14.0298 19.9064C13.7039 19.9849 13.3143 20.0738 13.2339 20.0903C13.1926 20.0995 13.1505 20.1041 13.1083 20.104H13.1091ZM13.1091 21.5008C12.9477 21.5008 12.7928 21.4368 12.6784 21.3228C12.5641 21.2088 12.4996 21.0542 12.499 20.8927C12.4984 20.7749 12.5327 20.6595 12.5976 20.5611L12.6041 20.5503L12.6157 20.5478L14.0524 20.2086V21.3004L14.0298 21.3064C13.7039 21.3845 13.3143 21.475 13.2339 21.4907C13.1925 21.4988 13.1504 21.5029 13.1083 21.5028L13.1091 21.5008ZM13.1091 22.9C12.9473 22.8999 12.7921 22.8355 12.6777 22.7211C12.5633 22.6066 12.499 22.4514 12.499 22.2895C12.4984 22.1717 12.5327 22.0563 12.5976 21.9579L12.6041 21.9467L14.0528 21.6054V22.6972L14.0302 22.7028C13.6862 22.7857 13.3035 22.8722 13.2343 22.8879C13.1929 22.8958 13.1508 22.8999 13.1087 22.9" fill="#231F20"/>
<path d="M12.9399 18.7661L12.9395 12.6577L14.053 12.3945V18.5025L12.9399 18.7661Z" fill="#231F20"/>
<path d="M15.7141 18.2459C15.7098 18.0666 15.6355 17.896 15.5071 17.7707C15.3787 17.6454 15.2064 17.5752 15.027 17.5752C14.8476 17.5752 14.6753 17.6454 14.5469 17.7707C14.4185 17.896 14.3442 18.0666 14.3398 18.2459V23.9555C14.3407 24.4486 14.5369 24.9212 14.8855 25.2699C15.2342 25.6186 15.7068 25.8149 16.1998 25.8159C16.7198 25.8159 18.1443 25.8135 18.1443 25.8135V20.7755C18.1446 20.6275 18.1083 20.4816 18.0385 20.3509C17.9688 20.2203 17.8679 20.1089 17.7447 20.0266L16.0111 18.8492V21.5228C16.0121 21.5429 16.0091 21.5629 16.0022 21.5817C15.9952 21.6005 15.9845 21.6177 15.9707 21.6322C15.9569 21.6468 15.9403 21.6583 15.9219 21.6662C15.9035 21.6742 15.8837 21.6782 15.8636 21.6782C15.8436 21.6782 15.8237 21.6742 15.8053 21.6662C15.7869 21.6583 15.7703 21.6468 15.7565 21.6322C15.7427 21.6177 15.732 21.6005 15.7251 21.5817C15.7181 21.5629 15.7151 21.5429 15.7161 21.5228C15.7161 21.4943 15.7125 18.5988 15.7125 18.2459H15.7141ZM16.6421 13.9863C16.4316 14.0349 16.234 14.1284 16.0629 14.2604C15.8918 14.3923 15.7511 14.5596 15.6505 14.7509V14.3231L14.6481 14.5605V17.3022C14.8239 17.2329 15.0155 17.2134 15.2017 17.246C15.3879 17.2786 15.5614 17.362 15.7032 17.487V15.7163C15.7032 15.2926 15.9149 14.9537 16.2159 14.8873C16.4433 14.8374 16.6324 14.9187 16.6324 15.3223V17.9055L17.688 17.6576V14.9255C17.688 14.2628 17.4337 13.7988 16.6417 13.9863H16.6421ZM31.9884 10.0768C31.8593 10.0768 31.733 10.0386 31.6255 9.96692C31.5181 9.89522 31.4343 9.79327 31.3848 9.67395C31.3353 9.55464 31.3223 9.42332 31.3474 9.29661C31.3725 9.1699 31.4346 9.05349 31.5259 8.96209C31.6172 8.87069 31.7335 8.80842 31.8602 8.78314C31.9869 8.75786 32.1182 8.77071 32.2376 8.82007C32.357 8.86943 32.459 8.95308 32.5309 9.06044C32.6027 9.16781 32.6411 9.29406 32.6412 9.42324C32.6409 9.59621 32.572 9.76201 32.4496 9.88429C32.3273 10.0066 32.1614 10.0753 31.9884 10.0756V10.0768ZM31.9884 8.8518C31.8755 8.8518 31.7651 8.88528 31.6712 8.94801C31.5773 9.01073 31.5041 9.09989 31.4609 9.20421C31.4177 9.30853 31.4063 9.42333 31.4284 9.53409C31.4504 9.64485 31.5047 9.7466 31.5845 9.82647C31.6643 9.90635 31.7661 9.96077 31.8768 9.98285C31.9875 10.0049 32.1023 9.99368 32.2067 9.95052C32.311 9.90736 32.4003 9.83423 32.463 9.74038C32.5258 9.64652 32.5594 9.53616 32.5595 9.42324C32.5593 9.27182 32.4991 9.12665 32.392 9.01954C32.285 8.91244 32.1399 8.85212 31.9884 8.8518Z" fill="#231F20"/>
<path d="M31.75 9.03516H32.0317C32.144 9.03516 32.2329 9.09109 32.2329 9.23959C32.2329 9.34301 32.187 9.42269 32.1001 9.43637C32.1806 9.44442 32.2208 9.48788 32.2245 9.60016C32.2245 9.65046 32.2269 9.71324 32.2293 9.76112C32.2293 9.7748 32.2327 9.78826 32.2393 9.80023C32.246 9.8122 32.2555 9.82229 32.2671 9.82954H32.1239C32.1094 9.8089 32.1018 9.78428 32.1021 9.75911C32.0973 9.71122 32.0981 9.66656 32.0965 9.60861C32.0965 9.52168 32.0679 9.48345 31.9802 9.48345H31.8792V9.82954H31.7516L31.75 9.03516ZM31.979 9.39009C31.9963 9.39169 32.0137 9.38942 32.0301 9.38344C32.0464 9.37746 32.0612 9.36791 32.0733 9.35551C32.0855 9.3431 32.0948 9.32814 32.1005 9.31171C32.1061 9.29528 32.1081 9.27779 32.1061 9.26051C32.1061 9.1756 32.0699 9.13134 31.9854 9.13134H31.8792V9.39009H31.979Z" fill="#231F20"/>
<path d="M6 1.00098H40V-0.999023H6V1.00098ZM45 6.00098V26.001H47V6.00098H45ZM40 31.001H6V33.001H40V31.001ZM1 26.001V6.00098H-1V26.001H1ZM6 31.001C3.23858 31.001 1 28.7624 1 26.001H-1C-1 29.867 2.13401 33.001 6 33.001V31.001ZM45 26.001C45 28.7624 42.7614 31.001 40 31.001V33.001C43.866 33.001 47 29.867 47 26.001H45ZM40 1.00098C42.7614 1.00098 45 3.23955 45 6.00098H47C47 2.13498 43.866 -0.999023 40 -0.999023V1.00098ZM6 -0.999023C2.13401 -0.999023 -1 2.13498 -1 6.00098H1C1 3.23955 3.23858 1.00098 6 1.00098V-0.999023Z" fill="#F2F4F7"/>
</svg>
