<svg width="46" height="32" viewBox="0 0 46 32" fill="none" xmlns="http://www.w3.org/2000/svg">
<path d="M0 4.00098C0 1.79184 1.79086 0.000976562 4 0.000976562H42C44.2091 0.000976562 46 1.79184 46 4.00098V28.001C46 30.2101 44.2091 32.001 42 32.001H4C1.79086 32.001 0 30.2101 0 28.001V4.00098Z" fill="white"/>
<path fill-rule="evenodd" clip-rule="evenodd" d="M21.4108 20.7044V16.7915H23.4303C24.2579 16.7915 24.9563 16.5143 25.5257 15.9674L25.6624 15.8287C26.7025 14.6965 26.6342 12.9326 25.5257 11.8851C24.9715 11.3305 24.2123 11.0301 23.4303 11.0455H20.1885V20.7044H21.4108ZM21.4109 15.6053V12.2316H23.4611C23.9016 12.2316 24.3192 12.401 24.6305 12.7091C25.2911 13.3562 25.3063 14.4345 24.6685 15.1046C24.3572 15.4358 23.9167 15.6207 23.4611 15.6053H21.4109ZM31.3641 14.6117C30.8402 14.1265 30.1266 13.88 29.2231 13.88C28.0615 13.88 27.1884 14.3113 26.6114 15.1663L27.6895 15.8518C28.0843 15.2664 28.6234 14.9737 29.3066 14.9737C29.7394 14.9737 30.157 15.1355 30.4834 15.4282C30.8023 15.7055 30.9845 16.106 30.9845 16.5296V16.8146C30.5138 16.5527 29.9216 16.4141 29.1928 16.4141C28.3424 16.4141 27.6592 16.6144 27.1505 17.0226C26.6418 17.4308 26.3837 17.97 26.3837 18.6555C26.3685 19.2794 26.6342 19.8725 27.1049 20.273C27.5832 20.7044 28.1906 20.9201 28.9043 20.9201C29.747 20.9201 30.4151 20.5426 30.9238 19.7878H30.9769V20.7044H32.1461V16.6298C32.1461 15.7748 31.888 15.097 31.3641 14.6117ZM28.0466 19.4874C27.796 19.3026 27.6441 19.0022 27.6441 18.6786C27.6441 18.3166 27.8112 18.0162 28.1377 17.7775C28.4718 17.5387 28.8894 17.4154 29.383 17.4154C30.0664 17.4077 30.5979 17.5618 30.9776 17.8699C30.9776 18.3937 30.7726 18.8481 30.3701 19.2332C30.0056 19.6029 29.5121 19.8109 28.9957 19.8109C28.654 19.8186 28.3199 19.7031 28.0466 19.4874ZM34.773 23.6082L38.8575 14.0956H37.5289L35.6385 18.8404H35.6157L33.6797 14.0956H32.3511L35.0311 20.2807L33.5127 23.6082H34.773Z" fill="#3C4043"/>
<path d="M17.1905 15.9449C17.1905 15.5675 17.1601 15.19 17.0994 14.8203H11.9443V16.9539H14.8977C14.7762 17.6394 14.3814 18.2556 13.8044 18.6408V20.0272H15.5658C16.5983 19.0644 17.1905 17.6394 17.1905 15.9449Z" fill="#4285F4"/>
<path d="M11.9452 21.3676C13.4181 21.3676 14.6632 20.8747 15.5666 20.0274L13.8053 18.6409C13.3118 18.9798 12.6816 19.1724 11.9452 19.1724C10.5179 19.1724 9.31074 18.1942 8.87799 16.8848H7.06348V18.3174C7.98971 20.1891 9.88015 21.3676 11.9452 21.3676Z" fill="#34A853"/>
<path d="M8.87795 16.8848C8.65015 16.1993 8.65015 15.4522 8.87795 14.7589V13.334H7.06315C6.28103 14.8976 6.28103 16.7462 7.06315 18.3098L8.87795 16.8848Z" fill="#FBBC04"/>
<path d="M11.9452 12.4709C12.7272 12.4555 13.4788 12.7559 14.0406 13.3028L15.6046 11.7161C14.61 10.7764 13.3042 10.2603 11.9452 10.2757C9.88015 10.2757 7.98971 11.4619 7.06348 13.3336L8.87799 14.7663C9.31074 13.4492 10.5179 12.4709 11.9452 12.4709Z" fill="#EA4335"/>
<path d="M4 1.00098H42V-0.999023H4V1.00098ZM45 4.00098V28.001H47V4.00098H45ZM42 31.001H4V33.001H42V31.001ZM1 28.001V4.00098H-1V28.001H1ZM4 31.001C2.34315 31.001 1 29.6578 1 28.001H-1C-1 30.7624 1.23858 33.001 4 33.001V31.001ZM45 28.001C45 29.6578 43.6569 31.001 42 31.001V33.001C44.7614 33.001 47 30.7624 47 28.001H45ZM42 1.00098C43.6569 1.00098 45 2.34412 45 4.00098H47C47 1.23955 44.7614 -0.999023 42 -0.999023V1.00098ZM4 -0.999023C1.23858 -0.999023 -1 1.23955 -1 4.00098H1C1 2.34412 2.34315 1.00098 4 1.00098V-0.999023Z" fill="#F2F4F7"/>
</svg>
