<svg width="46" height="32" viewBox="0 0 46 32" fill="none" xmlns="http://www.w3.org/2000/svg">
<path d="M0 6.00098C0 2.68727 2.68629 0.000976562 6 0.000976562H40C43.3137 0.000976562 46 2.68727 46 6.00098V26.001C46 29.3147 43.3137 32.001 40 32.001H6C2.68629 32.001 0 29.3147 0 26.001V6.00098Z" fill="white"/>
<path d="M39.0074 13.9659C39.5556 13.9659 40.0001 13.5214 40.0001 12.9732C40.0001 12.4249 39.5556 11.9805 39.0074 11.9805C38.4591 11.9805 38.0146 12.4249 38.0146 12.9732C38.0146 13.5214 38.4591 13.9659 39.0074 13.9659Z" fill="#7887E6"/>
<path d="M39.0074 17.0743C39.5556 17.0743 40.0001 16.6298 40.0001 16.0816C40.0001 15.5333 39.5556 15.0889 39.0074 15.0889C38.4591 15.0889 38.0146 15.5333 38.0146 16.0816C38.0146 16.6298 38.4591 17.0743 39.0074 17.0743Z" fill="#FF5073"/>
<path fill-rule="evenodd" clip-rule="evenodd" d="M7.86041 14.5557H6.8972V16.9603H5.33301V10.3784H7.86041C9.36765 10.3784 10.0832 11.2558 10.0832 12.4193C10.0832 13.764 9.12891 14.5557 7.86041 14.5557ZM7.62578 11.5227H6.8972V13.4107H7.68889C8.23636 13.4107 8.59654 13.0484 8.56429 12.3967C8.53959 11.9034 8.11973 11.5227 7.62578 11.5227ZM14.3984 16.9596H12.872H12.8713V16.7435C12.5667 16.9349 12.1681 17.0735 11.8011 17.0735C10.8708 17.0735 10.1635 16.3723 10.1635 15.5374C10.1635 14.6826 10.7686 13.7571 12.872 13.9067V13.5822C12.872 13.2104 12.5571 13.0862 12.2045 13.0862C11.7084 13.0862 11.1267 13.3057 10.8502 13.4299L10.4303 12.562C10.8879 12.276 11.6323 11.9803 12.5763 11.9803C13.7021 11.9803 14.3984 12.4763 14.3984 13.5733V16.9596ZM11.6886 15.51C11.6886 15.8626 11.9465 16.0821 12.3279 16.0821C12.5667 16.0821 12.7862 15.9964 12.9282 15.8914V14.8706C12.0041 14.7176 11.6886 15.1093 11.6886 15.51ZM29.582 12.0948V11.8945C29.582 10.7406 30.2304 9.9873 31.4611 9.9873C31.7383 9.9873 31.9764 10.0257 32.1863 10.0827V11.1694C32.0628 11.1316 31.8817 11.1028 31.7383 11.1028C31.2704 11.1028 31.0989 11.4081 31.0989 11.8376V12.0948H32.1479V13.1349H31.0989V16.9596H29.582V13.1349H28.7711V12.0948H29.582ZM24.366 12.5627C24.8236 12.2766 25.568 11.981 26.512 11.981C27.6378 11.981 28.3341 12.477 28.3334 13.5733V16.9596H26.807V16.7442C26.5024 16.9356 26.1038 17.0742 25.7367 17.0742C24.8065 17.0742 24.0992 16.373 24.0992 15.5381C24.0992 14.6833 24.7042 13.7578 26.8077 13.9074V13.5829C26.8077 13.211 26.4928 13.0869 26.1401 13.0869C25.6441 13.0869 25.0624 13.3064 24.7859 13.4306L24.366 12.5627ZM26.2067 16.0821C26.4454 16.0821 26.6643 15.9964 26.8077 15.8914H26.807V14.8706C25.8829 14.7176 25.5673 15.1093 25.5673 15.51C25.5673 15.8626 25.8252 16.0821 26.2067 16.0821ZM19.8251 12.0955L17.3601 18.3248H15.9077L16.5499 16.7312L14.4924 12.0955H16.0546L17.2593 15.0023L18.3089 12.0955H19.8251ZM37.0222 14.4528V14.8329V14.8342H33.8596C33.8836 15.084 33.9474 15.2877 34.0434 15.4496C34.0438 15.45 34.0439 15.4503 34.0441 15.4506C34.0443 15.451 34.0444 15.4513 34.0448 15.4517C34.0606 15.4771 34.077 15.5018 34.0942 15.5251C34.1045 15.5395 34.1148 15.5525 34.1257 15.5662C34.1279 15.5688 34.13 15.5714 34.1321 15.574C34.1369 15.5799 34.1418 15.5859 34.147 15.5916C34.1655 15.6136 34.1854 15.6348 34.206 15.6547L34.2081 15.6568C34.2588 15.7055 34.3158 15.7494 34.3789 15.7878C34.3803 15.7885 34.3809 15.7885 34.3816 15.7892C34.4098 15.8064 34.4399 15.8221 34.4708 15.8372C34.477 15.84 34.4825 15.8427 34.488 15.8455C34.5065 15.8544 34.5264 15.8626 34.5463 15.8702C34.5641 15.877 34.582 15.8832 34.5998 15.8894C34.6128 15.8935 34.6266 15.8976 34.6403 15.9017C34.6657 15.9086 34.691 15.9154 34.7171 15.9216C34.7224 15.9228 34.7276 15.9238 34.7329 15.9248C34.7365 15.9255 34.7402 15.9263 34.7439 15.9271C34.7692 15.9326 34.7946 15.9367 34.8207 15.9408L34.8237 15.9414C34.8301 15.9426 34.8361 15.9437 34.8427 15.9443C34.8749 15.9484 34.9078 15.9518 34.9408 15.9539C34.949 15.9545 34.9565 15.9545 34.9648 15.9552C34.9998 15.9573 35.0347 15.9587 35.0711 15.9587C35.4855 15.9587 35.9479 15.842 36.4041 15.5834L36.8294 16.5288C36.1564 16.9953 35.2831 17.0749 34.842 17.0749C33.2586 17.0749 32.2665 16.0918 32.2665 14.5564C32.2665 13.0587 33.3162 11.981 34.6705 11.981C36.0247 11.981 37.0222 13.0265 37.0222 14.4528ZM35.4814 14.0316C35.4237 13.3832 35.0903 13.0491 34.6705 13.0491C34.2506 13.0491 33.9172 13.3826 33.8596 14.0316H35.4814ZM21.4524 15.9676C21.9011 15.9676 22.1679 15.8338 22.1679 15.5669C22.1679 15.2818 21.8037 15.1574 21.3658 15.0079C20.7059 14.7826 19.8789 14.5003 19.8793 13.5246C19.8793 12.4948 20.7945 11.9796 21.9299 11.9796C22.5501 11.9796 23.1606 12.1703 23.5613 12.3706L23.1318 13.3723C22.8265 13.2392 22.4067 13.0958 22.006 13.0958C21.6246 13.0958 21.3954 13.2385 21.3954 13.4676C21.3954 13.7197 21.7356 13.8334 22.1515 13.9724C22.8054 14.191 23.6464 14.4721 23.6464 15.4517C23.6464 16.5013 22.6928 17.0735 21.5862 17.0735C20.966 17.0735 20.2984 16.9308 19.7263 16.6255L20.2127 15.6431C20.5557 15.8153 20.9948 15.9676 21.4524 15.9676ZM26.9188 20.2183V19.5776H26.6437V19.3978H27.4045L27.4327 19.5776H27.1726V20.2183H26.9188ZM28.3081 20.2183L28.2772 19.6242L28.256 19.7037L28.256 19.7038C28.2103 19.8754 28.1648 20.0466 28.1166 20.2183H27.8937L27.7331 19.6242L27.7023 20.2183H27.4752C27.4999 19.946 27.5218 19.6709 27.5431 19.3985H27.8621L28.0076 19.9803L28.009 19.9745C28.0551 19.7816 28.1007 19.5914 28.1496 19.3985H28.4686L28.5338 20.2183H28.3081ZM5.33987 19.6393V23.3001H6.20978V21.963H6.74558C7.45152 21.963 7.98184 21.5225 7.98184 20.7747C7.98184 20.1271 7.58393 19.6393 6.74558 19.6393H5.33987ZM7.13869 20.8063C7.13869 21.1404 6.94248 21.3263 6.65091 21.3263H6.21046V20.276H6.65091C6.96374 20.276 7.13869 20.4934 7.13869 20.8063ZM9.64276 23.0297L9.69078 23.3001V23.3007H10.4653V21.4175C10.4653 20.807 10.0784 20.5312 9.45204 20.5312C8.92653 20.5312 8.51284 20.6958 8.25832 20.855L8.49157 21.338C8.64525 21.2687 8.96906 21.1465 9.24485 21.1465C9.44106 21.1465 9.616 21.2152 9.616 21.4223V21.6028C8.48608 21.5815 8.10944 21.9684 8.10944 22.5523C8.10944 23.0936 8.53411 23.3639 8.95328 23.3639C9.29288 23.3639 9.49389 23.1944 9.64276 23.0297ZM9.54754 22.1309C9.56948 22.1334 9.59204 22.1359 9.61669 22.1379V22.7053C9.53711 22.7636 9.41499 22.8116 9.28259 22.8116C9.0706 22.8116 8.92721 22.6895 8.92721 22.4933C8.92721 22.271 9.08638 22.1221 9.42597 22.1221C9.47016 22.1221 9.50781 22.1264 9.54752 22.1309L9.54754 22.1309ZM11.2879 24.4512L11.7338 23.3001H11.4793C11.3808 22.9903 11.283 22.6806 11.1852 22.371L11.1851 22.3705C10.9981 21.7785 10.8111 21.1865 10.6197 20.5943H11.4793L11.9884 22.5996L12.5612 20.5943H13.405C13.1605 21.3011 12.9194 22.0081 12.6787 22.7133L12.6786 22.7136C12.4804 23.2946 12.2826 23.8744 12.0837 24.4519H11.2879V24.4512ZM14.9384 19.6393V23.3001H17.2037V22.6689H15.8083V19.6393H14.9384ZM19.0238 23.3001L18.9758 23.0297C18.8269 23.1944 18.6259 23.3639 18.2863 23.3639C17.8671 23.3639 17.4424 23.0936 17.4424 22.5523C17.4424 21.9684 17.8191 21.5815 18.949 21.6028V21.4223C18.949 21.2152 18.7741 21.1465 18.5778 21.1465C18.3021 21.1465 17.9782 21.2687 17.8246 21.338L17.5913 20.855C17.8458 20.6958 18.2595 20.5312 18.785 20.5312C19.4114 20.5312 19.7983 20.807 19.7983 21.4175V23.3007H19.0238V23.3001ZM18.8806 22.1309L18.8805 22.1309C18.8408 22.1264 18.8032 22.1221 18.759 22.1221C18.4194 22.1221 18.2602 22.271 18.2602 22.4933C18.2602 22.6895 18.4036 22.8116 18.6156 22.8116C18.748 22.8116 18.8701 22.7636 18.9497 22.7053V22.1379C18.9251 22.1359 18.9025 22.1334 18.8806 22.1309ZM20.4988 22.5625C20.4988 23.2685 21.003 23.3 21.2575 23.3V23.3014H21.8626V22.7334H21.6294C21.4435 22.7334 21.3426 22.6483 21.3426 22.3725V21.1733H21.8626V20.595H21.3426V19.7882L20.4988 20.0797V20.5943H20.0851V21.1726H20.4988V22.5625ZM24.5574 23.0984C24.388 23.226 23.9469 23.3639 23.5119 23.3639C22.631 23.3639 22.0794 22.8171 22.0794 21.963C22.0794 21.1301 22.6633 20.5305 23.4165 20.5305C23.9949 20.5305 24.5677 20.8433 24.5677 21.7983V22.1166H22.9658C23.0083 22.5626 23.2786 22.743 23.6395 22.743C23.9105 22.743 24.2178 22.6319 24.3187 22.5681L24.5574 23.0984ZM23.7884 21.6714C23.7884 21.305 23.6292 21.1246 23.4062 21.1246C23.173 21.1246 22.998 21.3105 22.9658 21.6714H23.7884ZM24.9128 20.5943V23.3001H25.7614V21.5493C25.9103 21.4004 26.1491 21.3105 26.372 21.3105H26.372C26.4249 21.3105 26.536 21.3105 26.584 21.3208V20.5305C26.2184 20.5305 25.8945 20.7535 25.7196 21.0876V20.5943H24.9128Z" fill="#2D2341"/>
<path d="M6 1.00098H40V-0.999023H6V1.00098ZM45 6.00098V26.001H47V6.00098H45ZM40 31.001H6V33.001H40V31.001ZM1 26.001V6.00098H-1V26.001H1ZM6 31.001C3.23858 31.001 1 28.7624 1 26.001H-1C-1 29.867 2.13401 33.001 6 33.001V31.001ZM45 26.001C45 28.7624 42.7614 31.001 40 31.001V33.001C43.866 33.001 47 29.867 47 26.001H45ZM40 1.00098C42.7614 1.00098 45 3.23955 45 6.00098H47C47 2.13498 43.866 -0.999023 40 -0.999023V1.00098ZM6 -0.999023C2.13401 -0.999023 -1 2.13498 -1 6.00098H1C1 3.23955 3.23858 1.00098 6 1.00098V-0.999023Z" fill="#F2F4F7"/>
</svg>
