<svg width="46" height="32" viewBox="0 0 46 32" fill="none" xmlns="http://www.w3.org/2000/svg">
<path d="M0 4.00098C0 1.79184 1.79086 0.000976562 4 0.000976562H42C44.2091 0.000976562 46 1.79184 46 4.00098V28.001C46 30.2101 44.2091 32.001 42 32.001H4C1.79086 32.001 0 30.2101 0 28.001V4.00098Z" fill="white"/>
<path d="M11.8395 11.7319H5.49541C4.66923 11.7319 4 12.4073 4 13.2397V19.6375C4 20.4699 4.66923 21.1453 5.49541 21.1453H11.8395C12.6656 21.1453 13.334 20.4699 13.334 19.6375V13.2397C13.3349 12.4065 12.6656 11.7319 11.8395 11.7319Z" fill="#1677FF"/>
<path d="M11.6854 17.643C11.3124 17.5169 10.8107 17.3238 10.2526 17.1201C10.5876 16.532 10.8557 15.8627 11.032 15.1353H9.19185V14.467H11.4455V14.094H9.19185V12.9795H8.2722C8.11085 12.9795 8.11085 13.14 8.11085 13.14V14.0931H5.83157V14.4661H8.11085V15.1344H6.22835V15.5074H9.87872C9.74557 15.9712 9.5657 16.4077 9.3532 16.8036C8.16904 16.4094 6.90464 16.0902 6.11108 16.2869C5.60321 16.4129 5.27609 16.6378 5.08387 16.8741C4.20214 17.956 4.83434 19.5995 6.69655 19.5995C7.79783 19.5995 8.85855 18.9805 9.68033 17.9604C10.9068 18.5547 13.3342 19.5757 13.3342 19.5757V18.1209C13.3351 18.1209 13.03 18.0962 11.6854 17.643ZM6.52285 18.9708C5.07064 18.9708 4.64124 17.8175 5.35897 17.1862C5.5988 16.9728 6.03614 16.8688 6.26891 16.8459C7.13124 16.7603 7.93009 17.0919 8.87266 17.5557C8.21048 18.4268 7.36667 18.9708 6.52285 18.9708Z" fill="white"/>
<path d="M24.2686 13.1101C24.2686 13.5968 24.6248 13.9248 25.1212 13.9248C25.6176 13.9248 25.9738 13.5968 25.9738 13.1101C25.9738 12.6322 25.6176 12.2954 25.1212 12.2954C24.6248 12.2954 24.2686 12.6322 24.2686 13.1101Z" fill="#1677FF"/>
<path d="M23.3692 12.501H21.8896V19.3379H23.3692V12.501Z" fill="black"/>
<path d="M19.2958 12.7354H17.3101L15.0908 19.3386H16.4584L16.8331 18.046H19.1838L19.54 19.3386H21.2911L19.2958 12.7354ZM17.1417 16.9685L18.0217 13.9248H18.0587L18.892 16.9685H17.1417Z" fill="black"/>
<path d="M25.8604 14.3179H24.3809V19.3384H25.8604V14.3179Z" fill="black"/>
<path d="M41.3244 14.3276L41.3333 14.3179H39.9384L39.0575 17.3713H39.0108L37.9994 14.3179H36.3418L38.3363 19.357L37.503 20.8929V20.93H38.8045L41.3244 14.3276Z" fill="black"/>
<path d="M29.5422 14.2148C28.999 14.2148 28.5776 14.4212 28.0997 14.8144V14.318H26.6201V20.9301H28.0997V19.291C28.3809 19.3659 28.6428 19.4038 28.9611 19.4038C30.2819 19.4038 31.4714 18.4295 31.4714 16.6969C31.4714 15.1424 30.6099 14.2148 29.5422 14.2148ZM28.6049 18.4762C28.4365 18.4762 28.2769 18.4577 28.0988 18.4013V15.6856C28.4083 15.4704 28.6604 15.3673 28.9787 15.3673C29.5316 15.3673 29.9716 15.8072 29.9716 16.7445C29.9725 17.9428 29.3261 18.4762 28.6049 18.4762Z" fill="black"/>
<path d="M36.051 18.083V15.9854C36.051 14.8426 35.3765 14.2148 34.187 14.2148C33.4279 14.2148 32.9041 14.3462 31.9483 14.6363L32.2102 15.7887C33.0814 15.3955 33.4649 15.2271 33.8679 15.2271C34.3546 15.2271 34.5706 15.5736 34.5706 16.1079V16.145C32.875 16.4633 32.3504 16.6414 32.0233 16.9694C31.7799 17.2127 31.6768 17.5592 31.6768 17.9622C31.6768 18.9268 32.4262 19.4417 33.1281 19.4417C33.6527 19.4417 34.0742 19.2451 34.6455 18.8139L34.7487 19.3386H36.2283L36.051 18.083ZM34.5715 18.1209C34.1782 18.336 33.9534 18.4207 33.6915 18.4207C33.3353 18.4207 33.1105 18.1862 33.1105 17.8123C33.1105 17.6721 33.1387 17.531 33.2507 17.4191C33.4288 17.2409 33.7753 17.1096 34.5715 16.9226V18.1209Z" fill="black"/>
<path d="M4 1.00098H42V-0.999023H4V1.00098ZM45 4.00098V28.001H47V4.00098H45ZM42 31.001H4V33.001H42V31.001ZM1 28.001V4.00098H-1V28.001H1ZM4 31.001C2.34315 31.001 1 29.6578 1 28.001H-1C-1 30.7624 1.23858 33.001 4 33.001V31.001ZM45 28.001C45 29.6578 43.6569 31.001 42 31.001V33.001C44.7614 33.001 47 30.7624 47 28.001H45ZM42 1.00098C43.6569 1.00098 45 2.34412 45 4.00098H47C47 1.23955 44.7614 -0.999023 42 -0.999023V1.00098ZM4 -0.999023C1.23858 -0.999023 -1 1.23955 -1 4.00098H1C1 2.34412 2.34315 1.00098 4 1.00098V-0.999023Z" fill="#F2F4F7"/>
</svg>
