<svg width="46" height="32" viewBox="0 0 46 32" fill="none" xmlns="http://www.w3.org/2000/svg">
<path d="M0 4.00098C0 1.79184 1.79086 0.000976562 4 0.000976562H42C44.2091 0.000976562 46 1.79184 46 4.00098V28.001C46 30.2101 44.2091 32.001 42 32.001H4C1.79086 32.001 0 30.2101 0 28.001V4.00098Z" fill="white"/>
<path d="M33.9881 9.91797H24.9591L24.0408 10.9835L21.061 14.4411V14.4412L20.1427 15.5067H11.233L12.1371 14.4277L12.565 13.9169L13.4691 12.8379H9.36372C8.61371 12.8379 8 13.4865 8 14.2791V17.32C8 18.1127 8.61371 18.7613 9.36372 18.7613H25.0808C25.8308 18.7613 26.8554 18.2796 27.3576 17.6909L29.7351 14.9039L33.9881 9.91797Z" fill="#005697"/>
<path d="M35.8021 6.66748C36.5521 6.66748 37.1659 7.31605 37.1659 8.10878V11.1496C37.1659 11.9422 36.5521 12.5909 35.8021 12.5909H31.7102L32.6228 11.5199H32.6229L33.0754 10.989L33.988 9.9182H24.9591L20.1427 15.5109H11.1777L17.607 8.01863L17.8502 7.73508C18.3542 7.14787 19.3801 6.66748 20.1301 6.66748H35.8021V6.66748Z" fill="#FBD500"/>
<path fill-rule="evenodd" clip-rule="evenodd" d="M11.0733 23.9313C11.0733 23.7328 11.0278 23.5609 10.9371 23.4158C10.8463 23.2707 10.7269 23.16 10.5787 23.0836C10.7269 23.0073 10.8417 22.8945 10.9233 22.7456C11.0048 22.5967 11.0455 22.4287 11.0455 22.2416V22.1385C11.0455 21.9093 11.0029 21.7186 10.9177 21.5657C10.8325 21.413 10.7129 21.2907 10.5592 21.1991C10.4055 21.1074 10.2211 21.0417 10.0063 21.0015C9.79129 20.9614 9.5524 20.9414 9.28929 20.9414C9.20042 20.9414 9.10776 20.9433 9.01151 20.9471C8.91503 20.9509 8.82156 20.9557 8.73085 20.9614C8.64003 20.9671 8.55659 20.9739 8.48077 20.9815C8.40472 20.9892 8.34263 20.9968 8.29451 21.0043C8.18707 21.0236 8.11113 21.0578 8.0667 21.1074C8.02227 21.1572 8 21.247 8 21.3767V24.8593C8 24.9891 8.02308 25.0788 8.06947 25.1284C8.11575 25.1781 8.19445 25.2124 8.3057 25.2315C8.36121 25.2429 8.42792 25.2525 8.5057 25.2602C8.58348 25.2678 8.66772 25.2745 8.75855 25.2802C8.84937 25.2859 8.94284 25.2906 9.03921 25.2946C9.13557 25.2983 9.22997 25.3003 9.32264 25.3003C9.56348 25.3003 9.79037 25.2811 10.0035 25.2429C10.2164 25.2049 10.4017 25.137 10.5592 25.0396C10.7167 24.9423 10.8417 24.8105 10.9344 24.6444C11.0269 24.4783 11.0733 24.2692 11.0733 24.0172V23.9313ZM10.1286 22.2874C10.1286 22.3485 10.1193 22.4068 10.1008 22.4621C10.0822 22.5174 10.0517 22.5651 10.0091 22.6054C9.96643 22.6454 9.90907 22.6779 9.83683 22.7026C9.76459 22.7275 9.67284 22.7398 9.56171 22.7398H8.93934V21.749C8.95781 21.749 8.98654 21.7481 9.02543 21.7461C9.06432 21.7442 9.10506 21.7433 9.14764 21.7433H9.3616C9.64688 21.7433 9.84606 21.7805 9.95904 21.8549C10.072 21.9294 10.1286 22.0449 10.1286 22.2014V22.2874ZM9.98686 24.3666C10.0961 24.2788 10.1508 24.1546 10.1508 23.9943V23.9313C10.1508 23.7938 10.1081 23.6745 10.023 23.5733C9.9377 23.4722 9.78398 23.4215 9.56171 23.4215H8.93934V24.4925H9.03651C9.07909 24.4925 9.12352 24.4937 9.16992 24.4955C9.21619 24.4974 9.26062 24.4985 9.30332 24.4985H9.39495C9.68023 24.4985 9.87757 24.4545 9.98686 24.3666ZM14.1188 23.0893C14.1188 22.8794 14.0883 22.7007 14.0271 22.5537C13.966 22.4068 13.8798 22.2864 13.7687 22.1928C13.6576 22.0994 13.5214 22.0307 13.3602 21.9867C13.1991 21.9428 13.0185 21.9208 12.8184 21.9208C12.633 21.9208 12.4524 21.9343 12.2765 21.961C12.1004 21.9877 11.9606 22.0144 11.8569 22.0411C11.7865 22.0603 11.7513 22.1022 11.7513 22.167V22.631C11.7513 22.6693 11.7606 22.6961 11.7792 22.7112C11.7976 22.7265 11.8216 22.7342 11.8514 22.7342H11.8791L12.0459 22.7199C12.1126 22.7141 12.1876 22.7095 12.271 22.7055C12.3543 22.7018 12.4413 22.6989 12.5322 22.6969C12.6229 22.695 12.7128 22.694 12.8017 22.694C12.9313 22.694 13.0332 22.7189 13.1073 22.7685C13.1814 22.8182 13.2185 22.9251 13.2185 23.0893V23.2955H12.9184C12.4404 23.2955 12.0931 23.3728 11.8763 23.5275C11.6596 23.6821 11.5512 23.9274 11.5512 24.2634V24.3152C11.5512 24.5022 11.5781 24.6587 11.6318 24.7846C11.6855 24.9107 11.7569 25.0119 11.8457 25.0884C11.9347 25.1646 12.0356 25.2191 12.1487 25.2515C12.2617 25.2839 12.3794 25.3002 12.5016 25.3002C12.6683 25.3002 12.8119 25.2773 12.9323 25.2315C13.0526 25.1857 13.1665 25.1227 13.2741 25.0425V25.1341C13.2741 25.1646 13.2852 25.1914 13.3074 25.2142C13.3297 25.2372 13.3556 25.2486 13.3852 25.2486H14.0077C14.0373 25.2486 14.0632 25.2372 14.0855 25.2142C14.1078 25.1914 14.1188 25.1646 14.1188 25.1341V23.0893ZM13.0213 24.5641C13.0971 24.5394 13.1685 24.5098 13.2352 24.4754V23.8454H12.9184C12.8221 23.8454 12.7424 23.8539 12.6794 23.8711C12.6164 23.8883 12.5663 23.9141 12.5294 23.9485C12.4924 23.9827 12.4664 24.0268 12.4516 24.0802C12.4367 24.1337 12.4294 24.1947 12.4294 24.2634V24.3152C12.4294 24.4372 12.458 24.5155 12.5154 24.5498C12.5729 24.5842 12.6609 24.6013 12.7795 24.6013C12.8647 24.6013 12.9452 24.5891 13.0213 24.5641ZM17.5201 25.1284V23.2209C17.5201 23.0417 17.5062 22.8726 17.4784 22.7141C17.4506 22.5558 17.4006 22.4182 17.3284 22.3017C17.2561 22.1852 17.1561 22.0926 17.0282 22.0239C16.9005 21.9552 16.7365 21.9208 16.5364 21.9208C16.3585 21.9208 16.201 21.9429 16.064 21.9872C15.9269 22.0314 15.7824 22.1093 15.6306 22.2209V22.0821C15.6306 22.0514 15.6194 22.0244 15.5972 22.0013C15.5749 21.9783 15.549 21.9666 15.5193 21.9666H14.8969C14.8672 21.9666 14.8413 21.978 14.8192 22.001C14.7969 22.0239 14.7858 22.0507 14.7858 22.0812V25.1284C14.7858 25.1589 14.7977 25.1867 14.8219 25.2114C14.8459 25.2362 14.8728 25.2486 14.9025 25.2486H15.5749C15.6046 25.2486 15.6306 25.2362 15.6527 25.2115C15.675 25.1868 15.6861 25.1592 15.6861 25.1286V22.8769C15.7824 22.8236 15.8731 22.7798 15.9584 22.7455C16.0436 22.7112 16.1269 22.694 16.2085 22.694C16.2937 22.694 16.3631 22.7026 16.4169 22.7199C16.4706 22.737 16.5122 22.7665 16.5419 22.8086C16.5716 22.8503 16.592 22.9055 16.6031 22.974C16.6141 23.0427 16.6198 23.1265 16.6198 23.2256V25.1286C16.6198 25.1592 16.6309 25.1868 16.6531 25.2115C16.6753 25.2362 16.7012 25.2486 16.7309 25.2486H17.4034C17.4329 25.2486 17.4598 25.2362 17.4839 25.2114C17.5081 25.1867 17.5201 25.1589 17.5201 25.1284ZM20.2543 24.5729V25.0826C20.2543 25.1246 20.245 25.1542 20.2265 25.1713C20.2079 25.1886 20.1783 25.2028 20.1375 25.2142C20.0598 25.2334 19.9588 25.2524 19.8347 25.2717C19.7105 25.2906 19.5651 25.3002 19.3984 25.3002C19.0057 25.3002 18.6916 25.1762 18.4565 24.9278C18.2211 24.6797 18.1036 24.3208 18.1036 23.8511V23.37C18.1036 22.9003 18.2211 22.5413 18.4565 22.2932C18.6916 22.0449 19.0057 21.9208 19.3984 21.9208C19.5651 21.9208 19.7105 21.9303 19.8347 21.9494C19.9588 21.9686 20.0598 21.9877 20.1375 22.0067C20.1783 22.0181 20.2079 22.0325 20.2265 22.0496C20.245 22.0669 20.2543 22.0965 20.2543 22.1385V22.6483C20.2543 22.6788 20.2441 22.7026 20.2237 22.7199C20.2033 22.737 20.1783 22.7455 20.1487 22.7455H20.1375C20.0338 22.7342 19.9348 22.7246 19.8403 22.717C19.7457 22.7095 19.6188 22.7055 19.4595 22.7055C19.3965 22.7055 19.3373 22.7161 19.2817 22.737C19.2261 22.758 19.178 22.7943 19.1372 22.8458C19.0964 22.8974 19.0641 22.9661 19.0399 23.0521C19.0158 23.1379 19.0038 23.2439 19.0038 23.37V23.8511C19.0038 23.977 19.0158 24.083 19.0399 24.169C19.0641 24.2549 19.0964 24.3236 19.1372 24.3751C19.178 24.4268 19.2261 24.463 19.2817 24.484C19.3373 24.505 19.3965 24.5155 19.4595 24.5155C19.6188 24.5155 19.7457 24.5117 19.8403 24.5041C19.9348 24.4964 20.0338 24.4868 20.1375 24.4754H20.1487C20.1783 24.4754 20.2033 24.484 20.2237 24.5012C20.2441 24.5185 20.2543 24.5422 20.2543 24.5729ZM23.3389 23.4101C23.3389 23.1809 23.3082 22.9747 23.247 22.7915C23.1857 22.6082 23.0966 22.4526 22.9797 22.3246C22.8628 22.1968 22.718 22.0974 22.5454 22.0268C22.3728 21.9563 22.1731 21.9208 21.9467 21.9208C21.7203 21.9208 21.5208 21.9563 21.3481 22.0268C21.1755 22.0974 21.0297 22.1968 20.911 22.3246C20.7921 22.4526 20.7021 22.6082 20.6409 22.7915C20.5795 22.9747 20.549 23.1809 20.549 23.4101V23.811C20.549 24.0401 20.5795 24.2463 20.6409 24.4296C20.7021 24.6129 20.7921 24.7685 20.911 24.8964C21.0297 25.0244 21.1755 25.1236 21.3481 25.1943C21.5208 25.2648 21.7203 25.3002 21.9467 25.3002C22.1731 25.3002 22.3728 25.2648 22.5454 25.1943C22.718 25.1236 22.8628 25.0244 22.9797 24.8964C23.0966 24.7685 23.1857 24.6129 23.247 24.4296C23.3082 24.2463 23.3389 24.0401 23.3389 23.811V23.4101ZM21.9467 24.5155C22.2746 24.5155 22.4386 24.2807 22.4386 23.811V23.4101C22.4386 22.9442 22.2746 22.7112 21.9467 22.7112C21.7846 22.7112 21.6612 22.7695 21.5765 22.8859C21.4917 23.0025 21.4493 23.1772 21.4493 23.4101V23.811C21.4493 24.0439 21.4917 24.2196 21.5765 24.3379C21.6612 24.4564 21.7846 24.5155 21.9467 24.5155ZM26.6454 25.1284V23.2209C26.6454 23.0417 26.6314 22.8726 26.6038 22.7141C26.576 22.5558 26.5259 22.4182 26.4535 22.3017C26.3813 22.1852 26.2814 22.0926 26.1536 22.0239C26.0257 21.9552 25.8617 21.9208 25.6618 21.9208C25.4839 21.9208 25.3264 21.9429 25.1893 21.9872C25.0522 22.0314 24.9077 22.1093 24.7558 22.2209V22.0821C24.7558 22.0514 24.7448 22.0244 24.7224 22.0013C24.7003 21.9783 24.6742 21.9666 24.6447 21.9666H24.0222C23.9926 21.9666 23.9667 21.978 23.9444 22.001C23.9223 22.0239 23.9111 22.0507 23.9111 22.0812V25.1284C23.9111 25.1589 23.9231 25.1867 23.9472 25.2114C23.9713 25.2362 23.9981 25.2486 24.0279 25.2486H24.7003C24.7299 25.2486 24.7558 25.2362 24.7781 25.2115C24.8003 25.1868 24.8115 25.1592 24.8115 25.1286V22.8769C24.9077 22.8236 24.9985 22.7798 25.0837 22.7455C25.169 22.7112 25.2523 22.694 25.3339 22.694C25.4191 22.694 25.4885 22.7026 25.5422 22.7199C25.5959 22.737 25.6376 22.7665 25.6673 22.8086C25.6969 22.8503 25.7173 22.9055 25.7285 22.974C25.7395 23.0427 25.7451 23.1265 25.7451 23.2256V25.1286C25.7451 25.1592 25.7562 25.1868 25.7784 25.2115C25.8007 25.2362 25.8265 25.2486 25.8562 25.2486H26.5287C26.5583 25.2486 26.5852 25.2362 26.6093 25.2114C26.6333 25.1867 26.6454 25.1589 26.6454 25.1284ZM29.0687 24.6979V25.1412C29.0687 25.2055 29.0335 25.2435 28.9631 25.2547C28.8778 25.2699 28.8037 25.2812 28.7408 25.2888C28.6778 25.2964 28.6055 25.3002 28.5241 25.3002C28.3729 25.3002 28.2394 25.2877 28.1234 25.263C28.0075 25.2381 27.9106 25.1895 27.8333 25.1169C27.7561 25.0444 27.6971 24.9441 27.6566 24.8161C27.6162 24.6883 27.5959 24.5233 27.5959 24.3208V22.6598L27.1514 22.5852C27.1216 22.5776 27.0948 22.5633 27.0707 22.5423C27.0466 22.5213 27.0346 22.4955 27.0346 22.465V22.0868C27.0346 22.0564 27.0466 22.0287 27.0707 22.0038C27.0948 21.9791 27.1216 21.9666 27.1514 21.9666H27.5959V21.4969C27.5959 21.4663 27.607 21.4416 27.629 21.4225C27.651 21.4034 27.6769 21.3901 27.7065 21.3824L28.3803 21.2622H28.3968C28.4262 21.2622 28.4503 21.2707 28.4687 21.2878C28.4871 21.3051 28.4963 21.329 28.4963 21.3594V21.9666H28.952C28.9816 21.9666 29.0075 21.9781 29.0298 22.0012C29.0521 22.0243 29.0632 22.0514 29.0632 22.0821V22.5499C29.0632 22.5808 29.0521 22.6077 29.0298 22.6308C29.0075 22.6538 28.9816 22.6654 28.952 22.6654H28.4963V24.3322C28.4963 24.4467 28.5055 24.5203 28.5241 24.5527C28.5426 24.5852 28.5944 24.6013 28.6796 24.6013H28.952C29.0298 24.6013 29.0687 24.6336 29.0687 24.6979ZM32.0363 23.0893C32.0363 22.8794 32.0058 22.7007 31.9445 22.5537C31.8835 22.4068 31.7974 22.2864 31.6863 22.1928C31.5751 22.0994 31.439 22.0307 31.2777 21.9867C31.1166 21.9428 30.936 21.9208 30.7359 21.9208C30.5505 21.9208 30.37 21.9343 30.1941 21.961C30.018 21.9877 29.8781 22.0144 29.7745 22.0411C29.7039 22.0603 29.6689 22.1022 29.6689 22.167V22.631C29.6689 22.6693 29.678 22.6961 29.6966 22.7112C29.7152 22.7265 29.7392 22.7342 29.7688 22.7342H29.7967L29.9634 22.7199C30.0301 22.7141 30.1051 22.7095 30.1884 22.7055C30.2719 22.7018 30.3589 22.6989 30.4497 22.6969C30.5404 22.695 30.6303 22.694 30.7192 22.694C30.8489 22.694 30.9508 22.7189 31.0249 22.7685C31.099 22.8182 31.136 22.9251 31.136 23.0893V23.2955H30.836C30.3579 23.2955 30.0106 23.3728 29.7939 23.5275C29.5772 23.6821 29.4688 23.9274 29.4688 24.2634V24.3152C29.4688 24.5022 29.4956 24.6587 29.5493 24.7846C29.6029 24.9107 29.6744 25.0119 29.7633 25.0884C29.8523 25.1646 29.9531 25.2191 30.0662 25.2515C30.1792 25.2839 30.2968 25.3002 30.4191 25.3002C30.5859 25.3002 30.7293 25.2773 30.8498 25.2315C30.9702 25.1857 31.084 25.1227 31.1916 25.0425V25.1341C31.1916 25.1646 31.2027 25.1914 31.225 25.2142C31.2472 25.2372 31.2731 25.2486 31.3028 25.2486H31.9253C31.9548 25.2486 31.9808 25.2372 32.003 25.2142C32.0252 25.1914 32.0363 25.1646 32.0363 25.1341V23.0893ZM30.9388 24.5641C31.0146 24.5394 31.086 24.5098 31.1528 24.4754V23.8454H30.836C30.7396 23.8454 30.66 23.8539 30.597 23.8711C30.534 23.8883 30.4839 23.9141 30.4469 23.9485C30.4098 23.9827 30.3838 24.0268 30.3692 24.0802C30.3543 24.1337 30.3469 24.1947 30.3469 24.2634V24.3152C30.3469 24.4372 30.3755 24.5155 30.433 24.5498C30.4905 24.5842 30.5784 24.6013 30.697 24.6013C30.7822 24.6013 30.8626 24.5891 30.9388 24.5641ZM34.7706 25.0826V24.5729C34.7706 24.5422 34.7604 24.5185 34.7401 24.5012C34.7196 24.484 34.6947 24.4754 34.665 24.4754H34.654C34.5502 24.4868 34.4511 24.4964 34.3566 24.5041C34.2622 24.5117 34.1352 24.5155 33.976 24.5155C33.9128 24.5155 33.8535 24.505 33.7981 24.484C33.7425 24.463 33.6943 24.4268 33.6535 24.3751C33.6128 24.3236 33.5804 24.2549 33.5564 24.169C33.5321 24.083 33.5202 23.977 33.5202 23.8511V23.37C33.5202 23.2439 33.5321 23.1379 33.5564 23.0521C33.5804 22.9661 33.6128 22.8974 33.6535 22.8458C33.6943 22.7943 33.7425 22.758 33.7981 22.737C33.8535 22.7161 33.9128 22.7055 33.976 22.7055C34.1352 22.7055 34.2622 22.7095 34.3566 22.717C34.4511 22.7246 34.5502 22.7342 34.654 22.7455H34.665C34.6947 22.7455 34.7196 22.737 34.7401 22.7199C34.7604 22.7026 34.7706 22.6788 34.7706 22.6483V22.1385C34.7706 22.0965 34.7614 22.0669 34.7428 22.0496C34.7241 22.0325 34.6947 22.0181 34.654 22.0067C34.5762 21.9877 34.4751 21.9686 34.351 21.9494C34.2269 21.9303 34.0816 21.9208 33.9148 21.9208C33.5219 21.9208 33.2081 22.0449 32.9728 22.2932C32.7375 22.5413 32.6199 22.9003 32.6199 23.37V23.8511C32.6199 24.3208 32.7375 24.6797 32.9728 24.9278C33.2081 25.1762 33.5219 25.3002 33.9148 25.3002C34.0816 25.3002 34.2269 25.2906 34.351 25.2717C34.4751 25.2524 34.5762 25.2334 34.654 25.2142C34.6947 25.2028 34.7241 25.1886 34.7428 25.1713C34.7614 25.1542 34.7706 25.1246 34.7706 25.0826ZM37.1659 24.6979V25.1412C37.1659 25.2055 37.1306 25.2435 37.0603 25.2547C36.975 25.2699 36.9009 25.2812 36.838 25.2888C36.7749 25.2964 36.7026 25.3002 36.6213 25.3002C36.4701 25.3002 36.3366 25.2877 36.2206 25.263C36.1045 25.2381 36.0078 25.1895 35.9306 25.1169C35.8533 25.0444 35.7943 24.9441 35.7538 24.8161C35.7134 24.6883 35.6931 24.5233 35.6931 24.3208V22.6598L35.2486 22.5852C35.2188 22.5776 35.192 22.5633 35.1679 22.5423C35.1438 22.5213 35.1318 22.4955 35.1318 22.465V22.0868C35.1318 22.0564 35.1438 22.0287 35.1679 22.0038C35.192 21.9791 35.2188 21.9666 35.2486 21.9666H35.6931V21.4969C35.6931 21.4663 35.7042 21.4416 35.7262 21.4225C35.7481 21.4034 35.774 21.3901 35.8035 21.3824L36.4774 21.2622H36.494C36.5234 21.2622 36.5474 21.2707 36.5657 21.2878C36.5842 21.3051 36.5935 21.329 36.5935 21.3594V21.9666H37.0492C37.0787 21.9666 37.1047 21.9781 37.127 22.0012C37.1491 22.0243 37.1603 22.0514 37.1603 22.0821V22.5499C37.1603 22.5808 37.1491 22.6077 37.127 22.6308C37.1047 22.6538 37.0787 22.6654 37.0492 22.6654H36.5935V24.3322C36.5935 24.4467 36.6027 24.5203 36.6213 24.5527C36.6397 24.5852 36.6916 24.6013 36.7768 24.6013H37.0492C37.127 24.6013 37.1659 24.6336 37.1659 24.6979Z" fill="#005697"/>
<path d="M4 1.00098H42V-0.999023H4V1.00098ZM45 4.00098V28.001H47V4.00098H45ZM42 31.001H4V33.001H42V31.001ZM1 28.001V4.00098H-1V28.001H1ZM4 31.001C2.34315 31.001 1 29.6578 1 28.001H-1C-1 30.7624 1.23858 33.001 4 33.001V31.001ZM45 28.001C45 29.6578 43.6569 31.001 42 31.001V33.001C44.7614 33.001 47 30.7624 47 28.001H45ZM42 1.00098C43.6569 1.00098 45 2.34412 45 4.00098H47C47 1.23955 44.7614 -0.999023 42 -0.999023V1.00098ZM4 -0.999023C1.23858 -0.999023 -1 1.23955 -1 4.00098H1C1 2.34412 2.34315 1.00098 4 1.00098V-0.999023Z" fill="#F2F4F7"/>
</svg>
