<svg width="46" height="32" viewBox="0 0 46 32" fill="none" xmlns="http://www.w3.org/2000/svg">
<path d="M0 4.00098C0 1.79184 1.79086 0.000976562 4 0.000976562H42C44.2091 0.000976562 46 1.79184 46 4.00098V28.001C46 30.2101 44.2091 32.001 42 32.001H4C1.79086 32.001 0 30.2101 0 28.001V4.00098Z" fill="white"/>
<path fill-rule="evenodd" clip-rule="evenodd" d="M9.24721 18.3567C8.99927 18.4983 8.7353 18.569 8.45546 18.569H8.23952C8.18342 18.569 8.10332 18.5642 7.87196 18.522L8.65419 15.0959C8.7981 14.9628 8.95333 14.8764 9.1333 14.8346C9.31327 14.793 9.42917 14.7817 9.54127 14.7817C9.88499 14.7817 10.151 14.8845 10.279 15.1094C10.4069 15.3341 10.4709 15.6464 10.4709 16.046C10.4709 16.3708 10.4188 16.6831 10.315 16.9828C10.211 17.2826 10.069 17.5511 9.88916 17.7884C9.70919 18.0257 9.49506 18.2152 9.24721 18.3567ZM11.0109 13.4357C10.7308 13.2942 10.399 13.2234 10.015 13.2234C9.83099 13.2234 9.65908 13.2442 9.49923 13.2858C9.3391 13.3276 9.18831 13.3815 9.02846 13.4564L9.76321 10.2383L7.90359 10.538L5.82812 19.6182C6.06002 19.7349 6.30587 19.8264 6.56595 19.8929C6.82576 19.9595 7.0717 20.0094 7.30369 20.0428C7.53559 20.076 7.74166 20.0947 7.92163 20.099C8.1016 20.1031 8.22756 20.1052 8.29951 20.1052C8.85927 20.1052 9.37925 19.9948 9.85908 19.7742C10.339 19.5537 10.7548 19.254 11.1068 18.875C11.4587 18.4961 11.7366 18.0507 11.9406 17.5386C12.1446 17.0265 12.2466 16.4832 12.2466 15.9086C12.2466 15.534 12.2024 15.1843 12.1145 14.8595C12.0264 14.5347 11.8905 14.2518 11.7066 14.0102C11.5226 13.7688 11.2907 13.5773 11.0109 13.4357ZM15.9292 12.4218L16.2024 11.2253H14.421L14.1478 12.4218H15.9292ZM18.5069 18.5194C18.2774 18.5194 18.097 18.4854 17.966 18.417C17.8347 18.3488 17.7426 18.2528 17.6894 18.129C17.6359 18.0054 17.6156 17.8581 17.6278 17.6874C17.6402 17.5168 17.6709 17.3334 17.7201 17.137L18.2611 14.7817H20.2898L20.6586 13.2201H18.6176L19.0848 11.236L17.1791 11.5432L15.9741 16.8425C15.8758 17.2777 15.8183 17.6918 15.802 18.0842C15.7854 18.4768 15.8429 18.8246 15.9741 19.1274C16.1052 19.4304 16.3265 19.6694 16.6381 19.8442C16.9495 20.019 17.3881 20.1066 17.9537 20.1066C18.3471 20.1066 18.6872 20.0724 18.9742 20.0042C19.0038 19.9971 19.0489 19.9858 19.078 19.9785L19.449 18.3629C19.3244 18.4071 19.1993 18.4367 19.0787 18.4618C18.8943 18.5002 18.7037 18.5194 18.5069 18.5194ZM40.1519 13.2222H38.3706L37.3345 17.7605H37.3363L37.1939 18.3847C37.0945 18.4138 36.9955 18.4399 36.8973 18.4604C36.7129 18.4988 36.5223 18.518 36.3256 18.518C36.096 18.518 35.9156 18.484 35.7846 18.4156C35.6534 18.3474 35.5612 18.2514 35.5079 18.1275C35.4546 18.0039 35.4342 17.8568 35.4465 17.6859C35.4588 17.5154 35.4895 17.332 35.5387 17.1355L36.0797 14.7803L36.4362 13.2186L36.4363 13.2182H34.6165L33.7928 16.8412C33.6944 17.2764 33.637 17.6904 33.6207 18.0828C33.6041 18.4754 33.6615 18.8232 33.7928 19.126C33.9238 19.429 34.1451 19.6681 34.4567 19.8429C34.7681 20.0176 35.2067 20.1052 35.7723 20.1052C36.1657 20.1052 36.5058 20.0711 36.7928 20.0028C36.8029 20.0004 36.8126 19.9979 36.8224 19.9954L36.8269 19.9942L36.8261 19.9976C36.7463 20.3714 36.5849 20.6745 36.3257 20.9111C36.0662 21.1479 35.6813 21.2663 35.1708 21.2663C34.9529 21.2663 34.7549 21.2528 34.5755 21.227L34.2248 22.7627C34.462 22.7946 34.7249 22.8112 35.0152 22.8112C35.5577 22.8112 36.0325 22.7466 36.4394 22.6179C36.8463 22.4892 37.1952 22.2941 37.4864 22.0324C37.7776 21.7707 38.0209 21.4425 38.2165 21.0483C38.4118 20.6536 38.5694 20.1866 38.6891 19.6466L39.9218 14.2521L39.9173 14.2501L40.1519 13.2222ZM31.4146 14.7817C30.5839 14.7817 30.4254 14.7817 30.085 14.9655C29.8434 15.0959 29.6434 15.2919 29.4678 15.5206C29.292 15.7494 29.1542 16.0133 29.0545 16.3127C28.9544 16.6122 28.9046 16.924 28.9046 17.2484C28.9046 17.6475 28.9685 17.9638 29.0964 18.1965C29.224 18.4294 29.4598 18.5458 29.8033 18.5458C29.987 18.5458 30.1528 18.5084 30.3007 18.4335C30.4484 18.3587 30.6062 18.2339 30.774 18.0592C30.7899 17.8515 30.8159 17.6332 30.8519 17.4043C30.8847 17.1955 30.9256 17.0005 30.9629 16.8223L30.963 16.8221L30.963 16.822L30.963 16.8219L30.9734 16.7722L31.4146 14.7817ZM32.6793 17.0987C32.5673 17.5728 32.5354 18.0489 32.5834 18.5271C32.6314 19.0055 32.8071 19.7383 32.9785 20.1052H31.2546C31.0977 19.8289 31.063 19.662 31.039 19.5466L31.039 19.5466L31.039 19.5466C31.0308 19.5071 31.0238 19.4737 31.0137 19.444C30.7899 19.6354 30.5423 19.7933 30.2708 19.9181C29.9991 20.0428 29.6955 20.1052 29.3599 20.1052C28.9605 20.1052 28.6189 20.0323 28.3355 19.8869C28.0518 19.7415 27.8201 19.546 27.6404 19.3006C27.4606 19.0554 27.3307 18.7684 27.251 18.4398C27.171 18.1113 27.1311 17.7599 27.1311 17.3856C27.1311 16.8118 27.2288 16.2712 27.4247 15.7639C27.6204 15.2566 27.8921 14.8137 28.2396 14.4352C28.587 14.0568 29.4257 13.2223 30.802 13.2223L33.5656 13.2222L32.6793 17.0987ZM22.7633 18.5726C22.5622 18.5726 22.3933 18.5559 22.2566 18.5223L23.1192 14.7817C23.1192 14.7817 23.5581 14.7817 23.8223 14.7828C24.2003 14.7844 24.4683 14.9179 24.6211 15.1691C24.7738 15.4202 24.8503 15.726 24.8503 16.0859C24.8503 16.4544 24.7999 16.7913 24.6995 17.0969C24.5989 17.4027 24.4583 17.6642 24.2773 17.8818C24.0964 18.0997 23.8772 18.2692 23.6199 18.3905C23.3623 18.5119 23.077 18.5726 22.7633 18.5726ZM26.3462 17.6243C26.5392 17.1179 26.6357 16.559 26.6357 15.9477C26.6357 15.571 26.5853 15.2174 26.4849 14.8864C26.3842 14.5559 26.2295 14.267 26.0205 14.0199C25.8113 13.773 25.544 13.5784 25.2182 13.4359C24.8926 13.2937 24.5044 13.2224 24.0541 13.2224L23.4341 13.2224H23.4331H23.4316H23.4292H23.4287C22.7697 13.2224 21.8909 13.2223 21.6751 13.2224L19.6026 22.3026H21.388L21.9309 20.0294C22.2042 20.0797 22.4777 20.1048 22.7512 20.1048C23.3141 20.1048 23.8349 20.0021 24.3135 19.7971C24.7919 19.592 25.202 19.3053 25.544 18.9367C25.8857 18.5685 26.1533 18.1311 26.3462 17.6243ZM12.3907 20.1066L13.9633 13.2183H15.7447L14.1721 20.1066H12.3907Z" fill="#002855"/>
<path d="M4 1.00098H42V-0.999023H4V1.00098ZM45 4.00098V28.001H47V4.00098H45ZM42 31.001H4V33.001H42V31.001ZM1 28.001V4.00098H-1V28.001H1ZM4 31.001C2.34315 31.001 1 29.6578 1 28.001H-1C-1 30.7624 1.23858 33.001 4 33.001V31.001ZM45 28.001C45 29.6578 43.6569 31.001 42 31.001V33.001C44.7614 33.001 47 30.7624 47 28.001H45ZM42 1.00098C43.6569 1.00098 45 2.34412 45 4.00098H47C47 1.23955 44.7614 -0.999023 42 -0.999023V1.00098ZM4 -0.999023C1.23858 -0.999023 -1 1.23955 -1 4.00098H1C1 2.34412 2.34315 1.00098 4 1.00098V-0.999023Z" fill="#F2F4F7"/>
</svg>
