<svg width="46" height="32" viewBox="0 0 46 32" fill="none" xmlns="http://www.w3.org/2000/svg">
<path d="M0 6.00098C0 2.68727 2.68629 0.000976562 6 0.000976562H40C43.3137 0.000976562 46 2.68727 46 6.00098V26.001C46 29.3147 43.3137 32.001 40 32.001H6C2.68629 32.001 0 29.3147 0 26.001V6.00098Z" fill="white"/>
<path fill-rule="evenodd" clip-rule="evenodd" d="M22.9053 22.4401C21.3266 23.7709 19.2787 24.5742 17.0409 24.5742C12.0478 24.5742 8 20.5746 8 15.6409C8 10.7071 12.0478 6.70752 17.0409 6.70752C19.2787 6.70752 21.3266 7.51085 22.9053 8.84158C24.484 7.51085 26.5319 6.70752 28.7697 6.70752C33.7628 6.70752 37.8106 10.7071 37.8106 15.6409C37.8106 20.5746 33.7628 24.5742 28.7697 24.5742C26.5319 24.5742 24.484 23.7709 22.9053 22.4401Z" fill="#ED0006"/>
<path fill-rule="evenodd" clip-rule="evenodd" d="M22.9053 22.4401C24.8492 20.8016 26.0818 18.3635 26.0818 15.6409C26.0818 12.9182 24.8492 10.4801 22.9053 8.84157C24.484 7.51085 26.5319 6.70752 28.7697 6.70752C33.7628 6.70752 37.8106 10.7071 37.8106 15.6409C37.8106 20.5746 33.7628 24.5742 28.7697 24.5742C26.5319 24.5742 24.484 23.7709 22.9053 22.4401Z" fill="#F9A000"/>
<path fill-rule="evenodd" clip-rule="evenodd" d="M22.905 22.4403C24.8489 20.8018 26.0815 18.3636 26.0815 15.641C26.0815 12.9185 24.8489 10.4803 22.905 8.8418C20.9611 10.4803 19.7285 12.9185 19.7285 15.641C19.7285 18.3636 20.9611 20.8018 22.905 22.4403Z" fill="#FF5E00"/>
<path d="M6 1.00098H40V-0.999023H6V1.00098ZM45 6.00098V26.001H47V6.00098H45ZM40 31.001H6V33.001H40V31.001ZM1 26.001V6.00098H-1V26.001H1ZM6 31.001C3.23858 31.001 1 28.7624 1 26.001H-1C-1 29.867 2.13401 33.001 6 33.001V31.001ZM45 26.001C45 28.7624 42.7614 31.001 40 31.001V33.001C43.866 33.001 47 29.867 47 26.001H45ZM40 1.00098C42.7614 1.00098 45 3.23955 45 6.00098H47C47 2.13498 43.866 -0.999023 40 -0.999023V1.00098ZM6 -0.999023C2.13401 -0.999023 -1 2.13498 -1 6.00098H1C1 3.23955 3.23858 1.00098 6 1.00098V-0.999023Z" fill="#F2F4F7"/>
</svg>
