<svg width="46" height="32" viewBox="0 0 46 32" fill="none" xmlns="http://www.w3.org/2000/svg">
<path d="M0 4.00098C0 1.79184 1.79086 0.000976562 4 0.000976562H42C44.2091 0.000976562 46 1.79184 46 4.00098V28.001C46 30.2101 44.2091 32.001 42 32.001H4C1.79086 32.001 0 30.2101 0 28.001V4.00098Z" fill="#FEB4C7"/>
<path fill-rule="evenodd" clip-rule="evenodd" d="M7.0253 20.5071H5.18066V12.001H7.0253V20.5071ZM11.6306 12.001H9.82595C9.82595 13.5663 9.14591 15.0031 7.96024 15.943L7.24528 16.5097L10.0155 20.5075H12.2932L9.74421 16.8289C10.9525 15.5556 11.6306 13.8425 11.6306 12.001ZM14.5728 20.5048H12.8307V12.0026H14.5728V20.5048ZM19.8361 14.6235V14.9997C19.366 14.6604 18.7987 14.4609 18.1867 14.4609C16.5672 14.4609 15.2544 15.8503 15.2544 17.5643C15.2544 19.2782 16.5672 20.6676 18.1867 20.6676C18.7987 20.6676 19.366 20.4682 19.8361 20.1289V20.5048H21.5V14.6235H19.8361ZM19.831 17.5643C19.831 18.4 19.156 19.0775 18.3233 19.0775C17.4907 19.0775 16.8157 18.4 16.8157 17.5643C16.8157 16.7286 17.4907 16.0513 18.3233 16.0513C19.156 16.0513 19.831 16.7286 19.831 17.5643ZM37.3895 14.9997V14.6235H39.0533V20.5048H37.3895V20.1289C36.9194 20.4682 36.3521 20.6676 35.7401 20.6676C34.1206 20.6676 32.8077 19.2782 32.8077 17.5643C32.8077 15.8503 34.1206 14.4609 35.7401 14.4609C36.3521 14.4609 36.9194 14.6604 37.3895 14.9997ZM35.8767 19.0775C36.7094 19.0775 37.3843 18.4 37.3843 17.5643C37.3843 16.7286 36.7094 16.0513 35.8767 16.0513C35.044 16.0513 34.3691 16.7286 34.3691 17.5643C34.3691 18.4 35.044 19.0775 35.8767 19.0775ZM39.7754 19.5238C39.7754 18.9135 40.2429 18.4188 40.8195 18.4188C41.3961 18.4188 41.8637 18.9135 41.8637 19.5238C41.8637 20.134 41.3961 20.6288 40.8195 20.6288C40.2429 20.6288 39.7754 20.134 39.7754 19.5238ZM29.8511 14.4653C29.1864 14.4653 28.5574 14.6837 28.1368 15.2862V14.6238H26.4802V20.5048H28.1572V17.4142C28.1572 16.5198 28.7239 16.0818 29.4062 16.0818C30.1374 16.0818 30.5578 16.5442 30.5578 17.402V20.5048H32.2197V16.7648C32.2197 15.3961 31.1915 14.4653 29.8511 14.4653ZM24.0738 14.6236V15.3896C24.4074 14.9301 25.0289 14.6239 25.7045 14.6239V16.3353L25.6953 16.3349C25.6918 16.3347 25.6883 16.3345 25.6848 16.3345C25.0264 16.3345 24.0776 16.8325 24.0776 17.7589V20.5048H22.3703V14.6236H24.0738Z" fill="#17120F"/>
<path d="M4 1.00098H42V-0.999023H4V1.00098ZM45 4.00098V28.001H47V4.00098H45ZM42 31.001H4V33.001H42V31.001ZM1 28.001V4.00098H-1V28.001H1ZM4 31.001C2.34315 31.001 1 29.6578 1 28.001H-1C-1 30.7624 1.23858 33.001 4 33.001V31.001ZM45 28.001C45 29.6578 43.6569 31.001 42 31.001V33.001C44.7614 33.001 47 30.7624 47 28.001H45ZM42 1.00098C43.6569 1.00098 45 2.34412 45 4.00098H47C47 1.23955 44.7614 -0.999023 42 -0.999023V1.00098ZM4 -0.999023C1.23858 -0.999023 -1 1.23955 -1 4.00098H1C1 2.34412 2.34315 1.00098 4 1.00098V-0.999023Z" fill="#F2F4F7"/>
</svg>
