<svg width="46" height="32" viewBox="0 0 46 32" fill="none" xmlns="http://www.w3.org/2000/svg">
<path d="M0 4.00098C0 1.79184 1.79086 0.000976562 4 0.000976562H42C44.2091 0.000976562 46 1.79184 46 4.00098V28.001C46 30.2101 44.2091 32.001 42 32.001H4C1.79086 32.001 0 30.2101 0 28.001V4.00098Z" fill="white"/>
<path fill-rule="evenodd" clip-rule="evenodd" d="M19.485 24.5984L19.7793 22.6662L19.1237 22.6504H15.9932L18.1688 8.39225C18.1756 8.34907 18.1975 8.30899 18.2295 8.28048C18.2617 8.25197 18.3026 8.23633 18.3455 8.23633H23.6242C25.3767 8.23633 26.5861 8.61318 27.2174 9.3571C27.5134 9.70609 27.7019 10.0709 27.7932 10.4722C27.8889 10.8933 27.8905 11.3964 27.7972 12.0102L27.7904 12.0548V12.4481L28.0864 12.6215C28.3356 12.7582 28.5338 12.9146 28.6857 13.0936C28.9389 13.3921 29.1027 13.7714 29.1719 14.2209C29.2434 14.6833 29.2198 15.2337 29.1027 15.8567C28.9676 16.5733 28.7493 17.1974 28.4543 17.708C28.1832 18.1786 27.8377 18.5689 27.4274 18.8713C27.0356 19.1587 26.5703 19.3769 26.0441 19.5165C25.5342 19.6537 24.9528 19.723 24.3152 19.723H23.9044C23.6108 19.723 23.3254 19.8323 23.1014 20.0283C22.8768 20.2284 22.7283 20.5017 22.6828 20.8007L22.6517 20.9747L22.1317 24.3804L22.1082 24.5053C22.1019 24.5449 22.0912 24.5646 22.0754 24.578C22.0614 24.5902 22.0412 24.5984 22.0215 24.5984H19.485Z" fill="#28356A"/>
<path fill-rule="evenodd" clip-rule="evenodd" d="M28.3668 12.1006C28.3512 12.2047 28.3331 12.3111 28.3129 12.4204C27.6168 16.1146 25.2351 17.3908 22.1934 17.3908H20.6447C20.2727 17.3908 19.9591 17.6699 19.9013 18.0492L18.8838 24.7202C18.8461 24.9693 19.0318 25.1937 19.2749 25.1937H22.0218C22.347 25.1937 22.6233 24.9494 22.6745 24.6179L22.7015 24.4737L23.2187 21.0814L23.2519 20.8953C23.3025 20.5626 23.5795 20.3183 23.9047 20.3183H24.3155C26.9768 20.3183 29.0602 19.2016 29.6692 15.9698C29.9234 14.6198 29.7918 13.4925 29.1187 12.6997C28.915 12.4607 28.6624 12.2622 28.3668 12.1006Z" fill="#298FC2"/>
<path fill-rule="evenodd" clip-rule="evenodd" d="M27.6388 11.8002C27.5324 11.7681 27.4226 11.7391 27.3101 11.7129C27.1969 11.6873 27.0811 11.6647 26.9617 11.6448C26.5442 11.5751 26.0866 11.542 25.5965 11.542H21.4591C21.3571 11.542 21.2603 11.5658 21.1738 11.6088C20.9829 11.7036 20.8412 11.8903 20.8068 12.1189L19.9266 17.881L19.9014 18.0489C19.9592 17.6696 20.2727 17.3906 20.6448 17.3906H22.1935C25.2352 17.3906 27.6168 16.1137 28.313 12.4202C28.3338 12.3108 28.3513 12.2044 28.3669 12.1003C28.1908 12.0037 28.0001 11.9211 27.7947 11.8507C27.7439 11.8333 27.6916 11.8165 27.6388 11.8002Z" fill="#22284F"/>
<path fill-rule="evenodd" clip-rule="evenodd" d="M20.8069 12.1193C20.8412 11.8907 20.9829 11.704 21.1738 11.6098C21.261 11.5667 21.3572 11.5429 21.4591 11.5429H25.5965C26.0866 11.5429 26.5442 11.5761 26.9618 11.6458C27.0811 11.6656 27.197 11.6884 27.3101 11.7139C27.4227 11.74 27.5324 11.7692 27.6388 11.8011C27.6916 11.8174 27.7439 11.8343 27.7952 11.8511C28.0006 11.9215 28.1915 12.0048 28.3675 12.1007C28.5747 10.7356 28.3658 9.80608 27.6517 8.9644C26.8644 8.03768 25.4435 7.64111 23.6252 7.64111H18.3464C17.975 7.64111 17.6581 7.92021 17.6008 8.30015L15.4021 22.7049C15.3588 22.9899 15.5714 23.247 15.8495 23.247H19.1084L20.8069 12.1193Z" fill="#28356A"/>
<path d="M4 1.00098H42V-0.999023H4V1.00098ZM45 4.00098V28.001H47V4.00098H45ZM42 31.001H4V33.001H42V31.001ZM1 28.001V4.00098H-1V28.001H1ZM4 31.001C2.34315 31.001 1 29.6578 1 28.001H-1C-1 30.7624 1.23858 33.001 4 33.001V31.001ZM45 28.001C45 29.6578 43.6569 31.001 42 31.001V33.001C44.7614 33.001 47 30.7624 47 28.001H45ZM42 1.00098C43.6569 1.00098 45 2.34412 45 4.00098H47C47 1.23955 44.7614 -0.999023 42 -0.999023V1.00098ZM4 -0.999023C1.23858 -0.999023 -1 1.23955 -1 4.00098H1C1 2.34412 2.34315 1.00098 4 1.00098V-0.999023Z" fill="#F2F4F7"/>
</svg>
