<svg width="46" height="32" viewBox="0 0 46 32" fill="none" xmlns="http://www.w3.org/2000/svg">
<path d="M0 6.00098C0 2.68727 2.68629 0.000976562 6 0.000976562H40C43.3137 0.000976562 46 2.68727 46 6.00098V26.001C46 29.3147 43.3137 32.001 40 32.001H6C2.68629 32.001 0 29.3147 0 26.001V6.00098Z" fill="white"/>
<path fill-rule="evenodd" clip-rule="evenodd" d="M12.9521 15.4241C12.9521 20.5868 17.0422 24.7971 22.106 24.7971C22.7276 24.7971 23.3491 24.7411 24.0632 24.6767C24.8597 24.6049 25.7712 24.5228 26.9264 24.4964C28.6793 24.4964 30.5783 25.148 32.672 27.0526C32.8667 27.2531 33.1589 27.0025 32.9641 26.7519C30.8704 24.0954 28.9715 23.5941 27.0725 23.143C24.7353 22.5917 23.5181 21.2885 22.6903 19.7848C22.5443 19.4841 22.4469 19.5342 22.4469 19.9352C22.3982 20.5366 22.4469 21.088 22.5443 21.6394H22.2521C18.9411 21.6394 16.2144 18.8325 16.2144 15.4241C16.2144 12.0157 18.9411 9.20885 22.2521 9.20885C25.5631 9.20885 28.2898 12.0157 28.2898 15.4241C28.2898 15.6246 28.2898 15.8752 28.2411 16.1258C27.7542 16.0256 26.9264 16.0256 26.2935 16.0757C26.05 16.0757 26.05 16.1759 26.2448 16.2261C28.1924 16.6271 29.5557 17.8801 29.8966 20.1858C29.8966 20.286 29.9453 20.286 29.994 20.2359C30.773 18.8325 31.2599 17.1784 31.2599 15.4241C31.2599 10.2113 27.1699 6.00098 22.106 6.00098C17.0422 6.00098 12.9521 10.2614 12.9521 15.4241ZM28.7279 19.2836C29.0688 19.4339 29.2149 19.9352 29.2149 20.1858C29.2635 20.5868 29.1662 20.7873 29.0201 20.7873C28.874 20.7873 28.6792 20.6369 28.4845 20.286C28.2897 19.9352 28.1923 19.5843 28.2897 19.3838C28.4358 19.2836 28.5819 19.2335 28.7279 19.2836ZM26.7316 20.8374C26.9264 20.8374 27.1698 20.9376 27.4133 21.1381C27.8028 21.489 27.9489 21.89 27.7541 22.1907C27.6567 22.3411 27.4133 22.4413 27.2185 22.4413C26.9751 22.4413 26.7316 22.3411 26.5856 22.1907C26.196 21.8399 26.0986 21.3386 26.3421 21.0379C26.3908 20.9376 26.5369 20.8374 26.7316 20.8374Z" fill="#F28A1A"/>
<path d="M6 1.00098H40V-0.999023H6V1.00098ZM45 6.00098V26.001H47V6.00098H45ZM40 31.001H6V33.001H40V31.001ZM1 26.001V6.00098H-1V26.001H1ZM6 31.001C3.23858 31.001 1 28.7624 1 26.001H-1C-1 29.867 2.13401 33.001 6 33.001V31.001ZM45 26.001C45 28.7624 42.7614 31.001 40 31.001V33.001C43.866 33.001 47 29.867 47 26.001H45ZM40 1.00098C42.7614 1.00098 45 3.23955 45 6.00098H47C47 2.13498 43.866 -0.999023 40 -0.999023V1.00098ZM6 -0.999023C2.13401 -0.999023 -1 2.13498 -1 6.00098H1C1 3.23955 3.23858 1.00098 6 1.00098V-0.999023Z" fill="#F2F4F7"/>
</svg>
