<svg width="46" height="32" viewBox="0 0 46 32" fill="none" xmlns="http://www.w3.org/2000/svg">
<path d="M0 6.00098C0 2.68727 2.68629 0.000976562 6 0.000976562H40C43.3137 0.000976562 46 2.68727 46 6.00098V26.001C46 29.3147 43.3137 32.001 40 32.001H6C2.68629 32.001 0 29.3147 0 26.001V6.00098Z" fill="white"/>
<path fill-rule="evenodd" clip-rule="evenodd" d="M25.7894 15.3186H27.2736C27.7442 15.3011 28.0304 15.2639 28.1335 15.2054C28.2742 15.1256 28.3686 14.9659 28.4156 14.7264C28.4457 14.5669 28.4607 14.3298 28.4607 14.0149C28.4607 13.6291 28.4309 13.3432 28.3709 13.1564C28.2852 12.8947 28.0801 12.7354 27.7553 12.6775C27.6911 12.6688 27.5373 12.6641 27.2937 12.6641H25.7894V15.3186ZM23.4085 19.7898V10.668H27.8441C28.4525 10.668 28.9168 10.7192 29.2358 10.8216C29.9653 11.0573 30.4548 11.5399 30.7055 12.2693C30.8349 12.6521 30.8997 13.2284 30.8997 13.998C30.8997 14.9232 30.8279 15.5882 30.6859 15.993C30.4014 16.7936 29.8157 17.2547 28.9314 17.3743C28.8274 17.3922 28.3849 17.4082 27.604 17.4211L27.2087 17.4347H25.7893V19.7898H23.4085ZM11.4536 13.5778H13.6685C13.6828 13.3763 13.69 13.2255 13.69 13.1247C13.69 11.8956 13.2081 11.1476 12.2443 10.8806C11.8493 10.7713 11.1869 10.7162 10.2572 10.7162C9.66677 10.7162 9.12995 10.7385 8.64604 10.782C8.06447 10.8302 7.58668 10.9917 7.21332 11.2667C6.95843 11.4458 6.77373 11.7078 6.65911 12.0528C6.5446 12.3978 6.48729 12.8564 6.48729 13.4283C6.48729 14.1793 6.59333 14.7407 6.80528 15.1117C7.04643 15.5484 7.5297 15.836 8.25486 15.9759C8.53024 16.0245 9.02199 16.0746 9.72987 16.1267C10.6114 16.1879 11.1053 16.2362 11.2114 16.2708C11.4953 16.3585 11.6375 16.6028 11.6375 17.0044C11.6375 17.1837 11.6206 17.3302 11.5867 17.4434C11.5229 17.6273 11.3893 17.7603 11.1857 17.8428C11.0713 17.8869 10.8061 17.9088 10.3905 17.9088H9.5763C9.35951 17.9039 9.17513 17.8628 9.02242 17.7846C8.80209 17.6712 8.69165 17.4164 8.69165 17.0203L8.69144 16.8307H6.47656C6.47656 17.5729 6.52926 18.1031 6.63572 18.4215C6.82686 18.9934 7.22179 19.3732 7.82086 19.5607C8.30895 19.7137 9.17341 19.7898 10.4138 19.7898C11.1569 19.7898 11.7094 19.7548 12.0705 19.6846C12.9325 19.5187 13.4865 19.1237 13.7331 18.4984C13.8692 18.1575 13.9371 17.6197 13.9371 16.8853C13.9371 16.5667 13.9223 16.28 13.8925 16.0266C13.8415 15.603 13.6817 15.2599 13.4137 14.9974C13.0732 14.661 12.5244 14.4534 11.7673 14.3747C11.5289 14.3485 10.931 14.3023 9.9737 14.2368L9.52704 14.2043C9.33096 14.1912 9.17374 14.1475 9.05472 14.0731C8.88859 13.9683 8.80574 13.7496 8.80574 13.4175C8.80574 13.0507 8.89932 12.8124 9.08627 12.7029C9.27333 12.5936 9.65668 12.5391 10.2349 12.5391C10.8303 12.5391 11.1941 12.6339 11.3259 12.8234C11.4109 12.9514 11.4536 13.203 11.4536 13.5778ZM6.48496 21.5989L6.81701 21.5643C6.83697 21.6798 6.87754 21.7644 6.93861 21.8187C6.99978 21.8728 7.0822 21.8998 7.18598 21.8998C7.29588 21.8998 7.37862 21.8758 7.43443 21.8277C7.49013 21.7796 7.51792 21.7234 7.51792 21.659C7.51792 21.6177 7.50622 21.5826 7.48293 21.5535C7.45954 21.5245 7.41876 21.4994 7.36048 21.4778C7.32056 21.4638 7.22977 21.4385 7.088 21.4022C6.90544 21.3557 6.77752 21.2984 6.7039 21.2304C6.60044 21.1347 6.54871 21.0181 6.54871 20.8804C6.54871 20.792 6.57307 20.7091 6.6219 20.6321C6.67063 20.555 6.74103 20.4962 6.83279 20.4559C6.92465 20.4156 7.03552 20.3954 7.16537 20.3954C7.37744 20.3954 7.53702 20.4435 7.64424 20.5396C7.75145 20.6358 7.80769 20.764 7.81305 20.9245L7.47102 20.9383C7.45643 20.8487 7.42509 20.7843 7.37701 20.7449C7.32904 20.7056 7.25703 20.6859 7.16097 20.6859C7.06181 20.6859 6.98432 20.7069 6.9282 20.749C6.89203 20.7759 6.874 20.8119 6.874 20.8571C6.874 20.8984 6.89096 20.9336 6.92476 20.963C6.96769 21.0002 7.07211 21.039 7.23803 21.0792C7.40384 21.1195 7.52651 21.1612 7.60603 21.2046C7.68545 21.2478 7.74769 21.307 7.79266 21.3821C7.83752 21.4573 7.86006 21.5501 7.86006 21.6605C7.86006 21.7608 7.83312 21.8545 7.77925 21.9419C7.72537 22.0294 7.64928 22.0943 7.55087 22.1368C7.45246 22.1793 7.32979 22.2007 7.18287 22.2007C6.96908 22.2007 6.80488 22.1494 6.69027 22.047C6.57576 21.9445 6.50729 21.7952 6.48496 21.5989ZM8.21465 20.9072H8.53993V22.1695H8.21465V20.9072ZM8.21465 20.4265H8.53993V20.7344H8.21465V20.4265ZM9.73288 22.1695H10.0582V21.3834C10.0582 21.2858 10.0522 21.2108 10.0402 21.1584C10.0283 21.106 10.0072 21.0592 9.97682 21.0179C9.94645 20.9766 9.90169 20.9426 9.84256 20.9161C9.78343 20.8895 9.71807 20.8761 9.64659 20.8761C9.48454 20.8761 9.34996 20.9483 9.24317 21.0927V20.9072H8.94139V22.1695H9.26668V21.5966C9.26668 21.4551 9.27483 21.3583 9.29136 21.306C9.30778 21.2535 9.33815 21.2114 9.38258 21.1797C9.42701 21.1479 9.47713 21.132 9.53305 21.132C9.57662 21.132 9.61397 21.1432 9.64498 21.1653C9.676 21.1875 9.69832 21.2189 9.71216 21.2589C9.7259 21.299 9.73288 21.3873 9.73288 21.5239V22.1695ZM10.716 21.5111C10.716 21.6455 10.7409 21.7439 10.7909 21.8062C10.8408 21.8687 10.9024 21.8998 10.9757 21.8998C11.0542 21.8998 11.1205 21.8678 11.1747 21.8038C11.2288 21.7399 11.256 21.645 11.256 21.5194C11.256 21.3884 11.23 21.291 11.1781 21.2274C11.1262 21.1639 11.0607 21.132 10.9814 21.132C10.9044 21.132 10.8408 21.1633 10.7909 21.2256C10.7409 21.2881 10.716 21.3832 10.716 21.5111ZM10.4243 22.2525L10.7931 22.294C10.7994 22.341 10.8136 22.3733 10.836 22.391C10.8669 22.4163 10.9155 22.4289 10.9818 22.4289C11.0667 22.4289 11.1303 22.4158 11.1728 22.3897C11.2013 22.3722 11.223 22.3441 11.2377 22.3053C11.2476 22.2774 11.2527 22.2264 11.2527 22.1518L11.2537 21.9675C11.1577 22.1022 11.036 22.1695 10.8883 22.1695C10.7236 22.1695 10.5933 22.0978 10.4972 21.954C10.4217 21.8405 10.384 21.699 10.384 21.5299C10.384 21.3179 10.4334 21.156 10.5322 21.044C10.6311 20.9321 10.7541 20.8761 10.901 20.8761C11.0525 20.8761 11.1776 20.9449 11.2761 21.0821V20.9072H11.578V22.0419C11.578 22.1912 11.5661 22.3027 11.5421 22.3764C11.5183 22.4503 11.4848 22.5082 11.4417 22.5503C11.3985 22.5923 11.341 22.6253 11.269 22.6491C11.197 22.6729 11.106 22.6848 10.996 22.6848C10.7881 22.6848 10.6406 22.6479 10.5536 22.5741C10.4666 22.5002 10.4231 22.4066 10.4231 22.2932C10.4231 22.282 10.4235 22.2685 10.4243 22.2525ZM12.2928 20.4265H11.9675V22.1695H12.2928V20.4265ZM13.4254 21.4329C13.4231 21.3346 13.3988 21.26 13.3523 21.2088C13.3059 21.1577 13.2495 21.132 13.1829 21.132C13.1118 21.132 13.053 21.1591 13.0066 21.213C12.9601 21.2669 12.9374 21.3403 12.9381 21.4329H13.4254ZM13.4086 21.7719L13.7306 21.8272C13.689 21.9488 13.6232 22.0415 13.5333 22.1052C13.4435 22.1689 13.331 22.2007 13.1961 22.2007C12.9825 22.2007 12.8244 22.1286 12.7219 21.9847C12.6409 21.8693 12.6004 21.7238 12.6004 21.5479C12.6004 21.338 12.6535 21.1735 12.76 21.0545C12.8663 20.9356 13.0008 20.8761 13.1634 20.8761C13.3462 20.8761 13.4903 20.9385 13.5959 21.0633C13.7015 21.1882 13.752 21.3793 13.7473 21.637H12.9325C12.9347 21.7363 12.9611 21.8136 13.0116 21.8689C13.062 21.924 13.1249 21.9517 13.2002 21.9517C13.2514 21.9517 13.2946 21.9375 13.3294 21.9091C13.3643 21.8807 13.3908 21.8349 13.4086 21.7719ZM14.8117 20.4265V22.1695H16.0962V21.8755H15.1538V21.4018H15.9989V21.1079H15.1538V20.7205H16.0627V20.4265H14.8117ZM17.2589 22.1695V21.9804C17.2142 22.0478 17.1555 22.1014 17.0826 22.1411C17.0097 22.1807 16.9329 22.2007 16.852 22.2007C16.7694 22.2007 16.6956 22.182 16.63 22.1447C16.5646 22.1074 16.5171 22.0549 16.4878 21.9875C16.4585 21.92 16.4439 21.8267 16.4439 21.7076V20.9072H16.7692V21.4878C16.7692 21.6655 16.7751 21.7744 16.7871 21.8143C16.7991 21.8546 16.8207 21.8863 16.8523 21.9097C16.8838 21.9331 16.9238 21.9447 16.9723 21.9447C17.0276 21.9447 17.0773 21.9292 17.1211 21.8978C17.165 21.8665 17.195 21.8276 17.2112 21.7811C17.2273 21.7348 17.2354 21.6211 17.2354 21.4403V20.9072H17.5607V22.1695H17.2589ZM17.9503 22.1695H18.2756V21.7792C18.2756 21.5642 18.2847 21.4229 18.3028 21.3555C18.321 21.2881 18.3459 21.2415 18.3775 21.2157C18.4092 21.19 18.4477 21.177 18.4933 21.177C18.5403 21.177 18.5914 21.1953 18.6461 21.2317L18.7451 20.9394C18.6766 20.8973 18.6054 20.8761 18.5315 20.8761C18.4792 20.8761 18.4325 20.8901 18.3913 20.9179C18.3501 20.9457 18.3037 21.002 18.2521 21.0867V20.9072H17.9503V22.1695ZM19.2083 21.5384C19.2083 21.6642 19.2372 21.7604 19.295 21.8272C19.3529 21.894 19.4242 21.9275 19.509 21.9275C19.5938 21.9275 19.665 21.894 19.7224 21.8272C19.7798 21.7604 19.8086 21.6633 19.8086 21.536C19.8086 21.412 19.7798 21.3164 19.7224 21.2496C19.665 21.1828 19.5938 21.1494 19.509 21.1494C19.4242 21.1494 19.3529 21.1828 19.295 21.2496C19.2372 21.3164 19.2083 21.4128 19.2083 21.5384ZM18.8763 21.5204C18.8763 21.4091 18.9028 21.3013 18.9559 21.1971C19.0089 21.0929 19.0841 21.0134 19.1814 20.9585C19.2786 20.9036 19.3874 20.8761 19.5073 20.8761C19.6927 20.8761 19.8445 20.9383 19.963 21.0628C20.0814 21.1873 20.1406 21.3447 20.1406 21.5348C20.1406 21.7265 20.0808 21.8855 19.9612 22.0115C19.8416 22.1376 19.6911 22.2007 19.5096 22.2007C19.3973 22.2007 19.2902 22.1743 19.1884 22.122C19.0864 22.0694 19.0089 21.9925 18.9559 21.891C18.9028 21.7896 18.8763 21.6662 18.8763 21.5204ZM21.5419 21.2185V20.7206H21.7063C21.8291 20.7206 21.9107 20.7245 21.9513 20.7325C22.0065 20.7429 22.0521 20.7688 22.0882 20.8103C22.1242 20.8518 22.1423 20.9045 22.1423 20.9683C22.1423 21.0202 22.1294 21.0657 22.1037 21.1048C22.0781 21.144 22.0426 21.1727 21.9974 21.1911C21.9521 21.2095 21.8624 21.2185 21.7282 21.2185H21.5419ZM21.1999 20.4265V22.1695H21.5419V21.5125H21.7643C21.9185 21.5125 22.0363 21.5042 22.1178 21.4874C22.1777 21.4739 22.2366 21.4465 22.2946 21.4048C22.3525 21.3632 22.4004 21.3058 22.4379 21.233C22.4756 21.1599 22.4944 21.07 22.4944 20.963C22.4944 20.8242 22.4618 20.711 22.3964 20.6235C22.331 20.5358 22.25 20.4788 22.1532 20.4527C22.0902 20.4354 21.9549 20.4265 21.7474 20.4265H21.1999ZM23.5164 21.5644C23.4748 21.5788 23.4093 21.5958 23.3195 21.6157C23.2298 21.6355 23.1711 21.6551 23.1437 21.6741C23.1014 21.7052 23.0804 21.7446 23.0804 21.7923C23.0804 21.8394 23.0972 21.8799 23.1309 21.9142C23.1647 21.9484 23.2076 21.9655 23.2599 21.9655C23.3182 21.9655 23.3736 21.9456 23.4267 21.9059C23.4657 21.8756 23.4915 21.8386 23.5037 21.7948C23.5121 21.7661 23.5164 21.7115 23.5164 21.6311V21.5644ZM23.0805 21.2911L22.7887 21.2358C22.8217 21.1135 22.8786 21.0231 22.9593 20.9643C23.0401 20.9056 23.1601 20.8761 23.3193 20.8761C23.4638 20.8761 23.5716 20.8938 23.6423 20.929C23.713 20.9646 23.7629 21.0094 23.7917 21.0637C23.8206 21.118 23.8351 21.218 23.8351 21.3633L23.8317 21.7539C23.8317 21.865 23.8369 21.9471 23.8472 21.9998C23.8576 22.0526 23.877 22.1092 23.9055 22.1695H23.5835C23.5749 22.1477 23.5646 22.1152 23.5523 22.0723C23.5469 22.0527 23.543 22.0399 23.5409 22.0336C23.4855 22.0892 23.4264 22.1311 23.3634 22.159C23.3004 22.1867 23.2333 22.2007 23.1618 22.2007C23.0358 22.2007 22.9365 22.1653 22.8639 22.0947C22.7914 22.0239 22.7551 21.9345 22.7551 21.8265C22.7551 21.7551 22.7716 21.6914 22.8046 21.6354C22.8377 21.5794 22.8841 21.5365 22.9436 21.5067C23.0033 21.477 23.0893 21.4508 23.2015 21.4286C23.353 21.3992 23.4579 21.3719 23.5164 21.3465V21.3127C23.5164 21.2476 23.501 21.2013 23.4701 21.1735C23.439 21.1458 23.3808 21.132 23.2949 21.132C23.237 21.132 23.1918 21.1438 23.1593 21.1673C23.1267 21.1909 23.1004 21.2321 23.0805 21.2911ZM24.414 20.9072H24.0686L24.5353 22.173C24.516 22.2443 24.4882 22.303 24.4518 22.3493C24.4155 22.3953 24.3595 22.4184 24.2837 22.4184C24.2428 22.4184 24.1966 22.4134 24.1457 22.4028L24.1759 22.6646C24.2359 22.6781 24.2973 22.6848 24.3596 22.6848C24.4212 22.6848 24.4765 22.6781 24.5255 22.6645C24.5744 22.6511 24.6154 22.632 24.649 22.6078C24.6825 22.5837 24.7122 22.552 24.738 22.5132C24.7637 22.4742 24.7909 22.4179 24.8194 22.344L25.3296 20.9072H24.9942L24.7075 21.8034L24.414 20.9072ZM25.5832 20.9072H25.8817V21.0796C25.9889 20.944 26.1165 20.8761 26.2646 20.8761C26.3431 20.8761 26.4114 20.8927 26.4692 20.926C26.5271 20.9595 26.5745 21.0099 26.6114 21.0773C26.6653 21.0099 26.7236 20.9595 26.7858 20.926C26.8483 20.8927 26.9147 20.8761 26.9856 20.8761C27.0757 20.8761 27.1519 20.8949 27.2143 20.9328C27.2766 20.9703 27.3233 21.0258 27.3541 21.0989C27.3763 21.1528 27.3875 21.2401 27.3875 21.3608V22.1695H27.0622V21.4465C27.0622 21.321 27.051 21.2401 27.0288 21.2036C26.9988 21.1558 26.9527 21.132 26.8906 21.132C26.8452 21.132 26.8025 21.1463 26.7626 21.1749C26.7226 21.2036 26.6939 21.2454 26.6763 21.3006C26.6586 21.3558 26.6497 21.443 26.6497 21.562V22.1695H26.3244V21.4764C26.3244 21.3531 26.3187 21.2739 26.3071 21.238C26.2956 21.2023 26.2778 21.1757 26.2535 21.1582C26.2293 21.1408 26.1965 21.132 26.155 21.132C26.1051 21.132 26.0601 21.1459 26.0202 21.1737C25.9803 21.2015 25.9517 21.2417 25.9344 21.294C25.9171 21.3465 25.9085 21.4333 25.9085 21.5548V22.1695H25.5832V20.9072ZM28.4349 21.2088C28.4814 21.26 28.5057 21.3346 28.5081 21.4329H28.0208C28.0201 21.3403 28.0428 21.2669 28.0893 21.213C28.1355 21.1591 28.1945 21.132 28.2655 21.132C28.332 21.132 28.3886 21.1577 28.4349 21.2088ZM28.8133 21.8272L28.4913 21.7719C28.4735 21.8349 28.4471 21.8807 28.412 21.9091C28.3771 21.9375 28.3341 21.9517 28.2829 21.9517C28.2074 21.9517 28.1446 21.924 28.0942 21.8689C28.0438 21.8136 28.0174 21.7363 28.015 21.637H28.83C28.8346 21.3793 28.7841 21.1882 28.6785 21.0633C28.5729 20.9385 28.4288 20.8761 28.2461 20.8761C28.0834 20.8761 27.949 20.9356 27.8426 21.0545C27.7363 21.1735 27.683 21.338 27.683 21.5479C27.683 21.7238 27.7234 21.8693 27.8045 21.9847C27.9071 22.1286 28.0651 22.2007 28.2787 22.2007C28.4137 22.2007 28.5261 22.1689 28.616 22.1052C28.7058 22.0415 28.7715 21.9488 28.8133 21.8272ZM30.2777 22.1695H29.9524V21.5239C29.9524 21.3873 29.9454 21.299 29.9318 21.2589C29.9179 21.2189 29.8955 21.1875 29.8645 21.1653C29.8335 21.1432 29.7961 21.132 29.7525 21.132C29.6967 21.132 29.6465 21.1479 29.6022 21.1797C29.5577 21.2114 29.5274 21.2535 29.5108 21.306C29.4944 21.3583 29.4862 21.4551 29.4862 21.5966V22.1695H29.1609V20.9072H29.4627V21.0927C29.5696 20.9483 29.704 20.8761 29.8661 20.8761C29.9376 20.8761 30.003 20.8895 30.062 20.9161C30.1212 20.9426 30.166 20.9766 30.1964 21.0179C30.2268 21.0592 30.2478 21.106 30.2597 21.1584C30.2718 21.2108 30.2777 21.2858 30.2777 21.3834V22.1695ZM31.2375 21.1735V20.9072H31.0161V20.4577L30.6908 20.6548V20.9072H30.5432V21.1735H30.6908V21.7253C30.6908 21.8436 30.6941 21.9222 30.7011 21.9612C30.7095 22.016 30.7245 22.0595 30.7463 22.0916C30.7682 22.1238 30.8024 22.1501 30.849 22.1702C30.8957 22.1905 30.9479 22.2007 31.0062 22.2007C31.101 22.2007 31.1858 22.184 31.2609 22.1507L31.2324 21.8919C31.1764 21.9133 31.1339 21.924 31.1043 21.924C31.0831 21.924 31.0653 21.9184 31.0505 21.9073C31.0358 21.8961 31.0264 21.8821 31.0223 21.8649C31.0181 21.8479 31.0161 21.7876 31.0161 21.6842V21.1735H31.2375ZM31.4204 21.8133L31.7457 21.7614C31.7595 21.826 31.7875 21.8749 31.8297 21.9084C31.872 21.9419 31.931 21.9585 32.007 21.9585C32.0908 21.9585 32.1538 21.9426 32.196 21.9107C32.2244 21.8883 32.2387 21.8585 32.2387 21.8209C32.2387 21.7954 32.2309 21.7742 32.2154 21.7576C32.1991 21.7415 32.1628 21.7268 32.1064 21.7132C31.8435 21.6533 31.6769 21.5988 31.6067 21.5495C31.5092 21.4812 31.4606 21.3862 31.4606 21.2648C31.4606 21.155 31.5026 21.0628 31.5868 20.9882C31.6712 20.9135 31.8018 20.8761 31.9788 20.8761C32.1473 20.8761 32.2724 20.9041 32.3544 20.96C32.4363 21.016 32.4927 21.0987 32.5237 21.2081L32.2185 21.2669C32.2053 21.2179 32.1802 21.1801 32.1433 21.154C32.1063 21.1278 32.0536 21.1147 31.9852 21.1147C31.8989 21.1147 31.837 21.127 31.7997 21.1519C31.7747 21.1694 31.7624 21.1921 31.7624 21.22C31.7624 21.244 31.7731 21.2643 31.7948 21.2812C31.8241 21.3034 31.9255 21.3349 32.0989 21.3757C32.2722 21.4164 32.3932 21.4662 32.462 21.5252C32.5298 21.5849 32.564 21.6683 32.564 21.7751C32.564 21.8914 32.517 21.9914 32.4233 22.0751C32.3294 22.1588 32.1907 22.2007 32.007 22.2007C31.8403 22.2007 31.7083 22.1658 31.6111 22.0964C31.5138 22.0268 31.4503 21.9326 31.4204 21.8133ZM34.3075 20.8347L34.5438 21.4814H34.0791L34.3075 20.8347ZM34.8028 22.1695H35.1711L34.4886 20.4265H34.1288L33.474 22.1695H33.836L33.9753 21.7753H34.6566L34.8028 22.1695ZM35.7294 22.1695H35.4041V20.9072H35.7059V21.0867C35.7575 21.002 35.8038 20.9457 35.8451 20.9179C35.8862 20.8901 35.9329 20.8761 35.9854 20.8761C36.0592 20.8761 36.1304 20.8973 36.1989 20.9394L36.1 21.2317C36.0451 21.1953 35.9942 21.177 35.9472 21.177C35.9014 21.177 35.8629 21.19 35.8313 21.2157C35.7996 21.2415 35.7747 21.2881 35.7567 21.3555C35.7384 21.4229 35.7294 21.5642 35.7294 21.7792V22.1695ZM37.0653 21.2088C37.1116 21.26 37.136 21.3346 37.1384 21.4329H36.6511C36.6503 21.3403 36.6731 21.2669 36.7196 21.213C36.766 21.1591 36.8247 21.132 36.8959 21.132C36.9624 21.132 37.0188 21.1577 37.0653 21.2088ZM37.4435 21.8272L37.1216 21.7719C37.1037 21.8349 37.0773 21.8807 37.0424 21.9091C37.0074 21.9375 36.9644 21.9517 36.9131 21.9517C36.8378 21.9517 36.7749 21.924 36.7244 21.8689C36.6741 21.8136 36.6477 21.7363 36.6453 21.637H37.4603C37.4649 21.3793 37.4144 21.1882 37.3089 21.0633C37.2032 20.9385 37.059 20.8761 36.8764 20.8761C36.7138 20.8761 36.5792 20.9356 36.4729 21.0545C36.3665 21.1735 36.3133 21.338 36.3133 21.5479C36.3133 21.7238 36.3537 21.8693 36.4347 21.9847C36.5372 22.1286 36.6954 22.2007 36.9091 22.2007C37.044 22.2007 37.1565 22.1689 37.2463 22.1052C37.3361 22.0415 37.4019 21.9488 37.4435 21.8272ZM38.4686 21.5644C38.4272 21.5788 38.3615 21.5958 38.2718 21.6157C38.1821 21.6355 38.1235 21.6551 38.0959 21.6741C38.0536 21.7052 38.0327 21.7446 38.0327 21.7923C38.0327 21.8394 38.0494 21.8799 38.0833 21.9142C38.117 21.9484 38.1599 21.9655 38.2121 21.9655C38.2704 21.9655 38.3259 21.9456 38.3789 21.9059C38.418 21.8756 38.4437 21.8386 38.456 21.7948C38.4643 21.7661 38.4686 21.7115 38.4686 21.6311V21.5644ZM38.0327 21.2911L37.7409 21.2358C37.7739 21.1135 37.8308 21.0231 37.9115 20.9643C37.9923 20.9056 38.1123 20.8761 38.2715 20.8761C38.416 20.8761 38.5238 20.8938 38.5945 20.929C38.6652 20.9646 38.7151 21.0094 38.7439 21.0637C38.7727 21.118 38.7872 21.218 38.7872 21.3633L38.7839 21.7539C38.7839 21.865 38.7891 21.9471 38.7994 21.9998C38.8098 22.0526 38.8292 22.1092 38.8575 22.1695H38.5357C38.5271 22.1477 38.5169 22.1152 38.5044 22.0723C38.4992 22.0527 38.4952 22.0399 38.4931 22.0336C38.4377 22.0892 38.3787 22.1311 38.3157 22.159C38.2527 22.1867 38.1855 22.2007 38.114 22.2007C37.988 22.2007 37.8886 22.1653 37.8161 22.0947C37.7437 22.0239 37.7074 21.9345 37.7074 21.8265C37.7074 21.7551 37.7238 21.6914 37.7569 21.6354C37.7899 21.5794 37.8363 21.5365 37.8958 21.5067C37.9555 21.477 38.0415 21.4508 38.1537 21.4286C38.3051 21.3992 38.4101 21.3719 38.4686 21.3465V21.3127C38.4686 21.2476 38.4531 21.2013 38.4222 21.1735C38.3913 21.1458 38.3329 21.132 38.2471 21.132C38.1891 21.132 38.144 21.1438 38.1114 21.1673C38.079 21.1909 38.0526 21.2321 38.0327 21.2911ZM34.3933 12.4821L35.5088 16.4362H33.3107L34.3933 12.4821ZM32.7985 18.2133H35.9817L36.4359 19.7898H38.8474L36.1569 10.668H32.5655L29.9076 19.7898H32.3708L32.7985 18.2133Z" fill="#10298E"/>
<path fill-rule="evenodd" clip-rule="evenodd" d="M20.1226 11.9512C21.1045 11.9512 21.9809 12.4176 22.557 13.1482L23.0702 12.0136C22.2676 11.2313 21.1752 10.749 19.9703 10.749C18.0943 10.749 16.4895 11.9173 15.8309 13.5711H14.8302L14.2393 14.8774H15.5267C15.517 14.9985 15.5108 15.1198 15.5108 15.2436C15.5108 15.3933 15.5183 15.5412 15.5327 15.6874H14.8856L14.2948 16.9942H15.8616C16.539 18.6061 18.1237 19.7378 19.9703 19.7378C20.9008 19.7378 21.7643 19.4503 22.4793 18.9591V17.3577C21.9035 18.0336 21.0614 18.4608 20.1226 18.4608C19.0251 18.4608 18.0598 17.8773 17.4976 16.9942H20.7785L21.3693 15.6874H17.0149C16.9925 15.5302 16.9804 15.3695 16.9804 15.2058C16.9804 15.0952 16.986 14.9856 16.9963 14.8774H21.7355L22.3263 13.5711H17.4062C17.9503 12.6028 18.9629 11.9512 20.1226 11.9512Z" fill="#FFBE00"/>
<path d="M6 1.00098H40V-0.999023H6V1.00098ZM45 6.00098V26.001H47V6.00098H45ZM40 31.001H6V33.001H40V31.001ZM1 26.001V6.00098H-1V26.001H1ZM6 31.001C3.23858 31.001 1 28.7624 1 26.001H-1C-1 29.867 2.13401 33.001 6 33.001V31.001ZM45 26.001C45 28.7624 42.7614 31.001 40 31.001V33.001C43.866 33.001 47 29.867 47 26.001H45ZM40 1.00098C42.7614 1.00098 45 3.23955 45 6.00098H47C47 2.13498 43.866 -0.999023 40 -0.999023V1.00098ZM6 -0.999023C2.13401 -0.999023 -1 2.13498 -1 6.00098H1C1 3.23955 3.23858 1.00098 6 1.00098V-0.999023Z" fill="#F2F4F7"/>
</svg>
