<svg width="46" height="32" viewBox="0 0 46 32" fill="none" xmlns="http://www.w3.org/2000/svg">
<path d="M0 4.00098C0 1.79184 1.79086 0.000976562 4 0.000976562H42C44.2091 0.000976562 46 1.79184 46 4.00098V28.001C46 30.2101 44.2091 32.001 42 32.001H4C1.79086 32.001 0 30.2101 0 28.001V4.00098Z" fill="white"/>
<path fill-rule="evenodd" clip-rule="evenodd" d="M27.4621 13.0014C27.4621 12.449 27.8996 12.001 28.4384 12.001C28.9781 12.001 29.4153 12.449 29.4153 13.0014C29.4153 13.5541 28.9781 14.0012 28.4384 14.0012C27.8996 14.0012 27.4621 13.5541 27.4621 13.0014ZM30.2691 12.8191L32.2493 12.4562V20.2421H30.2691V12.8191ZM33.1614 12.8191V20.2421H35.1428V12.4562L33.1614 12.8191ZM27.4485 14.5473V20.2421H29.4296V14.5473H27.4485ZM23.5706 17.0385C23.5706 15.3658 24.5006 14.5243 26.331 14.4638C26.331 14.4638 26.6616 14.4508 26.8567 14.4934V16.158C25.6964 16.1989 25.5682 16.6281 25.5682 17.6292V20.2421H23.5706V17.0385ZM20.9563 14.5408L20.9462 14.5677C20.8753 14.7583 20.5525 15.6262 19.828 16.5235V12.4562L17.7835 12.8705V20.2421H19.828V17.9632C20.4201 18.8729 20.7126 20.2421 20.7126 20.2421H23.161C22.919 19.2109 21.8596 17.3098 21.8596 17.3098C22.8108 16.0745 23.228 14.7589 23.2946 14.5408H20.9563ZM13.5247 14.7631C13.5247 15.2976 14.1047 15.3362 14.355 15.3528C16.1911 15.4789 17.2854 16.3994 17.2854 17.8157C17.2854 19.0653 16.3069 20.3256 14.124 20.3256C13.1119 20.3256 12.2483 20.2236 11.4824 20.0173V18.1984C11.9938 18.4138 12.8365 18.64 13.7046 18.64C14.4968 18.64 14.968 18.3716 14.968 17.9154C14.968 17.3651 14.3966 17.3292 14.1775 17.3155L14.1751 17.3153C11.6182 17.1369 11.3428 15.5877 11.3428 14.9301C11.3428 13.788 12.1341 12.4562 14.3674 12.4562C15.6629 12.4562 16.3612 12.6632 16.9627 12.8786L16.9929 12.888V14.6546L16.9704 14.6481C16.7289 14.5434 16.4453 14.4408 16.4453 14.4408C15.9357 14.2845 15.2231 14.1181 14.6723 14.1181C14.3591 14.1181 13.5247 14.1181 13.5247 14.7631Z" fill="#862165"/>
<path d="M4 1.00098H42V-0.999023H4V1.00098ZM45 4.00098V28.001H47V4.00098H45ZM42 31.001H4V33.001H42V31.001ZM1 28.001V4.00098H-1V28.001H1ZM4 31.001C2.34315 31.001 1 29.6578 1 28.001H-1C-1 30.7624 1.23858 33.001 4 33.001V31.001ZM45 28.001C45 29.6578 43.6569 31.001 42 31.001V33.001C44.7614 33.001 47 30.7624 47 28.001H45ZM42 1.00098C43.6569 1.00098 45 2.34412 45 4.00098H47C47 1.23955 44.7614 -0.999023 42 -0.999023V1.00098ZM4 -0.999023C1.23858 -0.999023 -1 1.23955 -1 4.00098H1C1 2.34412 2.34315 1.00098 4 1.00098V-0.999023Z" fill="#F2F4F7"/>
</svg>
