<svg width="46" height="32" viewBox="0 0 46 32" fill="none" xmlns="http://www.w3.org/2000/svg">
<path d="M0 6.00098C0 2.68727 2.68629 0.000976562 6 0.000976562H40C43.3137 0.000976562 46 2.68727 46 6.00098V26.001C46 29.3147 43.3137 32.001 40 32.001H6C2.68629 32.001 0 29.3147 0 26.001V6.00098Z" fill="#F884A1"/>
<path fill-rule="evenodd" clip-rule="evenodd" d="M26.3791 12.5819L27.6323 6.1586C27.783 5.438 27.3684 4.71185 26.6738 4.50121C25.8984 4.30166 25.1176 4.76728 24.9183 5.5544L23.7829 9.55611L22.8879 5.61538C22.8179 5.24953 22.6025 4.92249 22.2956 4.71185C21.9886 4.50121 21.6063 4.42915 21.2455 4.50675C20.5348 4.66196 20.0717 5.5156 20.2494 6.29164L20.7775 10.7555C20.3187 10.2847 19.7829 10.1397 19.162 10.5099L19.0812 10.5654C18.5154 10.9621 18.4003 11.7727 18.7639 12.511C18.4629 12.5284 18.1687 12.6576 17.945 12.8935L17.8911 12.9545C17.3688 13.5088 17.4711 14.4456 18.1227 15.1163L18.652 15.6593C18.7115 18.1695 20.695 19.9277 23.0338 19.9277C23.0614 19.9277 23.0882 19.9238 23.1134 19.9165C26.2814 19.8839 27.6736 17.9415 27.9122 14.9943C27.9876 14.0631 27.8207 13.4256 27.4707 13.0431C27.2768 12.8325 27.0722 12.7327 26.9161 12.7106L26.3791 12.5819ZM25.8121 12.4461L27.0615 6.03665C27.1476 5.61538 26.9053 5.19964 26.5176 5.07769C26.0653 4.96129 25.6022 5.24399 25.4784 5.71515L24.0299 10.8259C23.9868 10.9866 23.8252 11.0753 23.6691 11.031C23.5451 10.9958 23.4652 10.8837 23.4592 10.7585L22.3171 5.73733C22.274 5.52114 22.1502 5.33268 21.9725 5.21073C21.7948 5.08878 21.574 5.04998 21.364 5.09432C20.9871 5.17747 20.7071 5.69852 20.8202 6.16414L20.8255 6.1974L21.4782 11.7361L21.8887 12.3668C22.068 12.1106 22.3265 11.951 22.6352 11.8791C22.8937 11.8237 23.1575 11.8292 23.4106 11.8735C23.4737 11.8828 23.5217 11.896 23.5483 11.9033C23.5535 11.9047 23.5579 11.9059 23.5614 11.9068L25.8121 12.4461ZM21.6307 13.0474L20.9879 12.0599C20.966 12.0361 20.9479 12.0085 20.9347 11.9782L20.632 11.5133C20.2605 10.9534 19.8997 10.7594 19.4689 11.0144L19.4097 11.0587C19.0758 11.2971 19.0328 11.8625 19.3774 12.4057L20.6482 14.3513C20.8743 14.695 21.3267 14.7837 21.6605 14.5509L21.7251 14.5121C21.8144 14.452 21.8884 14.3693 21.9414 14.2742C21.6222 13.9378 21.5433 13.5218 21.6307 13.0474ZM22.5292 14.0166C22.496 13.9644 22.4464 13.9227 22.3853 13.8994C22.1425 13.659 22.1329 13.3587 22.2475 12.9655C22.3336 12.6773 22.5006 12.5276 22.7644 12.4667C22.9367 12.4279 23.1252 12.4334 23.3083 12.4667C23.3289 12.4709 23.3471 12.4743 23.3626 12.4772C23.3878 12.482 23.406 12.4854 23.416 12.4888L26.8084 13.3037L26.873 13.3258C26.9268 13.348 26.9861 13.3924 27.0453 13.4533C27.2715 13.7028 27.4007 14.1739 27.3361 14.95C27.1153 17.6661 25.8876 19.3512 22.969 19.3235C22.9527 19.3235 22.9366 19.3248 22.921 19.3275C21.1521 19.2789 19.6558 18.09 19.3082 16.3326L19.7435 16.7792C20.2658 17.2947 21.0897 17.2836 21.5958 16.7515L21.6551 16.6905C22.0568 16.259 22.1256 15.6234 21.8646 15.1206C21.9032 15.0992 21.9411 15.0756 21.9782 15.0498L22.0428 15.0054C22.1892 14.9028 22.3121 14.7706 22.4065 14.6184C22.603 14.7238 22.8394 14.8163 23.1198 14.8945L23.9329 15.0885C23.3298 15.4378 22.9529 16.0863 22.9098 17.0785C22.899 17.2448 23.0229 17.3834 23.1844 17.3945C23.346 17.4 23.4806 17.2781 23.4914 17.1118C23.5344 16.2138 23.8737 15.7315 24.4175 15.5209C24.7083 15.41 25.026 15.3879 25.306 15.4156L25.376 15.4267C25.7476 15.4987 25.866 14.9278 25.4945 14.8391L23.2598 14.3236C22.9373 14.2329 22.6989 14.1321 22.5292 14.0166ZM18.365 13.3148C18.5885 13.074 18.9524 13.045 19.2148 13.2327L20.1636 14.6895C20.4238 15.0808 20.8453 15.2882 21.2713 15.2805C21.5038 15.5708 21.4913 16.0002 21.2297 16.2748L21.1758 16.3358C20.8958 16.6295 20.4381 16.6351 20.1527 16.3468L18.5373 14.7005C18.0904 14.2405 18.0311 13.6751 18.3111 13.3757L18.365 13.3148ZM16.2111 25.5539C16.2111 26.4796 15.5111 27.1115 14.5957 27.1115C13.9549 27.1115 13.4056 26.8122 13.0664 26.3355L13.6964 25.687C13.8849 25.9364 14.1972 26.208 14.6064 26.208C14.9888 26.208 15.2526 25.9752 15.2526 25.5983C15.2526 25.1992 14.9403 25.0994 14.4503 24.9553C13.551 24.6837 13.1849 24.2014 13.1849 23.575C13.1849 22.7879 13.7664 22.1117 14.6818 22.1117C15.258 22.1117 15.7911 22.3888 16.028 22.9265L15.2688 23.4198C15.1234 23.1759 14.9241 23.0152 14.6549 23.0152C14.3372 23.0152 14.138 23.2369 14.138 23.5196C14.138 23.8577 14.4287 23.9631 14.8918 24.1016C15.6188 24.3234 16.2111 24.6948 16.2111 25.5539ZM16.5394 25.3433C16.5394 26.3134 17.3256 27.1116 18.2948 27.1116C19.2641 27.1116 20.0502 26.3134 20.0502 25.3433C20.0502 24.3733 19.2641 23.5751 18.2948 23.5751C17.3256 23.5751 16.5394 24.3733 16.5394 25.3433ZM18.2946 26.2247C18.7631 26.2247 19.1346 25.8422 19.1346 25.3433C19.1346 24.8444 18.7631 24.462 18.2946 24.462C17.8207 24.462 17.4546 24.8444 17.4546 25.3433C17.4546 25.8477 17.8261 26.2247 18.2946 26.2247ZM22.3172 22.1727V23.0596C21.8056 23.0374 21.4341 23.3035 21.4341 23.891V24.2513C21.6387 24.0296 21.9295 23.9187 22.2903 23.9187V24.8167C21.7841 24.8278 21.4341 25.1604 21.4341 25.626V27.0229H20.5187V23.8356C20.5187 22.9376 21.0679 22.1727 22.1826 22.1727H22.3172ZM24.3149 27.1116C23.3457 27.1116 22.5595 26.3134 22.5595 25.3433C22.5595 24.3733 23.3457 23.5751 24.3149 23.5751C25.2842 23.5751 26.0704 24.3733 26.0704 25.3433C26.0704 26.3134 25.2842 27.1116 24.3149 27.1116ZM25.1549 25.3433C25.1549 25.8422 24.7887 26.2247 24.3149 26.2247C23.8464 26.2247 23.4749 25.8477 23.4749 25.3433C23.4749 24.8444 23.8464 24.462 24.3149 24.462C24.7833 24.462 25.1549 24.8444 25.1549 25.3433ZM27.4542 24.0518V23.6693H26.5657V27.0229H27.4811V25.493C27.4811 24.9387 27.7988 24.6282 28.3481 24.6282V23.6194C27.9334 23.6028 27.6373 23.7469 27.4542 24.0518ZM29.7912 24.4897V25.3101C29.7912 25.8976 30.1628 26.1582 30.6743 26.1415V27.0284H30.5397C29.4197 27.0284 28.8758 26.2635 28.8758 25.3655V22.5939H29.7912V23.1205C29.7912 23.5751 30.152 23.9187 30.6474 23.9298V24.8223C30.2813 24.8223 29.9959 24.7114 29.7912 24.4897ZM31.7674 27.0783C32.1013 27.0783 32.3813 26.7956 32.3813 26.4464C32.3813 26.1027 32.1067 25.8145 31.7674 25.8145C31.4282 25.8145 31.1536 26.0972 31.1536 26.4464C31.1536 26.7956 31.4282 27.0783 31.7674 27.0783Z" fill="white"/>
<path d="M6 1.00098H40V-0.999023H6V1.00098ZM45 6.00098V26.001H47V6.00098H45ZM40 31.001H6V33.001H40V31.001ZM1 26.001V6.00098H-1V26.001H1ZM6 31.001C3.23858 31.001 1 28.7624 1 26.001H-1C-1 29.867 2.13401 33.001 6 33.001V31.001ZM45 26.001C45 28.7624 42.7614 31.001 40 31.001V33.001C43.866 33.001 47 29.867 47 26.001H45ZM40 1.00098C42.7614 1.00098 45 3.23955 45 6.00098H47C47 2.13498 43.866 -0.999023 40 -0.999023V1.00098ZM6 -0.999023C2.13401 -0.999023 -1 2.13498 -1 6.00098H1C1 3.23955 3.23858 1.00098 6 1.00098V-0.999023Z" fill="#F2F4F7"/>
</svg>
