<svg width="46" height="32" viewBox="0 0 46 32" fill="none" xmlns="http://www.w3.org/2000/svg">
<path d="M0 4.00098C0 1.79184 1.79086 0.000976562 4 0.000976562H42C44.2091 0.000976562 46 1.79184 46 4.00098V28.001C46 30.2101 44.2091 32.001 42 32.001H4C1.79086 32.001 0 30.2101 0 28.001V4.00098Z" fill="white"/>
<path fill-rule="evenodd" clip-rule="evenodd" d="M24.3579 10.8569L22.055 11.3656V9.44367L24.3579 8.94434V10.8569ZM29.1469 11.9215C28.2478 11.9215 27.6698 12.3549 27.3487 12.6564L27.2294 12.0722H25.211V23.0576L27.5046 22.5582L27.5138 19.892C27.8441 20.1369 28.3304 20.4855 29.1377 20.4855C30.78 20.4855 32.2754 19.1288 32.2754 16.1423C32.2663 13.4101 30.7525 11.9215 29.1469 11.9215ZM28.5964 18.4128C28.0551 18.4128 27.734 18.215 27.5138 17.97L27.5046 14.4747C27.7432 14.2015 28.0735 14.013 28.5964 14.013C29.4313 14.013 30.0093 14.974 30.0093 16.2082C30.0093 17.4707 29.4405 18.4128 28.5964 18.4128ZM39.5051 16.2365C39.5051 13.8246 38.3675 11.9215 36.1931 11.9215C34.0095 11.9215 32.6884 13.8246 32.6884 16.2176C32.6884 19.0535 34.2481 20.4855 36.4867 20.4855C37.5785 20.4855 38.4042 20.2311 39.0281 19.8731V17.9889C38.4042 18.3092 37.6886 18.507 36.7803 18.507C35.8903 18.507 35.1013 18.1867 35.0004 17.075H39.4868C39.4868 17.0231 39.4901 16.9051 39.4939 16.7692C39.499 16.5845 39.5051 16.3667 39.5051 16.2365ZM34.9728 15.3414C34.9728 14.2768 35.6059 13.834 36.1839 13.834C36.7435 13.834 37.3399 14.2768 37.3399 15.3414H34.9728ZM22.0549 12.0817H24.3577V20.3254H22.0549V12.0817ZM19.4404 12.0817L19.5871 12.7788C20.1284 11.7613 21.2019 11.9686 21.4955 12.0817V14.2486C21.2111 14.1449 20.2936 14.013 19.7523 14.7385V20.3254H17.4586V12.0817H19.4404ZM14.9997 10.0372L12.7611 10.5271L12.7519 18.0736C12.7519 19.468 13.7703 20.4949 15.1281 20.4949C15.8805 20.4949 16.4309 20.3536 16.7337 20.184V18.2715C16.4401 18.394 14.9905 18.8273 14.9905 17.433V14.0884H16.7337V12.0816H14.9905L14.9997 10.0372ZM9.57759 13.9659C9.09134 13.9659 8.79775 14.1073 8.79775 14.4747C8.79775 14.8759 9.30302 15.0524 9.92986 15.2713C10.9518 15.6282 12.2968 16.098 12.3025 17.8381C12.3025 19.5246 10.9905 20.495 9.08216 20.495C8.29314 20.495 7.43073 20.3348 6.57748 19.9579V17.7157C7.34815 18.149 8.32067 18.4694 9.08216 18.4694C9.59594 18.4694 9.96293 18.328 9.96293 17.8947C9.96293 17.4503 9.41521 17.2472 8.75395 17.0019C7.74691 16.6285 6.47656 16.1574 6.47656 14.5878C6.47656 12.9202 7.71514 11.9215 9.57759 11.9215C10.3391 11.9215 11.0914 12.044 11.8529 12.3549V14.5689C11.1556 14.1826 10.2749 13.9659 9.57759 13.9659Z" fill="#6461FC"/>
<path d="M4 1.00098H42V-0.999023H4V1.00098ZM45 4.00098V28.001H47V4.00098H45ZM42 31.001H4V33.001H42V31.001ZM1 28.001V4.00098H-1V28.001H1ZM4 31.001C2.34315 31.001 1 29.6578 1 28.001H-1C-1 30.7624 1.23858 33.001 4 33.001V31.001ZM45 28.001C45 29.6578 43.6569 31.001 42 31.001V33.001C44.7614 33.001 47 30.7624 47 28.001H45ZM42 1.00098C43.6569 1.00098 45 2.34412 45 4.00098H47C47 1.23955 44.7614 -0.999023 42 -0.999023V1.00098ZM4 -0.999023C1.23858 -0.999023 -1 1.23955 -1 4.00098H1C1 2.34412 2.34315 1.00098 4 1.00098V-0.999023Z" fill="#F2F4F7"/>
</svg>
