<svg width="46" height="32" viewBox="0 0 46 32" fill="none" xmlns="http://www.w3.org/2000/svg">
<path d="M0 4.00098C0 1.79184 1.79086 0.000976562 4 0.000976562H42C44.2091 0.000976562 46 1.79184 46 4.00098V28.001C46 30.2101 44.2091 32.001 42 32.001H4C1.79086 32.001 0 30.2101 0 28.001V4.00098Z" fill="white"/>
<path fill-rule="evenodd" clip-rule="evenodd" d="M19.4528 13.7412H20.9283L21.1655 12.5265H19.6897L19.4528 13.7412ZM19.2997 14.5224H20.7756L19.8381 19.3184C19.7696 19.3427 19.5584 19.428 19.2667 19.428C18.873 19.428 18.5118 19.272 18.5118 18.7192C18.5118 18.6152 18.5236 18.4968 18.55 18.3623C18.8432 16.8657 19.2997 14.5224 19.2997 14.5224ZM33.9534 14.4129C32.9712 14.4129 32.5807 14.9974 32.3974 15.3532H32.38L32.4367 14.5235H30.9783C30.9687 14.7059 30.9056 15.2811 30.8121 15.7772C30.8121 15.7772 30.4753 17.518 30.4116 17.8513C30.3631 18.1059 30.2743 18.4823 30.2743 18.7008C30.2743 19.1659 30.5065 19.4281 31.0246 19.4281C31.3152 19.4281 31.5247 19.3473 31.601 19.3184L32.0887 16.8207C32.2239 16.1311 32.7149 15.6797 33.2985 15.6797C33.7695 15.6797 33.9946 16.0287 33.9946 16.314C33.9946 16.5623 33.9333 16.8375 33.8858 17.0809L33.6761 18.1505C33.6511 18.2789 33.5977 18.5255 33.5977 18.719C33.5977 19.1918 33.8601 19.4281 34.3585 19.4281C34.6306 19.4281 34.8031 19.359 34.9253 19.3184L35.363 17.0794C35.4578 16.5733 35.4929 16.3068 35.4929 15.9848C35.4929 15.0576 34.9592 14.4129 33.9534 14.4129ZM27.3982 15.5726C26.5733 15.5726 26.1164 16.4294 26.1164 17.1932C26.1164 17.8374 26.4028 18.2688 27.0537 18.2688C27.7895 18.2688 28.3654 17.6326 28.3654 16.5467C28.3654 16.0498 28.1051 15.5726 27.3982 15.5726ZM26.9631 19.4282C25.383 19.4282 24.627 18.4654 24.627 17.2381C24.627 15.5541 25.7649 14.4129 27.5235 14.4129C29.0493 14.4129 29.8595 15.3516 29.8595 16.5572C29.8595 18.3637 28.644 19.4282 26.9631 19.4282ZM21.437 18.2734C21.4034 18.446 21.3821 18.567 21.3821 18.7156C21.3821 19.2653 21.7438 19.4281 22.127 19.4281C22.4335 19.4281 22.6232 19.3429 22.6926 19.3184L23.4021 15.683L24.5495 15.6829L24.776 14.5224L23.6288 14.5226L23.6845 14.2368C23.7883 13.7008 24.0366 13.4651 24.466 13.4651C24.7528 13.4651 24.9848 13.5169 25.0654 13.5383L25.2814 12.4348C25.1893 12.4112 24.7653 12.3057 24.1378 12.3057C23.1378 12.3057 22.4827 12.9228 22.289 13.9167L22.1704 14.5224H21.4234L21.1967 15.6829H21.9442C21.9442 15.6829 21.6494 17.186 21.437 18.2734ZM18.0398 14.413C17.2991 14.413 16.8917 14.9356 16.7324 15.3525H16.7154L16.7724 14.5224H15.3134C15.3005 14.8102 15.2413 15.2966 15.0926 16.0615C14.942 16.8365 14.7952 17.6097 14.6436 18.3621C14.6177 18.4908 14.6061 18.6166 14.6061 18.7231C14.6061 19.1172 14.7978 19.4277 15.3641 19.4277C15.6446 19.4277 15.8395 19.3537 15.933 19.3184L16.367 17.0951C16.5234 16.2444 16.8074 15.682 17.6314 15.682C18.0062 15.682 18.3623 15.7633 18.4369 15.7855L18.6867 14.5063C18.6328 14.4873 18.4164 14.413 18.0398 14.413ZM39.4445 16.4663C39.5235 16.0266 39.2718 15.5726 38.7029 15.5726C38.0081 15.5726 37.703 16.0549 37.5668 16.4663H39.4445ZM40.103 18.251C40.103 18.918 39.4674 19.4295 38.3418 19.4295C36.7862 19.4295 36.0256 18.4448 36.0256 17.2393C36.0256 16.0428 36.8072 14.4142 38.7151 14.4142C39.9731 14.4142 40.9137 15.0492 40.9137 16.5031C40.9137 16.8607 40.8353 17.2493 40.8017 17.405H37.4578C37.4523 17.7539 37.7416 18.3585 38.9039 18.3585C39.4219 18.3585 40.0085 18.1725 40.103 18.1251C40.103 18.1614 40.103 18.2269 40.103 18.251ZM12.7803 16.4663C12.8592 16.0266 12.6075 15.5726 12.0385 15.5726C11.3438 15.5726 11.0388 16.0549 10.9025 16.4663H12.7803ZM13.4388 18.251C13.4388 18.918 12.8032 19.4295 11.6778 19.4295C10.1221 19.4295 9.36155 18.4448 9.36155 17.2393C9.36155 16.0428 10.1431 14.4142 12.0511 14.4142C13.3091 14.4142 14.2497 15.0492 14.2497 16.5031C14.2497 16.8607 14.1713 17.2493 14.1375 17.405H10.7938C10.7883 17.7539 11.0775 18.3585 12.2398 18.3585C12.7578 18.3585 13.3443 18.1725 13.4388 18.1251C13.4388 18.1614 13.4388 18.2269 13.4388 18.251ZM4.57129 12.8906H6.05586V17.6591C6.05586 18.3762 6.40707 18.7422 6.9709 18.7422C7.0284 18.7422 7.0623 18.7348 7.07348 18.732C6.82634 19.1121 6.50593 19.4238 5.77022 19.4238C4.9918 19.4238 4.57129 18.8747 4.57129 18.0506V12.8906Z" fill="#1A1919"/>
<path fill-rule="evenodd" clip-rule="evenodd" d="M6.62373 16.9223C6.52312 17.0819 6.46973 17.2668 6.46973 17.4555V17.6671C6.46973 18.1506 6.72668 18.3238 7.00722 18.3238C7.29398 18.3238 7.44748 18.1262 7.58831 17.9015C7.82427 17.5254 10.7077 12.8906 10.7077 12.8906H9.16466L6.62373 16.9223Z" fill="#00A3DA"/>
<path d="M4 1.00098H42V-0.999023H4V1.00098ZM45 4.00098V28.001H47V4.00098H45ZM42 31.001H4V33.001H42V31.001ZM1 28.001V4.00098H-1V28.001H1ZM4 31.001C2.34315 31.001 1 29.6578 1 28.001H-1C-1 30.7624 1.23858 33.001 4 33.001V31.001ZM45 28.001C45 29.6578 43.6569 31.001 42 31.001V33.001C44.7614 33.001 47 30.7624 47 28.001H45ZM42 1.00098C43.6569 1.00098 45 2.34412 45 4.00098H47C47 1.23955 44.7614 -0.999023 42 -0.999023V1.00098ZM4 -0.999023C1.23858 -0.999023 -1 1.23955 -1 4.00098H1C1 2.34412 2.34315 1.00098 4 1.00098V-0.999023Z" fill="#F2F4F7"/>
</svg>
