<svg width="46" height="32" viewBox="0 0 46 32" fill="none" xmlns="http://www.w3.org/2000/svg">
<path d="M0 4.00098C0 1.79184 1.79086 0.000976562 4 0.000976562H42C44.2091 0.000976562 46 1.79184 46 4.00098V28.001C46 30.2101 44.2091 32.001 42 32.001H4C1.79086 32.001 0 30.2101 0 28.001V4.00098Z" fill="white"/>
<path d="M20.2534 18.4758C20.1628 18.524 20.0608 18.5519 19.9523 18.5519C19.7013 18.5519 19.4831 18.4064 19.3686 18.191L19.3247 18.0899L17.4972 13.8637C17.4775 13.8178 17.4653 13.7658 17.4653 13.7152C17.4653 13.5204 17.6152 13.3626 17.8 13.3626C17.8749 13.3626 17.9444 13.3888 18.0002 13.4325L20.1567 15.0507C20.3142 15.1592 20.5025 15.2229 20.7049 15.2229C20.8257 15.2229 20.9408 15.1992 21.0482 15.158L31.1896 10.4013C29.3718 8.14358 26.3779 6.66797 22.9901 6.66797C17.4461 6.66797 12.9521 10.6147 12.9521 15.4836C12.9521 18.1397 14.3042 20.5308 16.4205 22.147C16.5903 22.2747 16.7015 22.4846 16.7015 22.7215C16.7015 22.7998 16.6855 22.8713 16.6661 22.946C16.497 23.6104 16.2265 24.6745 16.214 24.7244C16.1928 24.8077 16.1599 24.8949 16.1599 24.9821C16.1599 25.1769 16.3096 25.3346 16.4947 25.3346C16.5672 25.3346 16.6266 25.3062 16.6879 25.269L18.8854 23.9319C19.0508 23.8315 19.2257 23.7691 19.4186 23.7691C19.5212 23.7691 19.6203 23.7859 19.7135 23.8159C20.7387 24.1267 21.8448 24.2993 22.9901 24.2993C28.5338 24.2993 33.0283 20.3523 33.0283 15.4836C33.0283 14.0089 32.6136 12.6201 31.8848 11.3983L20.3269 18.4311L20.2534 18.4758Z" fill="#1AAD19"/>
<path d="M4 1.00098H42V-0.999023H4V1.00098ZM45 4.00098V28.001H47V4.00098H45ZM42 31.001H4V33.001H42V31.001ZM1 28.001V4.00098H-1V28.001H1ZM4 31.001C2.34315 31.001 1 29.6578 1 28.001H-1C-1 30.7624 1.23858 33.001 4 33.001V31.001ZM45 28.001C45 29.6578 43.6569 31.001 42 31.001V33.001C44.7614 33.001 47 30.7624 47 28.001H45ZM42 1.00098C43.6569 1.00098 45 2.34412 45 4.00098H47C47 1.23955 44.7614 -0.999023 42 -0.999023V1.00098ZM4 -0.999023C1.23858 -0.999023 -1 1.23955 -1 4.00098H1C1 2.34412 2.34315 1.00098 4 1.00098V-0.999023Z" fill="#F2F4F7"/>
</svg>
