<svg width="35" height="24" viewBox="0 0 35 24" fill="none" xmlns="http://www.w3.org/2000/svg">
<rect y="0.000976562" width="35" height="24" rx="2" fill="white"/>
<mask id="mask0_636_25083" style="mask-type:alpha" maskUnits="userSpaceOnUse" x="0" y="0" width="35" height="25">
<rect y="0.000976562" width="35" height="24" rx="2" fill="white"/>
</mask>
<g mask="url(#mask0_636_25083)">
<rect x="16.667" y="0.000976562" width="18.3333" height="24" fill="#1AB11F"/>
<path fill-rule="evenodd" clip-rule="evenodd" d="M0 24.001H11.6667V0.000976562H0V24.001Z" fill="#262626"/>
<path fill-rule="evenodd" clip-rule="evenodd" d="M11.667 24.001H23.3337V0.000976562H11.667V24.001Z" fill="#DC0D18"/>
<path opacity="0.75" d="M14.8337 11.2012C14.8337 10.833 14.5352 10.5345 14.167 10.5345C13.7988 10.5345 13.5003 10.833 13.5003 11.2012H14.8337ZM15.5054 14.5534C15.8271 14.7325 16.2331 14.617 16.4122 14.2954C16.5914 13.9737 16.4759 13.5677 16.1543 13.3885L15.5054 14.5534ZM18.9451 13.3308C18.6313 13.5235 18.5331 13.934 18.7258 14.2478C18.9184 14.5615 19.3289 14.6597 19.6427 14.4671L18.9451 13.3308ZM21.5003 11.2012C21.5003 10.833 21.2018 10.5345 20.8337 10.5345C20.4655 10.5345 20.167 10.833 20.167 11.2012H21.5003ZM13.5003 11.2012C13.5003 12.6449 14.317 13.8914 15.5054 14.5534L16.1543 13.3885C15.3542 12.9429 14.8337 12.1233 14.8337 11.2012H13.5003ZM19.6427 14.4671C20.7504 13.7869 21.5003 12.5842 21.5003 11.2012H20.167C20.167 12.085 19.6892 12.8739 18.9451 13.3308L19.6427 14.4671Z" fill="white"/>
<path fill-rule="evenodd" clip-rule="evenodd" d="M17.4997 12.801C18.4202 12.801 19.1663 11.7265 19.1663 10.401C19.1663 9.07549 18.4202 8.00098 17.4997 8.00098C16.5792 8.00098 15.833 9.07549 15.833 10.401C15.833 11.7265 16.5792 12.801 17.4997 12.801Z" fill="white" fill-opacity="0.5"/>
</g>
</svg>
