<svg width="35" height="24" viewBox="0 0 35 24" fill="none" xmlns="http://www.w3.org/2000/svg">
<mask id="mask0_636_25093" style="mask-type:alpha" maskUnits="userSpaceOnUse" x="0" y="0" width="35" height="25">
<rect y="0.000976562" width="35" height="24" rx="2" fill="white"/>
</mask>
<g mask="url(#mask0_636_25093)">
<rect y="0.000976562" width="35" height="24" fill="#EE343C"/>
<path fill-rule="evenodd" clip-rule="evenodd" d="M15.3791 5.16442C15.1569 4.9511 14.8175 4.91779 14.5581 5.08383L13.5079 5.75592C13.0681 6.03743 13.108 6.69246 13.5788 6.91845L15.4555 7.81926C15.6866 7.9302 15.8337 8.16388 15.8337 8.42027V8.93411C15.8337 9.3023 15.5352 9.60078 15.167 9.60078H14.3187C14.2188 9.60078 14.1203 9.57834 14.0302 9.53513L11.2504 8.20081C10.9997 8.0805 10.7008 8.12836 10.5002 8.3209L9.86061 8.93491C9.52492 9.25717 9.6143 9.81549 10.0338 10.0169L11.4218 10.6831C11.8927 10.9091 11.9326 11.5641 11.4927 11.8456L11.4082 11.8997C10.9008 12.2245 11.0502 13.0024 11.6419 13.116L12.6476 13.3091C13.222 13.4193 13.3861 14.163 12.9114 14.5048L12.1365 15.0627C11.7285 15.3565 11.9363 16.0008 12.4391 16.0008V16.0008C12.4798 16.0008 12.5203 15.996 12.5599 15.9865L14.1901 15.5952C14.7656 15.4571 15.2071 16.103 14.8695 16.5891V16.5891C14.5729 17.0163 14.8786 17.6008 15.3987 17.6008H16.1928C16.4767 17.6008 16.7294 17.7806 16.8225 18.0488L16.8705 18.187C17.0779 18.7843 17.9227 18.7843 18.1301 18.187L18.1781 18.0488C18.2712 17.7806 18.524 17.6008 18.8079 17.6008H19.602C20.1221 17.6008 20.4278 17.0163 20.1311 16.5891V16.5891C19.7935 16.103 20.2351 15.4571 20.8106 15.5952L22.4407 15.9865C22.4803 15.996 22.5209 16.0008 22.5616 16.0008V16.0008C23.0643 16.0008 23.2722 15.3565 22.8642 15.0627L22.0892 14.5048C21.6146 14.163 21.7787 13.4193 22.3531 13.3091L23.3588 13.116C23.9504 13.0024 24.0999 12.2245 23.5924 11.8997L23.5079 11.8456C23.0681 11.5641 23.108 10.9091 23.5788 10.6831L24.9668 10.0169C25.3864 9.81549 25.4757 9.25717 25.14 8.93491L24.5004 8.3209C24.2999 8.12836 24.0009 8.0805 23.7503 8.20081L20.9704 9.53513C20.8804 9.57834 20.7818 9.60078 20.6819 9.60078H19.8337C19.4655 9.60078 19.167 9.3023 19.167 8.93411V8.42027C19.167 8.16388 19.3135 7.93043 19.5447 7.81948C20.1171 7.54475 20.8365 7.1994 21.4223 6.91823C21.8931 6.69224 21.9326 6.03743 21.4927 5.75592L20.4426 5.08383C20.1832 4.91779 19.8437 4.9511 19.6215 5.16442L17.962 6.75756C17.704 7.00522 17.2966 7.00522 17.0386 6.75756L15.3791 5.16442Z" fill="#262626"/>
</g>
</svg>
