<svg width="35" height="24" viewBox="0 0 35 24" fill="none" xmlns="http://www.w3.org/2000/svg">
<rect y="0.000976562" width="35" height="24" rx="2" fill="white"/>
<mask id="mask0_636_25113" style="mask-type:alpha" maskUnits="userSpaceOnUse" x="0" y="0" width="35" height="25">
<rect y="0.000976562" width="35" height="24" rx="2" fill="white"/>
</mask>
<g mask="url(#mask0_636_25113)">
<rect y="0.000976562" width="35" height="24" fill="url(#paint0_linear_636_25113)"/>
<g filter="url(#filter0_d_636_25113)">
<path fill-rule="evenodd" clip-rule="evenodd" d="M0 24.0008H35V12.8008H0V24.0008Z" fill="#262626"/>
</g>
<g filter="url(#filter1_d_636_25113)">
<path fill-rule="evenodd" clip-rule="evenodd" d="M0 12.801H35V0.000976562H0V12.801Z" fill="#DD2137"/>
</g>
<g filter="url(#filter2_d_636_25113)">
<path fill-rule="evenodd" clip-rule="evenodd" d="M20.247 13.8643C20.455 13.5142 20.62 13.1331 20.7338 12.7256C21.4485 10.1649 19.8656 7.53291 17.1982 6.84679C16.7537 6.73244 16.2967 6.98571 16.1776 7.41248C16.0585 7.83925 16.3223 8.27792 16.7669 8.39228C18.5451 8.84969 19.6004 10.6044 19.1239 12.3115C19.0585 12.5458 18.9676 12.7671 18.8549 12.9733L16.2954 11.3352C15.9125 11.0902 15.3951 11.1895 15.1398 11.5571C14.8845 11.9247 14.988 12.4214 15.3709 12.6665L17.7175 14.1683C16.9532 14.6437 15.9903 14.8183 15.0414 14.5742C14.5969 14.4598 14.1399 14.7131 14.0208 15.1399C13.9017 15.5667 14.1655 16.0053 14.61 16.1197C16.2765 16.5483 17.9719 16.1161 19.184 15.1069L20.3709 15.8665C20.7538 16.1116 21.2712 16.0123 21.5265 15.6446C21.7818 15.277 21.6783 14.7803 21.2954 14.5352L20.247 13.8643ZM15.8332 10.4009C16.2934 10.4009 16.6665 10.0427 16.6665 9.60088C16.6665 9.15905 16.2934 8.80088 15.8332 8.80088C15.3729 8.80088 14.9998 9.15905 14.9998 9.60088C14.9998 10.0427 15.3729 10.4009 15.8332 10.4009Z" fill="#F8D84B"/>
</g>
</g>
<defs>
<filter id="filter0_d_636_25113" x="0" y="12.8008" width="35" height="11.2002" filterUnits="userSpaceOnUse" color-interpolation-filters="sRGB">
<feFlood flood-opacity="0" result="BackgroundImageFix"/>
<feColorMatrix in="SourceAlpha" type="matrix" values="0 0 0 0 0 0 0 0 0 0 0 0 0 0 0 0 0 0 127 0" result="hardAlpha"/>
<feOffset/>
<feColorMatrix type="matrix" values="0 0 0 0 0 0 0 0 0 0 0 0 0 0 0 0 0 0 0.06 0"/>
<feBlend mode="normal" in2="BackgroundImageFix" result="effect1_dropShadow_636_25113"/>
<feBlend mode="normal" in="SourceGraphic" in2="effect1_dropShadow_636_25113" result="shape"/>
</filter>
<filter id="filter1_d_636_25113" x="0" y="0.000976562" width="35" height="12.7998" filterUnits="userSpaceOnUse" color-interpolation-filters="sRGB">
<feFlood flood-opacity="0" result="BackgroundImageFix"/>
<feColorMatrix in="SourceAlpha" type="matrix" values="0 0 0 0 0 0 0 0 0 0 0 0 0 0 0 0 0 0 127 0" result="hardAlpha"/>
<feOffset/>
<feColorMatrix type="matrix" values="0 0 0 0 0 0 0 0 0 0 0 0 0 0 0 0 0 0 0.06 0"/>
<feBlend mode="normal" in2="BackgroundImageFix" result="effect1_dropShadow_636_25113"/>
<feBlend mode="normal" in="SourceGraphic" in2="effect1_dropShadow_636_25113" result="shape"/>
</filter>
<filter id="filter2_d_636_25113" x="13.9922" y="6.81934" width="7.6748" height="10.4653" filterUnits="userSpaceOnUse" color-interpolation-filters="sRGB">
<feFlood flood-opacity="0" result="BackgroundImageFix"/>
<feColorMatrix in="SourceAlpha" type="matrix" values="0 0 0 0 0 0 0 0 0 0 0 0 0 0 0 0 0 0 127 0" result="hardAlpha"/>
<feOffset dy="1"/>
<feColorMatrix type="matrix" values="0 0 0 0 0 0 0 0 0 0 0 0 0 0 0 0 0 0 0.06 0"/>
<feBlend mode="normal" in2="BackgroundImageFix" result="effect1_dropShadow_636_25113"/>
<feBlend mode="normal" in="SourceGraphic" in2="effect1_dropShadow_636_25113" result="shape"/>
</filter>
<linearGradient id="paint0_linear_636_25113" x1="0" y1="0.000976562" x2="0" y2="24.001" gradientUnits="userSpaceOnUse">
<stop stop-color="#FF323E"/>
<stop offset="1" stop-color="#FD0D1B"/>
</linearGradient>
</defs>
</svg>
