<svg width="35" height="24" viewBox="0 0 35 24" fill="none" xmlns="http://www.w3.org/2000/svg">
<rect y="0.000976562" width="35" height="24" rx="2" fill="white"/>
<mask id="mask0_636_25264" style="mask-type:alpha" maskUnits="userSpaceOnUse" x="0" y="0" width="35" height="25">
<rect y="0.000976562" width="35" height="24" rx="2" fill="white"/>
</mask>
<g mask="url(#mask0_636_25264)">
<path fill-rule="evenodd" clip-rule="evenodd" d="M0 16.001H35V0.000976562H0V16.001Z" fill="#E54252"/>
<path fill-rule="evenodd" clip-rule="evenodd" d="M0 24.001H35V16.001H0V24.001Z" fill="#5CBE6B"/>
<path fill-rule="evenodd" clip-rule="evenodd" d="M0 0.000976562H5V3.60098L4.16667 4.80098L5 6.00098V8.40098L4.16667 9.60098L5 10.801V13.201L4.16667 14.401L5 15.601V18.001L4.16667 19.201L5 20.401V24.001H0V0.000976562Z" fill="white"/>
<path fill-rule="evenodd" clip-rule="evenodd" d="M-0.833333 2.40088L-2.5 4.80088L-0.833333 7.20088L-2.5 9.60088L-0.833333 12.0009L-2.5 14.4009L-0.833333 16.8009L-2.5 19.2009L-0.833333 21.6009L0.833333 19.2009L-0.833333 16.8009L0.833333 14.4009L-0.833333 12.0009L0.833333 9.60088L-0.833333 7.20088L0.833333 4.80088L-0.833333 2.40088Z" fill="#E54252"/>
<path fill-rule="evenodd" clip-rule="evenodd" d="M0.833008 2.40098L2.49967 0.000976562L4.16634 2.40098L2.49967 4.80098L0.833008 2.40098ZM2.49967 9.60098L0.833008 7.20098L2.49967 4.80098L4.16634 7.20098L2.49967 9.60098ZM2.49967 14.401L0.833008 12.001L2.49967 9.60098L4.16634 12.001L2.49967 14.401ZM2.49967 19.201L4.16634 16.801L2.49967 14.401L0.833008 16.801L2.49967 19.201ZM2.49967 19.201L4.16634 21.601L2.49967 24.001L0.833008 21.601L2.49967 19.201Z" fill="#E54252"/>
</g>
</svg>
