<svg width="35" height="24" viewBox="0 0 35 24" fill="none" xmlns="http://www.w3.org/2000/svg">
<rect x="0.25" y="0.250977" width="34.5" height="23.5" rx="1.75" fill="white" stroke="#F5F5F5" stroke-width="0.5"/>
<mask id="mask0_636_25357" style="mask-type:alpha" maskUnits="userSpaceOnUse" x="0" y="0" width="35" height="25">
<rect x="0.25" y="0.250977" width="34.5" height="23.5" rx="1.75" fill="white" stroke="white" stroke-width="0.5"/>
</mask>
<g mask="url(#mask0_636_25357)">
<rect x="25" y="0.000976562" width="10" height="24" fill="#FF3131"/>
<path fill-rule="evenodd" clip-rule="evenodd" d="M0 24.001H10V0.000976562H0V24.001Z" fill="#FF3131"/>
<path fill-rule="evenodd" clip-rule="evenodd" d="M19.9438 11.2552C19.7074 11.4821 19.3198 11.2675 19.3866 10.9467L20.0003 8.00088L18.3337 8.80088L17.5003 6.40088L16.667 8.80088L15.0003 8.00088L15.614 10.9467C15.6809 11.2675 15.2932 11.4821 15.0569 11.2552L14.3978 10.6225C14.2688 10.4987 14.0651 10.4987 13.9361 10.6225L13.3337 11.2009L11.667 10.4009L12.5003 12.0009L11.9175 12.5604C11.7808 12.6916 11.7808 12.9102 11.9175 13.0413L14.167 15.2009H16.667L17.0837 17.6009H17.917L18.3337 15.2009H20.8337L23.0832 13.0413C23.2198 12.9102 23.2198 12.6916 23.0832 12.5604L22.5003 12.0009L23.3337 10.4009L21.667 11.2009L21.0645 10.6225C20.9355 10.4987 20.7318 10.4987 20.6028 10.6225L19.9438 11.2552Z" fill="#FF3131"/>
</g>
</svg>
