<svg width="35" height="25" viewBox="0 0 35 25" fill="none" xmlns="http://www.w3.org/2000/svg">
<rect y="0.500977" width="35" height="24" rx="2" fill="white"/>
<mask id="mask0_636_26990" style="mask-type:alpha" maskUnits="userSpaceOnUse" x="0" y="0" width="35" height="25">
<rect y="0.500977" width="35" height="24" rx="2" fill="white"/>
</mask>
<g mask="url(#mask0_636_26990)">
<rect y="0.500977" width="35" height="24" fill="#19BFBF"/>
<path fill-rule="evenodd" clip-rule="evenodd" d="M10.0303 7.07586C10.0114 6.96665 10.0479 6.85515 10.1279 6.77838L13.2366 3.79404C13.2987 3.73445 13.3814 3.70117 13.4674 3.70117H15.6311C15.7554 3.70117 15.8693 3.77031 15.9267 3.88053L16.5733 5.12182C16.6307 5.23204 16.7446 5.30117 16.8689 5.30117H19.7978C19.9221 5.30117 20.036 5.37031 20.0934 5.48053L22.4066 9.92182C22.464 10.032 22.5779 10.1012 22.7022 10.1012H24.3166C24.5943 10.1012 24.7502 10.4209 24.5793 10.6397L22.5188 13.2771C22.5063 13.2931 22.4953 13.3103 22.4859 13.3283L21.7044 14.8288C21.6796 14.8763 21.6667 14.9292 21.6667 14.9828V16.4196C21.6667 16.4732 21.6537 16.526 21.629 16.5735L20.8333 18.1012L20 19.7012L19.2601 21.1218C19.2027 21.232 19.0887 21.3012 18.9644 21.3012H17.7022C17.5779 21.3012 17.464 21.232 17.4066 21.1218L16.7044 19.7735C16.6796 19.726 16.6667 19.6732 16.6667 19.6196V15.0432C16.6667 14.9525 16.6297 14.8656 16.5642 14.8028L15.8911 14.1566C15.8531 14.1202 15.8243 14.0752 15.8071 14.0255L15.0778 11.9252C15.0312 11.7911 14.9048 11.7012 14.7629 11.7012H11.1138C10.9517 11.7012 10.8131 11.5846 10.7854 11.4249L10.0303 7.07586Z" fill="white"/>
<path fill-rule="evenodd" clip-rule="evenodd" d="M23.333 16.8343C23.333 16.6502 23.4822 16.501 23.6663 16.501H24.6663C24.8504 16.501 24.9997 16.6502 24.9997 16.8343V18.0194C24.9997 18.073 24.9867 18.1258 24.962 18.1734L24.2598 19.5216C24.2023 19.6318 24.0884 19.701 23.9641 19.701H23.6663C23.4822 19.701 23.333 19.5517 23.333 19.3676V16.8343Z" fill="white"/>
</g>
</svg>
