<svg width="35" height="25" viewBox="0 0 35 25" fill="none" xmlns="http://www.w3.org/2000/svg">
<rect y="0.500977" width="35" height="24" rx="2" fill="white"/>
<mask id="mask0_636_26996" style="mask-type:alpha" maskUnits="userSpaceOnUse" x="0" y="0" width="35" height="25">
<rect y="0.500977" width="35" height="24" rx="2" fill="white"/>
</mask>
<g mask="url(#mask0_636_26996)">
<rect y="0.500977" width="35" height="24" fill="#19BFBF"/>
<path fill-rule="evenodd" clip-rule="evenodd" d="M21.4355 21.8796L20.0574 20.5566C20.0195 20.5202 19.9907 20.4752 19.9734 20.4255L19.2441 18.3252C19.1976 18.1911 19.0712 18.1012 18.9292 18.1012H18.7643C18.5461 18.1012 18.3867 18.3073 18.4417 18.5185L19.1171 21.112C19.1475 21.2288 19.1124 21.3529 19.0254 21.4365L18.5639 21.8796C18.4349 22.0034 18.2312 22.0034 18.1022 21.8796L17.6022 21.3996C17.5367 21.3367 17.4997 21.2499 17.4997 21.1591V19.7828C17.4997 19.7292 17.4867 19.6763 17.462 19.6288L16.7598 18.2805C16.7023 18.1703 16.5884 18.1012 16.4641 18.1012H14.2422C14.1923 18.1012 14.143 18.1124 14.098 18.134L12.6248 18.8411C12.5447 18.8796 12.4833 18.9484 12.4541 19.0323L11.7119 21.1701C11.6827 21.254 11.6213 21.3228 11.5412 21.3612L10.1439 22.0319C10.0527 22.0757 9.94661 22.0757 9.85543 22.0319L8.5221 21.3919C8.40653 21.3365 8.33301 21.2196 8.33301 21.0914V18.4345C8.33301 18.2504 8.48225 18.1012 8.66634 18.1012H10.4997C10.6838 18.1012 10.833 17.9519 10.833 17.7678V16.5574C10.833 16.5202 10.8392 16.4832 10.8514 16.4481L11.5886 14.3252C11.6351 14.1911 11.7615 14.1012 11.9035 14.1012H13.2572C13.3071 14.1012 13.3564 14.09 13.4014 14.0683L14.9313 13.334C14.9763 13.3124 15.0256 13.3012 15.0755 13.3012H16.333C16.5171 13.3012 16.6663 13.1519 16.6663 12.9678V12.6432C16.6663 12.5525 16.7034 12.4656 16.7688 12.4028L17.1787 12.0093C17.3391 11.8553 17.6025 11.8986 17.7052 12.0958L18.2396 13.1218C18.297 13.232 18.411 13.3012 18.5352 13.3012H20.5959C20.7378 13.3012 20.8642 13.2113 20.9108 13.0772L21.5886 11.1252C21.6351 10.9911 21.7615 10.9012 21.9035 10.9012H22.9997C23.1838 10.9012 23.333 10.7519 23.333 10.5678V10.4345C23.333 10.2504 23.1838 10.1012 22.9997 10.1012H21.9997C21.8156 10.1012 21.6663 9.95193 21.6663 9.76784V8.58277C21.6663 8.52916 21.6793 8.47634 21.704 8.4288L22.3843 7.12266C22.4527 6.99138 22.4263 6.83073 22.3195 6.72822L21.8972 6.32278C21.7682 6.19895 21.5645 6.19895 21.4355 6.32278L20.1022 7.60278C20.0367 7.66564 19.9997 7.75248 19.9997 7.84324V9.24495C19.9997 9.28217 19.9934 9.31912 19.9812 9.35428L19.2441 11.4772C19.1976 11.6113 19.0712 11.7012 18.9292 11.7012H18.4671C18.3811 11.7012 18.2983 11.6679 18.2363 11.6083L17.6022 10.9996C17.5367 10.9367 17.4997 10.8499 17.4997 10.7591V10.6309C17.4997 10.3855 17.2434 10.2242 17.0221 10.3304L16.0414 10.8012C15.916 10.8613 15.7666 10.8374 15.6663 10.7411L15.1022 10.1996C15.0367 10.1367 14.9997 10.0499 14.9997 9.9591V8.64324C14.9997 8.55248 15.0367 8.46564 15.1022 8.40278L16.6663 6.90117L19.1106 4.55465C19.1473 4.51946 19.1915 4.49312 19.2399 4.47764L21.6168 3.71703C21.6496 3.70652 21.6839 3.70117 21.7184 3.70117H23.1308C23.2551 3.70117 23.369 3.77031 23.4264 3.88053L24.1286 5.2288C24.1534 5.27634 24.1663 5.32916 24.1663 5.38277V7.5591C24.1663 7.64986 24.2034 7.7367 24.2688 7.79956L24.8455 8.35321C24.9395 8.44338 24.9723 8.58 24.9296 8.70301L24.2526 10.6528C24.202 10.7985 24.2579 10.9598 24.3878 11.0429L26.6663 12.5012L27.9803 13.1319C28.1653 13.2207 28.2269 13.454 28.1099 13.6225L26.7259 15.6154C26.6871 15.6713 26.6663 15.7376 26.6663 15.8056V17.8579C26.6663 18.0028 26.5727 18.1311 26.4346 18.1753L24.297 18.8594C24.2133 18.8861 24.1436 18.9449 24.103 19.0229L23.3583 20.4526C23.3415 20.4848 23.3197 20.514 23.2935 20.5391L21.8972 21.8796C21.7682 22.0034 21.5645 22.0034 21.4355 21.8796ZM14.1663 21.3012C14.6266 21.3012 14.9997 20.943 14.9997 20.5012C14.9997 20.0593 14.6266 19.7012 14.1663 19.7012C13.7061 19.7012 13.333 20.0593 13.333 20.5012C13.333 20.943 13.7061 21.3012 14.1663 21.3012ZM11.6663 10.9012C11.6663 11.343 11.2932 11.7012 10.833 11.7012C10.3728 11.7012 9.99967 11.343 9.99967 10.9012C9.99967 10.4593 10.3728 10.1012 10.833 10.1012C11.2932 10.1012 11.6663 10.4593 11.6663 10.9012Z" fill="white"/>
<path fill-rule="evenodd" clip-rule="evenodd" d="M12.4626 10.9734C12.4874 10.9258 12.5003 10.873 12.5003 10.8194V10.1826C12.5003 10.129 12.4874 10.0761 12.4626 10.0286L11.9208 8.98829C11.8052 8.76638 11.9662 8.50098 12.2164 8.50098H13.0003C13.1844 8.50098 13.3337 8.65022 13.3337 8.83431V10.8194C13.3337 10.873 13.3466 10.9258 13.3714 10.9734L13.9132 12.0137C14.0288 12.2356 13.8678 12.501 13.6175 12.501H12.2164C11.9662 12.501 11.8052 12.2356 11.9208 12.0137L12.4626 10.9734Z" fill="white"/>
</g>
</svg>
