<svg width="35" height="24" viewBox="0 0 35 24" fill="none" xmlns="http://www.w3.org/2000/svg">
<rect x="0.25" y="0.250977" width="34.5" height="23.5" rx="1.75" fill="white" stroke="#F5F5F5" stroke-width="0.5"/>
<mask id="mask0_636_25349" style="mask-type:alpha" maskUnits="userSpaceOnUse" x="0" y="0" width="35" height="25">
<rect x="0.25" y="0.250977" width="34.5" height="23.5" rx="1.75" fill="white" stroke="white" stroke-width="0.5"/>
</mask>
<g mask="url(#mask0_636_25349)">
<path fill-rule="evenodd" clip-rule="evenodd" d="M0 6.40098H35V0.000976562H0V6.40098Z" fill="#083D96"/>
<path fill-rule="evenodd" clip-rule="evenodd" d="M0 17.6012H35V11.2012H0V17.6012Z" fill="#37AE39"/>
<path fill-rule="evenodd" clip-rule="evenodd" d="M0 24.0011H35V17.6011H0V24.0011Z" fill="#FFD13F"/>
<path fill-rule="evenodd" clip-rule="evenodd" d="M13.333 24.001H21.6663V0.000976562H13.333V24.001Z" fill="#E42346"/>
<path fill-rule="evenodd" clip-rule="evenodd" d="M5.83301 4.13678L4.36354 5.14242L4.90573 3.49002L3.45537 2.45914L5.25992 2.44354L5.83301 0.800781L6.4061 2.44354L8.21065 2.45914L6.76029 3.49002L7.30247 5.14242L5.83301 4.13678Z" fill="#FFD03B"/>
</g>
</svg>
