<svg width="35" height="25" viewBox="0 0 35 25" fill="none" xmlns="http://www.w3.org/2000/svg">
<rect y="0.500977" width="35" height="24" rx="2" fill="white"/>
<mask id="mask0_636_26980" style="mask-type:alpha" maskUnits="userSpaceOnUse" x="0" y="0" width="35" height="25">
<rect y="0.500977" width="35" height="24" rx="2" fill="white"/>
</mask>
<g mask="url(#mask0_636_26980)">
<rect y="0.500977" width="35" height="24" fill="#19BFBF"/>
<path fill-rule="evenodd" clip-rule="evenodd" d="M16.6667 18.1012L15.9267 16.6805C15.8693 16.5703 15.7554 16.5012 15.6311 16.5012H15.1341C15.0481 16.5012 14.9653 16.4679 14.9033 16.4083L11.7692 13.3996C11.7037 13.3367 11.6667 13.2499 11.6667 13.1591V11.8432C11.6667 11.7525 11.6297 11.6656 11.5642 11.6028L10.068 10.1664C10.0235 10.1238 9.99178 10.0696 9.97625 10.01L9.2129 7.07872C9.18412 6.96818 9.10072 6.88007 8.99192 6.84525L6.66667 6.10117L5.18909 5.39193C5.07352 5.33646 5 5.21962 5 5.09143V4.03451C5 3.85041 5.14924 3.70117 5.33333 3.70117H6.53256C6.61861 3.70117 6.70133 3.73445 6.76341 3.79404L7.40326 4.4083C7.46534 4.46789 7.54805 4.50117 7.6341 4.50117H9.03256C9.11861 4.50117 9.20133 4.46789 9.26341 4.4083L9.90326 3.79404C9.96534 3.73445 10.0481 3.70117 10.1341 3.70117H13.2575C13.3074 3.70117 13.3567 3.71239 13.4017 3.734L14.9316 4.46835C14.9766 4.48995 15.0259 4.50117 15.0759 4.50117H16.5908C16.6407 4.50117 16.69 4.48995 16.7351 4.46835L18.2649 3.734C18.31 3.71239 18.3593 3.70117 18.4092 3.70117H21.3333C21.5174 3.70117 21.6667 3.85041 21.6667 4.03451V4.96784C21.6667 5.15193 21.5174 5.30117 21.3333 5.30117H20.3333C20.1492 5.30117 20 5.45041 20 5.63451V7.49143C20 7.61962 20.0735 7.73646 20.1891 7.79193L21.1891 8.27193C21.4104 8.37815 21.6667 8.21688 21.6667 7.97143V6.4345C21.6667 6.25041 21.8159 6.10117 22 6.10117H23.8333C24.0174 6.10117 24.1667 6.25041 24.1667 6.4345V6.56784C24.1667 6.75193 24.3159 6.90117 24.5 6.90117H26.3333C26.5174 6.90117 26.6667 7.05041 26.6667 7.23451V8.44495C26.6667 8.48217 26.6604 8.51912 26.6482 8.55429L25.8596 10.8255C25.8423 10.8752 25.8135 10.9202 25.7756 10.9566L23.3728 13.2633C23.3467 13.2884 23.3248 13.3176 23.308 13.3497L22.5377 14.8288C22.5129 14.8763 22.5 14.9292 22.5 14.9828V16.1678C22.5 16.3519 22.3508 16.5012 22.1667 16.5012H21.8689C21.7446 16.5012 21.6307 16.432 21.5733 16.3218L20.9267 15.0805C20.8693 14.9703 20.7554 14.9012 20.6311 14.9012H18.5356C18.4113 14.9012 18.2973 14.9703 18.2399 15.0805L17.5802 16.3472C17.5299 16.4437 17.5299 16.5587 17.5802 16.6551L18.2399 17.9218C18.2973 18.032 18.4113 18.1012 18.5356 18.1012H19.8659C19.9519 18.1012 20.0347 18.1344 20.0967 18.194L21.5642 19.6028C21.6297 19.6656 21.6667 19.7525 21.6667 19.8432V20.9678C21.6667 21.1519 21.5174 21.3012 21.3333 21.3012H20.2022C20.0779 21.3012 19.964 21.232 19.9066 21.1218L19.2601 19.8805C19.2027 19.7703 19.0887 19.7012 18.9644 19.7012H17.7022C17.5779 19.7012 17.464 19.632 17.4066 19.5218L16.6667 18.1012Z" fill="white"/>
</g>
</svg>
