<svg width="35" height="24" viewBox="0 0 35 24" fill="none" xmlns="http://www.w3.org/2000/svg">
<rect y="0.000976562" width="35" height="24" rx="2" fill="white"/>
<mask id="mask0_636_26436" style="mask-type:alpha" maskUnits="userSpaceOnUse" x="0" y="0" width="35" height="25">
<rect y="0.000976562" width="35" height="24" rx="2" fill="white"/>
</mask>
<g mask="url(#mask0_636_26436)">
<rect y="0.000976562" width="35" height="24" fill="#FF2936"/>
<path fill-rule="evenodd" clip-rule="evenodd" d="M0 24.001H13.3333V0.000976562H0V24.001Z" fill="#128415"/>
<path d="M13.3333 15.8674C15.5166 15.8674 17.3333 14.1617 17.3333 12.0008C17.3333 9.83989 15.5166 8.13411 13.3333 8.13411C11.1501 8.13411 9.33333 9.83989 9.33333 12.0008C9.33333 14.1617 11.1501 15.8674 13.3333 15.8674Z" stroke="#FAF94F" stroke-width="1.33333"/>
<path fill-rule="evenodd" clip-rule="evenodd" d="M11.667 9.93392C11.667 9.74982 11.8162 9.60059 12.0003 9.60059H14.667C14.8511 9.60059 15.0003 9.74982 15.0003 9.93392V13.0673C15.0003 13.8036 14.4034 14.4006 13.667 14.4006H13.0003C12.2639 14.4006 11.667 13.8036 11.667 13.0673V9.93392Z" fill="white"/>
<path fill-rule="evenodd" clip-rule="evenodd" d="M13.3333 12.8014C13.7936 12.8014 14.1667 11.6432 14.1667 11.2014C14.1667 10.7595 13.7936 10.4014 13.3333 10.4014C12.8731 10.4014 12.5 10.7595 12.5 11.2014C12.5 11.6432 12.8731 12.8014 13.3333 12.8014Z" fill="#1D50B5"/>
</g>
</svg>
