<svg width="35" height="24" viewBox="0 0 35 24" fill="none" xmlns="http://www.w3.org/2000/svg">
<rect x="0.25" y="0.250977" width="34.5" height="23.5" rx="1.75" fill="white" stroke="#F5F5F5" stroke-width="0.5"/>
<mask id="mask0_636_26810" style="mask-type:alpha" maskUnits="userSpaceOnUse" x="0" y="0" width="35" height="25">
<rect x="0.25" y="0.250977" width="34.5" height="23.5" rx="1.75" fill="white" stroke="white" stroke-width="0.5"/>
</mask>
<g mask="url(#mask0_636_26810)">
<path fill-rule="evenodd" clip-rule="evenodd" d="M35 3.20117H16.6667V6.40117H35V3.20117ZM16.6667 9.60117V12.8012H35V9.60117H16.6667ZM16.6667 16.0012H0V19.2012H35V16.0012H16.6667ZM0 24.0012V22.4012H35V24.0012H0Z" fill="#0E4DC5"/>
<path fill-rule="evenodd" clip-rule="evenodd" d="M8.33301 11.1868L7.2204 12.7812L6.93858 10.8813L5.21556 11.8543L5.82034 10.0252L3.82816 10.1842L5.19976 8.78807L3.33301 8.10153L5.19976 7.41499L3.82816 6.01889L5.82034 6.17789L5.21556 4.34874L6.93858 5.32179L7.2204 3.42188L8.33301 5.01625L9.44561 3.42188L9.72744 5.32179L11.4505 4.34874L10.8457 6.17789L12.8379 6.01889L11.4663 7.41499L13.333 8.10153L11.4663 8.78807L12.8379 10.1842L10.8457 10.0252L11.4505 11.8543L9.72744 10.8813L9.44561 12.7812L8.33301 11.1868ZM8.33301 11.1561C10.0903 11.1561 11.5148 9.78851 11.5148 8.10153C11.5148 6.41455 10.0903 5.04698 8.33301 5.04698C6.57574 5.04698 5.15119 6.41455 5.15119 8.10153C5.15119 9.78851 6.57574 11.1561 8.33301 11.1561ZM10.833 8.00124C10.833 9.32672 9.71372 10.4012 8.33301 10.4012C6.9523 10.4012 5.83301 9.32672 5.83301 8.00124C5.83301 6.67576 6.9523 5.60124 8.33301 5.60124C9.71372 5.60124 10.833 6.67576 10.833 8.00124Z" fill="#FED443"/>
</g>
</svg>
