<svg width="35" height="24" viewBox="0 0 35 24" fill="none" xmlns="http://www.w3.org/2000/svg">
<rect y="0.000976562" width="35" height="24" rx="2" fill="#D01129"/>
<mask id="mask0_636_27126" style="mask-type:alpha" maskUnits="userSpaceOnUse" x="0" y="0" width="35" height="25">
<rect y="0.000976562" width="35" height="24" rx="2" fill="white"/>
</mask>
<g mask="url(#mask0_636_27126)">
<path fill-rule="evenodd" clip-rule="evenodd" d="M17.36 12.0506C18.1862 12.0506 18.856 11.3756 18.856 10.543C18.856 9.71024 18.1862 9.03516 17.36 9.03516C16.5339 9.03516 15.8643 9.71024 15.8643 10.543C15.8643 11.3756 16.5339 12.0506 17.36 12.0506Z" fill="#FFF101"/>
<path fill-rule="evenodd" clip-rule="evenodd" d="M15.9967 9.93613C16.4204 9.79991 16.97 9.95844 17.3316 10.3082C17.7155 10.2378 18.1004 9.75191 18.2196 9.31932C18.0886 7.88181 17.1557 6.79279 16.872 6.04548C16.7823 5.8093 16.3663 5.43792 15.9338 5.61084C15.5782 5.75308 15.3983 5.6424 14.2039 6.24291C13.558 6.56761 13.0144 6.90112 12.7279 6.95924C12.4413 7.01737 12.139 7.06919 11.9097 6.8882C11.5945 6.63924 11.2409 6.5704 11.0326 6.3828C10.7775 6.15293 10.6138 5.97943 10.4412 5.90912C10.2686 5.83866 9.97649 5.99513 10.0998 6.36754C10.3781 7.20864 11.0342 7.34486 11.3159 8.13106C11.4488 8.50273 11.6379 8.78207 12.0603 8.50038C12.4828 8.21869 13.0799 7.84453 14.0979 7.80519C14.7814 7.77862 15.4879 7.52526 15.8125 7.10956C15.8093 7.46919 15.9351 7.76394 15.9019 8.23176C15.8689 8.69972 15.8741 9.28174 15.9967 9.93613Z" fill="white"/>
<path fill-rule="evenodd" clip-rule="evenodd" d="M16.7974 9.97597C16.6718 9.2683 16.8995 9.16628 16.6277 8.33677C16.4643 7.83798 16.3599 7.21281 16.3573 6.92188L16.248 6.95387C16.2507 7.24481 16.3552 7.87013 16.5185 8.36892C16.7813 9.17098 16.577 9.29281 16.6769 9.94C16.7078 9.94632 16.7726 9.96716 16.7974 9.97597Z" fill="#FFF101"/>
<path fill-rule="evenodd" clip-rule="evenodd" d="M16.1545 9.89778C16.1554 9.8078 16.1497 9.71385 16.1359 9.63312C16.3279 9.58659 16.6569 9.76552 16.6478 9.63253C16.645 9.5904 16.6492 9.45418 16.6518 9.38196C16.6476 9.49484 16.1902 9.30431 16.1114 9.35349C16.0268 8.94174 16.1316 8.51811 16.0645 8.25961C16.2173 8.21748 16.498 8.30937 16.4637 8.18871C16.4442 8.12692 16.4069 7.97323 16.3823 7.87708C16.4063 7.97778 16.1833 7.8944 16.1079 7.95194C16.0687 7.72868 16.0115 7.30504 16.0127 7.11143L15.8126 7.10938C15.8094 7.46901 15.9352 7.76376 15.902 8.23158C15.8689 8.69954 15.8742 9.28156 15.9968 9.93594C16.0406 9.92303 16.1129 9.90644 16.1545 9.89778Z" fill="#FFF101"/>
<path fill-rule="evenodd" clip-rule="evenodd" d="M15.6491 6.61053C15.3509 7.04459 14.6384 7.34418 13.9797 7.41038C13.2088 7.48789 12.6912 7.74653 12.3101 7.99974C12.2773 7.94029 12.2182 7.90829 12.1659 7.8691C11.6083 7.45281 11.8375 6.8887 12.0487 6.96928C11.969 6.93816 11.9227 6.89618 11.8792 6.86462C11.8055 6.80958 11.5929 7.02051 11.6195 7.35549C11.6309 7.49816 11.752 7.70866 11.8506 7.82022C11.6706 7.78719 11.5844 7.74081 11.4787 7.61207C11.5381 7.57479 11.615 7.55365 11.677 7.54881C11.6559 7.49772 11.6265 7.44106 11.6195 7.35549C11.5314 7.35475 11.4239 7.38572 11.3317 7.44884C11.1105 7.22675 10.8828 7.04958 10.7507 6.78741C10.5394 6.36745 10.7543 6.10235 11.0326 6.38271C10.7775 6.15284 10.6138 5.97934 10.4412 5.90903C10.2686 5.83857 9.97649 5.99504 10.0998 6.36745C10.3781 7.20855 11.0342 7.34477 11.3159 8.13097C11.4488 8.50264 11.6448 8.79226 12.0603 8.50029C12.1151 8.46183 12.1296 8.45273 12.1773 8.41868C12.3091 8.34191 12.5179 8.47079 12.4956 8.75101C12.6024 8.49369 12.5342 8.41486 12.4436 8.26059C12.3766 8.29655 12.382 8.08591 12.3407 8.05816C12.5778 7.90961 12.8661 7.76062 13.2299 7.65449C13.2433 7.78029 13.2777 7.91387 13.3926 7.89449C13.4542 7.8807 13.5166 7.86822 13.5823 7.85721C13.4674 7.87659 13.4351 7.73038 13.4218 7.60473C13.5943 7.56481 13.7827 7.53457 13.9892 7.51754C14.2272 7.49787 14.4731 7.44914 14.7041 7.37354C14.7385 7.4942 14.8095 7.6975 14.9279 7.65758C15.0329 7.62367 15.135 7.58536 15.2309 7.54088C15.0662 7.62 15.0013 7.39409 14.9617 7.2746C15.2628 7.14264 15.5192 6.96268 15.6726 6.74793L15.6491 6.61053Z" fill="#FFF101"/>
<path fill-rule="evenodd" clip-rule="evenodd" d="M16.9664 6.82643C17.1117 6.71281 17.2365 6.65909 17.1112 6.4185C16.9061 6.02511 17.0335 6.02376 16.5845 5.77348C16.1272 5.51895 16.1851 5.49899 15.58 5.71403C15.4311 5.76688 15.4643 5.82089 15.4904 6.03844C15.5465 6.50728 15.6531 6.88484 15.7505 7.2706C16.1309 7.22054 16.7161 7.02239 16.9664 6.82643Z" fill="#FFF101"/>
<path fill-rule="evenodd" clip-rule="evenodd" d="M15.5466 6.71974C15.4668 6.48958 15.4882 6.52084 15.7774 6.59101C15.8721 6.2876 16.0028 6.03151 16.0761 5.78593C16.1579 5.511 16.1835 5.46153 16.304 5.5289C16.4581 5.61492 16.6273 5.70578 16.7375 5.76039C16.9301 5.85551 16.9017 5.88883 16.8098 6.04002C16.7179 6.19122 16.4173 6.49765 16.2319 6.81736C16.4764 6.99086 16.5549 7.00657 16.3812 7.08128C16.1868 7.16481 15.8638 7.26829 15.7278 7.29281C15.7029 7.14176 15.6225 6.93802 15.5466 6.71974Z" fill="#FFF101"/>
<path fill-rule="evenodd" clip-rule="evenodd" d="M12.6763 8.88423L12.6571 9.121L12.4839 8.96247L12.2902 9.09502L12.303 8.85869L12.0801 8.79072L12.2706 8.65304L12.1865 8.43344L12.4101 8.4992L12.5282 8.2959L12.6179 8.513L12.8486 8.47792L12.7356 8.68504L12.9057 8.84504L12.6763 8.88423Z" fill="#FFF101"/>
<path fill-rule="evenodd" clip-rule="evenodd" d="M17.5217 12.0355C17.1927 11.7337 17.0541 11.1747 17.174 10.6841C16.9214 10.3844 16.3115 10.2912 15.8802 10.4033C14.7106 11.2367 14.2414 12.5955 13.7411 13.2168C13.583 13.4132 13.4719 13.9618 13.8368 14.253C14.1368 14.4923 14.1317 14.7045 15.2448 15.447C15.8467 15.8485 16.405 16.1563 16.5983 16.3773C16.7917 16.5984 16.9873 16.8365 16.9463 17.127C16.8901 17.5267 17.0076 17.8699 16.9507 18.1453C16.8807 18.4829 16.8135 18.7126 16.8393 18.8984C16.8652 19.0843 17.1456 19.261 17.4039 18.9671C17.9873 18.3037 17.7764 17.6629 18.3112 17.024C18.5639 16.722 18.7095 16.4173 18.2563 16.1893C17.8029 15.9615 17.183 15.6273 16.6401 14.7586C16.2756 14.1751 15.7047 13.6849 15.1851 13.6095C15.4957 13.4326 15.6862 13.1753 16.1047 12.9702C16.5233 12.7652 17.0208 12.4698 17.5217 12.0355Z" fill="white"/>
<path fill-rule="evenodd" clip-rule="evenodd" d="M17.1549 11.3174C16.6098 11.7808 16.4083 11.633 15.8314 12.285C15.4847 12.6771 14.9997 13.0809 14.751 13.2286L14.8331 13.3078C15.0819 13.1602 15.5668 12.7564 15.9137 12.3643C16.4715 11.7338 16.6783 11.8513 17.1845 11.4404C17.1744 11.4104 17.1597 11.3434 17.1549 11.3174Z" fill="#FFF101"/>
<path fill-rule="evenodd" clip-rule="evenodd" d="M17.409 11.9169C17.3314 11.9611 17.2535 12.0131 17.191 12.0655C17.055 11.921 17.0442 11.5444 16.9347 11.6191C16.8998 11.6423 16.7806 11.7069 16.7172 11.7406C16.8165 11.6879 16.8813 12.1825 16.963 12.2266C16.6515 12.5064 16.2351 12.6266 16.0467 12.8145C15.9341 12.7021 15.8726 12.4113 15.7861 12.5016C15.7429 12.5494 15.6294 12.6588 15.5591 12.7284C15.6337 12.657 15.6734 12.8934 15.7605 12.9303C15.5884 13.0763 15.253 13.338 15.0859 13.4338L15.1842 13.6095C15.4949 13.4327 15.6854 13.1753 16.1039 12.9703C16.5224 12.7652 17.0199 12.4699 17.5209 12.0355C17.4878 12.0037 17.4373 11.9489 17.409 11.9169Z" fill="#FFF101"/>
<path fill-rule="evenodd" clip-rule="evenodd" d="M14.8379 14.0023C15.36 14.0456 15.9735 14.5177 16.3597 15.0596C16.8118 15.6939 17.2929 16.0163 17.701 16.2223C17.6663 16.2808 17.6684 16.3483 17.6609 16.4136C17.582 17.1085 16.9827 17.1904 16.9463 16.9658C16.9594 17.051 16.9465 17.1123 16.9412 17.1662C16.9308 17.2581 17.2184 17.3381 17.4927 17.1474C17.6097 17.0661 17.7298 16.8551 17.7766 16.7134C17.838 16.8869 17.8412 16.9854 17.7837 17.142C17.7218 17.1088 17.6653 17.0521 17.6301 17.0006C17.5967 17.0445 17.5628 17.0985 17.4927 17.1474C17.5361 17.2248 17.6165 17.303 17.7169 17.3519C17.6366 17.656 17.5983 17.9434 17.439 18.1898C17.184 18.5842 16.8486 18.5291 16.9504 18.146C16.8804 18.4836 16.8132 18.7134 16.839 18.8992C16.8649 19.085 17.1453 19.2618 17.4036 18.9679C17.987 18.3044 17.7761 17.6637 18.3109 17.0247C18.5636 16.7227 18.7146 16.4069 18.256 16.19C18.1954 16.1616 18.1804 16.1535 18.1274 16.1288C17.9955 16.0522 18.0019 15.8055 18.2537 15.6848C17.9793 15.7203 17.9457 15.8193 17.8584 15.9754C17.9226 16.0158 17.739 16.1165 17.7358 16.1666C17.4897 16.0339 17.2176 15.8567 16.9444 15.592C17.0459 15.5176 17.1435 15.4207 17.0693 15.3302C17.0266 15.2833 16.9846 15.2349 16.9423 15.1831C17.0165 15.2738 16.9072 15.3749 16.8057 15.4495C16.6852 15.319 16.5651 15.1696 16.4471 14.9978C16.3112 14.7998 16.1464 14.6096 15.9659 14.4458C16.0525 14.3553 16.1915 14.1918 16.098 14.1083C16.0165 14.0336 15.9325 13.9636 15.8464 13.9023C15.9967 14.0066 15.8349 14.1761 15.7522 14.2703C15.4881 14.0736 15.2053 13.9396 14.9442 13.9134L14.8379 14.0023Z" fill="#FFF101"/>
<path fill-rule="evenodd" clip-rule="evenodd" d="M14.1523 12.8389C13.9819 12.7689 14.066 12.6743 13.922 12.904C13.6865 13.2796 13.641 13.1931 13.6506 13.7103C13.6604 14.2365 13.7617 14.1525 14.2492 14.5732C14.6239 14.2901 15.0711 13.862 15.3538 13.584C15.1206 13.2771 14.4458 12.9597 14.1523 12.8389Z" fill="#FFF101"/>
<path fill-rule="evenodd" clip-rule="evenodd" d="M14.9828 14.0363C14.8249 14.2211 14.8411 14.1869 14.7567 13.8992C14.4487 13.9682 14.2111 14.0479 13.9637 14.1068C13.6864 14.1727 13.6312 14.1751 13.6288 14.0363C13.6257 13.8587 13.6193 13.6657 13.611 13.5421C13.5966 13.3266 13.6392 13.3345 13.8152 13.3392C13.9911 13.3438 14.3565 13.3874 14.724 13.3893C14.7508 13.0891 14.725 13.0128 14.8762 13.1271C15.0449 13.255 15.2954 13.4853 15.3845 13.5917C15.2672 13.6889 15.1325 13.8611 14.9828 14.0363Z" fill="#FFF101"/>
<path fill-rule="evenodd" clip-rule="evenodd" d="M18.2771 15.461L18.4901 15.3592L18.4405 15.5896L18.6514 15.6925L18.4418 15.7993L18.4948 16.028L18.2812 15.9305L18.1345 16.1137L18.0793 15.8856L17.8456 15.8842L17.9874 15.6974L17.8418 15.5137L18.0764 15.5087L18.1288 15.2803L18.2771 15.461Z" fill="#FFF101"/>
<path fill-rule="evenodd" clip-rule="evenodd" d="M18.5624 9.65539C18.4678 10.0933 18.0566 10.4938 17.5753 10.6346C17.444 11.0048 17.6688 11.5836 17.9809 11.9043C19.2815 12.5085 20.6838 12.2387 21.4678 12.3647C21.7156 12.4045 22.2425 12.2271 22.3102 11.7631C22.3659 11.3816 22.5507 11.28 22.6321 9.93708C22.6761 9.21091 22.6614 8.56959 22.7547 8.2904C22.8481 8.0112 22.9548 7.7213 23.2248 7.61179C23.5963 7.46104 23.8324 7.18669 24.0977 7.09876C24.4226 6.99102 24.6536 6.9348 24.8002 6.81942C24.947 6.70405 24.9587 6.37084 24.5771 6.29231C23.7153 6.11469 23.2702 6.6192 22.4538 6.47183C22.0681 6.40225 21.7334 6.42735 21.7643 6.93715C21.7951 7.4468 21.818 8.15506 21.343 9.06324C21.0239 9.6733 20.8883 10.4166 21.0831 10.9079C20.7759 10.7252 20.4596 10.6876 20.0742 10.4249C19.6887 10.162 19.1862 9.87557 18.5624 9.65539Z" fill="white"/>
<path fill-rule="evenodd" clip-rule="evenodd" d="M18.1289 10.3344C18.7997 10.5785 18.7735 10.8284 19.6221 11.006C20.1324 11.1127 20.7217 11.334 20.9731 11.4773L21 11.3659C20.7488 11.2226 20.1593 11.0014 19.6491 10.8946C18.8285 10.7228 18.826 10.4835 18.2199 10.2471C18.1992 10.271 18.1489 10.3172 18.1289 10.3344Z" fill="#FFF101"/>
<path fill-rule="evenodd" clip-rule="evenodd" d="M18.5167 9.81204C18.5936 9.8577 18.6772 9.89968 18.7534 9.92815C18.6975 10.119 18.3791 10.3169 18.4981 10.3751C18.5355 10.3941 18.6504 10.4657 18.7111 10.5042C18.6163 10.4438 19.0087 10.14 19.0059 10.0465C19.4022 10.1786 19.7135 10.482 19.9693 10.5526C19.9291 10.707 19.7097 10.9061 19.8306 10.9364C19.8934 10.9502 20.0441 10.9946 20.1391 11.0211C20.0405 10.9918 20.2237 10.8388 20.2119 10.7444C20.4233 10.8217 20.8158 10.9836 20.9817 11.0815L21.0835 10.9078C20.7762 10.7251 20.4599 10.6875 20.0745 10.4247C19.6891 10.1618 19.1865 9.87546 18.5628 9.65527C18.552 9.6999 18.5301 9.77138 18.5167 9.81204Z" fill="#FFF101"/>
<path fill-rule="evenodd" clip-rule="evenodd" d="M21.594 11.0147C21.3702 10.5373 21.4691 9.76563 21.7417 9.15748C22.0606 8.4457 22.097 7.86456 22.0699 7.40541C22.1375 7.40658 22.1944 7.37091 22.2544 7.34478C22.8908 7.06632 23.2609 7.54838 23.086 7.69238C23.1527 7.63836 23.212 7.61913 23.2608 7.59682C23.3449 7.55983 23.2699 7.26889 22.9689 7.12475C22.8406 7.06324 22.5993 7.06383 22.454 7.09392C22.5725 6.95344 22.6554 6.90148 22.8188 6.87344C22.8212 6.94405 22.8008 7.0217 22.7741 7.07821C22.8285 7.08526 22.8919 7.0879 22.9689 7.12475C23.0136 7.04812 23.0407 6.93891 23.0325 6.82676C23.334 6.74486 23.6001 6.63462 23.8913 6.65047C24.3578 6.67587 24.4782 6.99616 24.0983 7.09876C24.4232 6.99102 24.6542 6.9348 24.8008 6.81942C24.9476 6.70405 24.9592 6.37084 24.5777 6.29231C23.7158 6.11469 23.2708 6.6192 22.4544 6.47183C22.0686 6.40225 21.7217 6.42838 21.7648 6.93715C21.7705 7.00423 21.7711 7.02141 21.7765 7.07998C21.7765 7.23352 21.5614 7.35124 21.3319 7.19168C21.4995 7.41363 21.6013 7.39352 21.7791 7.39161C21.7817 7.31513 21.96 7.42508 22.0045 7.40291C22.0137 7.68416 21.9974 8.01032 21.9067 8.38097C21.7919 8.32974 21.6601 8.29289 21.6192 8.40298C21.6003 8.46361 21.5797 8.52438 21.5564 8.5872C21.5972 8.47711 21.7389 8.52218 21.8535 8.57341C21.8017 8.74383 21.7334 8.9235 21.6448 9.11227C21.5426 9.32981 21.4616 9.56878 21.4111 9.80834C21.2902 9.77796 21.0801 9.73832 21.055 9.86177C21.0317 9.97025 21.0135 10.0786 21.0039 10.1844C21.0183 10.0011 21.2448 10.0574 21.3673 10.0825C21.3303 10.4114 21.3565 10.7252 21.4644 10.9665L21.594 11.0147Z" fill="#FFF101"/>
<path fill-rule="evenodd" clip-rule="evenodd" d="M20.6981 12.0129C20.7231 12.1967 20.7068 12.3325 20.9762 12.3432C21.4168 12.3609 21.381 12.4157 21.8205 12.1488C22.2677 11.8771 22.2796 11.9308 22.3974 11.295C22.4264 11.1387 22.3634 11.1406 22.1634 11.0546C21.7328 10.869 21.3563 10.8817 20.9762 10.7738C20.829 11.131 20.655 11.6964 20.6981 12.0129Z" fill="#FFF101"/>
<path fill-rule="evenodd" clip-rule="evenodd" d="M21.5516 10.8716C21.7894 10.9168 21.7518 10.9199 21.5469 11.1374C21.7603 11.3717 21.9236 11.5365 22.0981 11.7233C22.2934 11.9323 22.3229 11.9793 22.205 12.0507C22.0539 12.1422 21.8914 12.2444 21.7893 12.3135C21.6112 12.4339 21.5968 12.3925 21.5128 12.2366C21.4288 12.0808 21.3071 11.7425 21.1252 11.421C20.8537 11.5476 20.801 11.6083 20.8237 11.4193C20.8492 11.2079 20.9219 10.8741 20.9688 10.7432C21.1109 10.7969 21.3262 10.8284 21.5516 10.8716Z" fill="#FFF101"/>
<path fill-rule="evenodd" clip-rule="evenodd" d="M21.1274 7.28326L20.9336 7.14807L21.1564 7.07614L21.1392 6.84069L21.3358 6.97016L21.5059 6.80957L21.5289 7.04473L21.7596 7.08113L21.5913 7.24348L21.7069 7.4481L21.4755 7.41772L21.3903 7.63673L21.2688 7.43445L21.0463 7.503L21.1274 7.28326Z" fill="#FFF101"/>
<path fill-rule="evenodd" clip-rule="evenodd" d="M17.3253 10.3148C16.9632 9.96458 16.4166 9.81068 15.9995 9.94482L15.9878 9.93778C15.8782 9.35298 15.8535 8.78817 15.8928 8.23106C15.9081 8.01554 15.8949 7.85781 15.851 7.57654C15.8327 7.45988 15.8302 7.44356 15.8238 7.39527C15.8108 7.2984 15.804 7.21639 15.8034 7.13549C15.483 7.52544 14.8053 7.78682 14.0982 7.81431C13.2616 7.84664 12.7392 8.05869 12.0653 8.50799C11.6909 8.7576 11.4772 8.60905 11.3073 8.13413C11.1948 7.8201 11.0576 7.63883 10.7286 7.30515L10.7032 7.27948C10.3586 6.92987 10.2088 6.72595 10.0912 6.3704C9.98132 6.03871 10.2187 5.80833 10.4446 5.90056C10.46 5.90683 10.4754 5.91395 10.491 5.92196C10.5638 5.95932 10.6384 6.01455 10.7372 6.10111C10.771 6.13075 10.8702 6.22168 10.947 6.29209C10.9891 6.3307 11.0245 6.36313 11.0386 6.37592C11.0499 6.38605 11.0615 6.39585 11.0737 6.40544C11.0564 6.39452 11.0384 6.38738 11.0201 6.38376L10.9345 6.30542C10.8577 6.23507 10.7589 6.14444 10.7253 6.11495C10.6275 6.02929 10.5539 5.97486 10.4827 5.93831C10.4676 5.93054 10.4526 5.92364 10.4378 5.91757C10.2264 5.83127 10.0035 6.04763 10.1084 6.36459C10.225 6.71681 10.3734 6.91878 10.7161 7.26655L10.7415 7.29222C11.0722 7.62766 11.2108 7.81069 11.3244 8.1279C11.4909 8.59326 11.6934 8.73398 12.0553 8.49268C12.7317 8.0417 13.257 7.82845 14.0975 7.79597C14.812 7.7682 15.4959 7.50015 15.8053 7.10383L15.8216 7.10959C15.8208 7.19811 15.8276 7.28634 15.8418 7.39282C15.8483 7.44091 15.8507 7.4572 15.8689 7.57368C15.9131 7.85622 15.9264 8.01514 15.911 8.23236C15.872 8.78475 15.8961 9.34469 16.0038 9.92424L15.9939 9.92734L16.0056 9.93437L16.0038 9.92424C16.4263 9.79346 16.974 9.9496 17.3299 10.2992C17.6894 10.2332 18.0843 9.77566 18.2106 9.32011C18.1482 8.6364 17.9182 8.01817 17.5047 7.25872C17.4409 7.14154 17.2666 6.83404 17.182 6.68484L17.1356 6.60283C17.0038 6.36613 16.9206 6.1993 16.8634 6.04872C16.745 5.73693 16.3022 5.47336 15.9371 5.61932C15.8875 5.63918 15.8392 5.65501 15.7863 5.66923C15.7524 5.67834 15.7178 5.68652 15.6706 5.69689C15.1845 5.80372 14.9155 5.89535 14.2079 6.25108L14.1482 6.28126C14.0122 6.35039 13.6846 6.524 13.4806 6.63206L13.4806 6.63207C13.394 6.67797 13.3297 6.71204 13.3119 6.72126C13.0317 6.86617 12.8563 6.9425 12.7297 6.96819C12.311 7.05311 12.0993 7.04948 11.9041 6.89537C11.8426 6.84684 11.7769 6.80295 11.7046 6.76113C11.6859 6.75034 11.667 6.73977 11.6474 6.72923L11.6532 6.72235L11.6507 6.71019C11.6723 6.72177 11.6931 6.73335 11.7136 6.74522C11.7867 6.78745 11.8531 6.83183 11.9153 6.88093C12.1048 7.03053 12.3124 7.0341 12.7261 6.9502C12.8505 6.92496 13.0249 6.84906 13.3036 6.70494C13.3213 6.69576 13.3854 6.66178 13.4719 6.61597L13.4719 6.61597L13.4719 6.61596C13.6758 6.50792 14.0038 6.33411 14.14 6.26488L14.1998 6.23466C14.9088 5.87822 15.1793 5.7861 15.6668 5.67896C15.7137 5.66865 15.748 5.66052 15.7816 5.6515C15.8338 5.63746 15.8815 5.62185 15.9304 5.60227C16.306 5.45213 16.7587 5.72161 16.8804 6.04216C16.9372 6.19171 17.0201 6.35786 17.1515 6.59385L17.1977 6.67554C17.2822 6.8246 17.4567 7.1325 17.5206 7.2499C17.9352 8.01135 18.1661 8.63174 18.2284 9.32173C18.1002 9.78674 17.7005 10.2498 17.3253 10.3148ZM11.6312 6.69985L11.6507 6.71019L11.6502 6.70816C11.6439 6.70505 11.6375 6.70228 11.6312 6.69985ZM11.5653 6.68679C11.5872 6.68714 11.6092 6.69145 11.6312 6.69985C11.5978 6.68235 11.5624 6.66467 11.5233 6.64589C11.5044 6.63677 11.4623 6.61702 11.4231 6.59866L11.4227 6.59488C11.4072 6.58781 11.3921 6.58188 11.3773 6.57713L11.342 6.56059C11.2276 6.50606 11.1494 6.46275 11.0862 6.41512L11.0863 6.41418C11.0821 6.41103 11.0779 6.40812 11.0737 6.40544L11.0862 6.41512L11.0858 6.42914L11.0798 6.43318C11.0746 6.42931 11.0695 6.4254 11.0644 6.42146L11.0646 6.42137C11.0682 6.42367 11.0718 6.42616 11.0753 6.42884L11.0757 6.41387L11.0646 6.42137C11.0642 6.42112 11.0638 6.42087 11.0634 6.42062C11.0506 6.41056 11.0384 6.40027 11.0265 6.3896L11.0201 6.38376C10.9031 6.36075 10.7694 6.48022 10.6934 6.6725L10.7069 6.68353L11.0798 6.43318C11.1379 6.47633 11.2082 6.51604 11.3061 6.56361C11.1637 6.55695 11.0441 6.68454 10.8912 7.01106L10.9051 7.02219L11.4173 6.61617C11.4559 6.63427 11.4969 6.65351 11.5155 6.66245C11.5328 6.67076 11.5493 6.67884 11.5653 6.68679ZM11.624 6.71675C11.6052 6.70688 11.5857 6.69695 11.5653 6.68679C11.4029 6.68421 11.2484 6.90035 11.1558 7.28511L11.1716 7.29321L11.6474 6.72923L11.6309 6.72043L11.6315 6.71975C11.6351 6.72126 11.6387 6.7229 11.6423 6.72466L11.6393 6.71046L11.6315 6.71975L11.624 6.71675ZM11.183 7.25135C11.2868 6.85048 11.4577 6.65468 11.624 6.71675L11.6309 6.72043L11.183 7.25135ZM11.183 7.25135C11.1798 7.26384 11.1766 7.27654 11.1735 7.28943L11.1577 7.28133L11.183 7.25135ZM11.3988 6.6075L11.4173 6.61617L11.4246 6.61045L11.4231 6.59866L11.3989 6.58731L11.3989 6.58728L11.3773 6.57713C11.3528 6.56929 11.3291 6.56469 11.3061 6.56361L11.3343 6.57718L11.3709 6.59439C11.2113 6.54405 11.0895 6.64114 10.9245 6.98344L10.8938 7.00777L10.9077 7.01889L10.9245 6.98344L11.3988 6.6075ZM11.4013 6.60554C11.391 6.60126 11.3809 6.59754 11.3709 6.59439L11.3914 6.604L11.3988 6.6075L11.4013 6.60554ZM11.4013 6.60554L11.4152 6.61159L11.4133 6.59602L11.4013 6.60554ZM10.722 6.65135L11.0644 6.42146C11.0641 6.42118 11.0637 6.4209 11.0634 6.42062C10.9538 6.35249 10.8081 6.45629 10.722 6.65135ZM10.722 6.65135L10.6968 6.66826L10.7103 6.67929C10.7141 6.66978 10.718 6.66047 10.722 6.65135Z" fill="black"/>
<path fill-rule="evenodd" clip-rule="evenodd" d="M16.7713 9.31407C16.7584 9.58532 16.7629 9.73127 16.806 9.97444L16.794 9.9847C16.7803 9.97981 16.7625 9.97395 16.744 9.96787C16.7164 9.95878 16.6873 9.94917 16.6676 9.9415C16.6347 9.72826 16.632 9.59549 16.644 9.34512L16.6464 9.29312C16.6608 8.97142 16.6354 8.75596 16.5095 8.37188C16.3578 7.90835 16.2415 7.27564 16.2452 6.94515L16.3661 6.92188C16.3689 7.24171 16.4848 7.87239 16.636 8.33398C16.7626 8.7204 16.7883 8.93812 16.7738 9.26198L16.7713 9.31407ZM16.8001 9.9674L16.7881 9.97766C16.7872 9.97251 16.7863 9.96739 16.7854 9.96232C16.7906 9.96408 16.7956 9.96579 16.8001 9.9674ZM16.6784 9.9311C16.7016 9.93584 16.7501 9.95041 16.7854 9.96232C16.7445 9.72663 16.7404 9.57995 16.7532 9.31318L16.7556 9.26115C16.77 8.93942 16.7446 8.72391 16.6188 8.33973C16.467 7.87644 16.3508 7.24391 16.3595 6.93077L16.2568 6.95388C16.2597 7.27345 16.3757 7.90431 16.5268 8.36613C16.6534 8.75244 16.6791 8.97011 16.6646 9.29394L16.6622 9.346C16.6502 9.59524 16.6529 9.72691 16.6784 9.9311Z" fill="black"/>
<path fill-rule="evenodd" clip-rule="evenodd" d="M14.6485 6.01367C14.5466 6.05776 14.5474 6.21403 14.6298 6.45745C14.6957 6.65212 14.8125 6.89668 14.953 7.14648L14.9696 7.1395L14.6609 6.01965L14.6485 6.01367ZM16.1449 9.6317C16.1583 9.70968 16.1646 9.80305 16.1637 9.89801L16.1565 9.9069L16.1253 9.91353C16.0797 9.92333 16.0281 9.93444 15.988 9.93779C15.8784 9.35299 15.8537 8.78818 15.893 8.23106C15.9083 8.01555 15.8951 7.85782 15.8512 7.57654C15.8329 7.45989 15.8304 7.44357 15.824 7.39528C15.8096 7.288 15.8028 7.19894 15.8128 7.10034L16.0219 7.11163C16.0209 7.27761 16.0666 7.65931 16.1146 7.93701C16.1405 7.92319 16.1769 7.91943 16.2341 7.92048L16.2574 7.92105C16.3108 7.92252 16.3313 7.92199 16.35 7.917C16.3714 7.91127 16.3786 7.9009 16.3736 7.87952L16.3835 7.91871C16.377 7.92604 16.3672 7.93137 16.3547 7.93474C16.3335 7.94038 16.3124 7.94092 16.2569 7.93939L16.2337 7.93883C16.1712 7.93768 16.1355 7.94263 16.1135 7.9594L16.099 7.95368C16.05 7.67397 16.0026 7.2816 16.0127 7.12075L15.8218 7.1096C15.821 7.19812 15.8278 7.28635 15.842 7.39283C15.8484 7.44092 15.8509 7.45721 15.8691 7.57369C15.9133 7.85623 15.9266 8.01515 15.9112 8.23237C15.8719 8.78798 15.8966 9.35123 15.9943 9.92728C16.0313 9.91639 16.0947 9.90121 16.1456 9.89045L16.1455 9.89783L16.1528 9.88893L16.1456 9.89045C16.1461 9.79907 16.14 9.70934 16.1338 9.62434C16.185 9.61195 16.2468 9.61399 16.3263 9.62729C16.3529 9.63175 16.3795 9.63705 16.4169 9.6451C16.5315 9.66977 16.5485 9.67296 16.5822 9.67361C16.624 9.6744 16.6408 9.66292 16.6388 9.63328C16.6367 9.60166 16.6382 9.51762 16.6416 9.41621C16.6538 9.40887 16.6605 9.3978 16.661 9.38245L16.6428 9.38177L16.6428 9.38176L16.661 9.38244C16.6568 9.49799 16.6547 9.59787 16.6569 9.63204C16.6599 9.6746 16.633 9.69293 16.5818 9.69195C16.5464 9.69128 16.5296 9.68811 16.4131 9.66304C16.3759 9.65505 16.3496 9.6498 16.3233 9.64539C16.2461 9.63246 16.1863 9.63049 16.1449 9.6317ZM16.6416 9.41621C16.6253 9.42606 16.5989 9.42919 16.5638 9.42694C16.5194 9.4241 16.4695 9.4147 16.374 9.3932L16.3636 9.39085C16.2003 9.35403 16.1419 9.34544 16.1163 9.36143L16.1026 9.35549C16.097 9.32815 16.0921 9.30031 16.0879 9.2719C16.0647 9.11426 16.0633 8.98126 16.0735 8.72148C16.0838 8.45733 16.0822 8.36355 16.0622 8.25091C16.1023 8.23986 16.1509 8.23699 16.2187 8.23927C16.2344 8.2398 16.2487 8.24047 16.2741 8.2418C16.3589 8.24624 16.3887 8.24652 16.4175 8.24088C16.4518 8.23419 16.4632 8.2202 16.4551 8.19164C16.4451 8.15993 16.4307 8.10586 16.4087 8.01869L16.4061 8.00857C16.4073 8.01308 16.3938 7.95945 16.3835 7.91871C16.3928 7.90826 16.3957 7.89375 16.3912 7.87508L16.3736 7.87952L16.3735 7.87937L16.3912 7.87493C16.3976 7.89979 16.4254 8.01066 16.4238 8.00403L16.4263 8.01416C16.4483 8.10094 16.4626 8.15484 16.4725 8.18632C16.4841 8.22676 16.4648 8.25034 16.421 8.2589C16.39 8.26495 16.3599 8.26466 16.2732 8.26012C16.2478 8.2588 16.2337 8.25814 16.2181 8.25761C16.1771 8.25623 16.1435 8.25678 16.1163 8.25721H16.1163C16.0996 8.25748 16.0854 8.25771 16.0734 8.25743C16.1004 8.3614 16.1021 8.45593 16.0917 8.72221C16.0815 8.98088 16.0829 9.11305 16.1059 9.26921C16.1095 9.29331 16.1135 9.31699 16.1181 9.34029C16.1523 9.32785 16.2131 9.3381 16.3676 9.37295L16.378 9.3753C16.4725 9.39657 16.5219 9.40587 16.565 9.40863C16.6168 9.41195 16.6418 9.40304 16.6428 9.38202L16.6416 9.41621ZM14.6463 6.03521L14.6434 6.02456L14.6557 6.03053C14.6525 6.03194 14.6493 6.0335 14.6463 6.03521ZM14.9318 7.07073C14.8084 6.84531 14.7067 6.6276 14.647 6.45152C14.5705 6.22557 14.567 6.07994 14.6463 6.03521L14.9318 7.07073ZM14.9318 7.07073C14.9439 7.0929 14.9563 7.11514 14.9688 7.13743L14.9521 7.14441L14.9318 7.07073ZM14.7016 7.37906L14.7015 7.37911L14.7015 7.37912L14.701 7.37931L14.7071 7.3991C14.7932 7.36676 14.8793 7.32878 14.9655 7.28552L14.9587 7.26608L14.9583 7.26625L14.9583 7.26624L14.9581 7.26633L14.7016 7.37906ZM14.7016 7.37906C14.787 7.34696 14.8725 7.30926 14.9581 7.26633L14.9583 7.26625L14.9651 7.28568L14.7075 7.39891L14.7015 7.37912L14.7016 7.37906ZM13.2277 7.65287C13.2277 7.65289 13.2276 7.65291 13.2275 7.65293L13.2323 7.67319L13.4243 7.61624L13.42 7.59584C13.4199 7.59586 13.4198 7.59589 13.4197 7.59591L13.4197 7.5959L13.4191 7.59606C13.3539 7.61327 13.2905 7.6321 13.2283 7.65267L13.2277 7.65285L13.2277 7.65287ZM13.2277 7.65287L13.2325 7.67311C13.2949 7.65246 13.3585 7.63356 13.424 7.6163L13.4197 7.59591C13.4195 7.59596 13.4193 7.59601 13.4191 7.59606L13.2283 7.65267C13.2281 7.65273 13.2279 7.6528 13.2277 7.65287Z" fill="black"/>
<path fill-rule="evenodd" clip-rule="evenodd" d="M13.9788 7.40109C14.6756 7.33106 15.3598 7.01523 15.6416 6.60515L15.6581 6.60881L15.6799 6.75312C15.531 6.96165 15.2804 7.14474 14.9703 7.27154C14.9696 7.26933 14.983 7.31001 14.9871 7.32229C14.9942 7.34313 15.0006 7.361 15.0073 7.37803C15.0619 7.51752 15.1265 7.57712 15.2212 7.53507C15.198 7.54574 15.1743 7.55616 15.1499 7.56636C15.0835 7.55847 15.033 7.49349 14.9903 7.38477C14.9835 7.36744 14.977 7.3493 14.9699 7.32821C14.9657 7.31584 14.9523 7.27508 14.9581 7.26603C15.2704 7.12913 15.5184 6.94794 15.6636 6.74932L15.6438 6.6337C15.6482 6.62768 15.6524 6.62165 15.6566 6.61559L15.6401 6.61193L15.6438 6.6337C15.3512 7.03999 14.672 7.34986 13.9806 7.41935C13.3121 7.48655 12.7998 7.6852 12.3021 8.00404C12.2814 7.96641 12.2564 7.94423 12.1938 7.90026L12.1936 7.90009C12.177 7.88845 12.1695 7.88312 12.1605 7.87631C11.9084 7.68816 11.7931 7.45126 11.8099 7.232C11.8216 7.07878 11.9007 6.96446 11.9919 6.95301C12.0089 6.96214 12.0264 6.97029 12.0454 6.97768C11.9457 6.93972 11.8415 7.05769 11.828 7.23341C11.8118 7.44618 11.9242 7.67706 12.1713 7.86158C12.1802 7.86824 12.1876 7.8735 12.204 7.88503L12.2042 7.8852C12.2691 7.93075 12.2955 7.95423 12.305 7.99192C12.7921 7.66832 13.3072 7.46861 13.9788 7.40109ZM11.6102 7.35339C11.5881 7.06004 11.7785 6.77787 11.8844 6.85701C11.8847 6.85717 11.8861 6.85822 11.8883 6.85992C11.9007 6.86927 11.9393 6.89834 11.9538 6.90823C11.9852 6.92969 12.016 6.94654 12.0519 6.96057L12.0454 6.9777C12.0454 6.97769 12.0454 6.97769 12.0454 6.97768L12.0519 6.96054C12.0317 6.95284 12.0115 6.95054 11.9919 6.95301C11.9754 6.94414 11.9595 6.93435 11.9436 6.92341C11.9285 6.9131 11.8886 6.88304 11.8769 6.87426C11.875 6.87282 11.8739 6.87195 11.8737 6.87183C11.7857 6.80607 11.6061 7.07285 11.6285 7.35457C11.6285 7.35458 11.6285 7.35458 11.6285 7.35459C11.6387 7.48214 11.7461 7.68809 11.8574 7.81396L11.849 7.82908C11.6649 7.79531 11.5776 7.74684 11.4738 7.60412C11.5273 7.57057 11.5983 7.54777 11.6637 7.54067L11.6686 7.55217L11.6689 7.55169L11.6763 7.5395C11.6722 7.53982 11.6681 7.5402 11.664 7.54065C11.6639 7.54066 11.6638 7.54067 11.6637 7.54067L11.6503 7.50913C11.6373 7.47807 11.6277 7.45078 11.6226 7.42461C11.6187 7.40431 11.6174 7.38469 11.6194 7.3645C11.6167 7.36448 11.6139 7.36448 11.6112 7.36452C11.5225 7.36575 11.4207 7.39856 11.3253 7.45518C11.3117 7.44153 11.2976 7.42759 11.2828 7.41307C11.2573 7.3881 11.1911 7.32485 11.1447 7.28054C11.1218 7.25868 11.1038 7.24143 11.0978 7.23567C10.9194 7.06308 10.8182 6.9417 10.7425 6.7914C10.6424 6.59251 10.6306 6.41135 10.7007 6.31678C10.7475 6.25375 10.8214 6.24072 10.9051 6.2783C10.9151 6.28748 10.925 6.29651 10.9345 6.30522C10.9514 6.3207 10.9672 6.3352 10.981 6.34785C10.8706 6.25772 10.7706 6.25322 10.7153 6.32777C10.6501 6.4157 10.6615 6.58978 10.7588 6.7831C10.8333 6.93113 10.9334 7.05115 11.1104 7.22243C11.1163 7.22815 11.1343 7.24531 11.1571 7.26709C11.2034 7.3114 11.2698 7.37484 11.2954 7.39991C11.3103 7.41448 11.3245 7.42847 11.3266 7.44109C11.4111 7.38319 11.5124 7.3495 11.6102 7.35339ZM10.9935 6.33456C10.9634 6.30988 10.9337 6.29114 10.9051 6.2783C10.8343 6.21335 10.7547 6.14058 10.7253 6.11475C10.6275 6.02909 10.5539 5.97465 10.4827 5.93811C10.4676 5.93034 10.4526 5.92343 10.4378 5.91737C10.2264 5.83106 10.0035 6.04742 10.1084 6.36439C10.225 6.71661 10.3734 6.91858 10.7161 7.26634L10.7415 7.29201C11.0722 7.62746 11.2108 7.81049 11.3244 8.1277C11.4014 8.34303 11.4835 8.48408 11.5873 8.5568C11.7108 8.64333 11.8628 8.62772 12.0551 8.4926C12.0779 8.47662 12.0937 8.46567 12.1203 8.44735L12.1211 8.4468C12.1389 8.43446 12.153 8.4246 12.1727 8.41057C12.3193 8.32518 12.4989 8.46766 12.506 8.69911C12.5004 8.7145 12.4941 8.73053 12.4872 8.74731L12.5047 8.75158C12.5061 8.73365 12.5065 8.71614 12.506 8.69911C12.5543 8.56554 12.5509 8.48104 12.5062 8.38864C12.4978 8.37117 12.4878 8.35305 12.4741 8.32968C12.4739 8.32926 12.4736 8.32879 12.4733 8.32826C12.4662 8.31609 12.4428 8.27636 12.4479 8.26852C12.4247 8.28095 12.406 8.27096 12.3929 8.24473C12.3838 8.22673 12.3779 8.20519 12.3684 8.16176L12.366 8.15118C12.354 8.09603 12.3462 8.07278 12.3356 8.06564L12.3358 8.05021C12.617 7.87402 12.9012 7.74068 13.2389 7.65335C13.2564 7.81717 13.3003 7.90058 13.3906 7.88538C13.4336 7.87574 13.4756 7.86706 13.5176 7.85921C13.5365 7.86798 13.5584 7.87037 13.5838 7.8661L13.5808 7.848C13.5808 7.848 13.5808 7.848 13.5808 7.848C13.5597 7.85154 13.5386 7.85527 13.5176 7.85921C13.4581 7.83161 13.429 7.74084 13.4198 7.59563C13.5989 7.55415 13.7881 7.52476 13.9884 7.50824C14.2283 7.48841 14.4734 7.43925 14.7128 7.37085C14.7687 7.56692 14.8363 7.67864 14.9251 7.64868C15.0056 7.6227 15.0803 7.59544 15.1499 7.56636C15.1738 7.5692 15.1998 7.56462 15.2283 7.552C15.2304 7.55102 15.2325 7.55004 15.2346 7.54905L15.2269 7.53244C15.225 7.53335 15.2231 7.53423 15.2212 7.53507C15.2232 7.53417 15.2251 7.53328 15.227 7.53239L15.2347 7.549C15.2326 7.55005 15.2304 7.55104 15.2283 7.552M12.3554 8.05958C12.366 8.07349 12.3731 8.09844 12.3838 8.14723L12.3861 8.1578C12.3953 8.1996 12.401 8.22035 12.4091 8.23645C12.4182 8.25452 12.4267 8.25909 12.4514 8.25575L12.4898 8.32035C12.5037 8.3441 12.5139 8.36261 12.5226 8.38059C12.5749 8.48867 12.5733 8.58736 12.504 8.75439L12.4865 8.75011C12.5063 8.50172 12.3249 8.34308 12.1825 8.426C12.1634 8.43963 12.1493 8.44954 12.1314 8.46194L12.1306 8.46249C12.104 8.48081 12.0882 8.49171 12.0655 8.50766C11.8675 8.64681 11.7074 8.66325 11.5769 8.57187C11.4692 8.49639 11.3855 8.35256 11.3073 8.13393C11.1948 7.8199 11.0576 7.63863 10.7286 7.30495L10.7032 7.27927C10.3586 6.92967 10.2088 6.72574 10.0912 6.37019C9.98132 6.03851 10.2187 5.80812 10.4446 5.90036C10.46 5.90663 10.4754 5.91375 10.491 5.92176C10.5638 5.95912 10.6384 6.01434 10.7372 6.1009C10.771 6.13055 10.8702 6.22148 10.947 6.29189C10.9639 6.3074 10.9797 6.32192 10.9935 6.33456C11.0086 6.34691 11.0238 6.36074 11.039 6.37606L11.0265 6.38939C11.0179 6.38167 11.0017 6.36684 10.981 6.34785C10.9959 6.36002 11.011 6.37374 11.0261 6.38904L11.0386 6.37571C11.0302 6.36807 11.0141 6.35339 10.9935 6.33456M11.8266 7.80612C11.7683 7.73568 11.7124 7.64581 11.6719 7.55829C11.6074 7.56426 11.5362 7.58622 11.4857 7.60606C11.5838 7.72557 11.6641 7.77331 11.8266 7.80612Z" fill="black"/>
<path fill-rule="evenodd" clip-rule="evenodd" d="M17.182 10.6864C17.062 11.1775 17.2031 11.7315 17.5271 12.0287L17.5269 12.0425C17.0794 12.4304 16.6068 12.7341 16.108 12.9785C15.9614 13.0503 15.8364 13.1308 15.6999 13.236C15.666 13.2621 15.6325 13.2888 15.5892 13.324C15.5931 13.3208 15.5068 13.3911 15.4829 13.4103C15.3763 13.4961 15.2968 13.5539 15.2112 13.6045C15.7065 13.6891 16.2699 14.15 16.647 14.7537C17.0933 15.4677 17.5372 15.8181 18.2596 16.1811C18.6611 16.3831 18.6404 16.6439 18.3174 17.0299C18.1023 17.2869 18.0168 17.4945 17.8921 17.9582C17.7561 18.4633 17.6615 18.6872 17.41 18.9733C17.1799 19.235 16.8635 19.1431 16.8295 18.8997C16.8175 18.8127 16.8245 18.7143 16.8494 18.5772C16.8605 18.5157 16.9061 18.3051 16.9286 18.201L16.9286 18.201L16.9286 18.2009L16.941 18.1434C16.944 18.1289 16.9466 18.1147 16.9488 18.1006C16.9483 18.1202 16.9512 18.1386 16.957 18.1557L16.9463 18.2053L16.9463 18.2053C16.9237 18.3096 16.8784 18.5194 16.8673 18.5805C16.8427 18.7158 16.8358 18.8125 16.8476 18.8972C16.8793 19.1249 17.1765 19.2112 17.3963 18.9611C17.6455 18.6777 17.7392 18.456 17.8745 17.9534C17.9999 17.4873 18.0862 17.2776 18.3035 17.0181C18.62 16.6399 18.6396 16.3928 18.2515 16.1975C17.5264 15.8332 17.0799 15.4808 16.6316 14.7635C16.2506 14.1535 15.6783 13.6905 15.183 13.6186L15.1798 13.6015C15.2733 13.5483 15.3564 13.4887 15.4716 13.396C15.4954 13.3768 15.5817 13.3065 15.5778 13.3097C15.6212 13.2744 15.6548 13.2476 15.6888 13.2214C15.8262 13.1156 15.9522 13.0344 16.1 12.962C16.5946 12.7197 17.0633 12.4189 17.5073 12.0353L17.5148 12.0423L17.515 12.0285L17.5073 12.0353C17.1835 11.7317 17.0438 11.1756 17.1663 10.6901C16.9297 10.4093 16.3391 10.2933 15.8847 10.4108C15.4475 10.7224 15.0835 11.1214 14.7381 11.6307C14.643 11.7709 14.4506 12.0922 14.2634 12.405C14.0689 12.7299 13.8799 13.0456 13.8112 13.1394C13.7897 13.1689 13.7684 13.1966 13.7475 13.2226C13.5387 13.4819 13.5336 14 13.8417 14.2458C13.8561 14.2573 13.87 14.2689 13.8836 14.2808C13.9253 14.317 13.9631 14.3544 14.0076 14.4024C14.0151 14.4105 14.0358 14.4334 14.0599 14.4602L14.06 14.4602L14.0601 14.4603L14.0601 14.4603L14.0602 14.4604C14.0952 14.4992 14.1374 14.5459 14.1566 14.5666C14.2234 14.6384 14.29 14.7046 14.3698 14.7769C14.5756 14.9635 14.8541 15.1759 15.249 15.4394C15.45 15.5734 16.0821 15.9742 16.0789 15.9721C16.3583 16.1531 16.5166 16.2709 16.6043 16.3713C16.8865 16.6938 16.9894 16.8809 16.9546 17.1283C16.9402 17.2307 16.9359 17.3216 16.9401 17.4355L16.9313 17.4339L16.9221 17.4422C16.9175 17.3245 16.9217 17.2312 16.9366 17.1257C16.9704 16.8855 16.8694 16.702 16.5907 16.3834C16.5045 16.2848 16.347 16.1676 16.0691 15.9876C16.0724 15.9897 15.4402 15.5889 15.239 15.4547C14.8433 15.1907 14.5641 14.9778 14.3576 14.7906C14.2775 14.7179 14.2105 14.6513 14.1433 14.5791C14.124 14.5583 14.0816 14.5114 14.0464 14.4725C14.0224 14.4458 14.0017 14.4229 13.9943 14.4149C13.9502 14.3673 13.9129 14.3304 13.8718 14.2947C13.8583 14.283 13.8446 14.2716 13.8304 14.2602C13.5135 14.0074 13.5187 13.4776 13.7333 13.2111C13.7541 13.1852 13.7752 13.1577 13.7966 13.1285C13.8647 13.0354 14.0528 12.7212 14.2468 12.3971C14.4344 12.0838 14.6275 11.7613 14.723 11.6203C15.0696 11.1094 15.435 10.7088 15.8771 10.3945C16.3407 10.2739 16.9385 10.3914 17.182 10.6864ZM16.9231 17.4645L16.9221 17.4422L16.9206 17.4436C16.9211 17.4507 16.922 17.4577 16.9231 17.4645ZM16.9449 17.5286C16.9342 17.5093 16.9269 17.4879 16.9231 17.4645C16.926 17.528 16.9314 17.5989 16.9389 17.6825L16.9401 17.6965L16.9371 17.6988C16.9388 17.7158 16.9412 17.732 16.9445 17.7472C16.9587 17.9146 16.9616 18.0014 16.9514 18.0821L16.9501 18.0828C16.9494 18.0888 16.9489 18.0948 16.9488 18.1006L16.9514 18.0821L16.9632 18.0757L16.9701 18.0792C16.9693 18.0856 16.9685 18.092 16.9675 18.0984L16.9671 18.0982C16.9673 18.0939 16.9676 18.0895 16.9682 18.0851L16.9551 18.0922L16.9671 18.0982C16.9671 18.0994 16.967 18.1007 16.967 18.102C16.9647 18.1169 16.962 18.1318 16.9589 18.1472L16.957 18.1557C16.9957 18.2694 17.1653 18.3265 17.3684 18.2965L17.3711 18.2792L16.9701 18.0792C16.9783 18.0107 16.9773 17.9373 16.9683 17.8157C17.0335 17.9437 17.2031 17.9844 17.5605 17.9545L17.5631 17.9369L16.9581 17.6928L16.957 17.6809C16.952 17.6249 16.9479 17.5747 16.9449 17.5286ZM16.9412 17.4623C16.9422 17.4835 16.9434 17.5055 16.9449 17.5286C17.0241 17.6713 17.2869 17.698 17.6635 17.5866L17.6626 17.5688L16.9401 17.4355L16.9408 17.4543L16.94 17.4541C16.9395 17.4502 16.9391 17.4463 16.9388 17.4423L16.9281 17.4519L16.94 17.4541L16.9412 17.4623ZM17.6209 17.5798C17.2247 17.6895 16.9711 17.6382 16.9412 17.4623L16.9408 17.4543L17.6209 17.5798ZM17.6209 17.5798C17.6332 17.5763 17.6457 17.5727 17.6584 17.569L17.6593 17.5868L17.6209 17.5798ZM16.9599 17.7133L16.9581 17.6928L16.9495 17.6894L16.9401 17.6965L16.9445 17.7472C16.95 17.7724 16.9578 17.7952 16.9683 17.8157C16.9666 17.7936 16.9647 17.7698 16.9625 17.7442C16.9989 17.9086 17.1434 17.9664 17.5201 17.9393L17.5563 17.9539L17.559 17.9362L17.5201 17.9393L16.9599 17.7133ZM16.9569 17.7121C16.9584 17.7232 16.9603 17.7339 16.9625 17.7442L16.9599 17.7133L16.9569 17.7121ZM16.9569 17.7121L16.9552 17.697L16.9428 17.7064L16.9569 17.7121ZM17.3359 18.2821L16.9675 18.0984C16.9674 18.0996 16.9672 18.1008 16.967 18.102C16.9653 18.2302 17.1267 18.3045 17.3359 18.2821ZM17.3359 18.2821L17.363 18.2956L17.3657 18.2783C17.3557 18.2798 17.3458 18.2811 17.3359 18.2821Z" fill="black"/>
<path fill-rule="evenodd" clip-rule="evenodd" d="M16.5771 11.6813C16.8442 11.5425 16.9553 11.4741 17.1488 11.3096L17.1636 11.3149C17.1662 11.3292 17.1702 11.348 17.1743 11.3676C17.1803 11.3959 17.1867 11.426 17.1899 11.4467C17.0172 11.5869 16.9166 11.6475 16.6675 11.7769L16.6162 11.8038C16.3549 11.9421 16.1783 12.0779 15.9202 12.3696C15.5979 12.7339 15.1125 13.1517 14.8266 13.3137L14.7461 13.2199C15.0194 13.0576 15.5034 12.641 15.8244 12.2781C16.084 11.9846 16.2624 11.8474 16.5258 11.7081L16.5771 11.6813ZM17.1457 11.3183L17.1605 11.3236C17.1565 11.327 17.1526 11.3303 17.1487 11.3336C17.1476 11.3281 17.1466 11.323 17.1457 11.3183ZM17.1487 11.3336C16.9611 11.492 16.8482 11.561 16.5854 11.6976L16.5343 11.7243C16.2728 11.8627 16.0961 11.9985 15.8379 12.2903C15.5158 12.6546 15.0304 13.0724 14.757 13.2211L14.8282 13.2991C15.1015 13.1369 15.5855 12.7204 15.9066 12.3574C16.1662 12.064 16.3446 11.9268 16.6078 11.7875L16.6592 11.7606C16.9072 11.6317 17.0069 11.5717 17.1756 11.4425C17.168 11.4199 17.156 11.3699 17.1487 11.3336Z" fill="black"/>
<path fill-rule="evenodd" clip-rule="evenodd" d="M17.1857 12.0588C17.2461 12.0082 17.3232 11.9559 17.4051 11.9093L17.4163 11.9112L17.4378 11.9353C17.4687 11.9698 17.5043 12.0095 17.5273 12.0429C17.0799 12.4308 16.6072 12.7345 16.1084 12.9789C15.9618 13.0507 15.8368 13.1313 15.7003 13.2364C15.6665 13.2625 15.6329 13.2892 15.5896 13.3244C15.5935 13.3212 15.5072 13.3916 15.4834 13.4107C15.3675 13.504 15.2837 13.5641 15.1768 13.6144L15.0819 13.4263C15.2253 13.344 15.531 13.1128 15.7447 12.9325C15.719 12.9164 15.6973 12.8853 15.6673 12.8299L15.6504 12.7986C15.6441 12.787 15.639 12.778 15.6341 12.77C15.6065 12.7245 15.5882 12.7141 15.5659 12.7354L15.5532 12.7222C15.5716 12.7041 15.659 12.6183 15.647 12.6302L15.6492 12.6279C15.717 12.5614 15.7573 12.5208 15.7801 12.4956C15.811 12.4633 15.8424 12.4711 15.8737 12.511C15.8867 12.5275 15.8999 12.5494 15.9164 12.5804C15.9224 12.5918 15.939 12.6244 15.9502 12.6464L15.9503 12.6465L15.9503 12.6465L15.9503 12.6465L15.9607 12.6669C15.9876 12.7189 16.0098 12.7562 16.0266 12.7844L16.0408 12.8084C16.0926 12.7567 16.1624 12.7083 16.2629 12.6511C16.2765 12.6433 16.3189 12.6205 16.3714 12.5922C16.4656 12.5415 16.5923 12.4732 16.6436 12.4432C16.7636 12.3729 16.8624 12.3043 16.9489 12.2277C16.9262 12.2071 16.9052 12.1591 16.8779 12.0759C16.8705 12.0531 16.8701 12.0518 16.8497 11.9864C16.8202 11.8914 16.8037 11.844 16.7845 11.8046C16.7612 11.7569 16.7408 11.7392 16.722 11.7491L16.7522 11.733C16.769 11.7424 16.785 11.7642 16.8008 11.7965C16.8206 11.8371 16.8373 11.885 16.8671 11.9809C16.8874 12.0462 16.8878 12.0475 16.8952 12.0701C16.9246 12.1598 16.9471 12.2078 16.9678 12.219L16.9695 12.2339C16.8799 12.3144 16.7777 12.3859 16.6528 12.459C16.6011 12.4893 16.4737 12.5579 16.3795 12.6087L16.3795 12.6087L16.3795 12.6087C16.3273 12.6368 16.2853 12.6594 16.2719 12.6671C16.1726 12.7235 16.104 12.7712 16.0408 12.8214C16.0088 12.7895 15.9808 12.7453 15.9446 12.6754L15.934 12.6547L15.934 12.6547L15.9339 12.6545C15.9227 12.6325 15.9063 12.6003 15.9003 12.589C15.8843 12.5589 15.8716 12.5378 15.8594 12.5223C15.8342 12.4902 15.8151 12.4854 15.7934 12.5082C15.7704 12.5335 15.73 12.5742 15.6619 12.6411L15.6596 12.6433C15.6683 12.6348 15.6266 12.6757 15.5952 12.7065C15.5817 12.7033 15.5679 12.7082 15.5533 12.7221L15.566 12.7353L15.5952 12.7065C15.6132 12.7109 15.6309 12.7296 15.6496 12.7604C15.6547 12.7687 15.6599 12.7779 15.6664 12.7898L15.6832 12.8211C15.716 12.8815 15.7381 12.9111 15.7645 12.9223L15.7669 12.9378C15.552 13.1199 15.2379 13.3579 15.0944 13.4297L15.1803 13.602C15.2737 13.5487 15.3568 13.4891 15.472 13.3964C15.4958 13.3773 15.5821 13.3069 15.5782 13.3101C15.6216 13.2748 15.6553 13.248 15.6892 13.2219C15.8267 13.116 15.9527 13.0348 16.1004 12.9624C16.5979 12.7187 17.0692 12.4158 17.5151 12.0426C17.4871 12.0155 17.4418 11.9673 17.4077 11.9289L17.414 11.9253L17.4027 11.9234L17.4077 11.9289C17.329 11.9741 17.2549 12.0243 17.1849 12.0722C17.1433 12.028 17.1118 11.9637 17.0789 11.8681C17.0745 11.8552 17.0644 11.8242 17.0547 11.7943L17.0547 11.7942C17.0454 11.7657 17.0365 11.7381 17.0331 11.7283C17.0167 11.681 17.0031 11.6515 16.9887 11.6345C16.9737 11.6167 16.9594 11.6141 16.9402 11.6271C16.9138 11.6447 16.8354 11.6883 16.7522 11.733C16.7398 11.726 16.7269 11.7257 16.7134 11.7329L16.7219 11.7491L16.7219 11.7491L16.7134 11.7329C16.8066 11.6834 16.9013 11.631 16.9301 11.6119C16.9571 11.5935 16.9818 11.5979 17.0026 11.6226C17.0189 11.6419 17.0332 11.6729 17.0503 11.7222C17.0538 11.7323 17.0628 11.7602 17.0722 11.789L17.0722 11.789C17.0818 11.8188 17.0917 11.8494 17.0961 11.8621C17.1282 11.9554 17.1588 12.0178 17.1857 12.0588ZM14.8253 15.174C14.9142 15.241 15.0481 15.1621 15.216 14.9685C15.3504 14.8136 15.5021 14.5894 15.6464 14.3421L15.632 14.331L14.8242 15.1602L14.8253 15.174ZM14.8449 15.1652L14.8372 15.1731L14.8362 15.1593C14.839 15.1614 14.8419 15.1634 14.8449 15.1652ZM15.2023 14.9564C15.0464 15.1362 14.923 15.212 14.8449 15.1652L15.5919 14.3984C15.46 14.6186 15.3238 14.8163 15.2023 14.9564ZM15.5919 14.3984C15.6049 14.3767 15.6178 14.3548 15.6307 14.3328L15.645 14.3439L15.5919 14.3984ZM15.7467 14.2774C15.8217 14.3332 15.8929 14.3915 15.9598 14.4522L15.9716 14.4383L15.972 14.4386L15.9602 14.4526L15.7464 14.2772L15.7575 14.2627L15.7579 14.2629L15.7467 14.2774ZM15.7583 14.2632L15.7579 14.2629L15.7579 14.2629L15.7583 14.2632ZM15.7583 14.2632L15.9713 14.438L15.9716 14.4383L15.9717 14.4383L15.9713 14.438C15.9044 14.3773 15.8332 14.319 15.7583 14.2632ZM16.9509 15.6101C16.9511 15.6103 16.9513 15.6105 16.9516 15.6108L16.9656 15.5967L16.9653 15.5964C16.9655 15.5965 16.9656 15.5967 16.9658 15.5968L16.9517 15.6109L16.9509 15.6101ZM16.7997 15.4572L16.9509 15.6101C16.9015 15.5629 16.8514 15.5123 16.7997 15.4572ZM16.7991 15.4567C16.7993 15.4569 16.7995 15.457 16.7997 15.4572L16.7991 15.4567L16.7991 15.4567ZM16.8136 15.443L16.7991 15.4567C16.7991 15.4566 16.799 15.4565 16.799 15.4565L16.8134 15.4428L16.8136 15.443ZM16.8141 15.4435L16.9653 15.5964C16.9159 15.5492 16.8659 15.4986 16.8141 15.4435ZM16.8141 15.4435L16.8136 15.443L16.8136 15.4429C16.8138 15.4431 16.8139 15.4433 16.8141 15.4435Z" fill="black"/>
<path fill-rule="evenodd" clip-rule="evenodd" d="M14.8437 14.0091L14.8386 13.9929C14.8459 13.9935 14.8532 13.9942 14.8605 13.995L14.8437 14.0091ZM15.9072 13.9586C15.9224 13.9939 15.9197 14.0344 15.9014 14.079C15.8847 14.1197 15.8564 14.1617 15.8157 14.2108C15.8006 14.229 15.7856 14.2461 15.7467 14.2775C15.4725 14.0732 15.1929 13.9474 14.95 13.9202L14.8605 13.995C15.356 14.0473 15.9617 14.4852 16.3671 15.054C16.7589 15.6038 17.1857 15.9516 17.7088 16.2268C17.6868 16.2639 17.6802 16.2968 17.6737 16.3738L17.6736 16.3758C17.6721 16.394 17.6712 16.4035 17.6699 16.4144C17.6343 16.7285 17.4884 16.9476 17.2916 17.0425C17.1542 17.1088 17.0165 17.097 16.961 17.0234C16.9604 17.0043 16.9585 16.9852 16.9553 16.9642L16.9373 16.9671C16.9373 16.967 16.9373 16.967 16.9373 16.967L16.9553 16.9641C16.9725 17.0701 17.126 17.1021 17.2837 17.026C17.4747 16.9338 17.6169 16.7203 17.6519 16.4123C17.6531 16.4017 17.6539 16.3923 17.6554 16.3742L17.6556 16.3722C17.6623 16.2925 17.6692 16.2577 17.6969 16.2303C17.175 15.9667 16.746 15.6171 16.3523 15.0647C15.9437 14.4914 15.3303 14.0521 14.8371 14.0112L14.832 13.995L14.9451 13.904C15.1984 13.9295 15.4809 14.0566 15.7453 14.264C15.772 14.2339 15.7868 14.217 15.8018 14.199C15.8414 14.1513 15.8687 14.1106 15.8846 14.072C15.9114 14.0066 15.9016 13.9542 15.8462 13.9132C15.8664 13.9277 15.8868 13.9428 15.9072 13.9586ZM15.8557 13.8975C15.8805 13.9156 15.8975 13.9361 15.9072 13.9586C15.9675 14.0051 16.0288 14.057 16.0919 14.1148C16.162 14.1775 16.1 14.2921 15.9594 14.4391C16.138 14.6141 16.3028 14.8034 16.4396 15.0028C16.5542 15.1697 16.674 15.3201 16.7989 15.4555C16.9193 15.3747 16.9826 15.304 16.9765 15.2383C17.0047 15.2716 17.0332 15.304 17.0625 15.3361C17.1208 15.4073 17.071 15.4876 16.939 15.5844C17.1831 15.8357 17.4396 16.017 17.7315 16.1744L17.7448 16.1669C17.7457 16.1532 17.7611 16.1362 17.81 16.0912L17.8183 16.0834C17.8467 16.057 17.8625 16.0403 17.8722 16.024C17.8861 16.0009 17.8843 15.9807 17.8632 15.9674C17.8692 15.9729 17.8958 15.926 17.9073 15.9056C17.9085 15.9035 17.9095 15.9016 17.9104 15.9002C17.9788 15.7809 18.0455 15.7288 18.2042 15.7012C18.0087 15.8232 17.9761 16.0513 18.1228 16.1365C18.1442 16.1465 18.159 16.1535 18.1794 16.1634L18.18 16.1637C18.2215 16.1837 18.2258 16.1857 18.2521 16.1981C18.4643 16.2984 18.5537 16.4233 18.5411 16.5744C18.5305 16.7014 18.4504 16.8435 18.3039 17.0185C18.0867 17.2781 18.0003 17.4878 17.8749 17.9538C17.7397 18.4564 17.6459 18.6782 17.3968 18.9615C17.1769 19.2117 16.8797 19.1253 16.848 18.8977C16.8362 18.813 16.8431 18.7163 16.8677 18.5809C16.8758 18.5364 16.9021 18.4129 16.9245 18.3089C16.9339 18.4008 16.9822 18.459 17.0598 18.4683C17.1761 18.4823 17.3258 18.3813 17.4466 18.1945C17.5474 18.0386 17.5967 17.8919 17.6693 17.5849C17.7054 17.4321 17.7091 17.4164 17.7256 17.354C17.6292 17.299 17.5501 17.2266 17.5047 17.1498C17.5033 17.1474 17.502 17.145 17.5006 17.1426C17.5115 17.1406 17.5223 17.1346 17.533 17.1265C17.5419 17.1198 17.5506 17.1116 17.559 17.1031C17.5741 17.0877 17.5878 17.0717 17.6025 17.0525C17.6073 17.0463 17.6183 17.0314 17.6268 17.02C17.6279 17.0186 17.6289 17.0172 17.6298 17.0159C17.6689 17.0696 17.7239 17.1201 17.7794 17.1498C17.8499 16.9878 17.8479 16.8874 17.7851 16.71L17.7679 16.7102C17.7151 16.8705 17.592 17.067 17.4875 17.1396C17.4875 17.1396 17.4875 17.1396 17.4875 17.1396C17.4875 17.1396 17.4875 17.1396 17.4875 17.1396C17.5092 17.1245 17.5284 17.1081 17.546 17.0902C17.5606 17.0754 17.5738 17.0599 17.5882 17.0412C17.5927 17.0352 17.6036 17.0206 17.6121 17.0092C17.6171 17.0024 17.6213 16.9967 17.6228 16.9948L17.6375 16.9951C17.6386 16.9967 17.6397 16.9983 17.6408 16.9999C17.6394 17.0019 17.638 17.0039 17.6366 17.0059L17.6225 17.0056C17.6248 17.0089 17.6272 17.0123 17.6297 17.0157C17.632 17.0124 17.6343 17.0092 17.6366 17.0059L17.6373 17.0059C17.6361 17.0074 17.6334 17.0111 17.6298 17.0159C17.6298 17.0158 17.6297 17.0157 17.6297 17.0157M17.7765 16.7409C17.8294 16.8991 17.8286 16.9931 17.7751 17.1385C17.7329 17.1044 17.6785 17.0534 17.6408 16.9999C17.6958 16.9209 17.745 16.8272 17.7765 16.7409ZM17.7765 16.7409C17.7738 16.7329 17.7709 16.7246 17.768 16.7162L17.7852 16.716C17.7825 16.7242 17.7796 16.7325 17.7765 16.7409ZM17.4875 17.1396C17.2567 17.3 16.9377 17.2767 16.9502 17.167C16.9512 17.1573 16.9522 17.1484 16.9546 17.1288C16.9597 17.087 16.962 17.055 16.961 17.0234C16.949 17.0075 16.9408 16.9887 16.9373 16.9672M17.4957 17.1562C17.2547 17.3221 16.9171 17.2971 16.9321 17.165C16.9331 17.1552 16.9342 17.1462 16.9366 17.1265C16.9444 17.0611 16.9456 17.021 16.9373 16.9672M17.4957 17.1562C17.5412 17.2435 17.6207 17.315 17.7129 17.3599C17.6915 17.4119 17.6877 17.4276 17.6516 17.5806C17.5795 17.8857 17.5307 18.0309 17.4313 18.1845C17.314 18.366 17.1701 18.4631 17.0619 18.4501C16.9698 18.439 16.9237 18.3487 16.9467 18.2062C16.9467 18.2061 16.9467 18.2059 16.9467 18.2058C16.9534 18.1752 16.958 18.1536 16.9593 18.1476L16.9416 18.1434C16.9362 18.1636 16.932 18.1831 16.929 18.2018C16.9064 18.306 16.8609 18.5162 16.8498 18.5776C16.8249 18.7147 16.8179 18.8132 16.8299 18.9002C16.8639 19.1435 17.1803 19.2354 17.4104 18.9737C17.6619 18.6877 17.7566 18.4638 17.8925 17.9586C18.0172 17.495 18.1027 17.2873 18.3178 17.0303C18.4665 16.8526 18.5482 16.7077 18.5592 16.5759C18.5725 16.4164 18.4784 16.2848 18.2598 16.1815C18.2336 16.1691 18.2293 16.1671 18.1879 16.1471L18.1872 16.1468C18.1667 16.1369 18.1519 16.1299 18.1312 16.1202C17.9887 16.0374 18.0343 15.7998 18.2575 15.6928L18.2525 15.6754C18.0508 15.7015 17.9727 15.7548 17.8946 15.891C17.888 15.9025 17.8692 15.9366 17.8583 15.9564C17.8543 15.9637 17.8514 15.9691 17.8504 15.9707C17.8651 15.9902 17.8658 15.9991 17.8566 16.0145C17.8481 16.0288 17.8331 16.0447 17.806 16.0699L17.7977 16.0776C17.7543 16.1176 17.736 16.1361 17.7296 16.1525C17.4434 15.9972 17.1914 15.8184 16.9507 15.5852C17.0896 15.4967 17.1448 15.4076 17.0762 15.3241C17.0325 15.276 16.9907 15.2277 16.9492 15.177L16.9492 15.177C16.9656 15.197 16.9746 15.2174 16.9765 15.2383C16.963 15.2223 16.9495 15.2061 16.936 15.1897C16.9358 15.1893 16.9355 15.189 16.9352 15.1887L16.9352 15.1887C16.9355 15.189 16.9358 15.1893 16.936 15.1897C16.9924 15.2599 16.938 15.3406 16.8003 15.4418C16.688 15.3083 16.5687 15.1585 16.4546 14.9923C16.317 14.7918 16.1513 14.6014 15.972 14.4387C16.1213 14.2963 16.1868 14.1751 16.104 14.1012C16.0187 14.023 15.9365 13.9553 15.8557 13.8975C15.8543 13.8965 15.8529 13.8955 15.8516 13.8946L15.8516 13.8946C15.8516 13.8946 15.8515 13.8946 15.8515 13.8945L15.8411 13.9096C15.8428 13.9108 15.8445 13.912 15.8462 13.9132C15.8446 13.912 15.8429 13.9108 15.8412 13.9096L15.8516 13.8946C15.853 13.8955 15.8543 13.8965 15.8557 13.8975M16.929 18.2018C16.9226 18.2411 16.9212 18.277 16.9245 18.3089C16.9328 18.2703 16.9405 18.2344 16.9467 18.2062C16.9496 18.1877 16.9538 18.1683 16.9592 18.1481L16.9415 18.1439C16.9402 18.1498 16.9356 18.1711 16.9291 18.2014C16.929 18.2015 16.929 18.2016 16.929 18.2018ZM18.2042 15.7012C18.2201 15.6985 18.2369 15.696 18.2548 15.6936L18.2497 15.6763C18.2337 15.684 18.2185 15.6923 18.2042 15.7012Z" fill="black"/>
<path fill-rule="evenodd" clip-rule="evenodd" d="M18.2799 15.4496L18.1361 15.2744L18.1202 15.2782L18.0678 15.5066L17.8419 15.5045L17.835 15.5194L17.9806 15.7032L17.8386 15.8786L17.8458 15.8933L18.0795 15.8948L18.1259 16.1159L18.1419 16.1195L18.2885 15.9363L18.4913 16.0364L18.5039 16.0259L18.4509 15.7972L18.6557 15.7006L18.6556 15.6842L18.4447 15.5813L18.4993 15.3612L18.4865 15.3509L18.2799 15.4496ZM18.4776 15.3755L18.2813 15.4692L18.2704 15.4668L18.1334 15.2999L18.138 15.2823L18.1221 15.2861L18.1334 15.2999L18.0769 15.5178L17.86 15.5224L17.8492 15.5079L17.8423 15.5228L17.86 15.5224L17.9949 15.703L17.8638 15.8756L17.8459 15.875L17.8531 15.8897L17.8638 15.8756L18.0884 15.8834L18.1394 16.0941L18.1277 16.108L18.1436 16.1116L18.1394 16.0941L18.2852 15.9222L18.4826 16.0122L18.4862 16.0301L18.4988 16.0196L18.4826 16.0122L18.438 15.7911L18.6317 15.6923L18.6477 15.7007L18.6475 15.6843L18.6317 15.6923L18.4319 15.5876L18.4776 15.3755ZM18.4776 15.3755L18.4943 15.3675L18.4815 15.3573L18.4776 15.3755Z" fill="black"/>
<path fill-rule="evenodd" clip-rule="evenodd" d="M17.5734 10.6251C18.0553 10.4841 18.4609 10.0839 18.5541 9.65272L18.566 9.64601C19.1235 9.8428 19.6211 10.1036 20.0799 10.4165C20.2703 10.5463 20.3839 10.5985 20.7179 10.7284C20.877 10.7902 20.9707 10.8315 21.066 10.8862C20.8911 10.4115 21.0054 9.68928 21.3355 9.05825C21.7259 8.31183 21.805 7.74943 21.7558 6.93699C21.7284 6.48534 21.9628 6.37312 22.456 6.46208C22.7778 6.52016 23.0074 6.49143 23.4412 6.37593L23.4749 6.36696C23.9668 6.23572 24.2104 6.20652 24.5795 6.2826C24.9194 6.35255 24.9986 6.6749 24.8064 6.82594C24.7336 6.88323 24.6398 6.92792 24.4949 6.97858C24.4493 6.99452 24.3086 7.03983 24.2069 7.07258C24.157 7.08863 24.1165 7.10167 24.1011 7.10676L24.0859 7.11203C24.1009 7.10283 24.1137 7.09205 24.1244 7.0799L24.2016 7.05503L24.2017 7.05499L24.2017 7.05497L24.2018 7.05496L24.2019 7.05492C24.3036 7.02218 24.4437 6.97709 24.489 6.96124C24.6321 6.91119 24.7243 6.86725 24.7952 6.81147C24.975 6.67014 24.9006 6.36742 24.5759 6.30058C24.2102 6.2252 23.969 6.25413 23.4795 6.3847L23.4459 6.39367C23.0097 6.5098 22.7778 6.53881 22.4528 6.48014C21.9695 6.39297 21.7475 6.49927 21.7739 6.93587C21.8233 7.75137 21.7438 8.31693 21.3516 9.0668C21.0181 9.70443 20.9064 10.4354 21.0922 10.9038L21.0791 10.9151C20.9768 10.8542 20.882 10.8119 20.7113 10.7455C20.3761 10.6151 20.2616 10.5626 20.0697 10.4317C19.6148 10.1215 19.1216 9.86258 18.5697 9.66675L18.5719 9.65662L18.56 9.66333L18.5697 9.66675C18.4709 10.1009 18.0628 10.501 17.5845 10.637C17.4615 10.9837 17.657 11.557 17.9853 11.8953C18.1627 11.9777 18.347 12.0462 18.539 12.102C19.1303 12.2741 19.6146 12.3116 20.577 12.3139C21.071 12.3151 21.2638 12.3218 21.4698 12.3549C21.797 12.4074 22.2447 12.1528 22.3018 11.7611C22.3113 11.696 22.3248 11.6364 22.3445 11.5682C22.3567 11.526 22.4102 11.3579 22.4051 11.3744C22.4323 11.2873 22.4536 11.211 22.4744 11.123C22.5419 10.8367 22.5914 10.4669 22.6236 9.9358C22.636 9.73107 22.6393 9.64997 22.6555 9.21289C22.6757 8.66545 22.6944 8.44305 22.7467 8.28675C22.883 7.87892 22.9921 7.69581 23.222 7.60256C23.3141 7.5652 23.3994 7.52032 23.4931 7.46151L23.4961 7.47001L23.5079 7.47388C23.4113 7.5348 23.3236 7.5811 23.2288 7.61959C23.0056 7.7101 22.8986 7.88972 22.7639 8.29261C22.7125 8.44645 22.6938 8.66849 22.6737 9.21357C22.6575 9.65082 22.6542 9.73198 22.6418 9.93692C22.6095 10.469 22.5599 10.8398 22.4921 11.1273C22.4712 11.2157 22.4498 11.2924 22.4224 11.3799C22.4275 11.3637 22.3741 11.5314 22.3619 11.5733C22.3425 11.6408 22.3292 11.6996 22.3198 11.7638C22.261 12.1666 21.8033 12.427 21.4669 12.373C21.2622 12.3401 21.0699 12.3334 20.5769 12.3323C19.613 12.33 19.1274 12.2924 18.5339 12.1196C18.3411 12.0635 18.1559 11.9948 17.975 11.91C17.6396 11.5653 17.4417 10.985 17.5734 10.6251ZM23.5265 7.46198L23.5079 7.47388L23.5098 7.47452C23.5157 7.47051 23.5213 7.46633 23.5265 7.46198ZM23.5706 7.41108C23.5594 7.42995 23.5447 7.44698 23.5265 7.46198C23.5568 7.44251 23.5881 7.42161 23.6207 7.39905C23.6391 7.38638 23.6795 7.35784 23.7174 7.33108L23.7209 7.33259C23.7347 7.32258 23.7474 7.31233 23.7589 7.30174L23.797 7.27488C23.863 7.22896 23.9139 7.19621 23.9631 7.16889C23.992 7.15283 24.0198 7.13903 24.047 7.12739L24.0504 7.12924C24.0634 7.12436 24.0752 7.1186 24.0859 7.11203C24.0731 7.11665 24.0601 7.12177 24.047 7.12739L24.0359 7.12139L24.0353 7.11249C24.042 7.10957 24.0486 7.10678 24.0552 7.10411L24.0554 7.1067C24.0511 7.10872 24.0466 7.11061 24.0419 7.11236L24.0564 7.12021L24.0554 7.1067C24.0617 7.10378 24.0676 7.10059 24.0732 7.09715C24.0807 7.09438 24.0881 7.09178 24.0955 7.08933L24.1244 7.0799C24.2056 6.98745 24.1632 6.81556 24.0211 6.65713L24.0026 6.66341L24.0353 7.11249C24.009 7.12396 23.9821 7.13737 23.9543 7.15281C23.9094 7.17774 23.8633 7.20701 23.8061 7.24636C23.8828 7.1254 23.833 6.95707 23.629 6.66053L23.6125 6.66706L23.7053 7.31723C23.6679 7.34363 23.6285 7.37147 23.6104 7.38391C23.5969 7.39325 23.5836 7.4023 23.5706 7.41108ZM23.5156 7.44723C23.5336 7.43571 23.5519 7.42367 23.5706 7.41108C23.654 7.27062 23.5455 7.02768 23.2612 6.75453L23.2464 6.76425L23.4931 7.46151L23.5089 7.45151L23.5092 7.45236C23.5061 7.45475 23.5029 7.45707 23.4996 7.45933L23.5133 7.46385L23.5092 7.45236L23.5156 7.44723ZM23.2766 6.79515C23.5691 7.08607 23.6519 7.33312 23.5156 7.44723L23.5089 7.45151L23.2766 6.79515ZM23.2766 6.79515C23.2675 6.78608 23.2582 6.77696 23.2487 6.76781L23.2635 6.75808L23.2766 6.79515ZM23.722 7.30542L23.7053 7.31723L23.7066 7.32644L23.7174 7.33108L23.7373 7.31703L23.7374 7.31695L23.7377 7.31672L23.7377 7.31669L23.7589 7.30174C23.7779 7.28429 23.7936 7.26594 23.8061 7.24636L23.7867 7.25978L23.7473 7.28757C23.8701 7.17352 23.8475 7.01847 23.6361 6.70342L23.6305 6.66445L23.614 6.67098L23.6361 6.70342L23.722 7.30542ZM23.7224 7.30859C23.7313 7.30172 23.7396 7.29472 23.7473 7.28757L23.7271 7.30178L23.7271 7.3018L23.722 7.30542L23.7224 7.30859ZM23.7224 7.30859L23.7103 7.31768L23.7246 7.32382L23.7224 7.30859ZM24.0253 6.69265L24.0552 7.10411C24.0613 7.10168 24.0673 7.09936 24.0732 7.09715C24.1846 7.02849 24.1615 6.85761 24.0253 6.69265ZM24.0253 6.69265L24.0231 6.66223L24.0045 6.6685C24.0117 6.67653 24.0186 6.68458 24.0253 6.69265Z" fill="black"/>
<path fill-rule="evenodd" clip-rule="evenodd" d="M18.2626 10.3965C18.2192 10.3781 18.1738 10.3603 18.1259 10.3428L18.123 10.3272C18.1347 10.3171 18.1495 10.3037 18.1648 10.2899C18.1857 10.2709 18.2075 10.2512 18.2233 10.2383C18.2471 10.2476 18.2702 10.257 18.2929 10.2665C18.4691 10.3409 18.5461 10.3857 18.7793 10.5364C19.0589 10.7172 19.2522 10.8019 19.6511 10.8853C20.1254 10.9847 20.7271 11.1995 21.0089 11.3678L20.9687 11.4851C20.6924 11.3276 20.0926 11.1135 19.6203 11.0147C19.219 10.9307 19.0237 10.8452 18.7423 10.6632C18.5113 10.5139 18.4356 10.4698 18.2626 10.3965ZM18.1349 10.3412L18.132 10.3255C18.1369 10.3273 18.1418 10.3291 18.1466 10.3309C18.1425 10.3346 18.1385 10.338 18.1349 10.3412ZM18.2268 10.2529C18.2113 10.2709 18.1746 10.306 18.1466 10.3309C18.1895 10.3467 18.2304 10.3629 18.2696 10.3796C18.444 10.4535 18.5203 10.4979 18.7521 10.6478C19.0318 10.8286 19.225 10.9133 19.624 10.9968C20.0981 11.0959 20.6996 11.3107 20.9643 11.4749L20.9956 11.3736C20.7199 11.2164 20.12 11.0023 19.6474 10.9033C19.2461 10.8193 19.0508 10.7338 18.7695 10.5519C18.5371 10.4017 18.4608 10.3573 18.2858 10.2834C18.2846 10.2829 18.2834 10.2824 18.2821 10.2819C18.2609 10.2729 18.2396 10.264 18.2268 10.2529Z" fill="black"/>
<path fill-rule="evenodd" clip-rule="evenodd" d="M21.8649 8.57552C21.8884 8.50797 21.9086 8.44419 21.9259 8.38259L21.9058 8.37793L21.9057 8.37815L21.9057 8.37815C21.9056 8.37833 21.9056 8.37852 21.9055 8.3787L21.8452 8.56945C21.8452 8.56966 21.8451 8.56988 21.845 8.5701L21.845 8.5701L21.8449 8.57037L21.8649 8.57552ZM21.845 8.5701L21.865 8.57525L21.9258 8.38281L21.9057 8.37815L21.9055 8.3787C21.8884 8.43959 21.8685 8.50265 21.8452 8.56945L21.845 8.5701ZM18.7506 9.93629C18.6769 9.90873 18.5934 9.86752 18.5125 9.81949L18.5085 9.80869L18.5186 9.77763C18.5328 9.7334 18.5491 9.68273 18.5662 9.64615C19.1236 9.84294 19.6212 10.1038 20.0801 10.4167C20.2704 10.5465 20.3841 10.5986 20.718 10.7285C20.8896 10.7952 20.9851 10.8379 21.0917 10.912L20.9775 11.0889C20.835 11.0048 20.4829 10.8533 20.2219 10.7573C20.2208 10.7832 20.2089 10.813 20.187 10.8517C20.1819 10.8605 20.1767 10.8694 20.1693 10.8815C20.135 10.9379 20.1283 10.95 20.1223 10.9697C20.1152 10.9932 20.1202 11.0054 20.1421 11.0119L20.1371 11.0295L20.1369 11.0295L20.1419 11.0118L20.1032 11.0009C20.1 10.9907 20.1006 10.9784 20.1049 10.9643C20.1116 10.9424 20.1183 10.9303 20.1538 10.8719C20.161 10.86 20.1663 10.8512 20.1712 10.8426C20.1955 10.7998 20.2063 10.7693 20.2033 10.7451L20.2154 10.7354C20.4786 10.8315 20.8406 10.9869 20.9743 11.0763L21.0793 10.9153C20.9769 10.8544 20.8822 10.812 20.7115 10.7456C20.3762 10.6152 20.2617 10.5627 20.0699 10.4319C19.6123 10.1198 19.1161 9.8597 18.572 9.65698C18.5629 9.69477 18.5441 9.75821 18.5281 9.80742L18.5218 9.80368L18.5258 9.81447L18.5281 9.80742C18.6062 9.85334 18.6864 9.89294 18.7625 9.93029C18.7598 9.93965 18.7564 9.94914 18.7524 9.95878C18.7294 10.0141 18.6897 10.0689 18.6239 10.1437L18.5922 10.1793L18.5542 10.2219C18.5298 10.2498 18.5132 10.2705 18.5013 10.2887C18.4744 10.3298 18.4742 10.3526 18.5026 10.3665C18.5308 10.3807 18.606 10.4264 18.6875 10.4776C18.6877 10.4919 18.6939 10.5033 18.7067 10.5115L18.7164 10.4959L18.7164 10.4959L18.7067 10.5115C18.6153 10.4536 18.5252 10.3984 18.4945 10.3829C18.4537 10.3629 18.454 10.3276 18.4861 10.2786C18.4986 10.2596 18.5156 10.2383 18.5406 10.2097L18.5788 10.1669L18.6103 10.1315C18.6748 10.0581 18.7136 10.0046 18.7356 9.95168L18.7362 9.95028C18.7397 9.94176 18.7429 9.93392 18.7506 9.93629ZM18.6875 10.4776C18.6872 10.4588 18.6972 10.4349 18.7158 10.4063C18.7398 10.3695 18.7732 10.3299 18.8367 10.2602L18.8449 10.2512C18.9624 10.1224 18.9981 10.077 18.9972 10.0463L19.0092 10.0373C19.1561 10.0863 19.2933 10.1571 19.4715 10.2678L19.4779 10.2718C19.5137 10.2945 19.6888 10.4055 19.7387 10.4349C19.8325 10.4902 19.9056 10.5249 19.9785 10.5545C19.9705 10.5851 19.9556 10.6185 19.9336 10.6575C19.9224 10.6773 19.91 10.6976 19.8931 10.7241L19.8922 10.7254L19.8922 10.7254C19.8372 10.8117 19.8263 10.8287 19.8183 10.8471C19.8163 10.8516 19.8145 10.8562 19.8123 10.862L19.812 10.8627C19.7971 10.9005 19.8027 10.9194 19.833 10.927C19.8664 10.9344 19.9219 10.9494 20.0146 10.9757L20.0217 10.9777L20.0848 10.9957L20.1032 11.0009C20.1075 11.0143 20.1186 11.024 20.1369 11.0295L20.0799 11.0134L20.0168 10.9954L20.0097 10.9934C19.9174 10.9672 19.862 10.9522 19.8288 10.9449C19.7857 10.9341 19.7766 10.9029 19.795 10.856L19.7955 10.8548C19.7979 10.8486 19.7998 10.8437 19.8019 10.8389C19.8102 10.8201 19.8214 10.8025 19.8765 10.7162L19.8765 10.7162L19.8778 10.7141C19.8945 10.6879 19.9068 10.6679 19.9178 10.6484C19.9254 10.6349 19.9321 10.6221 19.9383 10.6105C19.9493 10.5896 19.9584 10.5723 19.9673 10.561C19.899 10.5421 19.8246 10.5068 19.7295 10.4507C19.6791 10.421 19.5022 10.3089 19.4678 10.2871L19.4619 10.2834C19.2894 10.1762 19.1557 10.1067 19.0145 10.0584C19.0083 10.0946 18.9695 10.1417 18.8583 10.2636L18.8501 10.2726C18.7873 10.3416 18.7543 10.3807 18.731 10.4164C18.7033 10.459 18.6989 10.4847 18.7163 10.4959L18.6875 10.4776ZM22.6075 10.439C22.6206 10.328 22.486 10.2505 22.2356 10.2008C22.0354 10.161 21.7669 10.1407 21.4821 10.1384L21.4798 10.1565L22.5962 10.4468L22.6075 10.439ZM22.5901 10.4263L22.6007 10.429L22.5894 10.4368C22.5898 10.4333 22.5901 10.4298 22.5901 10.4263ZM21.5578 10.1578C21.8131 10.1628 22.051 10.1828 22.2321 10.2188C22.4645 10.265 22.5914 10.3347 22.5901 10.4263L21.5578 10.1578ZM21.5578 10.1578C21.5327 10.1573 21.5074 10.157 21.482 10.1568L21.4843 10.1387L21.5578 10.1578ZM21.3791 10.083C21.3912 9.98933 21.4077 9.89813 21.4291 9.80968L21.4086 9.80631L21.3585 10.0805L21.3791 10.083ZM21.379 10.0834L21.3584 10.0809C21.3705 9.98669 21.3872 9.89491 21.4087 9.80586L21.4292 9.80923L21.379 10.0834Z" fill="black"/>
<path fill-rule="evenodd" clip-rule="evenodd" d="M21.7503 9.16054C21.4619 9.80385 21.391 10.559 21.6025 11.01L21.5911 11.0225L21.4564 10.9696C21.3517 10.7354 21.3197 10.4253 21.3657 10.0908L21.3197 10.0813C21.2818 10.0737 21.2521 10.0687 21.2232 10.0657C21.0965 10.0525 21.0241 10.0828 21.0138 10.1785C21.0162 10.1531 21.0191 10.1273 21.0225 10.101C21.0586 10.0521 21.1283 10.0373 21.2251 10.0474C21.2547 10.0505 21.2849 10.0556 21.3233 10.0633C21.3338 10.0654 21.3666 10.0723 21.3766 10.0829C21.3382 10.4243 21.3698 10.7312 21.4678 10.9572L21.5769 10.9977C21.5799 11.0045 21.5829 11.0112 21.5861 11.0179L21.5974 11.0053L21.5769 10.9977C21.3741 10.5391 21.4475 9.79131 21.7337 9.15299C22.0102 8.5359 22.0956 7.98937 22.0704 7.39552C22.1125 7.39625 22.1448 7.38548 22.2109 7.35418L22.2141 7.35269C22.2322 7.3441 22.2407 7.34019 22.2511 7.33565C22.5387 7.20979 22.7999 7.22761 22.9799 7.35187C23.105 7.43823 23.1636 7.56352 23.1291 7.64878C23.1135 7.65845 23.0997 7.669 23.0806 7.68451L23.092 7.69877C23.092 7.69878 23.092 7.6988 23.092 7.69881L23.0805 7.68456C23.1631 7.6166 23.1139 7.46662 22.9696 7.36701C22.795 7.24643 22.5404 7.22907 22.2583 7.35249C22.2481 7.35693 22.2398 7.36079 22.2218 7.3693L22.2187 7.37079C22.1501 7.40324 22.1159 7.41466 22.0793 7.40415C22.1139 7.9911 22.028 8.54057 21.7503 9.16054ZM22.9653 7.13232C23.2185 7.25358 23.3579 7.54352 23.2574 7.58769L23.2453 7.59309C23.183 7.62031 23.1538 7.63344 23.1291 7.64878C23.1214 7.66768 23.1092 7.68461 23.0921 7.69871M22.9755 7.11689C23.2385 7.24427 23.3857 7.55133 23.2648 7.60446L23.2525 7.60993C23.1527 7.65356 23.1398 7.66012 23.0921 7.69871M22.9755 7.11689C23.0277 7.03342 23.0494 6.92825 23.0419 6.82538C23.0835 6.82178 23.1307 6.80807 23.1981 6.78785C23.4118 6.7238 23.4484 6.71334 23.5389 6.69325C23.6674 6.66474 23.7799 6.65286 23.8911 6.65892C24.1058 6.6706 24.2611 6.74766 24.3041 6.84857C24.3406 6.93411 24.2867 7.01914 24.1542 7.07036C24.1268 7.07918 24.1059 7.08597 24.0957 7.08933L24.1009 7.10691C24.1217 7.1013 24.1412 7.09496 24.1593 7.08797C24.1737 7.08334 24.1898 7.07814 24.2071 7.07259C24.3088 7.03983 24.4496 6.99452 24.4952 6.97858C24.6401 6.92792 24.7339 6.88323 24.8067 6.82594C24.9989 6.6749 24.9196 6.35255 24.5798 6.2826C24.2106 6.20652 23.9671 6.23572 23.4751 6.36696L23.4415 6.37593C23.0077 6.49143 22.778 6.52016 22.4563 6.46208C22.2292 6.42113 22.0639 6.42231 21.9452 6.47859C21.8014 6.54675 21.7355 6.69473 21.756 6.93721C21.7569 6.94689 21.7574 6.95311 21.7579 6.95933C21.7588 6.97058 21.7597 6.98183 21.7621 7.01351L21.7624 7.01733C21.7641 7.03946 21.7655 7.05664 21.7677 7.08011C21.7677 7.24597 21.5408 7.32487 21.3373 7.18341L21.3249 7.19652C21.3999 7.29586 21.4648 7.35125 21.5339 7.37814C21.5892 7.39965 21.6305 7.40278 21.7433 7.40064L21.7795 7.40007C21.789 7.37696 21.797 7.37177 21.8166 7.37271C21.8342 7.37355 21.8551 7.3789 21.8944 7.39137L21.8997 7.39307C21.9536 7.41028 21.9787 7.41691 21.9961 7.41441C22.0059 7.7414 21.9781 8.05118 21.8981 8.37805C21.7523 8.30118 21.6487 8.29752 21.611 8.39905C21.5912 8.46231 21.5707 8.5227 21.5482 8.58328L21.5482 8.58328C21.5572 8.55899 21.5702 8.541 21.5872 8.52888C21.5801 8.54897 21.5729 8.56898 21.5655 8.58901C21.5654 8.58924 21.5653 8.58947 21.5652 8.5897L21.5652 8.5897C21.5653 8.58947 21.5654 8.58924 21.5655 8.58901C21.5974 8.50426 21.694 8.5113 21.8501 8.58108C21.7916 8.74591 21.7225 8.92501 21.6369 9.10763C21.5334 9.32783 21.4527 9.56761 21.4025 9.80572C21.2059 9.74651 21.0686 9.74985 21.0464 9.85922C21.022 9.9728 21.005 10.0778 20.9957 10.1767M21.3715 7.22597C21.5738 7.33542 21.7859 7.24995 21.7859 7.07926C21.7837 7.05505 21.7822 7.03796 21.7806 7.0159L21.7803 7.01209C21.7778 6.98039 21.777 6.96912 21.776 6.95785C21.7755 6.9516 21.775 6.94536 21.7742 6.93565C21.7542 6.70021 21.8168 6.55973 21.9529 6.49519C22.0673 6.44097 22.2294 6.43981 22.4531 6.48014C22.7781 6.53881 23.01 6.5098 23.4461 6.39367L23.4798 6.3847C23.9692 6.25413 24.2104 6.2252 24.5762 6.30058C24.9009 6.36742 24.9753 6.67014 24.7955 6.81147C24.7246 6.86725 24.6324 6.91119 24.4892 6.96124C24.451 6.97462 24.3451 7.00886 24.2519 7.03889C24.3259 6.98469 24.3517 6.91363 24.3209 6.84133C24.2746 6.73281 24.113 6.65262 23.8921 6.64059C23.7791 6.63444 23.6649 6.64649 23.535 6.67533C23.4438 6.69556 23.4071 6.70605 23.193 6.77027C23.1257 6.79045 23.0786 6.80412 23.0305 6.81719C23.0314 6.92892 23.0088 7.03407 22.9654 7.1122C22.9641 7.11462 22.9627 7.11701 22.9613 7.11938C22.944 7.10751 22.9277 7.09901 22.9095 7.09249C22.8803 7.08203 22.8462 7.07667 22.7944 7.07068L22.7878 7.06989C22.8145 7.00909 22.8304 6.9358 22.8281 6.8724C22.6537 6.89179 22.5685 6.94362 22.4473 7.08726L22.4561 7.10219C22.6204 7.06817 22.8507 7.07738 22.9653 7.13231C22.9653 7.13232 22.9653 7.13232 22.9653 7.13232M22.7877 7.07014C22.7877 7.07006 22.7878 7.06997 22.7878 7.06989L22.7755 7.0684L22.7758 7.06893L22.7825 7.08145C22.7843 7.07774 22.786 7.07397 22.7877 7.07014ZM21.3715 7.22597C21.4312 7.29756 21.4847 7.33932 21.5404 7.36102C21.5928 7.38138 21.6326 7.38439 21.743 7.3823C21.7608 7.38196 21.7687 7.38183 21.7703 7.39057C21.7712 7.36443 21.7888 7.35301 21.8174 7.35438C21.8372 7.35532 21.859 7.3609 21.8998 7.37387L21.9052 7.37558C21.966 7.39497 21.9888 7.39995 22.0008 7.39397L22.0139 7.40189C22.0248 7.73488 21.9972 8.04986 21.9033 8.38864C21.7538 8.3219 21.6603 8.3186 21.6282 8.40502C21.615 8.44713 21.6015 8.48815 21.5872 8.52888C21.6405 8.49081 21.7329 8.51077 21.8625 8.57538C21.8087 8.75214 21.7394 8.93206 21.6533 9.11548C21.5505 9.3344 21.4702 9.57282 21.4092 9.81653C21.2128 9.76717 21.083 9.77034 21.0642 9.863C21.0462 9.94679 21.0323 10.0258 21.0225 10.101C21.008 10.1206 20.999 10.1456 20.9957 10.1767M21.3715 7.22597C21.361 7.21339 21.3503 7.19989 21.3394 7.18541L21.327 7.19852C21.3417 7.20876 21.3566 7.2179 21.3715 7.22597ZM24.2519 7.03889C24.2346 7.04446 24.2178 7.04987 24.2019 7.05499C24.1847 7.06054 24.1686 7.06573 24.1542 7.07036C24.1363 7.07728 24.1169 7.08358 24.0962 7.08919L24.1014 7.10676C24.1114 7.10343 24.1322 7.09671 24.1593 7.08797C24.1956 7.074 24.2266 7.05743 24.2519 7.03889ZM20.9951 10.1829L21.0133 10.1844C21.0134 10.1824 21.0136 10.1805 21.0138 10.1785C21.0136 10.1805 21.0134 10.1825 21.0133 10.1845L20.9951 10.183C20.9951 10.1829 20.9951 10.1829 20.9951 10.1829Z" fill="black"/>
</g>
</svg>
