<svg width="35" height="24" viewBox="0 0 35 24" fill="none" xmlns="http://www.w3.org/2000/svg">
<rect y="0.000976562" width="35" height="24" rx="2" fill="white"/>
<mask id="mask0_636_26825" style="mask-type:alpha" maskUnits="userSpaceOnUse" x="0" y="0" width="35" height="25">
<rect y="0.000976562" width="35" height="24" rx="2" fill="white"/>
</mask>
<g mask="url(#mask0_636_26825)">
<path fill-rule="evenodd" clip-rule="evenodd" d="M35 0.000976562H0V1.60098H35V0.000976562ZM35 3.20098H0V4.80098H35V3.20098ZM0 6.40098H35V8.00098H0V6.40098ZM35 9.60098H0V11.201H35V9.60098ZM0 12.801H35V14.401H0V12.801ZM35 16.001H0V17.601H35V16.001ZM0 19.201H35V20.801H0V19.201ZM35 22.401H0V24.001H35V22.401Z" fill="#D02F44"/>
<rect y="0.000976562" width="15" height="11.2" fill="#46467F"/>
<g filter="url(#filter0_d_636_26825)">
<path fill-rule="evenodd" clip-rule="evenodd" d="M3.33366 2.40059C3.33366 2.84241 2.96056 3.20059 2.50033 3.20059C2.04009 3.20059 1.66699 2.84241 1.66699 2.40059C1.66699 1.95876 2.04009 1.60059 2.50033 1.60059C2.96056 1.60059 3.33366 1.95876 3.33366 2.40059ZM6.66699 2.40059C6.66699 2.84241 6.2939 3.20059 5.83366 3.20059C5.37342 3.20059 5.00033 2.84241 5.00033 2.40059C5.00033 1.95876 5.37342 1.60059 5.83366 1.60059C6.2939 1.60059 6.66699 1.95876 6.66699 2.40059ZM9.16699 3.20059C9.62723 3.20059 10.0003 2.84241 10.0003 2.40059C10.0003 1.95876 9.62723 1.60059 9.16699 1.60059C8.70675 1.60059 8.33366 1.95876 8.33366 2.40059C8.33366 2.84241 8.70675 3.20059 9.16699 3.20059ZM13.3337 2.40059C13.3337 2.84241 12.9606 3.20059 12.5003 3.20059C12.0401 3.20059 11.667 2.84241 11.667 2.40059C11.667 1.95876 12.0401 1.60059 12.5003 1.60059C12.9606 1.60059 13.3337 1.95876 13.3337 2.40059ZM4.16699 4.80059C4.62723 4.80059 5.00033 4.44241 5.00033 4.00059C5.00033 3.55876 4.62723 3.20059 4.16699 3.20059C3.70675 3.20059 3.33366 3.55876 3.33366 4.00059C3.33366 4.44241 3.70675 4.80059 4.16699 4.80059ZM8.33366 4.00059C8.33366 4.44241 7.96056 4.80059 7.50033 4.80059C7.04009 4.80059 6.66699 4.44241 6.66699 4.00059C6.66699 3.55876 7.04009 3.20059 7.50033 3.20059C7.96056 3.20059 8.33366 3.55876 8.33366 4.00059ZM10.8337 4.80059C11.2939 4.80059 11.667 4.44241 11.667 4.00059C11.667 3.55876 11.2939 3.20059 10.8337 3.20059C10.3734 3.20059 10.0003 3.55876 10.0003 4.00059C10.0003 4.44241 10.3734 4.80059 10.8337 4.80059ZM13.3337 5.60059C13.3337 6.04241 12.9606 6.40059 12.5003 6.40059C12.0401 6.40059 11.667 6.04241 11.667 5.60059C11.667 5.15876 12.0401 4.80059 12.5003 4.80059C12.9606 4.80059 13.3337 5.15876 13.3337 5.60059ZM9.16699 6.40059C9.62723 6.40059 10.0003 6.04241 10.0003 5.60059C10.0003 5.15876 9.62723 4.80059 9.16699 4.80059C8.70675 4.80059 8.33366 5.15876 8.33366 5.60059C8.33366 6.04241 8.70675 6.40059 9.16699 6.40059ZM6.66699 5.60059C6.66699 6.04241 6.2939 6.40059 5.83366 6.40059C5.37342 6.40059 5.00032 6.04241 5.00032 5.60059C5.00032 5.15876 5.37342 4.80059 5.83366 4.80059C6.2939 4.80059 6.66699 5.15876 6.66699 5.60059ZM2.50033 6.40059C2.96056 6.40059 3.33366 6.04241 3.33366 5.60059C3.33366 5.15876 2.96056 4.80059 2.50033 4.80059C2.04009 4.80059 1.66699 5.15876 1.66699 5.60059C1.66699 6.04241 2.04009 6.40059 2.50033 6.40059ZM5.00033 7.20059C5.00033 7.64241 4.62723 8.00059 4.16699 8.00059C3.70675 8.00059 3.33366 7.64241 3.33366 7.20059C3.33366 6.75876 3.70675 6.40059 4.16699 6.40059C4.62723 6.40059 5.00033 6.75876 5.00033 7.20059ZM7.50033 8.00059C7.96056 8.00059 8.33366 7.64241 8.33366 7.20059C8.33366 6.75876 7.96056 6.40059 7.50033 6.40059C7.04009 6.40059 6.66699 6.75876 6.66699 7.20059C6.66699 7.64241 7.04009 8.00059 7.50033 8.00059ZM11.667 7.20059C11.667 7.64241 11.2939 8.00059 10.8337 8.00059C10.3734 8.00059 10.0003 7.64241 10.0003 7.20059C10.0003 6.75876 10.3734 6.40059 10.8337 6.40059C11.2939 6.40059 11.667 6.75876 11.667 7.20059ZM12.5003 9.60059C12.9606 9.60059 13.3337 9.24241 13.3337 8.80059C13.3337 8.35876 12.9606 8.00059 12.5003 8.00059C12.0401 8.00059 11.667 8.35876 11.667 8.80059C11.667 9.24241 12.0401 9.60059 12.5003 9.60059ZM10.0003 8.80059C10.0003 9.24241 9.62723 9.60059 9.16699 9.60059C8.70675 9.60059 8.33366 9.24241 8.33366 8.80059C8.33366 8.35876 8.70675 8.00059 9.16699 8.00059C9.62723 8.00059 10.0003 8.35876 10.0003 8.80059ZM5.83366 9.60059C6.2939 9.60059 6.66699 9.24241 6.66699 8.80059C6.66699 8.35876 6.2939 8.00059 5.83366 8.00059C5.37342 8.00059 5.00032 8.35876 5.00032 8.80059C5.00032 9.24241 5.37342 9.60059 5.83366 9.60059ZM3.33366 8.80059C3.33366 9.24241 2.96056 9.60059 2.50033 9.60059C2.04009 9.60059 1.66699 9.24241 1.66699 8.80059C1.66699 8.35876 2.04009 8.00059 2.50033 8.00059C2.96056 8.00059 3.33366 8.35876 3.33366 8.80059Z" fill="url(#paint0_linear_636_26825)"/>
</g>
</g>
<defs>
<filter id="filter0_d_636_26825" x="1.66699" y="1.60059" width="11.667" height="9" filterUnits="userSpaceOnUse" color-interpolation-filters="sRGB">
<feFlood flood-opacity="0" result="BackgroundImageFix"/>
<feColorMatrix in="SourceAlpha" type="matrix" values="0 0 0 0 0 0 0 0 0 0 0 0 0 0 0 0 0 0 127 0" result="hardAlpha"/>
<feOffset dy="1"/>
<feColorMatrix type="matrix" values="0 0 0 0 0 0 0 0 0 0 0 0 0 0 0 0 0 0 0.06 0"/>
<feBlend mode="normal" in2="BackgroundImageFix" result="effect1_dropShadow_636_26825"/>
<feBlend mode="normal" in="SourceGraphic" in2="effect1_dropShadow_636_26825" result="shape"/>
</filter>
<linearGradient id="paint0_linear_636_26825" x1="1.66699" y1="1.60059" x2="1.66699" y2="9.60059" gradientUnits="userSpaceOnUse">
<stop stop-color="white"/>
<stop offset="1" stop-color="#F0F0F0"/>
</linearGradient>
</defs>
</svg>
