<svg width="35" height="24" viewBox="0 0 35 24" fill="none" xmlns="http://www.w3.org/2000/svg">
<rect x="0.25" y="0.250977" width="34.5" height="23.5" rx="1.75" fill="white" stroke="#F5F5F5" stroke-width="0.5"/>
<mask id="mask0_636_26532" style="mask-type:alpha" maskUnits="userSpaceOnUse" x="0" y="0" width="35" height="25">
<rect x="0.25" y="0.250977" width="34.5" height="23.5" rx="1.75" fill="white" stroke="white" stroke-width="0.5"/>
</mask>
<g mask="url(#mask0_636_26532)">
<path fill-rule="evenodd" clip-rule="evenodd" d="M0 16.001H35V8.00098H0V16.001Z" fill="#0C47B7"/>
<path fill-rule="evenodd" clip-rule="evenodd" d="M0 24.001H35V16.001H0V24.001Z" fill="#E53B35"/>
<path d="M8.36462 4.13411C7.2912 4.13411 6.40919 4.98149 6.36622 6.05405L6.02736 14.5121C6.0023 15.1376 6.27156 15.7388 6.75496 16.1365L10.8059 19.4699C11.7903 20.2799 13.2103 20.2799 14.1947 19.4699L18.2456 16.1365C18.729 15.7388 18.9983 15.1376 18.9732 14.5121L18.6344 6.05405C18.5914 4.98149 17.7094 4.13411 16.636 4.13411H8.36462Z" fill="#F73744" stroke="white" stroke-width="1.33333"/>
<mask id="mask1_636_26532" style="mask-type:alpha" maskUnits="userSpaceOnUse" x="5" y="3" width="15" height="18">
<path d="M8.36462 4.13411C7.2912 4.13411 6.40919 4.98149 6.36622 6.05405L6.02736 14.5121C6.0023 15.1376 6.27156 15.7388 6.75496 16.1365L10.8059 19.4699C11.7903 20.2799 13.2103 20.2799 14.1947 19.4699L18.2456 16.1365C18.729 15.7388 18.9983 15.1376 18.9732 14.5121L18.6344 6.05405C18.5914 4.98149 17.7094 4.13411 16.636 4.13411H8.36462Z" fill="white" stroke="white" stroke-width="1.33333"/>
</mask>
<g mask="url(#mask1_636_26532)">
<path fill-rule="evenodd" clip-rule="evenodd" d="M11.667 13.1337C11.667 12.9496 11.5178 12.8004 11.3337 12.8004H9.50033C9.31623 12.8004 9.16699 12.6512 9.16699 12.4671V11.5337C9.16699 11.3496 9.31623 11.2004 9.50033 11.2004H11.3337C11.5178 11.2004 11.667 11.0512 11.667 10.8671V9.93372C11.667 9.74963 11.5178 9.60039 11.3337 9.60039H10.3337C10.1496 9.60039 10.0003 9.45115 10.0003 9.26706V8.33372C10.0003 8.14963 10.1496 8.00039 10.3337 8.00039H11.3337C11.5178 8.00039 11.667 7.85115 11.667 7.66706V6.73372C11.667 6.54963 11.8162 6.40039 12.0003 6.40039H13.0003C13.1844 6.40039 13.3337 6.54963 13.3337 6.73372V7.66706C13.3337 7.85115 13.4829 8.00039 13.667 8.00039H14.667C14.8511 8.00039 15.0003 8.14963 15.0003 8.33372V9.26706C15.0003 9.45115 14.8511 9.60039 14.667 9.60039H13.667C13.4829 9.60039 13.3337 9.74963 13.3337 9.93372V10.8671C13.3337 11.0512 13.4829 11.2004 13.667 11.2004H15.5003C15.6844 11.2004 15.8337 11.3496 15.8337 11.5337V12.4671C15.8337 12.6512 15.6844 12.8004 15.5003 12.8004H13.667C13.4829 12.8004 13.3337 12.9496 13.3337 13.1337V15.6671C13.3337 15.8512 13.1844 16.0004 13.0003 16.0004H12.0003C11.8162 16.0004 11.667 15.8512 11.667 15.6671V13.1337Z" fill="white"/>
<path fill-rule="evenodd" clip-rule="evenodd" d="M14.0044 16.1117C13.7361 15.5732 13.1633 15.2012 12.5 15.2012C11.8367 15.2012 11.2639 15.5732 10.9956 16.1117C8.96931 16.4182 7.5 17.3273 7.5 18.4012C7.5 19.7267 9.73858 20.8012 12.5 20.8012C15.2614 20.8012 17.5 19.7267 17.5 18.4012C17.5 17.3273 16.0307 16.4182 14.0044 16.1117Z" fill="#1251A1"/>
</g>
</g>
</svg>
