<svg width="35" height="24" viewBox="0 0 35 24" fill="none" xmlns="http://www.w3.org/2000/svg">
<rect x="0.25" y="0.250977" width="34.5" height="23.5" rx="1.75" fill="white" stroke="#F5F5F5" stroke-width="0.5"/>
<mask id="mask0_636_26586" style="mask-type:alpha" maskUnits="userSpaceOnUse" x="0" y="0" width="35" height="25">
<rect x="0.25" y="0.250977" width="34.5" height="23.5" rx="1.75" fill="white" stroke="white" stroke-width="0.5"/>
</mask>
<g mask="url(#mask0_636_26586)">
<path fill-rule="evenodd" clip-rule="evenodd" d="M0 12.801H35V0.000976562H0V12.801Z" fill="#E12237"/>
<path fill-rule="evenodd" clip-rule="evenodd" d="M8.33301 11.2006C9.5144 11.2006 10.6001 10.8073 11.4557 10.1496C11.0025 10.3119 10.5119 10.4006 9.99967 10.4006C7.69849 10.4006 5.83301 8.60972 5.83301 6.40059C5.83301 4.19145 7.69849 2.40059 9.99967 2.40059C10.5119 2.40059 11.0025 2.48931 11.4557 2.65162C10.6001 1.99392 9.5144 1.60059 8.33301 1.60059C5.57158 1.60059 3.33301 3.74962 3.33301 6.40059C3.33301 9.05155 5.57158 11.2006 8.33301 11.2006ZM9.99967 5.60059C9.99967 6.04241 9.62658 6.40059 9.16634 6.40059C8.7061 6.40059 8.33301 6.04241 8.33301 5.60059C8.33301 5.15876 8.7061 4.80059 9.16634 4.80059C9.62658 4.80059 9.99967 5.15876 9.99967 5.60059ZM10.833 9.60059C11.2932 9.60059 11.6663 9.24241 11.6663 8.80059C11.6663 8.35876 11.2932 8.00059 10.833 8.00059C10.3728 8.00059 9.99967 8.35876 9.99967 8.80059C9.99967 9.24241 10.3728 9.60059 10.833 9.60059ZM14.9997 8.80059C14.9997 9.24241 14.6266 9.60059 14.1663 9.60059C13.7061 9.60059 13.333 9.24241 13.333 8.80059C13.333 8.35876 13.7061 8.00059 14.1663 8.00059C14.6266 8.00059 14.9997 8.35876 14.9997 8.80059ZM15.833 6.40059C16.2932 6.40059 16.6663 6.04241 16.6663 5.60059C16.6663 5.15876 16.2932 4.80059 15.833 4.80059C15.3728 4.80059 14.9997 5.15876 14.9997 5.60059C14.9997 6.04241 15.3728 6.40059 15.833 6.40059ZM13.333 3.20059C13.333 3.64241 12.9599 4.00059 12.4997 4.00059C12.0394 4.00059 11.6663 3.64241 11.6663 3.20059C11.6663 2.75876 12.0394 2.40059 12.4997 2.40059C12.9599 2.40059 13.333 2.75876 13.333 3.20059Z" fill="white"/>
</g>
</svg>
