<svg width="35" height="24" viewBox="0 0 35 24" fill="none" xmlns="http://www.w3.org/2000/svg">
<rect x="0.25" y="0.250977" width="34.5" height="23.5" rx="1.75" fill="white" stroke="#F5F5F5" stroke-width="0.5"/>
<mask id="mask0_636_26402" style="mask-type:alpha" maskUnits="userSpaceOnUse" x="0" y="0" width="35" height="25">
<rect x="0.25" y="0.250977" width="34.5" height="23.5" rx="1.75" fill="white" stroke="white" stroke-width="0.5"/>
</mask>
<g mask="url(#mask0_636_26402)">
<path fill-rule="evenodd" clip-rule="evenodd" d="M0 24.0012L35 24.0012V11.2012H15.5556L16.6667 12.0012L0 24.0012Z" fill="#DD1C34"/>
<path fill-rule="evenodd" clip-rule="evenodd" d="M35 11.201H15.5556L0 0.000976562H35V11.201Z" fill="#0D4BC3"/>
<path fill-rule="evenodd" clip-rule="evenodd" d="M2.50033 4.80117C2.96056 4.80117 3.33366 4.443 3.33366 4.00117C3.33366 3.55934 2.96056 3.20117 2.50033 3.20117C2.04009 3.20117 1.66699 3.55934 1.66699 4.00117C1.66699 4.443 2.04009 4.80117 2.50033 4.80117ZM12.5003 12.8012C12.9606 12.8012 13.3337 12.443 13.3337 12.0012C13.3337 11.5593 12.9606 11.2012 12.5003 11.2012C12.0401 11.2012 11.667 11.5593 11.667 12.0012C11.667 12.443 12.0401 12.8012 12.5003 12.8012ZM3.33366 20.0012C3.33366 20.443 2.96056 20.8012 2.50033 20.8012C2.04009 20.8012 1.66699 20.443 1.66699 20.0012C1.66699 19.5593 2.04009 19.2012 2.50033 19.2012C2.96056 19.2012 3.33366 19.5593 3.33366 20.0012ZM5.66542 13.5931L4.23914 15.6967L4.78006 13.241C4.69301 13.1727 4.61329 13.0962 4.5422 13.0126L1.98416 13.5319L4.17538 12.1627C4.16983 12.1096 4.16699 12.0557 4.16699 12.0012C4.16699 11.9467 4.16983 11.8928 4.17538 11.8397L1.98416 10.4704L4.5422 10.9897C4.61329 10.9062 4.69301 10.8296 4.78006 10.7614L4.23914 8.30565L5.66542 10.4092C5.72075 10.4039 5.77687 10.4012 5.83366 10.4012C5.89045 10.4012 5.94657 10.4039 6.0019 10.4092L7.42817 8.30565L6.88726 10.7614C6.9743 10.8296 7.05402 10.9062 7.12512 10.9897L9.68316 10.4704L7.49194 11.8397C7.49749 11.8928 7.50033 11.9467 7.50033 12.0012C7.50033 12.0557 7.49749 12.1096 7.49194 12.1627L9.68316 13.5319L7.12512 13.0126C7.05402 13.0962 6.9743 13.1727 6.88726 13.241L7.42817 15.6967L6.0019 13.5931C5.94657 13.5984 5.89045 13.6012 5.83366 13.6012C5.77687 13.6012 5.72075 13.5984 5.66542 13.5931Z" fill="#FDD64D"/>
</g>
</svg>
