<svg width="35" height="24" viewBox="0 0 35 24" fill="none" xmlns="http://www.w3.org/2000/svg">
<rect x="0.25" y="0.250977" width="34.5" height="23.5" rx="1.75" fill="white" stroke="#F5F5F5" stroke-width="0.5"/>
<mask id="mask0_636_25887" style="mask-type:alpha" maskUnits="userSpaceOnUse" x="0" y="0" width="35" height="25">
<rect x="0.25" y="0.250977" width="34.5" height="23.5" rx="1.75" fill="white" stroke="white" stroke-width="0.5"/>
</mask>
<g mask="url(#mask0_636_25887)">
<path fill-rule="evenodd" clip-rule="evenodd" d="M0 8.00098H35V0.000976562H0V8.00098Z" fill="#DF1E35"/>
<path fill-rule="evenodd" clip-rule="evenodd" d="M0 24.001H35V16.001H0V24.001Z" fill="#262626"/>
<path fill-rule="evenodd" clip-rule="evenodd" d="M23.333 10.1303C23.333 9.88488 23.5893 9.72361 23.8106 9.82982L24.8106 10.3098C24.9262 10.3653 24.9997 10.4821 24.9997 10.6103V14.0673C24.9997 14.2513 24.8504 14.4006 24.6663 14.4006H23.6663C23.4822 14.4006 23.333 14.2513 23.333 14.0673V10.1303Z" fill="#0F7A40"/>
<path fill-rule="evenodd" clip-rule="evenodd" d="M13.333 10.1303C13.333 9.88488 13.5893 9.72361 13.8106 9.82982L14.8106 10.3098C14.9262 10.3653 14.9997 10.4821 14.9997 10.6103V14.0673C14.9997 14.2513 14.8504 14.4006 14.6663 14.4006H13.6663C13.4822 14.4006 13.333 14.2513 13.333 14.0673V10.1303Z" fill="#0F7A40"/>
<path fill-rule="evenodd" clip-rule="evenodd" d="M20 10.6103C20 10.4821 20.0735 10.3653 20.1891 10.3098L21.1891 9.82982C21.4104 9.72361 21.6667 9.88488 21.6667 10.1303V14.0673C21.6667 14.2513 21.5174 14.4006 21.3333 14.4006H20.3333C20.1492 14.4006 20 14.2513 20 14.0673V10.6103Z" fill="#0F7A40"/>
<path fill-rule="evenodd" clip-rule="evenodd" d="M16.667 12.2103C16.667 12.0821 16.7405 11.9652 16.8561 11.9097L17.8561 11.4297C18.0774 11.3235 18.3337 11.4848 18.3337 11.7303V12.8722H20.8337V14.4005H18.3337H17.0003C16.8162 14.4005 16.667 14.2513 16.667 14.0672V12.2103Z" fill="#0F7A40"/>
<path fill-rule="evenodd" clip-rule="evenodd" d="M10 12.2103C10 12.0821 10.0735 11.9652 10.1891 11.9097L11.1891 11.4297C11.4104 11.3235 11.6667 11.4848 11.6667 11.7303V12.8722H14.1667V14.4005H11.6667H10.3333C10.1492 14.4005 10 14.2513 10 14.0672V12.2103Z" fill="#0F7A40"/>
</g>
</svg>
