<svg width="35" height="24" viewBox="0 0 35 24" fill="none" xmlns="http://www.w3.org/2000/svg">
<rect x="0.25" y="0.250977" width="34.5" height="23.5" rx="1.75" fill="white" stroke="#F5F5F5" stroke-width="0.5"/>
<mask id="mask0_636_25765" style="mask-type:alpha" maskUnits="userSpaceOnUse" x="0" y="0" width="35" height="25">
<rect x="0.25" y="0.250977" width="34.5" height="23.5" rx="1.75" fill="white" stroke="white" stroke-width="0.5"/>
</mask>
<g mask="url(#mask0_636_25765)">
<path fill-rule="evenodd" clip-rule="evenodd" d="M0 8.00098H35V0.000976562H0V8.00098Z" fill="#FF202D"/>
<path opacity="0.5" fill-rule="evenodd" clip-rule="evenodd" d="M13.333 6.40107L14.1663 5.60107L14.9997 6.40107V8.00107H13.333V6.40107ZM16.6663 6.40107L17.4997 5.60107L18.333 6.40107V8.00107H16.6663V6.40107ZM20.833 5.60107L19.9997 6.40107V8.00107H21.6663V6.40107L20.833 5.60107Z" fill="#1895DB"/>
<path opacity="0.5" fill-rule="evenodd" clip-rule="evenodd" d="M15.8333 5.60107L15 6.40107V8.00107H16.6667V6.40107L15.8333 5.60107ZM19.1667 5.60107L18.3333 6.40107V8.00107H20V6.40107L19.1667 5.60107Z" fill="#191F94"/>
<path fill-rule="evenodd" clip-rule="evenodd" d="M0 24.001H35V16.001H0V24.001Z" fill="#2027AC"/>
<path fill-rule="evenodd" clip-rule="evenodd" d="M14.9997 8.00098H14.1663L13.333 9.60098H14.9997V11.201H13.333V12.801H14.9997V14.401H13.333V16.001H14.9997V14.401H16.6663V16.001H18.333V14.401H19.9997V16.001H21.6663V14.401H19.9997V12.801H21.6663V11.201H19.9997V9.60098H21.6663L20.833 8.00098H19.9997V9.60098H18.333V8.00098H16.6663V9.60098H14.9997V8.00098ZM18.333 11.201H19.9997V12.801H18.333V11.201ZM16.6663 11.201V9.60098H18.333V11.201H16.6663ZM16.6663 12.801H14.9997V11.201H16.6663V12.801ZM16.6663 12.801H18.333V14.401H16.6663V12.801ZM18.333 16.001H19.9997V17.601H18.333V16.001ZM16.6663 16.001H14.9997V17.601H16.6663V16.001Z" fill="url(#paint0_linear_636_25765)"/>
</g>
<defs>
<linearGradient id="paint0_linear_636_25765" x1="13.333" y1="8.00098" x2="13.333" y2="17.601" gradientUnits="userSpaceOnUse">
<stop stop-color="#FF212E"/>
<stop offset="1" stop-color="#FD0D1B"/>
</linearGradient>
</defs>
</svg>
