<svg width="35" height="24" viewBox="0 0 35 24" fill="none" xmlns="http://www.w3.org/2000/svg">
<rect y="0.000976562" width="35" height="24" rx="2" fill="white"/>
<mask id="mask0_636_26909" style="mask-type:alpha" maskUnits="userSpaceOnUse" x="0" y="0" width="35" height="25">
<rect y="0.000976562" width="35" height="24" rx="2" fill="white"/>
</mask>
<g mask="url(#mask0_636_26909)">
<path fill-rule="evenodd" clip-rule="evenodd" d="M0 16.001H35V8.00098H0V16.001Z" fill="#063191"/>
<path fill-rule="evenodd" clip-rule="evenodd" d="M0 24.001H35V16.001H0V24.001Z" fill="#E2213B"/>
<path fill-rule="evenodd" clip-rule="evenodd" d="M17.5003 11.2006C17.9606 11.2006 18.3337 10.8424 18.3337 10.4006C18.3337 9.95876 17.9606 9.60059 17.5003 9.60059C17.0401 9.60059 16.667 9.95876 16.667 10.4006C16.667 10.8424 17.0401 11.2006 17.5003 11.2006ZM14.167 12.0006C14.6272 12.0006 15.0003 11.6424 15.0003 11.2006C15.0003 10.7588 14.6272 10.4006 14.167 10.4006C13.7068 10.4006 13.3337 10.7588 13.3337 11.2006C13.3337 11.6424 13.7068 12.0006 14.167 12.0006ZM21.667 11.2006C21.667 11.6424 21.2939 12.0006 20.8337 12.0006C20.3734 12.0006 20.0003 11.6424 20.0003 11.2006C20.0003 10.7588 20.3734 10.4006 20.8337 10.4006C21.2939 10.4006 21.667 10.7588 21.667 11.2006ZM12.5003 14.4006C12.9606 14.4006 13.3337 14.0424 13.3337 13.6006C13.3337 13.1588 12.9606 12.8006 12.5003 12.8006C12.0401 12.8006 11.667 13.1588 11.667 13.6006C11.667 14.0424 12.0401 14.4006 12.5003 14.4006ZM23.3337 13.6006C23.3337 14.0424 22.9606 14.4006 22.5003 14.4006C22.0401 14.4006 21.667 14.0424 21.667 13.6006C21.667 13.1588 22.0401 12.8006 22.5003 12.8006C22.9606 12.8006 23.3337 13.1588 23.3337 13.6006Z" fill="white"/>
<path fill-rule="evenodd" clip-rule="evenodd" d="M0 8.00098H35V0.000976562H0V8.00098Z" fill="#FFD044"/>
</g>
</svg>
