<svg width="35" height="25" viewBox="0 0 35 25" fill="none" xmlns="http://www.w3.org/2000/svg">
<rect y="0.500977" width="35" height="24" rx="2" fill="white"/>
<mask id="mask0_636_27016" style="mask-type:alpha" maskUnits="userSpaceOnUse" x="0" y="0" width="35" height="25">
<rect y="0.500977" width="35" height="24" rx="2" fill="white"/>
</mask>
<g mask="url(#mask0_636_27016)">
<rect y="0.500977" width="35" height="24" fill="url(#paint0_linear_636_27016)"/>
<path fill-rule="evenodd" clip-rule="evenodd" d="M16.7745 4.50117C16.7046 4.50117 16.6365 4.52315 16.5797 4.56399L13.3869 6.86286C13.3517 6.88816 13.312 6.90637 13.2699 6.91647L10.0348 7.6929C10.0119 7.6984 9.98959 7.70632 9.96834 7.71652L6.76708 9.25312C6.7021 9.28431 6.64898 9.33572 6.61569 9.39965L5.09336 12.3225C5.03614 12.4324 5.04456 12.5649 5.11521 12.6666L6.60743 14.8154C6.6462 14.8713 6.66698 14.9376 6.66698 15.0056V17.1591C6.66698 17.2499 6.70399 17.3367 6.76947 17.3996L8.16692 18.7411C8.26719 18.8374 8.41669 18.8613 8.542 18.8012L13.2653 16.534C13.3103 16.5124 13.3596 16.5012 13.4095 16.5012H16.5501C16.6257 16.5012 16.6992 16.5269 16.7583 16.5742L21.5757 20.4281C21.6348 20.4754 21.7082 20.5012 21.7839 20.5012H24.826C24.9352 20.5012 25.0375 20.4477 25.0998 20.358L28.2741 15.7869C28.3129 15.7311 28.3336 15.6647 28.3336 15.5968V12.6056C28.3336 12.5376 28.3129 12.4713 28.2741 12.4154L25.0003 7.70117L22.5982 3.85784C22.5373 3.76038 22.4305 3.70117 22.3156 3.70117H21.6622C21.3619 3.70117 21.2147 4.06703 21.4314 4.27497L21.4868 4.32822C21.5936 4.43073 21.62 4.59138 21.5516 4.72266L20.9271 5.92182C20.8697 6.03204 20.7557 6.10117 20.6314 6.10117H18.5359C18.4116 6.10117 18.2976 6.03204 18.2402 5.92182L17.5937 4.68053C17.5363 4.57031 17.4224 4.50117 17.2981 4.50117H16.7745ZM24.167 21.3012H22.5003L23.1028 21.8796C23.2318 22.0034 23.4355 22.0034 23.5645 21.8796L24.167 21.3012Z" fill="white"/>
</g>
<defs>
<linearGradient id="paint0_linear_636_27016" x1="0" y1="0.500977" x2="0" y2="24.501" gradientUnits="userSpaceOnUse">
<stop stop-color="#19BFBF"/>
<stop offset="1" stop-color="#10ACAC"/>
</linearGradient>
</defs>
</svg>
