<svg width="35" height="24" viewBox="0 0 35 24" fill="none" xmlns="http://www.w3.org/2000/svg">
<rect y="0.000976562" width="35" height="24" rx="2" fill="white"/>
<mask id="mask0_636_25180" style="mask-type:alpha" maskUnits="userSpaceOnUse" x="0" y="0" width="35" height="25">
<rect y="0.000976562" width="35" height="24" rx="2" fill="white"/>
</mask>
<g mask="url(#mask0_636_25180)">
<rect y="0.000976562" width="35" height="24" fill="#0A17A7"/>
<path fill-rule="evenodd" clip-rule="evenodd" d="M21.667 12.001C21.667 9.60098 21.667 8.00098 21.667 8.00098L23.3337 8.80098L25.0003 8.00098L26.667 8.80098L28.3337 8.00098C28.3337 8.00098 28.3337 9.60098 28.3337 12.001C28.3337 14.401 25.0003 16.001 25.0003 16.001C25.0003 16.001 21.667 14.401 21.667 12.001Z" fill="white"/>
<mask id="mask1_636_25180" style="mask-type:alpha" maskUnits="userSpaceOnUse" x="21" y="8" width="8" height="9">
<path fill-rule="evenodd" clip-rule="evenodd" d="M21.667 12.001C21.667 9.60098 21.667 8.00098 21.667 8.00098L23.3337 8.80098L25.0003 8.00098L26.667 8.80098L28.3337 8.00098C28.3337 8.00098 28.3337 9.60098 28.3337 12.001C28.3337 14.401 25.0003 16.001 25.0003 16.001C25.0003 16.001 21.667 14.401 21.667 12.001Z" fill="white"/>
</mask>
<g mask="url(#mask1_636_25180)">
<rect x="21.667" y="14.4009" width="6.66667" height="1.6" fill="#9ACCFF"/>
<path fill-rule="evenodd" clip-rule="evenodd" d="M25 11.2011C25.4602 11.2011 25.8333 10.8429 25.8333 10.4011C25.8333 9.95925 25.4602 9.60107 25 9.60107C24.5398 9.60107 24.1667 9.95925 24.1667 10.4011C24.1667 10.8429 24.5398 11.2011 25 11.2011ZM23.3333 12.8011C23.7936 12.8011 24.1667 12.4429 24.1667 12.0011C24.1667 11.5592 23.7936 11.2011 23.3333 11.2011C22.8731 11.2011 22.5 11.5592 22.5 12.0011C22.5 12.4429 22.8731 12.8011 23.3333 12.8011ZM27.5 12.0011C27.5 12.4429 27.1269 12.8011 26.6667 12.8011C26.2064 12.8011 25.8333 12.4429 25.8333 12.0011C25.8333 11.5592 26.2064 11.2011 26.6667 11.2011C27.1269 11.2011 27.5 11.5592 27.5 12.0011Z" fill="url(#paint0_linear_636_25180)"/>
</g>
<path d="M0 -0.332357H-0.929698L-0.211799 0.258372L5.5 4.95837V6.22537L-0.188509 10.1261L-0.333333 10.2254V10.401V11.201V11.7897L0.171499 11.4868L6.759 7.53431H8.23003L13.9094 11.4288C14.0097 11.4975 14.1284 11.5343 14.25 11.5343C14.8151 11.5343 15.0691 10.8261 14.6327 10.467L9.5 6.24359V4.97658L15.0437 1.17519C15.225 1.05088 15.3333 0.845192 15.3333 0.625375V0.000976562V-0.587754L14.8285 -0.284854L8.241 3.66764H6.76998L1.02184 -0.273933L0.936642 -0.332357H0.833333H0Z" fill="#FF2E3B" stroke="white" stroke-width="0.666667"/>
<path fill-rule="evenodd" clip-rule="evenodd" d="M0 4.00098V7.20098H5.83333V11.3343C5.83333 11.7025 6.13181 12.001 6.5 12.001H8.5C8.86819 12.001 9.16667 11.7025 9.16667 11.3343V7.20098H15.1667C15.5349 7.20098 15.8333 6.9025 15.8333 6.53431V4.66764C15.8333 4.29945 15.5349 4.00098 15.1667 4.00098H9.16667V0.000976562H5.83333V4.00098H0Z" fill="white"/>
<path fill-rule="evenodd" clip-rule="evenodd" d="M0 4.80098H6.66667V4.00098V0.000976562H8.33333V4.00098V4.80098H15V6.40098H8.33333V7.20098V11.201H6.66667V7.20098V6.40098H0V4.80098Z" fill="#FF2E3B"/>
</g>
<defs>
<linearGradient id="paint0_linear_636_25180" x1="22.5" y1="9.60107" x2="22.5" y2="12.8011" gradientUnits="userSpaceOnUse">
<stop stop-color="#FFA51B"/>
<stop offset="1" stop-color="#FF9A00"/>
</linearGradient>
</defs>
</svg>
