<svg width="35" height="24" viewBox="0 0 35 24" fill="none" xmlns="http://www.w3.org/2000/svg">
<rect y="0.000976562" width="35" height="24" rx="2" fill="white"/>
<mask id="mask0_636_26064" style="mask-type:alpha" maskUnits="userSpaceOnUse" x="0" y="0" width="35" height="25">
<rect y="0.000976562" width="35" height="24" rx="2" fill="white"/>
</mask>
<g mask="url(#mask0_636_26064)">
<g filter="url(#filter0_d_636_26064)">
<path fill-rule="evenodd" clip-rule="evenodd" d="M0 16.001H35V8.00098H0V16.001Z" fill="#262626"/>
</g>
<g filter="url(#filter1_d_636_26064)">
<path fill-rule="evenodd" clip-rule="evenodd" d="M0 24.001H35V16.001H0V24.001Z" fill="#34B857"/>
</g>
<path fill-rule="evenodd" clip-rule="evenodd" d="M0 8.00098H35V0.000976562H0V8.00098Z" fill="#F41F34"/>
<path fill-rule="evenodd" clip-rule="evenodd" d="M17.5 14.4006C18.0141 14.4006 18.492 14.2516 18.8893 13.9962C18.8432 13.9991 18.7968 14.0006 18.75 14.0006C17.5994 14.0006 16.6667 13.1052 16.6667 12.0006C16.6667 10.896 17.5994 10.0006 18.75 10.0006C18.7968 10.0006 18.8432 10.0021 18.8893 10.005C18.492 9.74956 18.0141 9.60059 17.5 9.60059C16.1193 9.60059 15 10.6751 15 12.0006C15 13.3261 16.1193 14.4006 17.5 14.4006ZM20 12.0006C20 12.4424 19.6269 12.8006 19.1667 12.8006C18.7064 12.8006 18.3333 12.4424 18.3333 12.0006C18.3333 11.5588 18.7064 11.2006 19.1667 11.2006C19.6269 11.2006 20 11.5588 20 12.0006Z" fill="white"/>
</g>
<defs>
<filter id="filter0_d_636_26064" x="0" y="8.00098" width="35" height="8" filterUnits="userSpaceOnUse" color-interpolation-filters="sRGB">
<feFlood flood-opacity="0" result="BackgroundImageFix"/>
<feColorMatrix in="SourceAlpha" type="matrix" values="0 0 0 0 0 0 0 0 0 0 0 0 0 0 0 0 0 0 127 0" result="hardAlpha"/>
<feOffset/>
<feColorMatrix type="matrix" values="0 0 0 0 0 0 0 0 0 0 0 0 0 0 0 0 0 0 0.06 0"/>
<feBlend mode="normal" in2="BackgroundImageFix" result="effect1_dropShadow_636_26064"/>
<feBlend mode="normal" in="SourceGraphic" in2="effect1_dropShadow_636_26064" result="shape"/>
</filter>
<filter id="filter1_d_636_26064" x="0" y="16.001" width="35" height="8" filterUnits="userSpaceOnUse" color-interpolation-filters="sRGB">
<feFlood flood-opacity="0" result="BackgroundImageFix"/>
<feColorMatrix in="SourceAlpha" type="matrix" values="0 0 0 0 0 0 0 0 0 0 0 0 0 0 0 0 0 0 127 0" result="hardAlpha"/>
<feOffset/>
<feColorMatrix type="matrix" values="0 0 0 0 0 0 0 0 0 0 0 0 0 0 0 0 0 0 0.06 0"/>
<feBlend mode="normal" in2="BackgroundImageFix" result="effect1_dropShadow_636_26064"/>
<feBlend mode="normal" in="SourceGraphic" in2="effect1_dropShadow_636_26064" result="shape"/>
</filter>
</defs>
</svg>
