<svg width="35" height="24" viewBox="0 0 35 24" fill="none" xmlns="http://www.w3.org/2000/svg">
<rect y="0.000976562" width="35" height="24" rx="2" fill="white"/>
<mask id="mask0_636_25380" style="mask-type:alpha" maskUnits="userSpaceOnUse" x="0" y="0" width="35" height="25">
<rect y="0.000976562" width="35" height="24" rx="2" fill="white"/>
</mask>
<g mask="url(#mask0_636_25380)">
<rect y="0.000976562" width="35" height="24" fill="#F1361D"/>
<path fill-rule="evenodd" clip-rule="evenodd" d="M12.5908 3.72173L13.8014 3.91985L14.7093 4.71365L14.9157 3.55151L15.7425 2.67991L14.532 2.48178L13.6241 1.68799L13.4177 2.85012L12.5908 3.72173ZM15.8334 7.78646L16.8824 7.17356L18.1101 7.20082L17.4716 6.19376L17.5 5.01518L16.451 5.62808L15.2233 5.60082L15.8617 6.60787L15.8334 7.78646ZM14.4103 14.3659L13.3842 15.0135L13.3698 13.8347L12.6951 12.8497L13.923 12.8358L14.9491 12.1881L14.9636 13.3669L15.6383 14.352L14.4103 14.3659ZM15.3014 11.3185L16.522 11.1887L17.6226 11.7115L17.4874 10.5397L18.0319 9.4831L16.8114 9.61297L15.7107 9.09018L15.846 10.2619L15.3014 11.3185Z" fill="#FFDC42"/>
<path fill-rule="evenodd" clip-rule="evenodd" d="M8.33301 9.87317L5.39408 11.8845L6.47845 8.57965L3.57773 6.51789L7.18683 6.48669L8.33301 3.20117L9.47919 6.48669L13.0883 6.51789L10.1876 8.57965L11.2719 11.8845L8.33301 9.87317Z" fill="#FFDC42"/>
</g>
</svg>
