<svg width="35" height="24" viewBox="0 0 35 24" fill="none" xmlns="http://www.w3.org/2000/svg">
<rect y="0.000976562" width="35" height="24" rx="2" fill="#009F60"/>
<mask id="mask0_636_27272" style="mask-type:alpha" maskUnits="userSpaceOnUse" x="0" y="0" width="35" height="25">
<rect y="0.000976562" width="35" height="24" rx="2" fill="white"/>
</mask>
<g mask="url(#mask0_636_27272)">
<rect x="30" y="12.8008" width="5" height="11.2" fill="#EA8B42"/>
<path fill-rule="evenodd" clip-rule="evenodd" d="M25 24.0008H30V12.8008H25V24.0008Z" fill="#1A1919"/>
<path fill-rule="evenodd" clip-rule="evenodd" d="M20 24.0008H25V12.8008H20V24.0008Z" fill="#DB3C36"/>
<path fill-rule="evenodd" clip-rule="evenodd" d="M26.2677 4.18099C26.1529 4.18409 26.0684 4.14589 26.0382 4.08169C26.2255 3.97619 26.3522 3.99972 26.5092 4.13412C26.5394 4.02904 26.5092 3.91198 26.4428 3.84179C26.3764 3.77159 26.3219 3.77159 26.2315 3.76561C26.1409 3.75983 26.0502 3.7365 25.9898 3.7365C25.9013 3.54925 25.6795 3.62852 25.4665 3.70532C25.1202 3.83002 24.8091 4.0565 24.6694 4.28256C24.6055 4.38599 24.5978 4.42667 24.5586 4.4853C24.591 4.48138 24.5888 4.48138 24.609 4.46961C24.5847 4.72705 24.5526 4.96488 24.6008 5.11704C24.5406 5.33939 24.5888 5.47978 24.6612 5.54997C24.7339 5.62016 24.7639 5.64948 24.7761 5.73144C24.7881 5.81319 24.8243 5.88917 24.8847 5.93603C24.9452 5.9829 24.9814 6.05309 24.9874 6.09418C24.9934 6.13505 25.1802 6.31136 25.2591 6.3574C25.2893 6.37474 25.2953 6.41005 25.3317 6.4567C25.2531 6.9014 25.5672 7.3461 25.4946 7.78481C25.549 7.79059 25.6215 7.78481 25.6941 7.76726C25.7543 8.14156 25.7905 8.32303 25.4524 8.4341C25.1142 8.54538 24.9293 8.6548 25.0236 8.77929C25.09 8.86703 25.2276 8.79064 25.3135 8.71487C25.38 8.65645 25.4584 8.6038 25.5188 8.58625C25.5792 8.5687 25.5915 8.58625 25.561 8.66223C25.5308 8.73841 25.368 8.90212 25.3617 8.98409C25.3557 9.06605 25.4282 9.12447 25.543 9.06006C25.6577 8.99565 25.7586 8.82718 25.7845 8.72664C25.8025 8.65645 25.833 8.60958 25.8267 8.72664C25.8207 8.8437 25.7483 9.05428 25.9114 9.08938C26.0745 9.12447 26.1229 8.93722 26.0685 8.76752C26.014 8.59802 25.996 8.50429 26.02 8.44587C26.0442 8.38723 26.0684 8.35234 26.1287 8.36969C26.1891 8.38723 26.3099 8.3639 26.3039 8.27038C26.2977 8.17686 26.2133 8.10068 26.1167 8.15332C26.02 8.20597 25.9476 8.19812 25.9898 8.08313C26.02 8.00117 26.0745 7.90166 26.0804 7.83745C26.1469 7.93098 26.5212 7.94274 26.6723 7.855C26.7085 8.03049 26.8052 8.18842 26.5939 8.35234C26.3824 8.51606 26.2133 8.67399 26.2193 8.79105C26.2255 8.90811 26.2737 8.9781 26.3824 8.91967C26.491 8.86125 26.5574 8.77928 26.5817 8.70331C26.6059 8.62713 26.6543 8.62713 26.6301 8.72086C26.6059 8.81438 26.5637 8.94899 26.5817 9.03095C26.5999 9.1127 26.7327 9.11869 26.7869 9.04251C26.8414 8.96654 26.8292 8.86703 26.8172 8.76752C26.8052 8.66801 26.8234 8.56292 26.8474 8.52184C26.8716 8.48096 26.9198 8.42233 26.9682 8.53361C27.0167 8.64468 27.0407 8.73242 27.1373 8.76174C27.2339 8.79105 27.3064 8.74997 27.2884 8.6389C27.2702 8.52783 27.1433 8.40478 27.0167 8.31126C26.8898 8.21774 26.932 8.17087 26.938 8.08313C26.944 7.99539 26.926 7.83745 26.9198 7.76726C27.0347 7.84922 27.1615 7.83745 27.2217 7.83745C27.2822 7.83745 27.3814 7.81949 27.2822 7.73216C27.0829 7.55668 27.1493 7.45118 27.0104 7.32256C26.8716 7.19394 26.7447 6.99492 26.7025 6.82543C26.6601 6.65572 26.5671 6.34563 26.3824 6.1877C26.2797 6.09996 26.2495 5.86006 26.2737 5.58507C26.2977 5.31007 26.3039 5.00597 26.0442 4.86558C25.7845 4.72519 25.7905 4.60814 25.8752 4.4853C25.9596 4.36246 26.0682 4.2423 26.2073 4.23363C26.2386 4.23178 26.3108 4.22599 26.3402 4.20535C26.3271 4.19565 26.3059 4.18016 26.2677 4.18099Z" fill="#EA8B42"/>
<path fill-rule="evenodd" clip-rule="evenodd" d="M24.5786 4.81299C24.5722 4.93191 24.5752 5.03658 24.6007 5.11709C24.5404 5.33944 24.5887 5.47983 24.6611 5.55002C24.7337 5.62022 24.7637 5.64953 24.7759 5.73149C24.7879 5.81325 24.8242 5.88922 24.8846 5.93609C24.945 5.98295 24.9812 6.05314 24.9872 6.09423C24.9932 6.13511 25.1801 6.31142 25.2589 6.35745C25.2892 6.3748 25.2952 6.4101 25.3316 6.45676C25.2988 6.64153 25.3333 6.82631 25.3804 7.01067C24.9536 7.35379 24.5323 7.19193 24.7095 6.84096C24.3551 7.11389 23.7433 7.10625 23.8802 6.84096C23.3246 7.02822 23.1555 6.87214 23.2279 6.70058C22.761 6.87998 22.5193 6.70842 22.5838 6.58352C22.1972 6.68489 21.9476 6.62254 21.9073 6.56019C21.8672 6.49784 21.9636 6.35745 22.0524 6.28726C21.8751 6.34961 21.7061 6.34961 21.5449 6.32628C21.384 6.30274 21.4243 6.25588 21.4564 6.18569C21.4888 6.11549 21.531 6.00442 21.6598 5.89521C21.3519 5.95363 20.9653 5.99472 20.6936 5.90677C20.6424 5.89025 20.5547 5.87167 20.6089 5.81923C20.6634 5.76659 20.8264 5.63776 21.0257 5.5558C20.5727 5.62022 19.7151 5.66708 19.4736 5.40385C19.7091 5.45051 20.0111 5.35699 20.2044 5.28102C19.4434 5.19905 18.4048 4.69593 18.3926 4.20458C18.6101 4.54378 18.9846 4.66083 19.359 4.76613C18.8516 4.47936 18.6403 4.13418 18.6223 3.90605C18.912 4.17526 19.3528 4.47936 19.7878 4.54976C19.4796 4.39183 19.0811 3.92958 18.9724 3.60772C19.1959 3.80076 19.7696 4.11085 20.1621 4.21036C19.8904 4.00556 19.4496 3.51998 19.4736 3.25098C19.5763 3.35049 19.83 3.53753 20.3492 3.83007C20.8686 4.12262 21.1504 4.10114 21.5792 4.18889C21.5008 4.08752 21.4303 3.95291 21.4243 3.91782C21.5511 3.93536 21.6718 3.98223 22.0341 4.19859C22.3965 4.41516 23.1883 4.48143 23.6407 4.6726C23.9726 4.81299 24.4457 4.72525 24.5786 4.81299Z" fill="#EA8B42"/>
<path fill-rule="evenodd" clip-rule="evenodd" d="M27.3119 7.81782C27.3318 7.80255 27.3318 7.77612 27.2821 7.73256C27.0828 7.55708 27.1493 7.45158 27.0104 7.32296C26.8716 7.19434 26.7447 6.99532 26.7025 6.82582C26.6601 6.65612 26.5671 6.34603 26.3823 6.18809C26.2797 6.10035 26.2495 5.86046 26.2737 5.58546C26.2943 5.35011 26.3018 5.09349 26.1406 4.93638C26.4426 4.85442 26.7207 4.83666 26.8171 4.93018C27.3183 4.80735 27.7533 4.77018 28.18 4.74314C28.6711 4.71176 29.5971 4.50902 30.2575 4.08002C30.2172 4.23609 29.9918 4.47 29.7903 4.58706C30.4587 4.43098 31.264 4.14237 31.9484 3.65101C31.9403 3.99434 31.6506 4.25158 31.4813 4.39217C31.9484 4.14237 32.6326 3.83042 32.8662 3.44043C32.9688 3.84012 32.2705 4.36286 31.8918 4.65147C32.2784 4.47207 32.7777 4.30629 32.971 4.041C32.9669 4.36471 32.5281 4.76647 32.1093 5.00038C32.5362 4.84451 33.0113 4.68058 33.2849 4.43883C33.3171 4.76461 32.0086 5.51341 31.3604 5.718C31.9242 5.58546 32.6568 5.40606 32.9789 5.2188C32.9628 5.28507 32.8315 5.37798 32.7359 5.44569C32.3421 5.72523 31.738 5.87532 31.3686 5.94427C31.417 6.13937 31.3525 6.24858 31.1271 6.26407C30.9016 6.27976 30.3561 6.19594 30.0824 6.06319C30.0421 6.08652 29.9937 6.09457 29.9393 6.10035C30.205 6.29338 30.2956 6.43377 30.2412 6.51573C30.187 6.59769 29.9967 6.58283 29.8518 6.55372C29.9665 6.86381 29.5829 6.84337 29.263 6.66768C29.3898 6.82582 29.4081 6.96022 29.2328 6.99532C29.0577 7.03042 28.9186 7.01886 28.7496 6.91336C28.7376 7.03042 28.6208 7.10846 28.4658 7.06944C28.9973 7.37953 28.9671 7.49266 28.8764 7.60951C28.786 7.72657 28.4688 7.70324 28.2998 7.59795C28.2273 7.83785 27.9385 7.83868 27.7229 7.64771C27.721 7.74329 27.5153 7.93302 27.3119 7.81782Z" fill="#EA8B42"/>
<path fill-rule="evenodd" clip-rule="evenodd" d="M24.8468 8.99368C24.8556 8.91977 24.8629 8.83388 24.9271 8.77917C24.9916 8.72447 25.0319 8.67781 25.0883 8.73231C25.1446 8.78702 25.1084 8.83781 25.0319 8.86114C24.9554 8.88446 24.9031 8.95074 24.8909 8.99368C24.8789 9.03662 24.8386 9.05995 24.8468 8.99368Z" fill="black"/>
<path fill-rule="evenodd" clip-rule="evenodd" d="M25.2852 9.35272C25.2453 9.23009 25.2652 9.07194 25.3094 9.02508C25.3537 8.97821 25.4101 8.94704 25.4624 8.99391C25.5147 9.04077 25.5348 9.10704 25.4382 9.14606C25.3527 9.18054 25.3456 9.26683 25.3417 9.32939C25.3377 9.39174 25.3094 9.42683 25.2852 9.35272Z" fill="black"/>
<path fill-rule="evenodd" clip-rule="evenodd" d="M25.8492 9.03696C25.8182 9.08713 25.8572 9.29048 25.962 9.34106C26.0361 9.37699 26.0706 9.36852 26.0262 9.30204C25.9821 9.23577 25.9982 9.17342 26.0224 9.13833C26.0464 9.10323 26.0425 9.04088 25.99 9.00971C25.9377 8.97833 25.8732 8.99794 25.8492 9.03696Z" fill="black"/>
<path fill-rule="evenodd" clip-rule="evenodd" d="M26.3038 8.85327C26.2374 8.80496 26.175 8.86297 26.1508 8.90385C26.1024 8.98581 26.1388 9.10287 26.2153 9.16914C26.2918 9.23541 26.2796 9.14581 26.2554 9.10679C26.2314 9.06777 26.2273 8.98973 26.2796 8.98189C26.3319 8.97425 26.3683 8.89993 26.3038 8.85327Z" fill="black"/>
<path fill-rule="evenodd" clip-rule="evenodd" d="M26.6821 8.98555C26.6174 8.96718 26.5533 9.03242 26.5612 9.11045C26.5672 9.16867 26.5734 9.243 26.6336 9.28202C26.6741 9.30803 26.7022 9.32496 26.6821 9.25476C26.6619 9.18457 26.6943 9.12594 26.7303 9.10653C26.7665 9.08713 26.7504 9.00516 26.6821 8.98555Z" fill="black"/>
<path fill-rule="evenodd" clip-rule="evenodd" d="M27.2178 8.65409C27.1709 8.68588 27.1735 8.75959 27.2178 8.78684C27.262 8.81409 27.3265 8.85311 27.3145 8.91938C27.3023 8.98565 27.3385 9.00919 27.3708 8.93507C27.403 8.86095 27.407 8.75174 27.3708 8.70095C27.3344 8.65017 27.2579 8.62684 27.2178 8.65409Z" fill="black"/>
<path fill-rule="evenodd" clip-rule="evenodd" d="M26.05 4.07631C26.078 4.13583 26.1582 4.17098 26.2669 4.16804L26.267 4.16804C26.3015 4.16729 26.3224 4.17618 26.3476 4.21573C26.3211 4.2344 26.2711 4.2427 26.2077 4.24646C26.0923 4.25366 25.9915 4.3387 25.8859 4.49239C25.7907 4.63043 25.824 4.73196 26.0503 4.85428C26.2752 4.97584 26.3214 5.18758 26.2866 5.58611C26.2611 5.87568 26.2979 6.09854 26.3908 6.178C26.5446 6.30952 26.6437 6.53677 26.7151 6.82237C26.7558 6.98596 26.8792 7.18343 27.0193 7.31322C27.0522 7.34372 27.0757 7.37447 27.0946 7.40956C27.1054 7.42975 27.1133 7.44797 27.1261 7.48067C27.1703 7.59355 27.2001 7.64277 27.2907 7.72259C27.341 7.76683 27.3508 7.80362 27.3197 7.82758C27.2993 7.84338 27.2623 7.85031 27.2213 7.85031L27.199 7.8506C27.1015 7.85233 27.0387 7.84465 26.9665 7.81012C26.9559 7.80502 26.9454 7.79941 26.9353 7.79327L26.9414 7.85835C26.944 7.88732 26.9461 7.91304 26.9478 7.9375C26.9521 7.9989 26.9534 8.04791 26.9509 8.08393C26.95 8.09758 26.9484 8.10946 26.9454 8.12819C26.9397 8.16277 26.9386 8.17224 26.9397 8.18728C26.9424 8.22417 26.9651 8.25727 27.0244 8.30097C27.1796 8.41558 27.2843 8.53401 27.3012 8.63686C27.3199 8.75244 27.2444 8.80783 27.1328 8.774C27.0646 8.75329 27.0294 8.7104 26.9889 8.61742C26.9867 8.61229 26.9808 8.59844 26.9745 8.5835C26.9671 8.56584 26.959 8.54666 26.9554 8.53855C26.9357 8.49319 26.9178 8.47864 26.902 8.48302C26.8884 8.48678 26.8733 8.50336 26.8586 8.52812C26.8337 8.57068 26.8192 8.67612 26.83 8.76598L26.8301 8.76694C26.8485 8.91892 26.8453 8.9831 26.7975 9.04976C26.737 9.13489 26.589 9.12721 26.5681 9.03357C26.5586 8.99021 26.5639 8.9329 26.5809 8.85686C26.5856 8.83593 26.591 8.81424 26.598 8.78759L26.6166 8.7177C26.626 8.68163 26.6234 8.66142 26.6211 8.661C26.6173 8.66032 26.6035 8.67728 26.594 8.70705C26.5669 8.79209 26.4937 8.8743 26.3884 8.93089C26.2774 8.9906 26.2128 8.92986 26.2055 8.79164C26.1998 8.68152 26.3269 8.54203 26.585 8.34225C26.6351 8.30337 26.6688 8.26388 26.6888 8.22253C26.725 8.14766 26.7197 8.09016 26.68 7.94326C26.6718 7.91304 26.6667 7.89332 26.6624 7.87472C26.5099 7.94974 26.1906 7.94332 26.0891 7.86509C26.0822 7.89588 26.0673 7.93347 26.0373 8.00223L26.0371 8.00257C26.0183 8.04574 26.0102 8.065 26.002 8.08739C25.984 8.13627 25.9878 8.16207 26.0057 8.16909C26.0252 8.1767 26.0633 8.16728 26.1096 8.14205C26.2094 8.08768 26.3095 8.15887 26.3169 8.26954C26.3227 8.36116 26.2114 8.40727 26.1244 8.382C26.0792 8.36899 26.0586 8.38619 26.032 8.45057C26.0107 8.50252 26.0243 8.5878 26.0808 8.76366C26.1437 8.95993 26.0722 9.13725 25.908 9.10192C25.8075 9.0803 25.7812 9.00382 25.7953 8.86999C25.797 8.85342 25.7991 8.83757 25.8026 8.81283C25.8103 8.75873 25.8119 8.74641 25.8129 8.72594C25.8139 8.70709 25.8139 8.69223 25.8132 8.68148C25.8081 8.69303 25.802 8.71036 25.7971 8.72971C25.7661 8.84991 25.656 9.01121 25.5493 9.07117C25.4347 9.13544 25.3404 9.0855 25.3479 8.9831C25.3508 8.94544 25.3788 8.89739 25.4364 8.81966L25.4524 8.79829C25.5254 8.70132 25.5375 8.68425 25.5481 8.65754C25.5746 8.59123 25.5707 8.58448 25.5222 8.59856C25.4677 8.61439 25.3924 8.66248 25.3221 8.72435C25.2027 8.82959 25.0762 8.87126 25.0123 8.78685C24.9617 8.72003 24.9826 8.65411 25.0672 8.59146C25.1416 8.53633 25.267 8.48128 25.4476 8.42184C25.7338 8.32783 25.7557 8.23737 25.6969 7.77973C25.6242 7.7973 25.5499 7.80367 25.4809 7.78273C25.5105 7.60378 25.4873 7.45995 25.3989 7.13131C25.3084 6.79514 25.2846 6.64369 25.3206 6.46442C25.3112 6.45238 25.3033 6.44058 25.2951 6.42689C25.2938 6.42467 25.2908 6.4195 25.2877 6.41401C25.2836 6.40705 25.2793 6.39957 25.2777 6.39695C25.2687 6.38212 25.2615 6.37404 25.2517 6.36839C25.1659 6.31829 24.9802 6.14029 24.9737 6.09593C24.9671 6.05115 24.9276 5.98614 24.8759 5.94604C24.8151 5.89889 24.7754 5.82206 24.7624 5.73323C24.752 5.66387 24.7367 5.64159 24.6513 5.55902C24.5619 5.47243 24.5324 5.3167 24.5875 5.12076C24.5503 5.00328 24.5538 4.89015 24.5885 4.53718L24.5928 4.49236C24.5889 4.49369 24.5847 4.49464 24.579 4.49553C24.5709 4.4967 24.5709 4.4967 24.5598 4.49805L24.5598 4.49805L24.5469 4.47826C24.5549 4.46633 24.5618 4.45469 24.5687 4.44193M26.05 4.07631C26.2213 3.99322 26.3419 4.00856 26.4999 4.14373L26.05 4.07631ZM26.4999 4.14373L26.5217 4.13752L26.4999 4.14373ZM26.5217 4.13752C26.5524 4.03068 26.5235 3.90838 26.4522 3.83305L26.5217 4.13752ZM26.4522 3.83305C26.4352 3.81507 26.4185 3.80106 26.4013 3.79026L26.4522 3.83305ZM26.4013 3.79026C26.3622 3.76566 26.3298 3.75903 26.2526 3.75403L26.4013 3.79026ZM26.2526 3.75403L26.232 3.75269L26.2526 3.75403ZM26.232 3.75269C26.1993 3.7506 26.1679 3.74658 26.1189 3.73891L26.232 3.75269ZM26.1189 3.73891C26.0332 3.7255 26.0185 3.72355 25.9893 3.72355L26.1189 3.73891ZM25.9893 3.72355C25.9234 3.56581 25.791 3.57436 25.4614 3.69319L25.9893 3.72355ZM25.4614 3.69319C25.1136 3.81844 24.7993 4.04634 24.6574 4.27592L25.4614 3.69319ZM24.6574 4.27592C24.6388 4.30612 24.6238 4.33268 24.61 4.3595L24.6574 4.27592ZM24.61 4.3595C24.6018 4.3754 24.5778 4.42445 24.5802 4.41968L24.61 4.3595ZM26.3315 4.21553C26.3105 4.19989 26.2949 4.19325 26.2676 4.19384L26.2676 4.19384C26.1492 4.19703 26.0587 4.15739 26.031 4.0705C26.2117 3.9687 26.3422 3.98106 26.5009 4.1104C26.4995 4.1172 26.4978 4.12395 26.4959 4.13063L26.5177 4.12443C26.512 4.11961 26.5064 4.11493 26.5009 4.1104C26.5204 4.01708 26.493 3.91446 26.4324 3.85044C26.4169 3.834 26.4019 3.82142 26.3867 3.81188C26.3525 3.7904 26.3237 3.7845 26.2508 3.77977L26.2302 3.77844C26.1964 3.77628 26.1644 3.77218 26.1146 3.76439C26.099 3.76195 26.0859 3.75991 26.0745 3.75814C26.0247 3.75038 26.009 3.74795 25.9772 3.7418C25.9081 3.59563 25.7866 3.60347 25.4707 3.71736C25.1283 3.84069 24.8189 4.06504 24.6804 4.28911C24.6621 4.31874 24.6475 4.34473 24.634 4.37098C24.6259 4.3866 24.6021 4.43542 24.6044 4.43082C24.6015 4.4366 24.6 4.43949 24.5985 4.44237C24.597 4.44525 24.5955 4.44812 24.5925 4.45385C24.5899 4.4586 24.5873 4.46321 24.5847 4.46775C24.5822 4.46866 24.5794 4.46932 24.5747 4.47007L24.5565 4.47245L24.5694 4.49224C24.5748 4.48408 24.5799 4.47604 24.5847 4.46775C24.5852 4.46756 24.5857 4.46737 24.5861 4.46716C24.5889 4.46597 24.5913 4.46458 24.6015 4.45853L24.6218 4.47073L24.6152 4.53962C24.5809 4.88814 24.5774 5.00051 24.6133 5.12025C24.5606 5.31503 24.5883 5.46137 24.6703 5.54081C24.7594 5.62698 24.7775 5.65331 24.7889 5.72959C24.801 5.81238 24.8376 5.88325 24.8927 5.92594C24.9496 5.97007 24.9927 6.04093 25.0002 6.09232C25.0052 6.12648 25.1862 6.3 25.2655 6.34627C25.2798 6.35451 25.2897 6.36564 25.3008 6.38388C25.3026 6.38681 25.3073 6.39484 25.3114 6.40201C25.3144 6.40726 25.3172 6.41206 25.3184 6.41405C25.3204 6.41743 25.3224 6.42068 25.3244 6.42401C25.3301 6.43334 25.3363 6.44335 25.3445 6.45883C25.3119 6.64318 25.3353 6.7922 25.4248 7.12483C25.5142 7.45696 25.5378 7.60309 25.4956 7.77194C25.5452 7.77721 25.6095 7.77245 25.6867 7.76673C25.6933 7.76623 25.7 7.76574 25.7069 7.76524C25.784 8.24454 25.7592 8.34675 25.4562 8.44626C25.2782 8.50485 25.155 8.55895 25.0835 8.61192C25.0093 8.6669 24.9932 8.71778 25.034 8.77164C25.0841 8.83783 25.1953 8.8012 25.304 8.7053C25.3771 8.64105 25.4554 8.59101 25.5145 8.57385C25.5886 8.55234 25.6065 8.58322 25.5731 8.66679C25.5612 8.69675 25.5497 8.71304 25.4741 8.81344L25.4582 8.83466C25.4038 8.90801 25.377 8.95407 25.3746 8.98495C25.3687 9.06581 25.4391 9.1031 25.5358 9.04887C25.6357 8.99276 25.7417 8.83738 25.7711 8.7235C25.7812 8.68391 25.794 8.65394 25.8068 8.64565C25.8226 8.63548 25.8342 8.64677 25.838 8.66483C25.8406 8.67767 25.8412 8.69829 25.8397 8.72723C25.8385 8.74877 25.837 8.76128 25.8292 8.81632C25.8257 8.84079 25.8236 8.85639 25.8219 8.87259C25.8091 8.99492 25.8311 9.05893 25.9138 9.07674C26.0508 9.10622 26.1131 8.95191 26.0552 8.77129C25.9968 8.58947 25.9826 8.5007 26.0071 8.44105C26.0382 8.36581 26.0698 8.33936 26.1321 8.35729C26.2038 8.37812 26.2946 8.34053 26.2901 8.27116C26.2839 8.17782 26.2034 8.12058 26.1228 8.16451C26.0699 8.19331 26.0249 8.20444 25.9957 8.193C25.9605 8.17925 25.9546 8.13898 25.9767 8.07877C25.9852 8.05574 25.9934 8.03621 26.0124 7.99258L26.0126 7.99223C26.0503 7.90587 26.0635 7.87 26.0666 7.83625L26.091 7.83012C26.1529 7.91719 26.5196 7.92832 26.6649 7.8439L26.685 7.85244C26.6899 7.87644 26.6953 7.89763 26.7059 7.93675C26.7472 8.08943 26.7528 8.15113 26.7131 8.23342C26.6913 8.27856 26.655 8.32111 26.6018 8.36236C26.3515 8.5561 26.2272 8.69252 26.2322 8.79035C26.2387 8.91224 26.2858 8.95653 26.3754 8.90836C26.4748 8.85489 26.5434 8.77788 26.5684 8.69949C26.5815 8.65823 26.6034 8.63153 26.6261 8.63564C26.6511 8.64019 26.6554 8.67431 26.6426 8.72394L26.624 8.79395C26.617 8.82032 26.6117 8.84173 26.6071 8.8623C26.5908 8.93503 26.5858 8.98939 26.5943 9.0282C26.6097 9.09719 26.727 9.10328 26.7755 9.03514C26.8181 8.97561 26.8211 8.91548 26.8035 8.76992L26.8034 8.76896C26.792 8.67413 26.8073 8.56338 26.8353 8.5154C26.8533 8.48498 26.872 8.46446 26.8946 8.45822C26.927 8.44924 26.9558 8.47266 26.9801 8.52856C26.9837 8.53685 26.992 8.55634 26.9995 8.5741C27.0057 8.58887 27.0114 8.60245 27.0136 8.60743C27.0513 8.69406 27.082 8.73154 27.1409 8.74938C27.2342 8.7777 27.2902 8.73665 27.2747 8.64087C27.2592 8.54659 27.1581 8.43229 27.0081 8.32146C26.9432 8.27365 26.9163 8.23434 26.913 8.18907C26.9117 8.17131 26.9129 8.16093 26.9189 8.12418C26.9218 8.10616 26.9233 8.09493 26.9242 8.08224C26.9266 8.04762 26.9253 7.99957 26.9211 7.93923C26.9194 7.91496 26.9173 7.88941 26.9147 7.8606L26.906 7.76831L26.9273 7.75684C26.9437 7.76851 26.9607 7.77853 26.9784 7.787C27.0458 7.81921 27.105 7.82646 27.1985 7.8248L27.2213 7.8245C27.2566 7.8245 27.2887 7.81849 27.303 7.80744C27.3177 7.79611 27.3125 7.77671 27.2727 7.74164C27.1783 7.65859 27.1466 7.60612 27.101 7.48978C27.0886 7.45796 27.081 7.44048 27.0708 7.42141C27.0533 7.38879 27.0315 7.36033 27.0007 7.33182C26.857 7.19874 26.731 6.99698 26.689 6.8284C26.6189 6.54774 26.5214 6.32419 26.373 6.1973C26.2716 6.11056 26.2338 5.88121 26.2599 5.58394C26.2939 5.19492 26.2495 4.99154 26.0372 4.87679C25.798 4.74749 25.7593 4.6294 25.8635 4.47813C25.9734 4.31828 26.0797 4.22858 26.206 4.22071C26.2242 4.21963 26.2414 4.2181 26.257 4.21671C26.2909 4.21369 26.3176 4.21131 26.3315 4.21553Z" fill="black"/>
<path fill-rule="evenodd" clip-rule="evenodd" d="M24.2521 4.7523C24.4586 4.7593 24.5337 4.76818 24.5859 4.80265L24.5917 4.81397C24.5845 4.94632 24.5904 5.04158 24.6133 5.12066C24.5606 5.31544 24.5883 5.46178 24.6703 5.54122C24.7595 5.62739 24.7775 5.65371 24.7889 5.72999C24.8011 5.81279 24.8377 5.88366 24.8927 5.92634C24.9496 5.97047 24.9927 6.04134 25.0002 6.09273C25.0052 6.12688 25.1862 6.3004 25.2655 6.34668C25.2799 6.35491 25.2897 6.36605 25.3009 6.38429C25.3026 6.38722 25.3073 6.39525 25.3114 6.40243C25.3144 6.40768 25.3172 6.41246 25.3184 6.41445C25.3204 6.41783 25.3224 6.42107 25.3244 6.4244C25.3301 6.43373 25.3363 6.44374 25.3445 6.45924C25.3163 6.61836 25.3342 6.77733 25.3887 7.02088C25.1867 7.18328 24.9684 7.24554 24.8141 7.19871C24.6743 7.15627 24.6193 7.03344 24.6774 6.88041C24.5129 6.99192 24.2945 7.05698 24.1102 7.05601C23.9205 7.055 23.8134 6.98219 23.856 6.8628C23.3976 7.01056 23.1426 6.92687 23.2054 6.72298C22.826 6.85882 22.5116 6.76459 22.5613 6.60282C22.2356 6.68304 21.9521 6.65471 21.8956 6.56729C21.8604 6.51256 21.9152 6.40197 21.9983 6.31817C21.8543 6.35875 21.7076 6.36323 21.5426 6.33934C21.4649 6.32798 21.4264 6.31045 21.4161 6.28057C21.4082 6.25778 21.4107 6.25088 21.4402 6.18871L21.4439 6.18076C21.4438 6.18097 21.4632 6.13791 21.4699 6.12384C21.4816 6.0992 21.4931 6.07729 21.5061 6.05548C21.5358 6.00576 21.5714 5.95999 21.6166 5.91658C21.2398 5.98426 20.9185 5.99357 20.689 5.91931L20.6547 5.90867C20.6226 5.89848 20.603 5.88957 20.5904 5.87699C20.5716 5.85807 20.5744 5.83439 20.5992 5.81044C20.6724 5.73957 20.802 5.64849 20.9397 5.58065C20.2859 5.66338 19.6602 5.62729 19.4633 5.41271L19.4761 5.39152C19.6595 5.42787 19.8955 5.38288 20.1504 5.28799C19.3156 5.18097 18.3902 4.65902 18.3789 4.20519L18.4037 4.1981C18.573 4.4622 18.799 4.58787 19.2646 4.72582C18.8616 4.47558 18.629 4.16467 18.6087 3.90733L18.6313 3.89707C18.9605 4.20301 19.3527 4.44189 19.7129 4.52249C19.4146 4.33621 19.0615 3.91452 18.9594 3.61202L18.9811 3.59842C19.2086 3.79494 19.7364 4.07253 20.1024 4.18085C19.7692 3.91222 19.4397 3.47815 19.46 3.25018L19.4829 3.24219C19.6101 3.36557 19.9023 3.56376 20.3557 3.81924C20.6366 3.97747 20.8507 4.05013 21.1327 4.10013C21.1726 4.10721 21.2112 4.11352 21.2719 4.12308C21.4218 4.14665 21.477 4.15572 21.548 4.16977C21.4823 4.07854 21.4175 3.95941 21.4108 3.92022L21.4259 3.90535C21.5668 3.92484 21.7015 3.98525 22.0409 4.18793C22.2045 4.28569 22.4044 4.34313 22.8896 4.4515L22.912 4.4565C23.3036 4.54398 23.4776 4.59002 23.6457 4.66109C23.7335 4.6982 23.836 4.7214 23.9582 4.73492C24.0409 4.74407 24.1007 4.74717 24.2521 4.7523ZM24.5645 4.82008C24.5647 4.81761 24.5648 4.81512 24.5649 4.81262L24.5707 4.82394C24.5687 4.82261 24.5667 4.82133 24.5645 4.82008ZM19.5131 5.42373C19.7081 5.44904 19.9503 5.39502 20.2091 5.29327L20.2056 5.2685C19.4017 5.18191 18.4901 4.69059 18.4111 4.25651C18.5937 4.51433 18.8451 4.6354 19.355 4.77882L19.3655 4.7553C18.9352 4.51212 18.6791 4.19968 18.6394 3.94018C18.9904 4.25926 19.4082 4.50176 19.7853 4.5628L19.7938 4.53868C19.5038 4.39004 19.1295 3.96574 19.0018 3.6495C19.2642 3.85769 19.807 4.13406 20.1585 4.22314L20.1701 4.2005C19.8411 3.95248 19.4955 3.51738 19.4861 3.28118C19.6251 3.40725 19.9113 3.59876 20.3422 3.84152C20.626 4.00134 20.8429 4.07499 21.1278 4.12551C21.1679 4.13263 21.2067 4.13896 21.2676 4.14855C21.4397 4.17563 21.4866 4.1835 21.5762 4.20181L21.5897 4.18148C21.5285 4.10242 21.4622 3.98681 21.4425 3.93404C21.572 3.95601 21.7071 4.01899 22.0268 4.20986C22.1939 4.30975 22.395 4.36751 22.8835 4.47664L22.9059 4.48164C23.2958 4.56872 23.4689 4.61454 23.635 4.68473C23.7255 4.72301 23.8305 4.74677 23.9552 4.76056C24.0388 4.76981 24.099 4.77294 24.2511 4.77809C24.4418 4.78455 24.5181 4.79288 24.5645 4.82008C24.5578 4.95135 24.5641 5.04697 24.5876 5.12117C24.5324 5.31711 24.562 5.47284 24.6513 5.55943C24.7367 5.642 24.7521 5.66427 24.7624 5.73363C24.7754 5.82247 24.8151 5.89929 24.8759 5.94644C24.9276 5.98654 24.9671 6.05156 24.9737 6.09633C24.9802 6.1407 25.1659 6.31869 25.2517 6.3688C25.2615 6.37444 25.2687 6.38253 25.2778 6.39736C25.2794 6.39998 25.2837 6.40745 25.2877 6.41441C25.2908 6.4199 25.2938 6.42508 25.2951 6.4273C25.3033 6.44099 25.3112 6.45279 25.3206 6.46482C25.2891 6.6183 25.3074 6.78035 25.3671 7.01406C25.176 7.1583 24.9667 7.21797 24.8222 7.1741C24.6855 7.13261 24.6404 7.00701 24.7213 6.84692L24.7009 6.83119C24.538 6.95659 24.3041 7.03123 24.1104 7.0302C23.9232 7.02921 23.8336 6.95995 23.8919 6.84702L23.8755 6.82909C23.3967 6.99045 23.1565 6.90375 23.2401 6.70574L23.2227 6.6889C22.8301 6.83975 22.5187 6.73829 22.5955 6.58957L22.58 6.57138C22.2539 6.65688 21.968 6.63043 21.9184 6.55368C21.887 6.50493 21.9632 6.37459 22.0606 6.29754L22.0475 6.27545C21.8892 6.33115 21.7298 6.34034 21.5466 6.31383C21.4782 6.30382 21.4475 6.28985 21.4415 6.27242C21.437 6.25932 21.4396 6.25208 21.4646 6.19944L21.4684 6.1912C21.5367 6.04297 21.5621 6.00044 21.6523 5.9192C21.6562 5.91574 21.6582 5.91399 21.6602 5.91226C21.6622 5.91049 21.6642 5.90874 21.6684 5.9052L21.6569 5.88286C21.2648 5.95726 20.9306 5.97026 20.6976 5.89485L20.6631 5.88417C20.6352 5.87529 20.6182 5.8676 20.6097 5.85911C20.6019 5.85129 20.6029 5.84341 20.6181 5.82865C20.7032 5.74634 20.868 5.6349 21.0307 5.56798L21.0235 5.54334C20.3794 5.63493 19.741 5.61252 19.5131 5.42373ZM19.5131 5.42373C19.5023 5.41474 19.4923 5.40537 19.4834 5.39562L19.4707 5.4168C19.4846 5.41955 19.4987 5.42185 19.5131 5.42373ZM21.4425 3.93404C21.4398 3.92675 21.438 3.92066 21.4372 3.91602L21.4221 3.93089C21.4289 3.93184 21.4357 3.93288 21.4425 3.93404ZM19.4861 3.28118C19.4857 3.27122 19.4859 3.26161 19.4867 3.25239L19.4639 3.26038C19.4708 3.2671 19.4782 3.27404 19.4861 3.28118ZM19.0018 3.6495C18.9955 3.63407 18.9899 3.61891 18.9849 3.60404L18.9632 3.61764C18.9753 3.62805 18.9881 3.63868 19.0018 3.6495ZM18.6394 3.94018C18.6376 3.92847 18.6363 3.91686 18.6354 3.90538L18.6127 3.91564C18.6216 3.92387 18.6305 3.93205 18.6394 3.94018ZM18.4111 4.25651C18.4079 4.23909 18.4061 4.22177 18.4057 4.20457L18.3809 4.21166C18.3908 4.22706 18.4008 4.242 18.4111 4.25651Z" fill="black"/>
<path fill-rule="evenodd" clip-rule="evenodd" d="M27.3047 7.82856L27.3032 7.80734C27.3178 7.79614 27.3126 7.77666 27.2727 7.7417C27.1784 7.65864 27.1466 7.60617 27.1011 7.48983C27.0886 7.45801 27.081 7.44053 27.0708 7.42147C27.0533 7.38884 27.0315 7.36038 27.0007 7.33187C26.8571 7.19879 26.7311 6.99703 26.6891 6.82846C26.6189 6.54779 26.5215 6.32424 26.3731 6.19736C26.2716 6.11061 26.2338 5.88127 26.26 5.58399C26.2632 5.54745 26.2657 5.5127 26.2674 5.47963L26.276 5.48409L26.2759 5.48506L26.2774 5.48477L26.2935 5.49277C26.2918 5.52258 26.2895 5.55369 26.2867 5.58617C26.2612 5.87574 26.2979 6.09859 26.3908 6.17806C26.5447 6.30957 26.6437 6.53682 26.7151 6.82243C26.7559 6.98602 26.8792 7.18349 27.0193 7.31327C27.0522 7.34377 27.0758 7.37452 27.0946 7.40962C27.1054 7.42981 27.1133 7.44802 27.1261 7.48073C27.1703 7.59361 27.2001 7.64282 27.2907 7.72263C27.3322 7.75896 27.3462 7.79044 27.3325 7.81373C27.3277 7.81143 27.323 7.80896 27.3183 7.80631L27.3199 7.82753C27.3253 7.82333 27.3296 7.81872 27.3325 7.81373C27.4949 7.89175 27.7068 7.76483 27.7091 7.64707L27.7316 7.63782C27.9493 7.83065 28.2198 7.81484 28.2865 7.59396L28.3066 7.58673C28.4799 7.69463 28.7841 7.7065 28.8653 7.6014C28.9771 7.45726 28.9113 7.34432 28.4585 7.08009L28.4688 7.05657C28.6103 7.0922 28.7242 7.02566 28.7358 6.9117L28.7564 6.90214C28.9126 6.99956 29.0446 7.0194 29.2297 6.9823C29.3814 6.95192 29.3843 6.84012 29.252 6.67518L29.2692 6.65608C29.4282 6.74336 29.6011 6.79095 29.7187 6.77964C29.8427 6.76771 29.8894 6.69444 29.8388 6.55766L29.8542 6.5407C30.0399 6.57803 30.1874 6.57215 30.2295 6.50839C30.2804 6.43179 30.1824 6.293 29.9308 6.11027L29.9374 6.08714C30.0031 6.08017 30.0418 6.07101 30.088 6.05128C30.3368 6.17197 30.8748 6.26828 31.1257 6.25081C31.3356 6.23639 31.4034 6.14138 31.3656 5.93122C31.9042 5.8307 32.3996 5.66767 32.7276 5.43491C32.7631 5.40972 32.779 5.39834 32.7993 5.38339C32.8281 5.36212 32.8526 5.34305 32.8741 5.32496C32.9071 5.29703 32.9319 5.27214 32.9474 5.25067C32.9606 5.24363 32.9732 5.23656 32.9854 5.22946L32.9655 5.21548C32.963 5.2259 32.9569 5.23766 32.9474 5.25067C32.6713 5.3988 32.1888 5.53605 31.3632 5.73015L31.3559 5.70535C32.089 5.47395 33.2239 4.76931 33.2702 4.46807C33.2781 4.46142 33.2859 4.45472 33.2936 4.44795L33.2712 4.43966C33.2721 4.44867 33.2717 4.45815 33.2702 4.46807C33.0801 4.6276 32.8122 4.75455 32.3647 4.92032C32.3272 4.93421 32.2887 4.94833 32.2385 4.96662L32.1137 5.01206L32.1022 4.98883C32.5532 4.73689 32.9167 4.36711 32.9541 4.08319C32.9637 4.07169 32.9728 4.05998 32.9816 4.04802L32.9572 4.04045C32.957 4.05446 32.956 4.06871 32.9541 4.08319C32.8293 4.2322 32.6227 4.34696 32.2255 4.51873L32.2126 4.52428C32.1762 4.53995 32.0739 4.58399 32.0408 4.59842C31.9858 4.62241 31.9399 4.64293 31.8973 4.66271L31.8831 4.64097C32.0816 4.48967 32.1508 4.43584 32.2588 4.34547C32.4621 4.17532 32.6172 4.02085 32.7215 3.87502C32.828 3.72617 32.8763 3.59248 32.8593 3.47539C32.8656 3.46579 32.8716 3.45616 32.8774 3.44649L32.8528 3.44314C32.8555 3.45375 32.8577 3.4645 32.8593 3.47539C32.7149 3.69513 32.4359 3.89654 31.9889 4.13914C31.9181 4.17761 31.7405 4.27049 31.6157 4.33578C31.5525 4.36881 31.5029 4.39477 31.4874 4.40307L31.4721 4.38201C31.7569 4.14548 31.9174 3.93834 31.9335 3.67704L31.956 3.66097L31.9346 3.65033C31.9344 3.6593 31.934 3.6682 31.9335 3.67704C31.3241 4.10902 30.5763 4.41632 29.7931 4.59922L29.7858 4.58224L29.783 4.57563C29.9738 4.46476 30.1739 4.25765 30.2327 4.11071L30.2646 4.09033L30.2441 4.07652C30.2413 4.08747 30.2374 4.09889 30.2327 4.11071C29.6589 4.47217 28.8052 4.71571 28.1805 4.75563C27.6152 4.79146 27.2493 4.83709 26.8072 4.93889C26.723 4.85717 26.4745 4.86152 26.1652 4.94271C26.1602 4.93737 26.1551 4.93211 26.1498 4.92692L26.1439 4.94841L26.1652 4.94271C26.2727 5.0577 26.3055 5.20989 26.2957 5.45063L26.2707 5.45536L26.2677 5.47397C26.2811 5.21455 26.2475 5.05898 26.1307 4.94506L26.1366 4.92357C26.465 4.83442 26.7304 4.82776 26.8134 4.91729C27.2446 4.81162 27.612 4.7658 28.1787 4.72988C28.8107 4.6895 29.6802 4.43884 30.2496 4.06893L30.2701 4.08274C30.2343 4.22156 30.0526 4.42639 29.8629 4.55594C30.6247 4.36957 31.3493 4.06433 31.94 3.64028L31.9614 3.65092C31.9554 3.90597 31.8212 4.10791 31.5762 4.32705L31.6032 4.31294C31.728 4.24765 31.9052 4.15499 31.9758 4.11666C32.4381 3.86567 32.719 3.65939 32.8542 3.43359L32.8788 3.43694C32.913 3.57008 32.8638 3.72148 32.7435 3.88966C32.6377 4.03763 32.4812 4.1935 32.2763 4.36495C32.1861 4.44043 32.123 4.49047 31.9898 4.59242L32.0298 4.57491C32.0631 4.56036 32.1665 4.51585 32.2023 4.50044L32.2145 4.49519C32.6377 4.31219 32.842 4.19468 32.9596 4.0332L32.984 4.04077C32.9805 4.31571 32.6594 4.67483 32.236 4.93991C32.2828 4.92287 32.3194 4.90945 32.3551 4.89623C32.8181 4.72469 33.0873 4.59516 33.2755 4.42893L33.2978 4.43722C33.3248 4.71038 32.3448 5.352 31.5878 5.65008C32.3071 5.47624 32.7307 5.34743 32.9716 5.20737L32.9916 5.22135C32.9832 5.25593 32.9489 5.29607 32.8917 5.34437C32.8698 5.36288 32.8449 5.3823 32.8156 5.40388C32.7951 5.41896 32.7791 5.43042 32.7435 5.4557C32.4115 5.69128 31.9128 5.85536 31.3812 5.94089C31.4332 6.15052 31.3544 6.26097 31.1276 6.27655C30.872 6.29434 30.3292 6.19717 30.0889 6.07386C30.0578 6.09191 30.0235 6.10178 29.973 6.10883C30.2162 6.29024 30.3121 6.43191 30.2521 6.52228C30.2031 6.59643 30.0577 6.60501 29.8713 6.57034C29.9147 6.70984 29.8561 6.79236 29.7213 6.80532C29.6104 6.81599 29.4558 6.77774 29.3073 6.70514C29.4137 6.85992 29.3966 6.97523 29.2351 7.00757C29.0503 7.04461 28.9143 7.02651 28.7594 6.93447C28.739 7.03419 28.6468 7.09704 28.5292 7.09163C28.9428 7.33988 29.0058 7.46331 28.8868 7.61683C28.7977 7.73211 28.4925 7.72333 28.3069 7.61725C28.228 7.83798 27.9548 7.85553 27.7327 7.67327C27.7033 7.80466 27.4757 7.92543 27.3047 7.82856ZM26.8882 5.40768C26.8947 5.39087 26.8995 5.37269 26.9026 5.3531L26.8868 5.3385L26.2957 5.45063L26.2949 5.4683L26.2797 5.46027L26.276 5.48409L26.2774 5.48477L26.2942 5.48147L26.2935 5.49277C26.5233 5.60347 26.7772 5.59706 26.87 5.44459C27.0712 5.54956 27.3892 5.49812 27.4918 5.35101C27.7803 5.4513 28.05 5.39108 28.0981 5.13691L28.0805 5.12239L27.514 5.3089C27.5221 5.28721 27.5259 5.26395 27.5246 5.23924L26.8882 5.40768ZM26.8822 5.42162C26.8843 5.41708 26.8863 5.41244 26.8882 5.40768L26.8613 5.41478L26.8584 5.43827L26.87 5.44459L26.8738 5.4381L26.9002 5.43045C27.0897 5.5175 27.3749 5.46806 27.4771 5.34576L27.4918 5.35101C27.494 5.34786 27.4961 5.34467 27.4981 5.34143L27.5216 5.33368C27.7797 5.41662 28.0128 5.36403 28.0668 5.15417L28.0892 5.14681L28.0717 5.13228C28.0703 5.13976 28.0687 5.14706 28.0668 5.15417L27.5216 5.33368C27.5162 5.33195 27.5109 5.33017 27.5055 5.32832C27.5087 5.322 27.5116 5.31552 27.514 5.3089L27.4985 5.31403C27.5085 5.29477 27.5144 5.27411 27.5151 5.25224L26.9002 5.43045C26.8941 5.42765 26.8881 5.42471 26.8822 5.42162ZM27.4928 5.32391C27.4971 5.32542 27.5013 5.32689 27.5055 5.32832C27.5032 5.33277 27.5007 5.33714 27.4981 5.34143L27.4854 5.34562L27.4855 5.33485C27.4881 5.33126 27.4906 5.32761 27.4928 5.32391ZM27.4928 5.32391C27.4905 5.32307 27.4881 5.32221 27.4858 5.32135L27.4855 5.33485C27.4829 5.33855 27.48 5.34218 27.4771 5.34576L27.4763 5.34547L27.4767 5.3212L27.4985 5.31403C27.4967 5.31737 27.4948 5.32066 27.4928 5.32391ZM26.8822 5.42162C26.8796 5.42729 26.8768 5.43278 26.8738 5.4381L26.869 5.4395L26.8719 5.41601L26.8822 5.42162ZM26.3136 5.47767L26.2942 5.48147L26.2949 5.4683L26.3136 5.47767ZM26.8726 5.36812C26.8264 5.57044 26.5593 5.59656 26.3136 5.47767L26.8726 5.36812ZM26.8726 5.36812C26.874 5.36198 26.8752 5.35569 26.8761 5.34923L26.892 5.36431L26.8726 5.36812ZM29.7855 4.58236L28.5781 4.95653L28.5844 4.98154C28.7123 4.96096 28.9135 4.90408 29.1809 4.81658C29.2178 4.80449 29.2559 4.79185 29.2954 4.77859C29.4285 4.73392 29.8076 4.60219 29.7944 4.60668L29.7858 4.58224L29.7858 4.58226L29.7855 4.58236ZM29.7855 4.58236C29.7732 4.5867 29.415 4.71111 29.2866 4.75423C29.2472 4.76746 29.2092 4.78008 29.1723 4.79214C28.9062 4.8792 28.706 4.93581 28.58 4.95609L28.5863 4.9811L29.7941 4.6068L29.7855 4.58236ZM26.2677 5.47397L26.2674 5.47963L26.2669 5.47934L26.2677 5.47397ZM21.5619 4.19224C21.6473 4.31171 21.8713 4.48688 22.0123 4.52948C22.0224 4.62431 22.0642 4.71619 22.1344 4.79025L21.4965 4.59379L21.4794 4.60942C21.4943 4.66294 21.5195 4.71007 21.5521 4.75032L21.1128 4.57929C21.1491 4.57995 21.189 4.57758 21.2325 4.57201L21.2397 4.54964L20.9243 4.27506C20.98 4.28716 21.036 4.29654 21.0922 4.30302L21.0999 4.27874L19.88 3.67425L19.8647 3.69509C20.1565 3.96126 20.4954 4.16462 20.8521 4.25777C20.8294 4.3072 20.8235 4.37005 20.8404 4.42506L20.1604 4.19237L20.1474 4.21449C20.2967 4.33297 20.5301 4.40306 20.8532 4.45679C20.855 4.46019 20.8568 4.46352 20.8588 4.4668C20.8877 4.51544 20.9371 4.54962 21.0074 4.56676C20.995 4.59586 20.989 4.62385 20.9892 4.65012C20.6644 4.59084 20.459 4.57185 20.3738 4.60789C20.3296 4.62671 20.3003 4.65339 20.2874 4.68414C20.23 4.66269 20.1758 4.64474 20.1162 4.62712C20.0926 4.62013 20.068 4.61314 20.0396 4.60533C20.0563 4.60992 19.8579 4.55637 19.7912 4.53732L19.7837 4.56291L19.7838 4.56295L20.2804 4.71082C20.2755 4.75569 20.3023 4.80619 20.365 4.8525C20.3871 4.8688 20.4135 4.88439 20.4435 4.89928C20.38 4.92852 20.3561 4.97632 20.3695 5.0275L19.3624 4.75366L19.3516 4.77698C19.6111 4.93554 19.9357 5.02019 20.3823 5.05903C20.3944 5.08103 20.4132 5.10308 20.4384 5.12403C20.4081 5.15789 20.3963 5.19597 20.4009 5.23475C20.3409 5.23291 20.2552 5.24758 20.1991 5.27016L20.2062 5.29569L20.4075 5.26443C20.4196 5.30161 20.4461 5.33861 20.4851 5.37233C20.8094 5.65408 21.6102 5.64865 22.3674 5.39556C22.3846 5.43228 22.4287 5.45755 22.4994 5.47652C22.528 5.48426 22.557 5.49084 22.5864 5.49631L21.6542 5.88332L21.6615 5.90793C21.9446 5.86799 22.3421 5.6907 22.6358 5.50442C22.7137 5.51551 22.7936 5.51902 22.8741 5.5154C22.8397 5.577 22.8337 5.65592 22.8586 5.72282L21.8726 6.05848L21.8808 6.08303C22.2055 5.99117 22.6299 5.8487 22.8694 5.74728C22.8989 5.80445 22.9538 5.84889 23.036 5.85915L22.0467 6.27539L22.0554 6.29971C22.2866 6.24216 22.7449 6.04987 23.0957 5.8643C23.1962 5.86955 23.3073 5.85913 23.4217 5.83646C23.4003 5.87908 23.3877 5.92112 23.3834 5.96106L22.4388 6.3866L22.4478 6.41079C22.734 6.34032 22.9924 6.21614 23.3818 5.99242C23.3821 6.05264 23.4025 6.10687 23.4417 6.14949L22.5775 6.56802L22.5863 6.59218C22.6802 6.57325 22.7922 6.53244 22.9194 6.47316C22.9892 6.44068 23.0623 6.40316 23.1386 6.36123C23.2475 6.30135 23.3332 6.25003 23.4626 6.16954C23.5064 6.20683 23.5675 6.23246 23.6448 6.2414C23.6536 6.24242 23.6626 6.24318 23.6718 6.24369L22.9644 6.56208L22.9729 6.5864C23.1299 6.55436 23.28 6.49531 23.4416 6.40987C23.4781 6.39059 23.5525 6.34806 23.6188 6.31014L23.6188 6.31012L23.6189 6.31008L23.619 6.31004C23.6705 6.2806 23.7171 6.25395 23.7372 6.24314C23.8179 6.23774 23.9078 6.21548 24.0028 6.17802C23.9605 6.24191 23.9377 6.29302 23.9342 6.33799L23.2116 6.68506L23.222 6.7088C23.349 6.66618 23.7161 6.48624 23.9348 6.36782C23.9384 6.39777 23.9515 6.42542 23.974 6.45309C23.9964 6.4807 24.0229 6.49569 24.058 6.49835L23.5623 6.72L23.5729 6.74368C23.7433 6.67764 23.9754 6.57424 24.1718 6.47737C24.2247 6.45883 24.2897 6.42831 24.3712 6.38612C24.4354 6.35299 24.511 6.30599 24.5976 6.24637C24.6204 6.2307 24.6438 6.21424 24.668 6.19691C24.6495 6.2613 24.6487 6.31682 24.6632 6.36312L23.8689 6.82596L23.8807 6.84905C24.0934 6.77055 24.4874 6.5337 24.6737 6.38974C24.6941 6.43185 24.7291 6.46488 24.7767 6.48849L24.2248 6.82611L24.2372 6.84888C24.4474 6.76332 24.6906 6.61241 24.808 6.50198L24.8132 6.50391C24.9359 6.54786 25.0593 6.54919 25.175 6.49069L24.7012 6.83266L24.7161 6.85409C24.9471 6.72235 25.2213 6.52763 25.3114 6.42413L25.2931 6.40551L25.292 6.4063L25.2882 6.38646L24.7297 6.15214C24.7605 6.12949 24.7925 6.10556 24.8275 6.07911L24.9408 5.99305L24.9301 5.97022L24.5641 6.03534L24.82 5.84699L24.8044 5.82602C24.7226 5.87889 24.5988 5.9653 24.4829 6.04978L24.1525 6.10859C24.3486 6.00444 24.5563 5.8441 24.7435 5.64049L24.7316 5.61916L24.2486 5.68535L24.313 5.64437L24.4594 5.5502C24.5149 5.51463 24.5593 5.48684 24.6015 5.4614L24.5876 5.43935L24.5873 5.43953L24.1245 5.70236L23.6974 5.7609C23.9604 5.6697 24.2113 5.52889 24.3649 5.37913C24.4302 5.37045 24.4977 5.35827 24.5663 5.34232L24.5698 5.34297L24.5697 5.34152L24.5755 5.34016L24.5748 5.31496L23.7731 5.16705C23.8242 5.16338 23.8767 5.15749 23.9303 5.1492L23.9319 5.12407L23.012 4.86497L22.9949 4.87673C22.9944 4.88562 22.9948 4.89439 22.9959 4.90305L22.0297 4.45017L22.0104 4.46111C22.0099 4.47103 22.0097 4.48096 22.0099 4.49089L21.5811 4.17467L21.5619 4.19224ZM22.0102 4.50163L22.0099 4.49089L22.036 4.51016L22.0244 4.53288L22.0123 4.52948L22.0118 4.52479L22.0197 4.53065L22.0313 4.50793C22.0245 4.5062 22.0175 4.50409 22.0102 4.50163ZM21.9359 4.46883L21.6663 4.27001C21.6328 4.23764 21.6042 4.20591 21.584 4.1776L21.5648 4.19517L21.6663 4.27001C21.7432 4.3442 21.8464 4.4217 21.9359 4.46883ZM21.9359 4.46883C21.9622 4.48266 21.9873 4.49388 22.0102 4.50163C22.0105 4.50937 22.0111 4.51709 22.0118 4.52479L21.9359 4.46883ZM23.0261 4.9172L22.9959 4.90305C22.9967 4.90895 22.9979 4.91479 22.9994 4.92056L22.9813 4.92488L22.0366 4.48212C22.0366 4.47556 22.0368 4.469 22.0372 4.46244L22.0179 4.47337L22.0366 4.48212C22.0359 4.66287 22.1574 4.84206 22.378 4.90588C22.5736 4.96246 22.7655 4.96948 22.9276 4.9392C22.8863 4.95111 22.845 4.96498 22.8046 4.98035C22.6694 4.98897 22.5209 4.97415 22.3703 4.93059C22.2955 4.90895 22.2314 4.87464 22.1789 4.83169L22.1852 4.82691L22.1809 4.80458L22.1344 4.79025C22.1421 4.79844 22.1502 4.80641 22.1587 4.81414L22.1481 4.82156L21.5126 4.62585C21.5099 4.61829 21.5075 4.61059 21.5053 4.60274L21.4883 4.61837L21.5126 4.62585C21.5401 4.70431 21.5922 4.76682 21.6572 4.81125L21.5958 4.79632L21.5952 4.79582L21.6011 4.79411L21.6022 4.76981L21.5521 4.75032C21.559 4.75886 21.5663 4.7671 21.5739 4.77502L21.5564 4.77982L21.0325 4.57587L21.034 4.57227C21.0581 4.5764 21.0844 4.57877 21.1128 4.57929L21.0305 4.54725L21.0133 4.55374C21.0112 4.55811 21.0092 4.56245 21.0074 4.56676C21.0125 4.568 21.0177 4.56915 21.023 4.57022L21.0204 4.57118L21.0325 4.57587C21.0206 4.60379 21.0154 4.6306 21.0167 4.65556L21.0105 4.65406L21.0098 4.6539L20.9892 4.65012C20.9892 4.65923 20.99 4.66814 20.9915 4.67681C20.6701 4.61789 20.4629 4.59837 20.3846 4.63151C20.2862 4.67344 20.2762 4.75439 20.3813 4.83201C20.4085 4.85203 20.4423 4.87097 20.4818 4.88884L20.4791 4.88817L20.4716 4.88845C20.4615 4.89169 20.4521 4.89532 20.4435 4.89928C20.453 4.90399 20.4629 4.90862 20.4731 4.91319L20.4726 4.91321L20.4739 4.91353L20.4758 4.91435C20.3703 4.95054 20.3659 5.03657 20.4621 5.11062L20.4594 5.11026L20.4481 5.11394C20.4447 5.11726 20.4414 5.12062 20.4384 5.12403C20.4449 5.12948 20.4519 5.13485 20.4594 5.14013C20.4026 5.20306 20.4224 5.28339 20.503 5.35314C20.8119 5.62152 21.5789 5.62159 22.3147 5.38557L22.3661 5.39247L22.3674 5.39556L22.3767 5.39245L22.3741 5.3675L22.3737 5.36744L22.3755 5.34443L22.3604 5.34081C22.3639 5.31519 22.3752 5.28562 22.3945 5.25128C22.4242 5.19863 22.4907 5.14207 22.5771 5.08981C22.6016 5.08586 22.6248 5.0816 22.6468 5.07701L22.6472 5.05189L22.6455 5.05148C22.6951 5.02566 22.749 5.00157 22.8046 4.98035C22.8494 4.97749 22.8928 4.97206 22.9343 4.96425C22.7052 5.03048 22.4776 5.15791 22.4181 5.26358C22.3562 5.37358 22.3826 5.41836 22.5066 5.45167C22.8671 5.54903 23.2964 5.4606 23.6244 5.2399L23.6378 5.24642C23.6399 5.25021 23.6423 5.25394 23.6448 5.2576C23.5111 5.34839 23.3607 5.41753 23.2046 5.46147L22.8962 5.49027L22.8864 5.49586C22.8819 5.50214 22.8778 5.50867 22.8741 5.5154L22.9025 5.51383L22.8987 5.51596L22.9051 5.51536C22.8327 5.62528 22.8712 5.81306 23.0401 5.83364C23.0553 5.83548 23.0707 5.8369 23.0864 5.83791L23.036 5.85915L23.0368 5.85924L23.0471 5.86042C22.9304 5.92105 22.8034 5.9819 22.6779 6.03799L22.3882 6.15987C22.2545 6.21233 22.1353 6.25317 22.0487 6.27472L22.0575 6.29904L22.3882 6.15987C22.4799 6.12388 22.5784 6.08243 22.6779 6.03799L23.0912 5.86405L23.0957 5.8643L23.1154 5.8538L23.1079 5.83903C23.2096 5.84319 23.3222 5.83121 23.438 5.80677C23.4321 5.81669 23.4267 5.82659 23.4217 5.83646C23.433 5.83423 23.4442 5.83189 23.4555 5.82942C23.3503 6.01652 23.4246 6.18997 23.648 6.21577C23.6737 6.21874 23.7008 6.2194 23.7293 6.21782L23.6718 6.24369L23.682 6.24414L23.6037 6.28878C23.5635 6.31175 23.5206 6.33625 23.4852 6.35616L23.1177 6.52157C23.0678 6.53763 23.0179 6.55082 22.9673 6.56115L22.9758 6.58546L23.1177 6.52157C23.2198 6.48871 23.3216 6.44389 23.4288 6.38725C23.4427 6.37986 23.4624 6.36896 23.4852 6.35616L23.7361 6.24322L23.7372 6.24314L23.7432 6.24002L23.7318 6.21768C23.8208 6.21234 23.9223 6.18524 24.0301 6.13878C24.0202 6.15239 24.0111 6.16545 24.0028 6.17802C24.0177 6.17214 24.0328 6.16587 24.048 6.15924C23.951 6.29447 23.9373 6.36589 23.9951 6.4372C24.0261 6.47544 24.0713 6.48242 24.1506 6.4569L24.058 6.49835C24.0613 6.4986 24.0646 6.49874 24.0681 6.49877C23.8949 6.58144 23.7067 6.66401 23.563 6.71974L23.5736 6.74341L24.1584 6.4819L24.1718 6.47737L24.202 6.46239L24.1916 6.44208C24.2371 6.42408 24.2919 6.3979 24.3586 6.36338C24.4216 6.33085 24.4963 6.2844 24.582 6.22537C24.612 6.20474 24.6431 6.18271 24.6757 6.15913L24.6822 6.1544C24.6767 6.16897 24.6719 6.18315 24.668 6.19691L24.6918 6.17976L24.7047 6.17032C24.6451 6.33282 24.6953 6.43444 24.8225 6.47972C24.9733 6.53374 25.1237 6.51988 25.2589 6.40228L25.2775 6.41012L25.2736 6.38902C25.2687 6.39358 25.2638 6.398 25.2589 6.40228L24.7052 6.17001L24.7297 6.15214L24.7026 6.14078L24.6989 6.14228C24.7341 6.11655 24.7705 6.08938 24.811 6.0588L24.8817 6.00507L24.935 5.9956L24.9242 5.97277L24.8817 6.00507L24.5171 6.06995L24.5641 6.03534L24.542 6.03928C24.6443 5.9655 24.748 5.89352 24.8193 5.84746L24.8037 5.82649L24.5059 6.04569L24.4829 6.04978L24.4358 6.08442L24.0695 6.14959C24.0969 6.13708 24.1246 6.12341 24.1525 6.10859L24.0615 6.12478C24.2679 6.02965 24.4946 5.8658 24.6989 5.64971L24.7353 5.64471L24.7234 5.62339L24.6989 5.64971L24.1952 5.71874L24.2486 5.68535L24.1941 5.69283L24.6012 5.46158L24.5873 5.43953C24.5449 5.46511 24.5003 5.49302 24.4446 5.5287L24.2982 5.62288C24.2585 5.64835 24.2211 5.67199 24.1857 5.69399L24.1245 5.70236L24.0641 5.73672L23.5439 5.80801C23.5951 5.79436 23.6465 5.77856 23.6974 5.7609L23.5385 5.78269C23.835 5.70335 24.1377 5.55073 24.3209 5.38449C24.3354 5.38288 24.3501 5.3811 24.3649 5.37913L24.3685 5.37567L24.359 5.35674C24.4073 5.35028 24.4569 5.34184 24.5073 5.33128L24.5663 5.34232L24.5697 5.34152L24.5691 5.3174C24.5484 5.32238 24.5278 5.327 24.5073 5.33128L23.6547 5.17167C23.6932 5.17146 23.7327 5.16995 23.7731 5.16705L23.6582 5.14587C23.7242 5.14534 23.7935 5.14095 23.8652 5.13216L23.9244 5.14884L23.926 5.12372C23.9056 5.12688 23.8853 5.1297 23.8652 5.13216L23.0219 4.89466C23.0214 4.88914 23.0213 4.88358 23.0216 4.87798L23.0045 4.88974L23.0219 4.89466C23.0226 4.90226 23.024 4.90978 23.0261 4.9172ZM23.028 4.9206L23.0282 4.91819L23.0261 4.9172L23.027 4.92008L23.0233 4.91828L23.0184 4.91771L23.0184 4.91746L23.0179 4.91764L23.0143 4.91721L22.9994 4.92056L23 4.92271L22.985 4.92663L22.9813 4.92488C22.9634 4.92927 22.9455 4.93405 22.9276 4.9392C22.9472 4.93555 22.9664 4.93135 22.985 4.92663L23.0041 4.9356C23.0053 4.93879 23.0066 4.94195 23.0081 4.9451C22.9836 4.9507 22.9589 4.95712 22.9343 4.96425C22.9599 4.95942 22.9848 4.95368 23.009 4.94707C23.0492 5.03362 23.1719 5.10408 23.3452 5.14178L22.8008 5.31368L22.8065 5.33962C23.0527 5.30965 23.1932 5.25922 23.3988 5.15261L23.3986 5.15209C23.4195 5.15562 23.441 5.1587 23.463 5.16131L23.6244 5.2399L23.632 5.23469C23.6337 5.23866 23.6356 5.24257 23.6378 5.24642L23.6442 5.24955L23.6424 5.22757L23.632 5.23469C23.6288 5.22709 23.6264 5.21926 23.6249 5.21123L23.6563 5.22651L23.6581 5.24849L23.6448 5.2576C23.6781 5.30509 23.748 5.34226 23.8437 5.36603L23.7391 5.41156L23.2046 5.46147C23.1065 5.48909 23.0061 5.50675 22.9063 5.51358L22.9085 5.51037L22.9025 5.51383L22.9063 5.51358L22.9051 5.51536L23.6632 5.44457L23.2061 5.64351L23.2156 5.66758C23.399 5.61203 23.6009 5.52573 23.7793 5.43373L24.2099 5.39353C24.2459 5.39167 24.283 5.38868 24.3209 5.38449L24.3225 5.38301L24.3602 5.37949L24.3495 5.35799L24.359 5.35674L24.3576 5.35381L24.1532 5.37289C23.8424 5.37912 23.6275 5.29509 23.6521 5.17168L23.6547 5.17167L23.6522 5.17119C23.6529 5.16745 23.6539 5.16369 23.6551 5.15988L23.6398 5.16887L23.6522 5.17119L23.6521 5.17168L23.6248 5.17157C23.6258 5.16524 23.6274 5.15879 23.6295 5.15225L23.6405 5.14592L23.6582 5.14587L23.6448 5.1434L23.6405 5.14592C23.581 5.14577 23.5244 5.14247 23.4713 5.13642L23.028 4.9206ZM23.0279 4.92287L23.028 4.9206L23.027 4.92008L23.0279 4.92287ZM23.0452 4.95787C23.0377 4.9465 23.0318 4.93481 23.0279 4.92287L23.0263 4.94213L23.0179 4.94458L23.0155 4.94342L23.0202 4.94238L23.0112 4.94131L23.0155 4.94342L23.0081 4.9451L23.009 4.94707L23.0179 4.94458L23.0452 4.95787ZM23.3861 5.12386C23.4133 5.12885 23.4417 5.13306 23.4713 5.13642L23.5363 5.16809C23.5112 5.1664 23.4868 5.16413 23.463 5.16131L23.3861 5.12386ZM23.0452 4.95787L23.3861 5.12386C23.2174 5.09297 23.0944 5.03218 23.0452 4.95787ZM23.5363 5.16809L23.6249 5.21123C23.6226 5.19853 23.6225 5.18529 23.6248 5.17157C23.5945 5.17121 23.565 5.17003 23.5363 5.16809ZM24.3488 5.35808L24.3493 5.35763L24.3495 5.35799L24.3488 5.35808ZM24.3488 5.35808C24.2806 5.36685 24.215 5.37165 24.1532 5.37289L23.9805 5.38902C23.9477 5.38571 23.9166 5.38122 23.8874 5.37562L23.8905 5.37388L23.8783 5.35097L23.8437 5.36603L23.8488 5.36728C23.8236 5.3811 23.7977 5.39489 23.7713 5.40855L23.7391 5.41156L23.6632 5.44457L23.7085 5.44034C23.5466 5.52043 23.3696 5.59388 23.2076 5.64296L23.2171 5.66703L23.746 5.43684L23.7793 5.43373C23.7995 5.42329 23.8194 5.41278 23.839 5.40223L23.9805 5.38902C24.0501 5.39605 24.1273 5.39777 24.2099 5.39353L24.3225 5.38301C24.3316 5.37473 24.3404 5.36642 24.3488 5.35808ZM23.8219 5.40383L23.839 5.40223C23.8554 5.39338 23.8716 5.3845 23.8874 5.37562L23.8869 5.37552L23.8893 5.37449L23.8771 5.35158L23.8488 5.36728C23.8611 5.37025 23.8738 5.373 23.8869 5.37552L23.8219 5.40383ZM23.8219 5.40383L23.7713 5.40855C23.7507 5.41923 23.7297 5.42985 23.7085 5.44034L23.746 5.43684L23.8219 5.40383ZM23.3959 5.15163L23.3986 5.15209L23.3886 5.12808L23.3452 5.14178L23.3567 5.14421C23.3047 5.17055 23.2567 5.19313 23.2095 5.21259L22.9891 5.28217C22.9331 5.29466 22.8724 5.3047 22.8033 5.31313L22.8089 5.33907L22.9891 5.28217C23.068 5.2646 23.1377 5.24219 23.2095 5.21259L23.3967 5.15347L23.3959 5.15163ZM23.3959 5.15163C23.3826 5.14934 23.3695 5.14687 23.3567 5.14421L23.3865 5.12893L23.3959 5.15163ZM23.0041 4.9356C23.0025 4.93134 23.0011 4.92704 23 4.92271L23.0179 4.91764L23.0184 4.91771L23.0165 4.9414L23.0041 4.9356ZM23.4614 5.81932L23.4555 5.82942C23.4849 5.82304 23.5144 5.81588 23.5439 5.80801L23.4614 5.81932ZM23.4614 5.81932L23.4646 5.81399L23.455 5.8202L23.4614 5.81932ZM24.1309 5.72756L24.0641 5.73672L23.712 5.9367L23.7235 5.95989C23.8688 5.90749 24.0049 5.83653 24.1952 5.71874L24.1336 5.72719L24.1941 5.69283L24.1857 5.69399C24.1669 5.70563 24.1486 5.71681 24.1309 5.72756ZM24.0937 5.74982L24.1309 5.72756L24.1336 5.72719L24.0937 5.74982ZM24.0937 5.74982C24.0516 5.77479 24.0121 5.79726 23.9743 5.81764L24.0937 5.74982ZM23.9743 5.81764C23.8818 5.86757 23.7994 5.90495 23.7141 5.93573L23.7256 5.95893L23.9743 5.81764ZM24.0528 6.15257L24.048 6.15924L24.0695 6.14959L24.0528 6.15257ZM24.0528 6.15257L24.0559 6.14827L24.0474 6.15353L24.0528 6.15257ZM24.4589 6.0803L24.4358 6.08442C24.3295 6.16297 24.2364 6.23546 24.1985 6.27213L24.2162 6.29148L24.5171 6.06995L24.4941 6.07405L24.542 6.03928L24.5059 6.04569L24.4589 6.0803ZM24.4589 6.0803L24.1999 6.27098L24.2175 6.29033C24.2594 6.24976 24.3717 6.16337 24.4941 6.07405L24.4589 6.0803ZM24.7049 6.1699L24.7047 6.17032L24.7052 6.17001L24.7049 6.1699ZM24.7049 6.1699L24.7097 6.15721L24.6919 6.16444L24.7049 6.1699ZM24.6989 6.14228L24.6822 6.1544L24.6847 6.14802L24.6989 6.14228ZM24.1911 6.4423L24.1916 6.44208L24.1902 6.43923L24.1506 6.4569L24.1626 6.4529C24.1319 6.46808 24.1002 6.48343 24.0681 6.49877C24.0934 6.49901 24.1231 6.49335 24.1584 6.4819L24.2014 6.46264L24.1911 6.4423ZM24.1911 6.4423L24.1896 6.43948L24.1626 6.4529C24.1717 6.44975 24.1812 6.44622 24.1911 6.4423ZM24.0615 6.12478C24.051 6.12963 24.0405 6.13429 24.0301 6.13878L24.034 6.13341L24.0425 6.12815L24.0615 6.12478ZM23.7311 6.21771L23.7427 6.24028L23.7361 6.24322C23.7176 6.24443 23.6995 6.24474 23.682 6.24414C23.7039 6.23172 23.7209 6.22222 23.7295 6.2178L23.7311 6.21771ZM23.7311 6.21771L23.7318 6.21768L23.7314 6.21689L23.7293 6.21782L23.7295 6.2178L23.7308 6.21715L23.7311 6.21771ZM23.5385 5.78269C23.5048 5.79169 23.4713 5.79974 23.438 5.80677L23.4416 5.80086L23.4512 5.79465L23.5385 5.78269ZM23.1064 5.83896L23.1143 5.85434L23.0912 5.86405C23.0763 5.8632 23.0615 5.86199 23.0471 5.86042L23.0896 5.83808L23.1064 5.83896ZM23.1064 5.83896L23.1079 5.83903L23.1036 5.83069L23.0864 5.83791L23.0896 5.83808L23.1025 5.83124L23.1064 5.83896ZM22.6411 5.0538L22.6455 5.05148L22.0294 4.90172C22.083 4.88842 22.134 4.86528 22.1789 4.83169L22.1721 4.82599L22.1684 4.80683L22.1587 4.81414C22.1631 4.81816 22.1675 4.82211 22.1721 4.82599L22.1727 4.82916L22.1481 4.82156C22.0941 4.85799 22.0318 4.87931 21.9676 4.88669L21.6572 4.81125C21.6884 4.83255 21.7225 4.84969 21.7584 4.86246L21.6456 4.83506C21.6281 4.82336 21.6114 4.81043 21.5958 4.79632L21.5946 4.79602L21.5952 4.79582L21.5922 4.79302L21.5932 4.76944L21.5739 4.77502C21.5798 4.78122 21.5859 4.78722 21.5922 4.79302L21.5921 4.79374L21.5564 4.77982L21.5427 4.78342L21.0167 4.65556C21.0172 4.66506 21.0186 4.67429 21.0209 4.68321L21.0043 4.67917L21.0047 4.67924L21.004 4.67908L21.0043 4.67917L20.9915 4.67681C21.0151 4.81319 21.2169 4.89156 21.5427 4.81004L21.6456 4.83506C21.7382 4.89677 21.8544 4.92443 21.9657 4.91285L22.5824 5.06276C22.2358 5.12072 21.6321 5.11295 21.1334 5.04559L20.4818 4.88884C20.6333 4.95727 20.8685 5.00983 21.1334 5.04559L21.3417 5.09572C21.269 5.08859 21.1973 5.08027 21.1276 5.07079L20.4764 4.91413L20.4801 4.91293L20.4731 4.91319L20.4739 4.91353L20.4764 4.91413L20.4758 4.91435C20.6301 4.98261 20.8646 5.03502 21.1276 5.07079L22.2888 5.35017L22.2572 5.3518L20.4621 5.11062C20.4769 5.12195 20.4939 5.13301 20.5134 5.14356L20.4625 5.13673L20.4671 5.13214L20.4557 5.13582L20.4625 5.13673L20.4594 5.14013C20.4901 5.16193 20.5282 5.18212 20.5736 5.19926C20.8861 5.31732 21.7513 5.40049 22.256 5.37768L22.3147 5.38557L22.3589 5.3711L22.3602 5.37098C22.3613 5.37855 22.3632 5.3857 22.3661 5.39247L22.3704 5.39305L22.368 5.37028L22.3735 5.36979L22.3737 5.36744L22.3692 5.36684L22.3709 5.3441L22.3599 5.3451L22.3604 5.34081L21.3417 5.09572C21.7885 5.13951 22.2746 5.13867 22.5771 5.08981C22.5883 5.08307 22.5997 5.0764 22.6115 5.06982L22.6407 5.07691L22.6411 5.0538ZM22.6411 5.0538C22.631 5.05907 22.6212 5.06442 22.6115 5.06982L22.5824 5.06276C22.6029 5.05933 22.6225 5.05568 22.6411 5.05179L22.6411 5.0538ZM22.3596 5.36555C22.3591 5.35904 22.3592 5.35222 22.3599 5.3451C22.3373 5.34708 22.3135 5.34876 22.2888 5.35017L22.344 5.36345L22.2572 5.3518C22.2056 5.35417 22.1501 5.35542 22.0918 5.35562L20.5134 5.14356C20.534 5.15477 20.5574 5.16542 20.5833 5.17523C20.8606 5.27995 21.5843 5.35739 22.0918 5.35562L22.256 5.37768C22.2923 5.37605 22.3267 5.37386 22.3589 5.3711L22.3602 5.37066L22.3602 5.37098L22.368 5.37028L22.3679 5.36921L22.369 5.36946L22.3692 5.36684L22.3596 5.36555ZM22.3598 5.36725L22.3596 5.36555L22.344 5.36345L22.3598 5.36725ZM22.3659 5.36873L22.3602 5.37066L22.3598 5.36725L22.3659 5.36873ZM22.3659 5.36873L22.3679 5.36921L22.3678 5.3681L22.3659 5.36873ZM21.8524 4.88532L21.7584 4.86246C21.7888 4.87327 21.8204 4.88094 21.8524 4.88532ZM21.8524 4.88532L21.9657 4.91285C21.9872 4.91062 22.0085 4.90692 22.0294 4.90172L21.9676 4.88669C21.9294 4.89107 21.8906 4.89053 21.8524 4.88532ZM21.487 4.79649C21.5051 4.79266 21.5236 4.78832 21.5427 4.78342L21.5946 4.79602C21.577 4.80114 21.5597 4.80581 21.5427 4.81004L21.487 4.79649ZM21.487 4.79649L21.0209 4.68321C21.0495 4.79162 21.2141 4.85408 21.487 4.79649ZM21.023 4.57022L21.034 4.57227L21.0376 4.56469L21.023 4.57022ZM25.2915 6.40822L25.2922 6.40755L25.292 6.4063L25.175 6.49069C25.2125 6.47177 25.2491 6.44659 25.2846 6.41457C25.1908 6.517 24.9258 6.7045 24.7024 6.83188L24.7173 6.85331L25.3091 6.42616L25.2915 6.40822ZM25.2915 6.40822L25.2846 6.41457L25.2908 6.40755L25.2915 6.40822ZM24.8059 6.5012L24.808 6.50198L24.8152 6.49513L24.7985 6.47514L24.7767 6.48849L24.7814 6.49079C24.7349 6.53321 24.6702 6.58142 24.5964 6.62932L24.4885 6.69534C24.4031 6.74466 24.3121 6.79038 24.2268 6.82511L24.2392 6.84789L24.4885 6.69534C24.5258 6.67382 24.5621 6.6516 24.5964 6.62932L24.8059 6.5012ZM24.8059 6.5012L24.8128 6.49692L24.7962 6.47693C24.7915 6.48148 24.7866 6.4861 24.7814 6.49079C24.7892 6.49451 24.7974 6.49798 24.8059 6.5012ZM24.6728 6.3877L24.6737 6.38974L24.6875 6.37894L24.6721 6.35793L24.6632 6.36312L24.6636 6.36444C24.5886 6.42311 24.4763 6.49867 24.3554 6.57264L24.1679 6.68188C24.057 6.74322 23.9509 6.79551 23.8711 6.82495L23.8828 6.84804L24.1679 6.68188C24.2301 6.6475 24.2939 6.61028 24.3554 6.57264L24.6728 6.3877ZM24.6728 6.3877C24.6692 6.38023 24.6662 6.37248 24.6636 6.36444L24.6705 6.35901L24.686 6.38001L24.6728 6.3877ZM23.9346 6.36663L23.9348 6.36782L23.9549 6.35686L23.9423 6.33409L23.9342 6.33799L23.9342 6.33853C23.7186 6.45597 23.3406 6.64166 23.2132 6.68443L23.2236 6.70816L23.9346 6.36663ZM23.9346 6.36663C23.9336 6.3575 23.9334 6.34815 23.9342 6.33853L23.9417 6.33442L23.9543 6.35719L23.9346 6.36663ZM23.4616 6.16873L23.4626 6.16954L23.4724 6.16345L23.4591 6.14108L23.4417 6.14949L23.4431 6.15095C23.355 6.20571 23.2872 6.24689 23.2179 6.28675L22.7228 6.52654C22.6715 6.54462 22.6241 6.5582 22.5808 6.56692L22.5895 6.59108L22.7228 6.52654C22.7799 6.50641 22.8417 6.48071 22.9078 6.44993C22.9769 6.41772 23.0495 6.38047 23.1253 6.33881C23.1576 6.32104 23.1879 6.30402 23.2179 6.28675L23.4616 6.16873ZM23.4616 6.16873C23.455 6.16306 23.4489 6.15713 23.4431 6.15095L23.4578 6.14177L23.4711 6.16414L23.4616 6.16873ZM23.3818 5.99028L23.3818 5.99242L23.3995 5.98221L23.387 5.95945L23.3834 5.96106L23.3834 5.96146C23.2895 6.01554 23.2033 6.06386 23.1226 6.10706L22.6197 6.33357C22.5604 6.3537 22.5013 6.37096 22.4411 6.38579L22.4501 6.40998L22.6197 6.33357C22.7759 6.2806 22.9344 6.20775 23.1226 6.10706L23.3818 5.99028ZM23.3818 5.99028L23.3983 5.98283L23.3858 5.96007L23.3834 5.96146C23.3823 5.9712 23.3818 5.98081 23.3818 5.99028ZM22.8691 5.74663L22.8694 5.74728L22.8789 5.74324L22.869 5.71928L22.8586 5.72282L22.8589 5.72355C22.6206 5.82446 22.1971 5.96666 21.8732 6.05827L21.8815 6.08281L22.8691 5.74663ZM22.8691 5.74663C22.8652 5.73913 22.8618 5.73142 22.8589 5.72355L22.868 5.71966L22.8779 5.74361L22.8691 5.74663ZM22.6349 5.50429L22.6358 5.50442L22.6391 5.50232L22.6264 5.4797L22.5864 5.49631L22.5967 5.49817C22.556 5.52343 22.5134 5.54845 22.4696 5.57291L21.7847 5.85724C21.7404 5.86821 21.6978 5.87673 21.6576 5.8824L21.6648 5.90702L21.7847 5.85724C21.997 5.80472 22.2493 5.69589 22.4696 5.57291L22.6349 5.50429ZM22.6349 5.50429C22.6221 5.50246 22.6094 5.50042 22.5967 5.49817L22.6244 5.48078L22.637 5.5034L22.6349 5.50429ZM20.4066 5.26163L20.4075 5.26443L20.4204 5.26241L20.4198 5.23598C20.4138 5.23536 20.4075 5.23495 20.4009 5.23475L20.4013 5.23834L20.202 5.2693L20.2091 5.29483C20.2639 5.27277 20.3506 5.2585 20.4066 5.26163ZM20.4066 5.26163C20.4042 5.25386 20.4024 5.24609 20.4013 5.23834L20.4163 5.23602L20.417 5.26245L20.4066 5.26163ZM20.3815 5.05758L20.3823 5.05903L20.3902 5.05971L20.395 5.03444L20.3695 5.0275L20.3708 5.0321C20.3248 5.02797 20.2801 5.02336 20.2367 5.01821L19.4564 4.80605C19.4253 4.79002 19.3952 4.77308 19.3659 4.75518L19.3551 4.7785L19.4564 4.80605C19.6652 4.91371 19.9167 4.98028 20.2367 5.01821L20.3815 5.05758ZM20.3815 5.05758C20.3769 5.04905 20.3734 5.04054 20.3708 5.0321L20.3926 5.034L20.3877 5.05927L20.3815 5.05758ZM20.2805 4.71006L20.2804 4.71082L20.2909 4.71395L20.2995 4.68872L20.2874 4.68414L20.287 4.68496L19.7914 4.53736L19.7838 4.56295C19.8507 4.58207 20.0493 4.63567 20.0325 4.63103C20.0607 4.6388 20.0851 4.64574 20.1086 4.65268C20.1685 4.67039 20.2228 4.68842 20.2805 4.71006ZM20.2805 4.71006L20.29 4.71363L20.2986 4.6884L20.287 4.68496C20.2837 4.69307 20.2815 4.70146 20.2805 4.71006ZM20.8523 4.45493L20.8532 4.45679L20.8541 4.45694L20.8609 4.43206L20.8404 4.42506L20.8415 4.42863C20.7861 4.41923 20.7333 4.4093 20.6833 4.39871L20.2441 4.24842C20.2151 4.23165 20.1886 4.21375 20.1644 4.19457L20.1514 4.21669L20.2441 4.24842C20.355 4.31258 20.5012 4.36011 20.6833 4.39871L20.8519 4.45638L20.8523 4.45493ZM20.8523 4.45493C20.8481 4.44646 20.8445 4.43766 20.8415 4.42863L20.8587 4.43151L20.8523 4.45493ZM20.8794 4.23802L20.8607 4.241C20.8576 4.24638 20.8548 4.25198 20.8521 4.25777L20.8697 4.26228L20.8766 4.26825C20.8511 4.32372 20.8494 4.39922 20.882 4.45396C20.9269 4.52928 21.0301 4.56639 21.1999 4.54973L21.2218 4.56879L21.229 4.54643C21.2191 4.5477 21.2094 4.5488 21.1999 4.54973L20.8766 4.26825L20.8784 4.26443C20.8937 4.26818 20.909 4.27172 20.9243 4.27506L20.8828 4.23886C20.9271 4.24979 20.9716 4.25898 21.0163 4.26634L21.0877 4.30168L21.0954 4.2774C21.069 4.27436 21.0426 4.27066 21.0163 4.26634L19.9567 3.74125C19.9318 3.72008 19.9073 3.69843 19.8831 3.67635L19.8678 3.69719L19.9567 3.74125C20.2339 3.97758 20.5495 4.15595 20.8794 4.23802ZM20.8794 4.23802L20.8814 4.23769L20.8828 4.23886L20.8794 4.23802ZM20.8784 4.26443L20.8697 4.26228L20.8635 4.25684L20.8842 4.25354C20.8821 4.25706 20.8802 4.26069 20.8784 4.26443ZM25.3024 6.60115C25.2471 6.67241 25.1079 6.83034 25.0194 6.92193L25.0394 6.93908L25.3233 6.61722L25.3024 6.60115ZM25.3029 6.60051L25.3238 6.61659C25.2679 6.68867 25.1282 6.84729 25.039 6.93952L25.019 6.92237L25.3029 6.60051Z" fill="black"/>
<path fill-rule="evenodd" clip-rule="evenodd" d="M24.6131 4.48208C24.6535 4.46148 24.6736 4.45566 24.7189 4.44735C24.7302 4.44529 24.7371 4.44382 24.7445 4.44177C24.7731 4.43378 24.7978 4.41841 24.8307 4.38619C24.8498 4.36738 24.8701 4.34838 24.8911 4.3293L25.6461 3.9144C25.6825 3.9479 25.724 3.95684 25.787 3.93419C25.8316 3.91805 25.8541 3.88686 25.8629 3.84194C25.8654 3.82914 25.8662 3.82093 25.8681 3.79729L25.8685 3.79216L25.9446 3.75032C25.9601 3.74932 25.9759 3.74904 25.9925 3.74943L25.9932 3.72363L25.9446 3.75032C25.9224 3.75175 25.9009 3.75464 25.8792 3.75904L25.878 3.75927L25.8757 3.73338L25.845 3.76544C25.8482 3.7488 25.8537 3.73976 25.8645 3.73573L25.8737 3.73378L25.8756 3.73339C25.8714 3.73377 25.8677 3.73453 25.8645 3.73573C25.8312 3.74304 25.7964 3.75379 25.7515 3.77011C25.7219 3.78088 25.594 3.83033 25.5953 3.82982C25.3952 3.90604 25.0378 4.1472 24.8153 4.36444L24.7175 4.42133L24.7139 4.422C24.6662 4.43075 24.6438 4.43724 24.6006 4.45927L24.6131 4.48208ZM24.7271 4.41941L24.7175 4.42133L24.6131 4.48208L24.7271 4.41941ZM24.7991 4.37986C24.8031 4.37627 24.8072 4.37236 24.8116 4.36811L24.8153 4.36444L24.92 4.30355C24.9102 4.31214 24.9006 4.32073 24.8911 4.3293L24.7991 4.37986ZM25.5849 3.86192C25.4102 3.93427 25.1298 4.1194 24.92 4.30355L25.6259 3.89288L25.6301 3.89782L25.6301 3.89784L25.6325 3.90059C25.637 3.90558 25.6415 3.91019 25.6461 3.9144L25.671 3.9007C25.6985 3.92274 25.7291 3.92668 25.7778 3.90917C25.8127 3.89657 25.8294 3.8733 25.8366 3.83685C25.8383 3.82782 25.8392 3.82115 25.8404 3.80762L25.8685 3.79216C25.8707 3.76693 25.8733 3.76032 25.8781 3.7599L25.878 3.75927C25.8697 3.76094 25.8636 3.762 25.8585 3.76289L25.8483 3.76473L25.845 3.76544C25.8254 3.76979 25.8002 3.77939 25.663 3.83177L25.6205 3.848C25.6065 3.83679 25.5921 3.83379 25.5755 3.84118L25.5849 3.86192ZM25.6494 3.87922L25.6259 3.89288C25.6197 3.88562 25.6109 3.87545 25.6079 3.87252C25.599 3.86383 25.5939 3.86216 25.5865 3.86547L25.5849 3.86192C25.5918 3.85904 25.5986 3.85634 25.6052 3.85382L25.6205 3.848C25.6225 3.84967 25.6246 3.85153 25.6267 3.85355C25.631 3.85782 25.6435 3.87232 25.6494 3.87922ZM25.6494 3.87922L25.845 3.76544C25.8434 3.7735 25.8423 3.78333 25.8414 3.79523L25.8404 3.80762L25.671 3.9007C25.6647 3.89569 25.6586 3.88975 25.6525 3.88292L25.6519 3.88219L25.6494 3.87922ZM24.7991 4.37986L24.7271 4.41941C24.7308 4.41862 24.7339 4.41786 24.737 4.41698C24.7574 4.41129 24.7756 4.40099 24.7991 4.37986ZM30.4033 5.09356L30.3908 5.09801L30.3815 5.07379L30.403 5.06613C30.4037 5.07495 30.4038 5.0841 30.4033 5.09356ZM30.3011 5.32263C30.3419 5.27489 30.3795 5.20663 30.3952 5.1445C30.3996 5.12673 30.4024 5.1097 30.4033 5.09356C30.9877 4.88572 31.3138 4.75205 31.7059 4.53433C31.9086 4.42182 32.0968 4.30029 32.2705 4.16781L32.2539 4.14758C32.0813 4.27924 31.8941 4.40007 31.6926 4.51198C31.3042 4.72764 30.9805 4.8606 30.403 5.06613C30.3989 5.01375 30.3726 4.97295 30.3221 4.94917C30.8334 4.78925 31.3115 4.57402 31.4946 4.40102L31.4758 4.3826C31.2923 4.556 30.8009 4.77504 30.2808 4.93486C30.296 4.93856 30.3098 4.94335 30.3221 4.94917L30.2814 4.96176L30.2742 4.95988L30.2808 4.93486C30.1281 4.98178 29.9729 5.0236 29.8223 5.05766C29.7872 5.04146 29.7447 5.02774 29.6946 5.01675C29.3746 4.94659 28.8929 5.02084 28.5984 5.18418C28.5588 5.17458 28.5195 5.16575 28.481 5.15784C28.5704 5.08116 28.6173 4.98276 28.5809 4.89035L28.5558 4.89952C28.6297 5.08686 28.3023 5.31337 28.0214 5.26233L28.0164 5.28769C28.1714 5.31585 28.34 5.26435 28.4546 5.17889C28.5964 5.20699 28.7516 5.24847 28.8904 5.29523L28.8907 5.29692L28.8939 5.29639C29.057 5.35152 29.1972 5.41387 29.2662 5.47024C29.3459 5.5352 29.3878 5.59296 29.3853 5.63709C29.3826 5.68551 29.3244 5.72278 29.2001 5.74396C29.0454 5.77044 28.9461 5.77712 28.8083 5.76269L28.7279 5.7479L28.727 5.75247C28.6758 5.74512 28.6185 5.73545 28.5518 5.72341C28.3619 5.59452 28.0705 5.46776 27.7696 5.3681L27.7608 5.3925C28.0573 5.49068 28.3452 5.61584 28.5324 5.74183L28.5316 5.74601L28.5411 5.74774C28.5945 5.78434 28.6393 5.82097 28.6733 5.857C28.7556 5.94446 28.7452 6.00251 28.6549 6.03597C28.5659 6.06899 28.4077 6.07272 28.2262 6.04635C27.8851 5.99661 27.3188 5.71758 27.0312 5.47018L27.0134 5.48943C27.1871 5.63889 27.4604 5.79931 27.7262 5.91515L27.7255 5.91584C27.791 5.97944 27.852 6.07212 27.8793 6.15647C27.9048 6.23553 27.8718 6.27414 27.7965 6.26839C27.6953 6.26096 27.6207 6.24408 27.5232 6.19941L27.5193 6.20734C27.4727 6.15596 27.4099 6.10698 27.3306 6.06533C27.1143 5.95145 26.8323 5.71218 26.7012 5.53668L26.6795 5.55176C26.813 5.7304 27.0979 5.97226 27.3178 6.08799C27.5666 6.21875 27.6427 6.41949 27.5669 6.5256C27.4999 6.61947 27.2763 6.63178 27.0533 6.50428C26.7869 6.35171 26.479 5.86678 26.4377 5.52518L26.4111 5.52817C26.4533 5.87752 26.7658 6.36965 27.0396 6.52646C27.0842 6.55195 27.129 6.57209 27.1728 6.58728C27.193 6.64108 27.2013 6.7082 27.1962 6.81309C27.1898 6.94457 27.0893 7.0334 26.9668 6.98887C26.8458 6.94497 26.7526 6.84736 26.6901 6.726L26.6661 6.73746C26.7313 6.86415 26.8291 6.96647 26.9573 7.01302C26.991 7.02525 27.0232 7.02878 27.0529 7.02508C27.1254 7.173 27.1651 7.28153 27.1601 7.32102C27.1524 7.38052 27.1363 7.39867 27.0797 7.386L27.0737 7.41114C27.1496 7.42812 27.1773 7.39684 27.1866 7.32418C27.1925 7.27826 27.1532 7.16994 27.0798 7.01958C27.0948 7.01526 27.109 7.009 27.1222 7.00102C27.2241 7.13076 27.2988 7.22318 27.3908 7.33005C27.4184 7.3621 27.4453 7.39262 27.4713 7.42145C27.5679 7.52849 27.6502 7.60922 27.7145 7.65753L27.731 7.63717C27.6683 7.59012 27.5871 7.5104 27.4915 7.40452C27.4656 7.37584 27.4389 7.34547 27.4115 7.31357C27.3198 7.20714 27.2454 7.11502 27.1437 6.9857C27.1897 6.94775 27.2194 6.88631 27.2229 6.8143C27.226 6.75091 27.2243 6.70046 27.218 6.65801C27.4836 6.95337 28.1073 7.50766 28.293 7.60882L28.3062 7.58636C28.1162 7.48287 27.4506 6.88858 27.2079 6.60664L27.2073 6.60711L27.2044 6.59745C27.3601 6.6435 27.4995 6.6264 27.5684 6.56334C27.724 6.75907 28.209 7.03386 28.4591 7.07989L28.4641 7.05454C28.2184 7.00933 27.7337 6.73391 27.5865 6.5436L27.589 6.54023C27.6344 6.47663 27.6326 6.38566 27.5819 6.29373C27.7587 6.43611 28.056 6.64606 28.3312 6.83007L28.3465 6.80887C28.0523 6.61218 27.7323 6.38539 27.5632 6.2446C27.6407 6.27477 27.7086 6.28782 27.7944 6.29412C27.8341 6.29715 27.8656 6.28893 27.8863 6.27112C28.0734 6.4585 28.5545 6.8358 28.7456 6.92663L28.7575 6.90349C28.5687 6.81379 28.0863 6.43511 27.9031 6.25068C27.9171 6.22586 27.9186 6.19127 27.9049 6.1488C27.8818 6.0775 27.8363 6.00122 27.7836 5.93953C27.9433 6.00546 28.0973 6.05365 28.2222 6.07187C28.2598 6.07733 28.2964 6.08153 28.3317 6.08446L28.33 6.08632C28.5653 6.28697 29.0012 6.56159 29.2571 6.67897L29.2686 6.65567C29.0235 6.54321 28.61 6.28419 28.3719 6.08729C28.443 6.09136 28.5078 6.08996 28.5629 6.08307C28.6358 6.1398 28.7711 6.2193 28.9651 6.32271C28.9902 6.33608 29.0162 6.34984 29.0435 6.3641C29.1098 6.39885 29.2693 6.4807 29.3681 6.53141L29.3681 6.53143L29.4498 6.57338L29.4625 6.55068L29.3804 6.50851C29.2816 6.45778 29.1224 6.37609 29.0563 6.34143C29.0291 6.3272 29.0031 6.31347 28.9781 6.30013C28.8016 6.20609 28.674 6.13191 28.5991 6.0775C28.6235 6.07297 28.6454 6.06715 28.6645 6.06006C28.6844 6.05269 28.7011 6.04401 28.7146 6.03412C29.2103 6.33499 29.5259 6.49379 29.8487 6.56593L29.8547 6.54079C29.5372 6.46981 29.2245 6.31283 28.7347 6.01581C28.7588 5.98787 28.7625 5.95291 28.7446 5.91271C28.8009 5.93438 28.8672 5.96099 28.9514 5.99556L29.1661 6.08424L29.2275 6.10966L29.2815 6.13186C29.5906 6.25869 29.7847 6.33103 29.9178 6.36395L29.9245 6.33895C29.7931 6.30648 29.5998 6.2344 29.292 6.10811L29.2381 6.08594L29.1765 6.06048L28.9619 5.97182C28.862 5.9308 28.7872 5.90092 28.7243 5.87719L28.7242 5.87737C28.7156 5.86517 28.7053 5.85259 28.6931 5.83966C28.6677 5.8127 28.6366 5.78551 28.6006 5.7583C28.6799 5.77208 28.7455 5.78202 28.8042 5.78822C29.3158 5.88412 29.8097 6.01013 29.9304 6.10979L29.9478 6.09019C29.8354 5.99741 29.4306 5.88707 28.9766 5.79541C29.0462 5.79319 29.1167 5.78444 29.2048 5.76937C29.2784 5.75682 29.3323 5.73806 29.3667 5.71323L29.3669 5.71499C29.3873 5.71298 29.4074 5.71074 29.4272 5.70827C29.6589 5.80448 30.0306 5.83083 30.2101 5.74797C30.2666 5.85629 30.1791 6.01948 30.0782 6.05054L30.0864 6.07512C30.142 6.058 30.1932 6.00753 30.2242 5.94603C30.4877 6.00519 31.08 6.0166 31.3671 5.95591L31.3616 5.92982C31.0802 5.9893 30.4977 5.97849 30.2353 5.92118C30.2468 5.89227 30.2537 5.8617 30.2546 5.83153C30.6483 5.8658 31.1223 5.83726 31.364 5.72622L31.3527 5.702C31.1159 5.81084 30.6437 5.839 30.2538 5.80469C30.2515 5.7807 30.2451 5.75737 30.2337 5.73577L30.2424 5.73048C30.2729 5.71114 30.2979 5.68958 30.3176 5.66668C30.8021 5.59979 31.1595 5.49165 31.4856 5.33469C31.5562 5.30073 31.7038 5.22075 31.8232 5.1561L31.8232 5.15609C31.9026 5.11308 31.9695 5.07686 31.9928 5.06549C32.0353 5.04475 32.0751 5.02715 32.1142 5.01199L32.1042 4.98805C32.0643 5.00351 32.0239 5.0214 31.9807 5.04246C31.9569 5.05409 31.889 5.09083 31.8088 5.13426C31.6897 5.19878 31.5433 5.27806 31.4736 5.31161C31.1558 5.46458 30.808 5.57082 30.3392 5.63756C30.361 5.60341 30.3719 5.56725 30.3724 5.53163C31.1872 5.33503 31.8929 5.04177 32.3673 4.66687L32.3504 4.64692C31.8805 5.01825 31.18 5.30966 30.3708 5.5054C30.3633 5.44894 30.329 5.3955 30.2696 5.35564C30.7001 5.26719 30.9829 5.14585 31.5277 4.8537L31.5633 4.83461C31.7181 4.75167 31.8015 4.70796 31.8978 4.66054L31.8856 4.63756C31.789 4.68516 31.7053 4.72898 31.5503 4.81206L31.5147 4.83115C30.9879 5.11364 30.7079 5.23545 30.3011 5.32263ZM30.269 5.35523C30.2797 5.34606 30.2905 5.33504 30.3011 5.32263L30.2625 5.33072L30.2677 5.35436C30.2634 5.35149 30.2589 5.34869 30.2543 5.34597L30.2403 5.36797L30.2474 5.3723C30.0158 5.54986 29.7873 5.65484 29.4806 5.70094C29.4656 5.69567 29.4512 5.69013 29.4372 5.68433L29.4266 5.70802L29.4272 5.70827C29.4453 5.70601 29.463 5.70357 29.4806 5.70094C29.7219 5.78614 30.0825 5.80104 30.2277 5.70893C30.3819 5.61111 30.3811 5.45646 30.2474 5.3723L30.2617 5.36122L30.2681 5.35595L30.2696 5.35564L30.269 5.35523ZM30.269 5.35523L30.2677 5.35436L30.2681 5.35597L30.2681 5.35595L30.269 5.35523ZM30.3708 5.5054L30.3508 5.51023L30.3572 5.53527L30.3724 5.53163C30.3725 5.52284 30.372 5.51409 30.3708 5.5054ZM30.3392 5.63756L30.3037 5.64252L30.3074 5.66807L30.3176 5.66668C30.3257 5.65719 30.3329 5.64746 30.3392 5.63756ZM30.2538 5.80469C30.2546 5.81357 30.2549 5.82253 30.2546 5.83153L30.2398 5.83021L30.2423 5.80366L30.2538 5.80469ZM30.2353 5.92118L30.2202 5.91774L30.214 5.94368L30.2242 5.94603C30.2282 5.93792 30.232 5.92962 30.2353 5.92118ZM30.2337 5.73577C30.2263 5.74007 30.2184 5.74414 30.2101 5.74797L30.2055 5.73984L30.2286 5.72682C30.2304 5.72977 30.2321 5.73275 30.2337 5.73577ZM29.3947 5.68611L29.3641 5.68932L29.3667 5.71323C29.3782 5.70487 29.3876 5.69583 29.3947 5.68611ZM29.3341 5.49555C29.387 5.54776 29.4145 5.59577 29.4121 5.6385C29.4111 5.65585 29.4053 5.67172 29.3947 5.68611C29.7453 5.64695 29.9918 5.53837 30.2448 5.34117C30.2941 5.30272 30.3498 5.21502 30.3691 5.13842C30.3918 5.0483 30.3657 4.9852 30.2814 4.96176C30.1403 5.00496 29.9971 5.04376 29.8574 5.07615C29.8466 5.06967 29.8349 5.06351 29.8223 5.05766L29.8214 5.05785L29.8275 5.08298L29.8574 5.07615C29.9067 5.1059 29.9359 5.14218 29.9455 5.18377C29.9597 5.24554 29.928 5.31359 29.8699 5.36636C29.7704 5.45667 29.556 5.50965 29.3341 5.49555ZM29.3034 5.46725C29.3144 5.47682 29.3246 5.48625 29.3341 5.49555C29.322 5.49479 29.3098 5.49382 29.2977 5.49265L29.3004 5.46697L29.3034 5.46725ZM28.9484 5.28784C28.9292 5.29069 28.911 5.29355 28.8939 5.29639L28.8904 5.29523L28.8863 5.27062L28.8946 5.26924C28.9128 5.27535 28.9308 5.28156 28.9484 5.28784ZM28.6361 5.19352C28.9265 5.04249 29.384 4.97511 29.6887 5.04191C29.8308 5.0731 29.9045 5.12522 29.9193 5.18937C29.9312 5.24086 29.9034 5.30045 29.8515 5.34758C29.7535 5.4366 29.5299 5.4885 29.3034 5.46725C29.297 5.46173 29.2904 5.45616 29.2835 5.45055C29.2185 5.39742 29.0947 5.33996 28.9484 5.28784C29.1643 5.2558 29.4997 5.22457 29.6734 5.22457V5.1979C29.4842 5.1979 29.1065 5.23448 28.8946 5.26924C28.8119 5.24152 28.7237 5.21575 28.6361 5.19352ZM28.6361 5.19352L28.5984 5.18418L28.5918 5.1879L28.6053 5.21017C28.6154 5.20451 28.6256 5.19896 28.6361 5.19352ZM28.9766 5.79541C28.9213 5.79717 28.8666 5.79481 28.8042 5.78822L28.723 5.77327L28.727 5.75247C28.7558 5.75661 28.7827 5.76002 28.8083 5.76269C28.8649 5.77327 28.9211 5.7842 28.9766 5.79541ZM28.7242 5.87737L28.7145 5.90122L28.7446 5.91271C28.7396 5.90133 28.7328 5.88954 28.7242 5.87737ZM28.7347 6.01581C28.7291 6.0223 28.7224 6.02841 28.7146 6.03412L28.7061 6.02894L28.7203 6.00712L28.7347 6.01581ZM28.5991 6.0775C28.5911 6.07167 28.5836 6.06607 28.5768 6.06069L28.5599 6.08066L28.5629 6.08307C28.5755 6.0815 28.5876 6.07964 28.5991 6.0775ZM28.3719 6.08729C28.3587 6.08653 28.3453 6.08559 28.3317 6.08446L28.3477 6.067L28.3719 6.08729ZM27.9031 6.25068L27.8958 6.2433L27.8763 6.26099L27.8863 6.27112C27.8931 6.26531 27.8987 6.25848 27.9031 6.25068ZM27.5443 6.23696L27.5632 6.2446C27.55 6.23362 27.5378 6.22316 27.5265 6.21329L27.5255 6.2143L27.5193 6.20734L27.5117 6.22271L27.5158 6.22458L27.5085 6.23237C27.5297 6.25094 27.5543 6.27151 27.5819 6.29373C27.5714 6.27477 27.5589 6.25577 27.5443 6.23696ZM27.5443 6.23696C27.535 6.23309 27.5255 6.22897 27.5158 6.22458L27.5255 6.2143C27.5321 6.22182 27.5384 6.22937 27.5443 6.23696ZM27.5865 6.5436C27.5811 6.55061 27.5751 6.55719 27.5684 6.56334C27.5643 6.55821 27.5605 6.55314 27.5568 6.54812L27.5788 6.53341L27.5865 6.5436ZM27.2073 6.60711C27.2117 6.62285 27.2153 6.63968 27.218 6.65801C27.2071 6.64593 27.1969 6.63428 27.1873 6.62312L27.2073 6.60711ZM27.1437 6.9857L27.1358 6.97561L27.1144 6.99118L27.1222 7.00102C27.1297 6.99646 27.1369 6.99134 27.1437 6.9857ZM27.0798 7.01958L27.0708 7.00117L27.0466 7.01228L27.0529 7.02508C27.0621 7.02393 27.0711 7.02208 27.0798 7.01958ZM27.2044 6.59745C27.202 6.58952 27.1993 6.58186 27.1964 6.57442L27.1713 6.5835L27.1728 6.58728C27.1834 6.59096 27.1939 6.59435 27.2044 6.59745ZM27.7836 5.93953C27.7646 5.93165 27.7454 5.92352 27.7262 5.91515L27.7445 5.89766C27.7578 5.91058 27.7709 5.92463 27.7836 5.93953ZM28.6006 5.7583C28.5852 5.74667 28.5689 5.73503 28.5518 5.72341L28.5365 5.72065L28.5324 5.74183L28.5411 5.74774L28.6006 5.7583ZM28.4546 5.17889C28.4638 5.17208 28.4726 5.16505 28.481 5.15784L28.4482 5.15129L28.4429 5.17659L28.4546 5.17889ZM26.8197 4.91738C26.7074 4.94803 26.6444 4.97903 26.5262 5.05203L26.5403 5.07469C26.6566 5.00293 26.7175 4.97293 26.8267 4.9431L26.8197 4.91738ZM27.3418 5.45016C27.6502 5.61815 28.0647 5.80697 28.3525 5.90732L28.3616 5.88306C28.0754 5.78323 27.6622 5.59502 27.355 5.4277L27.3418 5.45016ZM28.463 5.46473C28.2405 5.42065 28.0484 5.39179 27.8547 5.37561L27.857 5.3499C28.0518 5.36617 28.245 5.39518 28.4684 5.43945C28.558 5.45721 28.6506 5.47695 28.7691 5.50329L28.8814 5.52842L29.0786 5.57252L29.0726 5.59768L28.8752 5.55354L28.7631 5.52844C28.6447 5.50214 28.5524 5.48244 28.463 5.46473ZM26.5446 5.55407C26.599 5.71181 26.9844 6.17631 27.1662 6.2864L27.1805 6.26455C27.0039 6.15761 26.6224 5.69791 26.57 5.54593L26.5446 5.55407ZM26.883 6.67222C26.8229 6.53118 26.4503 5.99688 26.2507 5.74509L26.272 5.72942C26.473 5.9831 26.8465 6.51852 26.9078 6.66242L26.883 6.67222ZM26.7889 5.51766C26.9134 5.6535 27.3209 5.95221 27.5065 6.02422L27.5165 6.00028C27.3351 5.9299 26.9309 5.63361 26.809 5.50059L26.7889 5.51766ZM26.0321 4.07018C25.9571 4.10761 25.9024 4.16234 25.8572 4.23853L25.8803 4.25208C25.923 4.18005 25.974 4.12898 26.0441 4.09402L26.0321 4.07018ZM24.7868 4.91322C24.7794 4.81608 24.7898 4.68962 24.8173 4.59878L24.843 4.606C24.8165 4.69364 24.8063 4.81708 24.8135 4.91133L24.7868 4.91322ZM24.8051 5.07325C24.7831 5.16329 24.7993 5.37283 24.8294 5.48871L24.8553 5.48247C24.8263 5.37022 24.8104 5.16449 24.8312 5.07915L24.8051 5.07325ZM24.8999 5.76631C24.8874 5.7473 24.878 5.7294 24.872 5.71259L24.8972 5.70358C24.9025 5.71824 24.9109 5.73436 24.9223 5.75175C24.9366 5.77353 24.955 5.79672 24.9771 5.82152C24.9954 5.84201 25.0104 5.85742 25.0389 5.88599L25.0199 5.90479C24.991 5.87589 24.9758 5.86022 24.9571 5.83924C24.9341 5.81353 24.9149 5.78935 24.8999 5.76631ZM25.0041 5.22733C24.9918 5.37704 25.0774 5.66116 25.1644 5.75749C25.1835 5.91685 25.2985 6.14493 25.4609 6.30212L25.4799 6.28392C25.3217 6.13077 25.2093 5.90794 25.1878 5.74737C25.1026 5.64972 25.019 5.37246 25.0308 5.22937L25.0041 5.22733ZM24.9679 5.06045C24.9541 4.96585 24.9508 4.87097 24.962 4.81069L24.9884 4.81525C24.9778 4.87228 24.981 4.96472 24.9945 5.05685L24.9679 5.06045ZM25.1983 4.22312C25.1449 4.35243 25.1151 4.62605 25.131 4.73284C25.134 4.75331 25.1336 4.75848 25.1242 4.84439C25.1071 5.00106 25.1139 5.11988 25.1678 5.27337L25.1932 5.26509C25.1407 5.1157 25.1341 5.00038 25.1509 4.84709C25.1607 4.75729 25.161 4.75295 25.1575 4.72921C25.1423 4.62673 25.1715 4.35766 25.2231 4.23266L25.1983 4.22312ZM25.3852 5.2145C25.328 5.03024 25.326 4.58778 25.385 4.35367L25.411 4.35976C25.3531 4.58959 25.3551 5.02743 25.4108 5.20711L25.3852 5.2145ZM25.3123 5.28393C25.28 5.42137 25.2834 5.5805 25.3249 5.70025L25.3503 5.69209C25.3105 5.57707 25.3072 5.42269 25.3384 5.28963L25.3123 5.28393ZM25.7986 5.07305C25.638 4.90091 25.5408 4.64424 25.5475 4.44384L25.5742 4.44466C25.5678 4.63841 25.6626 4.88861 25.8185 5.0558L25.7986 5.07305ZM25.5053 5.08693C25.4868 5.30929 25.5 5.51352 25.5422 5.63022C25.5531 5.66033 25.5607 5.69693 25.5714 5.76398L25.5819 5.82927C25.5861 5.85499 25.5899 5.87665 25.5941 5.89741C25.6143 5.99865 25.6409 6.07315 25.683 6.13075L25.7049 6.11589C25.6654 6.06192 25.6399 5.99049 25.6204 5.89253C25.6163 5.87209 25.6125 5.8507 25.6083 5.82524L25.5979 5.76004C25.5869 5.69145 25.5791 5.65383 25.5675 5.62174C25.5268 5.50909 25.5138 5.30809 25.532 5.08899L25.5053 5.08693ZM25.721 5.44949L25.711 5.41293L25.7369 5.4063L25.7469 5.44301C25.7609 5.49474 25.7691 5.53374 25.7729 5.57267C25.7784 5.62888 25.7731 5.67739 25.7544 5.71887L25.7299 5.70857C25.7465 5.67161 25.7513 5.62731 25.7462 5.57509C25.7426 5.53781 25.7346 5.49999 25.721 5.44949ZM25.8682 5.24368C25.9127 5.38422 25.9405 5.55617 25.9341 5.63091L25.9608 5.63302C25.9675 5.55454 25.9392 5.37954 25.8938 5.23615L25.8682 5.24368ZM26.0566 6.38117C26.0015 6.28804 25.9515 6.13927 25.9401 6.0192L25.9668 6.01685C25.9778 6.13317 26.0266 6.27839 26.0799 6.36838L26.0566 6.38117ZM25.7414 6.37307C25.792 6.51943 25.8788 6.67054 25.9573 6.7301L25.9739 6.70983C25.9005 6.65414 25.8159 6.5069 25.7668 6.36492L25.7414 6.37307ZM26.4843 6.78266C26.4307 6.62671 26.3956 6.55094 26.3108 6.43506L26.3327 6.4202C26.4193 6.53856 26.4554 6.6164 26.5098 6.77454L26.4843 6.78266Z" fill="black"/>
<path fill-rule="evenodd" clip-rule="evenodd" d="M25.3301 6.47C25.3468 6.47171 25.3572 6.47235 25.3859 6.47373C25.4526 6.47693 25.4761 6.48346 25.5061 6.51402C25.5259 6.53417 25.5456 6.56462 25.5668 6.60895C25.641 6.76369 25.8436 7.00027 25.962 7.07397L25.9619 7.07404C26.1187 7.33895 26.1883 7.68865 26.1397 7.87634C26.1257 7.79377 26.077 7.73023 26.0018 7.67818C25.9726 7.65796 25.954 7.64767 25.9033 7.62172C25.8362 7.67806 25.7383 7.74291 25.6889 7.75304L25.6945 7.77828C25.7503 7.76684 25.8525 7.69909 25.9069 7.64182C25.9316 7.66256 25.9478 7.67339 25.9659 7.68542L25.9659 7.68542C25.9723 7.68968 25.9789 7.69409 25.9862 7.69913C26.0562 7.74759 26.1007 7.80574 26.1133 7.88085L26.1395 7.87676L26.1378 7.88327L26.1636 7.89001C26.2157 7.70484 26.1527 7.3644 26.0046 7.09537C26.1872 7.1761 26.3039 7.26707 26.3267 7.3954L26.3521 7.39849L26.3653 7.37024C26.4261 7.23857 26.4493 7.14807 26.4261 7.05463L26.4284 7.05728L26.4498 7.08206L26.4498 7.08206C26.517 7.15973 26.5664 7.21688 26.603 7.26008L26.6005 7.26042C26.6041 7.285 26.6075 7.32243 26.6115 7.37951C26.6122 7.3897 26.6142 7.4192 26.6164 7.45273C26.6194 7.4983 26.6229 7.55131 26.6245 7.57338C26.6341 7.70895 26.6437 7.79927 26.6568 7.85817L26.683 7.85276C26.6703 7.79548 26.6607 7.70593 26.6512 7.57162C26.6496 7.54963 26.6461 7.49677 26.6431 7.45124C26.6409 7.41763 26.639 7.38801 26.6382 7.37777C26.6358 7.34325 26.6336 7.31582 26.6315 7.29392C26.6887 7.36286 26.7035 7.38687 26.7112 7.41299C26.7135 7.42072 26.7152 7.42865 26.7171 7.43798L26.7171 7.43798L26.7171 7.43798L26.7194 7.44852C26.7417 7.55112 26.8276 7.69183 26.9138 7.78223L26.9335 7.76477C26.8503 7.67751 26.7668 7.5407 26.7456 7.44322L26.7428 7.42969C26.7407 7.41958 26.7389 7.41105 26.7364 7.40272C26.7231 7.35774 26.6894 7.31879 26.4738 7.06947L26.449 7.04077C26.4307 7.01961 26.4142 7.00023 26.3986 6.98153L26.376 6.995C26.4292 7.10653 26.4143 7.19922 26.3437 7.35337C26.304 7.23044 26.182 7.14352 26.0013 7.06557C25.8969 7.02063 25.6691 6.76093 25.5912 6.59813C25.5688 6.55146 25.5477 6.51875 25.5256 6.49627C25.4895 6.4596 25.4603 6.45146 25.3872 6.44795C25.359 6.4466 25.3489 6.44598 25.3329 6.44434L25.3301 6.47ZM26.6315 7.29392C26.63 7.27922 26.6285 7.267 26.627 7.2568L26.603 7.26008C26.6135 7.27246 26.623 7.28368 26.6315 7.29392ZM26.1395 7.87676L26.1397 7.87673L26.1397 7.87634L26.1395 7.87676ZM26.0046 7.09537L25.9903 7.08913C25.9816 7.08536 25.9721 7.08026 25.962 7.07397L25.9851 7.06125C25.9918 7.07248 25.9983 7.08386 26.0046 7.09537ZM25.5179 6.86113C25.5648 6.9973 25.6021 7.16078 25.6059 7.25539L25.6327 7.2544C25.6288 7.15697 25.591 6.99127 25.5433 6.85299L25.5179 6.86113ZM25.9239 7.53243C25.9197 7.45605 25.8698 7.25605 25.8201 7.12279L25.8453 7.11407C25.8958 7.24949 25.9463 7.45179 25.9507 7.53107L25.9239 7.53243ZM26.3918 7.48591C26.4307 7.57616 26.4553 7.71863 26.4474 7.80353L26.4741 7.80582C26.4824 7.71665 26.4571 7.57002 26.4166 7.47601L26.3918 7.48591Z" fill="black"/>
</g>
</svg>
