<svg width="35" height="25" viewBox="0 0 35 25" fill="none" xmlns="http://www.w3.org/2000/svg">
<rect y="0.500977" width="35" height="24" rx="2" fill="white"/>
<mask id="mask0_636_27005" style="mask-type:alpha" maskUnits="userSpaceOnUse" x="0" y="0" width="35" height="25">
<rect y="0.500977" width="35" height="24" rx="2" fill="white"/>
</mask>
<g mask="url(#mask0_636_27005)">
<rect y="0.500977" width="35" height="24" fill="#19BFBF"/>
<path fill-rule="evenodd" clip-rule="evenodd" d="M6.82576 10.5957C6.73875 10.7628 6.80734 10.9687 6.97715 11.0502L9.68952 12.3521C9.85933 12.4336 9.92792 12.6396 9.84091 12.8066L9.3157 13.815C9.23261 13.9746 9.03796 14.0394 8.87582 13.9616L7.56839 13.334C7.52337 13.3124 7.47408 13.3012 7.42414 13.3012H5.33333C5.14924 13.3012 5 13.4504 5 13.6345V14.6579C5 14.8028 5.09368 14.9311 5.23174 14.9753L6.96717 15.5307C7.2077 15.6076 7.27861 15.9137 7.09642 16.0886L6.76916 16.4028C6.70368 16.4656 6.66667 16.5525 6.66667 16.6432V17.2449C6.66667 17.2822 6.6729 17.3191 6.68511 17.3543L7.45448 19.5701C7.48361 19.654 7.54504 19.7228 7.62512 19.7612L8.95831 20.4012C9.08362 20.4613 9.23312 20.4374 9.33339 20.3411L10.8333 18.9012L11.3199 18.4341C11.4877 18.273 11.443 17.9938 11.2333 17.8931L10.1891 17.3919C10.0735 17.3365 10 17.2196 10 17.0914V16.924C10 16.7084 10.2015 16.5495 10.4111 16.5998L13.0778 17.2398C13.2277 17.2758 13.3333 17.4098 13.3333 17.564V18.7968C13.3333 18.8647 13.3541 18.9311 13.3929 18.9869L14.9006 21.158C14.9628 21.2477 15.0651 21.3012 15.1743 21.3012H15.6111C15.7457 21.3012 15.867 21.2203 15.9188 21.096L17.2259 17.959C17.3347 17.698 17.6986 17.6825 17.8292 17.9333L18.308 18.8526C18.3248 18.8848 18.3467 18.914 18.3728 18.9391L19.9615 20.4642C19.987 20.4887 20.0162 20.509 20.0481 20.5243L21.1891 21.0719C21.4104 21.1781 21.6667 21.0169 21.6667 20.7714V19.8432C21.6667 19.7525 21.6297 19.6656 21.5642 19.6028L21.0838 19.1416C20.9472 19.0104 20.9472 18.7919 21.0838 18.6607L21.5699 18.194C21.632 18.1344 21.7147 18.1012 21.8008 18.1012H23.2575C23.3074 18.1012 23.3567 18.09 23.4017 18.0683L24.8109 17.3919C24.9265 17.3365 25 17.2196 25 17.0914V15.8432C25 15.7525 24.963 15.6656 24.8975 15.6028L24.4171 15.1416C24.2805 15.0104 24.2805 14.7919 24.4171 14.6607L25.5124 13.6093C25.6728 13.4553 25.9361 13.4986 26.0389 13.6958L26.5733 14.7218C26.6307 14.832 26.7446 14.9012 26.8689 14.9012H26.9506C27.2008 14.9012 27.3618 14.6358 27.2462 14.4139L26.8258 13.6066C26.7387 13.4396 26.8073 13.2336 26.9772 13.1521L28.0228 12.6502C28.1927 12.5687 28.2613 12.3628 28.1742 12.1957L27.5634 11.0229C27.5228 10.9449 27.453 10.8861 27.3693 10.8594L25.5328 10.2717C25.2923 10.1947 25.2214 9.88863 25.4036 9.71374L26.5699 8.59404C26.632 8.53445 26.7147 8.50117 26.8008 8.50117H28.9644C29.0887 8.50117 29.2027 8.43204 29.2601 8.32182L29.7694 7.34383C29.8792 7.13308 29.7395 6.87844 29.5028 6.85778L21.5651 6.16503C21.2798 6.14013 21.1566 5.79082 21.3632 5.5925L21.5642 5.39956C21.6297 5.3367 21.6667 5.24986 21.6667 5.1591V4.03451C21.6667 3.85041 21.5174 3.70117 21.3333 3.70117H17.6341C17.5481 3.70117 17.4653 3.73445 17.4033 3.79404L15.0652 6.03859C15.0225 6.07957 14.9697 6.10845 14.9121 6.12226L11.6667 6.90117L8.44855 7.67352C8.37402 7.69141 8.29561 7.68306 8.22651 7.6499L7.3884 7.2476C7.12121 7.11935 6.83205 7.37747 6.92926 7.65745L7.45284 9.16536C7.48294 9.25204 7.47598 9.3473 7.43359 9.42868L6.82576 10.5957ZM18.3333 20.5012C18.3333 20.943 17.9602 21.3012 17.5 21.3012C17.0398 21.3012 16.6667 20.943 16.6667 20.5012C16.6667 20.0593 17.0398 19.7012 17.5 19.7012C17.9602 19.7012 18.3333 20.0593 18.3333 20.5012ZM12.5 13.3012C12.9602 13.3012 13.3333 12.943 13.3333 12.5012C13.3333 12.0593 12.9602 11.7012 12.5 11.7012C12.0398 11.7012 11.6667 12.0593 11.6667 12.5012C11.6667 12.943 12.0398 13.3012 12.5 13.3012ZM28.3333 15.7012V16.5012L27.2644 17.5274C27.0478 17.7353 27.195 18.1012 27.4952 18.1012H28.1311C28.2554 18.1012 28.3693 18.032 28.4267 17.9218L29.1667 16.5012L28.3333 15.7012ZM28.3333 15.7012L28.776 15.4887C29.0724 15.3464 28.971 14.9012 28.6423 14.9012C28.4717 14.9012 28.3333 15.0395 28.3333 15.2101V15.7012Z" fill="white"/>
</g>
</svg>
