<svg width="35" height="24" viewBox="0 0 35 24" fill="none" xmlns="http://www.w3.org/2000/svg">
<rect y="0.000976562" width="35" height="24" rx="2" fill="white"/>
<mask id="mask0_636_26743" style="mask-type:alpha" maskUnits="userSpaceOnUse" x="0" y="0" width="35" height="25">
<rect y="0.000976562" width="35" height="24" rx="2" fill="white"/>
</mask>
<g mask="url(#mask0_636_26743)">
<path fill-rule="evenodd" clip-rule="evenodd" d="M0 24.001H35V0.000976562H0V24.001Z" fill="#30C375"/>
<rect x="5" y="0.000976562" width="5" height="24" fill="#DE414F"/>
<path fill-rule="evenodd" clip-rule="evenodd" d="M7.5 4.80059C8.88071 4.80059 10 4.08424 10 3.20059C10 2.31693 8.88071 1.60059 7.5 1.60059C6.11929 1.60059 5 2.31693 5 3.20059C5 4.08424 6.11929 4.80059 7.5 4.80059Z" fill="white"/>
<mask id="mask1_636_26743" style="mask-type:alpha" maskUnits="userSpaceOnUse" x="5" y="1" width="5" height="4">
<path fill-rule="evenodd" clip-rule="evenodd" d="M7.5 4.80059C8.88071 4.80059 10 4.08424 10 3.20059C10 2.31693 8.88071 1.60059 7.5 1.60059C6.11929 1.60059 5 2.31693 5 3.20059C5 4.08424 6.11929 4.80059 7.5 4.80059Z" fill="white"/>
</mask>
<g mask="url(#mask1_636_26743)">
<path fill-rule="evenodd" clip-rule="evenodd" d="M7.50033 4.00039C7.96056 4.00039 8.33366 3.64222 8.33366 3.20039C8.33366 2.75856 7.96056 2.40039 7.50033 2.40039C7.04009 2.40039 6.66699 2.75856 6.66699 3.20039C6.66699 3.64222 7.04009 4.00039 7.50033 4.00039Z" fill="#DD404F"/>
<rect x="5" y="1.60059" width="2.5" height="1.6" fill="#FBAF29"/>
<rect x="7.5" y="3.2002" width="2.5" height="1.6" fill="#FBAF29"/>
</g>
<path fill-rule="evenodd" clip-rule="evenodd" d="M7.5 22.4012C8.88071 22.4012 10 21.6848 10 20.8012C10 19.9175 8.88071 19.2012 7.5 19.2012C6.11929 19.2012 5 19.9175 5 20.8012C5 21.6848 6.11929 22.4012 7.5 22.4012Z" fill="white"/>
<mask id="mask2_636_26743" style="mask-type:alpha" maskUnits="userSpaceOnUse" x="5" y="19" width="5" height="4">
<path fill-rule="evenodd" clip-rule="evenodd" d="M7.5 22.4012C8.88071 22.4012 10 21.6848 10 20.8012C10 19.9175 8.88071 19.2012 7.5 19.2012C6.11929 19.2012 5 19.9175 5 20.8012C5 21.6848 6.11929 22.4012 7.5 22.4012Z" fill="white"/>
</mask>
<g mask="url(#mask2_636_26743)">
<path fill-rule="evenodd" clip-rule="evenodd" d="M7.50033 21.601C7.96056 21.601 8.33366 21.2428 8.33366 20.801C8.33366 20.3591 7.96056 20.001 7.50033 20.001C7.04009 20.001 6.66699 20.3591 6.66699 20.801C6.66699 21.2428 7.04009 21.601 7.50033 21.601Z" fill="#DD404F"/>
<rect x="5" y="19.2012" width="2.5" height="1.6" fill="#FBAF29"/>
<rect x="7.5" y="20.8008" width="2.5" height="1.6" fill="#FBAF29"/>
</g>
<path fill-rule="evenodd" clip-rule="evenodd" d="M7.5 14.4012C8.88071 14.4012 10 13.6848 10 12.8012C10 11.9175 8.88071 11.2012 7.5 11.2012C6.11929 11.2012 5 11.9175 5 12.8012C5 13.6848 6.11929 14.4012 7.5 14.4012Z" fill="#28AE67"/>
<mask id="mask3_636_26743" style="mask-type:alpha" maskUnits="userSpaceOnUse" x="5" y="11" width="5" height="4">
<path fill-rule="evenodd" clip-rule="evenodd" d="M7.5 14.4012C8.88071 14.4012 10 13.6848 10 12.8012C10 11.9175 8.88071 11.2012 7.5 11.2012C6.11929 11.2012 5 11.9175 5 12.8012C5 13.6848 6.11929 14.4012 7.5 14.4012Z" fill="white"/>
</mask>
<g mask="url(#mask3_636_26743)">
<path fill-rule="evenodd" clip-rule="evenodd" d="M7.49967 13.601C8.42015 13.601 9.16634 13.2428 9.16634 12.801C9.16634 12.3591 8.42015 12.001 7.49967 12.001C6.5792 12.001 5.83301 12.3591 5.83301 12.801C5.83301 13.2428 6.5792 13.601 7.49967 13.601Z" fill="#DD404F"/>
</g>
<path fill-rule="evenodd" clip-rule="evenodd" d="M7.5 17.601C8.88071 17.601 10 17.2428 10 16.801C10 16.3591 8.88071 16.001 7.5 16.001C6.11929 16.001 5 16.3591 5 16.801C5 17.2428 6.11929 17.601 7.5 17.601Z" fill="#28AE67"/>
<mask id="mask4_636_26743" style="mask-type:alpha" maskUnits="userSpaceOnUse" x="5" y="16" width="5" height="2">
<path fill-rule="evenodd" clip-rule="evenodd" d="M7.5 17.601C8.88071 17.601 10 17.2428 10 16.801C10 16.3591 8.88071 16.001 7.5 16.001C6.11929 16.001 5 16.3591 5 16.801C5 17.2428 6.11929 17.601 7.5 17.601Z" fill="white"/>
</mask>
<g mask="url(#mask4_636_26743)">
</g>
<path fill-rule="evenodd" clip-rule="evenodd" d="M7.5 9.60137C8.88071 9.60137 10 8.88502 10 8.00137C10 7.11771 8.88071 6.40137 7.5 6.40137C6.11929 6.40137 5 7.11771 5 8.00137C5 8.88502 6.11929 9.60137 7.5 9.60137Z" fill="#FBAF29"/>
<mask id="mask5_636_26743" style="mask-type:alpha" maskUnits="userSpaceOnUse" x="5" y="6" width="5" height="4">
<path fill-rule="evenodd" clip-rule="evenodd" d="M7.5 9.60137C8.88071 9.60137 10 8.88502 10 8.00137C10 7.11771 8.88071 6.40137 7.5 6.40137C6.11929 6.40137 5 7.11771 5 8.00137C5 8.88502 6.11929 9.60137 7.5 9.60137Z" fill="white"/>
</mask>
<g mask="url(#mask5_636_26743)">
<path fill-rule="evenodd" clip-rule="evenodd" d="M7.50033 8.80117C7.96056 8.80117 8.33366 8.443 8.33366 8.00117C8.33366 7.55934 7.96056 7.20117 7.50033 7.20117C7.04009 7.20117 6.66699 7.55934 6.66699 8.00117C6.66699 8.443 7.04009 8.80117 7.50033 8.80117Z" fill="#DD404F"/>
<rect x="5" y="6.40137" width="1.66667" height="3.2" fill="#28AE67"/>
<rect x="8.33301" y="6.40137" width="1.66667" height="3.2" fill="#28AE67"/>
</g>
<path fill-rule="evenodd" clip-rule="evenodd" d="M18.528 5.08696C18.2322 5.42542 18.2781 5.93002 18.6307 6.21403C18.9833 6.49803 19.5089 6.45388 19.8047 6.11542C20.1006 5.77696 20.0546 5.27236 19.702 4.98835C19.3495 4.70435 18.8238 4.7485 18.528 5.08696ZM16.3687 8.18835C16.0161 7.90435 15.4905 7.9485 15.1947 8.28696C14.8988 8.62542 14.9448 9.13002 15.2974 9.41403C15.6499 9.69803 16.1756 9.65388 16.4714 9.31542C16.7672 8.97696 16.7212 8.47236 16.3687 8.18835ZM14.702 6.58836C14.3495 6.30435 13.8238 6.3485 13.528 6.68696C13.2322 7.02542 13.2781 7.53002 13.6307 7.81403C13.9833 8.09803 14.5089 8.05388 14.8047 7.71542C15.1006 7.37696 15.0546 6.87236 14.702 6.58836ZM18.0353 3.38835C17.6828 3.10435 17.1572 3.1485 16.8613 3.48696C16.5655 3.82542 16.6115 4.33002 16.964 4.61403C17.3166 4.89803 17.8422 4.85388 18.1381 4.51542C18.4339 4.17696 18.3879 3.67236 18.0353 3.38835ZM17.202 5.78835C16.8495 5.50435 16.3238 5.5485 16.028 5.88696C15.7322 6.22542 15.7781 6.73002 16.1307 7.01403C16.4833 7.29803 17.0089 7.25388 17.3047 6.91542C17.6006 6.57696 17.5546 6.07236 17.202 5.78835Z" fill="white"/>
<path fill-rule="evenodd" clip-rule="evenodd" d="M21.8454 11.3417C19.8604 13.2474 16.6419 13.2474 14.6569 11.3417C14.4645 11.1571 14.2908 10.9613 14.1357 10.7566C16.1234 12.144 18.922 11.9773 20.7147 10.2563C22.5075 8.53527 22.6812 5.84858 21.2359 3.94043C21.4491 4.0893 21.6531 4.25606 21.8454 4.44071C23.8305 6.34637 23.8305 9.43606 21.8454 11.3417Z" fill="white"/>
</g>
</svg>
