<svg width="35" height="24" viewBox="0 0 35 24" fill="none" xmlns="http://www.w3.org/2000/svg">
<rect x="0.25" y="0.250977" width="34.5" height="23.5" rx="1.75" fill="white" stroke="#F5F5F5" stroke-width="0.5"/>
<mask id="mask0_636_27023" style="mask-type:alpha" maskUnits="userSpaceOnUse" x="0" y="0" width="35" height="25">
<rect x="0.25" y="0.250977" width="34.5" height="23.5" rx="1.75" fill="white" stroke="white" stroke-width="0.5"/>
</mask>
<g mask="url(#mask0_636_27023)">
<path fill-rule="evenodd" clip-rule="evenodd" d="M0 6.40098H35V0.000976562H0V6.40098Z" fill="#D82332"/>
<path fill-rule="evenodd" clip-rule="evenodd" d="M0 24.0006H35V17.6006H0V24.0006Z" fill="#D82332"/>
<path fill-rule="evenodd" clip-rule="evenodd" d="M16.3341 12.9043L15.9785 13.2226C16.2999 13.3092 16.7458 13.2084 16.9234 12.9043H16.3341Z" fill="#064A89"/>
<path fill-rule="evenodd" clip-rule="evenodd" d="M13.4648 13.121C13.7055 13.352 14.104 13.325 14.3446 13.1788C14.5853 13.0325 14.7622 13.0232 14.9122 13.0386C14.9281 13.1689 14.9635 13.336 15.0244 13.5012H13.597C13.5615 13.4165 13.4924 13.2192 13.4648 13.121Z" fill="#064A89"/>
<path fill-rule="evenodd" clip-rule="evenodd" d="M13.7295 13.7386C14.0097 13.6115 14.296 13.7123 14.42 13.8039C14.6488 13.9734 15.0268 13.9274 15.2123 13.8313C15.2831 13.9421 15.369 14.0512 15.4727 14.1344H13.9455C13.8835 14.0383 13.7493 13.802 13.7295 13.7386Z" fill="#064A89"/>
<path fill-rule="evenodd" clip-rule="evenodd" d="M20.3726 14.7905C20.4397 14.7251 20.5304 14.6174 20.5897 14.5405C20.491 14.5289 20.3763 14.4603 20.2543 14.4019C20.0293 14.294 19.8144 14.294 19.623 14.4211C19.339 14.6096 18.9838 14.6558 18.7076 14.4673C18.4046 14.2603 18.1238 14.3056 17.887 14.4366C17.6502 14.5673 17.5004 14.5751 17.3583 14.5751C17.2162 14.5751 17.0664 14.5673 16.8296 14.4366C16.5928 14.3056 16.312 14.2603 16.009 14.4673C15.7328 14.6558 15.3776 14.6096 15.0936 14.4211C14.9022 14.294 14.6873 14.294 14.4623 14.4019C14.3402 14.4603 14.2256 14.5289 14.127 14.5405C14.1862 14.6174 14.277 14.7251 14.344 14.7905H20.3726Z" fill="#064A89"/>
<path fill-rule="evenodd" clip-rule="evenodd" d="M19.6331 15.4344C19.6962 15.396 19.8698 15.269 19.9566 15.2036C19.8619 15.2228 19.646 15.1553 19.5345 15.0996C19.2108 14.9379 18.9979 14.9534 18.7573 15.0765C18.5165 15.1997 18.1772 15.2651 17.9287 15.1343C17.6801 15.0035 17.5025 14.9688 17.3723 14.9688C17.2422 14.9688 17.0645 15.0035 16.816 15.1343C16.5675 15.2651 16.2282 15.1997 15.9874 15.0765C15.7468 14.9534 15.5339 14.9379 15.2102 15.0996C15.0987 15.1553 14.8828 15.2228 14.7881 15.2036C14.8749 15.269 15.0485 15.396 15.1116 15.4344H19.6331Z" fill="#064A89"/>
<path fill-rule="evenodd" clip-rule="evenodd" d="M18.2099 14.1554C18.1428 14.1208 18.0644 14.0401 17.9928 13.9366C17.8784 13.7711 17.6969 13.6787 17.4247 13.6787C17.1525 13.6787 16.971 13.7711 16.8566 13.9366C16.785 14.0401 16.7066 14.1208 16.6396 14.1554H18.2099Z" fill="#064A89"/>
<path fill-rule="evenodd" clip-rule="evenodd" d="M17.763 13.5606C17.7354 13.5144 17.6763 13.368 17.6566 13.291C17.5933 13.3104 17.4711 13.318 17.4001 13.318C17.329 13.318 17.2068 13.3104 17.1436 13.291C17.1239 13.368 17.0648 13.5144 17.0371 13.5606H17.763Z" fill="#064A89"/>
<path fill-rule="evenodd" clip-rule="evenodd" d="M18.4194 12.9043L18.7749 13.2226C18.4535 13.3092 18.0076 13.2084 17.8301 12.9043H18.4194Z" fill="#064A89"/>
<path fill-rule="evenodd" clip-rule="evenodd" d="M21.374 13.121C21.1334 13.352 20.7348 13.325 20.4942 13.1788C20.2535 13.0325 20.0766 13.0232 19.9266 13.0386C19.9106 13.1689 19.8753 13.336 19.8145 13.5012H21.2418C21.2773 13.4165 21.3463 13.2192 21.374 13.121Z" fill="#064A89"/>
<path fill-rule="evenodd" clip-rule="evenodd" d="M21.1612 13.7386C20.8811 13.6115 20.5947 13.7123 20.4707 13.8039C20.2419 13.9734 19.8639 13.9274 19.6784 13.8313C19.6077 13.9421 19.5217 14.0512 19.418 14.1344H20.9452C21.0073 14.0383 21.1415 13.802 21.1612 13.7386Z" fill="#064A89"/>
<path fill-rule="evenodd" clip-rule="evenodd" d="M18.9487 15.6864C18.4702 15.8768 17.9467 15.982 17.398 15.982C16.8488 15.982 16.3255 15.877 15.8467 15.6861C15.9492 15.6746 16.085 15.6264 16.1946 15.5669C16.3722 15.4706 16.6956 15.4514 16.8496 15.5477C17.0034 15.6439 17.1889 15.7401 17.398 15.7401C17.6071 15.7401 17.7926 15.6439 17.9464 15.5477C18.1003 15.4514 18.4238 15.4706 18.6014 15.5669C18.7108 15.6264 18.846 15.6749 18.9487 15.6864Z" fill="#064A89"/>
<path fill-rule="evenodd" clip-rule="evenodd" d="M18.2809 8.07328C17.4169 7.90012 16.6396 8.00012 16.6396 8.79302C16.6396 9.57044 16.6396 10.725 16.6396 10.9637C16.6396 11.2023 16.6445 11.2325 16.9355 11.2986C17.5668 11.4419 17.6259 11.4564 18.3124 11.6102V9.37806C17.7759 9.32025 17.5707 9.02657 17.5707 8.68528C17.5707 8.35431 17.8074 8.1387 18.2809 8.07328Z" fill="#514537"/>
<path fill-rule="evenodd" clip-rule="evenodd" d="M16.0672 14.1952C15.5858 14.1952 15.0808 13.7872 15.0808 13.0098C15.0808 12.2323 15.0808 11.2547 15.0808 11.0777C15.0808 10.9026 15.101 10.8779 15.0591 10.8372C15.0345 10.8132 15.0867 10.7776 15.1222 10.7428C15.1755 10.6908 15.212 10.6476 15.14 10.5773C15.068 10.5071 15.0986 10.4888 15.144 10.4447C15.1894 10.4003 15.2071 10.3561 15.1637 10.3137C15.1203 10.2714 15.1104 10.2579 15.1578 10.2117C15.2051 10.1656 15.1854 10.1463 15.146 10.1077C15.1065 10.0693 15.0878 10.0414 15.1381 9.99239C15.1874 9.94427 15.1912 9.93652 15.2485 9.93652C15.3058 9.93652 15.43 9.93652 15.4853 9.93652C15.5406 9.93652 15.5415 9.95291 15.4951 9.9982C15.4349 10.0568 15.4172 10.0799 15.4853 10.1463C15.5533 10.2127 15.5504 10.2348 15.507 10.2772C15.4418 10.3407 15.4132 10.384 15.4793 10.4485C15.5455 10.5129 15.5513 10.5418 15.501 10.5908C15.4508 10.6399 15.4457 10.6832 15.501 10.737C15.5435 10.7785 15.5464 10.8026 15.5464 10.8756C15.5464 11.3164 15.5464 12.5172 15.5464 12.8481C15.5464 13.1791 15.791 13.3792 16.2566 13.3792C16.7222 13.3792 16.88 13.1945 17.0141 13.0714C16.9274 13.664 16.6748 14.1952 16.0672 14.1952Z" fill="#514537"/>
<path fill-rule="evenodd" clip-rule="evenodd" d="M17.4255 12.307C17.4905 12.3261 17.5536 12.4185 17.5536 12.5187H17.682C17.682 12.434 17.6444 12.3032 17.5764 12.2223C17.5753 12.2011 17.5724 12.1829 17.5675 12.1646C17.6149 12.1068 17.6839 12.0144 17.682 11.9259C17.6806 11.87 17.6129 11.8721 17.605 11.9163C17.5985 11.9527 17.5735 12.0087 17.5261 12.0279C17.5261 11.9567 17.4846 11.8721 17.4255 11.8721C17.3663 11.8721 17.3248 11.9567 17.3248 12.0279C17.2775 12.0087 17.2525 11.9527 17.246 11.9163C17.238 11.8721 17.1702 11.87 17.169 11.9259C17.167 12.0144 17.2361 12.1068 17.2834 12.1646C17.2785 12.1829 17.2756 12.2011 17.2745 12.2223C17.2066 12.3032 17.169 12.434 17.169 12.5187H17.2973C17.2973 12.4185 17.3604 12.3261 17.4255 12.307Z" fill="#514537"/>
<path fill-rule="evenodd" clip-rule="evenodd" d="M16.7643 12.307C16.8294 12.3261 16.8926 12.4185 16.8926 12.5187H17.0208C17.0208 12.434 16.9834 12.3032 16.9153 12.2223C16.9143 12.2011 16.9113 12.1829 16.9064 12.1646C16.9538 12.1068 17.0228 12.0144 17.0208 11.9259C17.0196 11.87 16.9518 11.8721 16.9438 11.9163C16.9374 11.9527 16.9122 12.0087 16.865 12.0279C16.865 11.9567 16.8236 11.8721 16.7643 11.8721C16.7052 11.8721 16.6638 11.9567 16.6638 12.0279C16.6165 12.0087 16.5913 11.9527 16.5848 11.9163C16.5769 11.8721 16.5092 11.87 16.5079 11.9259C16.5059 12.0144 16.5749 12.1068 16.6223 12.1646C16.6174 12.1829 16.6145 12.2011 16.6134 12.2223C16.5454 12.3032 16.5079 12.434 16.5079 12.5187H16.6362C16.6362 12.4185 16.6993 12.3261 16.7643 12.307Z" fill="#514537"/>
<path fill-rule="evenodd" clip-rule="evenodd" d="M16.1032 12.307C16.1683 12.3261 16.2314 12.4185 16.2314 12.5187H16.3597C16.3597 12.434 16.3221 12.3032 16.2541 12.2223C16.2531 12.2011 16.2502 12.1829 16.2453 12.1646C16.2926 12.1068 16.3617 12.0144 16.3597 11.9259C16.3584 11.87 16.2906 11.8721 16.2827 11.9163C16.2762 11.9527 16.2511 12.0087 16.2037 12.0279C16.2037 11.9567 16.1623 11.8721 16.1032 11.8721C16.0439 11.8721 16.0025 11.9567 16.0025 12.0279C15.9552 12.0087 15.9302 11.9527 15.9237 11.9163C15.9158 11.8721 15.8479 11.87 15.8467 11.9259C15.8447 12.0144 15.9138 12.1068 15.9611 12.1646C15.9562 12.1829 15.9532 12.2011 15.9523 12.2223C15.8842 12.3032 15.8467 12.434 15.8467 12.5187H15.9749C15.9749 12.4185 16.0381 12.3261 16.1032 12.307Z" fill="#514537"/>
<path fill-rule="evenodd" clip-rule="evenodd" d="M18.0866 12.307C18.0215 12.3261 17.9584 12.4185 17.9584 12.5187H17.8301C17.8301 12.434 17.8676 12.3032 17.9357 12.2223C17.9366 12.2011 17.9396 12.1829 17.9447 12.1646C17.8972 12.1068 17.8281 12.0144 17.8301 11.9259C17.8314 11.87 17.8992 11.8721 17.9071 11.9163C17.9136 11.9527 17.9387 12.0087 17.9859 12.0279C17.9859 11.9567 18.0275 11.8721 18.0866 11.8721C18.1459 11.8721 18.1873 11.9567 18.1873 12.0279C18.2345 12.0087 18.2596 11.9527 18.2661 11.9163C18.274 11.8721 18.3418 11.87 18.3431 11.9259C18.3451 12.0144 18.276 12.1068 18.2287 12.1646C18.2336 12.1829 18.2366 12.2011 18.2375 12.2223C18.3056 12.3032 18.3431 12.434 18.3431 12.5187H18.2148C18.2148 12.4185 18.1517 12.3261 18.0866 12.307Z" fill="#514537"/>
<path fill-rule="evenodd" clip-rule="evenodd" d="M18.7487 12.307C18.6836 12.3261 18.6205 12.4185 18.6205 12.5187H18.4922C18.4922 12.434 18.5298 12.3032 18.5978 12.2223C18.5988 12.2011 18.6018 12.1829 18.6066 12.1646C18.5593 12.1068 18.4902 12.0144 18.4922 11.9259C18.4934 11.87 18.5613 11.8721 18.5692 11.9163C18.5757 11.9527 18.6007 12.0087 18.648 12.0279C18.648 11.9567 18.6896 11.8721 18.7487 11.8721C18.808 11.8721 18.8494 11.9567 18.8494 12.0279C18.8967 12.0087 18.9217 11.9527 18.9282 11.9163C18.9361 11.8721 19.0039 11.87 19.0052 11.9259C19.0072 12.0144 18.9381 12.1068 18.8908 12.1646C18.8957 12.1829 18.8986 12.2011 18.8996 12.2223C18.9678 12.3032 19.0052 12.434 19.0052 12.5187H18.877C18.877 12.4185 18.8138 12.3261 18.7487 12.307Z" fill="#514537"/>
<path fill-rule="evenodd" clip-rule="evenodd" d="M15.7139 12.6465H19.1858V12.8065H15.7139V12.6465Z" fill="#514537"/>
<path fill-rule="evenodd" clip-rule="evenodd" d="M18.777 14.1952C19.2584 14.1952 19.7634 13.7872 19.7634 13.0098C19.7634 12.2323 19.7634 11.2547 19.7634 11.0777C19.7634 10.9026 19.7432 10.8779 19.7851 10.8372C19.8097 10.8132 19.7575 10.7776 19.722 10.7428C19.6687 10.6908 19.6322 10.6476 19.7042 10.5773C19.7762 10.5071 19.7456 10.4888 19.7003 10.4447C19.6548 10.4003 19.6371 10.3561 19.6805 10.3137C19.7239 10.2714 19.7338 10.2579 19.6864 10.2117C19.6391 10.1656 19.6588 10.1463 19.6982 10.1077C19.7377 10.0693 19.7564 10.0414 19.7061 9.99239C19.6568 9.94427 19.653 9.93652 19.5957 9.93652C19.5384 9.93652 19.4142 9.93652 19.3589 9.93652C19.3038 9.93652 19.3027 9.95291 19.3491 9.9982C19.4093 10.0568 19.427 10.0799 19.3589 10.1463C19.2909 10.2127 19.2938 10.2348 19.3372 10.2772C19.4024 10.3407 19.4309 10.384 19.3649 10.4485C19.2987 10.5129 19.2928 10.5418 19.3432 10.5908C19.3934 10.6399 19.3985 10.6832 19.3432 10.737C19.3007 10.7785 19.2978 10.8026 19.2978 10.8756C19.2978 11.3164 19.2978 12.5172 19.2978 12.8481C19.2978 13.1791 19.0531 13.3792 18.5876 13.3792C18.122 13.3792 17.9643 13.1945 17.8301 13.0714C17.9169 13.664 18.1694 14.1952 18.777 14.1952Z" fill="#514537"/>
<path fill-rule="evenodd" clip-rule="evenodd" d="M15.7139 11.6098C15.7139 11.6098 15.714 11.4962 15.714 11.3555L16.408 11.6099L15.7139 11.6098Z" fill="#EEA339"/>
<path fill-rule="evenodd" clip-rule="evenodd" d="M14.886 11.7287L13.333 11.5245C13.3781 11.1998 13.4634 10.8833 13.5862 10.582L14.886 11.0854V11.7287Z" fill="#EEA339"/>
<path fill-rule="evenodd" clip-rule="evenodd" d="M18.0947 9.23595L18.3708 8.12988C18.6938 8.20627 19.0078 8.32137 19.3054 8.47311L18.4151 10.1356L18.4183 9.30085C18.3155 9.30137 18.1578 9.28601 18.0947 9.23595Z" fill="#EEA339"/>
<path fill-rule="evenodd" clip-rule="evenodd" d="M14.9227 11.8368L13.3407 11.7432C13.3203 12.0668 13.3405 12.3934 13.4014 12.7156C13.4014 12.7156 14.9227 12.7248 14.9227 12.7156V11.8368Z" fill="#EEA339"/>
<path fill-rule="evenodd" clip-rule="evenodd" d="M14.9066 10.7953C14.8554 10.7299 14.887 10.695 14.9422 10.6603C14.9975 10.6257 14.9895 10.5988 14.962 10.5488C14.9344 10.4988 14.9067 10.4448 14.9581 10.391C15.0094 10.3371 14.9895 10.314 14.9501 10.2755C14.9107 10.2371 14.9067 10.1948 14.9422 10.1639C14.9778 10.1331 14.9698 10.11 14.9463 10.0793C14.9225 10.0484 14.8761 9.98599 14.9176 9.9456L14.2722 9.41992C14.059 9.6687 13.8764 9.94328 13.7295 10.2377L14.9066 10.7953Z" fill="#EEA339"/>
<path fill-rule="evenodd" clip-rule="evenodd" d="M16.4531 11.0826L15.6839 10.355C15.7924 10.2492 15.8032 10.2319 15.7263 10.1568C15.6425 10.075 15.6394 10.0665 15.8101 9.8999C15.8683 9.84326 15.8357 9.80365 15.7529 9.80365C15.6701 9.80365 15.2893 9.80365 15.2459 9.80365C15.2025 9.80365 15.1684 9.80584 15.1367 9.83681L14.5234 9.25771C14.7574 9.02274 15.0188 8.81771 15.3011 8.64648L16.4531 10.4536V11.0826Z" fill="#EEA339"/>
<path fill-rule="evenodd" clip-rule="evenodd" d="M15.6535 11.1934C15.6535 11.0126 15.6536 10.8336 15.6536 10.8082C15.6536 10.7543 15.6496 10.7331 15.6063 10.6908C15.5629 10.6485 15.5846 10.6282 15.6182 10.582L16.3478 11.1749V11.5231L15.6535 11.1934Z" fill="#EEA339"/>
<path fill-rule="evenodd" clip-rule="evenodd" d="M16.3364 10.1365C16.3364 9.78924 16.3364 9.46808 16.3364 9.28304C16.3364 8.72885 16.3683 8.45169 16.4511 8.39595L16.3848 8.12988C16.0609 8.21492 15.7468 8.33001 15.4492 8.48175L16.3364 10.1365Z" fill="#EEA339"/>
<path fill-rule="evenodd" clip-rule="evenodd" d="M19.1864 11.6098C19.1864 11.6098 19.1862 11.4962 19.1862 11.3555L18.4922 11.6099L19.1864 11.6098Z" fill="#EEA339"/>
<path fill-rule="evenodd" clip-rule="evenodd" d="M19.9463 11.7287L21.4993 11.5245C21.4542 11.1998 21.3689 10.8833 21.2462 10.582L19.9463 11.0854V11.7287Z" fill="#EEA339"/>
<path fill-rule="evenodd" clip-rule="evenodd" d="M19.9463 11.8368L21.5282 11.7432C21.5485 12.0668 21.5284 12.3934 21.4675 12.7156C21.4675 12.7156 19.9463 12.7248 19.9463 12.7156V11.8368Z" fill="#EEA339"/>
<path fill-rule="evenodd" clip-rule="evenodd" d="M19.8967 10.7953C19.9481 10.7299 19.9163 10.695 19.8612 10.6603C19.8059 10.6257 19.8138 10.5988 19.8413 10.5488C19.869 10.4988 19.8966 10.4448 19.8453 10.391C19.794 10.3371 19.8138 10.314 19.8532 10.2755C19.8926 10.2371 19.8966 10.1948 19.8612 10.1639C19.8256 10.1331 19.8335 10.11 19.8571 10.0793C19.8809 10.0484 19.9272 9.98599 19.8858 9.9456L20.5311 9.41992C20.7444 9.6687 20.9268 9.94328 21.0737 10.2377L19.8967 10.7953Z" fill="#EEA339"/>
<path fill-rule="evenodd" clip-rule="evenodd" d="M18.4922 11.0826L19.2614 10.355C19.1528 10.2492 19.1419 10.2319 19.2189 10.1568C19.3028 10.075 19.3058 10.0665 19.1352 9.8999C19.0768 9.84326 19.1095 9.80365 19.1923 9.80365C19.2751 9.80365 19.6559 9.80365 19.6993 9.80365C19.7427 9.80365 19.7768 9.80584 19.8086 9.83681L20.4218 9.25771C20.1878 9.02274 19.9264 8.81771 19.6442 8.64648L18.4922 10.4536V11.0826Z" fill="#EEA339"/>
<path fill-rule="evenodd" clip-rule="evenodd" d="M19.1865 11.1934C19.1865 11.0126 19.1864 10.8336 19.1864 10.8082C19.1864 10.7543 19.1903 10.7331 19.2337 10.6908C19.2771 10.6485 19.2554 10.6282 19.2218 10.582L18.4922 11.1749V11.5231L19.1865 11.1934Z" fill="#EEA339"/>
<path fill-rule="evenodd" clip-rule="evenodd" d="M15.1846 10.8398C15.2122 10.8668 15.2241 10.8937 15.2241 10.9591C15.2241 11.0245 15.2241 12.4562 15.2241 13.0182C15.2241 13.7032 15.6502 14.0842 16.0881 14.0842C16.4905 14.0842 16.7549 13.7263 16.893 13.3107C16.7155 13.4454 16.4551 13.4877 16.2064 13.4877C15.9184 13.4877 15.453 13.2992 15.453 12.8912C15.453 12.514 15.453 11.1169 15.453 10.8937C15.453 10.8398 15.3977 10.8398 15.1846 10.8398Z" fill="#D82332"/>
<path fill-rule="evenodd" clip-rule="evenodd" d="M17.7007 8.1417C17.1506 8.08737 16.6403 8.19899 16.6403 8.93112C16.6403 9.70092 16.6403 10.6399 16.6403 10.8763C16.6403 11.2011 16.6141 11.1625 16.8962 11.2307C17.4081 11.3546 17.4662 11.3703 18.0871 11.5087V9.52957C17.557 9.47292 17.3272 9.13421 17.3272 8.75912C17.3272 8.46067 17.4624 8.17976 17.7007 8.1417Z" fill="#D82332"/>
<path fill-rule="evenodd" clip-rule="evenodd" d="M19.6714 10.8398C19.6437 10.8668 19.6318 10.8937 19.6318 10.9591C19.6318 11.0245 19.6318 12.4562 19.6318 13.0182C19.6318 13.7032 19.2057 14.0842 18.7678 14.0842C18.3654 14.0842 18.101 13.7263 17.9629 13.3107C18.1405 13.4454 18.4009 13.4877 18.6495 13.4877C18.9375 13.4877 19.403 13.2992 19.403 12.8912C19.403 12.514 19.403 11.1169 19.403 10.8937C19.403 10.8398 19.4583 10.8398 19.6714 10.8398Z" fill="#D82332"/>
<mask id="mask1_636_27023" style="mask-type:alpha" maskUnits="userSpaceOnUse" x="13" y="8" width="9" height="9">
<path fill-rule="evenodd" clip-rule="evenodd" d="M17.4997 16.001C19.8009 16.001 21.6663 14.2101 21.6663 12.001C21.6663 9.79184 19.8009 8.00098 17.4997 8.00098C15.1985 8.00098 13.333 9.79184 13.333 12.001C13.333 14.2101 15.1985 16.001 17.4997 16.001Z" fill="white"/>
</mask>
<g mask="url(#mask1_636_27023)">
<path fill-rule="evenodd" clip-rule="evenodd" d="M17.4997 22.4014C19.8009 22.4014 21.6663 20.6105 21.6663 18.4014C21.6663 16.1922 19.8009 14.4014 17.4997 14.4014C15.1985 14.4014 13.333 16.1922 13.333 18.4014C13.333 20.6105 15.1985 22.4014 17.4997 22.4014Z" fill="#064A89"/>
</g>
</g>
</svg>
