<svg width="35" height="24" viewBox="0 0 35 24" fill="none" xmlns="http://www.w3.org/2000/svg">
<rect x="0.25" y="0.250977" width="34.5" height="23.5" rx="1.75" fill="white" stroke="#F5F5F5" stroke-width="0.5"/>
<mask id="mask0_636_25854" style="mask-type:alpha" maskUnits="userSpaceOnUse" x="0" y="0" width="35" height="25">
<rect x="0.25" y="0.250977" width="34.5" height="23.5" rx="1.75" fill="white" stroke="white" stroke-width="0.5"/>
</mask>
<g mask="url(#mask0_636_25854)">
<path fill-rule="evenodd" clip-rule="evenodd" d="M0 8.00098H35V0.000976562H0V8.00098Z" fill="#38BB56"/>
<path fill-rule="evenodd" clip-rule="evenodd" d="M0 24.001H35V16.001H0V24.001Z" fill="#DE1B27"/>
<path fill-rule="evenodd" clip-rule="evenodd" d="M2.00033 6.40137C1.81623 6.40137 1.66699 6.55061 1.66699 6.7347V7.66803C1.66699 7.85213 1.81623 8.00137 2.00033 8.00137H3.00033C3.18442 8.00137 3.33366 7.85213 3.33366 7.66803V6.7347C3.33366 6.55061 3.18442 6.40137 3.00033 6.40137H2.00033ZM5.33366 6.40137C5.14956 6.40137 5.00033 6.55061 5.00033 6.7347V7.66803C5.00033 7.85213 5.14956 8.00137 5.33366 8.00137H6.33366C6.51775 8.00137 6.66699 7.85213 6.66699 7.66803V6.7347C6.66699 6.55061 6.51775 6.40137 6.33366 6.40137H5.33366ZM8.33366 6.7347C8.33366 6.55061 8.4829 6.40137 8.66699 6.40137H9.66699C9.85109 6.40137 10.0003 6.55061 10.0003 6.7347V7.66803C10.0003 7.85213 9.85109 8.00137 9.66699 8.00137H8.66699C8.4829 8.00137 8.33366 7.85213 8.33366 7.66803V6.7347ZM12.0003 6.40137C11.8162 6.40137 11.667 6.55061 11.667 6.7347V7.66803C11.667 7.85213 11.8162 8.00137 12.0003 8.00137H13.0003C13.1844 8.00137 13.3337 7.85213 13.3337 7.66803V6.7347C13.3337 6.55061 13.1844 6.40137 13.0003 6.40137H12.0003ZM15.0003 6.7347C15.0003 6.55061 15.1496 6.40137 15.3337 6.40137H16.3337C16.5178 6.40137 16.667 6.55061 16.667 6.7347V7.66803C16.667 7.85213 16.5178 8.00137 16.3337 8.00137H15.3337C15.1496 8.00137 15.0003 7.85213 15.0003 7.66803V6.7347ZM18.667 6.40137C18.4829 6.40137 18.3337 6.55061 18.3337 6.7347V7.66803C18.3337 7.85213 18.4829 8.00137 18.667 8.00137H19.667C19.8511 8.00137 20.0003 7.85213 20.0003 7.66803V6.7347C20.0003 6.55061 19.8511 6.40137 19.667 6.40137H18.667ZM21.667 6.7347C21.667 6.55061 21.8162 6.40137 22.0003 6.40137H23.0003C23.1844 6.40137 23.3337 6.55061 23.3337 6.7347V7.66803C23.3337 7.85213 23.1844 8.00137 23.0003 8.00137H22.0003C21.8162 8.00137 21.667 7.85213 21.667 7.66803V6.7347ZM25.3337 6.40137C25.1496 6.40137 25.0003 6.55061 25.0003 6.7347V7.66803C25.0003 7.85213 25.1496 8.00137 25.3337 8.00137H26.3337C26.5178 8.00137 26.667 7.85213 26.667 7.66803V6.7347C26.667 6.55061 26.5178 6.40137 26.3337 6.40137H25.3337ZM28.3337 6.7347C28.3337 6.55061 28.4829 6.40137 28.667 6.40137H29.667C29.8511 6.40137 30.0003 6.55061 30.0003 6.7347V7.66803C30.0003 7.85213 29.8511 8.00137 29.667 8.00137H28.667C28.4829 8.00137 28.3337 7.85213 28.3337 7.66803V6.7347ZM32.0003 6.40137C31.8162 6.40137 31.667 6.55061 31.667 6.7347V7.66803C31.667 7.85213 31.8162 8.00137 32.0003 8.00137H33.0003C33.1844 8.00137 33.3337 7.85213 33.3337 7.66803V6.7347C33.3337 6.55061 33.1844 6.40137 33.0003 6.40137H32.0003ZM1.66699 16.3347C1.66699 16.1506 1.81623 16.0014 2.00033 16.0014H3.00033C3.18442 16.0014 3.33366 16.1506 3.33366 16.3347V17.268C3.33366 17.4521 3.18442 17.6014 3.00033 17.6014H2.00033C1.81623 17.6014 1.66699 17.4521 1.66699 17.268V16.3347ZM5.33366 16.0014C5.14956 16.0014 5.00032 16.1506 5.00032 16.3347V17.268C5.00032 17.4521 5.14956 17.6014 5.33366 17.6014H6.33366C6.51775 17.6014 6.66699 17.4521 6.66699 17.268V16.3347C6.66699 16.1506 6.51775 16.0014 6.33366 16.0014H5.33366ZM8.33366 16.3347C8.33366 16.1506 8.4829 16.0014 8.66699 16.0014H9.66699C9.85109 16.0014 10.0003 16.1506 10.0003 16.3347V17.268C10.0003 17.4521 9.85109 17.6014 9.66699 17.6014H8.66699C8.4829 17.6014 8.33366 17.4521 8.33366 17.268V16.3347ZM12.0003 16.0014C11.8162 16.0014 11.667 16.1506 11.667 16.3347V17.268C11.667 17.4521 11.8162 17.6014 12.0003 17.6014H13.0003C13.1844 17.6014 13.3337 17.4521 13.3337 17.268V16.3347C13.3337 16.1506 13.1844 16.0014 13.0003 16.0014H12.0003ZM15.0003 16.3347C15.0003 16.1506 15.1496 16.0014 15.3337 16.0014H16.3337C16.5178 16.0014 16.667 16.1506 16.667 16.3347V17.268C16.667 17.4521 16.5178 17.6014 16.3337 17.6014H15.3337C15.1496 17.6014 15.0003 17.4521 15.0003 17.268V16.3347ZM18.667 16.0014C18.4829 16.0014 18.3337 16.1506 18.3337 16.3347V17.268C18.3337 17.4521 18.4829 17.6014 18.667 17.6014H19.667C19.8511 17.6014 20.0003 17.4521 20.0003 17.268V16.3347C20.0003 16.1506 19.8511 16.0014 19.667 16.0014H18.667ZM21.667 16.3347C21.667 16.1506 21.8162 16.0014 22.0003 16.0014H23.0003C23.1844 16.0014 23.3337 16.1506 23.3337 16.3347V17.268C23.3337 17.4521 23.1844 17.6014 23.0003 17.6014H22.0003C21.8162 17.6014 21.667 17.4521 21.667 17.268V16.3347ZM25.3337 16.0014C25.1496 16.0014 25.0003 16.1506 25.0003 16.3347V17.268C25.0003 17.4521 25.1496 17.6014 25.3337 17.6014H26.3337C26.5178 17.6014 26.667 17.4521 26.667 17.268V16.3347C26.667 16.1506 26.5178 16.0014 26.3337 16.0014H25.3337ZM28.3337 16.3347C28.3337 16.1506 28.4829 16.0014 28.667 16.0014H29.667C29.8511 16.0014 30.0003 16.1506 30.0003 16.3347V17.268C30.0003 17.4521 29.8511 17.6014 29.667 17.6014H28.667C28.4829 17.6014 28.3337 17.4521 28.3337 17.268V16.3347ZM32.0003 16.0014C31.8162 16.0014 31.667 16.1506 31.667 16.3347V17.268C31.667 17.4521 31.8162 17.6014 32.0003 17.6014H33.0003C33.1844 17.6014 33.3337 17.4521 33.3337 17.268V16.3347C33.3337 16.1506 33.1844 16.0014 33.0003 16.0014H32.0003Z" fill="white" fill-opacity="0.5"/>
<mask id="path-6-inside-1_636_25854" fill="white">
<path fill-rule="evenodd" clip-rule="evenodd" d="M15.8169 10.2266C15.315 10.6655 15 11.298 15 12.0012C15 13.3267 16.1193 14.4012 17.5 14.4012C18.8807 14.4012 20 13.3267 20 12.0012C20 11.3113 19.6968 10.6894 19.2113 10.2516"/>
</mask>
<path d="M15.378 9.72474C14.7414 10.2815 14.3333 11.0928 14.3333 12.0012H15.6667C15.6667 11.5033 15.8886 11.0495 16.2558 10.7284L15.378 9.72474ZM14.3333 12.0012C14.3333 13.7203 15.777 15.0679 17.5 15.0679V13.7345C16.4616 13.7345 15.6667 12.9331 15.6667 12.0012H14.3333ZM17.5 15.0679C19.223 15.0679 20.6667 13.7203 20.6667 12.0012H19.3333C19.3333 12.9331 18.5384 13.7345 17.5 13.7345V15.0679ZM20.6667 12.0012C20.6667 11.1101 20.2739 10.3122 19.6578 9.75654L18.7649 10.7467C19.1197 11.0667 19.3333 11.5125 19.3333 12.0012H20.6667Z" fill="#D80915" mask="url(#path-6-inside-1_636_25854)"/>
<rect x="16.667" y="11.2012" width="1.66667" height="3.2" rx="0.666667" fill="#D80915"/>
</g>
</svg>
