<svg width="35" height="24" viewBox="0 0 35 24" fill="none" xmlns="http://www.w3.org/2000/svg">
<rect y="0.000976562" width="35" height="24" rx="2" fill="white"/>
<mask id="mask0_636_25606" style="mask-type:alpha" maskUnits="userSpaceOnUse" x="0" y="0" width="35" height="25">
<rect y="0.000976562" width="35" height="24" rx="2" fill="white"/>
</mask>
<g mask="url(#mask0_636_25606)">
<rect y="0.000976562" width="35" height="24" fill="#95CEF5"/>
<path fill-rule="evenodd" clip-rule="evenodd" d="M15.5407 8.18973L17.4999 6.91288L19.4592 8.18973L18.7997 6.00631L20.6701 4.61202L18.3032 4.53945L17.4999 2.40088L16.6966 4.53945L14.3298 4.61202L16.2002 6.00631L15.5407 8.18973ZM15.5407 20.9897L17.4999 19.7129L19.4592 20.9897L18.7997 18.8063L20.6701 17.412L18.3032 17.3394L17.4999 15.2009L16.6966 17.3394L14.3298 17.412L16.2002 18.8063L15.5407 20.9897ZM24.1666 13.3129L22.2073 14.5897L22.8668 12.4063L20.9964 11.012L23.3633 10.9394L24.1666 8.80088L24.9699 10.9394L27.3368 11.012L25.4664 12.4063L26.1259 14.5897L24.1666 13.3129ZM8.87399 14.5897L10.8333 13.3129L12.7926 14.5897L12.1331 12.4063L14.0035 11.012L11.6366 10.9394L10.8333 8.80088L10.03 10.9394L7.66309 11.012L9.5335 12.4063L8.87399 14.5897Z" fill="white"/>
</g>
</svg>
