<svg width="35" height="24" viewBox="0 0 35 24" fill="none" xmlns="http://www.w3.org/2000/svg">
<rect y="0.000976562" width="35" height="24" rx="2" fill="white"/>
<mask id="mask0_636_26148" style="mask-type:alpha" maskUnits="userSpaceOnUse" x="0" y="0" width="35" height="25">
<rect y="0.000976562" width="35" height="24" rx="2" fill="white"/>
</mask>
<g mask="url(#mask0_636_26148)">
<rect y="0.000976562" width="35" height="24" fill="#07319C"/>
<path fill-rule="evenodd" clip-rule="evenodd" d="M21.667 12.0004C21.667 10.5823 21.667 8.88489 21.667 7.73335C21.667 6.99697 22.2639 6.40039 23.0003 6.40039H28.667C29.4034 6.40039 30.0003 6.99697 30.0003 7.73335C30.0003 8.88489 30.0003 10.5823 30.0003 12.0004C30.0003 16.0004 25.8337 17.6004 25.8337 17.6004C25.8337 17.6004 21.667 16.0004 21.667 12.0004Z" fill="#08B9D6"/>
<mask id="mask1_636_26148" style="mask-type:alpha" maskUnits="userSpaceOnUse" x="21" y="6" width="9" height="12">
<path fill-rule="evenodd" clip-rule="evenodd" d="M21.667 12.0004C21.667 10.5823 21.667 8.88489 21.667 7.73335C21.667 6.99697 22.2639 6.40039 23.0003 6.40039H28.667C29.4034 6.40039 30.0003 6.99697 30.0003 7.73335C30.0003 8.88489 30.0003 10.5823 30.0003 12.0004C30.0003 16.0004 25.8337 17.6004 25.8337 17.6004C25.8337 17.6004 21.667 16.0004 21.667 12.0004Z" fill="white"/>
</mask>
<g mask="url(#mask1_636_26148)">
<path fill-rule="evenodd" clip-rule="evenodd" d="M21.667 14.4004H30.0003V17.6004H26.667H25.0003H21.667L21.667 14.4004Z" fill="#A63D09"/>
<path fill-rule="evenodd" clip-rule="evenodd" d="M26.6673 8H25.0007V9.6H23.334V11.2H25.0007V14.4H26.6673V11.2H28.334V9.6H26.6673V8Z" fill="#262626"/>
</g>
<path d="M0 -0.332357H-0.929698L-0.211799 0.258372L5.5 4.95837V6.22537L-0.188509 10.1261L-0.333333 10.2254V10.401V11.201V11.7897L0.171499 11.4868L6.759 7.53431H8.23003L13.9094 11.4288C14.0097 11.4975 14.1284 11.5343 14.25 11.5343C14.8151 11.5343 15.0691 10.8261 14.6327 10.467L9.5 6.24359V4.97658L15.0437 1.17519C15.225 1.05088 15.3333 0.845192 15.3333 0.625375V0.000976562V-0.587754L14.8285 -0.284854L8.241 3.66764H6.76998L1.02184 -0.273933L0.936642 -0.332357H0.833333H0Z" fill="#DB1E36" stroke="white" stroke-width="0.666667"/>
<path fill-rule="evenodd" clip-rule="evenodd" d="M0 4.00098V7.20098H5.83333V11.3343C5.83333 11.7025 6.13181 12.001 6.5 12.001H8.5C8.86819 12.001 9.16667 11.7025 9.16667 11.3343V7.20098H15.1667C15.5349 7.20098 15.8333 6.9025 15.8333 6.53431V4.66764C15.8333 4.29945 15.5349 4.00098 15.1667 4.00098H9.16667V0.000976562H5.83333V4.00098H0Z" fill="white"/>
<path fill-rule="evenodd" clip-rule="evenodd" d="M0 4.80098H6.66667V4.00098V0.000976562H8.33333V4.00098V4.80098H15V6.40098H8.33333V7.20098V11.201H6.66667V7.20098V6.40098H0V4.80098Z" fill="#DB1E36"/>
</g>
</svg>
