<svg width="35" height="24" viewBox="0 0 35 24" fill="none" xmlns="http://www.w3.org/2000/svg">
<rect x="0.25" y="0.250977" width="34.5" height="23.5" rx="1.75" fill="white" stroke="#F5F5F5" stroke-width="0.5"/>
<mask id="mask0_636_25416" style="mask-type:alpha" maskUnits="userSpaceOnUse" x="0" y="0" width="35" height="25">
<rect x="0.25" y="0.250977" width="34.5" height="23.5" rx="1.75" fill="white" stroke="white" stroke-width="0.5"/>
</mask>
<g mask="url(#mask0_636_25416)">
<path fill-rule="evenodd" clip-rule="evenodd" d="M0 6.40098H35V0.000976562H0V6.40098Z" fill="#FFCB49"/>
<path fill-rule="evenodd" clip-rule="evenodd" d="M0 17.6012H35V11.2012H0V17.6012Z" fill="#DC1D34"/>
<path fill-rule="evenodd" clip-rule="evenodd" d="M0 24.0011H35V17.6011H0V24.0011Z" fill="#4985D4"/>
<path fill-rule="evenodd" clip-rule="evenodd" d="M0 24.001L16.6667 12.001L0 0.000976562V24.001Z" fill="#4BA343"/>
<path fill-rule="evenodd" clip-rule="evenodd" d="M6.66699 16.8012C7.09862 16.8012 7.51747 16.7487 7.91699 16.6499C5.76046 16.1171 4.16699 14.2378 4.16699 12.0012C4.16699 9.76456 5.76046 7.88524 7.91699 7.35239C7.51747 7.25368 7.09862 7.20117 6.66699 7.20117C3.90557 7.20117 1.66699 9.3502 1.66699 12.0012C1.66699 14.6521 3.90557 16.8012 6.66699 16.8012ZM10.0003 8.80117C10.0003 9.243 9.62723 9.60117 9.16699 9.60117C8.70675 9.60117 8.33366 9.243 8.33366 8.80117C8.33366 8.35934 8.70675 8.00117 9.16699 8.00117C9.62723 8.00117 10.0003 8.35934 10.0003 8.80117ZM9.16699 12.8012C9.62723 12.8012 10.0003 12.443 10.0003 12.0012C10.0003 11.5593 9.62723 11.2012 9.16699 11.2012C8.70675 11.2012 8.33366 11.5593 8.33366 12.0012C8.33366 12.443 8.70675 12.8012 9.16699 12.8012ZM10.0003 15.2012C10.0003 15.643 9.62723 16.0012 9.16699 16.0012C8.70675 16.0012 8.33366 15.643 8.33366 15.2012C8.33366 14.7593 8.70675 14.4012 9.16699 14.4012C9.62723 14.4012 10.0003 14.7593 10.0003 15.2012Z" fill="white"/>
</g>
</svg>
