<svg width="35" height="24" viewBox="0 0 35 24" fill="none" xmlns="http://www.w3.org/2000/svg">
<rect y="0.000976562" width="35" height="24" rx="2" fill="white"/>
<mask id="mask0_636_25923" style="mask-type:alpha" maskUnits="userSpaceOnUse" x="0" y="0" width="35" height="25">
<rect y="0.000976562" width="35" height="24" rx="2" fill="white"/>
</mask>
<g mask="url(#mask0_636_25923)">
<path fill-rule="evenodd" clip-rule="evenodd" d="M0 6.40098H35V0.000976562H0V6.40098Z" fill="#0F3EB6"/>
<path fill-rule="evenodd" clip-rule="evenodd" d="M0 24.0006H35V17.6006H0V24.0006Z" fill="#0F3EB6"/>
<path fill-rule="evenodd" clip-rule="evenodd" d="M0 17.6014H35V6.40137H0V17.6014Z" fill="#ED1A3C"/>
<path fill-rule="evenodd" clip-rule="evenodd" d="M14.9997 10.4734H16.6663V9.46745C16.6663 9.09926 16.9648 8.80078 17.333 8.80078H17.6663C18.0345 8.80078 18.333 9.09926 18.333 9.46745V10.4734H19.9997V12.0008H14.9997V10.4734ZM21.4997 9.60078C21.1315 9.60078 20.833 9.89926 20.833 10.2674V12.0008H22.4997V10.2674C22.4997 9.89926 22.2012 9.60078 21.833 9.60078H21.4997ZM14.1663 12.8008H12.4997L10.833 16.0008H14.1663V12.8008ZM19.9997 12.8008H14.9997V16.0008H19.9997V12.8008ZM20.833 12.8008H22.4997L24.1663 16.0008H20.833V12.8008ZM13.1663 9.60078C12.7982 9.60078 12.4997 9.89926 12.4997 10.2674V12.0008H14.1663V10.2674C14.1663 9.89926 13.8679 9.60078 13.4997 9.60078H13.1663Z" fill="white"/>
</g>
</svg>
