<svg width="35" height="24" viewBox="0 0 35 24" fill="none" xmlns="http://www.w3.org/2000/svg">
<rect y="0.000976562" width="35" height="24" rx="2" fill="white"/>
<mask id="mask0_636_26287" style="mask-type:alpha" maskUnits="userSpaceOnUse" x="0" y="0" width="35" height="25">
<rect y="0.000976562" width="35" height="24" rx="2" fill="white"/>
</mask>
<g mask="url(#mask0_636_26287)">
<rect y="0.000976562" width="35" height="24" fill="#108B4D"/>
<path fill-rule="evenodd" clip-rule="evenodd" d="M24.7671 9.28059C24.8278 9.64951 24.8594 10.0277 24.8594 10.4131C24.8594 14.3895 21.5015 17.6131 17.3594 17.6131C13.2172 17.6131 9.85938 14.3895 9.85938 10.4131C9.85938 10.0277 9.8909 9.64951 9.95162 9.28059C10.5175 12.719 13.6186 15.3481 17.3594 15.3481C21.1001 15.3481 24.2013 12.719 24.7671 9.28059ZM17.5001 10.2775L15.44 11.6873L16.2001 9.37077L14.1667 7.92552L16.6966 7.90365L17.5001 5.60059L18.3035 7.90365L20.8334 7.92552L18.8001 9.37077L19.5602 11.6873L17.5001 10.2775Z" fill="#FFC941"/>
</g>
</svg>
