<svg width="35" height="24" viewBox="0 0 35 24" fill="none" xmlns="http://www.w3.org/2000/svg">
<rect y="0.000976562" width="35" height="24" rx="2" fill="white"/>
<mask id="mask0_636_25104" style="mask-type:alpha" maskUnits="userSpaceOnUse" x="0" y="0" width="35" height="25">
<rect y="0.000976562" width="35" height="24" rx="2" fill="white"/>
</mask>
<g mask="url(#mask0_636_25104)">
<rect y="0.000976562" width="35" height="24" fill="#1537D1"/>
<rect x="16.667" y="0.000976562" width="18.3333" height="24" fill="#EA3058"/>
<path fill-rule="evenodd" clip-rule="evenodd" d="M11.667 24.001H23.3337V0.000976562H11.667V24.001Z" fill="#FFCF3C"/>
<path fill-rule="evenodd" clip-rule="evenodd" d="M15.833 10.4008H17.4997V11.2008H15.833V10.4008Z" fill="#FFEDB1"/>
<path d="M15.7267 9.93441H19.2726C19.468 9.93441 19.6216 10.1018 19.6047 10.2966L19.3566 13.1542C19.3117 13.671 18.8791 14.0677 18.3603 14.0677H16.6389C16.1201 14.0677 15.6875 13.671 15.6426 13.1542L15.3946 10.2966C15.3777 10.1018 15.5312 9.93441 15.7267 9.93441Z" stroke="#D32E28" stroke-width="0.666667"/>
<path fill-rule="evenodd" clip-rule="evenodd" d="M15.833 11.2011H19.1663V12.0011H18.333H16.6663H15.833V11.2011Z" fill="#D32E28"/>
</g>
</svg>
