<svg width="35" height="24" viewBox="0 0 35 24" fill="none" xmlns="http://www.w3.org/2000/svg">
<rect y="0.000976562" width="35" height="24" rx="2" fill="white"/>
<mask id="mask0_636_25163" style="mask-type:alpha" maskUnits="userSpaceOnUse" x="0" y="0" width="35" height="25">
<rect y="0.000976562" width="35" height="24" rx="2" fill="white"/>
</mask>
<g mask="url(#mask0_636_25163)">
<path fill-rule="evenodd" clip-rule="evenodd" d="M0 8.00098H35V0.000976562H0V8.00098Z" fill="#24AAD5"/>
<path fill-rule="evenodd" clip-rule="evenodd" d="M0 24.001H35V16.001H0V24.001Z" fill="#21BF75"/>
<path fill-rule="evenodd" clip-rule="evenodd" d="M0 16.001H35V8.00098H0V16.001Z" fill="#ED1845"/>
<g filter="url(#filter0_d_636_25163)">
<path fill-rule="evenodd" clip-rule="evenodd" d="M17.5 14.4011C18.0141 14.4011 18.492 14.2521 18.8893 13.9967C18.8432 13.9996 18.7968 14.0011 18.75 14.0011C17.5994 14.0011 16.6667 13.1056 16.6667 12.0011C16.6667 10.8965 17.5994 10.0011 18.75 10.0011C18.7968 10.0011 18.8432 10.0026 18.8893 10.0055C18.492 9.75004 18.0141 9.60107 17.5 9.60107C16.1193 9.60107 15 10.6756 15 12.0011C15 13.3266 16.1193 14.4011 17.5 14.4011ZM20 12.0011C20 12.4429 19.6269 12.8011 19.1667 12.8011C18.7064 12.8011 18.3333 12.4429 18.3333 12.0011C18.3333 11.5592 18.7064 11.2011 19.1667 11.2011C19.6269 11.2011 20 11.5592 20 12.0011Z" fill="white"/>
</g>
</g>
<defs>
<filter id="filter0_d_636_25163" x="15" y="9.60107" width="5" height="5.7998" filterUnits="userSpaceOnUse" color-interpolation-filters="sRGB">
<feFlood flood-opacity="0" result="BackgroundImageFix"/>
<feColorMatrix in="SourceAlpha" type="matrix" values="0 0 0 0 0 0 0 0 0 0 0 0 0 0 0 0 0 0 127 0" result="hardAlpha"/>
<feOffset dy="1"/>
<feColorMatrix type="matrix" values="0 0 0 0 0 0 0 0 0 0 0 0 0 0 0 0 0 0 0.06 0"/>
<feBlend mode="normal" in2="BackgroundImageFix" result="effect1_dropShadow_636_25163"/>
<feBlend mode="normal" in="SourceGraphic" in2="effect1_dropShadow_636_25163" result="shape"/>
</filter>
</defs>
</svg>
