<svg width="35" height="24" viewBox="0 0 35 24" fill="none" xmlns="http://www.w3.org/2000/svg">
<rect y="0.000976562" width="35" height="24" rx="2" fill="white"/>
<mask id="mask0_636_26031" style="mask-type:alpha" maskUnits="userSpaceOnUse" x="0" y="0" width="35" height="25">
<rect y="0.000976562" width="35" height="24" rx="2" fill="white"/>
</mask>
<g mask="url(#mask0_636_26031)">
<rect y="0.000976562" width="35" height="24" fill="#07319C"/>
<path fill-rule="evenodd" clip-rule="evenodd" d="M25.833 8.00078C27.2137 8.00078 28.333 7.28444 28.333 6.40078C28.333 5.51713 27.2137 4.80078 25.833 4.80078C24.4523 4.80078 23.333 5.51713 23.333 6.40078C23.333 7.28444 24.4523 8.00078 25.833 8.00078Z" fill="#FAD051"/>
<path fill-rule="evenodd" clip-rule="evenodd" d="M21.667 12.0014C21.667 9.60137 21.667 6.40137 21.667 6.40137H30.0003C30.0003 6.40137 30.0003 9.60137 30.0003 12.0014C30.0003 16.0014 25.8337 17.6014 25.8337 17.6014C25.8337 17.6014 21.667 16.0014 21.667 12.0014Z" fill="url(#paint0_linear_636_26031)"/>
<mask id="mask1_636_26031" style="mask-type:alpha" maskUnits="userSpaceOnUse" x="21" y="6" width="9" height="12">
<path fill-rule="evenodd" clip-rule="evenodd" d="M21.667 12.0014C21.667 9.60137 21.667 6.40137 21.667 6.40137H30.0003C30.0003 6.40137 30.0003 9.60137 30.0003 12.0014C30.0003 16.0014 25.8337 17.6014 25.8337 17.6014C25.8337 17.6014 21.667 16.0014 21.667 12.0014Z" fill="white"/>
</mask>
<g mask="url(#mask1_636_26031)">
<path fill-rule="evenodd" clip-rule="evenodd" d="M21.667 6.40137H30.0003V8.00137H26.667H25.0003H21.667V6.40137Z" fill="#CF142C"/>
<path fill-rule="evenodd" clip-rule="evenodd" d="M30.0003 9.60156H21.667V11.2016H25.0003H26.667H30.0003V9.60156ZM21.667 12.8016H30.0003V14.4016H26.667H25.0003H21.667V12.8016ZM21.667 16.0016H30.0003V17.6016H26.667H25.0003H21.667V16.0016Z" fill="#125FBA"/>
</g>
<path d="M0 -0.332357H-0.929698L-0.211799 0.258372L5.5 4.95837V6.22537L-0.188509 10.1261L-0.333333 10.2254V10.401V11.201V11.7897L0.171499 11.4868L6.759 7.53431H8.23003L13.9094 11.4288C14.0097 11.4975 14.1284 11.5343 14.25 11.5343C14.8151 11.5343 15.0691 10.8261 14.6327 10.467L9.5 6.24359V4.97658L15.0437 1.17519C15.225 1.05088 15.3333 0.845192 15.3333 0.625375V0.000976562V-0.587754L14.8285 -0.284854L8.241 3.66764H6.76998L1.02184 -0.273933L0.936642 -0.332357H0.833333H0Z" fill="#DB1E36" stroke="white" stroke-width="0.666667"/>
<path fill-rule="evenodd" clip-rule="evenodd" d="M0 4.00098V7.20098H5.83333V11.3343C5.83333 11.7025 6.13181 12.001 6.5 12.001H8.5C8.86819 12.001 9.16667 11.7025 9.16667 11.3343V7.20098H15.1667C15.5349 7.20098 15.8333 6.9025 15.8333 6.53431V4.66764C15.8333 4.29945 15.5349 4.00098 15.1667 4.00098H9.16667V0.000976562H5.83333V4.00098H0Z" fill="white"/>
<path fill-rule="evenodd" clip-rule="evenodd" d="M0 4.80098H6.66667V4.00098V0.000976562H8.33333V4.00098V4.80098H15V6.40098H8.33333V7.20098V11.201H6.66667V7.20098V6.40098H0V4.80098Z" fill="#DB1E36"/>
</g>
<defs>
<linearGradient id="paint0_linear_636_26031" x1="21.667" y1="6.40137" x2="21.667" y2="17.6014" gradientUnits="userSpaceOnUse">
<stop stop-color="white"/>
<stop offset="1" stop-color="#F0F0F0"/>
</linearGradient>
</defs>
</svg>
