<svg width="35" height="24" viewBox="0 0 35 24" fill="none" xmlns="http://www.w3.org/2000/svg">
<rect y="0.000976562" width="35" height="24" rx="2" fill="white"/>
<mask id="mask0_636_25980" style="mask-type:alpha" maskUnits="userSpaceOnUse" x="0" y="0" width="35" height="25">
<rect y="0.000976562" width="35" height="24" rx="2" fill="white"/>
</mask>
<g mask="url(#mask0_636_25980)">
<rect y="0.000976562" width="35" height="24" fill="#F22A46"/>
<path fill-rule="evenodd" clip-rule="evenodd" d="M17.4997 16.001C19.8009 16.001 21.6663 14.2101 21.6663 12.001C21.6663 9.79184 19.8009 8.00098 17.4997 8.00098C15.1985 8.00098 13.333 9.79184 13.333 12.001C13.333 14.2101 15.1985 16.001 17.4997 16.001Z" fill="#FFF04D"/>
<path fill-rule="evenodd" clip-rule="evenodd" d="M15.4599 20.5806L17.4997 17.6576L19.5395 20.5806L20.0561 17.0974L23.215 18.8814L22.1062 15.5279L25.7586 15.8194L23.244 13.2599L26.6663 12.0012L23.244 10.7426L25.7586 8.18306L22.1062 8.47457L23.215 5.12112L20.0561 6.90506L19.5395 3.42188L17.4997 6.34491L15.4599 3.42188L14.9432 6.90506L11.7844 5.12112L12.8931 8.47457L9.24079 8.18306L11.7554 10.7426L8.33301 12.0012L11.7554 13.2599L9.24079 15.8194L12.8931 15.5279L11.7844 18.8814L14.9432 17.0974L15.4599 20.5806ZM23.333 12.0012C23.333 15.094 20.7213 17.6012 17.4997 17.6012C14.278 17.6012 11.6663 15.094 11.6663 12.0012C11.6663 8.90845 14.278 6.40124 17.4997 6.40124C20.7213 6.40124 23.333 8.90845 23.333 12.0012Z" fill="#FFF04D"/>
</g>
</svg>
