<svg width="35" height="24" viewBox="0 0 35 24" fill="none" xmlns="http://www.w3.org/2000/svg">
<rect y="0.000976562" width="35" height="24" rx="2" fill="white"/>
<mask id="mask0_636_25207" style="mask-type:alpha" maskUnits="userSpaceOnUse" x="0" y="0" width="35" height="25">
<rect y="0.000976562" width="35" height="24" rx="2" fill="white"/>
</mask>
<g mask="url(#mask0_636_25207)">
<rect y="0.000976562" width="35" height="24" fill="url(#paint0_linear_636_25207)"/>
<rect x="16.667" y="0.000976562" width="18.3333" height="24" fill="#08379D"/>
<path fill-rule="evenodd" clip-rule="evenodd" d="M0 24.001H11.6667V0.000976562H0V24.001Z" fill="#08379D"/>
<path fill-rule="evenodd" clip-rule="evenodd" d="M11.667 24.001H23.3337V0.000976562H11.667V24.001Z" fill="#FFCC50"/>
<path fill-rule="evenodd" clip-rule="evenodd" d="M17.2562 7.59265C17.3906 7.40295 17.673 7.40561 17.8038 7.59781L18.8125 9.08006C18.9631 9.30136 18.8046 9.60092 18.5369 9.60092H18.2868C18.089 9.60092 17.9347 9.7721 17.9552 9.96879L18.3024 13.3021C18.3201 13.4719 18.4633 13.6009 18.634 13.6009H19.0338C19.1193 13.6009 19.2014 13.5681 19.2634 13.5093L19.8964 12.9081C19.9627 12.8452 20.0002 12.7578 20.0002 12.6664V11.343C20.0002 11.2522 19.9632 11.1654 19.8977 11.1025L19.5705 10.7884C19.3883 10.6135 19.4592 10.3074 19.6997 10.2304L21.1323 9.77199C21.3733 9.69489 21.6089 9.90373 21.5613 10.1522L20.9213 13.4931C20.9078 13.5631 20.8723 13.627 20.8199 13.6754L19.2627 15.1126C19.2011 15.1694 19.1204 15.2009 19.0366 15.2009H18.6669C18.4828 15.2009 18.3336 15.3502 18.3336 15.5343V16.4676C18.3336 16.6517 18.1843 16.8009 18.0002 16.8009H17.0002C16.8161 16.8009 16.6669 16.6517 16.6669 16.4676V15.5343C16.6669 15.3502 16.5177 15.2009 16.3336 15.2009H15.9677C15.8816 15.2009 15.7989 15.1676 15.7368 15.1081L14.2413 13.6724C14.1928 13.6258 14.1596 13.5657 14.1459 13.4999L13.4502 10.1606C13.3981 9.91066 13.6349 9.69735 13.8781 9.77517L15.3007 10.2304C15.5413 10.3074 15.6122 10.6135 15.43 10.7884L15.1027 11.1025C15.0372 11.1654 15.0002 11.2522 15.0002 11.343V12.6664C15.0002 12.7578 15.0378 12.8452 15.104 12.9081L15.7371 13.5093C15.799 13.5681 15.8812 13.6009 15.9666 13.6009H16.3665C16.5372 13.6009 16.6803 13.4719 16.698 13.3021L17.0452 9.96879C17.0657 9.7721 16.9115 9.60092 16.7137 9.60092H16.4782C16.2077 9.60092 16.0498 9.29566 16.2062 9.0749L17.2562 7.59265Z" fill="#262626"/>
</g>
<defs>
<linearGradient id="paint0_linear_636_25207" x1="0" y1="0.000976562" x2="0" y2="24.001" gradientUnits="userSpaceOnUse">
<stop stop-color="#1132C7"/>
<stop offset="1" stop-color="#0522A5"/>
</linearGradient>
</defs>
</svg>
