<svg width="35" height="24" viewBox="0 0 35 24" fill="none" xmlns="http://www.w3.org/2000/svg">
<rect y="0.000976562" width="35" height="24" rx="2" fill="white"/>
<mask id="mask0_636_25215" style="mask-type:alpha" maskUnits="userSpaceOnUse" x="0" y="0" width="35" height="25">
<rect y="0.000976562" width="35" height="24" rx="2" fill="white"/>
</mask>
<g mask="url(#mask0_636_25215)">
<rect y="0.000976562" width="35" height="24" fill="#E4233B"/>
<path fill-rule="evenodd" clip-rule="evenodd" d="M0 0.000976562L15 12.001L0 24.001V0.000976562Z" fill="#34CD4E"/>
<path fill-rule="evenodd" clip-rule="evenodd" d="M35 0.000976562L20 12.001L35 24.001V0.000976562Z" fill="#34CD4E"/>
<path fill-rule="evenodd" clip-rule="evenodd" d="M21.2029 7.67341C20.1957 6.87829 18.9061 6.40091 17.5003 6.40091C16.0945 6.40091 14.8048 6.87829 13.7976 7.67341L-1.60282 -2.29883L-3.4668 0.354092L11.9325 10.3255C11.7599 10.8545 11.6669 11.4173 11.6669 12.0009C11.6669 12.5845 11.7599 13.1473 11.9325 13.6763L-3.4668 23.6477L-1.60282 26.3006L13.7976 16.3284C14.8048 17.1235 16.0945 17.6009 17.5003 17.6009C18.9061 17.6009 20.1957 17.1235 21.2029 16.3284L36.6034 26.3006L38.4673 23.6477L23.0681 13.6763C23.2406 13.1473 23.3336 12.5845 23.3336 12.0009C23.3336 11.4173 23.2406 10.8545 23.0681 10.3255L38.4673 0.354091L36.6034 -2.29883L21.2029 7.67341Z" fill="white"/>
<path fill-rule="evenodd" clip-rule="evenodd" d="M17.4998 10.4011L16.3213 10.7325L16.6665 9.6011L16.3213 8.46973L17.4998 8.8011L18.6783 8.46973L18.3331 9.6011L18.6783 10.7325L17.4998 10.4011ZM14.9998 14.4011L13.8213 14.7325L14.1665 13.6011L13.8213 12.4697L14.9998 12.8011L16.1783 12.4697L15.8331 13.6011L16.1783 14.7325L14.9998 14.4011ZM18.8213 14.7325L19.9998 14.4011L21.1783 14.7325L20.8331 13.6011L21.1783 12.4697L19.9998 12.8011L18.8213 12.4697L19.1665 13.6011L18.8213 14.7325Z" fill="#DF2239"/>
</g>
</svg>
