<svg width="35" height="24" viewBox="0 0 35 24" fill="none" xmlns="http://www.w3.org/2000/svg">
<rect y="0.000976562" width="35" height="24" rx="2" fill="white"/>
<mask id="mask0_636_25123" style="mask-type:alpha" maskUnits="userSpaceOnUse" x="0" y="0" width="35" height="25">
<rect y="0.000976562" width="35" height="24" rx="2" fill="white"/>
</mask>
<g mask="url(#mask0_636_25123)">
<rect y="0.000976562" width="35" height="24" fill="#E2243B"/>
<path fill-rule="evenodd" clip-rule="evenodd" d="M0 0.000976562H35L17.5 24.001L0 0.000976562Z" fill="#262626"/>
<mask id="mask1_636_25123" style="mask-type:alpha" maskUnits="userSpaceOnUse" x="0" y="0" width="35" height="25">
<path fill-rule="evenodd" clip-rule="evenodd" d="M0 0.000976562H35L17.5 24.001L0 0.000976562Z" fill="white"/>
</mask>
<g mask="url(#mask1_636_25123)">
<g filter="url(#filter0_d_636_25123)">
<path fill-rule="evenodd" clip-rule="evenodd" d="M17.5 13.2009L14.6299 16.2528L14.8483 12.1465L10.5709 12.3562L13.75 9.60088L10 6.40088L14.8483 7.20088L14.1667 2.40088L17.5 6.40088L20.8333 2.40088L20.1517 7.20088L25 6.40088L21.25 9.60088L24.4291 12.3562L20.1517 12.1465L20.3701 16.2528L17.5 13.2009Z" fill="#FFCF3C"/>
</g>
<g filter="url(#filter1_d_636_25123)">
<path fill-rule="evenodd" clip-rule="evenodd" d="M0 16.0011H35V9.60107H0V16.0011Z" fill="#1984D8"/>
</g>
<path fill-rule="evenodd" clip-rule="evenodd" d="M0 24.001H35V16.001H0V24.001Z" fill="white"/>
</g>
</g>
<defs>
<filter id="filter0_d_636_25123" x="10" y="2.40088" width="15" height="13.8521" filterUnits="userSpaceOnUse" color-interpolation-filters="sRGB">
<feFlood flood-opacity="0" result="BackgroundImageFix"/>
<feColorMatrix in="SourceAlpha" type="matrix" values="0 0 0 0 0 0 0 0 0 0 0 0 0 0 0 0 0 0 127 0" result="hardAlpha"/>
<feOffset/>
<feColorMatrix type="matrix" values="0 0 0 0 0 0 0 0 0 0 0 0 0 0 0 0 0 0 0.06 0"/>
<feBlend mode="normal" in2="BackgroundImageFix" result="effect1_dropShadow_636_25123"/>
<feBlend mode="normal" in="SourceGraphic" in2="effect1_dropShadow_636_25123" result="shape"/>
</filter>
<filter id="filter1_d_636_25123" x="0" y="9.60107" width="35" height="6.3999" filterUnits="userSpaceOnUse" color-interpolation-filters="sRGB">
<feFlood flood-opacity="0" result="BackgroundImageFix"/>
<feColorMatrix in="SourceAlpha" type="matrix" values="0 0 0 0 0 0 0 0 0 0 0 0 0 0 0 0 0 0 127 0" result="hardAlpha"/>
<feOffset/>
<feColorMatrix type="matrix" values="0 0 0 0 0 0 0 0 0 0 0 0 0 0 0 0 0 0 0.06 0"/>
<feBlend mode="normal" in2="BackgroundImageFix" result="effect1_dropShadow_636_25123"/>
<feBlend mode="normal" in="SourceGraphic" in2="effect1_dropShadow_636_25123" result="shape"/>
</filter>
</defs>
</svg>
