<svg width="35" height="24" viewBox="0 0 35 24" fill="none" xmlns="http://www.w3.org/2000/svg">
<rect y="0.000976562" width="35" height="24" rx="2" fill="white"/>
<mask id="mask0_636_26004" style="mask-type:alpha" maskUnits="userSpaceOnUse" x="0" y="0" width="35" height="25">
<rect y="0.000976562" width="35" height="24" rx="2" fill="white"/>
</mask>
<g mask="url(#mask0_636_26004)">
<rect y="0.000976562" width="35" height="24" fill="#128C4B"/>
<path fill-rule="evenodd" clip-rule="evenodd" d="M8.33301 14.4006H21.6663V13.0601C21.6663 12.5692 22.1789 12.2466 22.6215 12.459L23.333 12.8006V14.4006H25.9997C26.3679 14.4006 26.6663 14.6991 26.6663 15.0672V16.2672C26.6663 17.0036 26.0694 17.6006 25.333 17.6006H22.333C21.9648 17.6006 21.6663 17.3021 21.6663 16.9339V16.0006H10.2679C10.0958 16.0006 9.93035 15.934 9.80619 15.8148L8.33301 14.4006Z" fill="white"/>
<path fill-rule="evenodd" clip-rule="evenodd" d="M8.33301 9.74344C8.33301 9.65268 8.37002 9.56584 8.4355 9.50298L8.91586 9.04183C9.05251 8.91064 9.05251 8.69209 8.91586 8.5609L8.4355 8.09976C8.37002 8.0369 8.33301 7.95006 8.33301 7.85929V6.7347C8.33301 6.55061 8.48225 6.40137 8.66634 6.40137H9.68501C9.8588 6.40137 9.99967 6.54225 9.99967 6.71603C9.99967 7.04526 10.4413 7.15338 10.5934 6.86138L10.7396 6.58072C10.797 6.4705 10.911 6.40137 11.0352 6.40137H12.9997C13.1838 6.40137 13.333 6.55061 13.333 6.7347V6.86803C13.333 7.05213 13.1838 7.20137 12.9997 7.20137H11.9997C11.8156 7.20137 11.6663 7.35061 11.6663 7.5347V7.66803C11.6663 7.85213 11.8156 8.00137 11.9997 8.00137H12.9997C13.1838 8.00137 13.333 8.15061 13.333 8.3347V10.868C13.333 11.0521 13.1838 11.2014 12.9997 11.2014H11.9997C11.8156 11.2014 11.6663 11.0521 11.6663 10.868V9.9347C11.6663 9.75061 11.8156 9.60137 11.9997 9.60137H12.1663C12.3504 9.60137 12.4997 9.45213 12.4997 9.26803V9.1347C12.4997 8.95061 12.3504 8.80137 12.1663 8.80137H11.1663C10.9822 8.80137 10.833 8.95061 10.833 9.1347V10.868C10.833 11.0521 10.6838 11.2014 10.4997 11.2014H10.333C10.1489 11.2014 9.99967 11.0521 9.99967 10.868V9.9347C9.99967 9.75061 9.85044 9.60137 9.66634 9.60137H9.49967C9.31558 9.60137 9.16634 9.75061 9.16634 9.9347V10.868C9.16634 11.0521 9.0171 11.2014 8.83301 11.2014H8.66634C8.48225 11.2014 8.33301 11.0521 8.33301 10.868V9.74344Z" fill="white"/>
<path fill-rule="evenodd" clip-rule="evenodd" d="M21.667 9.74344C21.667 9.65268 21.704 9.56584 21.7695 9.50298L22.2498 9.04183C22.3865 8.91064 22.3865 8.69209 22.2498 8.5609L21.7695 8.09976C21.704 8.0369 21.667 7.95006 21.667 7.85929V6.7347C21.667 6.55061 21.8162 6.40137 22.0003 6.40137H23.019C23.1928 6.40137 23.3337 6.54225 23.3337 6.71603C23.3337 7.04526 23.7753 7.15338 23.9274 6.86138L24.0736 6.58072C24.131 6.4705 24.2449 6.40137 24.3692 6.40137H26.3337C26.5178 6.40137 26.667 6.55061 26.667 6.7347V6.86803C26.667 7.05213 26.5178 7.20137 26.3337 7.20137H25.3337C25.1496 7.20137 25.0003 7.35061 25.0003 7.5347V7.66803C25.0003 7.85213 25.1496 8.00137 25.3337 8.00137H26.3337C26.5178 8.00137 26.667 8.15061 26.667 8.3347V10.868C26.667 11.0521 26.5178 11.2014 26.3337 11.2014H25.3337C25.1496 11.2014 25.0003 11.0521 25.0003 10.868V9.9347C25.0003 9.75061 25.1496 9.60137 25.3337 9.60137H25.5003C25.6844 9.60137 25.8337 9.45213 25.8337 9.26803V9.1347C25.8337 8.95061 25.6844 8.80137 25.5003 8.80137H24.5003C24.3162 8.80137 24.167 8.95061 24.167 9.1347V10.868C24.167 11.0521 24.0178 11.2014 23.8337 11.2014H23.667C23.4829 11.2014 23.3337 11.0521 23.3337 10.868V9.9347C23.3337 9.75061 23.1844 9.60137 23.0003 9.60137H22.8337C22.6496 9.60137 22.5003 9.75061 22.5003 9.9347V10.868C22.5003 11.0521 22.3511 11.2014 22.167 11.2014H22.0003C21.8162 11.2014 21.667 11.0521 21.667 10.868V9.74344Z" fill="white"/>
<path fill-rule="evenodd" clip-rule="evenodd" d="M20 7.59762C20 7.8206 19.8698 8.12637 19.6991 8.29019L19.4675 8.51255C19.3014 8.67206 19.2969 8.92637 19.4675 9.09019L19.6991 9.31255C19.8653 9.47206 20 9.7726 20 10.0051V10.7976C20 11.0206 19.8216 11.2014 19.5794 11.2014H18.7539C18.5216 11.2014 18.3333 11.0301 18.3333 10.7976V10.0051C18.3333 9.78213 18.2564 9.74902 18.1401 9.97246L17.6933 10.8303C17.5865 11.0352 17.3038 11.2014 17.0872 11.2014H15.4128C15.1848 11.2014 15 11.0158 15 10.8014C15 10.5805 15.1784 10.4014 15.4206 10.4014H16.2461C16.4784 10.4014 16.6667 10.2158 16.6667 10.0014C16.6667 9.78045 16.4883 9.60137 16.2461 9.60137H15.4206C15.1883 9.60137 15 9.42932 15 9.20898V6.79375C15 6.57704 15.1784 6.40137 15.4206 6.40137H16.2461C16.4784 6.40137 16.6667 6.5726 16.6667 6.80511V7.59762C16.6667 7.8206 16.4734 8.00137 16.25 8.00137C16.0199 8.00137 15.8333 8.18691 15.8333 8.40137C15.8333 8.62228 16.0117 8.80137 16.2539 8.80137H17.0794C17.3117 8.80137 17.5 8.61304 17.5 8.40506V6.79768C17.5 6.5788 17.6933 6.40137 17.9167 6.40137C18.1468 6.40137 18.3333 6.5726 18.3333 6.80511V7.59762C18.3333 7.8206 18.5266 8.00137 18.75 8.00137C18.9801 8.00137 19.1667 7.83014 19.1667 7.59762V6.80511C19.1667 6.58213 19.3599 6.40137 19.5833 6.40137C19.8135 6.40137 20 6.5726 20 6.80511V7.59762Z" fill="white"/>
</g>
</svg>
