<svg width="35" height="24" viewBox="0 0 35 24" fill="none" xmlns="http://www.w3.org/2000/svg">
<rect y="0.000976562" width="35" height="24" rx="2" fill="white"/>
<mask id="mask0_636_26116" style="mask-type:alpha" maskUnits="userSpaceOnUse" x="0" y="0" width="35" height="25">
<rect y="0.000976562" width="35" height="24" rx="2" fill="white"/>
</mask>
<g mask="url(#mask0_636_26116)">
<rect y="0.000976562" width="35" height="24" fill="#FFBF19"/>
<path fill-rule="evenodd" clip-rule="evenodd" d="M13.333 1.60059H31.9997C32.7361 1.60059 33.333 2.19754 33.333 2.93392V21.0673C33.333 21.8036 32.7361 22.4006 31.9997 22.4006H13.333V1.60059Z" fill="#A52531"/>
<path d="M1.66699 2.93392C1.66699 2.19754 2.26395 1.60059 3.00033 1.60059H6.66699V22.4006H3.00033C2.26395 22.4006 1.66699 21.8036 1.66699 21.0673V2.93392Z" fill="#03664F"/>
<rect x="6.66699" y="1.60059" width="5" height="20.8" rx="0.666667" fill="#FF6816"/>
<path fill-rule="evenodd" clip-rule="evenodd" d="M16.6667 4.00117C16.6667 4.443 16.2936 4.80117 15.8333 4.80117C15.3731 4.80117 15 4.443 15 4.00117V3.20117H15.8333C16.2936 3.20117 16.6667 3.55934 16.6667 4.00117ZM30 4.00117C30 4.443 30.3731 4.80117 30.8333 4.80117C31.2936 4.80117 31.6667 4.443 31.6667 4.00117V3.20117H30.8333C30.3731 3.20117 30 3.55934 30 4.00117ZM30.8333 19.2012C30.3731 19.2012 30 19.5593 30 20.0012C30 20.443 30.3731 20.8012 30.8333 20.8012H31.6667V20.0012C31.6667 19.5593 31.2936 19.2012 30.8333 19.2012ZM16.6667 20.0012C16.6667 19.5593 16.2936 19.2012 15.8333 19.2012C15.3731 19.2012 15 19.5593 15 20.0012V20.8012H15.8333C16.2936 20.8012 16.6667 20.443 16.6667 20.0012Z" fill="#FFBF18"/>
<path fill-rule="evenodd" clip-rule="evenodd" d="M19.9998 15.0681C19.9998 14.6999 19.7014 14.4014 19.3332 14.4014H19.2706C19.2016 14.4014 19.1339 14.391 19.0687 14.3687C18.6068 14.2109 16.6665 13.5062 16.6665 12.8014C16.6665 12.3314 16.9541 11.8614 17.1914 11.5536C17.3631 11.3309 17.4238 11.0307 17.3194 10.7696C17.0397 10.0703 16.5455 8.6981 16.6665 8.00139C16.743 7.56083 17.1006 7.18752 17.4651 6.91258C17.8469 6.62459 18.3332 6.93272 18.3332 7.41095V10.7819C18.3332 11.0383 18.4802 11.272 18.7113 11.3829L19.6617 11.8391C19.8651 11.9367 20.1077 11.8979 20.2704 11.7417C20.5427 11.4802 20.4702 11.0272 20.1299 10.8638L19.1665 10.4014V9.60139C19.5701 9.60139 19.6944 9.0548 19.3306 8.88017L19.1665 8.80139V8.00139H20.565C20.7371 8.00139 20.9025 7.93483 21.0266 7.81565L21.473 7.38713C21.5972 7.26794 21.7626 7.20139 21.9347 7.20139H22.9287C23.1773 7.20139 23.4052 7.33966 23.52 7.5601L24.0337 8.54638C24.1184 8.70914 24.1324 8.89965 24.0722 9.07301L23.6406 10.316C23.4902 10.7492 23.8118 11.2014 24.2704 11.2014H27.2479C27.4095 11.2014 27.565 11.1389 27.6816 11.0269C27.9969 10.7242 27.913 10.1997 27.5189 10.0105L26.8033 9.66704C26.7132 9.62383 26.6146 9.60139 26.5148 9.60139H25.6665C25.2983 9.60139 24.9998 9.30291 24.9998 8.93472V8.28553C24.9998 8.104 25.0739 7.93032 25.2048 7.80461L25.8332 7.20139V8.13472C25.8332 8.50291 26.1316 8.80139 26.4998 8.80139H26.6665H27.9287C28.1773 8.80139 28.4052 8.93966 28.52 9.1601L29.1094 10.2917C29.1471 10.3642 29.1712 10.4422 29.1791 10.5236C29.2161 10.9062 29.3132 12.0971 29.1665 12.8014C29.0445 13.387 28.6932 13.9272 28.4878 14.2052C28.392 14.3348 28.3332 14.4902 28.3332 14.6514V16.9721C28.3332 17.3196 28.0514 17.6014 27.7038 17.6014C27.2315 17.6014 26.9275 17.1003 27.1457 16.6814L27.4056 16.1823C27.4647 16.0689 27.4647 15.9338 27.4056 15.8205L27.3638 15.7402C27.1852 15.3973 26.6665 15.5243 26.6665 15.9109C26.6665 15.9704 26.6522 16.0289 26.6247 16.0816L26.02 17.2427C25.9052 17.4631 25.6773 17.6014 25.4287 17.6014H25.2654C24.765 17.6014 24.443 17.0706 24.6741 16.6268L24.9244 16.1461C24.974 16.051 24.9998 15.9454 24.9998 15.8382V15.0681C24.9998 14.6999 24.7014 14.4014 24.3332 14.4014H22.3332C21.965 14.4014 21.6665 14.6999 21.6665 15.0681V15.8382C21.6665 15.9454 21.6406 16.051 21.5911 16.1461L21.02 17.2427C20.9052 17.4631 20.6773 17.6014 20.4287 17.6014H20.2654C19.765 17.6014 19.443 17.0706 19.6741 16.6268L19.9244 16.1461C19.974 16.051 19.9998 15.9454 19.9998 15.8382V15.0681Z" fill="#FFBF18"/>
</g>
</svg>
