<svg width="35" height="24" viewBox="0 0 35 24" fill="none" xmlns="http://www.w3.org/2000/svg">
<rect x="0.25" y="0.250977" width="34.5" height="23.5" rx="1.75" fill="white" stroke="#F5F5F5" stroke-width="0.5"/>
<mask id="mask0_636_26444" style="mask-type:alpha" maskUnits="userSpaceOnUse" x="0" y="0" width="35" height="25">
<rect x="0.25" y="0.250977" width="34.5" height="23.5" rx="1.75" fill="white" stroke="white" stroke-width="0.5"/>
</mask>
<g mask="url(#mask0_636_26444)">
<path fill-rule="evenodd" clip-rule="evenodd" d="M0 0.000976562H35V4.80098H0V0.000976562ZM0 9.60098H35V14.401H0V9.60098ZM0 19.201V24.001H35V19.201H0Z" fill="#FA2222"/>
<path fill-rule="evenodd" clip-rule="evenodd" d="M0 0.000976562L16.6667 12.001L0 24.001V0.000976562Z" fill="#1D63F9"/>
<g filter="url(#filter0_d_636_26444)">
<path fill-rule="evenodd" clip-rule="evenodd" d="M5.83366 13.5299L3.38455 15.237L4.31901 12.4734L1.87092 10.7649L4.89755 10.7641L5.83366 8.00098L6.76976 10.7641L9.79639 10.7649L7.34831 12.4734L8.28276 15.237L5.83366 13.5299Z" fill="url(#paint0_linear_636_26444)"/>
</g>
</g>
<defs>
<filter id="filter0_d_636_26444" x="1.87109" y="8.00098" width="7.92578" height="8.23633" filterUnits="userSpaceOnUse" color-interpolation-filters="sRGB">
<feFlood flood-opacity="0" result="BackgroundImageFix"/>
<feColorMatrix in="SourceAlpha" type="matrix" values="0 0 0 0 0 0 0 0 0 0 0 0 0 0 0 0 0 0 127 0" result="hardAlpha"/>
<feOffset dy="1"/>
<feColorMatrix type="matrix" values="0 0 0 0 0 0 0 0 0 0 0 0 0 0 0 0 0 0 0.06 0"/>
<feBlend mode="normal" in2="BackgroundImageFix" result="effect1_dropShadow_636_26444"/>
<feBlend mode="normal" in="SourceGraphic" in2="effect1_dropShadow_636_26444" result="shape"/>
</filter>
<linearGradient id="paint0_linear_636_26444" x1="1.66699" y1="8.00098" x2="1.66699" y2="16.001" gradientUnits="userSpaceOnUse">
<stop stop-color="white"/>
<stop offset="1" stop-color="#F0F0F0"/>
</linearGradient>
</defs>
</svg>
