<svg width="35" height="24" viewBox="0 0 35 24" fill="none" xmlns="http://www.w3.org/2000/svg">
<rect y="0.000976562" width="35" height="24" rx="2" fill="white"/>
<mask id="mask0_636_26232" style="mask-type:alpha" maskUnits="userSpaceOnUse" x="0" y="0" width="35" height="25">
<rect y="0.000976562" width="35" height="24" rx="2" fill="white"/>
</mask>
<g mask="url(#mask0_636_26232)">
<rect y="0.000976562" width="35" height="24" fill="#E81B26"/>
<path fill-rule="evenodd" clip-rule="evenodd" d="M17.4997 16.001C19.8009 16.001 21.6663 14.2101 21.6663 12.001C21.6663 9.79184 19.8009 8.00098 17.4997 8.00098C15.1985 8.00098 13.333 9.79184 13.333 12.001C13.333 14.2101 15.1985 16.001 17.4997 16.001Z" fill="#FFE94F"/>
<path fill-rule="evenodd" clip-rule="evenodd" d="M12.7601 8.73653C13.0118 8.40045 13.3012 8.09222 13.6225 7.81759L2.4521 -4.23535L-0.89355 -0.668257L12.7601 8.73653ZM13.6225 16.1852C13.3012 15.9106 13.0118 15.6024 12.7601 15.2663L-0.893555 24.6711L2.4521 28.2382L13.6225 16.1852ZM11.7246 12.7935C11.6864 12.5347 11.6667 12.2703 11.6667 12.0014C11.6667 11.7326 11.6864 11.4681 11.7246 11.2094L3.03984e-05 9.60142V14.4014L11.7246 12.7935ZM16.3558 6.50911L15 0.00142002H20L18.6443 6.50911C18.2743 6.43847 17.8917 6.40142 17.5 6.40142C17.1084 6.40142 16.7258 6.43847 16.3558 6.50911ZM23.2755 11.2094C23.3136 11.4681 23.3334 11.7326 23.3334 12.0014C23.3334 12.2703 23.3136 12.5347 23.2755 12.7935L35 14.4014V9.60142L23.2755 11.2094ZM18.6443 17.4937C18.2743 17.5644 17.8917 17.6014 17.5 17.6014C17.1084 17.6014 16.7258 17.5644 16.3558 17.4937L15 24.0014H20L18.6443 17.4937ZM21.3775 16.1852C21.6988 15.9106 21.9883 15.6024 22.2399 15.2663L35.8936 24.6711L32.548 28.2382L21.3775 16.1852ZM21.3775 7.81759C21.6988 8.09222 21.9883 8.40044 22.2399 8.73653L35.8936 -0.668257L32.548 -4.23535L21.3775 7.81759Z" fill="#FFE94F"/>
</g>
</svg>
