<svg width="35" height="24" viewBox="0 0 35 24" fill="none" xmlns="http://www.w3.org/2000/svg">
<rect x="0.25" y="0.250977" width="34.5" height="23.5" rx="1.75" fill="white" stroke="#F5F5F5" stroke-width="0.5"/>
<mask id="mask0_636_25528" style="mask-type:alpha" maskUnits="userSpaceOnUse" x="0" y="0" width="35" height="25">
<rect x="0.25" y="0.250977" width="34.5" height="23.5" rx="1.75" fill="white" stroke="white" stroke-width="0.5"/>
</mask>
<g mask="url(#mask0_636_25528)">
<path fill-rule="evenodd" clip-rule="evenodd" d="M0 8.00098H35V0.000976562H0V8.00098Z" fill="#E41D33"/>
<path fill-rule="evenodd" clip-rule="evenodd" d="M0 24.001H35V16.001H0V24.001Z" fill="#262626"/>
<path d="M15.5374 11.3551L15.8193 11.8963L16.1223 11.3668L16.1223 11.3667L16.1223 11.3667L16.1223 11.3666L16.1225 11.3663L16.124 11.3637L16.1308 11.352C16.137 11.3415 16.1465 11.3256 16.1589 11.305C16.1838 11.2639 16.2206 11.2045 16.2672 11.1328C16.3608 10.989 16.492 10.7989 16.6441 10.6104C16.7977 10.4201 16.9645 10.2416 17.128 10.1135C17.2992 9.97933 17.4238 9.93441 17.4997 9.93441C17.603 9.93441 17.7402 9.98609 17.9086 10.1154C18.073 10.2417 18.2356 10.4178 18.3828 10.6063C18.5287 10.793 18.6515 10.9814 18.7382 11.1242C18.7814 11.1952 18.8151 11.2541 18.8378 11.2948C18.8492 11.3151 18.8577 11.3308 18.8633 11.3411L18.8693 11.3524L18.8706 11.3549L18.8707 11.3551L18.8708 11.3552L18.8708 11.3552L18.8708 11.3552L19.1663 11.9227L19.462 11.3551L20.2019 9.93441L20.9997 9.93441C21.1838 9.93441 21.333 10.0836 21.333 10.2677V13.1829C21.333 13.4463 21.0419 13.6057 20.82 13.4637L19.346 12.5203L19.2639 12.4677H19.1663H18.333H17.9997V12.8011V13.7344C17.9997 13.9185 17.8504 14.0677 17.6663 14.0677H17.333C17.1489 14.0677 16.9997 13.9185 16.9997 13.7344V12.8011V12.4677H16.6663H15.833H15.7355L15.6533 12.5203L14.1794 13.4637C13.9575 13.6057 13.6663 13.4463 13.6663 13.1829V10.2677C13.6663 10.0836 13.8156 9.93441 13.9997 9.93441L14.7975 9.93441L15.5374 11.3551Z" fill="#F4B32E" fill-opacity="0.25" stroke="#C6A846" stroke-width="0.666667"/>
</g>
</svg>
