<svg width="35" height="25" viewBox="0 0 35 25" fill="none" xmlns="http://www.w3.org/2000/svg">
<rect y="0.500977" width="35" height="24" rx="2" fill="white"/>
<mask id="mask0_636_26985" style="mask-type:alpha" maskUnits="userSpaceOnUse" x="0" y="0" width="35" height="25">
<rect y="0.500977" width="35" height="24" rx="2" fill="white"/>
</mask>
<g mask="url(#mask0_636_26985)">
<rect y="0.500977" width="35" height="24" fill="#19BFBF"/>
<path fill-rule="evenodd" clip-rule="evenodd" d="M12.5003 19.7439C12.5003 19.7155 12.5039 19.6873 12.5111 19.6599L13.3337 16.5012L14.1415 13.399C14.1581 13.3352 14.1555 13.2679 14.1338 13.2057L13.3792 11.0323C13.35 10.9484 13.2886 10.8796 13.2085 10.8411L11.8561 10.1919C11.7405 10.1365 11.667 10.0196 11.667 9.89143V6.98277C11.667 6.92916 11.6799 6.87634 11.7047 6.8288L12.5003 5.30117L13.2402 3.88053C13.2977 3.77031 13.4116 3.70117 13.5359 3.70117H18.0003C18.1844 3.70117 18.3337 3.85041 18.3337 4.03451V4.96784C18.3337 5.15193 18.4829 5.30117 18.667 5.30117H19.667C19.8511 5.30117 20.0003 5.45041 20.0003 5.63451V6.69143C20.0003 6.81962 20.0738 6.93646 20.1894 6.99193L23.1446 8.41041C23.2601 8.46588 23.3337 8.58272 23.3337 8.71092V10.0196C23.3337 10.0732 23.3207 10.126 23.296 10.1735L22.5414 11.6223C22.5145 11.674 22.4745 11.7177 22.4254 11.7491L20.0752 13.2532C20.0261 13.2846 19.9862 13.3284 19.9593 13.38L18.3747 16.4223C18.3478 16.474 18.3078 16.5177 18.2588 16.5491L15.9085 18.0532C15.8595 18.0846 15.8195 18.1284 15.7926 18.18L14.2604 21.1218C14.203 21.232 14.089 21.3012 13.9648 21.3012H12.8337C12.6496 21.3012 12.5003 21.1519 12.5003 20.9678V19.7439Z" fill="white"/>
</g>
</svg>
