<svg width="35" height="24" viewBox="0 0 35 24" fill="none" xmlns="http://www.w3.org/2000/svg">
<rect x="0.25" y="0.250977" width="34.5" height="23.5" rx="1.75" fill="white" stroke="#F5F5F5" stroke-width="0.5"/>
<mask id="mask0_636_25452" style="mask-type:alpha" maskUnits="userSpaceOnUse" x="0" y="0" width="35" height="25">
<rect x="0.25" y="0.250977" width="34.5" height="23.5" rx="1.75" fill="white" stroke="white" stroke-width="0.5"/>
</mask>
<g mask="url(#mask0_636_25452)">
<path fill-rule="evenodd" clip-rule="evenodd" d="M25.0003 4.00117C25.4523 3.78424 25.8984 4.30791 25.6125 4.71966L25.0763 5.49174C25.0262 5.56398 24.9622 5.62558 24.8881 5.67299L22.5554 7.1659C22.5188 7.18936 22.4845 7.21635 22.4531 7.24649L22.168 7.52025C21.8947 7.78262 21.8947 8.21972 22.168 8.4821L22.8327 9.12025C23.106 9.38262 23.106 9.81972 22.8327 10.0821L22.0004 10.8811C21.7999 11.0736 21.5009 11.1215 21.2503 11.0011L20.582 10.6804C20.2577 10.5247 19.8684 10.6544 19.7023 10.9734L19.2937 11.7578C19.2125 11.9137 19.0731 12.0312 18.9057 12.0848L16.7661 12.7695C16.7004 12.7905 16.6319 12.8012 16.5629 12.8012H15.4048C15.1562 12.8012 14.9283 12.9394 14.8135 13.1599L14.4651 13.8289C14.2989 14.1479 13.9096 14.2776 13.5853 14.122L10.9299 12.8474C10.8661 12.8168 10.8077 12.7762 10.7567 12.7273L9.37197 11.398C9.24102 11.2722 9.16699 11.0986 9.16699 10.917V10.1954C9.16699 9.86723 9.43305 9.60117 9.76125 9.60117C9.91466 9.60117 10.0621 9.54185 10.1728 9.4356L11.4735 8.18691C11.5977 8.06773 11.7631 8.00117 11.9352 8.00117H12.8594C13.1433 8.00117 13.3961 7.82137 13.4892 7.55318L13.9778 6.14594C14.0864 5.83315 14.4082 5.64748 14.7333 5.70991L18.1923 6.37403C18.2855 6.39192 18.3814 6.38972 18.4736 6.36758L21.598 5.61772C21.6439 5.60672 21.6884 5.59088 21.7309 5.57048L23.3337 4.80117L25.0003 4.00117Z" fill="#E7832C"/>
<path fill-rule="evenodd" clip-rule="evenodd" d="M17.5003 19.2011C17.9606 19.2011 18.3337 18.8429 18.3337 18.4011C18.3337 17.9592 17.9606 17.6011 17.5003 17.6011C17.0401 17.6011 16.667 17.9592 16.667 18.4011C16.667 18.8429 17.0401 19.2011 17.5003 19.2011Z" fill="#445128"/>
<path opacity="0.75" d="M20 17.6012C20 17.6012 22.5 16.8012 23.3333 15.2012" stroke="#445128" stroke-width="1.33333" stroke-linecap="round"/>
<path opacity="0.75" d="M15 17.6012C15 17.6012 12.5 16.8012 11.6667 15.2012" stroke="#445128" stroke-width="1.33333" stroke-linecap="round"/>
</g>
</svg>
