<svg width="35" height="24" viewBox="0 0 35 24" fill="none" xmlns="http://www.w3.org/2000/svg">
<rect x="0.25" y="0.250977" width="34.5" height="23.5" rx="1.75" fill="white" stroke="#F5F5F5" stroke-width="0.5"/>
<mask id="mask0_636_25464" style="mask-type:alpha" maskUnits="userSpaceOnUse" x="0" y="0" width="35" height="25">
<rect x="0.25" y="0.250977" width="34.5" height="23.5" rx="1.75" fill="white" stroke="white" stroke-width="0.5"/>
</mask>
<g mask="url(#mask0_636_25464)">
<path fill-rule="evenodd" clip-rule="evenodd" d="M2 0.000976562C0.895431 0.000976562 0 0.896407 0 2.00098V9.60098H10V0.000976562H2ZM15 0.000976562V9.60098H35V2.00098C35 0.896407 34.1046 0.000976562 33 0.000976562H15ZM35 14.401H15V24.001H33C34.1046 24.001 35 23.1055 35 22.001V14.401ZM10 24.001V14.401H0V22.001C0 23.1055 0.89543 24.001 2 24.001H10Z" fill="#EF264D"/>
</g>
</svg>
