<svg width="35" height="24" viewBox="0 0 35 24" fill="none" xmlns="http://www.w3.org/2000/svg">
<rect y="0.000976562" width="35" height="24" rx="2" fill="white"/>
<mask id="mask0_636_25534" style="mask-type:alpha" maskUnits="userSpaceOnUse" x="0" y="0" width="35" height="25">
<rect y="0.000976562" width="35" height="24" rx="2" fill="white"/>
</mask>
<g mask="url(#mask0_636_25534)">
<path fill-rule="evenodd" clip-rule="evenodd" d="M35 0.000976562V12.001H0V0.000976562H35Z" fill="#29C53F"/>
<path fill-rule="evenodd" clip-rule="evenodd" d="M35 12.001V24.801H0V12.001H35Z" fill="#579DED"/>
<path fill-rule="evenodd" clip-rule="evenodd" d="M0 24.001L35 12.001L0 0.000976562V24.001Z" fill="#F42D56"/>
<path d="M16 12.0009C16 14.7001 13.7127 16.9342 10.8333 16.9342C7.95395 16.9342 5.66667 14.7001 5.66667 12.0009C5.66667 9.30166 7.95395 7.06755 10.8333 7.06755C13.7127 7.06755 16 9.30166 16 12.0009Z" stroke="#FFC63C" stroke-width="1.33333"/>
<path fill-rule="evenodd" clip-rule="evenodd" d="M10.0003 11.2011C10.4606 11.2011 10.8337 10.8429 10.8337 10.4011C10.8337 9.95925 10.4606 9.60107 10.0003 9.60107C9.54009 9.60107 9.16699 9.95925 9.16699 10.4011C9.16699 10.8429 9.54009 11.2011 10.0003 11.2011Z" fill="#FFC63C"/>
<path fill-rule="evenodd" clip-rule="evenodd" d="M11.6663 12.0009C12.1266 12.0009 12.4997 11.6427 12.4997 11.2009C12.4997 10.7591 12.1266 10.4009 11.6663 10.4009C11.2061 10.4009 10.833 10.7591 10.833 11.2009C10.833 11.6427 11.2061 12.0009 11.6663 12.0009Z" fill="#FFC63C"/>
<path fill-rule="evenodd" clip-rule="evenodd" d="M10.8333 10.4008C11.2936 10.4008 11.6667 10.0426 11.6667 9.60078C11.6667 9.15895 11.2936 8.80078 10.8333 8.80078C10.3731 8.80078 10 9.15895 10 9.60078C10 10.0426 10.3731 10.4008 10.8333 10.4008Z" fill="#FFC63C"/>
<path fill-rule="evenodd" clip-rule="evenodd" d="M10.0003 12.8012C10.4606 12.8012 10.8337 12.443 10.8337 12.0012C10.8337 11.5593 10.4606 11.2012 10.0003 11.2012C9.54009 11.2012 9.16699 11.5593 9.16699 12.0012C9.16699 12.443 9.54009 12.8012 10.0003 12.8012Z" fill="#FFC63C"/>
<path fill-rule="evenodd" clip-rule="evenodd" d="M11.6663 13.601C12.1266 13.601 12.4997 13.2428 12.4997 12.801C12.4997 12.3591 12.1266 12.001 11.6663 12.001C11.2061 12.001 10.833 12.3591 10.833 12.801C10.833 13.2428 11.2061 13.601 11.6663 13.601Z" fill="#FFC63C"/>
<path fill-rule="evenodd" clip-rule="evenodd" d="M10.0003 14.4008C10.4606 14.4008 10.8337 14.0426 10.8337 13.6008C10.8337 13.159 10.4606 12.8008 10.0003 12.8008C9.54009 12.8008 9.16699 13.159 9.16699 13.6008C9.16699 14.0426 9.54009 14.4008 10.0003 14.4008Z" fill="#FFC63C"/>
<path fill-rule="evenodd" clip-rule="evenodd" d="M11.6663 15.2011C12.1266 15.2011 12.4997 14.8429 12.4997 14.4011C12.4997 13.9592 12.1266 13.6011 11.6663 13.6011C11.2061 13.6011 10.833 13.9592 10.833 14.4011C10.833 14.8429 11.2061 15.2011 11.6663 15.2011Z" fill="#FFC63C"/>
</g>
</svg>
