<svg width="35" height="25" viewBox="0 0 35 25" fill="none" xmlns="http://www.w3.org/2000/svg">
<rect y="0.500977" width="35" height="24" rx="2" fill="white"/>
<mask id="mask0_636_26952" style="mask-type:alpha" maskUnits="userSpaceOnUse" x="0" y="0" width="35" height="25">
<rect y="0.500977" width="35" height="24" rx="2" fill="white"/>
</mask>
<g mask="url(#mask0_636_26952)">
<rect y="0.500977" width="35" height="24" fill="#043CAE"/>
<path fill-rule="evenodd" clip-rule="evenodd" d="M16.3216 5.63237L17.5001 5.301L18.6786 5.63237L18.3335 4.501L18.6786 3.36963L17.5001 3.701L16.3216 3.36963L16.6668 4.501L16.3216 5.63237ZM16.3216 21.6324L17.5001 21.301L18.6786 21.6324L18.3335 20.501L18.6786 19.3696L17.5001 19.701L16.3216 19.3696L16.6668 20.501L16.3216 21.6324ZM25.8335 13.301L24.6549 13.6324L25.0001 12.501L24.6549 11.3696L25.8335 11.701L27.012 11.3696L26.6668 12.501L27.012 13.6324L25.8335 13.301ZM7.98828 13.6324L9.16679 13.301L10.3453 13.6324L10.0001 12.501L10.3453 11.3696L9.16679 11.701L7.98828 11.3696L8.33346 12.501L7.98828 13.6324ZM24.717 9.301L23.5385 9.63237L23.8837 8.501L23.5385 7.36963L24.717 7.701L25.8955 7.36963L25.5503 8.501L25.8955 9.63237L24.717 9.301ZM9.10474 17.6324L10.2832 17.301L11.4618 17.6324L11.1166 16.501L11.4618 15.3696L10.2832 15.701L9.10474 15.3696L9.44991 16.501L9.10474 17.6324ZM21.6668 6.3728L20.4883 6.70417L20.8335 5.5728L20.4883 4.44143L21.6668 4.7728L22.8453 4.44143L22.5001 5.5728L22.8453 6.70417L21.6668 6.3728ZM12.1549 20.5606L13.3335 20.2292L14.512 20.5606L14.1668 19.4292L14.512 18.2978L13.3335 18.6292L12.1549 18.2978L12.5001 19.4292L12.1549 20.5606ZM24.717 17.301L23.5385 17.6324L23.8837 16.501L23.5385 15.3696L24.717 15.701L25.8955 15.3696L25.5503 16.501L25.8955 17.6324L24.717 17.301ZM9.10474 9.63237L10.2832 9.301L11.4618 9.63237L11.1166 8.501L11.4618 7.36963L10.2832 7.701L9.10474 7.36963L9.44991 8.501L9.10474 9.63237ZM21.6668 20.2292L20.4883 20.5606L20.8335 19.4292L20.4883 18.2978L21.6668 18.6292L22.8453 18.2978L22.5001 19.4292L22.8453 20.5606L21.6668 20.2292ZM12.1549 6.70417L13.3335 6.3728L14.512 6.70417L14.1668 5.5728L14.512 4.44143L13.3335 4.7728L12.1549 4.44143L12.5001 5.5728L12.1549 6.70417Z" fill="#FFD429"/>
</g>
</svg>
