<svg width="35" height="24" viewBox="0 0 35 24" fill="none" xmlns="http://www.w3.org/2000/svg">
<rect y="0.000976562" width="35" height="24" rx="2" fill="white"/>
<mask id="mask0_636_27090" style="mask-type:alpha" maskUnits="userSpaceOnUse" x="0" y="0" width="35" height="25">
<rect y="0.000976562" width="35" height="24" rx="2" fill="white"/>
</mask>
<g mask="url(#mask0_636_27090)">
<rect y="0.000976562" width="35" height="24" fill="#07319C"/>
<path fill-rule="evenodd" clip-rule="evenodd" d="M21.667 12.0009C21.667 10.5828 21.667 8.88537 21.667 7.73384C21.667 6.99746 22.2639 6.40088 23.0003 6.40088H28.667C29.4034 6.40088 30.0003 6.99746 30.0003 7.73384C30.0003 8.88537 30.0003 10.5828 30.0003 12.0009C30.0003 16.0009 25.8337 17.6009 25.8337 17.6009C25.8337 17.6009 21.667 16.0009 21.667 12.0009Z" fill="#0072C4"/>
<mask id="mask1_636_27090" style="mask-type:alpha" maskUnits="userSpaceOnUse" x="21" y="6" width="9" height="12">
<path fill-rule="evenodd" clip-rule="evenodd" d="M21.667 12.0009C21.667 10.5828 21.667 8.88537 21.667 7.73384C21.667 6.99746 22.2639 6.40088 23.0003 6.40088H28.667C29.4034 6.40088 30.0003 6.99746 30.0003 7.73384C30.0003 8.88537 30.0003 10.5828 30.0003 12.0009C30.0003 16.0009 25.8337 17.6009 25.8337 17.6009C25.8337 17.6009 21.667 16.0009 21.667 12.0009Z" fill="white"/>
</mask>
<g mask="url(#mask1_636_27090)">
<path fill-rule="evenodd" clip-rule="evenodd" d="M23.5865 11.1219C22.7325 11.95 24.4062 11.845 24.4062 11.845L25.5982 11.4786C25.5982 11.4786 26.1341 11.5408 26.4958 11.6455C26.7355 11.7149 27.4023 12.0007 27.4023 12.0007C27.4023 12.0007 28.8107 11.7308 28.3155 11.1219C27.8203 10.5131 24.4405 10.2938 23.5865 11.1219Z" fill="#005121"/>
<path fill-rule="evenodd" clip-rule="evenodd" d="M27.1378 10.2617C27.172 10.2543 27.252 10.256 27.2818 10.2909C27.3287 10.3454 27.4246 10.3273 27.4715 10.3798C27.5181 10.4326 27.5724 10.4812 27.5724 10.5561C27.5724 10.6311 27.5633 10.817 27.565 10.8579C27.5674 10.9208 27.5787 10.9305 27.6461 10.9289C27.7274 10.9269 27.8396 10.9208 27.8431 10.7811C27.8456 10.6837 27.7446 10.6229 27.7152 10.2765C27.7594 10.2401 27.7989 10.2077 27.7841 10.1592C27.7693 10.1106 27.8678 10.0862 27.858 10.0132C27.848 9.94037 27.9563 9.89573 27.912 9.81481C27.8678 9.73375 27.9661 9.72978 27.9268 9.66487C27.8874 9.60011 27.9907 9.54327 27.9465 9.48674C27.9022 9.4299 28.0056 9.37733 27.9515 9.30845C27.8972 9.23957 27.9809 9.19904 27.9268 9.14632C27.9613 9.09375 27.9317 8.9438 27.8233 8.85877C27.7152 8.77359 27.5626 8.7291 27.4739 8.69664C27.3089 8.6363 27.0013 8.66418 26.7846 8.68857C26.568 8.71279 26.1643 8.73717 26.0411 8.72102C25.9181 8.70487 25.6278 8.68857 25.3987 8.72498C25.3204 8.73748 25.2313 8.71493 25.1846 8.67241C25.1472 8.63843 25.1256 8.64209 25.0911 8.64407C25.0567 8.64605 25.0368 8.63584 25.0196 8.59531C24.9893 8.52399 24.9213 8.57306 24.8893 8.48392C24.8678 8.42434 24.7561 8.47584 24.7218 8.42525C24.6872 8.37466 24.6456 8.36857 24.5518 8.37466C24.547 8.34418 24.4954 8.32194 24.4485 8.33001C24.4559 8.27942 24.4043 8.23889 24.3181 8.24087C24.328 8.17809 24.2074 8.12948 24.1457 8.16803C24.1065 8.1214 24.0276 8.13146 24.008 8.16803C23.9661 8.1214 23.8331 8.13557 23.8011 8.18617C23.7446 8.15584 23.6346 8.23036 23.6437 8.3483C23.6461 8.38076 23.6483 8.41443 23.5918 8.42525C23.4861 8.44552 23.4246 8.55889 23.3333 8.57504C23.2424 8.59135 23.1513 8.61969 23.1341 8.6683C23.1168 8.71691 23.1489 8.76765 23.1144 8.79188C23.08 8.81626 23.1365 8.83851 23.1537 8.85055C23.1709 8.86274 23.198 8.883 23.203 8.91135C23.21 8.95157 23.2791 8.96361 23.3507 8.91942C23.3802 8.90129 23.4318 8.95599 23.5156 8.91744C23.5993 8.87904 23.7181 8.89931 23.6978 8.96209C23.688 8.99241 23.71 9.02487 23.7372 9.05519C23.7643 9.08552 23.8048 9.1771 23.7815 9.22937C23.747 9.30632 23.8159 9.34898 23.7987 9.41771C23.7815 9.48674 23.8085 9.54952 23.7717 9.64262C23.7346 9.73573 23.7341 9.8523 23.7889 9.88567C23.8652 9.9323 23.8191 10.0246 23.8848 10.064C23.9389 10.0963 23.907 10.1753 24.008 10.1996C24.1089 10.224 24.0498 10.2887 24.1556 10.3029C24.2615 10.3171 24.2983 10.3901 24.4091 10.3737C24.4907 10.3619 24.5337 10.3809 24.5813 10.3989C24.5911 10.4638 24.5693 10.702 24.5643 10.7628C24.5598 10.8166 24.5298 10.9024 24.5298 10.9552C24.5298 10.9875 24.5987 10.9956 24.6776 10.9956C24.7561 10.9956 24.7907 10.9653 24.7709 10.8803C24.7513 10.7951 24.7465 10.5877 24.7515 10.458C24.8198 10.4896 24.8848 10.5337 24.8818 10.5825C24.8768 10.6614 24.8781 10.8032 24.8644 10.8761C24.8548 10.9289 24.8694 11.0119 24.8744 11.0666C24.8794 11.0867 25.0122 11.0848 25.0665 11.0666C25.1206 11.0483 25.1206 10.9997 25.1156 10.7789C25.1131 10.6697 24.9924 10.558 25.1452 10.5034C25.2191 10.4771 25.3224 10.4163 25.3618 10.3597C25.4011 10.3029 25.4874 10.3251 25.5489 10.3536C25.6104 10.382 25.7089 10.4253 25.7706 10.4062C25.8493 10.382 25.933 10.4426 26.0018 10.4062C26.0707 10.3698 26.1594 10.4326 26.2159 10.3881C26.2726 10.3434 26.3711 10.3859 26.413 10.3434C26.4548 10.3009 26.627 10.3678 26.6887 10.3111C26.7502 10.2543 26.8339 10.3273 26.8906 10.2848C26.9054 10.2735 26.923 10.271 26.9422 10.2724C26.94 10.3683 26.9213 10.5208 26.9176 10.5683C26.9131 10.6223 26.8831 10.7079 26.8831 10.7606C26.8831 10.7931 26.952 10.8012 27.0307 10.8012C27.1096 10.8012 27.1441 10.7709 27.1244 10.6858C27.1046 10.6008 27.133 10.3916 27.1378 10.2617Z" fill="#A3A3A3"/>
<path fill-rule="evenodd" clip-rule="evenodd" d="M23.1541 8.78463C23.187 8.76162 23.1565 8.71377 23.1729 8.66775C23.1894 8.62188 23.2766 8.59507 23.3639 8.57983C23.4511 8.56444 23.51 8.45731 23.6115 8.43811C23.6655 8.4279 23.6633 8.39606 23.6609 8.36543C23.6524 8.25404 23.7576 8.18364 23.8118 8.21244C23.8424 8.16444 23.9698 8.15103 24.0098 8.19507C24.0287 8.16063 24.1041 8.15103 24.1418 8.19507C24.2007 8.1588 24.3163 8.20467 24.3068 8.26394C24.3894 8.26211 24.4389 8.30036 24.4318 8.34821C24.4766 8.34059 24.5261 8.36162 24.5309 8.39027C24.5233 8.43735 24.6354 8.44939 24.5835 8.47987C24.5381 8.50653 24.495 8.49602 24.4433 8.4596C24.3916 8.42303 24.2192 8.45548 24.1946 8.47377C24.17 8.49206 24.1429 8.50013 24.1231 8.48596C24.1035 8.47179 24.0568 8.44939 24.0346 8.45152C24.0124 8.4535 23.9657 8.4535 23.9385 8.41099C23.9115 8.36847 23.8426 8.36238 23.8304 8.37853C23.8181 8.39468 23.8574 8.4535 23.8968 8.47575C23.9361 8.49815 23.9165 8.54067 23.9633 8.56489C23.9939 8.58089 23.9657 8.63575 23.9485 8.66821C23.9313 8.70067 23.8648 8.69046 23.8598 8.66623C23.855 8.642 23.8376 8.62569 23.7983 8.66211C23.7589 8.69868 23.6754 8.68848 23.6555 8.67842C23.6359 8.66821 23.5816 8.65008 23.5448 8.66013C23.5078 8.67034 23.562 8.68649 23.567 8.70067C23.5718 8.71484 23.5078 8.72093 23.4709 8.72093C23.4341 8.72093 23.4216 8.74105 23.4439 8.74516C23.4661 8.74928 23.552 8.75339 23.5866 8.73708C23.6211 8.72093 23.7268 8.73709 23.7368 8.76756C23.7466 8.79789 23.6754 8.81008 23.6333 8.80596C23.5715 8.80002 23.4807 8.83232 23.4365 8.84238C23.3922 8.85259 23.2741 8.82623 23.2272 8.83842C23.1805 8.85046 23.1344 8.80276 23.1541 8.78463Z" fill="#A3A3A3"/>
<path fill-rule="evenodd" clip-rule="evenodd" d="M23.9458 9.0329C23.9016 9.04905 23.9164 9.09766 23.9558 9.11793C23.9953 9.13819 24.0838 9.14627 24.1405 9.13621C24.197 9.126 24.2094 9.14231 24.1725 9.16257C24.1355 9.18269 24.229 9.1868 24.2216 9.21926C24.2144 9.25156 24.256 9.24547 24.2955 9.24349C24.3349 9.24151 24.3866 9.21713 24.4308 9.19488C24.4751 9.17263 24.5071 9.18878 24.4653 9.22734C24.4236 9.26574 24.2833 9.3145 24.1725 9.3084C24.0616 9.30231 24.0025 9.32654 24.0271 9.36097C24.0518 9.39541 24.1699 9.40151 24.2314 9.38322C24.2931 9.36509 24.2833 9.39755 24.2364 9.41964C24.1896 9.44204 24.1231 9.44402 24.0666 9.44204C24.0099 9.44006 23.9607 9.48669 24.0346 9.5129C24.1084 9.53926 24.207 9.52311 24.2438 9.54535C24.2808 9.5676 24.394 9.53316 24.3964 9.57172C24.3988 9.61012 24.3644 9.62429 24.2979 9.62033C24.2314 9.61621 24.251 9.64501 24.3005 9.66071C24.3447 9.67503 24.4236 9.67503 24.4653 9.67092C24.5071 9.66695 24.4949 9.70734 24.4531 9.72151C24.4112 9.73568 24.2758 9.75595 24.2094 9.75396C24.1429 9.75198 24.1747 9.79252 24.261 9.79252C24.5244 9.79252 24.6131 9.6729 24.6796 9.58985C24.7121 9.54916 24.7755 9.52707 24.7903 9.55145C24.8051 9.57568 24.8075 9.58177 24.7781 9.60204C24.7484 9.62231 24.7557 9.6345 24.8099 9.63648C24.864 9.63846 24.9429 9.62429 24.9897 9.61225C25.0364 9.60006 25.1742 9.67671 25.061 9.67899C24.8616 9.68311 24.6155 9.75198 24.5344 9.78033C24.4531 9.80867 24.3175 9.862 24.234 9.85926C24.1725 9.85728 24.1477 9.87953 24.1725 9.90589C24.197 9.93225 24.2758 9.93225 24.3201 9.92006C24.3644 9.90787 24.3742 9.92006 24.3447 9.94429C24.3153 9.96867 24.2414 9.97873 24.1896 9.98695C24.1381 9.99503 24.1125 10.0267 24.1527 10.0395C24.229 10.0639 24.1601 10.0862 24.2144 10.0983C24.2684 10.1105 24.2094 10.1489 24.2684 10.1611C24.3275 10.1733 24.362 10.1672 24.4062 10.1389C24.4507 10.1105 24.4751 10.0942 24.522 10.0983C24.5688 10.1025 24.6008 10.082 24.6279 10.0517C24.6549 10.0214 24.746 9.96669 24.7755 9.99305C24.8051 10.0194 24.8666 9.97065 24.879 9.99701C24.8912 10.0234 24.9429 10.0072 24.9553 10.0436C24.9688 10.0842 25.0266 10.0922 25.066 10.0781C25.1053 10.0639 25.1373 10.0295 25.1373 9.97873C25.1373 9.92814 25.1521 9.90787 25.167 9.96257C25.1816 10.0173 25.2358 10.0334 25.2629 10.0072C25.2899 9.98086 25.2997 9.88974 25.2801 9.84722C25.2605 9.80455 25.2579 9.74985 25.2777 9.73979C25.2973 9.72974 25.3442 9.82284 25.3638 9.86337C25.3836 9.90391 25.4351 9.89172 25.4377 9.85118C25.4401 9.81065 25.487 9.79038 25.5214 9.82086C25.5558 9.85118 25.5362 9.95252 25.546 10.0011C25.5558 10.0497 25.6518 9.98894 25.6618 10.0051C25.6716 10.0214 25.7084 10.0254 25.7233 9.99092C25.7381 9.95648 25.7725 9.92615 25.7921 9.94642C25.812 9.96669 25.8414 10.0011 25.8536 10.0395C25.866 10.0781 25.9103 10.0983 25.9373 10.0578C25.9644 10.0173 25.9842 9.93835 25.9744 9.88349C25.9644 9.82894 25.9818 9.7945 26.0062 9.82284C26.0308 9.85118 26.0284 9.92814 26.0308 9.99092C26.0334 10.0537 26.1146 10.0478 26.1146 9.9545C26.1146 9.91198 26.1392 9.90391 26.1466 9.92814C26.154 9.95252 26.154 9.99305 26.1614 10.0112C26.1796 10.0561 26.2427 10.0314 26.2499 10.0011C26.2573 9.97065 26.2451 9.86124 26.2303 9.81278C26.2155 9.76402 26.2451 9.72974 26.2697 9.75595C26.2944 9.78231 26.2992 9.85118 26.3042 9.92814C26.309 10.0051 26.3607 10.0092 26.3879 9.98695C26.4149 9.96455 26.4149 9.89979 26.4027 9.85316C26.3903 9.80669 26.4297 9.80669 26.447 9.83503C26.4642 9.86337 26.4938 9.84509 26.4888 9.82284C26.484 9.80059 26.5084 9.78033 26.5331 9.81065C26.5577 9.84113 26.5503 9.91 26.5381 9.96455C26.5257 10.0194 26.5996 10.0132 26.634 9.96669C26.6684 9.92006 26.6512 9.79252 26.6218 9.75198C26.5921 9.71145 26.5947 9.65873 26.6118 9.61225C26.6292 9.56562 26.6612 9.56349 26.6636 9.58391C26.666 9.60402 26.6808 9.63846 26.7079 9.66482C26.7349 9.69118 26.7497 9.6953 26.7546 9.65461C26.7596 9.61423 26.7842 9.62429 26.794 9.65461C26.804 9.68509 26.821 9.70932 26.8457 9.68311C26.8703 9.65675 26.9023 9.67701 26.8827 9.71755C26.8629 9.75808 26.8629 9.7945 26.8777 9.83503C26.8925 9.87556 26.9442 9.86947 26.9492 9.82284C26.9594 9.72593 26.9738 9.79038 26.986 9.8329C26.9983 9.87556 27.0353 9.87343 27.0427 9.8492C27.0501 9.82482 27.0575 9.81888 27.0575 9.84509C27.0575 9.87145 27.0697 9.8937 27.1018 9.8937C27.1338 9.8937 27.1264 9.84113 27.141 9.80867C27.1558 9.77621 27.1829 9.82086 27.2199 9.89568C27.2568 9.97065 27.2838 9.89979 27.3701 10.07C27.4053 10.1393 27.4562 10.0801 27.4538 10.0558C27.4512 10.0314 27.4586 10.0153 27.5005 10.0153C27.5423 10.0153 27.5768 10.0072 27.5621 9.98086C27.5473 9.9545 27.5571 9.90589 27.5547 9.85118C27.5523 9.79648 27.5596 9.76615 27.567 9.79648C27.5744 9.8268 27.599 9.86947 27.6383 9.89172C27.6777 9.91396 27.7047 9.85316 27.6727 9.81476C27.6408 9.77621 27.5966 9.68509 27.599 9.60814C27.6008 9.55145 27.6284 9.56958 27.6284 9.61012C27.6284 9.65065 27.6531 9.72364 27.6901 9.73979C27.727 9.75595 27.7418 9.68097 27.7246 9.64257C27.7073 9.60402 27.6975 9.55145 27.7344 9.54124C27.7712 9.53118 27.7246 9.48867 27.6925 9.45819C27.6605 9.42787 27.6408 9.39755 27.6975 9.39953C27.754 9.40151 27.7073 9.36707 27.6801 9.34482C27.6531 9.32257 27.6064 9.27793 27.6801 9.28402C27.754 9.29012 27.7296 9.2537 27.6999 9.23343C27.6703 9.21316 27.6531 9.17461 27.7047 9.17675C27.7566 9.17873 27.7884 9.15435 27.7836 9.13621C27.7647 9.06596 27.6408 8.98429 27.5646 8.92151C27.4883 8.85873 27.3651 8.79595 27.2986 8.78574C27.2321 8.77553 27.2297 8.81621 27.247 8.84044C27.2642 8.86467 27.2986 8.88097 27.3036 8.85659C27.3084 8.83236 27.3601 8.85873 27.3847 8.89103C27.4094 8.92349 27.4931 8.96402 27.5449 9.00044C27.5966 9.03686 27.4758 9.01873 27.4168 8.97012C27.3831 8.94223 27.3871 8.97606 27.4316 9.01461C27.4758 9.05316 27.4192 9.06932 27.3725 9.03686C27.3257 9.00456 27.2051 8.91343 27.1288 8.85461C27.0525 8.79595 27.0401 8.81012 27.0377 8.84852C27.0353 8.88707 27.0623 8.91343 27.1116 8.94574C27.1608 8.97819 27.2223 9.02878 27.2692 9.06322C27.3158 9.09766 27.2766 9.11991 27.247 9.09553C27.2173 9.0713 27.1166 9.00456 27.0575 8.95793C26.9983 8.9113 26.9442 8.88905 26.9073 8.89515C26.8703 8.90124 26.8729 8.93568 26.9171 8.9721C26.9614 9.00852 27.0157 9.07739 27.0157 9.11793C27.0157 9.15846 26.9762 9.1868 26.9564 9.11396C26.9368 9.04097 26.8433 8.95595 26.7744 8.89103C26.7055 8.82627 26.6364 8.81408 26.5847 8.81819C26.5331 8.82216 26.5355 8.87076 26.5355 8.90932C26.5355 8.94772 26.501 8.92547 26.4986 8.89713C26.4962 8.86878 26.4568 8.84456 26.4346 8.84654C26.4125 8.84852 26.4199 8.90734 26.4125 8.9337C26.4051 8.95991 26.3707 8.98429 26.3707 8.92349C26.3707 8.86269 26.2894 8.83236 26.2549 8.83023C26.2205 8.82825 26.1884 8.84044 26.2057 8.8668C26.2229 8.89301 26.2155 8.96402 26.2033 9.00456C26.1908 9.04494 26.154 8.97408 26.1466 8.89911C26.1392 8.82429 26.0236 8.77156 25.9423 8.79381C25.861 8.81621 25.9227 8.86467 25.9079 8.9113C25.8931 8.95793 25.8708 8.91541 25.8634 8.8668C25.8562 8.81819 25.8168 8.78772 25.7627 8.79991C25.7084 8.8121 25.6716 8.83633 25.674 8.86878C25.6764 8.90124 25.6764 8.92958 25.6642 8.98216C25.6518 9.03488 25.6297 9.00852 25.6321 8.97408C25.6347 8.93964 25.6223 8.88296 25.6099 8.8505C25.5977 8.81819 25.5779 8.84852 25.5829 8.88905C25.5879 8.92958 25.5755 9.02269 25.5558 9.07953C25.5362 9.13621 25.5066 9.13819 25.5214 9.06124C25.5362 8.98429 25.4992 8.87076 25.4623 8.81819C25.4358 8.78056 25.3762 8.7676 25.3762 8.82017C25.3762 8.8729 25.3934 8.9113 25.4377 8.94985C25.482 8.98825 25.4475 9.08349 25.4033 9.13423C25.3588 9.18482 25.3614 9.11183 25.3762 9.05713C25.3908 9.00242 25.3097 8.98429 25.2777 8.97408C25.2457 8.96402 25.3121 8.90932 25.327 8.83633C25.3342 8.80036 25.3244 8.77766 25.2949 8.77553C25.2653 8.77355 25.1866 8.84242 25.1521 8.89301C25.162 8.84044 25.1521 8.79381 25.1225 8.79381C25.0931 8.79381 25.061 8.84456 25.039 8.88097C25.0168 8.91739 24.9946 8.89713 25.0168 8.85873C25.039 8.82017 25.0733 8.71686 25.029 8.69461C24.9847 8.67237 24.9453 8.76349 24.8986 8.74718C24.8721 8.73804 24.9084 8.68044 24.9233 8.65408C24.9379 8.62772 24.9084 8.60745 24.842 8.65606C24.7755 8.70482 24.746 8.78376 24.7286 8.83236C24.7116 8.88097 24.5934 8.95991 24.5294 9.00242C24.4653 9.04494 24.4383 9.02878 24.4703 9.0105C24.5023 8.99236 24.5662 8.93568 24.5983 8.91343C24.6303 8.89103 24.6155 8.87793 24.554 8.91633C24.4925 8.95488 24.3805 9.02482 24.2658 9.04905C24.1986 9.06337 24.1896 9.05118 24.256 9.0329C24.3225 9.01461 24.4751 8.92745 24.5121 8.88707C24.5353 8.86162 24.4751 8.88296 24.4457 8.88905C24.4162 8.89515 24.3916 8.88707 24.4507 8.8668C24.5096 8.84654 24.6968 8.68654 24.7362 8.62772C24.7755 8.56905 24.741 8.54665 24.7164 8.54878C24.6918 8.55077 24.6573 8.56494 24.6647 8.54071C24.6721 8.51633 24.6549 8.48387 24.6229 8.49408C24.5908 8.50414 24.5934 8.56296 24.581 8.59526C24.5688 8.62772 24.4997 8.67038 24.4555 8.67038C24.4112 8.67038 24.3497 8.67846 24.3029 8.70878C24.256 8.73911 24.234 8.71076 24.256 8.68654C24.2783 8.66216 24.3275 8.65606 24.3768 8.65408C24.426 8.6521 24.4801 8.646 24.522 8.60745C24.5638 8.56905 24.5662 8.53857 24.5344 8.53659C24.5023 8.53461 24.4481 8.50017 24.4308 8.486C24.3434 8.41393 24.1833 8.51435 24.1207 8.57301C24.0862 8.60547 23.9681 8.69873 23.9312 8.72296C23.8942 8.74718 23.909 8.78162 23.9705 8.73515C24.0321 8.68852 24.0518 8.72097 23.9953 8.75541C23.9384 8.78985 23.8968 8.84044 23.9164 8.85873C23.936 8.87686 24.0123 8.85461 24.0542 8.83236C24.096 8.81012 24.1158 8.86467 24.0123 8.88296C23.9429 8.8953 23.9186 8.91876 23.9731 8.92151C24.0149 8.92349 24.0788 8.90734 24.1381 8.87899C24.197 8.8505 24.2438 8.8668 24.1946 8.89515C24.1453 8.92349 24.037 8.96204 23.9829 8.96204C23.9375 8.96204 23.9903 9.01675 23.9458 9.0329Z" fill="white"/>
<path fill-rule="evenodd" clip-rule="evenodd" d="M24.2315 8.58021C24.2907 8.52101 24.3424 8.49509 24.3965 8.53765C24.4456 8.57621 24.4507 8.59301 24.3891 8.58021C24.3276 8.56741 24.2857 8.58021 24.2489 8.61845C24.2118 8.65685 24.17 8.64181 24.2315 8.58021Z" fill="#A3A3A3"/>
<path fill-rule="evenodd" clip-rule="evenodd" d="M23.2571 8.73047C23.3014 8.68791 23.3727 8.68791 23.4047 8.64119C23.4367 8.59431 23.4712 8.61143 23.4317 8.65607C23.3925 8.70071 23.3162 8.70935 23.2841 8.74119C23.2521 8.77303 23.2349 8.75175 23.2571 8.73047Z" fill="#A3A3A3"/>
<path fill-rule="evenodd" clip-rule="evenodd" d="M23.5333 8.56775C23.5599 8.56423 23.612 8.53367 23.644 8.49751C23.676 8.46135 23.7449 8.44855 23.7866 8.49111C23.8285 8.53367 23.8507 8.54855 23.8729 8.55719C23.8949 8.56567 23.8949 8.59335 23.8605 8.60167C23.826 8.61031 23.7794 8.61671 23.7547 8.60599C23.7301 8.59543 23.6931 8.58695 23.6636 8.59335C23.634 8.59959 23.6218 8.58695 23.6464 8.57623C23.671 8.56567 23.7005 8.53367 23.7153 8.52087C23.7301 8.50823 23.7694 8.51879 23.7473 8.53159C23.7251 8.54439 23.7349 8.57191 23.7572 8.58263C23.7794 8.59335 23.8236 8.59335 23.8433 8.57415C23.8138 8.54647 23.7646 8.51031 23.7449 8.49975C23.7251 8.48903 23.7079 8.48471 23.6833 8.51031C23.6586 8.53591 23.5996 8.59751 23.5431 8.59543C23.4864 8.59335 23.5012 8.57191 23.5333 8.56775Z" fill="#A3A3A3"/>
<path fill-rule="evenodd" clip-rule="evenodd" d="M25.0883 8.94957C25.0665 8.97885 25.0465 9.01661 25.0441 9.04637C25.0417 9.07613 25.07 9.09645 25.0735 9.05917C25.0772 9.02189 25.0809 8.99965 25.1117 8.97197C25.1426 8.94429 25.113 8.91661 25.0883 8.94957Z" fill="#A3A3A3"/>
<path fill-rule="evenodd" clip-rule="evenodd" d="M24.7873 8.94896C24.8128 8.93904 24.8562 8.916 24.8771 8.89472C24.898 8.8736 24.9115 8.88736 24.8906 8.91072C24.8697 8.93408 24.8217 8.96176 24.7995 8.96816C24.7775 8.97456 24.7602 8.95968 24.7873 8.94896Z" fill="#A3A3A3"/>
<path fill-rule="evenodd" clip-rule="evenodd" d="M24.8254 9.06743C24.7901 9.10827 24.6506 9.20534 24.6088 9.22347C24.5669 9.24176 24.5817 9.26812 24.6286 9.25395C24.5941 9.28016 24.5176 9.32283 24.4686 9.33486C24.4193 9.34705 24.4093 9.38347 24.4832 9.36123C24.5571 9.33898 24.6604 9.28016 24.6875 9.25395C24.7147 9.22759 24.6802 9.2154 24.7221 9.18705C24.7639 9.15871 24.8413 9.1069 24.8525 9.08572C24.8697 9.05342 24.8501 9.03909 24.8254 9.06743Z" fill="#A3A3A3"/>
<path fill-rule="evenodd" clip-rule="evenodd" d="M24.6729 9.3974C24.7257 9.37271 24.8242 9.2854 24.8525 9.23526C24.8698 9.20494 24.9042 9.2089 24.8772 9.25553C24.8501 9.30216 24.7492 9.38521 24.7148 9.40745C24.6803 9.4297 24.6162 9.42361 24.6729 9.3974Z" fill="#A3A3A3"/>
<path fill-rule="evenodd" clip-rule="evenodd" d="M25.7928 8.91737C25.7784 8.94586 25.7756 9.01261 25.7806 9.04491C25.7854 9.07737 25.8151 9.10175 25.8101 9.05314C25.8052 9.00453 25.8052 8.95592 25.8223 8.94175C25.8397 8.92743 25.8175 8.86876 25.7928 8.91737Z" fill="#A3A3A3"/>
<path fill-rule="evenodd" clip-rule="evenodd" d="M26.0932 9.03673C26.1182 9.05883 26.1301 9.16245 26.1277 9.20085C26.1253 9.2394 26.1671 9.2394 26.1645 9.18469C26.1621 9.12999 26.1571 9.06111 26.1351 9.02469C26.1128 8.98812 26.0588 9.00641 26.0932 9.03673Z" fill="#A3A3A3"/>
<path fill-rule="evenodd" clip-rule="evenodd" d="M26.356 9.10367C26.3712 9.13018 26.3905 9.18062 26.3905 9.21704C26.3905 9.25361 26.4225 9.23731 26.4249 9.19479C26.4273 9.15228 26.4201 9.11586 26.4029 9.08752C26.3857 9.05917 26.3338 9.06512 26.356 9.10367Z" fill="#A3A3A3"/>
<path fill-rule="evenodd" clip-rule="evenodd" d="M26.5194 9.07203C26.5058 9.03939 26.4849 9.01027 26.4699 9.01459C26.4553 9.01891 26.4651 9.04867 26.4849 9.08051C26.5044 9.11251 26.534 9.10819 26.5194 9.07203Z" fill="#A3A3A3"/>
<path fill-rule="evenodd" clip-rule="evenodd" d="M25.4894 9.29839C25.4819 9.38327 25.4351 9.45839 25.3786 9.48475C25.322 9.51111 25.3318 9.55363 25.4007 9.51111C25.4697 9.4686 25.5214 9.39561 25.5362 9.33085C25.5508 9.26593 25.4944 9.2417 25.4894 9.29839Z" fill="#A3A3A3"/>
<path fill-rule="evenodd" clip-rule="evenodd" d="M25.367 9.25973C25.3375 9.28807 25.3203 9.34887 25.3203 9.39535C25.3203 9.44198 25.3399 9.40754 25.3449 9.38118C25.3499 9.35481 25.3596 9.3184 25.3844 9.30621C25.4088 9.29401 25.3966 9.23139 25.367 9.25973Z" fill="#A3A3A3"/>
<path fill-rule="evenodd" clip-rule="evenodd" d="M27.4983 9.31865C27.5243 9.35964 27.5624 9.42608 27.5746 9.46448C27.587 9.50303 27.5574 9.51309 27.5476 9.47865C27.5376 9.44421 27.4909 9.36726 27.4737 9.3409C27.4565 9.31469 27.4687 9.27202 27.4983 9.31865Z" fill="#A3A3A3"/>
<path d="M20 11.2011C20 11.2011 22.8349 12.0096 23.3134 12.0096C23.4479 12.0096 25.2841 11.6054 25.8346 11.6054C26.0405 11.6054 27.9413 11.8823 28.4375 12.0096C28.9338 12.137 31.6693 11.2011 31.6693 11.2011" stroke="white" stroke-width="0.666667" stroke-linecap="round" stroke-linejoin="round"/>
<path d="M20 12.8007C20 12.8007 22.8349 13.6092 23.3134 13.6092C23.4479 13.6092 25.2841 13.205 25.8346 13.205C26.0405 13.205 27.9413 13.4819 28.4375 13.6092C28.9338 13.7366 31.6693 12.8007 31.6693 12.8007" stroke="white" stroke-width="0.666667" stroke-linecap="round" stroke-linejoin="round"/>
<path d="M20 16.0009C20 16.0009 22.8349 16.8094 23.3134 16.8094C23.4479 16.8094 24.5425 16.1552 25.8346 16.1552C27.1268 16.1552 27.9413 16.6821 28.4375 16.8094C28.9338 16.9368 31.6693 16.0009 31.6693 16.0009L40.641 17.3784" stroke="white" stroke-width="1.33333" stroke-linecap="round" stroke-linejoin="round"/>
</g>
<path d="M22.0003 12.0009V11.9342V11.8671V11.7997V11.7319V11.6638V11.5954V11.5266V11.4921V11.4749V11.4576V11.3883V11.371V11.3623V11.3536V11.3188V11.2491V11.1792V11.1091V11.0739V11.0388V10.9684V10.8978V10.8625V10.8272V10.7564V10.6856V10.6148V10.5439V10.473V10.4641V10.4552V10.4464V10.4375V10.4287V10.4198V10.4109V10.4021V10.3932V10.3844V10.3755V10.3666V10.3578V10.3489V10.3401V10.3312V10.3223V10.3135V10.3046V10.2958V10.2869V10.2781V10.2692V10.2604V10.2515V10.2427V10.2338V10.225V10.2161V10.2073V10.1984V10.1896V10.1808V10.1719V10.1631V10.1543V10.1454V10.1366V10.1278V10.1189V10.1101V10.1013V10.0924V10.0836V10.0748V10.066V10.0572V10.0483V10.0395V10.0307V10.0219V10.0131V10.0043V9.99548V9.98668V9.97788V9.96908V9.96028V9.95149V9.9427V9.93391V9.92512V9.91634V9.90755V9.89877V9.89V9.88122V9.87245V9.86368V9.85491V9.84615V9.83739V9.82863V9.81987V9.81112V9.80237V9.79362V9.78488V9.77614V9.7674V9.75866V9.74993V9.7412V9.73247V9.72375V9.71503V9.70632V9.6976V9.68889V9.68019V9.67148V9.66278V9.65409V9.6454V9.63671V9.62802V9.61934V9.61066V9.60199V9.59332V9.58465V9.57599V9.56733V9.55867V9.55002V9.54138V9.53273V9.52409V9.51546V9.50683V9.4982V9.48958V9.48096V9.47235V9.45513V9.42075V9.35222V9.28399V9.21609V9.14854V9.08135V9.01454V8.94814V8.88216V8.81663V8.75155V8.68695V8.62284V8.55926V8.49621V8.43371V8.37179V8.31045V8.24973V8.18964V8.1302V8.07142V7.95595V7.84337V7.73384C22.0003 7.18168 22.4479 6.73421 23.0003 6.73421H28.667C29.2194 6.73421 29.667 7.18167 29.667 7.73384V7.74059V7.74736V7.75414V7.76093V7.76773V7.77455V7.78137V7.78821V7.79506V7.80193V7.80881V7.81569V7.82259V7.82951V7.83643V7.84337V7.85032V7.85728V7.86425V7.87123V7.87823V7.88524V7.89226V7.89929V7.90633V7.91338V7.92045V7.92752V7.93461V7.94171V7.94882V7.95595V7.96308V7.97023V7.97738V7.98455V7.99173V7.99892V8.00612V8.01333V8.02055V8.02779V8.03503V8.04229V8.04956V8.05683V8.06412V8.07142V8.07873V8.08605V8.09338V8.10072V8.10808V8.11544V8.12281V8.1302V8.13759V8.145V8.15241V8.15984V8.16727V8.17472V8.18217V8.18964V8.19712V8.2046V8.2121V8.21961V8.22712V8.23465V8.24219V8.24973V8.25729V8.26485V8.27243V8.28002V8.28761V8.29522V8.30283V8.31045V8.31809V8.32573V8.33338V8.34104V8.34872V8.3564V8.36409V8.37179V8.37949V8.38721V8.39494V8.40268V8.41042V8.41817V8.42594V8.43371V8.44149V8.44928V8.45708V8.46489V8.4727V8.48053V8.48836V8.49621V8.50406V8.51192V8.51979V8.52766V8.53555V8.54344V8.55135V8.55926V8.56718V8.57511V8.58304V8.59099V8.59894V8.6069V8.61487V8.62284V8.63083V8.63882V8.64682V8.65483V8.66285V8.67087V8.67891V8.68695V8.695V8.70305V8.71112V8.71919V8.72727V8.73535V8.74345V8.75155V8.75966V8.76777V8.7759V8.78403V8.79217V8.80031V8.80847V8.81663V8.82479V8.83297V8.84115V8.84934V8.85753V8.86574V8.87395V8.88216V8.89039V8.89862V8.90686V8.9151V8.92335V8.93161V8.93987V8.94814V8.95642V8.9647V8.973V8.98129V8.9896V8.99791V9.00622V9.01454V9.02287V9.03121V9.03955V9.0479V9.05625V9.06461V9.07298V9.08135V9.08973V9.09811V9.1065V9.1149V9.1233V9.1317V9.14012V9.14854V9.15696V9.16539V9.17383V9.18227V9.19072V9.19917V9.20763V9.21609V9.22456V9.23303V9.24151V9.25V9.25849V9.26698V9.27548V9.28399V9.2925V9.30102V9.30954V9.31806V9.32659V9.33513V9.34367V9.35222V9.36077V9.36932V9.37788V9.38645V9.39502V9.40359V9.41217V9.42075V9.42934V9.43793V9.44653V9.45513V9.46374V9.47234V9.48096V9.48958V9.4982V9.50683V9.51546V9.52409V9.53273V9.54138V9.55002V9.55867V9.56733V9.57599V9.58465V9.59332V9.60199V9.61066V9.61934V9.62802V9.63671V9.6454V9.65409V9.66278V9.67148V9.68019V9.68889V9.6976V9.70632V9.71503V9.72375V9.73247V9.7412V9.74993V9.75866V9.7674V9.77614V9.78488V9.79362V9.80237V9.81112V9.81987V9.82863V9.83739V9.84615V9.85491V9.86368V9.87245V9.88122V9.89V9.89877V9.90755V9.91634V9.92512V9.93391V9.9427V9.95149V9.96028V9.96908V9.97788V9.98668V9.99548V10.0043V10.0131V10.0219V10.0307V10.0395V10.0483V10.0572V10.066V10.0748V10.0836V10.0924V10.1013V10.1101V10.1189V10.1278V10.1366V10.1454V10.1543V10.1631V10.1719V10.1808V10.1896V10.1984V10.2073V10.2161V10.225V10.2338V10.2427V10.2515V10.2604V10.2692V10.2781V10.2869V10.2958V10.3046V10.3135V10.3223V10.3312V10.3401V10.3489V10.3578V10.3666V10.3755V10.3844V10.3932V10.4021V10.4109V10.4198V10.4287V10.4375V10.4464V10.4552V10.4641V10.473V10.4818V10.4907V10.4996V10.5084V10.5173V10.5261V10.535V10.5439V10.5527V10.5616V10.5705V10.5793V10.5882V10.597V10.6059V10.6148V10.6236V10.6325V10.6413V10.6502V10.6591V10.6679V10.6768V10.6856V10.6945V10.7033V10.7122V10.721V10.7299V10.7387V10.7476V10.7564V10.7653V10.7741V10.783V10.7918V10.8007V10.8095V10.8183V10.8272V10.836V10.8448V10.8537V10.8625V10.8713V10.8802V10.889V10.8978V10.9067V10.9155V10.9243V10.9331V10.9419V10.9507V10.9596V10.9684V10.9772V10.986V10.9948V11.0036V11.0124V11.0212V11.03V11.0388V11.0476V11.0564V11.0652V11.0739V11.0827V11.0915V11.1003V11.1091V11.1178V11.1266V11.1354V11.1441V11.1529V11.1617V11.1704V11.1792V11.1879V11.1967V11.2054V11.2142V11.2229V11.2316V11.2404V11.2491V11.2578V11.2666V11.2753V11.284V11.2927V11.3014V11.3101V11.3188V11.3275V11.3362V11.3449V11.3536V11.3623V11.371V11.3797V11.3883V11.397V11.4057V11.4143V11.423V11.4317V11.4403V11.449V11.4576V11.4663V11.4749V11.4835V11.4921V11.5008V11.5094V11.518V11.5266V11.5352V11.5438V11.5524V11.561V11.5696V11.5782V11.5868V11.5954V11.6039V11.6125V11.6211V11.6296V11.6382V11.6467V11.6553V11.6638V11.6723V11.6809V11.6894V11.6979V11.7064V11.7149V11.7234V11.7319V11.7404V11.7489V11.7574V11.7659V11.7743V11.7828V11.7912V11.7997V11.8082V11.8166V11.825V11.8335V11.8419V11.8503V11.8587V11.8671V11.8755V11.8839V11.8923V11.9007V11.9091V11.9175V11.9258V11.9342V11.9426V11.9509V11.9593V11.9676V11.9759V11.9842V11.9926V12.0009C29.667 13.8715 28.6963 15.187 27.6991 16.0486C27.2006 16.4793 26.7008 16.7913 26.3254 16.9956C26.1381 17.0975 25.9827 17.172 25.8753 17.2206C25.8605 17.2273 25.8466 17.2335 25.8337 17.2392C25.8207 17.2335 25.8069 17.2273 25.7921 17.2206C25.6846 17.172 25.5293 17.0975 25.3419 16.9956C24.9665 16.7913 24.4667 16.4793 23.9683 16.0486C22.971 15.187 22.0003 13.8715 22.0003 12.0009Z" stroke="white" stroke-width="0.666667"/>
<mask id="mask2_636_27090" style="mask-type:alpha" maskUnits="userSpaceOnUse" x="21" y="6" width="9" height="12">
<path d="M22.0003 12.0009V11.9342V11.8671V11.7997V11.7319V11.6638V11.5954V11.5266V11.4921V11.4749V11.4576V11.3883V11.371V11.3623V11.3536V11.3188V11.2491V11.1792V11.1091V11.0739V11.0388V10.9684V10.8978V10.8625V10.8272V10.7564V10.6856V10.6148V10.5439V10.473V10.4641V10.4552V10.4464V10.4375V10.4287V10.4198V10.4109V10.4021V10.3932V10.3844V10.3755V10.3666V10.3578V10.3489V10.3401V10.3312V10.3223V10.3135V10.3046V10.2958V10.2869V10.2781V10.2692V10.2604V10.2515V10.2427V10.2338V10.225V10.2161V10.2073V10.1984V10.1896V10.1808V10.1719V10.1631V10.1543V10.1454V10.1366V10.1278V10.1189V10.1101V10.1013V10.0924V10.0836V10.0748V10.066V10.0572V10.0483V10.0395V10.0307V10.0219V10.0131V10.0043V9.99548V9.98668V9.97788V9.96908V9.96028V9.95149V9.9427V9.93391V9.92512V9.91634V9.90755V9.89877V9.89V9.88122V9.87245V9.86368V9.85491V9.84615V9.83739V9.82863V9.81987V9.81112V9.80237V9.79362V9.78488V9.77614V9.7674V9.75866V9.74993V9.7412V9.73247V9.72375V9.71503V9.70632V9.6976V9.68889V9.68019V9.67148V9.66278V9.65409V9.6454V9.63671V9.62802V9.61934V9.61066V9.60199V9.59332V9.58465V9.57599V9.56733V9.55867V9.55002V9.54138V9.53273V9.52409V9.51546V9.50683V9.4982V9.48958V9.48096V9.47235V9.45513V9.42075V9.35222V9.28399V9.21609V9.14854V9.08135V9.01454V8.94814V8.88216V8.81663V8.75155V8.68695V8.62284V8.55926V8.49621V8.43371V8.37179V8.31045V8.24973V8.18964V8.1302V8.07142V7.95595V7.84337V7.73384C22.0003 7.18168 22.4479 6.73421 23.0003 6.73421H28.667C29.2194 6.73421 29.667 7.18167 29.667 7.73384V7.74059V7.74736V7.75414V7.76093V7.76773V7.77455V7.78137V7.78821V7.79506V7.80193V7.80881V7.81569V7.82259V7.82951V7.83643V7.84337V7.85032V7.85728V7.86425V7.87123V7.87823V7.88524V7.89226V7.89929V7.90633V7.91338V7.92045V7.92752V7.93461V7.94171V7.94882V7.95595V7.96308V7.97023V7.97738V7.98455V7.99173V7.99892V8.00612V8.01333V8.02055V8.02779V8.03503V8.04229V8.04956V8.05683V8.06412V8.07142V8.07873V8.08605V8.09338V8.10072V8.10808V8.11544V8.12281V8.1302V8.13759V8.145V8.15241V8.15984V8.16727V8.17472V8.18217V8.18964V8.19712V8.2046V8.2121V8.21961V8.22712V8.23465V8.24219V8.24973V8.25729V8.26485V8.27243V8.28002V8.28761V8.29522V8.30283V8.31045V8.31809V8.32573V8.33338V8.34104V8.34872V8.3564V8.36409V8.37179V8.37949V8.38721V8.39494V8.40268V8.41042V8.41817V8.42594V8.43371V8.44149V8.44928V8.45708V8.46489V8.4727V8.48053V8.48836V8.49621V8.50406V8.51192V8.51979V8.52766V8.53555V8.54344V8.55135V8.55926V8.56718V8.57511V8.58304V8.59099V8.59894V8.6069V8.61487V8.62284V8.63083V8.63882V8.64682V8.65483V8.66285V8.67087V8.67891V8.68695V8.695V8.70305V8.71112V8.71919V8.72727V8.73535V8.74345V8.75155V8.75966V8.76777V8.7759V8.78403V8.79217V8.80031V8.80847V8.81663V8.82479V8.83297V8.84115V8.84934V8.85753V8.86574V8.87395V8.88216V8.89039V8.89862V8.90686V8.9151V8.92335V8.93161V8.93987V8.94814V8.95642V8.9647V8.973V8.98129V8.9896V8.99791V9.00622V9.01454V9.02287V9.03121V9.03955V9.0479V9.05625V9.06461V9.07298V9.08135V9.08973V9.09811V9.1065V9.1149V9.1233V9.1317V9.14012V9.14854V9.15696V9.16539V9.17383V9.18227V9.19072V9.19917V9.20763V9.21609V9.22456V9.23303V9.24151V9.25V9.25849V9.26698V9.27548V9.28399V9.2925V9.30102V9.30954V9.31806V9.32659V9.33513V9.34367V9.35222V9.36077V9.36932V9.37788V9.38645V9.39502V9.40359V9.41217V9.42075V9.42934V9.43793V9.44653V9.45513V9.46374V9.47234V9.48096V9.48958V9.4982V9.50683V9.51546V9.52409V9.53273V9.54138V9.55002V9.55867V9.56733V9.57599V9.58465V9.59332V9.60199V9.61066V9.61934V9.62802V9.63671V9.6454V9.65409V9.66278V9.67148V9.68019V9.68889V9.6976V9.70632V9.71503V9.72375V9.73247V9.7412V9.74993V9.75866V9.7674V9.77614V9.78488V9.79362V9.80237V9.81112V9.81987V9.82863V9.83739V9.84615V9.85491V9.86368V9.87245V9.88122V9.89V9.89877V9.90755V9.91634V9.92512V9.93391V9.9427V9.95149V9.96028V9.96908V9.97788V9.98668V9.99548V10.0043V10.0131V10.0219V10.0307V10.0395V10.0483V10.0572V10.066V10.0748V10.0836V10.0924V10.1013V10.1101V10.1189V10.1278V10.1366V10.1454V10.1543V10.1631V10.1719V10.1808V10.1896V10.1984V10.2073V10.2161V10.225V10.2338V10.2427V10.2515V10.2604V10.2692V10.2781V10.2869V10.2958V10.3046V10.3135V10.3223V10.3312V10.3401V10.3489V10.3578V10.3666V10.3755V10.3844V10.3932V10.4021V10.4109V10.4198V10.4287V10.4375V10.4464V10.4552V10.4641V10.473V10.4818V10.4907V10.4996V10.5084V10.5173V10.5261V10.535V10.5439V10.5527V10.5616V10.5705V10.5793V10.5882V10.597V10.6059V10.6148V10.6236V10.6325V10.6413V10.6502V10.6591V10.6679V10.6768V10.6856V10.6945V10.7033V10.7122V10.721V10.7299V10.7387V10.7476V10.7564V10.7653V10.7741V10.783V10.7918V10.8007V10.8095V10.8183V10.8272V10.836V10.8448V10.8537V10.8625V10.8713V10.8802V10.889V10.8978V10.9067V10.9155V10.9243V10.9331V10.9419V10.9507V10.9596V10.9684V10.9772V10.986V10.9948V11.0036V11.0124V11.0212V11.03V11.0388V11.0476V11.0564V11.0652V11.0739V11.0827V11.0915V11.1003V11.1091V11.1178V11.1266V11.1354V11.1441V11.1529V11.1617V11.1704V11.1792V11.1879V11.1967V11.2054V11.2142V11.2229V11.2316V11.2404V11.2491V11.2578V11.2666V11.2753V11.284V11.2927V11.3014V11.3101V11.3188V11.3275V11.3362V11.3449V11.3536V11.3623V11.371V11.3797V11.3883V11.397V11.4057V11.4143V11.423V11.4317V11.4403V11.449V11.4576V11.4663V11.4749V11.4835V11.4921V11.5008V11.5094V11.518V11.5266V11.5352V11.5438V11.5524V11.561V11.5696V11.5782V11.5868V11.5954V11.6039V11.6125V11.6211V11.6296V11.6382V11.6467V11.6553V11.6638V11.6723V11.6809V11.6894V11.6979V11.7064V11.7149V11.7234V11.7319V11.7404V11.7489V11.7574V11.7659V11.7743V11.7828V11.7912V11.7997V11.8082V11.8166V11.825V11.8335V11.8419V11.8503V11.8587V11.8671V11.8755V11.8839V11.8923V11.9007V11.9091V11.9175V11.9258V11.9342V11.9426V11.9509V11.9593V11.9676V11.9759V11.9842V11.9926V12.0009C29.667 13.8715 28.6963 15.187 27.6991 16.0486C27.2006 16.4793 26.7008 16.7913 26.3254 16.9956C26.1381 17.0975 25.9827 17.172 25.8753 17.2206C25.8605 17.2273 25.8466 17.2335 25.8337 17.2392C25.8207 17.2335 25.8069 17.2273 25.7921 17.2206C25.6846 17.172 25.5293 17.0975 25.3419 16.9956C24.9665 16.7913 24.4667 16.4793 23.9683 16.0486C22.971 15.187 22.0003 13.8715 22.0003 12.0009Z" fill="white" stroke="white" stroke-width="0.666667"/>
</mask>
<g mask="url(#mask2_636_27090)">
</g>
<path d="M0 -0.332357H-0.929698L-0.211799 0.258372L5.5 4.95837V6.22537L-0.188509 10.1261L-0.333333 10.2254V10.401V11.201V11.7897L0.171499 11.4868L6.759 7.53431H8.23003L13.9094 11.4288C14.0097 11.4975 14.1284 11.5343 14.25 11.5343C14.8151 11.5343 15.0691 10.8261 14.6327 10.467L9.5 6.24359V4.97658L15.0437 1.17519C15.225 1.05088 15.3333 0.845192 15.3333 0.625375V0.000976562V-0.587754L14.8285 -0.284854L8.241 3.66764H6.76998L1.02184 -0.273933L0.936642 -0.332357H0.833333H0Z" fill="#DB1E36" stroke="white" stroke-width="0.666667"/>
<path fill-rule="evenodd" clip-rule="evenodd" d="M0 4.00098V7.20098H5.83333V11.3343C5.83333 11.7025 6.13181 12.001 6.5 12.001H8.5C8.86819 12.001 9.16667 11.7025 9.16667 11.3343V7.20098H15.1667C15.5349 7.20098 15.8333 6.9025 15.8333 6.53431V4.66764C15.8333 4.29945 15.5349 4.00098 15.1667 4.00098H9.16667V0.000976562H5.83333V4.00098H0Z" fill="white"/>
<path fill-rule="evenodd" clip-rule="evenodd" d="M0 4.80098H6.66667V4.00098V0.000976562H8.33333V4.00098V4.80098H15V6.40098H8.33333V7.20098V11.201H6.66667V7.20098V6.40098H0V4.80098Z" fill="#DB1E36"/>
</g>
</svg>
