<svg width="35" height="24" viewBox="0 0 35 24" fill="none" xmlns="http://www.w3.org/2000/svg">
<rect y="0.000976562" width="35" height="24" rx="2" fill="white"/>
<mask id="mask0_636_25808" style="mask-type:alpha" maskUnits="userSpaceOnUse" x="0" y="0" width="35" height="25">
<rect y="0.000976562" width="35" height="24" rx="2" fill="white"/>
</mask>
<g mask="url(#mask0_636_25808)">
<path fill-rule="evenodd" clip-rule="evenodd" d="M0 24.001H35V0.000976562H0V24.001Z" fill="#F0371D"/>
<path fill-rule="evenodd" clip-rule="evenodd" d="M17.4798 9.77595C18.6833 8.8089 18.7565 8.59263 19.0449 7.74063C19.1411 7.45625 19.0732 7.22268 18.9931 6.94684C18.8775 6.5491 18.7363 6.06346 19.0249 5.21088C17.7117 4.80129 16.1861 5.83181 15.6172 7.51262C15.0483 9.19344 15.6516 10.888 16.9648 11.2976C17.1998 11.371 17.1735 11.318 17.1021 11.1744C16.9769 10.9225 16.7132 10.3919 17.4798 9.77595ZM14.9874 11.5422C14.4013 10.1446 14.2097 10.0109 13.4547 9.48433C13.2027 9.30858 12.9503 9.29838 12.6523 9.28634H12.6523C12.2225 9.26898 11.6978 9.24779 10.9423 8.72086C10.1308 9.7932 10.6802 11.5046 12.1696 12.5434C13.659 13.5822 15.5242 13.555 16.3358 12.4827C16.4811 12.2907 16.4204 12.2984 16.2561 12.3192C15.9679 12.3557 15.3608 12.4325 14.9874 11.5422ZM22.4998 12.3057C21.5666 12.3057 21.3297 12.3057 19.9998 11.5057C19.1527 10.9961 18.7085 11.4009 18.4977 11.593C18.3775 11.7025 18.3331 11.743 18.3331 11.5057C18.3331 10.1802 19.8255 9.1057 21.6665 9.1057C23.5074 9.1057 24.9998 10.1802 24.9998 11.5057C24.066 11.5057 23.6285 11.7846 23.2702 12.0131C23.0217 12.1715 22.8113 12.3057 22.4998 12.3057ZM22.4998 10.8011C22.4998 11.022 22.3132 11.2011 22.0831 11.2011C21.853 11.2011 21.6665 11.022 21.6665 10.8011C21.6665 10.5802 21.853 10.4011 22.0831 10.4011C22.3132 10.4011 22.4998 10.5802 22.4998 10.8011ZM19.0649 14.341C18.6833 15.8025 18.7565 16.0188 19.0449 16.8708C19.1411 17.1552 19.3391 17.3058 19.5728 17.4837C19.9099 17.7403 20.3214 18.0535 20.61 18.9061C21.9231 18.4965 22.5264 16.8019 21.9575 15.1211C21.3887 13.4403 19.863 12.4097 18.5498 12.8193C18.3148 12.8927 18.3686 12.9207 18.5142 12.9966C18.7697 13.1297 19.3079 13.4101 19.0649 14.341ZM20.5355 16.4058C20.3166 16.4741 20.0815 16.3591 20.0104 16.149C19.9393 15.9389 20.0591 15.7132 20.2779 15.645C20.4968 15.5767 20.7319 15.6917 20.803 15.9018C20.8741 16.1119 20.7543 16.3376 20.5355 16.4058ZM15.9671 14.3636C14.4013 14.4668 14.2097 14.6005 13.4547 15.1271C13.2027 15.3028 13.1146 15.5301 13.0106 15.7985C12.8606 16.1855 12.6774 16.658 11.922 17.185C12.7335 18.2573 14.5988 18.2845 16.0882 17.2457C17.5775 16.2069 18.127 14.4955 17.3154 13.4231C17.1701 13.2312 17.159 13.2889 17.1288 13.4453C17.0759 13.7198 16.9644 14.2978 15.9671 14.3636ZM14.3759 16.3443C14.2407 16.1656 14.2819 15.9155 14.4681 15.7856C14.6543 15.6558 14.9149 15.6954 15.0501 15.8741C15.1854 16.0528 15.1441 16.303 14.9579 16.4328C14.7718 16.5627 14.5112 16.5231 14.3759 16.3443ZM12.5335 10.7016C12.6687 10.5229 12.9293 10.4832 13.1155 10.6131C13.3016 10.7429 13.3429 10.9931 13.2076 11.1718C13.0724 11.3505 12.8118 11.3902 12.6256 11.2603C12.4395 11.1305 12.3982 10.8803 12.5335 10.7016ZM17.5543 7.27568C17.7731 7.34395 17.8929 7.56961 17.8218 7.77971C17.7507 7.98981 17.5156 8.10479 17.2968 8.03653C17.0779 7.96826 16.9581 7.7426 17.0292 7.5325C17.1004 7.3224 17.3354 7.20742 17.5543 7.27568Z" fill="white"/>
</g>
</svg>
