<svg width="35" height="24" viewBox="0 0 35 24" fill="none" xmlns="http://www.w3.org/2000/svg">
<rect y="0.000976562" width="35" height="24" rx="2" fill="white"/>
<mask id="mask0_636_26012" style="mask-type:alpha" maskUnits="userSpaceOnUse" x="0" y="0" width="35" height="25">
<rect y="0.000976562" width="35" height="24" rx="2" fill="white"/>
</mask>
<g mask="url(#mask0_636_26012)">
<path fill-rule="evenodd" clip-rule="evenodd" d="M0 4.80098H35V0.000976562H0V4.80098Z" fill="#1461B6"/>
<path fill-rule="evenodd" clip-rule="evenodd" d="M0 24.0012H35V19.2012H0V24.0012Z" fill="#1461B6"/>
<path fill-rule="evenodd" clip-rule="evenodd" d="M0 19.2008H35V4.80078H0V19.2008Z" fill="white"/>
<path fill-rule="evenodd" clip-rule="evenodd" d="M0 17.6014H35V6.40137H0V17.6014Z" fill="#F53846"/>
<path fill-rule="evenodd" clip-rule="evenodd" d="M16.6663 12.001C16.6663 14.2101 14.8009 16.001 12.4997 16.001C10.1985 16.001 8.33301 14.2101 8.33301 12.001C8.33301 9.79184 10.1985 8.00098 12.4997 8.00098L11.5169 10.7024L8.53694 10.7649L10.9095 12.497L10.0506 15.237L12.4997 13.6061L14.9488 15.237L14.0898 12.497L16.4624 10.7649L13.4824 10.7024L12.4997 8.00098C14.8009 8.00098 16.6663 9.79184 16.6663 12.001Z" fill="white"/>
</g>
</svg>
