<svg width="35" height="24" viewBox="0 0 35 24" fill="none" xmlns="http://www.w3.org/2000/svg">
<rect x="0.25" y="0.250977" width="34.5" height="23.5" rx="1.75" fill="white" stroke="#F5F5F5" stroke-width="0.5"/>
<mask id="mask0_636_25988" style="mask-type:alpha" maskUnits="userSpaceOnUse" x="0" y="0" width="35" height="25">
<rect x="0.25" y="0.250977" width="34.5" height="23.5" rx="1.75" fill="white" stroke="white" stroke-width="0.5"/>
</mask>
<g mask="url(#mask0_636_25988)">
<path fill-rule="evenodd" clip-rule="evenodd" d="M17.5003 17.6014C20.722 17.6014 23.3337 15.0942 23.3337 12.0014C23.3337 8.90857 20.722 6.40137 17.5003 6.40137C14.2787 6.40137 11.667 8.90857 11.667 12.0014C11.667 15.0942 14.2787 17.6014 17.5003 17.6014Z" fill="#E01B41"/>
<mask id="mask1_636_25988" style="mask-type:alpha" maskUnits="userSpaceOnUse" x="11" y="6" width="13" height="12">
<path fill-rule="evenodd" clip-rule="evenodd" d="M17.5003 17.6014C20.722 17.6014 23.3337 15.0942 23.3337 12.0014C23.3337 8.90857 20.722 6.40137 17.5003 6.40137C14.2787 6.40137 11.667 8.90857 11.667 12.0014C11.667 15.0942 14.2787 17.6014 17.5003 17.6014Z" fill="white"/>
</mask>
<g mask="url(#mask1_636_25988)">
<path fill-rule="evenodd" clip-rule="evenodd" d="M11.6665 12.801C13.3332 14.301 15.8332 15.201 17.4999 12.801C19.1665 10.401 22.4999 10.401 23.3332 12.801C24.1665 15.201 23.3332 17.601 23.3332 17.601H11.6665C11.6665 17.601 9.99986 11.301 11.6665 12.801Z" fill="#0E4B9C"/>
</g>
<path opacity="0.75" fill-rule="evenodd" clip-rule="evenodd" d="M25.9237 4.5614C25.7627 4.65065 25.7091 4.85089 25.804 5.00865L27.9604 8.59426C28.0553 8.75203 28.2627 8.80757 28.4237 8.71833L29.284 8.24151C29.445 8.15227 29.4986 7.95203 29.4038 7.79426L27.2473 4.20865C27.1525 4.05089 26.945 3.99534 26.784 4.08459L25.9237 4.5614ZM23.7587 5.76141C23.5976 5.85065 23.544 6.05089 23.6389 6.20865L25.7953 9.79426C25.8902 9.95203 26.0976 10.0076 26.2587 9.91833L27.1189 9.44151C27.28 9.35227 27.3336 9.15203 27.2387 8.99426L25.0823 5.40865C24.9874 5.25089 24.78 5.19534 24.6189 5.28459L23.7587 5.76141ZM5.59671 16.2087C5.50183 16.0509 5.55544 15.8506 5.71646 15.7614L6.57674 15.2846C6.73776 15.1953 6.94521 15.2509 7.04008 15.4087L9.1965 18.9943C9.29138 19.152 9.23776 19.3523 9.07674 19.4415L8.21646 19.9183C8.05544 20.0076 7.848 19.952 7.75312 19.7943L5.59671 16.2087ZM7.88153 14.5614C7.72051 14.6507 7.66689 14.8509 7.76177 15.0087L9.91819 18.5943C10.0131 18.752 10.2205 18.8076 10.3815 18.7183L11.2418 18.2415C11.4028 18.1523 11.4564 17.952 11.3616 17.7943L9.20515 14.2087C9.11027 14.0509 8.90282 13.9953 8.74181 14.0846L7.88153 14.5614ZM25.7953 14.2087C25.8902 14.0509 26.0976 13.9953 26.2587 14.0846L27.1189 14.5614C27.28 14.6507 27.3336 14.8509 27.2387 15.0087L25.0823 18.5943C24.9874 18.752 24.78 18.8076 24.6189 18.7183L23.7587 18.2415C23.5976 18.1523 23.544 17.952 23.6389 17.7943L25.7953 14.2087ZM28.4237 15.2846C28.2627 15.1953 28.0553 15.2509 27.9604 15.4087L25.804 18.9943C25.7091 19.152 25.7627 19.3523 25.9237 19.4415L26.784 19.9183C26.945 20.0076 27.1525 19.952 27.2473 19.7943L29.4038 16.2087C29.4986 16.0509 29.445 15.8506 29.284 15.7614L28.4237 15.2846ZM7.75312 4.20865C7.848 4.05089 8.05545 3.99534 8.21646 4.08459L9.07675 4.5614C9.23776 4.65065 9.29138 4.85089 9.1965 5.00865L7.04009 8.59426C6.94521 8.75203 6.73776 8.80757 6.57674 8.71833L5.71646 8.24151C5.55544 8.15226 5.50183 7.95203 5.59671 7.79426L7.75312 4.20865ZM10.3815 5.28459C10.2205 5.19534 10.0131 5.25089 9.91818 5.40865L7.76177 8.99426C7.66689 9.15203 7.72051 9.35226 7.88153 9.44151L8.74181 9.91833C8.90282 10.0076 9.11027 9.95203 9.20515 9.79426L11.3616 6.20865C11.4564 6.05089 11.4028 5.85065 11.2418 5.7614L10.3815 5.28459Z" fill="#262626"/>
</g>
</svg>
