<svg width="35" height="24" viewBox="0 0 35 24" fill="none" xmlns="http://www.w3.org/2000/svg">
<rect y="0.000976562" width="35" height="24" rx="2" fill="white"/>
<mask id="mask0_636_25942" style="mask-type:alpha" maskUnits="userSpaceOnUse" x="0" y="0" width="35" height="25">
<rect y="0.000976562" width="35" height="24" rx="2" fill="white"/>
</mask>
<g mask="url(#mask0_636_25942)">
<rect y="0.000976562" width="35" height="24" fill="#30C6E0"/>
<path fill-rule="evenodd" clip-rule="evenodd" d="M17.5 16.8012C20.2614 16.8012 22.5 14.6521 22.5 12.0012C22.5 9.3502 20.2614 7.20117 17.5 7.20117C14.7386 7.20117 12.5 9.3502 12.5 12.0012C12.5 14.6521 14.7386 16.8012 17.5 16.8012Z" fill="#FFCD4B"/>
<path fill-rule="evenodd" clip-rule="evenodd" d="M15.4599 20.5806L17.4997 17.6576L19.5395 20.5806L20.0561 17.0974L23.215 18.8814L22.1062 15.5279L25.7586 15.8194L23.244 13.2599L26.6663 12.0012L23.244 10.7426L25.7586 8.18306L22.1062 8.47457L23.215 5.12112L20.0561 6.90506L19.5395 3.42188L17.4997 6.34491L15.4599 3.42188L14.9432 6.90506L11.7844 5.12112L12.8931 8.47457L9.24079 8.18306L11.7554 10.7426L8.33301 12.0012L11.7554 13.2599L9.24079 15.8194L12.8931 15.5279L11.7844 18.8814L14.9432 17.0974L15.4599 20.5806ZM23.333 12.0012C23.333 15.094 20.7213 17.6012 17.4997 17.6012C14.278 17.6012 11.6663 15.094 11.6663 12.0012C11.6663 8.90845 14.278 6.40124 17.4997 6.40124C20.7213 6.40124 23.333 8.90845 23.333 12.0012Z" fill="#FFCD4B"/>
<path fill-rule="evenodd" clip-rule="evenodd" d="M1.66699 1.93392C1.66699 1.74982 1.81623 1.60059 2.00033 1.60059H3.00033C3.18442 1.60059 3.33366 1.74982 3.33366 1.93392V2.86725C3.33366 3.05135 3.18442 3.20059 3.00033 3.20059H2.00033C1.81623 3.20059 1.66699 3.05135 1.66699 2.86725V1.93392ZM1.66699 5.13392C1.66699 4.94982 1.81623 4.80059 2.00033 4.80059H3.00033C3.18442 4.80059 3.33366 4.94982 3.33366 5.13392V6.06725C3.33366 6.25135 3.18442 6.40059 3.00033 6.40059H2.00033C1.81623 6.40059 1.66699 6.25135 1.66699 6.06725V5.13392ZM2.00033 8.00059C1.81623 8.00059 1.66699 8.14982 1.66699 8.33392V9.26725C1.66699 9.45135 1.81623 9.60059 2.00033 9.60059H3.00033C3.18442 9.60059 3.33366 9.45135 3.33366 9.26725V8.33392C3.33366 8.14982 3.18442 8.00059 3.00033 8.00059H2.00033ZM1.66699 11.5339C1.66699 11.3498 1.81623 11.2006 2.00033 11.2006H3.00033C3.18442 11.2006 3.33366 11.3498 3.33366 11.5339V12.4673C3.33366 12.6513 3.18442 12.8006 3.00033 12.8006H2.00033C1.81623 12.8006 1.66699 12.6513 1.66699 12.4673V11.5339ZM2.00033 14.4006C1.81623 14.4006 1.66699 14.5498 1.66699 14.7339V15.6673C1.66699 15.8513 1.81623 16.0006 2.00033 16.0006H3.00033C3.18442 16.0006 3.33366 15.8513 3.33366 15.6673V14.7339C3.33366 14.5498 3.18442 14.4006 3.00033 14.4006H2.00033ZM1.66699 17.9339C1.66699 17.7498 1.81623 17.6006 2.00033 17.6006H3.00033C3.18442 17.6006 3.33366 17.7498 3.33366 17.9339V18.8673C3.33366 19.0513 3.18442 19.2006 3.00033 19.2006H2.00033C1.81623 19.2006 1.66699 19.0513 1.66699 18.8673V17.9339ZM2.00033 20.8006C1.81623 20.8006 1.66699 20.9498 1.66699 21.1339V22.0673C1.66699 22.2513 1.81623 22.4006 2.00033 22.4006H3.00033C3.18442 22.4006 3.33366 22.2513 3.33366 22.0673V21.1339C3.33366 20.9498 3.18442 20.8006 3.00033 20.8006H2.00033ZM3.33366 19.5339C3.33366 19.3498 3.4829 19.2006 3.66699 19.2006H4.66699C4.85109 19.2006 5.00033 19.3498 5.00033 19.5339V20.4673C5.00033 20.6513 4.85109 20.8006 4.66699 20.8006H3.66699C3.4829 20.8006 3.33366 20.6513 3.33366 20.4673V19.5339ZM3.66699 16.0006C3.4829 16.0006 3.33366 16.1498 3.33366 16.3339V17.2673C3.33366 17.4513 3.4829 17.6006 3.66699 17.6006H4.66699C4.85109 17.6006 5.00033 17.4513 5.00033 17.2673V16.3339C5.00033 16.1498 4.85109 16.0006 4.66699 16.0006H3.66699ZM3.33366 13.1339C3.33366 12.9498 3.4829 12.8006 3.66699 12.8006H4.66699C4.85109 12.8006 5.00033 12.9498 5.00033 13.1339V14.0673C5.00033 14.2513 4.85109 14.4006 4.66699 14.4006H3.66699C3.4829 14.4006 3.33366 14.2513 3.33366 14.0673V13.1339ZM3.66699 9.60059C3.4829 9.60059 3.33366 9.74982 3.33366 9.93392V10.8673C3.33366 11.0513 3.4829 11.2006 3.66699 11.2006H4.66699C4.85109 11.2006 5.00033 11.0513 5.00033 10.8673V9.93392C5.00033 9.74982 4.85109 9.60059 4.66699 9.60059H3.66699ZM3.33366 6.73392C3.33366 6.54982 3.4829 6.40059 3.66699 6.40059H4.66699C4.85109 6.40059 5.00033 6.54982 5.00033 6.73392V7.66725C5.00033 7.85135 4.85109 8.00059 4.66699 8.00059H3.66699C3.4829 8.00059 3.33366 7.85135 3.33366 7.66725V6.73392ZM3.66699 3.20059C3.4829 3.20059 3.33366 3.34982 3.33366 3.53392V4.46725C3.33366 4.65135 3.4829 4.80059 3.66699 4.80059H4.66699C4.85109 4.80059 5.00033 4.65135 5.00033 4.46725V3.53392C5.00033 3.34982 4.85109 3.20059 4.66699 3.20059H3.66699Z" fill="#FFCD4B"/>
</g>
</svg>
