<svg width="35" height="24" viewBox="0 0 35 24" fill="none" xmlns="http://www.w3.org/2000/svg">
<rect x="0.25" y="0.250977" width="34.5" height="23.5" rx="1.75" fill="white" stroke="#F5F5F5" stroke-width="0.5"/>
<mask id="mask0_636_26099" style="mask-type:alpha" maskUnits="userSpaceOnUse" x="0" y="0" width="35" height="25">
<rect x="0.25" y="0.250977" width="34.5" height="23.5" rx="1.75" fill="white" stroke="white" stroke-width="0.5"/>
</mask>
<g mask="url(#mask0_636_26099)">
<path fill-rule="evenodd" clip-rule="evenodd" d="M0 6.40098H35V0.000976562H0V6.40098Z" fill="#F03340"/>
<path fill-rule="evenodd" clip-rule="evenodd" d="M0 24.0006H35V17.6006H0V24.0006Z" fill="#F03340"/>
<path fill-rule="evenodd" clip-rule="evenodd" d="M16.1745 14.8735C16.443 14.6157 16.443 14.1863 16.1745 13.9285L16.0734 13.8315C15.9238 13.6878 15.7114 13.6302 15.5097 13.6787L14.9809 13.8056C14.4457 13.934 14.1239 13.2318 14.5705 12.9102L14.9941 12.6053C15.2569 12.416 15.123 12.001 14.7991 12.001C14.4442 12.001 14.3348 11.5203 14.6548 11.3667L15.3452 11.0353C15.6652 10.8817 15.5558 10.401 15.2009 10.401C14.877 10.401 14.7431 9.98593 15.0059 9.79669L17.1105 8.28144C17.3431 8.11392 17.6569 8.11392 17.8895 8.28144L19.9941 9.79669C20.2569 9.98593 20.123 10.401 19.7991 10.401C19.4442 10.401 19.3348 10.8817 19.6548 11.0353L20.3452 11.3667C20.6652 11.5203 20.5558 12.001 20.2009 12.001C19.877 12.001 19.7431 12.416 20.0059 12.6053L20.4295 12.9102C20.8761 13.2318 20.5543 13.934 20.0191 13.8056L19.4903 13.6787C19.2886 13.6302 19.0762 13.6878 18.9266 13.8315L18.8255 13.9285C18.557 14.1863 18.557 14.6157 18.8255 14.8735C19.2511 15.2821 18.9619 16.001 18.3719 16.001H16.6281C16.0381 16.001 15.7489 15.2821 16.1745 14.8735Z" fill="#1FC065"/>
</g>
</svg>
