<svg width="35" height="24" viewBox="0 0 35 24" fill="none" xmlns="http://www.w3.org/2000/svg">
<rect y="0.000976562" width="35" height="24" rx="2" fill="white"/>
<mask id="mask0_636_26258" style="mask-type:alpha" maskUnits="userSpaceOnUse" x="0" y="0" width="35" height="25">
<rect y="0.000976562" width="35" height="24" rx="2" fill="white"/>
</mask>
<g mask="url(#mask0_636_26258)">
<rect y="0.000976562" width="35" height="24" fill="#E6BE53"/>
<path fill-rule="evenodd" clip-rule="evenodd" d="M1.66699 21.4006C1.66699 21.9529 2.11471 22.4006 2.66699 22.4006H32.3337C32.8859 22.4006 33.3337 21.9529 33.3337 21.4006V2.60059C33.3337 2.0483 32.8859 1.60059 32.3337 1.60059H2.66699C2.11471 1.60059 1.66699 2.0483 1.66699 2.60059V21.4006Z" fill="#E01826"/>
<path fill-rule="evenodd" clip-rule="evenodd" d="M16.066 4.45987C15.5849 4.61381 15.4431 5.22596 15.8075 5.57574L16.4735 6.21514C16.5977 6.33432 16.7631 6.40088 16.9352 6.40088H18.0655C18.2376 6.40088 18.403 6.33432 18.5271 6.21514L19.1932 5.57574C19.5575 5.22596 19.4157 4.61381 18.9347 4.45987L17.7035 4.0659C17.5714 4.02361 17.4293 4.02361 17.2971 4.0659L16.066 4.45987ZM17.962 8.35766C17.704 8.60531 17.2966 8.60531 17.0386 8.35766L16.667 8.00088L15.3338 6.72099C15.1332 6.52846 14.8342 6.4806 14.5836 6.6009L14.2005 6.78481C13.781 6.98617 13.6916 7.54449 14.0273 7.86675L14.167 8.00088L15.4733 9.25498C15.6869 9.46 15.7397 9.7813 15.6029 10.0439L15.0497 11.1062C15.0172 11.1684 15.0003 11.2375 15.0003 11.3077C15.0003 11.6289 14.6649 11.8399 14.3754 11.7009L13.9383 11.4911C13.6457 11.3507 13.5833 10.9612 13.8175 10.7364C14.0082 10.5533 14.0082 10.2484 13.8175 10.0654L13.4127 9.67672C13.3603 9.62649 13.3166 9.56807 13.2831 9.50375L12.5352 8.0678C12.512 8.02333 12.4939 7.97638 12.4813 7.92786L12.007 6.10637C11.8678 5.57196 11.1764 5.42878 10.8365 5.86395L9.30831 7.81999C9.21674 7.93721 9.16699 8.08168 9.16699 8.23042V11.0377C9.16699 11.1449 9.19285 11.2505 9.24238 11.3456L9.94974 12.7037C9.98324 12.7681 10.027 12.8265 10.0793 12.8767L11.59 14.327C11.641 14.3759 11.6995 14.4165 11.7632 14.4471L13.2597 15.1654C13.3084 15.1887 13.3617 15.2009 13.4157 15.2009C13.7994 15.2009 13.9177 15.7206 13.5718 15.8866L13.3922 15.9728C13.3534 15.9914 13.3178 16.0161 13.2868 16.0459L12.917 16.4009C12.6842 16.6244 12.3165 16.6244 12.0837 16.4009C11.8508 16.1774 11.4831 16.1774 11.2503 16.4009L11.194 16.455C10.9804 16.66 10.9276 16.9813 11.0644 17.2439L11.4802 18.0422C11.595 18.2626 11.8229 18.4009 12.0714 18.4009H13.1819C13.2818 18.4009 13.3804 18.3784 13.4704 18.3352L14.8001 17.697C14.9301 17.6346 15.0363 17.5318 15.1029 17.4039L15.5081 16.6259C15.6708 16.3135 16.0879 16.245 16.342 16.4889C16.5292 16.6686 16.5581 16.9577 16.41 17.1709L15.3952 18.6323C15.1796 18.9428 15.265 19.3703 15.5834 19.574L17.141 20.5709C17.36 20.7111 17.6406 20.7111 17.8597 20.5709L19.4172 19.574C19.7357 19.3703 19.8211 18.9428 19.6055 18.6323L18.5906 17.1709C18.4426 16.9577 18.4714 16.6686 18.6586 16.4889C18.9127 16.245 19.3298 16.3135 19.4925 16.6259L19.8977 17.4039C19.9643 17.5318 20.0706 17.6346 20.2005 17.697L21.5302 18.3352C21.6202 18.3784 21.7188 18.4009 21.8187 18.4009H22.9292C23.1778 18.4009 23.4057 18.2626 23.5205 18.0422L23.9363 17.2439C24.073 16.9813 24.0202 16.66 23.8067 16.455L23.7503 16.4009C23.5175 16.1774 23.1498 16.1774 22.917 16.4009C22.6842 16.6244 22.3165 16.6244 22.0837 16.4009L21.7139 16.0459C21.6828 16.0161 21.6472 15.9914 21.6084 15.9728L21.4289 15.8866C21.083 15.7206 21.2012 15.2009 21.5849 15.2009C21.6389 15.2009 21.6923 15.1887 21.741 15.1654L23.2374 14.4471C23.3012 14.4165 23.3596 14.3759 23.4106 14.327L24.9213 12.8767C24.9736 12.8265 25.0174 12.7681 25.0509 12.7037L25.7583 11.3456C25.8078 11.2505 25.8337 11.1449 25.8337 11.0377V8.23042C25.8337 8.08168 25.7839 7.93721 25.6923 7.81999L24.1642 5.86395C23.8242 5.42878 23.1329 5.57196 22.9937 6.10637L22.5193 7.92786C22.5067 7.97638 22.4886 8.02333 22.4655 8.0678L21.7176 9.50375C21.6841 9.56807 21.6403 9.62649 21.588 9.67672L21.1831 10.0654C20.9925 10.2484 20.9925 10.5533 21.1831 10.7364C21.4173 10.9612 21.355 11.3507 21.0623 11.4911L20.6253 11.7009C20.3357 11.8399 20.0003 11.6289 20.0003 11.3077C20.0003 11.2375 19.9834 11.1684 19.951 11.1062L19.3977 10.0439C19.261 9.7813 19.3137 9.46 19.5273 9.25498L20.8337 8.00088L20.9734 7.86675C21.3091 7.54449 21.2197 6.98617 20.8002 6.78481L20.417 6.6009C20.1664 6.4806 19.8674 6.52846 19.6669 6.72099L18.3337 8.00088L17.962 8.35766Z" fill="#E6BE53"/>
<path fill-rule="evenodd" clip-rule="evenodd" d="M15.833 13.6012C15.833 13.9054 16.3413 14.0093 16.4937 13.746C16.7853 13.2421 17.1425 12.8012 17.4997 12.8012C17.8569 12.8012 18.2141 13.2421 18.5056 13.746C18.658 14.0093 19.1663 13.9054 19.1663 13.6012C19.1663 12.2757 18.4202 11.2012 17.4997 11.2012C16.5792 11.2012 15.833 12.2757 15.833 13.6012Z" fill="#215F90"/>
</g>
</svg>
