<svg width="35" height="24" viewBox="0 0 35 24" fill="none" xmlns="http://www.w3.org/2000/svg">
<rect y="0.000976562" width="35" height="24" rx="2" fill="white"/>
<mask id="mask0_636_26218" style="mask-type:alpha" maskUnits="userSpaceOnUse" x="0" y="0" width="35" height="25">
<rect y="0.000976562" width="35" height="24" rx="2" fill="white"/>
</mask>
<g mask="url(#mask0_636_26218)">
<path fill-rule="evenodd" clip-rule="evenodd" d="M11.667 24.001H23.3337V0.000976562H11.667V24.001Z" fill="#146BBC"/>
<path fill-rule="evenodd" clip-rule="evenodd" d="M0 24.001H11.6667V0.000976562H0V24.001Z" fill="#E43642"/>
<path fill-rule="evenodd" clip-rule="evenodd" d="M23.333 24.001H34.9997V0.000976562H23.333V24.001Z" fill="#E43642"/>
<path fill-rule="evenodd" clip-rule="evenodd" d="M5.83301 12.001L6.66634 12.801H4.99967L5.83301 12.001ZM3.33301 14.401H4.99967V16.801V17.601V19.201H3.33301V14.401ZM5.83301 17.601H4.99967L5.83301 19.201L6.66634 17.601V19.201H8.33301V14.401H6.66634H5.83301C6.29325 14.401 6.66634 14.0428 6.66634 13.601C6.66634 13.1591 6.29325 12.801 5.83301 12.801C5.37277 12.801 4.99967 13.1591 4.99967 13.601C4.99967 14.0428 5.37277 14.401 5.83301 14.401H4.99967L5.83301 16.001C5.37277 16.001 4.99967 16.3591 4.99967 16.801C4.99967 17.2428 5.37277 17.601 5.83301 17.601ZM6.66634 16.801C6.66634 16.3591 6.29325 16.001 5.83301 16.001L6.66634 14.401V16.801ZM6.66634 16.801C6.66634 17.2428 6.29325 17.601 5.83301 17.601H6.66634V16.801Z" fill="url(#paint0_linear_636_26218)"/>
</g>
<defs>
<linearGradient id="paint0_linear_636_26218" x1="3.33301" y1="12.001" x2="3.33301" y2="19.201" gradientUnits="userSpaceOnUse">
<stop stop-color="#F8D246"/>
<stop offset="1" stop-color="#F9CE2F"/>
</linearGradient>
</defs>
</svg>
