<svg width="35" height="24" viewBox="0 0 35 24" fill="none" xmlns="http://www.w3.org/2000/svg">
<rect y="0.000976562" width="35" height="24" rx="2" fill="white"/>
<mask id="mask0_636_26129" style="mask-type:alpha" maskUnits="userSpaceOnUse" x="0" y="0" width="35" height="25">
<rect y="0.000976562" width="35" height="24" rx="2" fill="white"/>
</mask>
<g mask="url(#mask0_636_26129)">
<path fill-rule="evenodd" clip-rule="evenodd" d="M0 24.001H35V0.000976562H0V24.001Z" fill="#079D7B"/>
<path fill-rule="evenodd" clip-rule="evenodd" d="M19.8563 10.4014C19.8563 10.7516 19.8298 11.0913 19.78 11.4151C19.9078 11.3773 20.038 11.3414 20.1704 11.3073C22.3932 10.7355 24.3771 10.9242 24.6016 11.7287C24.8046 12.4557 23.501 13.437 21.6075 14.0412C21.2729 13.0887 19.5613 12.8014 17.5 12.8014C15.4365 12.8014 13.7233 13.0894 13.3915 14.0443C11.5236 13.439 10.2434 12.468 10.4446 11.7471C10.6692 10.9426 12.6531 10.7539 14.8759 11.3257C14.9926 11.3557 15.1076 11.3872 15.2208 11.4201C15.1705 11.0949 15.1437 10.7534 15.1437 10.4014C15.1437 8.19223 16.1987 6.40137 17.5 6.40137C18.8014 6.40137 19.8563 8.19223 19.8563 10.4014ZM13.3334 14.4014H14.7915C14.5605 14.3579 14.3249 14.3059 14.0864 14.245C14.3546 14.2527 14.6853 14.2747 15.0638 14.2998C15.7489 14.3454 16.5904 14.4014 17.5 14.4014C18.4096 14.4014 19.2512 14.3454 19.9363 14.2998C20.3005 14.2756 20.6205 14.2543 20.8831 14.246C20.6363 14.3071 20.3928 14.3588 20.1546 14.4014H21.6667H24.1667C23.969 14.971 23.703 15.5078 23.3786 16.0014H11.6215C11.2971 15.5078 11.031 14.971 10.8334 14.4014H13.3334ZM17.5 19.2014C19.1834 19.2014 20.7294 18.602 21.9435 17.6014H13.0566C14.2706 18.602 15.8166 19.2014 17.5 19.2014Z" fill="white"/>
<path fill-rule="evenodd" clip-rule="evenodd" d="M17.5 4.80117C17.9602 4.80117 18.3333 4.443 18.3333 4.00117C18.3333 3.55934 17.9602 3.20117 17.5 3.20117C17.0398 3.20117 16.6667 3.55934 16.6667 4.00117C16.6667 4.443 17.0398 4.80117 17.5 4.80117ZM10.8333 8.80117C11.2936 8.80117 11.6667 8.443 11.6667 8.00117C11.6667 7.55934 11.2936 7.20117 10.8333 7.20117C10.3731 7.20117 10 7.55934 10 8.00117C10 8.443 10.3731 8.80117 10.8333 8.80117ZM25 8.00117C25 8.443 24.6269 8.80117 24.1667 8.80117C23.7064 8.80117 23.3333 8.443 23.3333 8.00117C23.3333 7.55934 23.7064 7.20117 24.1667 7.20117C24.6269 7.20117 25 7.55934 25 8.00117ZM21.6667 6.40117C22.1269 6.40117 22.5 6.043 22.5 5.60117C22.5 5.15934 22.1269 4.80117 21.6667 4.80117C21.2064 4.80117 20.8333 5.15934 20.8333 5.60117C20.8333 6.043 21.2064 6.40117 21.6667 6.40117ZM14.1667 5.60117C14.1667 6.043 13.7936 6.40117 13.3333 6.40117C12.8731 6.40117 12.5 6.043 12.5 5.60117C12.5 5.15934 12.8731 4.80117 13.3333 4.80117C13.7936 4.80117 14.1667 5.15934 14.1667 5.60117Z" fill="#FCD117"/>
</g>
</svg>
