<svg width="35" height="24" viewBox="0 0 35 24" fill="none" xmlns="http://www.w3.org/2000/svg">
<rect x="0.25" y="0.250977" width="34.5" height="23.5" rx="1.75" fill="white" stroke="#F5F5F5" stroke-width="0.5"/>
<mask id="mask0_636_26250" style="mask-type:alpha" maskUnits="userSpaceOnUse" x="0" y="0" width="35" height="25">
<rect x="0.25" y="0.250977" width="34.5" height="23.5" rx="1.75" fill="white" stroke="white" stroke-width="0.5"/>
</mask>
<g mask="url(#mask0_636_26250)">
<path fill-rule="evenodd" clip-rule="evenodd" d="M18.333 24.001H34.9997V0.000976562H18.333V24.001Z" fill="#DE233C"/>
<mask id="path-4-outside-1_636_26250" maskUnits="userSpaceOnUse" x="2.33301" y="2.20117" width="7" height="7" fill="black">
<rect fill="white" x="2.33301" y="2.20117" width="7" height="7"/>
<path fill-rule="evenodd" clip-rule="evenodd" d="M6.66634 3.20117H4.99967V4.80117H3.33301V6.40117H4.99967V8.00117H6.66634V6.40117H8.33301V4.80117H6.66634V3.20117Z"/>
</mask>
<path fill-rule="evenodd" clip-rule="evenodd" d="M6.66634 3.20117H4.99967V4.80117H3.33301V6.40117H4.99967V8.00117H6.66634V6.40117H8.33301V4.80117H6.66634V3.20117Z" fill="#CCCCCD"/>
<path d="M4.99967 3.20117V2.53451H4.33301V3.20117H4.99967ZM6.66634 3.20117H7.33301V2.53451H6.66634V3.20117ZM4.99967 4.80117V5.46784H5.66634V4.80117H4.99967ZM3.33301 4.80117V4.13451H2.66634V4.80117H3.33301ZM3.33301 6.40117H2.66634V7.06784H3.33301V6.40117ZM4.99967 6.40117H5.66634V5.73451H4.99967V6.40117ZM4.99967 8.00117H4.33301V8.66784H4.99967V8.00117ZM6.66634 8.00117V8.66784H7.33301V8.00117H6.66634ZM6.66634 6.40117V5.73451H5.99967V6.40117H6.66634ZM8.33301 6.40117V7.06784H8.99967V6.40117H8.33301ZM8.33301 4.80117H8.99967V4.13451H8.33301V4.80117ZM6.66634 4.80117H5.99967V5.46784H6.66634V4.80117ZM4.99967 3.86784H6.66634V2.53451H4.99967V3.86784ZM5.66634 4.80117V3.20117H4.33301V4.80117H5.66634ZM3.33301 5.46784H4.99967V4.13451H3.33301V5.46784ZM3.99967 6.40117V4.80117H2.66634V6.40117H3.99967ZM4.99967 5.73451H3.33301V7.06784H4.99967V5.73451ZM5.66634 8.00117V6.40117H4.33301V8.00117H5.66634ZM6.66634 7.33451H4.99967V8.66784H6.66634V7.33451ZM5.99967 6.40117V8.00117H7.33301V6.40117H5.99967ZM8.33301 5.73451H6.66634V7.06784H8.33301V5.73451ZM7.66634 4.80117V6.40117H8.99967V4.80117H7.66634ZM6.66634 5.46784H8.33301V4.13451H6.66634V5.46784ZM5.99967 3.20117V4.80117H7.33301V3.20117H5.99967Z" fill="#7B716A" fill-opacity="0.66" mask="url(#path-4-outside-1_636_26250)"/>
<path fill-rule="evenodd" clip-rule="evenodd" d="M5.83333 6.40078C6.29357 6.40078 6.66667 6.04261 6.66667 5.60078C6.66667 5.15895 6.29357 4.80078 5.83333 4.80078C5.3731 4.80078 5 5.15895 5 5.60078C5 6.04261 5.3731 6.40078 5.83333 6.40078Z" fill="#7B716A"/>
</g>
</svg>
