<svg width="35" height="24" viewBox="0 0 35 24" fill="none" xmlns="http://www.w3.org/2000/svg">
<rect y="0.000976562" width="35" height="24" rx="2" fill="white"/>
<mask id="mask0_636_26201" style="mask-type:alpha" maskUnits="userSpaceOnUse" x="0" y="0" width="35" height="25">
<rect y="0.000976562" width="35" height="24" rx="2" fill="white"/>
</mask>
<g mask="url(#mask0_636_26201)">
<rect y="0.000976562" width="35" height="24" fill="#F32249"/>
<rect x="5" y="4.80078" width="25" height="14.4" rx="0.666667" fill="#15A04F"/>
<path fill-rule="evenodd" clip-rule="evenodd" d="M20.4163 17.4725C20.0136 17.5569 19.5954 17.6014 19.1663 17.6014C15.9447 17.6014 13.333 15.0942 13.333 12.0014C13.333 8.90857 15.9447 6.40137 19.1663 6.40137C19.5954 6.40137 20.0136 6.44584 20.4163 6.53024C17.7954 7.07958 15.833 9.32047 15.833 12.0014C15.833 14.6823 17.7954 16.9232 20.4163 17.4725Z" fill="white"/>
</g>
</svg>
