<svg width="35" height="24" viewBox="0 0 35 24" fill="none" xmlns="http://www.w3.org/2000/svg">
<rect y="0.000976562" width="35" height="24" rx="2" fill="white"/>
<mask id="mask0_636_26176" style="mask-type:alpha" maskUnits="userSpaceOnUse" x="0" y="0" width="35" height="25">
<rect y="0.000976562" width="35" height="24" rx="2" fill="white"/>
</mask>
<g mask="url(#mask0_636_26176)">
<path fill-rule="evenodd" clip-rule="evenodd" d="M35 0.000976562H16.6667V1.60098H35V0.000976562ZM35 3.20098H16.6667V4.80098H35V3.20098ZM16.6667 6.40098H35V8.00098H16.6667V6.40098ZM35 9.60098H16.6667V11.201H35V9.60098ZM0 12.801H35V14.401H0V12.801ZM35 16.001H0V17.601H35V16.001ZM0 19.201H35V20.801H0V19.201ZM35 22.401H0V24.001H35V22.401Z" fill="#E1244A"/>
<rect y="0.000976562" width="20" height="12.8" fill="#0C3F8E"/>
<path fill-rule="evenodd" clip-rule="evenodd" d="M8.33301 11.2006C9.5144 11.2006 10.6001 10.8073 11.4557 10.1496C11.0025 10.3119 10.5119 10.4006 9.99967 10.4006C7.69849 10.4006 5.83301 8.60972 5.83301 6.40059C5.83301 4.19145 7.69849 2.40059 9.99967 2.40059C10.5119 2.40059 11.0025 2.48931 11.4557 2.65162C10.6001 1.99392 9.5144 1.60059 8.33301 1.60059C5.57158 1.60059 3.33301 3.74962 3.33301 6.40059C3.33301 9.05155 5.57158 11.2006 8.33301 11.2006ZM11.8867 9.28369L13.333 7.71259L14.7793 9.28369L14.4015 7.2186L16.5828 7.11265L14.6654 6.10864L15.9391 4.40542L13.926 5.21851L13.333 3.20059L12.74 5.21851L10.7269 4.40542L12.0006 6.10864L10.0832 7.11265L12.2645 7.2186L11.8867 9.28369Z" fill="#FFD34F"/>
</g>
</svg>
