<svg width="35" height="24" viewBox="0 0 35 24" fill="none" xmlns="http://www.w3.org/2000/svg">
<rect x="0.25" y="0.250977" width="34.5" height="23.5" rx="1.75" fill="white" stroke="#F5F5F5" stroke-width="0.5"/>
<path fill-rule="evenodd" clip-rule="evenodd" d="M0 2.00098C0 0.896407 0.895431 0.000976561 2 0.000976562L3.13826 0.000976563C3.26564 0.000976563 3.39035 0.0374668 3.49763 0.106129L19.4953 10.3446C20.6173 11.0627 20.1087 12.801 18.7765 12.801H10L20.5306 21.6467C21.4835 22.4471 20.9175 24.001 19.673 24.001H2C0.895432 24.001 0 23.1055 0 22.001V2.00098Z" fill="white"/>
<mask id="mask0_636_26359" style="mask-type:alpha" maskUnits="userSpaceOnUse" x="0" y="0" width="22" height="25">
<path fill-rule="evenodd" clip-rule="evenodd" d="M0 2.00098C0 0.896407 0.895431 0.000976561 2 0.000976562L3.13826 0.000976563C3.26564 0.000976563 3.39035 0.0374668 3.49763 0.106129L19.4953 10.3446C20.6173 11.0627 20.1087 12.801 18.7765 12.801H10L20.5306 21.6467C21.4835 22.4471 20.9175 24.001 19.673 24.001H2C0.895432 24.001 0 23.1055 0 22.001V2.00098Z" fill="white"/>
</mask>
<g mask="url(#mask0_636_26359)">
<path d="M10 12.1343C9.7198 12.1343 9.4695 12.3095 9.3736 12.5728C9.27769 12.8361 9.35665 13.1312 9.57121 13.3114L20.1018 22.1572C20.5783 22.5574 20.2953 23.3343 19.673 23.3343H0.666667V0.667643H3.13826L19.1359 10.9061C19.6969 11.2652 19.4426 12.1343 18.7765 12.1343H10Z" fill="#EE1B44" stroke="#0543A8" stroke-width="1.33333" stroke-linejoin="round"/>
<path fill-rule="evenodd" clip-rule="evenodd" d="M8.56405 9.36222C9.04419 9.2359 9.48684 9.06313 9.87833 8.85266C9.49002 10.2067 8.19813 11.2013 6.66426 11.2013C5.1304 11.2013 3.83851 10.2067 3.4502 8.85266C3.84278 9.06372 4.28679 9.23685 4.76846 9.36326L5.41686 8.8013L4.35716 7.88285L5.78298 7.95277L5.71015 6.58398L6.66686 7.6013L7.62357 6.58398L7.55075 7.95277L8.97656 7.88285L7.91686 8.8013L8.56405 9.36222ZM5.39125 20.5577L6.66686 19.2013L7.94247 20.5577L7.84537 18.7327L9.74646 18.8259L8.33353 17.6013L9.74646 16.3767L7.84537 16.4699L7.94247 14.6449L6.66686 16.0013L5.39125 14.6449L5.48835 16.4699L3.58726 16.3767L5.0002 17.6013L3.58726 18.8259L5.48835 18.7327L5.39125 20.5577Z" fill="white"/>
</g>
</svg>
