<svg width="35" height="24" viewBox="0 0 35 24" fill="none" xmlns="http://www.w3.org/2000/svg">
<rect y="0.000976562" width="35" height="24" rx="2" fill="white"/>
<mask id="mask0_636_26422" style="mask-type:alpha" maskUnits="userSpaceOnUse" x="0" y="0" width="35" height="25">
<rect y="0.000976562" width="35" height="24" rx="2" fill="white"/>
</mask>
<g mask="url(#mask0_636_26422)">
<rect y="0.000976562" width="35" height="24" fill="#262626"/>
<path fill-rule="evenodd" clip-rule="evenodd" d="M0 0.000976562H35V24.001L0 0.000976562Z" fill="#E8283F"/>
<path fill-rule="evenodd" clip-rule="evenodd" d="M8.33366 20.0006L7.15515 20.332L7.50033 19.2006L7.15515 18.0692L8.33366 18.4006L9.51217 18.0692L9.16699 19.2006L9.51217 20.332L8.33366 20.0006Z" fill="white"/>
<path fill-rule="evenodd" clip-rule="evenodd" d="M8.33366 10.401L7.15515 10.7323L7.50033 9.60098L7.15515 8.46961L8.33366 8.80098L9.51217 8.46961L9.16699 9.60098L9.51217 10.7323L8.33366 10.401Z" fill="white"/>
<path fill-rule="evenodd" clip-rule="evenodd" d="M4.16667 14.401L2.98816 14.7323L3.33333 13.601L2.98816 12.4696L4.16667 12.801L5.34518 12.4696L5 13.601L5.34518 14.7323L4.16667 14.401Z" fill="white"/>
<path fill-rule="evenodd" clip-rule="evenodd" d="M11.6667 13.6012L10.4882 13.9325L10.8333 12.8012L10.4882 11.6698L11.6667 12.0012L12.8452 11.6698L12.5 12.8012L12.8452 13.9325L11.6667 13.6012Z" fill="white"/>
<path fill-rule="evenodd" clip-rule="evenodd" d="M23.5767 11.1199C23.3771 11.0049 23.2154 10.7342 23.2154 10.5176L23.2154 9.04316C23.2154 8.82548 23.0523 8.70123 22.8054 8.78022L21.8576 9.08351C21.6312 9.15597 21.2845 9.1625 21.0376 9.08351L20.0899 8.78022C19.8634 8.70776 19.8383 8.55778 20.0411 8.44093L22.2649 7.16006C22.4644 7.04513 22.5718 6.79535 22.4895 6.55836L22.1736 5.64851C22.0981 5.43113 22.2 5.30711 22.4469 5.38611L23.3946 5.68939C23.6211 5.76185 23.8997 5.66853 24.0214 5.47377L25.3557 3.33899C25.4754 3.14744 25.6268 3.14878 25.7091 3.38577L26.025 4.29562C26.1005 4.513 26.1073 4.84584 26.025 5.08283L25.7091 5.99268C25.6336 6.21006 25.7574 6.38628 25.983 6.38628H27.5189C27.7456 6.38628 28.0245 6.53835 28.1462 6.7331L29.4804 8.86789C29.6002 9.05943 29.5039 9.25182 29.2875 9.29336L27.1606 9.70174C26.9343 9.74518 26.7123 9.96597 26.669 10.1737L26.2436 12.2155C26.1984 12.4327 26.0033 12.5176 25.8004 12.4007L23.5767 11.1199Z" fill="#FFD84E"/>
</g>
</svg>
