<svg width="35" height="24" viewBox="0 0 35 24" fill="none" xmlns="http://www.w3.org/2000/svg">
<rect x="0.25" y="0.250977" width="34.5" height="23.5" rx="1.75" fill="white" stroke="#F5F5F5" stroke-width="0.5"/>
<mask id="mask0_636_26453" style="mask-type:alpha" maskUnits="userSpaceOnUse" x="0" y="0" width="35" height="25">
<rect x="0.25" y="0.250977" width="34.5" height="23.5" rx="1.75" fill="white" stroke="white" stroke-width="0.5"/>
</mask>
<g mask="url(#mask0_636_26453)">
<path fill-rule="evenodd" clip-rule="evenodd" d="M35 0.000976562H10V24.001H35V0.000976562Z" fill="#0A632F"/>
<path fill-rule="evenodd" clip-rule="evenodd" d="M29.5878 12.9019C29.4274 14.4027 28.7611 15.8447 27.5833 16.9754C24.7759 19.6704 20.1258 19.5758 17.1969 16.764C14.2679 13.9522 14.1693 9.48809 16.9767 6.79305C18.1545 5.66239 19.6566 5.02273 21.2199 4.86873C20.7275 5.14732 20.2614 5.49109 19.8358 5.8996C17.2837 8.34963 17.1575 12.2007 19.5539 14.5013C21.9503 16.8018 25.9618 16.6806 28.514 14.2306C28.9395 13.8221 29.2976 13.3746 29.5878 12.9019ZM26.3657 9.72689L25.9679 12.005L24.8562 9.9564L22.4764 10.2972L24.1624 8.6492L23.0894 6.58168L25.2431 7.61179L26.9597 5.9932L26.6047 8.27784L28.7387 9.34502L26.3657 9.72689Z" fill="white"/>
</g>
</svg>
