<svg width="35" height="24" viewBox="0 0 35 24" fill="none" xmlns="http://www.w3.org/2000/svg">
<rect x="0.25" y="0.250977" width="34.5" height="23.5" rx="1.75" fill="white" stroke="#F5F5F5" stroke-width="0.5"/>
<mask id="mask0_636_26390" style="mask-type:alpha" maskUnits="userSpaceOnUse" x="0" y="0" width="35" height="25">
<rect x="0.25" y="0.250977" width="34.5" height="23.5" rx="1.75" fill="white" stroke="white" stroke-width="0.5"/>
</mask>
<g mask="url(#mask0_636_26390)">
<path fill-rule="evenodd" clip-rule="evenodd" d="M0 8.00098H35V0.000976562H0V8.00098Z" fill="#E33F39"/>
<path fill-rule="evenodd" clip-rule="evenodd" d="M0 24.001H35V16.001H0V24.001Z" fill="#124BBA"/>
<path d="M17.5 14.7339C19.0519 14.7339 20.3333 13.5229 20.3333 12.0006C20.3333 10.4783 19.0519 9.26725 17.5 9.26725C15.9481 9.26725 14.6667 10.4783 14.6667 12.0006C14.6667 13.5229 15.9481 14.7339 17.5 14.7339Z" stroke="#398153" stroke-width="0.666667"/>
<path fill-rule="evenodd" clip-rule="evenodd" d="M17.5003 12.8012C17.9606 12.8012 18.3337 12.443 18.3337 12.0012C18.3337 11.5593 17.9606 11.2012 17.5003 11.2012C17.0401 11.2012 16.667 11.5593 16.667 12.0012C16.667 12.443 17.0401 12.8012 17.5003 12.8012Z" fill="#E5CF58"/>
</g>
</svg>
