<svg width="35" height="24" viewBox="0 0 35 24" fill="none" xmlns="http://www.w3.org/2000/svg">
<rect y="0.000976562" width="35" height="24" rx="2" fill="white"/>
<mask id="mask0_636_26480" style="mask-type:alpha" maskUnits="userSpaceOnUse" x="0" y="0" width="35" height="25">
<rect y="0.000976562" width="35" height="24" rx="2" fill="white"/>
</mask>
<g mask="url(#mask0_636_26480)">
<g filter="url(#filter0_d_636_26480)">
<path fill-rule="evenodd" clip-rule="evenodd" d="M0 24.0006H35V17.6006H0V24.0006Z" fill="#2D754D"/>
</g>
<path fill-rule="evenodd" clip-rule="evenodd" d="M0 11.201H35V0.000976562H0V11.201Z" fill="#25B1EB"/>
<path fill-rule="evenodd" clip-rule="evenodd" d="M0 17.6012H35V11.2012H0V17.6012Z" fill="#FECB2F"/>
<path fill-rule="evenodd" clip-rule="evenodd" d="M26.6663 7.20137L25.3907 8.55778L25.4878 6.73274L23.5867 6.82595L24.9997 5.60137L23.5867 4.37678L25.4878 4.47L25.3907 2.64495L26.6663 4.00137L27.942 2.64495L27.8449 4.47L29.7459 4.37678L28.333 5.60137L29.7459 6.82595L27.8449 6.73274L27.942 8.55778L26.6663 7.20137Z" fill="#FECB2F"/>
</g>
<defs>
<filter id="filter0_d_636_26480" x="0" y="17.6006" width="35" height="6.40039" filterUnits="userSpaceOnUse" color-interpolation-filters="sRGB">
<feFlood flood-opacity="0" result="BackgroundImageFix"/>
<feColorMatrix in="SourceAlpha" type="matrix" values="0 0 0 0 0 0 0 0 0 0 0 0 0 0 0 0 0 0 127 0" result="hardAlpha"/>
<feOffset/>
<feColorMatrix type="matrix" values="0 0 0 0 0 0 0 0 0 0 0 0 0 0 0 0 0 0 0.06 0"/>
<feBlend mode="normal" in2="BackgroundImageFix" result="effect1_dropShadow_636_26480"/>
<feBlend mode="normal" in="SourceGraphic" in2="effect1_dropShadow_636_26480" result="shape"/>
</filter>
</defs>
</svg>
