<svg width="35" height="24" viewBox="0 0 35 24" fill="none" xmlns="http://www.w3.org/2000/svg">
<rect y="0.000976562" width="35" height="24" rx="2" fill="white"/>
<mask id="mask0_636_26620" style="mask-type:alpha" maskUnits="userSpaceOnUse" x="0" y="0" width="35" height="25">
<rect y="0.000976562" width="35" height="24" rx="2" fill="white"/>
</mask>
<g mask="url(#mask0_636_26620)">
<rect y="0.000976562" width="35" height="24" fill="url(#paint0_linear_636_26620)"/>
<path fill-rule="evenodd" clip-rule="evenodd" d="M21.667 12.0014C21.667 10.5833 21.667 8.88586 21.667 7.73433C21.667 6.99795 22.2639 6.40137 23.0003 6.40137H28.667C29.4034 6.40137 30.0003 6.99795 30.0003 7.73433C30.0003 8.88586 30.0003 10.5833 30.0003 12.0014C30.0003 16.0014 25.8337 17.6014 25.8337 17.6014C25.8337 17.6014 21.667 16.0014 21.667 12.0014Z" fill="#8FC5FF"/>
<mask id="mask1_636_26620" style="mask-type:alpha" maskUnits="userSpaceOnUse" x="21" y="6" width="9" height="12">
<path fill-rule="evenodd" clip-rule="evenodd" d="M21.667 12.0014C21.667 10.5833 21.667 8.88586 21.667 7.73433C21.667 6.99795 22.2639 6.40137 23.0003 6.40137H28.667C29.4034 6.40137 30.0003 6.99795 30.0003 7.73433C30.0003 8.88586 30.0003 10.5833 30.0003 12.0014C30.0003 16.0014 25.8337 17.6014 25.8337 17.6014C25.8337 17.6014 21.667 16.0014 21.667 12.0014Z" fill="white"/>
</mask>
<g mask="url(#mask1_636_26620)">
<path fill-rule="evenodd" clip-rule="evenodd" d="M25.1122 14.2621C25.1122 14.2621 25.9464 13.2252 26.437 13.2252C26.9276 13.2252 27.0178 13.9137 27.7722 13.9137C28.5267 13.9137 28.9245 12.8164 29.6513 12.8164C30.378 12.8164 29.6513 16.4165 29.6513 16.4165L28.6665 17.3915L22.9023 18.0307L25.1122 14.2621Z" fill="#366CC9"/>
<path fill-rule="evenodd" clip-rule="evenodd" d="M22.6577 12.6624L23.3934 12.001L24.1162 13.6998L25.0866 12.001L25.9211 16.8434L24.5333 16.5724L20 14.5826L22.6577 12.6624Z" fill="#CF6200"/>
<rect x="21.667" y="6.40137" width="8.33333" height="4.8" fill="#FFFF00"/>
</g>
<path d="M22.0003 12.0014V11.9347V11.8676V11.8002V11.7324V11.6643V11.5958V11.5271V11.4926V11.4754V11.4581V11.3888V11.3715V11.3628V11.3541V11.3193V11.2496V11.1797V11.1096V11.0744V11.0393V10.9689V10.8983V10.863V10.8277V10.7569V10.6861V10.6153V10.5444V10.4735V10.4646V10.4557V10.4469V10.438V10.4291V10.4203V10.4114V10.4026V10.3937V10.3848V10.376V10.3671V10.3583V10.3494V10.3405V10.3317V10.3228V10.314V10.3051V10.2963V10.2874V10.2786V10.2697V10.2609V10.252V10.2432V10.2343V10.2255V10.2166V10.2078V10.1989V10.1901V10.1813V10.1724V10.1636V10.1547V10.1459V10.1371V10.1282V10.1194V10.1106V10.1018V10.0929V10.0841V10.0753V10.0665V10.0576V10.0488V10.04V10.0312V10.0224V10.0136V10.0048V9.99597V9.98717V9.97837V9.96957V9.96077V9.95198V9.94319V9.9344V9.92561V9.91683V9.90804V9.89926V9.89049V9.88171V9.87294V9.86417V9.8554V9.84664V9.83788V9.82912V9.82036V9.81161V9.80286V9.79411V9.78537V9.77662V9.76789V9.75915V9.75042V9.74169V9.73296V9.72424V9.71552V9.7068V9.69809V9.68938V9.68067V9.67197V9.66327V9.65458V9.64588V9.6372V9.62851V9.61983V9.61115V9.60248V9.59381V9.58514V9.57648V9.56782V9.55916V9.55051V9.54186V9.53322V9.52458V9.51595V9.50732V9.49869V9.49007V9.48145V9.47283V9.45562V9.42124V9.35271V9.28448V9.21658V9.14902V9.08184V9.01503V8.94863V8.88265V8.81711V8.75204V8.68744V8.62333V8.55975V8.4967V8.4342V8.37227V8.31094V8.25022V8.19013V8.13069V8.07191V7.95643V7.84386V7.73433C22.0003 7.18216 22.4479 6.7347 23.0003 6.7347H28.667C29.2194 6.7347 29.667 7.18216 29.667 7.73433V7.74108V7.74785V7.75462V7.76141V7.76822V7.77503V7.78186V7.7887V7.79555V7.80242V7.80929V7.81618V7.82308V7.83V7.83692V7.84386V7.85081V7.85777V7.86474V7.87172V7.87872V7.88572V7.89274V7.89977V7.90682V7.91387V7.92094V7.92801V7.9351V7.9422V7.94931V7.95643V7.96357V7.97071V7.97787V7.98504V7.99222V7.99941V8.00661V8.01382V8.02104V8.02828V8.03552V8.04278V8.05004V8.05732V8.06461V8.07191V8.07922V8.08654V8.09387V8.10121V8.10856V8.11593V8.1233V8.13068V8.13808V8.14548V8.1529V8.16032V8.16776V8.17521V8.18266V8.19013V8.1976V8.20509V8.21259V8.22009V8.22761V8.23514V8.24267V8.25022V8.25778V8.26534V8.27292V8.2805V8.2881V8.2957V8.30332V8.31094V8.31858V8.32622V8.33387V8.34153V8.3492V8.35688V8.36457V8.37227V8.37998V8.3877V8.39543V8.40316V8.41091V8.41866V8.42643V8.4342V8.44198V8.44977V8.45757V8.46538V8.47319V8.48102V8.48885V8.4967V8.50455V8.51241V8.52028V8.52815V8.53604V8.54393V8.55184V8.55975V8.56767V8.57559V8.58353V8.59147V8.59943V8.60739V8.61536V8.62333V8.63132V8.63931V8.64731V8.65532V8.66334V8.67136V8.6794V8.68744V8.69548V8.70354V8.7116V8.71967V8.72775V8.73584V8.74393V8.75204V8.76014V8.76826V8.77639V8.78452V8.79265V8.8008V8.80895V8.81711V8.82528V8.83346V8.84164V8.84983V8.85802V8.86623V8.87444V8.88265V8.89088V8.89911V8.90734V8.91559V8.92384V8.9321V8.94036V8.94863V8.95691V8.96519V8.97348V8.98178V8.99008V8.99839V9.00671V9.01503V9.02336V9.0317V9.04004V9.04839V9.05674V9.0651V9.07346V9.08184V9.09021V9.0986V9.10699V9.11538V9.12379V9.13219V9.14061V9.14902V9.15745V9.16588V9.17432V9.18276V9.1912V9.19966V9.20811V9.21658V9.22505V9.23352V9.242V9.25049V9.25898V9.26747V9.27597V9.28448V9.29299V9.3015V9.31003V9.31855V9.32708V9.33562V9.34416V9.3527V9.36126V9.36981V9.37837V9.38694V9.3955V9.40408V9.41266V9.42124V9.42983V9.43842V9.44702V9.45562V9.46422V9.47283V9.48145V9.49007V9.49869V9.50732V9.51595V9.52458V9.53322V9.54186V9.55051V9.55916V9.56782V9.57648V9.58514V9.59381V9.60248V9.61115V9.61983V9.62851V9.63719V9.64588V9.65458V9.66327V9.67197V9.68067V9.68938V9.69809V9.7068V9.71552V9.72424V9.73296V9.74169V9.75042V9.75915V9.76789V9.77662V9.78537V9.79411V9.80286V9.81161V9.82036V9.82912V9.83788V9.84664V9.8554V9.86417V9.87294V9.88171V9.89049V9.89926V9.90804V9.91683V9.92561V9.9344V9.94319V9.95198V9.96077V9.96957V9.97837V9.98717V9.99597V10.0048V10.0136V10.0224V10.0312V10.04V10.0488V10.0576V10.0665V10.0753V10.0841V10.0929V10.1018V10.1106V10.1194V10.1282V10.1371V10.1459V10.1547V10.1636V10.1724V10.1813V10.1901V10.1989V10.2078V10.2166V10.2255V10.2343V10.2432V10.252V10.2609V10.2697V10.2786V10.2874V10.2963V10.3051V10.314V10.3228V10.3317V10.3405V10.3494V10.3583V10.3671V10.376V10.3848V10.3937V10.4026V10.4114V10.4203V10.4291V10.438V10.4469V10.4557V10.4646V10.4735V10.4823V10.4912V10.5V10.5089V10.5178V10.5266V10.5355V10.5444V10.5532V10.5621V10.5709V10.5798V10.5887V10.5975V10.6064V10.6153V10.6241V10.633V10.6418V10.6507V10.6595V10.6684V10.6773V10.6861V10.695V10.7038V10.7127V10.7215V10.7304V10.7392V10.7481V10.7569V10.7658V10.7746V10.7835V10.7923V10.8011V10.81V10.8188V10.8277V10.8365V10.8453V10.8542V10.863V10.8718V10.8807V10.8895V10.8983V10.9071V10.916V10.9248V10.9336V10.9424V10.9512V10.9601V10.9689V10.9777V10.9865V10.9953V11.0041V11.0129V11.0217V11.0305V11.0393V11.0481V11.0569V11.0657V11.0744V11.0832V11.092V11.1008V11.1096V11.1183V11.1271V11.1359V11.1446V11.1534V11.1622V11.1709V11.1797V11.1884V11.1972V11.2059V11.2147V11.2234V11.2321V11.2409V11.2496V11.2583V11.267V11.2758V11.2845V11.2932V11.3019V11.3106V11.3193V11.328V11.3367V11.3454V11.3541V11.3628V11.3715V11.3802V11.3888V11.3975V11.4062V11.4148V11.4235V11.4322V11.4408V11.4495V11.4581V11.4667V11.4754V11.484V11.4926V11.5013V11.5099V11.5185V11.5271V11.5357V11.5443V11.5529V11.5615V11.5701V11.5787V11.5873V11.5958V11.6044V11.613V11.6215V11.6301V11.6387V11.6472V11.6557V11.6643V11.6728V11.6813V11.6899V11.6984V11.7069V11.7154V11.7239V11.7324V11.7409V11.7494V11.7579V11.7663V11.7748V11.7833V11.7917V11.8002V11.8086V11.8171V11.8255V11.834V11.8424V11.8508V11.8592V11.8676V11.876V11.8844V11.8928V11.9012V11.9096V11.918V11.9263V11.9347V11.943V11.9514V11.9597V11.9681V11.9764V11.9847V11.9931V12.0014C29.667 13.872 28.6963 15.1875 27.6991 16.0491C27.2006 16.4798 26.7008 16.7918 26.3254 16.9961C26.1381 17.098 25.9827 17.1725 25.8753 17.2211C25.8605 17.2278 25.8466 17.234 25.8337 17.2397C25.8207 17.234 25.8069 17.2278 25.7921 17.2211C25.6846 17.1725 25.5293 17.098 25.3419 16.9961C24.9665 16.7918 24.4667 16.4798 23.9683 16.0491C22.971 15.1875 22.0003 13.872 22.0003 12.0014Z" stroke="white" stroke-width="0.666667"/>
<mask id="mask2_636_26620" style="mask-type:alpha" maskUnits="userSpaceOnUse" x="21" y="6" width="9" height="12">
<path d="M22.0003 12.0014V11.9347V11.8676V11.8002V11.7324V11.6643V11.5958V11.5271V11.4926V11.4754V11.4581V11.3888V11.3715V11.3628V11.3541V11.3193V11.2496V11.1797V11.1096V11.0744V11.0393V10.9689V10.8983V10.863V10.8277V10.7569V10.6861V10.6153V10.5444V10.4735V10.4646V10.4557V10.4469V10.438V10.4291V10.4203V10.4114V10.4026V10.3937V10.3848V10.376V10.3671V10.3583V10.3494V10.3405V10.3317V10.3228V10.314V10.3051V10.2963V10.2874V10.2786V10.2697V10.2609V10.252V10.2432V10.2343V10.2255V10.2166V10.2078V10.1989V10.1901V10.1813V10.1724V10.1636V10.1547V10.1459V10.1371V10.1282V10.1194V10.1106V10.1018V10.0929V10.0841V10.0753V10.0665V10.0576V10.0488V10.04V10.0312V10.0224V10.0136V10.0048V9.99597V9.98717V9.97837V9.96957V9.96077V9.95198V9.94319V9.9344V9.92561V9.91683V9.90804V9.89926V9.89049V9.88171V9.87294V9.86417V9.8554V9.84664V9.83788V9.82912V9.82036V9.81161V9.80286V9.79411V9.78537V9.77662V9.76789V9.75915V9.75042V9.74169V9.73296V9.72424V9.71552V9.7068V9.69809V9.68938V9.68067V9.67197V9.66327V9.65458V9.64588V9.6372V9.62851V9.61983V9.61115V9.60248V9.59381V9.58514V9.57648V9.56782V9.55916V9.55051V9.54186V9.53322V9.52458V9.51595V9.50732V9.49869V9.49007V9.48145V9.47283V9.45562V9.42124V9.35271V9.28448V9.21658V9.14902V9.08184V9.01503V8.94863V8.88265V8.81711V8.75204V8.68744V8.62333V8.55975V8.4967V8.4342V8.37227V8.31094V8.25022V8.19013V8.13069V8.07191V7.95643V7.84386V7.73433C22.0003 7.18216 22.4479 6.7347 23.0003 6.7347H28.667C29.2194 6.7347 29.667 7.18216 29.667 7.73433V7.74108V7.74785V7.75462V7.76141V7.76822V7.77503V7.78186V7.7887V7.79555V7.80242V7.80929V7.81618V7.82308V7.83V7.83692V7.84386V7.85081V7.85777V7.86474V7.87172V7.87872V7.88572V7.89274V7.89977V7.90682V7.91387V7.92094V7.92801V7.9351V7.9422V7.94931V7.95643V7.96357V7.97071V7.97787V7.98504V7.99222V7.99941V8.00661V8.01382V8.02104V8.02828V8.03552V8.04278V8.05004V8.05732V8.06461V8.07191V8.07922V8.08654V8.09387V8.10121V8.10856V8.11593V8.1233V8.13068V8.13808V8.14548V8.1529V8.16032V8.16776V8.17521V8.18266V8.19013V8.1976V8.20509V8.21259V8.22009V8.22761V8.23514V8.24267V8.25022V8.25778V8.26534V8.27292V8.2805V8.2881V8.2957V8.30332V8.31094V8.31858V8.32622V8.33387V8.34153V8.3492V8.35688V8.36457V8.37227V8.37998V8.3877V8.39543V8.40316V8.41091V8.41866V8.42643V8.4342V8.44198V8.44977V8.45757V8.46538V8.47319V8.48102V8.48885V8.4967V8.50455V8.51241V8.52028V8.52815V8.53604V8.54393V8.55184V8.55975V8.56767V8.57559V8.58353V8.59147V8.59943V8.60739V8.61536V8.62333V8.63132V8.63931V8.64731V8.65532V8.66334V8.67136V8.6794V8.68744V8.69548V8.70354V8.7116V8.71967V8.72775V8.73584V8.74393V8.75204V8.76014V8.76826V8.77639V8.78452V8.79265V8.8008V8.80895V8.81711V8.82528V8.83346V8.84164V8.84983V8.85802V8.86623V8.87444V8.88265V8.89088V8.89911V8.90734V8.91559V8.92384V8.9321V8.94036V8.94863V8.95691V8.96519V8.97348V8.98178V8.99008V8.99839V9.00671V9.01503V9.02336V9.0317V9.04004V9.04839V9.05674V9.0651V9.07346V9.08184V9.09021V9.0986V9.10699V9.11538V9.12379V9.13219V9.14061V9.14902V9.15745V9.16588V9.17432V9.18276V9.1912V9.19966V9.20811V9.21658V9.22505V9.23352V9.242V9.25049V9.25898V9.26747V9.27597V9.28448V9.29299V9.3015V9.31003V9.31855V9.32708V9.33562V9.34416V9.3527V9.36126V9.36981V9.37837V9.38694V9.3955V9.40408V9.41266V9.42124V9.42983V9.43842V9.44702V9.45562V9.46422V9.47283V9.48145V9.49007V9.49869V9.50732V9.51595V9.52458V9.53322V9.54186V9.55051V9.55916V9.56782V9.57648V9.58514V9.59381V9.60248V9.61115V9.61983V9.62851V9.63719V9.64588V9.65458V9.66327V9.67197V9.68067V9.68938V9.69809V9.7068V9.71552V9.72424V9.73296V9.74169V9.75042V9.75915V9.76789V9.77662V9.78537V9.79411V9.80286V9.81161V9.82036V9.82912V9.83788V9.84664V9.8554V9.86417V9.87294V9.88171V9.89049V9.89926V9.90804V9.91683V9.92561V9.9344V9.94319V9.95198V9.96077V9.96957V9.97837V9.98717V9.99597V10.0048V10.0136V10.0224V10.0312V10.04V10.0488V10.0576V10.0665V10.0753V10.0841V10.0929V10.1018V10.1106V10.1194V10.1282V10.1371V10.1459V10.1547V10.1636V10.1724V10.1813V10.1901V10.1989V10.2078V10.2166V10.2255V10.2343V10.2432V10.252V10.2609V10.2697V10.2786V10.2874V10.2963V10.3051V10.314V10.3228V10.3317V10.3405V10.3494V10.3583V10.3671V10.376V10.3848V10.3937V10.4026V10.4114V10.4203V10.4291V10.438V10.4469V10.4557V10.4646V10.4735V10.4823V10.4912V10.5V10.5089V10.5178V10.5266V10.5355V10.5444V10.5532V10.5621V10.5709V10.5798V10.5887V10.5975V10.6064V10.6153V10.6241V10.633V10.6418V10.6507V10.6595V10.6684V10.6773V10.6861V10.695V10.7038V10.7127V10.7215V10.7304V10.7392V10.7481V10.7569V10.7658V10.7746V10.7835V10.7923V10.8011V10.81V10.8188V10.8277V10.8365V10.8453V10.8542V10.863V10.8718V10.8807V10.8895V10.8983V10.9071V10.916V10.9248V10.9336V10.9424V10.9512V10.9601V10.9689V10.9777V10.9865V10.9953V11.0041V11.0129V11.0217V11.0305V11.0393V11.0481V11.0569V11.0657V11.0744V11.0832V11.092V11.1008V11.1096V11.1183V11.1271V11.1359V11.1446V11.1534V11.1622V11.1709V11.1797V11.1884V11.1972V11.2059V11.2147V11.2234V11.2321V11.2409V11.2496V11.2583V11.267V11.2758V11.2845V11.2932V11.3019V11.3106V11.3193V11.328V11.3367V11.3454V11.3541V11.3628V11.3715V11.3802V11.3888V11.3975V11.4062V11.4148V11.4235V11.4322V11.4408V11.4495V11.4581V11.4667V11.4754V11.484V11.4926V11.5013V11.5099V11.5185V11.5271V11.5357V11.5443V11.5529V11.5615V11.5701V11.5787V11.5873V11.5958V11.6044V11.613V11.6215V11.6301V11.6387V11.6472V11.6557V11.6643V11.6728V11.6813V11.6899V11.6984V11.7069V11.7154V11.7239V11.7324V11.7409V11.7494V11.7579V11.7663V11.7748V11.7833V11.7917V11.8002V11.8086V11.8171V11.8255V11.834V11.8424V11.8508V11.8592V11.8676V11.876V11.8844V11.8928V11.9012V11.9096V11.918V11.9263V11.9347V11.943V11.9514V11.9597V11.9681V11.9764V11.9847V11.9931V12.0014C29.667 13.872 28.6963 15.1875 27.6991 16.0491C27.2006 16.4798 26.7008 16.7918 26.3254 16.9961C26.1381 17.098 25.9827 17.1725 25.8753 17.2211C25.8605 17.2278 25.8466 17.234 25.8337 17.2397C25.8207 17.234 25.8069 17.2278 25.7921 17.2211C25.6846 17.1725 25.5293 17.098 25.3419 16.9961C24.9665 16.7918 24.4667 16.4798 23.9683 16.0491C22.971 15.1875 22.0003 13.872 22.0003 12.0014Z" fill="white" stroke="white" stroke-width="0.666667"/>
</mask>
<g mask="url(#mask2_636_26620)">
</g>
<path d="M0 -0.332357H-0.929698L-0.211799 0.258372L5.5 4.95837V6.22537L-0.188509 10.1261L-0.333333 10.2254V10.401V11.201V11.7897L0.171499 11.4868L6.759 7.53431H8.23003L13.9094 11.4288C14.0097 11.4975 14.1284 11.5343 14.25 11.5343C14.8151 11.5343 15.0691 10.8261 14.6327 10.467L9.5 6.24359V4.97658L15.0437 1.17519C15.225 1.05088 15.3333 0.845192 15.3333 0.625375V0.000976562V-0.587754L14.8285 -0.284854L8.241 3.66764H6.76998L1.02184 -0.273933L0.936642 -0.332357H0.833333H0Z" fill="#DB1E36" stroke="white" stroke-width="0.666667"/>
<path fill-rule="evenodd" clip-rule="evenodd" d="M0 4.00098V7.20098H5.83333V11.3343C5.83333 11.7025 6.13181 12.001 6.5 12.001H8.5C8.86819 12.001 9.16667 11.7025 9.16667 11.3343V7.20098H15.1667C15.5349 7.20098 15.8333 6.9025 15.8333 6.53431V4.66764C15.8333 4.29945 15.5349 4.00098 15.1667 4.00098H9.16667V0.000976562H5.83333V4.00098H0Z" fill="white"/>
<path fill-rule="evenodd" clip-rule="evenodd" d="M0 4.80098H6.66667V4.00098V0.000976562H8.33333V4.00098V4.80098H15V6.40098H8.33333V7.20098V11.201H6.66667V7.20098V6.40098H0V4.80098Z" fill="#DB1E36"/>
</g>
<defs>
<linearGradient id="paint0_linear_636_26620" x1="0" y1="0.000976562" x2="0" y2="24.001" gradientUnits="userSpaceOnUse">
<stop stop-color="#07319C"/>
<stop offset="1" stop-color="#00247E"/>
</linearGradient>
</defs>
</svg>
