<svg width="35" height="24" viewBox="0 0 35 24" fill="none" xmlns="http://www.w3.org/2000/svg">
<rect y="0.000976562" width="35" height="24" rx="2" fill="white"/>
<mask id="mask0_636_26497" style="mask-type:alpha" maskUnits="userSpaceOnUse" x="0" y="0" width="35" height="25">
<rect y="0.000976562" width="35" height="24" rx="2" fill="white"/>
</mask>
<g mask="url(#mask0_636_26497)">
<path fill-rule="evenodd" clip-rule="evenodd" d="M0 4.80098H35V0.000976562H0V4.80098Z" fill="#486BCA"/>
<path fill-rule="evenodd" clip-rule="evenodd" d="M0 24.0012H35V19.2012H0V24.0012Z" fill="#486BCA"/>
<path fill-rule="evenodd" clip-rule="evenodd" d="M0 19.2008H35V4.80078H0V19.2008Z" fill="#FFDF20"/>
<path fill-rule="evenodd" clip-rule="evenodd" d="M0 17.6014H35V6.40137H0V17.6014Z" fill="#CF1615"/>
<path fill-rule="evenodd" clip-rule="evenodd" d="M17.5 16.001C21.6421 16.001 25 12.001 25 12.001C25 12.001 21.6421 8.00098 17.5 8.00098C13.3579 8.00098 10 12.001 10 12.001C10 12.001 13.3579 16.001 17.5 16.001Z" fill="white"/>
<mask id="mask1_636_26497" style="mask-type:alpha" maskUnits="userSpaceOnUse" x="10" y="8" width="15" height="9">
<path fill-rule="evenodd" clip-rule="evenodd" d="M17.5 16.001C21.6421 16.001 25 12.001 25 12.001C25 12.001 21.6421 8.00098 17.5 8.00098C13.3579 8.00098 10 12.001 10 12.001C10 12.001 13.3579 16.001 17.5 16.001Z" fill="white"/>
</mask>
<g mask="url(#mask1_636_26497)">
<path fill-rule="evenodd" clip-rule="evenodd" d="M18.333 8.00098H9.99968V16.001H16.6663L18.333 8.00098Z" fill="#262626"/>
<path fill-rule="evenodd" clip-rule="evenodd" d="M19.1663 12.8012C19.6266 12.8012 19.9997 12.443 19.9997 12.0012C19.9997 11.5593 19.6266 11.2012 19.1663 11.2012C18.7061 11.2012 18.333 11.5593 18.333 12.0012C18.333 12.443 18.7061 12.8012 19.1663 12.8012Z" fill="#1A1A1A"/>
<path fill-rule="evenodd" clip-rule="evenodd" d="M15.8333 12.8012C16.2936 12.8012 16.6667 12.443 16.6667 12.0012C16.6667 11.5593 16.2936 11.2012 15.8333 11.2012C15.3731 11.2012 15 11.5593 15 12.0012C15 12.443 15.3731 12.8012 15.8333 12.8012Z" fill="#F6F6F6"/>
</g>
</g>
</svg>
