<svg width="35" height="24" viewBox="0 0 35 24" fill="none" xmlns="http://www.w3.org/2000/svg">
<rect y="0.000976562" width="35" height="24" rx="2" fill="white"/>
<mask id="mask0_636_26672" style="mask-type:alpha" maskUnits="userSpaceOnUse" x="0" y="0" width="35" height="25">
<rect y="0.000976562" width="35" height="24" rx="2" fill="white"/>
</mask>
<g mask="url(#mask0_636_26672)">
<rect y="0.000976562" width="35" height="24" fill="#FFD44D"/>
<path fill-rule="evenodd" clip-rule="evenodd" d="M15 0.000976562H35V4.80098H15V0.000976562ZM15 9.60098H35V14.401H15V9.60098ZM35 19.201H0V24.001H35V19.201Z" fill="#159A74"/>
<rect y="0.000976562" width="15" height="14.4" fill="#ED1F45"/>
<path fill-rule="evenodd" clip-rule="evenodd" d="M7.5 9.07337L4.56107 11.0846L5.64544 7.77985L2.74472 5.71809L6.35382 5.68689L7.5 2.40137L8.64618 5.68689L12.2553 5.71809L9.35456 7.77985L10.4389 11.0846L7.5 9.07337Z" fill="white"/>
</g>
</svg>
