<svg width="35" height="24" viewBox="0 0 35 24" fill="none" xmlns="http://www.w3.org/2000/svg">
<rect x="0.25" y="0.250977" width="34.5" height="23.5" rx="1.75" fill="white" stroke="#F5F5F5" stroke-width="0.5"/>
<mask id="mask0_636_26653" style="mask-type:alpha" maskUnits="userSpaceOnUse" x="0" y="0" width="35" height="25">
<rect x="0.25" y="0.250977" width="34.5" height="23.5" rx="1.75" fill="white" stroke="white" stroke-width="0.5"/>
</mask>
<g mask="url(#mask0_636_26653)">
<path fill-rule="evenodd" clip-rule="evenodd" d="M0 8.00098H35V0.000976562H0V8.00098Z" fill="#D9101C"/>
<path fill-rule="evenodd" clip-rule="evenodd" d="M0 24.001H35V16.001H0V24.001Z" fill="#0F7811"/>
<path fill-rule="evenodd" clip-rule="evenodd" d="M16.667 10.4006C16.667 10.8424 16.2939 11.2006 15.8337 11.2006C15.3734 11.2006 15.0003 10.8424 15.0003 10.4006C15.0003 9.95876 15.3734 9.60059 15.8337 9.60059C16.2939 9.60059 16.667 9.95876 16.667 10.4006ZM18.3337 12.0006C18.3337 12.1453 18.2936 12.4526 18.2236 12.8006H19.3337C19.7018 12.8006 20.0003 13.0991 20.0003 13.4673V13.7339C20.0003 14.1021 19.7018 14.4006 19.3337 14.4006H17.5003H15.667C15.2988 14.4006 15.0003 14.1021 15.0003 13.7339V13.4673C15.0003 13.0991 15.2988 12.8006 15.667 12.8006H16.777C16.707 12.4526 16.667 12.1453 16.667 12.0006C16.667 11.5588 17.0401 11.2006 17.5003 11.2006C17.9606 11.2006 18.3337 11.5588 18.3337 12.0006ZM20.0003 10.4006C20.0003 10.8424 19.6272 11.2006 19.167 11.2006C18.7068 11.2006 18.3337 10.8424 18.3337 10.4006C18.3337 9.95876 18.7068 9.60059 19.167 9.60059C19.6272 9.60059 20.0003 9.95876 20.0003 10.4006ZM22.5003 12.8006C22.9606 12.8006 23.3337 12.4424 23.3337 12.0006C23.3337 11.5588 22.9606 11.2006 22.5003 11.2006C22.0401 11.2006 21.667 11.5588 21.667 12.0006C21.667 12.4424 22.0401 12.8006 22.5003 12.8006ZM13.3337 12.0006C13.3337 12.4424 12.9606 12.8006 12.5003 12.8006C12.0401 12.8006 11.667 12.4424 11.667 12.0006C11.667 11.5588 12.0401 11.2006 12.5003 11.2006C12.9606 11.2006 13.3337 11.5588 13.3337 12.0006Z" fill="#FAD14E"/>
</g>
</svg>
