<svg width="35" height="24" viewBox="0 0 35 24" fill="none" xmlns="http://www.w3.org/2000/svg">
<rect y="0.000976562" width="35" height="24" rx="2" fill="white"/>
<mask id="mask0_636_26688" style="mask-type:alpha" maskUnits="userSpaceOnUse" x="0" y="0" width="35" height="25">
<rect y="0.000976562" width="35" height="24" rx="2" fill="white"/>
</mask>
<g mask="url(#mask0_636_26688)">
<rect y="0.000976562" width="35" height="24" fill="#E92434"/>
<path fill-rule="evenodd" clip-rule="evenodd" d="M25 12.0008C25 15.9772 21.6421 19.2008 17.5 19.2008C13.3579 19.2008 10 15.9772 10 12.0008C10 8.02433 13.3579 4.80078 17.5 4.80078C21.6421 4.80078 25 8.02433 25 12.0008ZM15 12.0008C15 14.6606 17.0802 16.854 19.7639 17.1634C19.0678 17.4451 18.3028 17.6008 17.5 17.6008C14.2783 17.6008 11.6667 15.0936 11.6667 12.0008C11.6667 8.90799 14.2783 6.40078 17.5 6.40078C18.3028 6.40078 19.0678 6.55649 19.7639 6.83815C17.0802 7.1476 15 9.34098 15 12.0008ZM18.9117 15.1869L20.4427 13.4049L22.6968 14.2133L21.4045 12.2647L22.9018 10.4566L20.5722 11.0343L19.2435 9.10847L19.096 11.414L16.7775 12.032L19.016 12.8791L18.9117 15.1869Z" fill="white"/>
</g>
</svg>
