<svg width="35" height="24" viewBox="0 0 35 24" fill="none" xmlns="http://www.w3.org/2000/svg">
<rect y="0.000976562" width="35" height="24" rx="2" fill="white"/>
<mask id="mask0_636_26699" style="mask-type:alpha" maskUnits="userSpaceOnUse" x="0" y="0" width="35" height="25">
<rect y="0.000976562" width="35" height="24" rx="2" fill="white"/>
</mask>
<g mask="url(#mask0_636_26699)">
<rect y="0.000976562" width="35" height="24" fill="#E92434"/>
<path fill-rule="evenodd" clip-rule="evenodd" d="M23.776 12.9228L22.245 14.7048L22.3493 12.397L20.1108 11.5499L22.4293 10.9319L22.5768 8.62638L23.9054 10.5522L26.2351 9.9745L24.7378 11.7827L26.03 13.7312L23.776 12.9228Z" fill="white"/>
<path fill-rule="evenodd" clip-rule="evenodd" d="M21.7531 16.4217C20.3807 18.113 18.2392 19.2008 15.833 19.2008C11.6909 19.2008 8.33301 15.9772 8.33301 12.0008C8.33301 8.02433 11.6909 4.80078 15.833 4.80078C18.2392 4.80078 20.3807 5.88857 21.7531 7.57984C20.6941 6.84092 19.3626 6.40078 17.9163 6.40078C14.4646 6.40078 11.6663 8.90799 11.6663 12.0008C11.6663 15.0936 14.4646 17.6008 17.9163 17.6008C19.3626 17.6008 20.6941 17.1606 21.7531 16.4217Z" fill="white"/>
</g>
</svg>
