<svg width="35" height="24" viewBox="0 0 35 24" fill="none" xmlns="http://www.w3.org/2000/svg">
<rect y="0.000976562" width="35" height="24" rx="2" fill="white"/>
<mask id="mask0_636_26794" style="mask-type:alpha" maskUnits="userSpaceOnUse" x="0" y="0" width="35" height="25">
<rect y="0.000976562" width="35" height="24" rx="2" fill="white"/>
</mask>
<g mask="url(#mask0_636_26794)">
<path fill-rule="evenodd" clip-rule="evenodd" d="M0 3.20098H35V0.000976562H0V3.20098Z" fill="#262626"/>
<path fill-rule="evenodd" clip-rule="evenodd" d="M0 16.0008H35V12.8008H0V16.0008Z" fill="#262626"/>
<path fill-rule="evenodd" clip-rule="evenodd" d="M0 12.801H35V8.00098H0V12.801Z" fill="#ED1623"/>
<path fill-rule="evenodd" clip-rule="evenodd" d="M0 8.00117H35V3.20117H0V8.00117Z" fill="#FEE044"/>
<path fill-rule="evenodd" clip-rule="evenodd" d="M0 24.0008H35V20.8008H0V24.0008Z" fill="#ED1623"/>
<path fill-rule="evenodd" clip-rule="evenodd" d="M0 20.801H35V16.001H0V20.801Z" fill="#FEE044"/>
<path fill-rule="evenodd" clip-rule="evenodd" d="M17.5003 17.6014C20.722 17.6014 23.3337 15.0942 23.3337 12.0014C23.3337 8.90857 20.722 6.40137 17.5003 6.40137C14.2787 6.40137 11.667 8.90857 11.667 12.0014C11.667 15.0942 14.2787 17.6014 17.5003 17.6014Z" fill="white"/>
<path fill-rule="evenodd" clip-rule="evenodd" d="M16.0838 9.04172C15.9472 8.91053 15.9472 8.69198 16.0838 8.5608L16.6471 8.02009C16.6601 8.00755 16.6719 7.99419 16.6831 7.97997C16.7352 7.91376 16.9036 7.70851 17.0814 7.58543C17.2735 7.45255 17.7355 7.43944 17.9305 7.56806C18.0423 7.64183 18.1455 7.75413 18.2195 7.84591C18.2944 7.93881 18.2994 8.06651 18.2442 8.17234L17.5377 9.52888C17.5129 9.57643 17.5 9.62925 17.5 9.68286V10.1915C17.5 10.3197 17.5735 10.4365 17.6891 10.492L19.1186 11.1782C19.1504 11.1935 19.1797 11.2137 19.2052 11.2382L20.6532 12.6283C20.76 12.7308 20.7864 12.8915 20.718 13.0228L20.2055 14.0067C20.1028 14.2039 19.8395 14.2471 19.679 14.0931L19.3975 13.8229C19.2685 13.699 19.0648 13.699 18.9358 13.8229L18.4358 14.3029C18.3703 14.3657 18.3333 14.4526 18.3333 14.5433V15.0592C18.3333 15.15 18.3703 15.2368 18.4358 15.2996L18.569 15.4275C18.7856 15.6354 18.6384 16.0013 18.3381 16.0013H17.4952C17.195 16.0013 17.0478 15.6354 17.2644 15.4275L17.3975 15.2996C17.463 15.2368 17.5 15.15 17.5 15.0592V14.7346C17.5 14.5505 17.3508 14.4013 17.1667 14.4013H16.8008C16.7147 14.4013 16.632 14.4345 16.5699 14.4941L16.0642 14.9796C15.9352 15.1035 15.7315 15.1035 15.6025 14.9796L15.2505 14.6417C15.1138 14.5105 15.1138 14.292 15.2505 14.1608L15.7366 13.6941C15.7987 13.6345 15.8814 13.6013 15.9674 13.6013H16.6715C16.9717 13.6013 17.1189 13.2354 16.9023 13.0275L15.2505 11.4417C15.1138 11.3105 15.1138 11.092 15.2505 10.9608L16.4162 9.84172C16.5528 9.71053 16.5528 9.49198 16.4162 9.3608L16.0838 9.04172Z" fill="#262626"/>
</g>
</svg>
