<svg width="35" height="24" viewBox="0 0 35 24" fill="none" xmlns="http://www.w3.org/2000/svg">
<rect x="0.25" y="0.250977" width="34.5" height="23.5" rx="1.75" fill="white" stroke="#F5F5F5" stroke-width="0.5"/>
<mask id="mask0_636_26780" style="mask-type:alpha" maskUnits="userSpaceOnUse" x="0" y="0" width="35" height="25">
<rect x="0.25" y="0.250977" width="34.5" height="23.5" rx="1.75" fill="white" stroke="white" stroke-width="0.5"/>
</mask>
<g mask="url(#mask0_636_26780)">
<path fill-rule="evenodd" clip-rule="evenodd" d="M0 8.00098H35V0.000976562H0V8.00098Z" fill="#04AAC8"/>
<path fill-rule="evenodd" clip-rule="evenodd" d="M0 24.001H35V16.001H0V24.001Z" fill="#23C840"/>
<path fill-rule="evenodd" clip-rule="evenodd" d="M5.83301 6.40059C6.34711 6.40059 6.82496 6.25162 7.22229 5.99619C7.17625 5.9991 7.12981 6.00059 7.08301 6.00059C5.93241 6.00059 4.99967 5.10516 4.99967 4.00059C4.99967 2.89602 5.93241 2.00059 7.08301 2.00059C7.12981 2.00059 7.17625 2.00207 7.22229 2.00498C6.82496 1.74956 6.34711 1.60059 5.83301 1.60059C4.4523 1.60059 3.33301 2.6751 3.33301 4.00059C3.33301 5.32607 4.4523 6.40059 5.83301 6.40059ZM9.99967 5.60059C9.99967 6.04241 9.62658 6.40059 9.16634 6.40059C8.7061 6.40059 8.33301 6.04241 8.33301 5.60059C8.33301 5.15876 8.7061 4.80059 9.16634 4.80059C9.62658 4.80059 9.99967 5.15876 9.99967 5.60059ZM12.4997 3.20059C12.9599 3.20059 13.333 2.84241 13.333 2.40059C13.333 1.95876 12.9599 1.60059 12.4997 1.60059C12.0394 1.60059 11.6663 1.95876 11.6663 2.40059C11.6663 2.84241 12.0394 3.20059 12.4997 3.20059ZM16.6663 2.40059C16.6663 2.84241 16.2932 3.20059 15.833 3.20059C15.3728 3.20059 14.9997 2.84241 14.9997 2.40059C14.9997 1.95876 15.3728 1.60059 15.833 1.60059C16.2932 1.60059 16.6663 1.95876 16.6663 2.40059ZM15.833 6.40059C16.2932 6.40059 16.6663 6.04241 16.6663 5.60059C16.6663 5.15876 16.2932 4.80059 15.833 4.80059C15.3728 4.80059 14.9997 5.15876 14.9997 5.60059C14.9997 6.04241 15.3728 6.40059 15.833 6.40059ZM13.333 5.60059C13.333 6.04241 12.9599 6.40059 12.4997 6.40059C12.0394 6.40059 11.6663 6.04241 11.6663 5.60059C11.6663 5.15876 12.0394 4.80059 12.4997 4.80059C12.9599 4.80059 13.333 5.15876 13.333 5.60059Z" fill="white"/>
</g>
</svg>
