<svg width="35" height="24" viewBox="0 0 35 24" fill="none" xmlns="http://www.w3.org/2000/svg">
<rect y="0.000976562" width="35" height="24" rx="2" fill="white"/>
<mask id="mask0_636_26887" style="mask-type:alpha" maskUnits="userSpaceOnUse" x="0" y="0" width="35" height="25">
<rect y="0.000976562" width="35" height="24" rx="2" fill="white"/>
</mask>
<g mask="url(#mask0_636_26887)">
<rect y="0.000976562" width="35" height="24" fill="#07319C"/>
<path fill-rule="evenodd" clip-rule="evenodd" d="M21.667 12.0014C21.667 10.5833 21.667 8.88586 21.667 7.73433C21.667 6.99795 22.2639 6.40137 23.0003 6.40137H28.667C29.4034 6.40137 30.0003 6.99795 30.0003 7.73433C30.0003 8.88586 30.0003 10.5833 30.0003 12.0014C30.0003 16.0014 25.8337 17.6014 25.8337 17.6014C25.8337 17.6014 21.667 16.0014 21.667 12.0014Z" fill="#008339"/>
<mask id="mask1_636_26887" style="mask-type:alpha" maskUnits="userSpaceOnUse" x="21" y="6" width="9" height="12">
<path fill-rule="evenodd" clip-rule="evenodd" d="M21.667 12.0014C21.667 10.5833 21.667 8.88586 21.667 7.73433C21.667 6.99795 22.2639 6.40137 23.0003 6.40137H28.667C29.4034 6.40137 30.0003 6.99795 30.0003 7.73433C30.0003 8.88586 30.0003 10.5833 30.0003 12.0014C30.0003 16.0014 25.8337 17.6014 25.8337 17.6014C25.8337 17.6014 21.667 16.0014 21.667 12.0014Z" fill="white"/>
</mask>
<g mask="url(#mask1_636_26887)">
<path fill-rule="evenodd" clip-rule="evenodd" d="M24.1673 9.60098C24.6276 9.60098 25.0007 9.2428 25.0007 8.80098C25.0007 8.35915 24.6276 8.00098 24.1673 8.00098C23.7071 8.00098 23.334 8.35915 23.334 8.80098C23.334 9.2428 23.7071 9.60098 24.1673 9.60098ZM24.1673 11.201C24.6276 11.201 25.0007 10.8428 25.0007 10.401C25.0007 9.95915 24.6276 9.60098 24.1673 9.60098C23.7071 9.60098 23.334 9.95915 23.334 10.401C23.334 10.8428 23.7071 11.201 24.1673 11.201ZM24.1673 12.801C23.7071 12.801 23.334 12.4428 23.334 12.001C23.334 11.5591 23.7071 11.201 24.1673 11.201C24.6276 11.201 25.0007 11.5591 25.0007 12.001C25.0007 12.4428 24.6276 12.801 24.1673 12.801ZM24.1673 12.801C24.6276 12.801 25.0007 13.1591 25.0007 13.601C25.0007 14.0428 24.6276 14.401 24.1673 14.401C23.7071 14.401 23.334 14.0428 23.334 13.601C23.334 13.1591 23.7071 12.801 24.1673 12.801ZM28.334 13.601C28.334 14.0428 27.9609 14.401 27.5007 14.401C27.0404 14.401 26.6673 14.0428 26.6673 13.601C26.6673 13.1591 27.0404 12.801 27.5007 12.801C27.9609 12.801 28.334 13.1591 28.334 13.601ZM27.5007 11.201C27.9609 11.201 28.334 11.5591 28.334 12.001C28.334 12.4428 27.9609 12.801 27.5007 12.801C27.0404 12.801 26.6673 12.4428 26.6673 12.001C26.6673 11.5591 27.0404 11.201 27.5007 11.201ZM27.5007 9.60098C27.9609 9.60098 28.334 9.2428 28.334 8.80098C28.334 8.35915 27.9609 8.00098 27.5007 8.00098C27.0404 8.00098 26.6673 8.35915 26.6673 8.80098C26.6673 9.2428 27.0404 9.60098 27.5007 9.60098ZM27.5007 9.60098C27.0404 9.60098 26.6673 9.95915 26.6673 10.401C26.6673 10.8428 27.0404 11.201 27.5007 11.201C27.9609 11.201 28.334 10.8428 28.334 10.401C28.334 9.95915 27.9609 9.60098 27.5007 9.60098Z" fill="#FFD033"/>
<path fill-rule="evenodd" clip-rule="evenodd" d="M25.8333 13.6018C26.2936 13.6018 26.6667 12.5272 26.6667 11.2018C26.6667 9.87627 26.2936 8.80176 25.8333 8.80176C25.3731 8.80176 25 9.87627 25 11.2018C25 12.5272 25.3731 13.6018 25.8333 13.6018Z" fill="white"/>
</g>
<path d="M20.833 16.0012C20.833 17.527 23.1095 18.4012 25.833 18.4012C28.5565 18.4012 30.833 17.527 30.833 16.0012C30.833 15.5593 30.4599 15.2012 29.9997 15.2012C29.5394 15.2012 29.1663 15.5593 29.1663 16.0012C29.1663 16.0165 28.9643 16.1999 28.4698 16.3898C27.7984 16.6476 26.8527 16.8012 25.833 16.8012C24.8134 16.8012 23.8676 16.6476 23.1962 16.3898C22.7017 16.1999 22.4997 16.0165 22.4997 16.0012C22.4997 15.5593 22.1266 15.2012 21.6663 15.2012C21.2061 15.2012 20.833 15.5593 20.833 16.0012Z" fill="#FFD033"/>
<path d="M0 -0.332357H-0.929698L-0.211799 0.258372L5.5 4.95837V6.22537L-0.188509 10.1261L-0.333333 10.2254V10.401V11.201V11.7897L0.171499 11.4868L6.759 7.53431H8.23003L13.9094 11.4288C14.0097 11.4975 14.1284 11.5343 14.25 11.5343C14.8151 11.5343 15.0691 10.8261 14.6327 10.467L9.5 6.24359V4.97658L15.0437 1.17519C15.225 1.05088 15.3333 0.845192 15.3333 0.625375V0.000976562V-0.587754L14.8285 -0.284854L8.241 3.66764H6.76998L1.02184 -0.273933L0.936642 -0.332357H0.833333H0Z" fill="#DB1E36" stroke="white" stroke-width="0.666667"/>
<path fill-rule="evenodd" clip-rule="evenodd" d="M0 4.00098V7.20098H5.83333V11.3343C5.83333 11.7025 6.13181 12.001 6.5 12.001H8.5C8.86819 12.001 9.16667 11.7025 9.16667 11.3343V7.20098H15.1667C15.5349 7.20098 15.8333 6.9025 15.8333 6.53431V4.66764C15.8333 4.29945 15.5349 4.00098 15.1667 4.00098H9.16667V0.000976562H5.83333V4.00098H0Z" fill="white"/>
<path fill-rule="evenodd" clip-rule="evenodd" d="M0 4.80098H6.66667V4.00098V0.000976562H8.33333V4.00098V4.80098H15V6.40098H8.33333V7.20098V11.201H6.66667V7.20098V6.40098H0V4.80098Z" fill="#DB1E36"/>
</g>
</svg>
