<svg width="35" height="24" viewBox="0 0 35 24" fill="none" xmlns="http://www.w3.org/2000/svg">
<rect y="0.000976562" width="35" height="24" rx="2" fill="white"/>
<mask id="mask0_636_26878" style="mask-type:alpha" maskUnits="userSpaceOnUse" x="0" y="0" width="35" height="25">
<rect y="0.000976562" width="35" height="24" rx="2" fill="white"/>
</mask>
<g mask="url(#mask0_636_26878)">
<g filter="url(#filter0_d_636_26878)">
<path fill-rule="evenodd" clip-rule="evenodd" d="M0 24.0014H35V14.4014H0V24.0014Z" fill="#009543"/>
</g>
<g filter="url(#filter1_d_636_26878)">
<path fill-rule="evenodd" clip-rule="evenodd" d="M0 9.60098H35V0.000976562H0V9.60098Z" fill="#D21034"/>
</g>
<path fill-rule="evenodd" clip-rule="evenodd" d="M0 14.4006H35V9.60059H0V14.4006Z" fill="#262626"/>
<path fill-rule="evenodd" clip-rule="evenodd" d="M0 0.000976562L16.6667 12.001L0 24.001V0.000976562Z" fill="#262626"/>
<path d="M-1.00033 21.1271V2.87404L12.163 12.0006L-1.00033 21.1271Z" stroke="#FDCE12" stroke-width="1.33333"/>
<path fill-rule="evenodd" clip-rule="evenodd" d="M11.667 12.8012H35.0003V11.2012H11.667V12.8012Z" fill="#FDCE12"/>
</g>
<defs>
<filter id="filter0_d_636_26878" x="0" y="14.4014" width="35" height="9.59961" filterUnits="userSpaceOnUse" color-interpolation-filters="sRGB">
<feFlood flood-opacity="0" result="BackgroundImageFix"/>
<feColorMatrix in="SourceAlpha" type="matrix" values="0 0 0 0 0 0 0 0 0 0 0 0 0 0 0 0 0 0 127 0" result="hardAlpha"/>
<feOffset/>
<feColorMatrix type="matrix" values="0 0 0 0 0 0 0 0 0 0 0 0 0 0 0 0 0 0 0.06 0"/>
<feBlend mode="normal" in2="BackgroundImageFix" result="effect1_dropShadow_636_26878"/>
<feBlend mode="normal" in="SourceGraphic" in2="effect1_dropShadow_636_26878" result="shape"/>
</filter>
<filter id="filter1_d_636_26878" x="0" y="0.000976562" width="35" height="9.59961" filterUnits="userSpaceOnUse" color-interpolation-filters="sRGB">
<feFlood flood-opacity="0" result="BackgroundImageFix"/>
<feColorMatrix in="SourceAlpha" type="matrix" values="0 0 0 0 0 0 0 0 0 0 0 0 0 0 0 0 0 0 127 0" result="hardAlpha"/>
<feOffset/>
<feColorMatrix type="matrix" values="0 0 0 0 0 0 0 0 0 0 0 0 0 0 0 0 0 0 0.06 0"/>
<feBlend mode="normal" in2="BackgroundImageFix" result="effect1_dropShadow_636_26878"/>
<feBlend mode="normal" in="SourceGraphic" in2="effect1_dropShadow_636_26878" result="shape"/>
</filter>
</defs>
</svg>
