<svg width="35" height="24" viewBox="0 0 35 24" fill="none" xmlns="http://www.w3.org/2000/svg">
<rect y="0.000976562" width="35" height="24" rx="2" fill="white"/>
<mask id="mask0_636_26857" style="mask-type:alpha" maskUnits="userSpaceOnUse" x="0" y="0" width="35" height="25">
<rect y="0.000976562" width="35" height="24" rx="2" fill="white"/>
</mask>
<g mask="url(#mask0_636_26857)">
<rect y="0.000976562" width="35" height="24" fill="#E31F37"/>
<path fill-rule="evenodd" clip-rule="evenodd" d="M-1.66699 12.8014H18.333V-1.59863H-1.66699V12.8014Z" fill="#083B9A"/>
<path fill-rule="evenodd" clip-rule="evenodd" d="M8.33313 3.2009L7.15462 3.53227L7.4998 2.4009L7.15462 1.26953L8.33313 1.6009L9.51164 1.26953L9.16647 2.4009L9.51164 3.53227L8.33313 3.2009ZM8.33313 11.2009L7.15462 11.5323L7.4998 10.4009L7.15462 9.26953L8.33313 9.6009L9.51164 9.26953L9.16647 10.4009L9.51164 11.5323L8.33313 11.2009ZM3.82129 7.53227L4.9998 7.2009L6.17831 7.53227L5.83313 6.4009L6.17831 5.26953L4.9998 5.6009L3.82129 5.26953L4.16647 6.4009L3.82129 7.53227ZM12.4998 6.4009L11.3213 6.73227L11.6665 5.6009L11.3213 4.46953L12.4998 4.8009L13.6783 4.46953L13.3331 5.6009L13.6783 6.73227L12.4998 6.4009ZM10.8331 8.4009C10.8331 8.62182 10.6466 8.8009 10.4165 8.8009C10.1863 8.8009 9.9998 8.62182 9.9998 8.4009C9.9998 8.17999 10.1863 8.0009 10.4165 8.0009C10.6466 8.0009 10.8331 8.17999 10.8331 8.4009Z" fill="white"/>
</g>
</svg>
