<svg width="35" height="25" viewBox="0 0 35 25" fill="none" xmlns="http://www.w3.org/2000/svg">
<rect y="0.500977" width="35" height="24" rx="2" fill="white"/>
<mask id="mask0_636_26969" style="mask-type:alpha" maskUnits="userSpaceOnUse" x="0" y="0" width="35" height="25">
<rect y="0.500977" width="35" height="24" rx="2" fill="white"/>
</mask>
<g mask="url(#mask0_636_26969)">
<rect y="0.500977" width="35" height="24" fill="#19BFBF"/>
<path fill-rule="evenodd" clip-rule="evenodd" d="M17.4997 21.3012C22.5623 21.3012 26.6663 17.3613 26.6663 12.5012C26.6663 7.64107 22.5623 3.70117 17.4997 3.70117C12.4371 3.70117 8.33301 7.64107 8.33301 12.5012C8.33301 17.3613 12.4371 21.3012 17.4997 21.3012ZM24.9539 13.3012C24.6445 15.9882 22.7948 18.2295 20.2713 19.1935C21.0839 17.6047 21.5586 15.5348 21.6501 13.3012H24.9539ZM19.9817 13.3012C19.86 16 19.126 18.3853 17.9816 19.6866C17.8222 19.6962 17.6616 19.7012 17.4997 19.7012C17.3378 19.7012 17.1771 19.6962 17.0178 19.6866C15.8733 18.3853 15.1393 16 15.0176 13.3012H19.9817ZM13.3493 13.3012C13.4407 15.5348 13.9154 17.6047 14.728 19.1935C12.2045 18.2295 10.3549 15.9882 10.0454 13.3012H13.3493ZM15.0176 11.7012H19.9817C19.86 9.00232 19.126 6.61706 17.9816 5.31579C17.8222 5.3061 17.6616 5.30117 17.4997 5.30117C17.3378 5.30117 17.1771 5.3061 17.0178 5.31579C15.8733 6.61706 15.1393 9.00232 15.0176 11.7012ZM14.728 5.8088C13.9154 7.39763 13.4407 9.46754 13.3493 11.7012H10.0454C10.3549 9.01417 12.2045 6.77282 14.728 5.8088ZM24.9539 11.7012H21.6501C21.5586 9.46754 21.0839 7.39763 20.2713 5.8088C22.7949 6.77282 24.6445 9.01417 24.9539 11.7012Z" fill="white"/>
</g>
</svg>
