<svg width="13" height="8" viewBox="0 0 13 8" fill="none" xmlns="http://www.w3.org/2000/svg">
<path fill-rule="evenodd" clip-rule="evenodd" d="M4.70711 0.292893C5.09763 0.683418 5.09763 1.31658 4.70711 1.70711L2.41421 4L4.70711 6.29289C5.09763 6.68342 5.09763 7.31658 4.70711 7.70711C4.31658 8.09763 3.68342 8.09763 3.29289 7.70711L0.292893 4.70711C-0.097631 4.31658 -0.097631 3.68342 0.292893 3.29289L3.29289 0.292893C3.68342 -0.0976311 4.31658 -0.0976311 4.70711 0.292893Z" fill="white"/>
<path fill-rule="evenodd" clip-rule="evenodd" d="M13 4.00003C13 4.5523 12.7172 5 12.3684 5L1.63158 4.99995C1.28277 4.99995 1 4.55224 1 3.99997C1 3.4477 1.28277 3 1.63158 3L12.3684 3.00005C12.7172 3.00006 13 3.44776 13 4.00003Z" fill="white"/>
</svg>
