<svg width="24" height="24" viewBox="0 0 24 24" fill="none" xmlns="http://www.w3.org/2000/svg">
<path d="M0 8C0 3.58172 3.58172 0 8 0H16C20.4183 0 24 3.58172 24 8V16C24 20.4183 20.4183 24 16 24H8C3.58172 24 0 20.4183 0 16V8Z" fill="white"/>
<path fill-rule="evenodd" clip-rule="evenodd" d="M14.8135 5.72332C15.3333 5.20323 16.1759 5.20323 16.6957 5.72332L18.277 7.3057C18.7968 7.8258 18.7968 8.66904 18.277 9.18914L11.7189 15.7516C11.5339 15.9367 11.2985 16.0631 11.0421 16.1151L9.05905 16.5171C8.62178 16.6057 8.1692 16.4692 7.85372 16.1535C7.53824 15.8378 7.40182 15.385 7.4904 14.9474L7.89211 12.963C7.94406 12.7065 8.07043 12.4709 8.25543 12.2857L14.8135 5.72332ZM9.08167 13.7948L9.15309 13.442L10.5634 14.8533L10.2109 14.9248L8.79482 15.2118L9.08167 13.7948ZM11.59 13.9971L10.0087 12.4148L14.8135 7.60676L15.7546 6.66504L16.3948 7.3057L16.6957 7.60676L17.3359 8.24742L16.3948 9.18914L11.59 13.9971ZM5.99895 17.3348C5.63143 17.3348 5.3335 17.6329 5.3335 18.0007C5.3335 18.3685 5.63143 18.6666 5.99895 18.6666L17.9771 18.6666C18.3446 18.6666 18.6426 18.3685 18.6426 18.0007C18.6426 17.6329 18.3446 17.3348 17.9771 17.3348L5.99895 17.3348Z" fill="#90A4AE"/>
<path d="M8 1H16V-1H8V1ZM23 8V16H25V8H23ZM16 23H8V25H16V23ZM1 16V8H-1V16H1ZM8 23C4.13401 23 1 19.866 1 16H-1C-1 20.9706 3.02944 25 8 25V23ZM23 16C23 19.866 19.866 23 16 23V25C20.9706 25 25 20.9706 25 16H23ZM16 1C19.866 1 23 4.13401 23 8H25C25 3.02944 20.9706 -1 16 -1V1ZM8 -1C3.02944 -1 -1 3.02944 -1 8H1C1 4.13401 4.13401 1 8 1V-1Z" fill="#90A4AE"/>
</svg>
