<svg width="24" height="24" viewBox="0 0 24 24" fill="none" xmlns="http://www.w3.org/2000/svg">
<path d="M0 8C0 3.58172 3.58172 0 8 0H16C20.4183 0 24 3.58172 24 8V16C24 20.4183 20.4183 24 16 24H8C3.58172 24 0 20.4183 0 16V8Z" fill="white"/>
<path fill-rule="evenodd" clip-rule="evenodd" d="M13.3335 5.33325H8.00016C6.5274 5.33325 5.3335 6.52716 5.3335 7.99992V13.3333C5.3335 14.806 6.5274 15.9999 8.00016 15.9999C8.00016 17.4727 9.19407 18.6666 10.6668 18.6666H13.0002H16.0002C17.4729 18.6666 18.6668 17.4727 18.6668 15.9999V10.6666C18.6668 9.19383 17.4729 7.99992 16.0002 7.99992C16.0002 6.52716 14.8063 5.33325 13.3335 5.33325ZM16.0002 9.33325V13.3333C16.0002 14.806 14.8063 15.9999 13.3335 15.9999H9.3335C9.3335 16.7363 9.93045 17.3333 10.6668 17.3333H13.0002H16.0002C16.7365 17.3333 17.3335 16.7363 17.3335 15.9999V10.6666C17.3335 9.93021 16.7365 9.33325 16.0002 9.33325ZM6.66683 7.99992C6.66683 7.26354 7.26378 6.66659 8.00016 6.66659H13.3335C14.0699 6.66659 14.6668 7.26354 14.6668 7.99992V13.3333C14.6668 14.0696 14.0699 14.6666 13.3335 14.6666H8.00016C7.26378 14.6666 6.66683 14.0696 6.66683 13.3333V7.99992Z" fill="#90A4AE"/>
<path d="M8 1H16V-1H8V1ZM23 8V16H25V8H23ZM16 23H8V25H16V23ZM1 16V8H-1V16H1ZM8 23C4.13401 23 1 19.866 1 16H-1C-1 20.9706 3.02944 25 8 25V23ZM23 16C23 19.866 19.866 23 16 23V25C20.9706 25 25 20.9706 25 16H23ZM16 1C19.866 1 23 4.13401 23 8H25C25 3.02944 20.9706 -1 16 -1V1ZM8 -1C3.02944 -1 -1 3.02944 -1 8H1C1 4.13401 4.13401 1 8 1V-1Z" fill="#90A4AE"/>
</svg>
