<svg width="24" height="24" viewBox="0 0 24 24" fill="none" xmlns="http://www.w3.org/2000/svg">
<path d="M0 8C0 3.58172 3.58172 0 8 0H16C20.4183 0 24 3.58172 24 8V16C24 20.4183 20.4183 24 16 24H8C3.58172 24 0 20.4183 0 16V8Z" fill="white"/>
<path fill-rule="evenodd" clip-rule="evenodd" d="M10.6665 8.66659L9.33317 8.66659H7.99984L7.99984 9.33325H8.66489L8.6665 9.33325L14.6665 9.33325L15.3332 9.33325L15.3348 9.33325H15.9998V8.66658L14.6665 8.66658L13.3332 8.66659L10.6665 8.66659ZM13.3332 7.33325C13.3332 6.96506 13.0347 6.66659 12.6665 6.66659L11.3332 6.66659C10.965 6.66659 10.6665 6.96506 10.6665 7.33325H12.6665H13.3332ZM9.33317 7.33325C9.33317 6.22868 10.2286 5.33325 11.3332 5.33325H12.6665C13.7711 5.33325 14.6665 6.22868 14.6665 7.33325L15.9998 7.33325C16.3535 7.33325 16.6926 7.47373 16.9426 7.72378C17.1927 7.97382 17.3332 8.31296 17.3332 8.66658V9.33325C17.3332 9.83136 17.06 10.2657 16.6554 10.4946C16.6627 10.5513 16.6665 10.6088 16.6665 10.6666L16.6665 16.6666C16.6665 17.7712 15.7711 18.6666 14.6665 18.6666H9.33317C8.2286 18.6666 7.33317 17.7712 7.33317 16.6666L7.33317 10.6666C7.33317 10.6083 7.33691 10.5508 7.34417 10.4945C6.93958 10.2656 6.6665 9.8313 6.6665 9.33325V8.66659C6.6665 7.93021 7.26346 7.33325 7.99984 7.33325L9.33317 7.33325ZM8.6665 11.9999L8.6665 10.6666L9.99984 10.6666V14.6666C9.99984 15.0348 10.2983 15.3333 10.6665 15.3333C11.0347 15.3333 11.3332 15.0348 11.3332 14.6666V10.6666H12.6665V14.6666C12.6665 15.0348 12.965 15.3333 13.3332 15.3333C13.7014 15.3333 13.9998 15.0348 13.9998 14.6666V10.6666L15.3332 10.6666V11.9999L15.3332 16.6666C15.3332 17.0348 15.0347 17.3333 14.6665 17.3333H9.33317C8.96498 17.3333 8.66651 17.0348 8.66651 16.6666L8.6665 11.9999Z" fill="#90A4AE"/>
<path d="M8 1H16V-1H8V1ZM23 8V16H25V8H23ZM16 23H8V25H16V23ZM1 16V8H-1V16H1ZM8 23C4.13401 23 1 19.866 1 16H-1C-1 20.9706 3.02944 25 8 25V23ZM23 16C23 19.866 19.866 23 16 23V25C20.9706 25 25 20.9706 25 16H23ZM16 1C19.866 1 23 4.13401 23 8H25C25 3.02944 20.9706 -1 16 -1V1ZM8 -1C3.02944 -1 -1 3.02944 -1 8H1C1 4.13401 4.13401 1 8 1V-1Z" fill="#90A4AE"/>
</svg>
