<svg width="18" height="20" viewBox="0 0 18 20" fill="none" xmlns="http://www.w3.org/2000/svg">
<path fill-rule="evenodd" clip-rule="evenodd" d="M5 0C4.44772 0 4 0.447715 4 1V2H3C1.34315 2 0 3.34315 0 5V7V17C0 18.6569 1.34315 20 3 20H15C16.6569 20 18 18.6569 18 17V7V5C18 3.34314 16.6569 2 15 2H14V1C14 0.447715 13.5523 0 13 0C12.4477 0 12 0.447715 12 1V2H6V1C6 0.447715 5.55228 0 5 0ZM13 4H5H3C2.44772 4 2 4.44772 2 5V6H16V5C16 4.44772 15.5523 4 15 4H13ZM2 17V8L16 8V17C16 17.5523 15.5523 18 15 18H3C2.44772 18 2 17.5523 2 17ZM5.96594 12.1203L5.96322 12.1296L5.96177 12.1343C5.96144 12.1354 5.96128 12.1358 5.9613 12.1358L5.96203 12.1337C5.82163 12.6022 5.33123 12.8739 4.85808 12.7419C4.37932 12.6083 4.09951 12.1118 4.23312 11.6331L5.1 11.875C4.23312 11.6331 4.23325 11.6326 4.23337 11.6322L4.23363 11.6313L4.23417 11.6294L4.23536 11.6252L4.23816 11.6156L4.24556 11.5915C4.25131 11.5734 4.25876 11.5509 4.26811 11.5249C4.28676 11.4729 4.31334 11.4054 4.34958 11.3275C4.42119 11.1735 4.53557 10.968 4.70992 10.7598C5.07392 10.325 5.6875 9.9 6.6 9.9C7.65921 9.9 8.27877 10.609 8.55136 11.2551C8.90494 12.0932 8.60875 12.8477 8.25243 13.367C8.04011 13.6764 7.77015 13.9585 7.51207 14.2H8.00039C8.49745 14.2 8.90039 14.6029 8.90039 15.1C8.90039 15.5971 8.49745 16 8.00039 16H5.1C4.72364 16 4.38703 15.7658 4.25616 15.4129C4.12529 15.0601 4.22782 14.663 4.51316 14.4176L5.88844 13.2349C6.26314 12.9127 6.57726 12.6269 6.76826 12.3486C6.94696 12.0881 6.91136 11.9985 6.89291 11.9548C6.84489 11.841 6.79039 11.776 6.75055 11.7443C6.72243 11.7219 6.68442 11.7 6.6 11.7C6.3125 11.7 6.17608 11.8125 6.09008 11.9152C6.03943 11.9757 6.00381 12.039 5.98167 12.0866C5.97104 12.1095 5.9648 12.1259 5.96236 12.1328L5.96203 12.1337L5.96322 12.1296L5.96363 12.1282L5.96509 12.1232L5.96594 12.1203ZM10.2002 9.9C9.70314 9.9 9.3002 10.3029 9.3002 10.8C9.3002 11.2971 9.70314 11.7 10.2002 11.7H11.289L9.88415 14.7204C9.67452 15.1711 9.86995 15.7064 10.3206 15.9161C10.7713 16.1257 11.3066 15.9303 11.5162 15.4796L13.5162 11.1796C13.6459 10.9008 13.6243 10.5752 13.459 10.3161C13.2937 10.0569 13.0076 9.9 12.7002 9.9H10.2002Z" fill="#CFD8DC"/>
</svg>
