<svg width="280" height="237" viewBox="0 0 280 237" fill="none" xmlns="http://www.w3.org/2000/svg">
<path d="M0 24C0 10.7452 10.7452 0 24 0H256C269.255 0 280 10.7452 280 24V170C280 183.255 269.255 194 256 194H24C10.7452 194 0 183.255 0 170V24Z" fill="#1F72CD"/>
<path opacity="0.1" fill-rule="evenodd" clip-rule="evenodd" d="M49.4701 68.7084L23.6523 127.286H54.5598L58.3914 117.946H67.1496L70.9812 127.286H105.002V120.158L108.033 127.286H125.631L128.662 120.007V127.286H199.416L208.019 118.189L216.075 127.286L252.415 127.362L226.516 98.1608L252.415 68.7084H216.638L208.264 77.6375L200.461 68.7084H123.491L116.882 83.8278L110.117 68.7084H79.2744V75.5942L75.8433 68.7084H49.4701ZM55.4505 77.0265H70.5162L87.6411 116.748V77.0265H104.145L117.372 105.507L129.562 77.0265H145.984V119.06H135.991L135.91 86.1228L121.342 119.06H112.404L97.7551 86.1228V119.06H77.1991L73.3021 109.637H52.2479L48.3589 119.052H37.3453L55.4505 77.0265ZM195.755 77.0265H155.125V119.035H195.126L208.019 105.113L220.446 119.035H233.436L214.555 98.1526L233.436 77.0265H221.009L208.182 90.789L195.755 77.0265ZM62.7794 84.1384L55.8429 100.925H69.7079L62.7794 84.1384ZM165.159 93.4027V85.7295V85.7222H190.51L201.573 97.9936L190.02 110.332H165.159V101.955H187.324V93.4027H165.159Z" fill="white"/>
<path d="M24 1H256V-1H24V1ZM279 24V170H281V24H279ZM256 193H24V195H256V193ZM1 170V24H-1V170H1ZM24 193C11.2975 193 1 182.703 1 170H-1C-1 183.807 10.1929 195 24 195V193ZM279 170C279 182.703 268.703 193 256 193V195C269.807 195 281 183.807 281 170H279ZM256 1C268.703 1 279 11.2975 279 24H281C281 10.1929 269.807 -1 256 -1V1ZM24 -1C10.1929 -1 -1 10.1929 -1 24H1C1 11.2975 11.2975 1 24 1V-1Z" fill="#F2F4F7"/>
<g filter="url(#filter0_d_2485_382989)">
<path d="M136.945 172.301C137.865 172.137 138.805 172.136 139.725 172.297L231.943 188.425C240.772 189.97 240.772 202.642 231.943 204.186L139.725 220.315C138.805 220.476 137.865 220.474 136.945 220.311L46.2771 204.182C37.4786 202.617 37.4786 189.995 46.2772 188.429L136.945 172.301Z" fill="black" fill-opacity="0.01"/>
</g>
<g filter="url(#filter1_d_2485_382989)">
<path d="M138.363 187.651C138.626 187.625 138.891 187.625 139.154 187.651L186.598 192.325C191.408 192.799 191.408 199.813 186.598 200.286L139.154 204.961C138.891 204.987 138.626 204.987 138.363 204.96L91.7167 200.286C86.9151 199.805 86.9152 192.807 91.7167 192.326L138.363 187.651Z" fill="black" fill-opacity="0.01"/>
</g>
<path d="M28.792 34.3H22.942L21.826 37H18.838L24.454 24.4H27.334L32.968 37H29.908L28.792 34.3ZM27.874 32.086L25.876 27.262L23.878 32.086H27.874ZM46.4793 27.172C47.6913 27.172 48.6513 27.532 49.3593 28.252C50.0793 28.96 50.4393 30.028 50.4393 31.456V37H47.6313V31.888C47.6313 31.12 47.4693 30.55 47.1453 30.178C46.8333 29.794 46.3833 29.602 45.7953 29.602C45.1353 29.602 44.6133 29.818 44.2293 30.25C43.8453 30.67 43.6533 31.3 43.6533 32.14V37H40.8453V31.888C40.8453 30.364 40.2333 29.602 39.0093 29.602C38.3613 29.602 37.8453 29.818 37.4613 30.25C37.0773 30.67 36.8853 31.3 36.8853 32.14V37H34.0773V27.316H36.7593V28.432C37.1193 28.024 37.5573 27.712 38.0732 27.496C38.6013 27.28 39.1773 27.172 39.8013 27.172C40.4853 27.172 41.1033 27.31 41.6553 27.586C42.2073 27.85 42.6513 28.24 42.9873 28.756C43.3833 28.252 43.8813 27.862 44.4813 27.586C45.0933 27.31 45.7593 27.172 46.4793 27.172ZM62.5476 32.194C62.5476 32.23 62.5296 32.482 62.4936 32.95H55.1676C55.2996 33.55 55.6116 34.024 56.1036 34.372C56.5956 34.72 57.2076 34.894 57.9396 34.894C58.4436 34.894 58.8876 34.822 59.2716 34.678C59.6676 34.522 60.0336 34.282 60.3696 33.958L61.8636 35.578C60.9516 36.622 59.6196 37.144 57.8676 37.144C56.7756 37.144 55.8096 36.934 54.9696 36.514C54.1296 36.082 53.4816 35.488 53.0256 34.732C52.5696 33.976 52.3416 33.118 52.3416 32.158C52.3416 31.21 52.5636 30.358 53.0076 29.602C53.4636 28.834 54.0816 28.24 54.8616 27.82C55.6536 27.388 56.5356 27.172 57.5076 27.172C58.4556 27.172 59.3136 27.376 60.0816 27.784C60.8496 28.192 61.4496 28.78 61.8816 29.548C62.3256 30.304 62.5476 31.186 62.5476 32.194ZM57.5256 29.296C56.8896 29.296 56.3556 29.476 55.9236 29.836C55.4916 30.196 55.2276 30.688 55.1316 31.312H59.9016C59.8056 30.7 59.5416 30.214 59.1096 29.854C58.6776 29.482 58.1496 29.296 57.5256 29.296ZM67.0991 28.594C67.4351 28.126 67.8851 27.772 68.4491 27.532C69.0251 27.292 69.6851 27.172 70.4291 27.172V29.764C70.1171 29.74 69.9071 29.728 69.7991 29.728C68.9951 29.728 68.3651 29.956 67.9091 30.412C67.4531 30.856 67.2251 31.528 67.2251 32.428V37H64.4171V27.316H67.0991V28.594ZM72.0987 27.316H74.9067V37H72.0987V27.316ZM73.5027 25.966C72.9867 25.966 72.5667 25.816 72.2427 25.516C71.9187 25.216 71.7567 24.844 71.7567 24.4C71.7567 23.956 71.9187 23.584 72.2427 23.284C72.5667 22.984 72.9867 22.834 73.5027 22.834C74.0187 22.834 74.4387 22.978 74.7627 23.266C75.0867 23.554 75.2487 23.914 75.2487 24.346C75.2487 24.814 75.0867 25.204 74.7627 25.516C74.4387 25.816 74.0187 25.966 73.5027 25.966ZM82.1928 37.144C81.1608 37.144 80.2308 36.934 79.4028 36.514C78.5868 36.082 77.9448 35.488 77.4768 34.732C77.0208 33.976 76.7928 33.118 76.7928 32.158C76.7928 31.198 77.0208 30.34 77.4768 29.584C77.9448 28.828 78.5868 28.24 79.4028 27.82C80.2308 27.388 81.1608 27.172 82.1928 27.172C83.2128 27.172 84.1008 27.388 84.8568 27.82C85.6248 28.24 86.1828 28.846 86.5308 29.638L84.3528 30.808C83.8488 29.92 83.1228 29.476 82.1748 29.476C81.4428 29.476 80.8368 29.716 80.3568 30.196C79.8768 30.676 79.6368 31.33 79.6368 32.158C79.6368 32.986 79.8768 33.64 80.3568 34.12C80.8368 34.6 81.4428 34.84 82.1748 34.84C83.1348 34.84 83.8608 34.396 84.3528 33.508L86.5308 34.696C86.1828 35.464 85.6248 36.064 84.8568 36.496C84.1008 36.928 83.2128 37.144 82.1928 37.144ZM92.0536 27.172C93.5536 27.172 94.7056 27.532 95.5096 28.252C96.3136 28.96 96.7156 30.034 96.7156 31.474V37H94.0876V35.794C93.5596 36.694 92.5756 37.144 91.1356 37.144C90.3916 37.144 89.7436 37.018 89.1916 36.766C88.6516 36.514 88.2376 36.166 87.9496 35.722C87.6616 35.278 87.5176 34.774 87.5176 34.21C87.5176 33.31 87.8536 32.602 88.5256 32.086C89.2096 31.57 90.2596 31.312 91.6756 31.312H93.9076C93.9076 30.7 93.7216 30.232 93.3496 29.908C92.9776 29.572 92.4196 29.404 91.6756 29.404C91.1596 29.404 90.6496 29.488 90.1456 29.656C89.6536 29.812 89.2336 30.028 88.8856 30.304L87.8776 28.342C88.4056 27.97 89.0356 27.682 89.7676 27.478C90.5116 27.274 91.2736 27.172 92.0536 27.172ZM91.8376 35.254C92.3176 35.254 92.7436 35.146 93.1156 34.93C93.4876 34.702 93.7516 34.372 93.9076 33.94V32.95H91.9816C90.8296 32.95 90.2536 33.328 90.2536 34.084C90.2536 34.444 90.3916 34.732 90.6676 34.948C90.9556 35.152 91.3456 35.254 91.8376 35.254ZM105.143 27.172C106.343 27.172 107.309 27.532 108.041 28.252C108.785 28.972 109.157 30.04 109.157 31.456V37H106.349V31.888C106.349 31.12 106.181 30.55 105.845 30.178C105.509 29.794 105.023 29.602 104.387 29.602C103.679 29.602 103.115 29.824 102.695 30.268C102.275 30.7 102.065 31.348 102.065 32.212V37H99.2569V27.316H101.939V28.45C102.311 28.042 102.773 27.73 103.325 27.514C103.877 27.286 104.483 27.172 105.143 27.172ZM126.754 34.66V37H116.998V24.4H126.52V26.74H119.896V29.476H125.746V31.744H119.896V34.66H126.754ZM134.909 37L132.785 34.03L130.589 37H127.529L131.255 32.122L127.655 27.316H130.805L132.857 30.142L134.963 27.316H137.951L134.351 32.05L138.095 37H134.909ZM145.182 27.172C146.082 27.172 146.898 27.382 147.63 27.802C148.374 28.21 148.956 28.792 149.376 29.548C149.796 30.292 150.006 31.162 150.006 32.158C150.006 33.154 149.796 34.03 149.376 34.786C148.956 35.53 148.374 36.112 147.63 36.532C146.898 36.94 146.082 37.144 145.182 37.144C143.946 37.144 142.974 36.754 142.266 35.974V40.492H139.458V27.316H142.14V28.432C142.836 27.592 143.85 27.172 145.182 27.172ZM144.696 34.84C145.416 34.84 146.004 34.6 146.46 34.12C146.928 33.628 147.162 32.974 147.162 32.158C147.162 31.342 146.928 30.694 146.46 30.214C146.004 29.722 145.416 29.476 144.696 29.476C143.976 29.476 143.382 29.722 142.914 30.214C142.458 30.694 142.23 31.342 142.23 32.158C142.23 32.974 142.458 33.628 142.914 34.12C143.382 34.6 143.976 34.84 144.696 34.84ZM154.568 28.594C154.904 28.126 155.354 27.772 155.918 27.532C156.494 27.292 157.154 27.172 157.898 27.172V29.764C157.586 29.74 157.376 29.728 157.268 29.728C156.464 29.728 155.834 29.956 155.378 30.412C154.922 30.856 154.694 31.528 154.694 32.428V37H151.886V27.316H154.568V28.594ZM168.966 32.194C168.966 32.23 168.948 32.482 168.912 32.95H161.586C161.718 33.55 162.03 34.024 162.522 34.372C163.014 34.72 163.626 34.894 164.358 34.894C164.862 34.894 165.306 34.822 165.69 34.678C166.086 34.522 166.452 34.282 166.788 33.958L168.282 35.578C167.37 36.622 166.038 37.144 164.286 37.144C163.194 37.144 162.228 36.934 161.388 36.514C160.548 36.082 159.9 35.488 159.444 34.732C158.988 33.976 158.76 33.118 158.76 32.158C158.76 31.21 158.982 30.358 159.426 29.602C159.882 28.834 160.5 28.24 161.28 27.82C162.072 27.388 162.954 27.172 163.926 27.172C164.874 27.172 165.732 27.376 166.5 27.784C167.268 28.192 167.868 28.78 168.3 29.548C168.744 30.304 168.966 31.186 168.966 32.194ZM163.944 29.296C163.308 29.296 162.774 29.476 162.342 29.836C161.91 30.196 161.646 30.688 161.55 31.312H166.32C166.224 30.7 165.96 30.214 165.528 29.854C165.096 29.482 164.568 29.296 163.944 29.296ZM174.093 37.144C173.289 37.144 172.503 37.048 171.735 36.856C170.967 36.652 170.355 36.4 169.899 36.1L170.835 34.084C171.267 34.36 171.789 34.588 172.401 34.768C173.013 34.936 173.613 35.02 174.201 35.02C175.389 35.02 175.983 34.726 175.983 34.138C175.983 33.862 175.821 33.664 175.497 33.544C175.173 33.424 174.675 33.322 174.003 33.238C173.211 33.118 172.557 32.98 172.041 32.824C171.525 32.668 171.075 32.392 170.691 31.996C170.319 31.6 170.133 31.036 170.133 30.304C170.133 29.692 170.307 29.152 170.655 28.684C171.015 28.204 171.531 27.832 172.203 27.568C172.887 27.304 173.691 27.172 174.615 27.172C175.299 27.172 175.977 27.25 176.649 27.406C177.333 27.55 177.897 27.754 178.341 28.018L177.405 30.016C176.553 29.536 175.623 29.296 174.615 29.296C174.015 29.296 173.565 29.38 173.265 29.548C172.965 29.716 172.815 29.932 172.815 30.196C172.815 30.496 172.977 30.706 173.301 30.826C173.625 30.946 174.141 31.06 174.849 31.168C175.641 31.3 176.289 31.444 176.793 31.6C177.297 31.744 177.735 32.014 178.107 32.41C178.479 32.806 178.665 33.358 178.665 34.066C178.665 34.666 178.485 35.2 178.125 35.668C177.765 36.136 177.237 36.502 176.541 36.766C175.857 37.018 175.041 37.144 174.093 37.144ZM183.656 37.144C182.852 37.144 182.066 37.048 181.298 36.856C180.53 36.652 179.918 36.4 179.462 36.1L180.398 34.084C180.83 34.36 181.352 34.588 181.964 34.768C182.576 34.936 183.176 35.02 183.764 35.02C184.952 35.02 185.546 34.726 185.546 34.138C185.546 33.862 185.384 33.664 185.06 33.544C184.736 33.424 184.238 33.322 183.566 33.238C182.774 33.118 182.12 32.98 181.604 32.824C181.088 32.668 180.638 32.392 180.254 31.996C179.882 31.6 179.696 31.036 179.696 30.304C179.696 29.692 179.87 29.152 180.218 28.684C180.578 28.204 181.094 27.832 181.766 27.568C182.45 27.304 183.254 27.172 184.178 27.172C184.862 27.172 185.54 27.25 186.212 27.406C186.896 27.55 187.46 27.754 187.904 28.018L186.968 30.016C186.116 29.536 185.186 29.296 184.178 29.296C183.578 29.296 183.128 29.38 182.828 29.548C182.528 29.716 182.378 29.932 182.378 30.196C182.378 30.496 182.54 30.706 182.864 30.826C183.188 30.946 183.704 31.06 184.412 31.168C185.204 31.3 185.852 31.444 186.356 31.6C186.86 31.744 187.298 32.014 187.67 32.41C188.042 32.806 188.228 33.358 188.228 34.066C188.228 34.666 188.048 35.2 187.688 35.668C187.328 36.136 186.8 36.502 186.104 36.766C185.42 37.018 184.604 37.144 183.656 37.144Z" fill="white"/>
<path d="M20.022 97.134C21.798 97.134 23.106 97.488 23.946 98.196C24.798 98.904 25.224 99.852 25.224 101.04C25.224 101.808 25.032 102.51 24.648 103.146C24.264 103.77 23.676 104.274 22.884 104.658C22.104 105.03 21.138 105.216 19.986 105.216C19.098 105.216 18.222 105.102 17.358 104.874C16.506 104.634 15.78 104.298 15.18 103.866L16.332 101.634C16.812 101.994 17.364 102.276 17.988 102.48C18.612 102.672 19.254 102.768 19.914 102.768C20.646 102.768 21.222 102.624 21.642 102.336C22.062 102.048 22.272 101.646 22.272 101.13C22.272 100.59 22.05 100.182 21.606 99.906C21.174 99.63 20.418 99.492 19.338 99.492H16.116L16.764 92.4H24.45V94.74H19.194L18.996 97.134H20.022ZM36.0601 92.4V94.29L31.3801 105H28.2121L32.7301 94.776H28.5541V96.828H25.9621V92.4H36.0601ZM45.6814 98.376C46.3054 98.688 46.7794 99.096 47.1034 99.6C47.4394 100.104 47.6074 100.686 47.6074 101.346C47.6074 102.126 47.3854 102.81 46.9414 103.398C46.4974 103.974 45.8734 104.424 45.0694 104.748C44.2654 105.06 43.3354 105.216 42.2794 105.216C41.2234 105.216 40.2934 105.06 39.4894 104.748C38.6974 104.424 38.0794 103.974 37.6354 103.398C37.2034 102.81 36.9874 102.126 36.9874 101.346C36.9874 100.686 37.1494 100.104 37.4734 99.6C37.8094 99.096 38.2834 98.688 38.8954 98.376C38.4274 98.088 38.0674 97.728 37.8154 97.296C37.5634 96.852 37.4374 96.348 37.4374 95.784C37.4374 95.052 37.6414 94.416 38.0494 93.876C38.4574 93.336 39.0274 92.922 39.7594 92.634C40.4914 92.334 41.3314 92.184 42.2794 92.184C43.2394 92.184 44.0854 92.334 44.8174 92.634C45.5614 92.922 46.1374 93.336 46.5454 93.876C46.9534 94.416 47.1574 95.052 47.1574 95.784C47.1574 96.348 47.0314 96.852 46.7794 97.296C46.5274 97.728 46.1614 98.088 45.6814 98.376ZM42.2794 94.326C41.6914 94.326 41.2174 94.47 40.8574 94.758C40.5094 95.034 40.3354 95.418 40.3354 95.91C40.3354 96.39 40.5094 96.768 40.8574 97.044C41.2054 97.32 41.6794 97.458 42.2794 97.458C42.8794 97.458 43.3594 97.32 43.7194 97.044C44.0794 96.768 44.2594 96.39 44.2594 95.91C44.2594 95.418 44.0794 95.034 43.7194 94.758C43.3594 94.47 42.8794 94.326 42.2794 94.326ZM42.2794 103.074C43.0114 103.074 43.5874 102.912 44.0074 102.588C44.4394 102.252 44.6554 101.808 44.6554 101.256C44.6554 100.704 44.4394 100.266 44.0074 99.942C43.5874 99.618 43.0114 99.456 42.2794 99.456C41.5594 99.456 40.9894 99.618 40.5694 99.942C40.1494 100.266 39.9394 100.704 39.9394 101.256C39.9394 101.82 40.1494 102.264 40.5694 102.588C40.9894 102.912 41.5594 103.074 42.2794 103.074ZM53.3702 92.184C55.1342 92.184 56.5142 92.724 57.5102 93.804C58.5062 94.872 59.0042 96.414 59.0042 98.43C59.0042 99.858 58.7342 101.082 58.1942 102.102C57.6662 103.122 56.9162 103.896 55.9442 104.424C54.9722 104.952 53.8502 105.216 52.5782 105.216C51.9062 105.216 51.2642 105.144 50.6522 105C50.0402 104.844 49.5182 104.628 49.0862 104.352L50.1662 102.21C50.7782 102.63 51.5642 102.84 52.5242 102.84C53.5922 102.84 54.4382 102.528 55.0622 101.904C55.6862 101.268 56.0222 100.356 56.0702 99.168C55.3142 99.924 54.2702 100.302 52.9382 100.302C52.1342 100.302 51.4022 100.14 50.7422 99.816C50.0822 99.492 49.5602 99.036 49.1762 98.448C48.7922 97.848 48.6002 97.158 48.6002 96.378C48.6002 95.538 48.8102 94.8 49.2302 94.164C49.6502 93.528 50.2202 93.042 50.9402 92.706C51.6722 92.358 52.4822 92.184 53.3702 92.184ZM53.5862 98.124C54.2222 98.124 54.7382 97.95 55.1342 97.602C55.5422 97.242 55.7462 96.786 55.7462 96.234C55.7462 95.682 55.5482 95.232 55.1522 94.884C54.7682 94.536 54.2342 94.362 53.5502 94.362C52.9262 94.362 52.4162 94.53 52.0202 94.866C51.6362 95.202 51.4442 95.658 51.4442 96.234C51.4442 96.81 51.6362 97.272 52.0202 97.62C52.4162 97.956 52.9382 98.124 53.5862 98.124Z" fill="white"/>
<path d="M87.4148 95.208L89.3768 96.27L88.4948 97.746L86.5148 96.576L86.5508 98.754H84.8588L84.8768 96.558L82.8968 97.746L82.0328 96.27L83.9948 95.208L82.0328 94.128L82.8968 92.652L84.8768 93.84L84.8588 91.644H86.5508L86.5148 93.84L88.4948 92.652L89.3768 94.128L87.4148 95.208ZM100.317 95.208L102.279 96.27L101.397 97.746L99.4172 96.576L99.4532 98.754H97.7612L97.7792 96.558L95.7992 97.746L94.9352 96.27L96.8972 95.208L94.9352 94.128L95.7992 92.652L97.7792 93.84L97.7612 91.644H99.4532L99.4172 93.84L101.397 92.652L102.279 94.128L100.317 95.208ZM113.22 95.208L115.182 96.27L114.3 97.746L112.32 96.576L112.356 98.754H110.664L110.682 96.558L108.702 97.746L107.838 96.27L109.8 95.208L107.838 94.128L108.702 92.652L110.682 93.84L110.664 91.644H112.356L112.32 93.84L114.3 92.652L115.182 94.128L113.22 95.208ZM126.122 95.208L128.084 96.27L127.202 97.746L125.222 96.576L125.258 98.754H123.566L123.584 96.558L121.604 97.746L120.74 96.27L122.702 95.208L120.74 94.128L121.604 92.652L123.584 93.84L123.566 91.644H125.258L125.222 93.84L127.202 92.652L128.084 94.128L126.122 95.208Z" fill="white"/>
<path d="M154.212 95.208L156.174 96.27L155.292 97.746L153.312 96.576L153.348 98.754H151.656L151.674 96.558L149.694 97.746L148.83 96.27L150.792 95.208L148.83 94.128L149.694 92.652L151.674 93.84L151.656 91.644H153.348L153.312 93.84L155.292 92.652L156.174 94.128L154.212 95.208ZM167.114 95.208L169.076 96.27L168.194 97.746L166.214 96.576L166.25 98.754H164.558L164.576 96.558L162.596 97.746L161.732 96.27L163.694 95.208L161.732 94.128L162.596 92.652L164.576 93.84L164.558 91.644H166.25L166.214 93.84L168.194 92.652L169.076 94.128L167.114 95.208ZM180.016 95.208L181.978 96.27L181.096 97.746L179.116 96.576L179.152 98.754H177.46L177.478 96.558L175.498 97.746L174.634 96.27L176.596 95.208L174.634 94.128L175.498 92.652L177.478 93.84L177.46 91.644H179.152L179.116 93.84L181.096 92.652L181.978 94.128L180.016 95.208ZM192.919 95.208L194.881 96.27L193.999 97.746L192.019 96.576L192.055 98.754H190.363L190.381 96.558L188.401 97.746L187.537 96.27L189.499 95.208L187.537 94.128L188.401 92.652L190.381 93.84L190.363 91.644H192.055L192.019 93.84L193.999 92.652L194.881 94.128L192.919 95.208Z" fill="white"/>
<path d="M225.511 102.624V105H215.989V103.11L220.849 98.52C221.365 98.028 221.713 97.608 221.893 97.26C222.073 96.9 222.163 96.546 222.163 96.198C222.163 95.694 221.989 95.31 221.641 95.046C221.305 94.77 220.807 94.632 220.147 94.632C219.595 94.632 219.097 94.74 218.653 94.956C218.209 95.16 217.837 95.472 217.537 95.892L215.413 94.524C215.905 93.792 216.583 93.222 217.447 92.814C218.311 92.394 219.301 92.184 220.417 92.184C221.353 92.184 222.169 92.34 222.865 92.652C223.573 92.952 224.119 93.384 224.503 93.948C224.899 94.5 225.097 95.154 225.097 95.91C225.097 96.594 224.953 97.236 224.665 97.836C224.377 98.436 223.819 99.12 222.991 99.888L220.093 102.624H225.511ZM235.336 98.376C235.96 98.688 236.434 99.096 236.758 99.6C237.094 100.104 237.262 100.686 237.262 101.346C237.262 102.126 237.04 102.81 236.596 103.398C236.152 103.974 235.528 104.424 234.724 104.748C233.92 105.06 232.99 105.216 231.934 105.216C230.878 105.216 229.948 105.06 229.144 104.748C228.352 104.424 227.734 103.974 227.29 103.398C226.858 102.81 226.642 102.126 226.642 101.346C226.642 100.686 226.804 100.104 227.128 99.6C227.464 99.096 227.938 98.688 228.55 98.376C228.082 98.088 227.722 97.728 227.47 97.296C227.218 96.852 227.092 96.348 227.092 95.784C227.092 95.052 227.296 94.416 227.704 93.876C228.112 93.336 228.682 92.922 229.414 92.634C230.146 92.334 230.986 92.184 231.934 92.184C232.894 92.184 233.74 92.334 234.472 92.634C235.216 92.922 235.792 93.336 236.2 93.876C236.608 94.416 236.812 95.052 236.812 95.784C236.812 96.348 236.686 96.852 236.434 97.296C236.182 97.728 235.816 98.088 235.336 98.376ZM231.934 94.326C231.346 94.326 230.872 94.47 230.512 94.758C230.164 95.034 229.99 95.418 229.99 95.91C229.99 96.39 230.164 96.768 230.512 97.044C230.86 97.32 231.334 97.458 231.934 97.458C232.534 97.458 233.014 97.32 233.374 97.044C233.734 96.768 233.914 96.39 233.914 95.91C233.914 95.418 233.734 95.034 233.374 94.758C233.014 94.47 232.534 94.326 231.934 94.326ZM231.934 103.074C232.666 103.074 233.242 102.912 233.662 102.588C234.094 102.252 234.31 101.808 234.31 101.256C234.31 100.704 234.094 100.266 233.662 99.942C233.242 99.618 232.666 99.456 231.934 99.456C231.214 99.456 230.644 99.618 230.224 99.942C229.804 100.266 229.594 100.704 229.594 101.256C229.594 101.82 229.804 102.264 230.224 102.588C230.644 102.912 231.214 103.074 231.934 103.074ZM250.135 102.354H248.083V105H245.239V102.354H238.453V100.392L244.393 92.4H247.453L241.945 99.978H245.329V97.62H248.083V99.978H250.135V102.354ZM260.115 92.4V94.29L255.435 105H252.267L256.785 94.776H252.609V96.828H250.017V92.4H260.115Z" fill="white"/>
<path d="M23.844 174.199L23.832 168.631L21.072 173.239H20.376L17.616 168.703V174.199H16.128V165.799H17.412L20.748 171.367L24.024 165.799H25.308L25.32 174.199H23.844ZM27.4449 167.791H28.9449V174.199H27.4449V167.791ZM28.2009 166.735C27.9289 166.735 27.7009 166.651 27.5169 166.483C27.3329 166.307 27.2409 166.091 27.2409 165.835C27.2409 165.579 27.3329 165.367 27.5169 165.199C27.7009 165.023 27.9289 164.935 28.2009 164.935C28.4729 164.935 28.7009 165.019 28.8849 165.187C29.0689 165.347 29.1609 165.551 29.1609 165.799C29.1609 166.063 29.0689 166.287 28.8849 166.471C28.7089 166.647 28.4809 166.735 28.2009 166.735ZM33.5297 171.451L32.4137 172.507V174.199H30.9137V165.295H32.4137V170.671L35.5217 167.791H37.3217L34.6457 170.479L37.5737 174.199H35.7497L33.5297 171.451ZM44.2971 171.031C44.2971 171.135 44.2891 171.283 44.2731 171.475H39.2451C39.3331 171.947 39.5611 172.323 39.9291 172.603C40.3051 172.875 40.7691 173.011 41.3211 173.011C42.0251 173.011 42.6051 172.779 43.0611 172.315L43.8651 173.239C43.5771 173.583 43.2131 173.843 42.7731 174.019C42.3331 174.195 41.8371 174.283 41.2851 174.283C40.5811 174.283 39.9611 174.143 39.4251 173.863C38.8891 173.583 38.4731 173.195 38.1771 172.699C37.8891 172.195 37.7451 171.627 37.7451 170.995C37.7451 170.371 37.8851 169.811 38.1651 169.315C38.4531 168.811 38.8491 168.419 39.3531 168.139C39.8571 167.859 40.4251 167.719 41.0571 167.719C41.6811 167.719 42.2371 167.859 42.7251 168.139C43.2211 168.411 43.6051 168.799 43.8771 169.303C44.1571 169.799 44.2971 170.375 44.2971 171.031ZM41.0571 168.919C40.5771 168.919 40.1691 169.063 39.8331 169.351C39.5051 169.631 39.3051 170.007 39.2331 170.479H42.8691C42.8051 170.015 42.6091 169.639 42.2811 169.351C41.9531 169.063 41.5451 168.919 41.0571 168.919ZM51.8023 174.319C51.1543 174.319 50.5263 174.227 49.9183 174.043C49.3183 173.859 48.8423 173.615 48.4903 173.311L49.0303 172.099C49.3743 172.371 49.7943 172.595 50.2903 172.771C50.7943 172.939 51.2983 173.023 51.8023 173.023C52.4263 173.023 52.8903 172.923 53.1943 172.723C53.5063 172.523 53.6623 172.259 53.6623 171.931C53.6623 171.691 53.5743 171.495 53.3983 171.343C53.2303 171.183 53.0143 171.059 52.7503 170.971C52.4863 170.883 52.1263 170.783 51.6703 170.671C51.0303 170.519 50.5103 170.367 50.1103 170.215C49.7183 170.063 49.3783 169.827 49.0903 169.507C48.8103 169.179 48.6703 168.739 48.6703 168.187C48.6703 167.723 48.7943 167.303 49.0423 166.927C49.2983 166.543 49.6783 166.239 50.1823 166.015C50.6943 165.791 51.3183 165.679 52.0543 165.679C52.5663 165.679 53.0703 165.743 53.5663 165.871C54.0623 165.999 54.4903 166.183 54.8503 166.423L54.3583 167.635C53.9903 167.419 53.6063 167.255 53.2063 167.143C52.8063 167.031 52.4183 166.975 52.0423 166.975C51.4263 166.975 50.9663 167.079 50.6623 167.287C50.3663 167.495 50.2183 167.771 50.2183 168.115C50.2183 168.355 50.3023 168.551 50.4703 168.703C50.6463 168.855 50.8663 168.975 51.1303 169.063C51.3943 169.151 51.7543 169.251 52.2103 169.363C52.8343 169.507 53.3463 169.659 53.7463 169.819C54.1463 169.971 54.4863 170.207 54.7663 170.527C55.0543 170.847 55.1983 171.279 55.1983 171.823C55.1983 172.287 55.0703 172.707 54.8143 173.083C54.5663 173.459 54.1863 173.759 53.6743 173.983C53.1623 174.207 52.5383 174.319 51.8023 174.319ZM64.6892 167.719C65.4972 167.719 66.1372 167.955 66.6092 168.427C67.0812 168.891 67.3172 169.591 67.3172 170.527V174.199H65.8172V170.719C65.8172 170.159 65.6932 169.739 65.4452 169.459C65.1972 169.171 64.8412 169.027 64.3772 169.027C63.8732 169.027 63.4692 169.195 63.1652 169.531C62.8612 169.859 62.7092 170.331 62.7092 170.947V174.199H61.2092V170.719C61.2092 170.159 61.0852 169.739 60.8372 169.459C60.5892 169.171 60.2332 169.027 59.7692 169.027C59.2572 169.027 58.8492 169.191 58.5452 169.519C58.2492 169.847 58.1012 170.323 58.1012 170.947V174.199H56.6012V167.791H58.0292V168.607C58.2692 168.319 58.5692 168.099 58.9292 167.947C59.2892 167.795 59.6892 167.719 60.1292 167.719C60.6092 167.719 61.0332 167.811 61.4012 167.995C61.7772 168.171 62.0732 168.435 62.2892 168.787C62.5532 168.451 62.8932 168.191 63.3092 168.007C63.7252 167.815 64.1852 167.719 64.6892 167.719ZM69.234 167.791H70.734V174.199H69.234V167.791ZM69.99 166.735C69.718 166.735 69.49 166.651 69.306 166.483C69.122 166.307 69.03 166.091 69.03 165.835C69.03 165.579 69.122 165.367 69.306 165.199C69.49 165.023 69.718 164.935 69.99 164.935C70.262 164.935 70.49 165.019 70.674 165.187C70.858 165.347 70.95 165.551 70.95 165.799C70.95 166.063 70.858 166.287 70.674 166.471C70.498 166.647 70.27 166.735 69.99 166.735ZM76.5548 173.851C76.3788 173.995 76.1628 174.103 75.9068 174.175C75.6588 174.247 75.3948 174.283 75.1148 174.283C74.4108 174.283 73.8668 174.099 73.4827 173.731C73.0988 173.363 72.9068 172.827 72.9068 172.123V169.039H71.8508V167.839H72.9068V166.375H74.4068V167.839H76.1228V169.039H74.4068V172.087C74.4068 172.399 74.4828 172.639 74.6348 172.807C74.7868 172.967 75.0068 173.047 75.2948 173.047C75.6308 173.047 75.9108 172.959 76.1348 172.783L76.5548 173.851ZM81.4247 167.719C82.2327 167.719 82.8807 167.955 83.3687 168.427C83.8567 168.899 84.1007 169.599 84.1007 170.527V174.199H82.6007V170.719C82.6007 170.159 82.4687 169.739 82.2047 169.459C81.9407 169.171 81.5647 169.027 81.0767 169.027C80.5247 169.027 80.0887 169.195 79.7687 169.531C79.4487 169.859 79.2887 170.335 79.2887 170.959V174.199H77.7887V165.295H79.2887V168.535C79.5367 168.271 79.8407 168.071 80.2007 167.935C80.5687 167.791 80.9767 167.719 81.4247 167.719Z" fill="white"/>
<path d="M132.13 157.796V158.666H127.05V151.666H131.99V152.536H128.05V154.686H131.56V155.536H128.05V157.796H132.13ZM136.872 158.666L135.342 156.636L133.792 158.666H132.722L134.812 155.956L132.822 153.366H133.892L135.352 155.276L136.802 153.366H137.852L135.852 155.956L137.962 158.666H136.872ZM141.82 153.316C142.333 153.316 142.793 153.429 143.2 153.656C143.606 153.882 143.923 154.199 144.15 154.606C144.383 155.012 144.5 155.482 144.5 156.016C144.5 156.549 144.383 157.022 144.15 157.436C143.923 157.842 143.606 158.159 143.2 158.386C142.793 158.612 142.333 158.726 141.82 158.726C141.44 158.726 141.09 158.652 140.77 158.506C140.456 158.359 140.19 158.146 139.97 157.866V160.606H139.01V153.366H139.93V154.206C140.143 153.912 140.413 153.692 140.74 153.546C141.066 153.392 141.426 153.316 141.82 153.316ZM141.74 157.886C142.08 157.886 142.383 157.809 142.65 157.656C142.923 157.496 143.136 157.276 143.29 156.996C143.45 156.709 143.53 156.382 143.53 156.016C143.53 155.649 143.45 155.326 143.29 155.046C143.136 154.759 142.923 154.539 142.65 154.386C142.383 154.232 142.08 154.156 141.74 154.156C141.406 154.156 141.103 154.236 140.83 154.396C140.563 154.549 140.35 154.766 140.19 155.046C140.036 155.326 139.96 155.649 139.96 156.016C139.96 156.382 140.036 156.709 140.19 156.996C140.343 157.276 140.556 157.496 140.83 157.656C141.103 157.809 141.406 157.886 141.74 157.886ZM145.826 153.366H146.786V158.666H145.826V153.366ZM146.306 152.346C146.119 152.346 145.963 152.286 145.836 152.166C145.716 152.046 145.656 151.899 145.656 151.726C145.656 151.552 145.716 151.406 145.836 151.286C145.963 151.159 146.119 151.096 146.306 151.096C146.493 151.096 146.646 151.156 146.766 151.276C146.893 151.389 146.956 151.532 146.956 151.706C146.956 151.886 146.893 152.039 146.766 152.166C146.646 152.286 146.493 152.346 146.306 152.346ZM149.539 154.256C149.706 153.949 149.952 153.716 150.279 153.556C150.606 153.396 151.002 153.316 151.469 153.316V154.246C151.416 154.239 151.342 154.236 151.249 154.236C150.729 154.236 150.319 154.392 150.019 154.706C149.726 155.012 149.579 155.452 149.579 156.026V158.666H148.619V153.366H149.539V154.256ZM157.393 156.046C157.393 156.119 157.387 156.216 157.373 156.336H153.073C153.133 156.802 153.337 157.179 153.683 157.466C154.037 157.746 154.473 157.886 154.993 157.886C155.627 157.886 156.137 157.672 156.523 157.246L157.053 157.866C156.813 158.146 156.513 158.359 156.153 158.506C155.8 158.652 155.403 158.726 154.963 158.726C154.403 158.726 153.907 158.612 153.473 158.386C153.04 158.152 152.703 157.829 152.463 157.416C152.23 157.002 152.113 156.536 152.113 156.016C152.113 155.502 152.227 155.039 152.453 154.626C152.687 154.212 153.003 153.892 153.403 153.666C153.81 153.432 154.267 153.316 154.773 153.316C155.28 153.316 155.73 153.432 156.123 153.666C156.523 153.892 156.833 154.212 157.053 154.626C157.28 155.039 157.393 155.512 157.393 156.046ZM154.773 154.126C154.313 154.126 153.927 154.266 153.613 154.546C153.307 154.826 153.127 155.192 153.073 155.646H156.473C156.42 155.199 156.237 154.836 155.923 154.556C155.617 154.269 155.233 154.126 154.773 154.126ZM160.246 158.726C159.813 158.726 159.396 158.669 158.996 158.556C158.596 158.436 158.283 158.286 158.056 158.106L158.456 157.346C158.69 157.512 158.973 157.646 159.306 157.746C159.64 157.846 159.976 157.896 160.316 157.896C161.156 157.896 161.576 157.656 161.576 157.176C161.576 157.016 161.52 156.889 161.406 156.796C161.293 156.702 161.15 156.636 160.976 156.596C160.81 156.549 160.57 156.499 160.256 156.446C159.83 156.379 159.48 156.302 159.206 156.216C158.94 156.129 158.71 155.982 158.516 155.776C158.323 155.569 158.226 155.279 158.226 154.906C158.226 154.426 158.426 154.042 158.826 153.756C159.226 153.462 159.763 153.316 160.436 153.316C160.79 153.316 161.143 153.359 161.496 153.446C161.85 153.532 162.14 153.649 162.366 153.796L161.956 154.556C161.523 154.276 161.013 154.136 160.426 154.136C160.02 154.136 159.71 154.202 159.496 154.336C159.283 154.469 159.176 154.646 159.176 154.866C159.176 155.039 159.236 155.176 159.356 155.276C159.476 155.376 159.623 155.449 159.796 155.496C159.976 155.542 160.226 155.596 160.546 155.656C160.973 155.729 161.316 155.809 161.576 155.896C161.843 155.976 162.07 156.116 162.256 156.316C162.443 156.516 162.536 156.796 162.536 157.156C162.536 157.636 162.33 158.019 161.916 158.306C161.51 158.586 160.953 158.726 160.246 158.726Z" fill="white"/>
<path d="M130.032 174.319C129.36 174.319 128.76 174.151 128.232 173.815C127.704 173.471 127.288 172.975 126.984 172.327C126.68 171.671 126.528 170.895 126.528 169.999C126.528 169.103 126.68 168.331 126.984 167.683C127.288 167.027 127.704 166.531 128.232 166.195C128.76 165.851 129.36 165.679 130.032 165.679C130.704 165.679 131.304 165.851 131.832 166.195C132.368 166.531 132.788 167.027 133.092 167.683C133.396 168.331 133.548 169.103 133.548 169.999C133.548 170.895 133.396 171.671 133.092 172.327C132.788 172.975 132.368 173.471 131.832 173.815C131.304 174.151 130.704 174.319 130.032 174.319ZM130.032 172.963C130.632 172.963 131.104 172.715 131.448 172.219C131.8 171.723 131.976 170.983 131.976 169.999C131.976 169.015 131.8 168.275 131.448 167.779C131.104 167.283 130.632 167.035 130.032 167.035C129.44 167.035 128.968 167.283 128.616 167.779C128.272 168.275 128.1 169.015 128.1 169.999C128.1 170.983 128.272 171.723 128.616 172.219C128.968 172.715 129.44 172.963 130.032 172.963ZM138.418 169.015C138.97 169.015 139.466 169.123 139.906 169.339C140.346 169.547 140.69 169.847 140.938 170.239C141.186 170.631 141.31 171.083 141.31 171.595C141.31 172.139 141.174 172.619 140.902 173.035C140.63 173.443 140.262 173.759 139.798 173.983C139.334 174.207 138.814 174.319 138.238 174.319C137.086 174.319 136.19 173.959 135.55 173.239C134.918 172.519 134.602 171.487 134.602 170.143C134.602 169.199 134.774 168.395 135.118 167.731C135.462 167.059 135.942 166.551 136.558 166.207C137.182 165.855 137.902 165.679 138.718 165.679C139.15 165.679 139.554 165.727 139.93 165.823C140.314 165.911 140.646 166.043 140.926 166.219L140.35 167.395C139.934 167.123 139.402 166.987 138.754 166.987C137.946 166.987 137.314 167.235 136.858 167.731C136.402 168.227 136.174 168.943 136.174 169.879V169.891C136.422 169.603 136.738 169.387 137.122 169.243C137.506 169.091 137.938 169.015 138.418 169.015ZM138.154 173.095C138.642 173.095 139.038 172.967 139.342 172.711C139.646 172.447 139.798 172.099 139.798 171.667C139.798 171.227 139.646 170.879 139.342 170.623C139.038 170.367 138.63 170.239 138.118 170.239C137.614 170.239 137.202 170.375 136.882 170.647C136.57 170.919 136.414 171.263 136.414 171.679C136.414 172.087 136.566 172.427 136.87 172.699C137.182 172.963 137.61 173.095 138.154 173.095ZM145.315 164.095H146.659L142.699 175.399H141.355L145.315 164.095ZM152.78 172.879V174.199H146.588V173.155L149.924 169.987C150.3 169.627 150.552 169.315 150.68 169.051C150.816 168.779 150.884 168.511 150.884 168.247C150.884 167.855 150.752 167.555 150.488 167.347C150.224 167.139 149.836 167.035 149.324 167.035C148.468 167.035 147.812 167.327 147.356 167.911L146.264 167.071C146.592 166.631 147.032 166.291 147.584 166.051C148.144 165.803 148.768 165.679 149.456 165.679C150.368 165.679 151.096 165.895 151.64 166.327C152.184 166.759 152.456 167.347 152.456 168.091C152.456 168.547 152.36 168.975 152.168 169.375C151.976 169.775 151.608 170.231 151.064 170.743L148.82 172.879H152.78ZM156.584 165.799V174.199H155.024V167.107H153.248V165.799H156.584Z" fill="white"/>
<defs>
<filter id="filter0_d_2485_382989" x="23.6777" y="156.177" width="230.887" height="80.2574" filterUnits="userSpaceOnUse" color-interpolation-filters="sRGB">
<feFlood flood-opacity="0" result="BackgroundImageFix"/>
<feColorMatrix in="SourceAlpha" type="matrix" values="0 0 0 0 0 0 0 0 0 0 0 0 0 0 0 0 0 0 127 0" result="hardAlpha"/>
<feOffset/>
<feGaussianBlur stdDeviation="8"/>
<feColorMatrix type="matrix" values="0 0 0 0 0.121569 0 0 0 0 0.447059 0 0 0 0 0.803922 0 0 0 0.05 0"/>
<feBlend mode="normal" in2="BackgroundImageFix" result="effect1_dropShadow_2485_382989"/>
<feBlend mode="normal" in="SourceGraphic" in2="effect1_dropShadow_2485_382989" result="shape"/>
</filter>
<filter id="filter1_d_2485_382989" x="72.1152" y="171.631" width="134.09" height="49.349" filterUnits="userSpaceOnUse" color-interpolation-filters="sRGB">
<feFlood flood-opacity="0" result="BackgroundImageFix"/>
<feColorMatrix in="SourceAlpha" type="matrix" values="0 0 0 0 0 0 0 0 0 0 0 0 0 0 0 0 0 0 127 0" result="hardAlpha"/>
<feOffset/>
<feGaussianBlur stdDeviation="8"/>
<feColorMatrix type="matrix" values="0 0 0 0 0.121569 0 0 0 0 0.447059 0 0 0 0 0.803922 0 0 0 0.15 0"/>
<feBlend mode="normal" in2="BackgroundImageFix" result="effect1_dropShadow_2485_382989"/>
<feBlend mode="normal" in="SourceGraphic" in2="effect1_dropShadow_2485_382989" result="shape"/>
</filter>
</defs>
</svg>
