<svg width="20" height="20" viewBox="0 0 20 20" fill="none" xmlns="http://www.w3.org/2000/svg">
<path fill-rule="evenodd" clip-rule="evenodd" d="M15 18.0275C16.6568 18.0275 18 16.7026 18 15.0683L18 9.9126L19 9.91189L20 9.91192L20 15.0683C20 17.7917 17.7615 20 15 20L6 20C2.72661 20 1.67875e-06 17.3852 1.39428e-06 14.1312C1.34431e-06 13.5595 0.46989 13.0961 1.04951 13.0961L5 13.0961L5 1.84755C5 0.601098 6.46715 -0.0866649 7.44714 0.700372L9.83336 2.61676L11.3304 0.693085C11.9116 -0.0537121 13.0428 -0.0822538 13.662 0.634253L15.3274 2.56156L17.4287 0.446875C18.3692 -0.499584 20 0.157152 20 1.48237L20 9.91192L19 9.91189L18 9.9126L18 2.69008L16.7558 3.94222C15.9331 4.77008 14.5675 4.72325 13.8052 3.84102L12.5407 2.37764L11.4199 3.81777C10.7336 4.69959 9.4445 4.84824 8.57051 4.14633L7 2.88505L7 13.0961L10.9505 13.0961C11.5301 13.0961 12 13.5596 12 14.1312L12 15.0687C12 16.7028 13.3431 18.0275 15 18.0275ZM10.9996 18.0275C10.3719 17.2033 10 16.1788 10 15.0687L2.11842 15.0687C2.55361 16.7606 4.13637 18.0275 6 18.0275L10.9996 18.0275ZM10.9505 15.0687L10.9491 15.0687L10.9505 15.0687Z" fill="url(#paint0_linear_345_1187)"/>
<path fill-rule="evenodd" clip-rule="evenodd" d="M15 8.16479C15.5523 8.16479 16 7.72323 16 7.17853C16 6.63383 15.5523 6.19226 15 6.19226L10 6.19226C9.44772 6.19226 9 6.63383 9 7.17853C9 7.72323 9.44772 8.16479 10 8.16479L15 8.16479ZM15 12.1099C15.5523 12.1099 16 11.6683 16 11.1236C16 10.5789 15.5523 10.1373 15 10.1373L10 10.1373C9.44772 10.1373 9 10.5789 9 11.1236C9 11.6683 9.44772 12.1099 10 12.1099L15 12.1099Z" fill="url(#paint1_linear_345_1187)"/>
<defs>
<linearGradient id="paint0_linear_345_1187" x1="20" y1="-1.90735e-06" x2="-1.90735e-06" y2="20" gradientUnits="userSpaceOnUse">
<stop stop-color="#CA4573"/>
<stop offset="0.494792" stop-color="#EE5342"/>
<stop offset="1" stop-color="#EFBB58"/>
</linearGradient>
<linearGradient id="paint1_linear_345_1187" x1="20" y1="-1.90735e-06" x2="-1.90735e-06" y2="20" gradientUnits="userSpaceOnUse">
<stop stop-color="#CA4573"/>
<stop offset="0.494792" stop-color="#EE5342"/>
<stop offset="1" stop-color="#EFBB58"/>
</linearGradient>
</defs>
</svg>
