<svg width="20" height="16" viewBox="0 0 20 16" fill="none" xmlns="http://www.w3.org/2000/svg">
<path fill-rule="evenodd" clip-rule="evenodd" d="M0 3V13C0 14.6569 1.34315 16 3 16H17C18.6569 16 20 14.6569 20 13V3C20 1.34315 18.6569 0 17 0H3C1.34315 0 0 1.34315 0 3ZM3 14C2.44772 14 2 13.5523 2 13L2 3C2 2.44772 2.44772 2 3 2L17 2C17.5523 2 18 2.44772 18 3V13C18 13.5523 17.5523 14 17 14L3 14ZM14.666 4C14.666 3.44772 14.2182 3 13.666 3C13.1137 3 12.666 3.44772 12.666 4V4.15713C11.7138 4.36117 11 5.20749 11 6.22054C11 7.38601 11.9448 8.33081 13.1103 8.33081H14.2236C14.2845 8.33081 14.3338 8.38018 14.3338 8.44108C14.3338 8.50198 14.2845 8.55135 14.2236 8.55135H12.2778C11.7255 8.55135 11.2778 8.99907 11.2778 9.55135C11.2778 10.1036 11.7255 10.5514 12.2778 10.5514H12.666V10.6616C12.666 11.2139 13.1137 11.6616 13.666 11.6616C14.2182 11.6616 14.666 11.2139 14.666 10.6616V10.5049C15.619 10.3016 16.3338 9.45482 16.3338 8.44108C16.3338 7.27561 15.389 6.33081 14.2236 6.33081H13.1103C13.0494 6.33081 13 6.28144 13 6.22054C13 6.15964 13.0494 6.11027 13.1103 6.11027H15.056C15.6083 6.11027 16.056 5.66256 16.056 5.11027C16.056 4.55799 15.6083 4.11027 15.056 4.11027H14.666V4ZM3 9C3 8.44772 3.44772 8 4 8H7C7.55229 8 8 8.44772 8 9C8 9.55229 7.55229 10 7 10H4C3.44772 10 3 9.55229 3 9ZM4 11C3.44772 11 3 11.4477 3 12C3 12.5523 3.44772 13 4 13H9.5C10.0523 13 10.5 12.5523 10.5 12C10.5 11.4477 10.0523 11 9.5 11H4Z" fill="url(#paint0_linear_345_345)"/>
<defs>
<linearGradient id="paint0_linear_345_345" x1="0" y1="16" x2="15.6098" y2="-3.5122" gradientUnits="userSpaceOnUse">
<stop stop-color="#CA4573"/>
<stop offset="0.494792" stop-color="#EE5342"/>
<stop offset="1" stop-color="#EFBB58"/>
</linearGradient>
</defs>
</svg>
