<svg width="12" height="14" viewBox="0 0 12 14" fill="none" xmlns="http://www.w3.org/2000/svg">
<path fill-rule="evenodd" clip-rule="evenodd" d="M10 13.6666L2 13.6666C0.895432 13.6666 1.30985e-06 12.7712 0 11.6666V2.33325C0 1.22868 0.895432 0.333252 2 0.333252H6H8.02778C8.60978 0.333252 9.16291 0.586772 9.54284 1.02766L10.3979 2.01992L11.4967 3.25956C11.821 3.6254 12 4.09732 12 4.58618L12 6.99992V11.6666C12 12.7712 11.1046 13.6666 10 13.6666ZM9.39394 2.89736L8.66667 2.0534V3.66659H10.0758L9.39394 2.89736ZM7.33333 4.33325V1.66659L6 1.66659L2 1.66659C1.63181 1.66659 1.33333 1.96506 1.33333 2.33325L1.33333 11.6666C1.33333 12.0348 1.63181 12.3333 2 12.3333L10 12.3333C10.3682 12.3333 10.6667 12.0348 10.6667 11.6666L10.6667 6.99992V4.99992H8C7.63181 4.99992 7.33333 4.70144 7.33333 4.33325ZM7.42527 5.66719C7.72601 5.68003 7.98084 5.89282 8.04713 6.18644L8.43771 7.91658H8.66667C9.03486 7.91658 9.33333 8.21506 9.33333 8.58325C9.33333 8.95144 9.03486 9.24991 8.66667 9.24991H7.90476C7.63771 9.24991 7.4012 9.09138 7.29581 8.85473L6.7624 10.535C6.67796 10.801 6.43676 10.9862 6.15798 10.9992C5.8792 11.0122 5.62184 10.8501 5.51305 10.5931L4.80215 8.91362L4.68962 9.13516C4.57596 9.35894 4.34623 9.49991 4.09524 9.49991H3.33333C2.96514 9.49991 2.66667 9.20144 2.66667 8.83325C2.66667 8.46506 2.96514 8.16658 3.33333 8.16658H3.68613L4.26276 7.03134C4.38021 6.8001 4.62112 6.65796 4.88033 6.66698C5.13953 6.676 5.36998 6.83454 5.47108 7.07338L6.03755 8.41168L6.76141 6.13153C6.85249 5.84462 7.12453 5.65434 7.42527 5.66719Z" fill="#CFD8DC"/>
</svg>
