<svg width="40" height="37" viewBox="0 0 40 37" fill="none" xmlns="http://www.w3.org/2000/svg">
<path fill-rule="evenodd" clip-rule="evenodd" d="M29.317 7.99485C30.1483 8.72222 30.2325 9.98574 29.5052 10.817C28.7778 11.6483 27.5143 11.7325 26.683 11.0052L22 6.90754V26.5C22 27.6046 21.1046 28.5 20 28.5C18.8954 28.5 18 27.6046 18 26.5V6.90754L13.317 11.0052C12.4857 11.7325 11.2222 11.6483 10.4948 10.817C9.76748 9.98574 9.85172 8.72222 10.683 7.99485L18.683 0.994847C19.437 0.335051 20.563 0.335051 21.317 0.994847L29.317 7.99485ZM4 26.5C4 25.3954 3.10457 24.5 2 24.5C0.89543 24.5 0 25.3954 0 26.5V32.5C0 34.7091 1.79086 36.5 4 36.5H36C38.2091 36.5 40 34.7091 40 32.5V26.5C40 25.3954 39.1046 24.5 38 24.5C36.8954 24.5 36 25.3954 36 26.5V32.5H4V26.5Z" fill="#CFD8DC"/>
</svg>
