<svg width="36" height="24" viewBox="0 0 36 24" fill="none" xmlns="http://www.w3.org/2000/svg">
<rect width="36" height="24" rx="2" fill="white"/>
<mask id="mask0_1810_167334" style="mask-type:alpha" maskUnits="userSpaceOnUse" x="0" y="0" width="36" height="24">
<rect width="36" height="24" rx="2" fill="white"/>
</mask>
<g mask="url(#mask0_1810_167334)">
<path fill-rule="evenodd" clip-rule="evenodd" d="M36 0H0V1.6H36V0ZM36 3.2H0V4.8H36V3.2ZM0 6.4H36V8H0V6.4ZM36 9.6H0V11.2H36V9.6ZM0 12.8H36V14.4H0V12.8ZM36 16H0V17.6H36V16ZM0 19.2H36V20.8H0V19.2ZM36 22.4H0V24H36V22.4Z" fill="#D02F44"/>
<rect width="15.4286" height="11.2" fill="#46467F"/>
<g filter="url(#filter0_d_1810_167334)">
<path fill-rule="evenodd" clip-rule="evenodd" d="M3.42864 2.4001C3.42864 2.84193 3.04489 3.2001 2.5715 3.2001C2.09811 3.2001 1.71436 2.84193 1.71436 2.4001C1.71436 1.95827 2.09811 1.6001 2.5715 1.6001C3.04489 1.6001 3.42864 1.95827 3.42864 2.4001ZM6.85721 2.4001C6.85721 2.84193 6.47346 3.2001 6.00007 3.2001C5.52668 3.2001 5.14293 2.84193 5.14293 2.4001C5.14293 1.95827 5.52668 1.6001 6.00007 1.6001C6.47346 1.6001 6.85721 1.95827 6.85721 2.4001ZM9.42864 3.2001C9.90203 3.2001 10.2858 2.84193 10.2858 2.4001C10.2858 1.95827 9.90203 1.6001 9.42864 1.6001C8.95525 1.6001 8.5715 1.95827 8.5715 2.4001C8.5715 2.84193 8.95525 3.2001 9.42864 3.2001ZM13.7144 2.4001C13.7144 2.84193 13.3306 3.2001 12.8572 3.2001C12.3838 3.2001 12.0001 2.84193 12.0001 2.4001C12.0001 1.95827 12.3838 1.6001 12.8572 1.6001C13.3306 1.6001 13.7144 1.95827 13.7144 2.4001ZM4.28578 4.8001C4.75917 4.8001 5.14293 4.44193 5.14293 4.0001C5.14293 3.55827 4.75917 3.2001 4.28578 3.2001C3.8124 3.2001 3.42864 3.55827 3.42864 4.0001C3.42864 4.44193 3.8124 4.8001 4.28578 4.8001ZM8.5715 4.0001C8.5715 4.44193 8.18774 4.8001 7.71435 4.8001C7.24097 4.8001 6.85721 4.44193 6.85721 4.0001C6.85721 3.55827 7.24097 3.2001 7.71435 3.2001C8.18774 3.2001 8.5715 3.55827 8.5715 4.0001ZM11.1429 4.8001C11.6163 4.8001 12.0001 4.44193 12.0001 4.0001C12.0001 3.55827 11.6163 3.2001 11.1429 3.2001C10.6695 3.2001 10.2858 3.55827 10.2858 4.0001C10.2858 4.44193 10.6695 4.8001 11.1429 4.8001ZM13.7144 5.6001C13.7144 6.04193 13.3306 6.4001 12.8572 6.4001C12.3838 6.4001 12.0001 6.04193 12.0001 5.6001C12.0001 5.15827 12.3838 4.8001 12.8572 4.8001C13.3306 4.8001 13.7144 5.15827 13.7144 5.6001ZM9.42864 6.4001C9.90203 6.4001 10.2858 6.04193 10.2858 5.6001C10.2858 5.15827 9.90203 4.8001 9.42864 4.8001C8.95525 4.8001 8.5715 5.15827 8.5715 5.6001C8.5715 6.04193 8.95525 6.4001 9.42864 6.4001ZM6.85721 5.6001C6.85721 6.04193 6.47346 6.4001 6.00007 6.4001C5.52668 6.4001 5.14293 6.04193 5.14293 5.6001C5.14293 5.15827 5.52668 4.8001 6.00007 4.8001C6.47346 4.8001 6.85721 5.15827 6.85721 5.6001ZM2.5715 6.4001C3.04489 6.4001 3.42864 6.04193 3.42864 5.6001C3.42864 5.15827 3.04489 4.8001 2.5715 4.8001C2.09811 4.8001 1.71436 5.15827 1.71436 5.6001C1.71436 6.04193 2.09811 6.4001 2.5715 6.4001ZM5.14293 7.2001C5.14293 7.64193 4.75917 8.0001 4.28578 8.0001C3.8124 8.0001 3.42864 7.64193 3.42864 7.2001C3.42864 6.75827 3.8124 6.4001 4.28578 6.4001C4.75917 6.4001 5.14293 6.75827 5.14293 7.2001ZM7.71435 8.0001C8.18774 8.0001 8.5715 7.64193 8.5715 7.2001C8.5715 6.75827 8.18774 6.4001 7.71435 6.4001C7.24097 6.4001 6.85721 6.75827 6.85721 7.2001C6.85721 7.64193 7.24097 8.0001 7.71435 8.0001ZM12.0001 7.2001C12.0001 7.64193 11.6163 8.0001 11.1429 8.0001C10.6695 8.0001 10.2858 7.64193 10.2858 7.2001C10.2858 6.75827 10.6695 6.4001 11.1429 6.4001C11.6163 6.4001 12.0001 6.75827 12.0001 7.2001ZM12.8572 9.6001C13.3306 9.6001 13.7144 9.24193 13.7144 8.8001C13.7144 8.35827 13.3306 8.0001 12.8572 8.0001C12.3838 8.0001 12.0001 8.35827 12.0001 8.8001C12.0001 9.24193 12.3838 9.6001 12.8572 9.6001ZM10.2858 8.8001C10.2858 9.24193 9.90203 9.6001 9.42864 9.6001C8.95525 9.6001 8.5715 9.24193 8.5715 8.8001C8.5715 8.35827 8.95525 8.0001 9.42864 8.0001C9.90203 8.0001 10.2858 8.35827 10.2858 8.8001ZM6.00007 9.6001C6.47346 9.6001 6.85721 9.24193 6.85721 8.8001C6.85721 8.35827 6.47346 8.0001 6.00007 8.0001C5.52668 8.0001 5.14293 8.35827 5.14293 8.8001C5.14293 9.24193 5.52668 9.6001 6.00007 9.6001ZM3.42864 8.8001C3.42864 9.24193 3.04489 9.6001 2.5715 9.6001C2.09811 9.6001 1.71436 9.24193 1.71436 8.8001C1.71436 8.35827 2.09811 8.0001 2.5715 8.0001C3.04489 8.0001 3.42864 8.35827 3.42864 8.8001Z" fill="url(#paint0_linear_1810_167334)"/>
</g>
</g>
<defs>
<filter id="filter0_d_1810_167334" x="1.71436" y="1.6001" width="12" height="9" filterUnits="userSpaceOnUse" color-interpolation-filters="sRGB">
<feFlood flood-opacity="0" result="BackgroundImageFix"/>
<feColorMatrix in="SourceAlpha" type="matrix" values="0 0 0 0 0 0 0 0 0 0 0 0 0 0 0 0 0 0 127 0" result="hardAlpha"/>
<feOffset dy="1"/>
<feColorMatrix type="matrix" values="0 0 0 0 0 0 0 0 0 0 0 0 0 0 0 0 0 0 0.06 0"/>
<feBlend mode="normal" in2="BackgroundImageFix" result="effect1_dropShadow_1810_167334"/>
<feBlend mode="normal" in="SourceGraphic" in2="effect1_dropShadow_1810_167334" result="shape"/>
</filter>
<linearGradient id="paint0_linear_1810_167334" x1="1.71436" y1="1.6001" x2="1.71436" y2="9.6001" gradientUnits="userSpaceOnUse">
<stop stop-color="white"/>
<stop offset="1" stop-color="#F0F0F0"/>
</linearGradient>
</defs>
</svg>
