<svg width="16" height="16" viewBox="0 0 16 16" fill="none" xmlns="http://www.w3.org/2000/svg">
<path fill-rule="evenodd" clip-rule="evenodd" d="M6.28711 15.7525C6.82816 16.0724 7.49792 16.0829 8.04866 15.7799L9.66481 14.8911C10.2329 14.5786 10.5858 13.9817 10.5858 13.3333L10.5858 7.74096L15.4544 3.05921C15.9773 2.55642 16.1422 1.78639 15.8712 1.11355C15.6002 0.440703 14.9475 -6.00593e-07 14.2222 -6.64007e-07L1.77783 1.55422e-07C1.05245 9.20082e-08 0.39983 0.440704 0.12881 1.11355C-0.14221 1.7864 0.0227354 2.55642 0.545587 3.05921L5.41416 7.74096L5.41416 14.2222C5.41416 14.8508 5.74607 15.4326 6.28711 15.7525ZM8.80808 13.3333L7.19193 14.2222L7.19193 7.36255C7.19193 7.20232 7.14867 7.04668 7.06878 6.91114C7.02811 6.84215 6.97795 6.77836 6.91916 6.72183L1.77783 1.77778L14.2222 1.77778L9.08084 6.72183C9.02205 6.77836 8.97189 6.84215 8.93122 6.91115C8.85133 7.04669 8.80807 7.20232 8.80807 7.36255L8.80808 13.3333Z" fill="#A8AFBD"/>
</svg>
