<svg width="20" height="22" viewBox="0 0 20 22" fill="none" xmlns="http://www.w3.org/2000/svg">
<path fill-rule="evenodd" clip-rule="evenodd" d="M18.2929 6.20686C18.6834 6.59739 19.3166 6.59739 19.7071 6.20686C20.0976 5.81634 20.0976 5.18317 19.7071 4.79265L18.4142 3.49976L19.707 2.20702C20.0975 1.81649 20.0975 1.18333 19.707 0.792802C19.3164 0.402277 18.6833 0.402277 18.2927 0.792802L17 2.08554L15.7073 0.792802C15.3167 0.402277 14.6836 0.402277 14.293 0.792802C13.9025 1.18333 13.9025 1.81649 14.293 2.20702L15.5858 3.49976L14.2929 4.79265C13.9024 5.18317 13.9024 5.81634 14.2929 6.20686C14.6834 6.59739 15.3166 6.59739 15.7071 6.20686L17 4.91397L18.2929 6.20686ZM0.292893 18.7926C-0.0976311 19.1832 -0.0976311 19.8163 0.292893 20.2069C0.683418 20.5974 1.31658 20.5974 1.70711 20.2069L3 18.914L4.29289 20.2069C4.68342 20.5974 5.31658 20.5974 5.70711 20.2069C6.09763 19.8163 6.09763 19.1832 5.70711 18.7926L4.41421 17.4998L5.70695 16.207C6.09748 15.8165 6.09748 15.1833 5.70695 14.7928C5.31643 14.4023 4.68326 14.4023 4.29274 14.7928L3 16.0855L1.70726 14.7928C1.31674 14.4023 0.68357 14.4023 0.293046 14.7928C-0.0974785 15.1833 -0.0974785 15.8165 0.293046 16.207L1.58579 17.4998L0.292893 18.7926ZM16 18.5C16 17.9477 16.4477 17.5 17 17.5C17.5523 17.5 18 17.9477 18 18.5C18 19.0523 17.5523 19.5 17 19.5C16.4477 19.5 16 19.0523 16 18.5ZM17 21.5C18.6569 21.5 20 20.1569 20 18.5C20 17.1716 19.1366 16.0448 17.9403 15.6503C17.5276 12.739 15.0253 10.5 12 10.5H10C7.58369 10.5 5.62488 8.54119 5.62488 6.12487V4.09991L6.5911 5.17012C6.96119 5.58005 7.59353 5.61235 8.00347 5.24225C8.4134 4.87215 8.4457 4.23981 8.0756 3.82988L5.36714 0.829878C5.17571 0.617848 4.90275 0.497805 4.6171 0.500029C4.33145 0.502252 4.06039 0.626529 3.87229 0.841512L1.24742 3.84151C0.883749 4.25716 0.925882 4.88892 1.34153 5.25259C1.75717 5.61626 2.38893 5.57413 2.75261 5.15848L3.62488 4.16155V6.12487C3.62488 9.64575 6.47913 12.5 10 12.5H12C13.9353 12.5 15.5495 13.8743 15.92 15.7003C14.7968 16.1338 14 17.2239 14 18.5C14 20.1569 15.3431 21.5 17 21.5Z" fill="#4F5B84"/>
</svg>
