<svg width="15" height="14" viewBox="0 0 15 14" fill="none" xmlns="http://www.w3.org/2000/svg">
<path fill-rule="evenodd" clip-rule="evenodd" d="M7.49967 13.6667C3.81778 13.6667 0.833008 10.6819 0.833008 7C0.833008 3.3181 3.81778 0.333328 7.49967 0.333328C11.1816 0.333328 14.1663 3.3181 14.1663 7C14.1663 10.6819 11.1816 13.6667 7.49967 13.6667ZM7.49967 1.66666C7.3745 1.66666 7.25033 1.67097 7.12731 1.67946C7.10452 1.70834 7.07995 1.74018 7.05384 1.77499C6.88757 1.99669 6.65946 2.33781 6.42929 2.79814C6.22229 3.21214 6.01303 3.72368 5.8456 4.33333H9.15375C8.98632 3.72368 8.77706 3.21214 8.57006 2.79814C8.33989 2.33781 8.11178 1.99669 7.94551 1.77499C7.9194 1.74018 7.89483 1.70834 7.87204 1.67946C7.74902 1.67097 7.62485 1.66666 7.49967 1.66666ZM4.16634 7C4.16634 6.53018 4.19247 6.08572 4.23905 5.66666H2.33436C2.22468 6.09282 2.16634 6.5396 2.16634 7C2.16634 7.46039 2.22468 7.90717 2.33436 8.33333H4.23905C4.19247 7.91427 4.16634 7.46981 4.16634 7ZM4.46948 9.66666H2.87985C3.42802 10.6143 4.25939 11.3776 5.25823 11.8409L5.23672 11.7981C4.95293 11.2305 4.6722 10.5198 4.46948 9.66666ZM5.8456 9.66666L9.15375 9.66666C8.98632 10.2763 8.77706 10.7879 8.57006 11.2019C8.33989 11.6622 8.11178 12.0033 7.94551 12.225C7.9194 12.2598 7.89483 12.2917 7.87204 12.3205C7.74902 12.329 7.62485 12.3333 7.49967 12.3333C7.3745 12.3333 7.25033 12.329 7.12731 12.3205C7.10452 12.2917 7.07995 12.2598 7.05384 12.225C6.88757 12.0033 6.65946 11.6622 6.42929 11.2019C6.22229 10.7879 6.01303 10.2763 5.8456 9.66666ZM9.41765 8.33333L5.5817 8.33333C5.52959 7.91974 5.49967 7.47533 5.49967 7C5.49967 6.52466 5.52959 6.08024 5.5817 5.66666H9.41765C9.46976 6.08024 9.49967 6.52466 9.49967 7C9.49967 7.47533 9.46976 7.91974 9.41765 8.33333ZM10.5299 9.66666C10.3271 10.5198 10.0464 11.2305 9.76263 11.7981L9.74112 11.8409C10.74 11.3776 11.5713 10.6143 12.1195 9.66666H10.5299ZM12.665 8.33333H10.7603C10.8069 7.91427 10.833 7.46981 10.833 7C10.833 6.53018 10.8069 6.08572 10.7603 5.66666H12.665C12.7747 6.09282 12.833 6.5396 12.833 7C12.833 7.46039 12.7747 7.90717 12.665 8.33333ZM5.23672 2.20185C4.95293 2.76945 4.6722 3.48024 4.46948 4.33333H2.87985C3.42802 3.3857 4.25939 2.62239 5.25823 2.15912L5.23672 2.20185ZM9.74112 2.15912C10.74 2.62239 11.5713 3.3857 12.1195 4.33333H10.5299C10.3271 3.48023 10.0464 2.76945 9.76263 2.20185L9.74112 2.15912Z" fill="#99ABCE"/>
</svg>
