<svg width="10" height="14" viewBox="0 0 10 14" fill="none" xmlns="http://www.w3.org/2000/svg">
<path fill-rule="evenodd" clip-rule="evenodd" d="M8.03309 7.10918L5.03098 11.4803L2.00606 7.12376C1.51017 6.13918 1.45691 4.9652 1.86131 3.93356C3.03298 0.944624 6.96821 0.934293 8.15709 3.92395C8.56564 4.95132 8.52004 6.12346 8.03309 7.10918ZM9.13283 7.74L5.74348 12.895L5.74301 12.8959L5.71013 12.9625L5.39221 13.438C5.23422 13.7578 4.8093 13.7595 4.64887 13.441L4.36317 12.9679L4.32979 12.9016L4.3293 12.9007L0.911176 7.76345C0.234643 6.42019 0.161971 4.81854 0.713695 3.41109C2.31393 -0.671132 7.68191 -0.678477 9.30213 3.39585C9.85919 4.7967 9.79723 6.39505 9.13283 7.74ZM5.65249 5.25522C5.6534 5.62581 5.37527 5.92691 5.03128 5.92775C4.68728 5.9286 4.40768 5.62886 4.40677 5.25827C4.40587 4.88768 4.68399 4.58658 5.02799 4.58574C5.37199 4.58489 5.65158 4.88463 5.65249 5.25522ZM6.89821 5.25217C6.90094 6.36393 6.06655 7.26724 5.03456 7.26977C4.00258 7.2723 3.16378 6.37309 3.16105 5.26132C3.15833 4.14956 3.99271 3.24625 5.0247 3.24372C6.05669 3.24119 6.89549 4.14041 6.89821 5.25217Z" fill="#99ABCE"/>
</svg>
