<svg width="14" height="14" viewBox="0 0 14 14" fill="none" xmlns="http://www.w3.org/2000/svg">
<path fill-rule="evenodd" clip-rule="evenodd" d="M3.19926 1.79789L3.19971 1.79845L3.19926 1.79789ZM3.22793 1.84291L4.56428 3.9486C4.4028 4.10021 4.22666 4.25039 4.03709 4.41201C3.87416 4.55091 3.70132 4.69827 3.51934 4.86227C3.06829 5.26875 2.98117 5.92249 3.27308 6.43125C4.81672 9.12158 6.92212 10.3458 7.8642 10.7853C8.43174 11.0501 9.04837 10.8411 9.39165 10.4084L10.3164 9.24269C10.3164 9.24269 10.3172 9.24204 10.3186 9.24179C10.32 9.24155 10.3225 9.24179 10.3225 9.24179C10.3225 9.24179 10.3245 9.24226 10.3265 9.24344C10.8653 9.57278 11.6171 10.0204 12.3077 10.3993C12.1836 11.1408 11.8987 11.5727 11.5846 11.8368C11.2548 12.1141 10.8282 12.2601 10.3524 12.3127C9.40252 12.4179 8.43816 12.1326 8.22428 12.063C7.98828 11.9435 6.69435 11.269 5.31198 10.176C3.88654 9.04898 2.45721 7.54694 1.91056 5.82423C1.51105 4.56522 1.66169 3.67926 1.9757 3.06814C2.27925 2.47737 2.77047 2.07639 3.22793 1.84291ZM2.74451 0.596672C3.37427 0.300874 4.02547 0.609284 4.32879 1.08723L5.72681 3.29009C6.00944 3.73543 6.02881 4.38645 5.56934 4.83242C5.37242 5.02356 5.09845 5.25847 4.84351 5.47707C4.70357 5.59707 4.56936 5.71215 4.45678 5.81237C5.78531 8.10328 7.56147 9.16318 8.3693 9.55076L9.26856 8.41718C9.69314 7.88197 10.4491 7.75688 11.0248 8.10874C11.5573 8.43423 12.2936 8.8723 12.9608 9.2381C13.4057 9.48207 13.724 9.99067 13.6338 10.5649C13.4719 11.5962 13.0488 12.3474 12.4459 12.8543C11.8531 13.3526 11.1469 13.5641 10.5 13.6357C9.22754 13.7766 8.01052 13.3951 7.78828 13.3214C7.73201 13.3027 7.68532 13.283 7.63512 13.2578C7.39654 13.1377 5.99048 12.4117 4.48177 11.2188C2.98876 10.0383 1.305 8.33072 0.636997 6.22557C0.146314 4.67924 0.291467 3.42543 0.786776 2.46146C1.2734 1.51438 2.06147 0.917494 2.74451 0.596672Z" fill="#99ABCE"/>
<path fill-rule="evenodd" clip-rule="evenodd" d="M8.80767 0.394145C8.47243 0.240842 8.07596 0.387392 7.92212 0.721474C7.76829 1.05556 7.91535 1.45066 8.25059 1.60396C9.80154 2.3132 11.5767 3.64662 12.3878 5.48664C12.5362 5.82317 12.9302 5.97613 13.2679 5.82828C13.6056 5.68044 13.7591 5.28777 13.6107 4.95124C12.6199 2.70365 10.5255 1.17972 8.80767 0.394145ZM8.31321 2.75535C7.9833 2.59097 7.58214 2.72423 7.41718 3.053C7.25223 3.38177 7.38595 3.78155 7.71586 3.94594C8.34344 4.25864 8.77778 4.55332 9.12846 4.90279C9.47914 5.25227 9.77484 5.68511 10.0886 6.31052C10.2536 6.63929 10.6547 6.77255 10.9847 6.60816C11.3146 6.44378 11.4483 6.044 11.2833 5.71523C10.9293 5.00953 10.5571 4.44403 10.073 3.96156C9.58881 3.47908 9.02136 3.1082 8.31321 2.75535Z" fill="#99ABCE"/>
</svg>
