<svg width="24" height="24" viewBox="0 0 24 24" fill="none" xmlns="http://www.w3.org/2000/svg">
<path d="M2.00002 11.924C2.00001 11.9285 2 11.933 2 11.9375C2 13.728 2.84051 15.34 4.16146 16.2217L6.74061 18.9858L8.65672 16.9323H17.2956C19.8696 16.9323 21.9563 14.696 21.9563 11.9375C21.9563 11.9327 21.9563 11.928 21.9563 11.9233C21.9563 11.9204 21.9563 11.9174 21.9563 11.9145C21.9563 10.124 21.1158 8.51201 19.7948 7.63029L17.2157 4.86621L15.2996 6.9197L6.66065 6.9197C4.08665 6.9197 2.00001 9.15596 2.00001 11.9145C2.00001 11.9177 2.00001 11.9209 2.00002 11.924Z" fill="url(#paint0_linear_1755_151133)"/>
<path fill-rule="evenodd" clip-rule="evenodd" d="M7.33368 8.86328C5.66729 8.86328 4.31641 10.2142 4.31641 11.8806C4.31641 13.547 5.66728 14.8978 7.33368 14.8978H16.8009C18.4673 14.8978 19.8182 13.547 19.8182 11.8806C19.8182 10.2142 18.4673 8.86328 16.8009 8.86328H7.33368ZM16.5213 13.9245C17.5546 13.9245 18.3922 13.053 18.3922 11.9779C18.3922 10.9028 17.5546 10.0312 16.5213 10.0312C15.488 10.0312 14.6504 10.9028 14.6504 11.9779C14.6504 13.053 15.488 13.9245 16.5213 13.9245ZM13.936 12.0688H10.1982C10.2438 13.1018 11.0631 13.9246 12.0671 13.9246C13.0711 13.9246 13.8904 13.1018 13.936 12.0688ZM7.52347 13.9245C8.60594 13.9245 9.48346 13.053 9.48346 11.9779C9.48346 10.9028 8.60594 10.0312 7.52347 10.0312C6.44099 10.0312 5.56348 10.9028 5.56348 11.9779C5.56348 13.053 6.44099 13.9245 7.52347 13.9245Z" fill="white"/>
<path fill-rule="evenodd" clip-rule="evenodd" d="M16.6822 3.77226C16.6822 4.14867 16.9607 4.4538 17.3044 4.4538C17.648 4.4538 17.9266 4.14867 17.9266 3.77226V0.681538C17.9266 0.305135 17.648 2.90163e-08 17.3044 4.64261e-08C16.9607 6.38359e-08 16.6822 0.305135 16.6822 0.681538V3.77226ZM16.0048 4.70932C16.2478 4.44316 16.2478 4.01163 16.0048 3.74548L14.3166 1.89626C14.0736 1.6301 13.6796 1.6301 13.4366 1.89626C13.1936 2.16242 13.1936 2.59395 13.4366 2.8601L15.1249 4.70932C15.3678 4.97548 15.7618 4.97548 16.0048 4.70932ZM18.592 4.70932C18.349 4.44316 18.349 4.01163 18.592 3.74548L20.2802 1.89626C20.5232 1.6301 20.9171 1.6301 21.1601 1.89626C21.4031 2.16242 21.4031 2.59395 21.1601 2.8601L19.4719 4.70932C19.2289 4.97548 18.8349 4.97548 18.592 4.70932Z" fill="#FBB400"/>
<defs>
<linearGradient id="paint0_linear_1755_151133" x1="2" y1="18.9858" x2="15.3147" y2="0.167105" gradientUnits="userSpaceOnUse">
<stop stop-color="#CA4573"/>
<stop offset="0.494792" stop-color="#EE5342"/>
<stop offset="1" stop-color="#EFBB58"/>
</linearGradient>
</defs>
</svg>
