<svg width="20" height="20" viewBox="0 0 20 20" fill="none" xmlns="http://www.w3.org/2000/svg">
<path fill-rule="evenodd" clip-rule="evenodd" d="M-6.99382e-07 16L-1.74846e-07 4C-7.8281e-08 1.79086 1.79086 7.8281e-08 4 1.74846e-07L16 6.99382e-07C18.2091 7.95947e-07 20 1.79086 20 4L20 16C20 18.2091 18.2091 20 16 20L4 20C1.79086 20 -7.95947e-07 18.2091 -6.99382e-07 16ZM4 2C2.89543 2 2 2.89543 2 4L2 16C2 17.1046 2.89543 18 4 18L16 18C17.1046 18 18 17.1046 18 16L18 4C18 2.89543 17.1046 2 16 2L4 2ZM6.29289 10.2929C5.90237 10.6834 5.90237 11.3166 6.29289 11.7071C6.68342 12.0976 7.31658 12.0976 7.70711 11.7071L10 9.41421L12.2929 11.7071C12.6834 12.0976 13.3166 12.0976 13.7071 11.7071C14.0976 11.3166 14.0976 10.6834 13.7071 10.2929L10.7071 7.29289C10.3166 6.90237 9.68342 6.90237 9.29289 7.29289L6.29289 10.2929Z" fill="white"/>
</svg>
