<svg width="13" height="14" viewBox="0 0 13 14" fill="none" xmlns="http://www.w3.org/2000/svg">
<path fill-rule="evenodd" clip-rule="evenodd" d="M4.76645 1.74755C4.39826 1.74755 4.09978 1.44907 4.09978 1.08088C4.09978 0.712692 4.39826 0.414215 4.76645 0.414215H7.59488C7.96307 0.414215 8.26154 0.712692 8.26154 1.08088C8.26154 1.44907 7.96307 1.74755 7.59488 1.74755H6.84733L6.84733 3C6.84733 3.01739 6.84666 3.03463 6.84535 3.05168C7.78851 3.18358 8.65261 3.56215 9.37036 4.1201L9.62853 3.86193C9.88888 3.60158 10.311 3.60158 10.5713 3.86193C10.8317 4.12228 10.8317 4.54439 10.5713 4.80474L10.3132 5.06291C10.9025 5.82097 11.2916 6.74228 11.4015 7.74756L12.0999 7.74755C12.4681 7.74754 12.7666 8.04602 12.7666 8.41421C12.7666 8.7824 12.4681 9.08088 12.0999 9.08088L11.3813 9.08089C11.0178 11.6725 8.79174 13.6667 6.09994 13.6667C3.15442 13.6667 0.766602 11.2789 0.766602 8.33333C0.766602 5.58558 2.84454 3.32315 5.51474 3.03174C5.51425 3.02122 5.514 3.01064 5.514 3L5.514 1.74755H4.76645ZM10.0999 8.33333C10.0999 10.5425 8.30907 12.3333 6.09994 12.3333C3.8908 12.3333 2.09993 10.5425 2.09993 8.33333C2.09993 6.1242 3.8908 4.33334 6.09994 4.33334C8.30907 4.33334 10.0999 6.1242 10.0999 8.33333ZM4.2952 6.5286C4.55555 6.26825 4.97766 6.26825 5.23801 6.5286L6.57134 7.86193C6.83169 8.12228 6.83169 8.54439 6.57134 8.80474C6.31099 9.06509 5.88888 9.06509 5.62853 8.80474L4.2952 7.47141C4.03485 7.21106 4.03485 6.78895 4.2952 6.5286Z" fill="#99ABCE"/>
</svg>
