<svg width="20" height="18" viewBox="0 0 20 18" fill="none" xmlns="http://www.w3.org/2000/svg">
<path fill-rule="evenodd" clip-rule="evenodd" d="M10.3536 2.08941C10.1265 1.99322 9.87323 1.99322 9.64618 2.08941L5.77213 3.73058L10.0106 5.33374L14.375 3.793L10.3536 2.08941ZM3.36887 4.96362L2.32228 6.90336L7.63521 9.15408L8.6674 6.96775L3.36887 4.96362ZM12.7958 9.65383L11.3897 6.97327L16.8506 5.04544L17.7969 7.38391L12.7958 9.65383ZM17.9725 3.14437C18.3718 3.31352 18.5 4 18.5679 4.16821L19.9228 7.51635C20.1299 8.02836 19.906 8.62132 19.4225 8.84075L18.5712 9.22717V13.1942C18.5712 13.5849 18.3581 13.9404 18.0243 14.1068L10.4054 17.904C10.1486 18.032 9.8512 18.032 9.59436 17.904L1.97541 14.1068C1.64161 13.9404 1.42856 13.5849 1.42856 13.1942V8.69741L0.59867 8.34585C0.342836 8.23746 0.143862 8.01705 0.053123 7.7415C-0.0376155 7.46596 -0.0112241 7.1623 0.125483 6.90893L2.02634 3.38591C2.0747 3.29441 2.13662 3.21057 2.21058 3.13817C2.22251 3.12648 2.23476 3.11509 2.24732 3.10401C2.32684 3.03387 2.41597 2.97866 2.51069 2.93956L8.93878 0.216422C9.61994 -0.0721405 10.3798 -0.0721411 11.061 0.216422L17.4901 2.93999L17.5017 2.94493L17.9725 3.14437ZM12.756 11.8666L16.6665 10.0917V12.5541L10.9522 15.402V10.2932L11.5483 11.4294C11.7854 11.8815 12.3071 12.0704 12.756 11.8666ZM9.04751 10.6734L8.94697 10.8863C8.72545 11.3555 8.20133 11.5666 7.74144 11.3717L3.33329 9.50432V12.5541L9.04751 15.402V10.6734Z" fill="white"/>
</svg>
