<svg width="14" height="10" viewBox="0 0 14 10" fill="none" xmlns="http://www.w3.org/2000/svg">
<path fill-rule="evenodd" clip-rule="evenodd" d="M1.90484 4.72115C1.84067 4.82685 1.78737 4.92104 1.74461 5.00016C1.78737 5.07928 1.84067 5.17347 1.90484 5.27918C2.1133 5.62251 2.43255 6.08073 2.87292 6.53741C3.75065 7.44765 5.08782 8.3335 7.00016 8.3335C8.9125 8.3335 10.2497 7.44765 11.1274 6.53741C11.5678 6.08073 11.887 5.62251 12.0955 5.27918C12.1597 5.17347 12.213 5.07928 12.2557 5.00016C12.213 4.92104 12.1597 4.82685 12.0955 4.72115C11.887 4.37781 11.5678 3.9196 11.1274 3.46292C10.2497 2.55267 8.9125 1.66683 7.00016 1.66683C5.08782 1.66683 3.75065 2.55267 2.87292 3.46292C2.43255 3.9196 2.1133 4.37781 1.90484 4.72115ZM13.6127 5.26336C13.6128 5.26306 13.6129 5.26278 13.0002 5.00016L13.6129 5.26278C13.6848 5.09508 13.6848 4.90525 13.6129 4.73755L13.0002 5.00016C13.6129 4.73755 13.6128 4.73726 13.6127 4.73696L13.6124 4.73628L13.6117 4.73464L13.6098 4.73027L13.604 4.71721C13.5993 4.70663 13.5928 4.69231 13.5845 4.6745C13.568 4.6389 13.5443 4.58931 13.5132 4.52772C13.451 4.40465 13.359 4.23308 13.2352 4.02918C12.9883 3.62251 12.6111 3.08073 12.0872 2.53741C11.0364 1.44765 9.37354 0.333496 7.00016 0.333496C4.62679 0.333496 2.96396 1.44765 1.91312 2.53741C1.38921 3.08073 1.01203 3.62251 0.765126 4.02918C0.641328 4.23308 0.549293 4.40465 0.487129 4.52772C0.456021 4.58931 0.432318 4.6389 0.415789 4.6745C0.407522 4.69231 0.401042 4.70663 0.396322 4.71721L0.390555 4.73027L0.388652 4.73464L0.387945 4.73628L0.387652 4.73696C0.387522 4.73726 0.387399 4.73755 1.00014 5.00015L0.387399 4.73755C0.315528 4.90525 0.315528 5.09508 0.387399 5.26278L1.00014 5.00017C0.387399 5.26278 0.387522 5.26306 0.387652 5.26336L0.387945 5.26404L0.388652 5.26568L0.390555 5.27006L0.396322 5.28311C0.401042 5.2937 0.407522 5.30802 0.415789 5.32583C0.432318 5.36143 0.456021 5.41102 0.487129 5.47261C0.549293 5.59568 0.641328 5.76725 0.765126 5.97115C1.01203 6.37781 1.38921 6.9196 1.91312 7.46292C2.96396 8.55267 4.62679 9.66683 7.00016 9.66683C9.37354 9.66683 11.0364 8.55267 12.0872 7.46292C12.6111 6.9196 12.9883 6.37781 13.2352 5.97115C13.359 5.76725 13.451 5.59568 13.5132 5.47261C13.5443 5.41102 13.568 5.36143 13.5845 5.32583C13.5928 5.30802 13.5993 5.2937 13.604 5.28311L13.6098 5.27006L13.6117 5.26568L13.6124 5.26404L13.6127 5.26336ZM7.00016 6.3335C6.26378 6.3335 5.66683 5.73654 5.66683 5.00016C5.66683 4.26378 6.26378 3.66683 7.00016 3.66683C7.73654 3.66683 8.3335 4.26378 8.3335 5.00016C8.3335 5.73654 7.73654 6.3335 7.00016 6.3335ZM4.3335 5.00016C4.3335 3.5274 5.5274 2.3335 7.00016 2.3335C8.47292 2.3335 9.66683 3.5274 9.66683 5.00016C9.66683 6.47292 8.47292 7.66683 7.00016 7.66683C5.5274 7.66683 4.3335 6.47292 4.3335 5.00016Z" fill="#99ABCE"/>
</svg>
