<svg width="14" height="14" viewBox="0 0 14 14" fill="none" xmlns="http://www.w3.org/2000/svg">
<path fill-rule="evenodd" clip-rule="evenodd" d="M0.333496 3.00008L0.333496 11.0001C0.333496 12.4728 1.5274 13.6667 3.00016 13.6667L11.0002 13.6667C12.4729 13.6667 13.6668 12.4728 13.6668 11.0001L13.6668 3.00008C13.6668 1.52732 12.4729 0.333415 11.0002 0.333416L3.00016 0.333416C1.5274 0.333416 0.333496 1.52732 0.333496 3.00008ZM3.00016 12.3334C2.26378 12.3334 1.66683 11.7365 1.66683 11.0001L1.66683 3.00008C1.66683 2.2637 2.26378 1.66675 3.00016 1.66675L11.0002 1.66675C11.7365 1.66675 12.3335 2.2637 12.3335 3.00008L12.3335 11.0001C12.3335 11.7365 11.7365 12.3334 11.0002 12.3334L3.00016 12.3334ZM4.52876 6.80482C4.26841 6.54447 4.26841 6.12236 4.52876 5.86201C4.78911 5.60166 5.21122 5.60166 5.47157 5.86201L7.00016 7.39061L8.52876 5.86201C8.78911 5.60166 9.21122 5.60166 9.47157 5.86201C9.73192 6.12236 9.73192 6.54447 9.47157 6.80482L7.47157 8.80482C7.21122 9.06517 6.78911 9.06517 6.52876 8.80482L4.52876 6.80482Z" fill="#90A4AE"/>
</svg>
