<svg width="16" height="20" viewBox="0 0 16 20" fill="none" xmlns="http://www.w3.org/2000/svg">
<path fill-rule="evenodd" clip-rule="evenodd" d="M3 1C3 0.447715 3.44772 0 4 0C4.55228 0 5 0.447715 5 1V2H7V1C7 0.447715 7.44772 0 8 0C8.55229 0 9 0.447715 9 1V2H11V1C11 0.447715 11.4477 0 12 0C12.5523 0 13 0.447715 13 1V2C14.6569 2 16 3.34315 16 5V17C16 18.6569 14.6569 20 13 20H3C1.34314 20 0 18.6569 0 17V5C0 3.34315 1.34314 2 3 2V1ZM9 4H11V5C11 5.55228 11.4477 6 12 6C12.5523 6 13 5.55228 13 5V4C13.5523 4 14 4.44772 14 5V17C14 17.5523 13.5523 18 13 18H3C2.44772 18 2 17.5523 2 17V5C2 4.44772 2.44772 4 3 4V5C3 5.55228 3.44772 6 4 6C4.55228 6 5 5.55228 5 5V4H7V5C7 5.55228 7.44772 6 8 6C8.55229 6 9 5.55228 9 5V4ZM7.5 9C7.5 8.44771 7.05228 8 6.5 8C5.94772 8 5.5 8.44771 5.5 9V13C5.5 13.3344 5.6671 13.6466 5.9453 13.8321L8.9453 15.8321C9.40483 16.1384 10.0257 16.0142 10.3321 15.5547C10.6384 15.0952 10.5142 14.4743 10.0547 14.1679L7.5 12.4648V9Z" fill="#99ABCE"/>
</svg>
