<svg width="14" height="12" viewBox="0 0 14 12" fill="none" xmlns="http://www.w3.org/2000/svg">
<path fill-rule="evenodd" clip-rule="evenodd" d="M1.30046 0C0.932266 0 0.633789 0.298477 0.633789 0.666667C0.633789 1.03486 0.932266 1.33333 1.30046 1.33333V0.666667L1.30046 1.33333H1.30049H1.3006H1.30068H1.30077H1.30089H1.30102H1.30172H1.3027H1.3033H1.30362H1.30396H1.30548H1.30727H1.30776H1.30827H1.30933H1.33496H1.43066H1.75879H2.10164L3.65037 8.14775C3.73022 8.4991 4.074 8.722 4.42515 8.65491C4.46574 8.66263 4.50762 8.66667 4.55046 8.66667H11.3005C11.5784 8.66667 11.8271 8.49429 11.9247 8.23408L13.9247 2.90075C14.0014 2.69602 13.973 2.46665 13.8484 2.28694C13.7239 2.10722 13.5191 2 13.3005 2H3.62049L3.28388 0.518919C3.21489 0.215394 2.94506 0 2.63379 0H1.75879H1.43066H1.33496H1.33089H1.32706H1.32614H1.32524H1.32348H1.32014H1.31422H1.31355H1.3129H1.31226H1.31164H1.31104H1.31045H1.30933H1.30548H1.30396H1.30362H1.3033H1.3027H1.30102H1.30077H1.30068H1.3006H1.30049H1.30046L1.30046 0.666667V0ZM3.92352 3.33333L4.83261 7.33333H10.8385L12.3385 3.33333H3.92352ZM5.96712 9.33333C5.23074 9.33333 4.63379 9.93029 4.63379 10.6667C4.63379 11.403 5.23074 12 5.96712 12C6.7035 12 7.30046 11.403 7.30046 10.6667C7.30046 9.93029 6.7035 9.33333 5.96712 9.33333ZM8.63379 10.6667C8.63379 9.93029 9.23074 9.33333 9.96712 9.33333C10.7035 9.33333 11.3005 9.93029 11.3005 10.6667C11.3005 11.403 10.7035 12 9.96712 12C9.23074 12 8.63379 11.403 8.63379 10.6667Z" fill="#99ABCE"/>
</svg>
