<svg width="16" height="21" viewBox="0 0 16 21" fill="none" xmlns="http://www.w3.org/2000/svg">
<path fill-rule="evenodd" clip-rule="evenodd" d="M8.00001 0.5C6.89544 0.5 6.00001 1.39543 6.00001 2.5V2.84141C3.66962 3.66508 2.00001 5.88756 2.00001 8.5L2.00001 10L2.00001 12.0996L0.382537 14.3237C-0.0599155 14.932 -0.123575 15.7372 0.217778 16.4076C0.559133 17.0779 1.24776 17.5 2.00001 17.5H5.00001C5.00001 19.1569 6.34315 20.5 8.00001 20.5C9.65686 20.5 11 19.1569 11 17.5H14C14.7523 17.5 15.4409 17.0779 15.7822 16.4076C16.1236 15.7372 16.0599 14.932 15.6175 14.3237L14 12.0996L14 10V8.5C14 5.88756 12.3304 3.66508 10 2.84141V2.5C10 1.39543 9.10458 0.5 8.00001 0.5ZM9.00119 15.5H9.00001H7.00001L4.473 15.5H2.00001L3.45455 13.5L3.61748 13.276C3.86609 12.9341 4.00001 12.5223 4.00001 12.0996V10V8.5C4.00001 6.29086 5.79087 4.5 8.00001 4.5C10.2091 4.5 12 6.29086 12 8.5L12 10V12.0996C12 12.5223 12.1339 12.9341 12.3825 13.276L12.5455 13.5L14 15.5H11.527H9.00119ZM8.00001 18.5C7.44772 18.5 7.00001 18.0523 7.00001 17.5H9.00001C9.00001 18.0523 8.55229 18.5 8.00001 18.5Z" fill="url(#paint0_linear_345_632)"/>
<defs>
<linearGradient id="paint0_linear_345_632" x1="0" y1="20.5" x2="19.5122" y2="4.89022" gradientUnits="userSpaceOnUse">
<stop stop-color="#CA4573"/>
<stop offset="0.494792" stop-color="#EE5342"/>
<stop offset="1" stop-color="#EFBB58"/>
</linearGradient>
</defs>
</svg>
