<svg width="20" height="18" viewBox="0 0 20 18" fill="none" xmlns="http://www.w3.org/2000/svg">
<path fill-rule="evenodd" clip-rule="evenodd" d="M-8.74228e-08 16C-3.91405e-08 17.1046 0.895431 18 2 18L2.66667 18L5 18C6.10457 18 7 17.1046 7 16L7 12C7 10.8954 6.10457 10 5 10L2 10C0.89543 10 -3.10551e-07 10.8954 -2.62268e-07 12L-8.74228e-08 16ZM2 16L2 12L5 12L5 16L2.66667 16L2 16ZM-5.24537e-07 6C-4.76254e-07 7.10457 0.89543 8 2 8L4 8L9 8C10.1046 8 11 7.10457 11 6L11 2C11 0.895431 10.1046 -4.41685e-07 9 -3.93402e-07L2 -8.74228e-08C0.89543 -3.91405e-08 -7.47664e-07 0.895432 -6.99382e-07 2L-5.24537e-07 6ZM2 6L2 2L9 2L9 6L4 6L2 6ZM15 8C13.8954 8 13 7.10457 13 6L13 2C13 0.895431 13.8954 -6.07389e-07 15 -6.55671e-07L18 -7.86805e-07C19.1046 -8.35087e-07 20 0.895431 20 2L20 6C20 7.10457 19.1046 8 18 8L15.6667 8L15 8ZM15 2L15 6L15.6667 6L18 6L18 2L15 2ZM9 16C9 17.1046 9.89543 18 11 18L13 18L18 18C19.1046 18 20 17.1046 20 16L20 12C20 10.8954 19.1046 10 18 10L11 10C9.89543 10 9 10.8954 9 12L9 16ZM11 16L11 12L18 12L18 16L13 16L11 16Z" fill="white"/>
</svg>
