<svg width="14" height="8" viewBox="0 0 14 8" fill="none" xmlns="http://www.w3.org/2000/svg">
<path fill-rule="evenodd" clip-rule="evenodd" d="M11.6668 0H2.3335C1.22893 0 0.333496 0.895431 0.333496 2V6C0.333496 7.10457 1.22893 8 2.3335 8H11.6668C12.7714 8 13.6668 7.10457 13.6668 6V2C13.6668 0.895431 12.7714 0 11.6668 0ZM1.66683 2C1.66683 1.63181 1.96531 1.33333 2.3335 1.33333H11.6668C12.035 1.33333 12.3335 1.63181 12.3335 2V6C12.3335 6.36819 12.035 6.66667 11.6668 6.66667H2.3335C1.96531 6.66667 1.66683 6.36819 1.66683 6V2ZM4.3335 2.66667C4.3335 2.29848 4.03502 2 3.66683 2C3.29864 2 3.00016 2.29848 3.00016 2.66667V5.33333C3.00016 5.70152 3.29864 6 3.66683 6C4.03502 6 4.3335 5.70152 4.3335 5.33333V2.66667Z" fill="#99ABCE"/>
</svg>
