<svg width="14" height="14" viewBox="0 0 14 14" fill="none" xmlns="http://www.w3.org/2000/svg">
<path fill-rule="evenodd" clip-rule="evenodd" d="M10.3337 12.3516C11.4382 12.3516 12.3337 11.4684 12.3337 10.3789L12.3337 6.94174L13.0003 6.94127L13.667 6.94129L13.667 10.3789C13.667 12.1945 12.1747 13.6667 10.3337 13.6667L4.33366 13.6667C2.1514 13.6667 0.333659 11.9235 0.333659 9.75415C0.333659 9.37304 0.646918 9.06409 1.03333 9.06409L3.66699 9.06409L3.66699 1.56504C3.66699 0.73407 4.64509 0.275561 5.29842 0.800253L6.88924 2.07784L7.88728 0.795394C8.27473 0.29753 9.02889 0.278502 9.44164 0.756173L10.5519 2.04105L11.9528 0.631254C12.5798 0.000282208 13.667 0.438106 13.667 1.32158L13.667 6.94129L13.0003 6.94127L12.3337 6.94174L12.3337 2.12673L11.5042 2.96148C10.9558 3.51339 10.0453 3.48217 9.53711 2.89402L8.6941 1.91843L7.94693 2.87852C7.48942 3.4664 6.62999 3.5655 6.04733 3.09756L5.00033 2.2567L5.00032 9.06409L7.63399 9.06409C8.0204 9.06409 8.33366 9.37304 8.33366 9.75415L8.33366 10.3791C8.33366 11.4685 9.22909 12.3516 10.3337 12.3516ZM7.66675 12.3516C7.24829 11.8022 7.00033 11.1192 7.00033 10.3791L1.74594 10.3791C2.03607 11.5071 3.09124 12.3516 4.33366 12.3516L7.66675 12.3516ZM7.63399 10.3791L7.63308 10.3791Z" fill="#99ABCE"/>
<path fill-rule="evenodd" clip-rule="evenodd" d="M10.3337 5.77653C10.7018 5.77653 11.0003 5.48216 11.0003 5.11902C11.0003 4.75589 10.7018 4.46151 10.3337 4.46151L7.00033 4.46151C6.63214 4.46151 6.33366 4.75589 6.33366 5.11902C6.33366 5.48216 6.63214 5.77653 7.00033 5.77653L10.3337 5.77653ZM10.3337 8.40658C10.7018 8.40658 11.0003 8.1122 11.0003 7.74907C11.0003 7.38593 10.7018 7.09156 10.3337 7.09156L7.00033 7.09156C6.63214 7.09156 6.33366 7.38593 6.33366 7.74907C6.33366 8.1122 6.63214 8.40658 7.00033 8.40658L10.3337 8.40658Z" fill="#99ABCE"/>
</svg>
