<svg width="12" height="14" viewBox="0 0 12 14" fill="none" xmlns="http://www.w3.org/2000/svg">
<path fill-rule="evenodd" clip-rule="evenodd" d="M5.99996 0.333328C5.26358 0.333328 4.66663 0.930282 4.66663 1.66666V1.89427C3.11304 2.44338 1.99996 3.92504 1.99996 5.66666L1.99996 6.66666L1.99996 8.06642L0.921651 9.5491C0.626682 9.95468 0.584243 10.4915 0.811812 10.9384C1.03938 11.3853 1.49847 11.6667 1.99997 11.6667H3.99996C3.99996 12.7712 4.89539 13.6667 5.99996 13.6667C7.10453 13.6667 7.99996 12.7712 7.99996 11.6667H9.99996C10.5015 11.6667 10.9605 11.3853 11.1881 10.9384C11.4157 10.4915 11.3732 9.95468 11.0783 9.5491L9.99996 8.06642L9.99996 6.66666V5.66666C9.99996 3.92504 8.88689 2.44338 7.3333 1.89427V1.66666C7.3333 0.930282 6.73634 0.333328 5.99996 0.333328ZM6.66742 10.3333H6.66663H5.3333L3.64863 10.3333H1.99996L2.96966 9L3.07828 8.85065C3.24402 8.62275 3.3333 8.34821 3.3333 8.06642V6.66666V5.66666C3.3333 4.1939 4.5272 2.99999 5.99996 2.99999C7.47272 2.99999 8.66663 4.1939 8.66663 5.66666L8.66663 6.66666V8.06642C8.66663 8.34821 8.75591 8.62275 8.92165 8.85065L9.03027 9L9.99996 10.3333H8.3513H6.66742ZM5.99996 12.3333C5.63177 12.3333 5.3333 12.0349 5.3333 11.6667H6.66663C6.66663 12.0349 6.36815 12.3333 5.99996 12.3333Z" fill="#99ABCE"/>
</svg>
