<svg width="16" height="20" viewBox="0 0 16 20" fill="none" xmlns="http://www.w3.org/2000/svg">
<path fill-rule="evenodd" clip-rule="evenodd" d="M6 5L4 5H2L2 6H2.99758L3 6L12 6L13 6L13.0024 6H14V5L12 5L10 5L6 5ZM10 3C10 2.44772 9.55229 2 9 2L7 2C6.44772 2 6 2.44772 6 3L9 3H10ZM4 3C4 1.34315 5.34315 0 7 0H9C10.6569 0 12 1.34315 12 3L14 3C14.5304 3 15.0391 3.21071 15.4142 3.58579C15.7893 3.96086 16 4.46957 16 5V6C16 6.74716 15.5903 7.39862 14.9833 7.74199C14.9944 7.82709 15 7.91325 15 8L15 17C15 18.6569 13.6569 20 12 20H4C2.34315 20 1 18.6569 1 17L1 8C1 7.91254 1.00562 7.82638 1.0165 7.74188C0.409613 7.39848 0 6.74708 0 6V5C0 3.89543 0.89543 3 2 3L4 3ZM3 10L3 8L5 8V14C5 14.5523 5.44772 15 6 15C6.55229 15 7 14.5523 7 14V8H9V14C9 14.5523 9.44772 15 10 15C10.5523 15 11 14.5523 11 14V8L13 8V10L13 17C13 17.5523 12.5523 18 12 18H4C3.44772 18 3 17.5523 3 17L3 10Z" fill="#99ABCE"/>
</svg>
