<svg width="20" height="18" viewBox="0 0 20 18" fill="none" xmlns="http://www.w3.org/2000/svg">
<path fill-rule="evenodd" clip-rule="evenodd" d="M0 1C0 0.447715 0.459195 0 1.02564 0V1V2C0.459195 2 0 1.55228 0 1ZM16.4103 14H18.9744C19.5408 14 20 13.5523 20 13C20 12.4477 19.5408 12 18.9744 12H14.359C16.0583 12 17.4359 10.6569 17.4359 9V5C17.4359 3.34315 16.0583 2 14.359 2H10.2564C8.55707 2 7.17949 3.34315 7.17949 5V9C7.17949 10.6569 8.55707 12 10.2564 12H5.05234L4.09954 0.923304C4.05844 0.402306 3.61286 0 3.07692 0H1.73077H1.22596H1.07873H1.03929H1.0291H1.02759H1.02564V1V2H1.0291H1.03337H1.03929H1.05592H1.07873H1.22596H1.73077H2.12715L3.07994 13.0767C3.12105 13.5977 3.56663 14 4.10256 14H6.15385C5.02096 14 4.10256 14.8954 4.10256 16C4.10256 17.1046 5.02096 18 6.15385 18C7.28674 18 8.20513 17.1046 8.20513 16C8.20513 14.8954 7.28674 14 6.15385 14H16.4103ZM16.4103 14C17.5431 14 18.4615 14.8954 18.4615 16C18.4615 17.1046 17.5431 18 16.4103 18C15.2774 18 14.359 17.1046 14.359 16C14.359 14.8954 15.2774 14 16.4103 14ZM9.23077 9C9.23077 9.55228 9.68997 10 10.2564 10H14.359C14.9254 10 15.3846 9.55228 15.3846 9V5C15.3846 4.44772 14.9254 4 14.359 4H13.3333V6C13.3333 6.55229 12.8741 7 12.3077 7C11.7412 7 11.2821 6.55229 11.2821 6V4H10.2564C9.68996 4 9.23077 4.44772 9.23077 5V9Z" fill="white"/>
</svg>
