<svg width="20" height="21" viewBox="0 0 20 21" fill="none" xmlns="http://www.w3.org/2000/svg">
<path fill-rule="evenodd" clip-rule="evenodd" d="M10 20.5C4.47715 20.5 0 16.0228 0 10.5C0 4.97715 4.47715 0.5 10 0.5C15.5228 0.5 20 4.97715 20 10.5C20 16.0228 15.5228 20.5 10 20.5ZM10 2.5C5.58172 2.5 2 6.08172 2 10.5C2 13.0264 3.17108 15.2793 5 16.7454V16.3571C5 14.6725 5.85766 13.1882 7.16016 12.317C6.44301 11.594 6 10.5988 6 9.5C6 7.29086 7.79086 5.5 10 5.5C12.2091 5.5 14 7.29086 14 9.5C14 10.5988 13.557 11.594 12.8398 12.317C14.1423 13.1882 15 14.6725 15 16.3571V16.7454C16.8289 15.2793 18 13.0264 18 10.5C18 6.08172 14.4183 2.5 10 2.5ZM13 17.9185V16.3571C13 14.7792 11.7208 13.5 10.1429 13.5H10H9.85714C8.27919 13.5 7 14.7792 7 16.3571V17.9185C7.92643 18.2935 8.9391 18.5 10 18.5C11.0609 18.5 12.0736 18.2935 13 17.9185ZM10 11.5C11.1046 11.5 12 10.6046 12 9.5C12 8.39543 11.1046 7.5 10 7.5C8.89543 7.5 8 8.39543 8 9.5C8 10.6046 8.89543 11.5 10 11.5Z" fill="#4F5B84"/>
</svg>
