<svg width="14" height="12" viewBox="0 0 14 12" fill="none" xmlns="http://www.w3.org/2000/svg">
<path fill-rule="evenodd" clip-rule="evenodd" d="M0.435547 2.66666V9.33332C0.435547 10.4379 1.33098 11.3333 2.43555 11.3333H11.7689C12.8734 11.3333 13.7689 10.4379 13.7689 9.33332V2.66666C13.7689 1.56209 12.8734 0.666656 11.7689 0.666656H2.43555C1.33098 0.666656 0.435547 1.56209 0.435547 2.66666ZM2.43555 9.99999C2.06736 9.99999 1.76888 9.70151 1.76888 9.33332L1.76888 2.66666C1.76888 2.29847 2.06736 1.99999 2.43555 1.99999L11.7689 1.99999C12.1371 1.99999 12.4355 2.29847 12.4355 2.66666V9.33332C12.4355 9.70151 12.1371 9.99999 11.7689 9.99999H2.43555ZM10.2129 3.33332C10.2129 2.96513 9.91437 2.66666 9.54618 2.66666C9.17799 2.66666 8.87952 2.96513 8.87952 3.33332V3.43808C8.24477 3.5741 7.76888 4.13832 7.76888 4.81368C7.76888 5.59066 8.39875 6.22053 9.17573 6.22053H9.91793C9.95853 6.22053 9.99144 6.25345 9.99144 6.29405C9.99144 6.33465 9.95853 6.36756 9.91793 6.36756H8.62076C8.25257 6.36756 7.95409 6.66604 7.95409 7.03423C7.95409 7.40242 8.25257 7.70089 8.62076 7.70089H8.87952V7.77441C8.87952 8.1426 9.17799 8.44107 9.54618 8.44107C9.91437 8.44107 10.2129 8.1426 10.2129 7.77441V7.66993C10.8482 7.53439 11.3248 6.96987 11.3248 6.29405C11.3248 5.51706 10.6949 4.8872 9.91793 4.8872H9.17573C9.13513 4.8872 9.10221 4.85428 9.10221 4.81368C9.10221 4.77308 9.13513 4.74017 9.17573 4.74017H10.4729C10.8411 4.74017 11.1396 4.44169 11.1396 4.0735C11.1396 3.70531 10.8411 3.40684 10.4729 3.40684H10.2129V3.33332ZM2.43555 6.66666C2.43555 6.29847 2.73402 5.99999 3.10221 5.99999H5.10221C5.4704 5.99999 5.76888 6.29847 5.76888 6.66666C5.76888 7.03485 5.4704 7.33332 5.10221 7.33332H3.10221C2.73402 7.33332 2.43555 7.03485 2.43555 6.66666ZM3.10221 7.99999C2.73402 7.99999 2.43555 8.29847 2.43555 8.66666C2.43555 9.03485 2.73402 9.33332 3.10221 9.33332H6.76888C7.13707 9.33332 7.43555 9.03485 7.43555 8.66666C7.43555 8.29847 7.13707 7.99999 6.76888 7.99999H3.10221Z" fill="#99ABCE"/>
</svg>
