<svg width="15" height="12" viewBox="0 0 15 12" fill="none" xmlns="http://www.w3.org/2000/svg">
<path fill-rule="evenodd" clip-rule="evenodd" d="M0.833008 2.66667V9.33334C0.833008 10.4379 1.72844 11.3333 2.83301 11.3333H12.1663C13.2709 11.3333 14.1663 10.4379 14.1663 9.33334V2.66667C14.1663 1.5621 13.2709 0.666672 12.1663 0.666672H2.83301C1.72844 0.666672 0.833008 1.5621 0.833008 2.66667ZM2.83301 10C2.46482 10 2.16634 9.70153 2.16634 9.33334L2.16634 2.66667C2.16634 2.29848 2.46482 2.00001 2.83301 2.00001L12.1663 2.00001C12.5345 2.00001 12.833 2.29848 12.833 2.66667V9.33334C12.833 9.70153 12.5345 10 12.1663 10L2.83301 10ZM10.6103 3.33334C10.6103 2.96515 10.3118 2.66667 9.94364 2.66667C9.57545 2.66667 9.27698 2.96515 9.27698 3.33334V3.43809C8.64223 3.57412 8.16634 4.13833 8.16634 4.8137C8.16634 5.59068 8.79621 6.22055 9.57319 6.22055H10.3154C10.356 6.22055 10.3889 6.25346 10.3889 6.29406C10.3889 6.33466 10.356 6.36757 10.3154 6.36757H9.01822C8.65003 6.36757 8.35155 6.66605 8.35155 7.03424C8.35155 7.40243 8.65003 7.70091 9.01822 7.70091H9.27698V7.77442C9.27698 8.14261 9.57545 8.44109 9.94364 8.44109C10.3118 8.44109 10.6103 8.14261 10.6103 7.77442V7.66994C11.2457 7.53441 11.7222 6.96988 11.7222 6.29406C11.7222 5.51708 11.0924 4.88721 10.3154 4.88721H9.57319C9.53259 4.88721 9.49967 4.8543 9.49967 4.8137C9.49967 4.7731 9.53259 4.74019 9.57319 4.74019H10.8704C11.2385 4.74019 11.537 4.44171 11.537 4.07352C11.537 3.70533 11.2385 3.40685 10.8704 3.40685H10.6103V3.33334ZM2.83301 6.66667C2.83301 6.29848 3.13148 6.00001 3.49967 6.00001H5.49967C5.86786 6.00001 6.16634 6.29848 6.16634 6.66667C6.16634 7.03486 5.86786 7.33334 5.49967 7.33334H3.49967C3.13148 7.33334 2.83301 7.03486 2.83301 6.66667ZM3.49967 8.00001C3.13148 8.00001 2.83301 8.29848 2.83301 8.66667C2.83301 9.03486 3.13148 9.33334 3.49967 9.33334H7.16634C7.53453 9.33334 7.83301 9.03486 7.83301 8.66667C7.83301 8.29848 7.53453 8.00001 7.16634 8.00001H3.49967Z" fill="#99ABCE"/>
</svg>
