<svg width="16" height="16" viewBox="0 0 16 16" fill="none" xmlns="http://www.w3.org/2000/svg">
<path d="M1.33326 7.94934C1.33326 7.95233 1.33325 7.95531 1.33325 7.9583C1.33325 9.15202 1.89359 10.2267 2.77423 10.8145L4.49366 12.6572L5.77107 11.2882H11.5303C13.2463 11.2882 14.6374 9.79735 14.6374 7.9583C14.6374 7.95515 14.6374 7.95199 14.6374 7.94884C14.6374 7.9469 14.6374 7.94496 14.6374 7.94303C14.6374 6.7493 14.0771 5.67467 13.1965 5.08686L11.477 3.24414L10.1996 4.61314L4.44035 4.61314C2.72435 4.61314 1.33326 6.10398 1.33326 7.94302C1.33326 7.94513 1.33326 7.94724 1.33326 7.94934Z" fill="#99ABCE"/>
<path fill-rule="evenodd" clip-rule="evenodd" d="M4.8892 5.90918C3.77827 5.90918 2.87769 6.80977 2.87769 7.9207C2.87769 9.03163 3.77827 9.93221 4.8892 9.93221H11.2007C12.3116 9.93221 13.2122 9.03163 13.2122 7.9207C13.2122 6.80977 12.3116 5.90918 11.2007 5.90918H4.8892ZM11.0143 9.28333C11.7031 9.28333 12.2615 8.70231 12.2615 7.98558C12.2615 7.26885 11.7031 6.68783 11.0143 6.68783C10.3254 6.68783 9.76701 7.26885 9.76701 7.98558C9.76701 8.70231 10.3254 9.28333 11.0143 9.28333ZM9.29078 8.04622H6.79891C6.82931 8.73484 7.37551 9.28342 8.04484 9.28342C8.71418 9.28342 9.26037 8.73484 9.29078 8.04622ZM5.01573 9.28333C5.73737 9.28333 6.32239 8.70231 6.32239 7.98558C6.32239 7.26885 5.73737 6.68783 5.01573 6.68783C4.29408 6.68783 3.70907 7.26885 3.70907 7.98558C3.70907 8.70231 4.29408 9.28333 5.01573 9.28333Z" fill="white"/>
<path fill-rule="evenodd" clip-rule="evenodd" d="M11.1216 2.51484C11.1216 2.76578 11.3073 2.9692 11.5364 2.9692C11.7655 2.9692 11.9512 2.76578 11.9512 2.51484V0.454359C11.9512 0.203423 11.7655 1.93442e-08 11.5364 3.09507e-08C11.3073 4.25573e-08 11.1216 0.203423 11.1216 0.454359V2.51484ZM10.67 3.13955C10.832 2.96211 10.832 2.67442 10.67 2.49698L9.54454 1.26417C9.38255 1.08674 9.11991 1.08674 8.95792 1.26417C8.79593 1.44161 8.79593 1.7293 8.95792 1.90673L10.0834 3.13955C10.2454 3.31698 10.508 3.31698 10.67 3.13955ZM12.3948 3.13955C12.2328 2.96211 12.2328 2.67442 12.3948 2.49698L13.5203 1.26417C13.6823 1.08674 13.9449 1.08674 14.1069 1.26417C14.2689 1.44161 14.2689 1.7293 14.1069 1.90673L12.9814 3.13955C12.8194 3.31698 12.5568 3.31698 12.3948 3.13955Z" fill="#99ABCE"/>
</svg>
