<svg width="14" height="14" viewBox="0 0 14 14" fill="none" xmlns="http://www.w3.org/2000/svg">
<path fill-rule="evenodd" clip-rule="evenodd" d="M10.3327 12.3516C11.4372 12.3516 12.3327 11.4684 12.3327 10.3789L12.3327 6.94173L12.9993 6.94126L13.666 6.94128L13.666 10.3789C13.666 12.1945 12.1737 13.6667 10.3327 13.6667L4.33268 13.6667C2.15042 13.6667 0.332683 11.9234 0.332683 9.75415C0.332683 9.37303 0.645941 9.06408 1.03235 9.06408L3.66602 9.06408L3.66602 1.56503C3.66602 0.734063 4.64411 0.275554 5.29744 0.800245L6.88826 2.07784L7.8863 0.795387C8.27375 0.297523 9.02791 0.278494 9.44067 0.756166L10.5509 2.04104L11.9518 0.631247C12.5788 0.000274753 13.666 0.438098 13.666 1.32158L13.666 6.94128L12.9993 6.94126L12.3327 6.94173L12.3327 2.12672L11.5032 2.96148C10.9548 3.51339 10.0444 3.48216 9.53613 2.89401L8.69312 1.91842L7.94595 2.87851C7.48845 3.46639 6.62902 3.56549 6.04636 3.09755L4.99935 2.25669L4.99935 9.06408L7.63301 9.06408C8.01943 9.06408 8.33268 9.37303 8.33268 9.75415L8.33268 10.3791C8.33268 11.4685 9.22811 12.3516 10.3327 12.3516ZM7.66577 12.3516C7.24731 11.8022 6.99935 11.1192 6.99935 10.3791L1.74497 10.3791C2.03509 11.507 3.09026 12.3516 4.33268 12.3516L7.66577 12.3516ZM7.63301 10.3791L7.63211 10.3791L7.63301 10.3791Z" fill="#99ABCE"/>
<path fill-rule="evenodd" clip-rule="evenodd" d="M10.3327 5.77653C10.7009 5.77653 10.9993 5.48215 10.9993 5.11901C10.9993 4.75588 10.7009 4.4615 10.3327 4.4615L6.99935 4.4615C6.63116 4.4615 6.33268 4.75588 6.33268 5.11901C6.33268 5.48215 6.63116 5.77653 6.99935 5.77653L10.3327 5.77653ZM10.3327 8.40657C10.7009 8.40657 10.9993 8.11219 10.9993 7.74906C10.9993 7.38593 10.7009 7.09155 10.3327 7.09155L6.99935 7.09155C6.63116 7.09155 6.33268 7.38593 6.33268 7.74906C6.33268 8.11219 6.63116 8.40657 6.99935 8.40657L10.3327 8.40657Z" fill="#99ABCE"/>
</svg>
