<svg width="14" height="12" viewBox="0 0 14 12" fill="none" xmlns="http://www.w3.org/2000/svg">
<path fill-rule="evenodd" clip-rule="evenodd" d="M0.333252 4.91231V5.1356C0.333252 7.49784 2.07172 9.4521 4.33325 9.77713V10.6046C4.33325 11.7854 5.70389 12.4305 6.60667 11.6745L8.81616 9.82447C11.4985 9.8037 13.6666 7.61241 13.6666 4.91231C13.6666 2.19932 11.4778 0 8.7777 0H5.22214C2.52208 0 0.333252 2.19932 0.333252 4.91231ZM8.12577 8.65863L5.75309 10.6453C5.71874 10.6741 5.66659 10.6496 5.66659 10.6046V9.15476C5.66659 9.09816 5.6596 9.0432 5.64645 8.9907C5.57363 8.70006 5.31178 8.4849 4.99992 8.4849C3.15897 8.4849 1.66659 6.98536 1.66659 5.1356V4.91231C1.66659 2.93922 3.25846 1.33972 5.22214 1.33972H8.7777C10.7414 1.33972 12.3333 2.93922 12.3333 4.91231C12.3333 6.8854 10.7414 8.4849 8.7777 8.4849H8.60334C8.42882 8.4849 8.25983 8.54638 8.12577 8.65863ZM3.99992 4C3.44763 4 2.99992 4.44771 2.99992 5C2.99992 5.55228 3.44763 6 3.99992 6C4.5522 6 4.99992 5.55228 4.99992 5C4.99992 4.44771 4.5522 4 3.99992 4ZM5.99992 5C5.99992 4.44771 6.44763 4 6.99992 4C7.5522 4 7.99992 4.44771 7.99992 5C7.99992 5.55228 7.5522 6 6.99992 6C6.44763 6 5.99992 5.55228 5.99992 5ZM9.99992 4C9.44763 4 8.99992 4.44771 8.99992 5C8.99992 5.55228 9.44763 6 9.99992 6C10.5522 6 10.9999 5.55228 10.9999 5C10.9999 4.44771 10.5522 4 9.99992 4Z" fill="#99ABCE"/>
</svg>
