<svg width="20" height="20" viewBox="0 0 20 20" fill="none" xmlns="http://www.w3.org/2000/svg">
<path d="M19.1687 9.23355C19.1687 8.77239 18.7948 8.39855 18.3337 8.39855C17.8725 8.39855 17.4987 8.77239 17.4987 9.23355H19.1687ZM18.3337 10.0002L19.1687 10.0007V10.0002H18.3337ZM13.0522 3.14626C13.4734 3.33395 13.967 3.14463 14.1547 2.72339C14.3424 2.30216 14.1531 1.80852 13.7318 1.62083L13.0522 3.14626ZM18.9244 3.92369C19.2503 3.59743 19.2501 3.06874 18.9238 2.74282C18.5976 2.41689 18.0689 2.41716 17.7429 2.74341L18.9244 3.92369ZM10.0003 11.6752L9.4099 12.2656C9.56654 12.4223 9.77901 12.5103 10.0005 12.5102C10.2221 12.5102 10.4345 12.4221 10.5911 12.2654L10.0003 11.6752ZM8.09076 8.58478C7.76468 8.25869 7.23598 8.25869 6.9099 8.58478C6.58381 8.91087 6.58381 9.43956 6.9099 9.76565L8.09076 8.58478ZM17.4987 9.23355V10.0002H19.1687V9.23355H17.4987ZM17.4987 9.99974C17.4977 11.6167 16.9742 13.19 16.006 14.4851L17.3436 15.485C18.5273 13.9015 19.1675 11.9778 19.1687 10.0007L17.4987 9.99974ZM16.006 14.4851C15.0378 15.7802 13.677 16.7276 12.1264 17.1861L12.5999 18.7875C14.4958 18.227 16.1598 17.0685 17.3436 15.485L16.006 14.4851ZM12.1264 17.1861C10.5758 17.6445 8.91851 17.5895 7.40176 17.0291L6.82301 18.5956C8.67757 19.2808 10.7039 19.3481 12.5999 18.7875L12.1264 17.1861ZM7.40176 17.0291C5.885 16.4688 4.59002 15.4331 3.70994 14.0766L2.30897 14.9856C3.38506 16.6442 4.96845 17.9105 6.82301 18.5956L7.40176 17.0291ZM3.70994 14.0766C2.82987 12.7202 2.41186 11.1155 2.51825 9.50208L0.851866 9.3922C0.72178 11.365 1.23289 13.327 2.30897 14.9856L3.70994 14.0766ZM2.51825 9.50208C2.62464 7.88863 3.24973 6.35279 4.3003 5.12362L3.03081 4.03859C1.74626 5.54151 0.981951 7.41941 0.851866 9.3922L2.51825 9.50208ZM4.3003 5.12362C5.35087 3.89446 6.77063 3.03782 8.34784 2.68147L7.9798 1.05253C6.05133 1.48824 4.31537 2.53567 3.03081 4.03859L4.3003 5.12362ZM8.34784 2.68147C9.92504 2.32512 11.5752 2.48816 13.0522 3.14626L13.7318 1.62083C11.9259 0.816163 9.90827 0.616818 7.9798 1.05253L8.34784 2.68147ZM17.7429 2.74341L9.4096 11.0851L10.5911 12.2654L18.9244 3.92369L17.7429 2.74341ZM10.5908 11.0848L8.09076 8.58478L6.9099 9.76565L9.4099 12.2656L10.5908 11.0848Z" fill="#00C867"/>
</svg>
