<svg width="15" height="12" viewBox="0 0 15 12" fill="none" xmlns="http://www.w3.org/2000/svg">
<path fill-rule="evenodd" clip-rule="evenodd" d="M0.833008 0.666667C0.833008 0.298477 1.13914 0 1.51677 0V0.666667V1.33333C1.13914 1.33333 0.833008 1.03486 0.833008 0.666667ZM11.7732 9.33333H13.4826C13.8602 9.33333 14.1663 9.03486 14.1663 8.66667C14.1663 8.29848 13.8602 8 13.4826 8H10.4057C11.5386 8 12.4569 7.10457 12.4569 6V3.33333C12.4569 2.22876 11.5386 1.33333 10.4057 1.33333H7.67062C6.53772 1.33333 5.61933 2.22876 5.61933 3.33333V6C5.61933 7.10457 6.53772 8 7.67062 8H4.20123L3.56604 0.615536C3.53863 0.268204 3.24158 0 2.88429 0H1.98685H1.65032H1.55216H1.52587H1.51907H1.51807H1.51677V0.666667V1.33333H1.51907H1.52192H1.52587H1.53696H1.55216H1.65032H1.98685H2.25111L2.8863 8.7178C2.91371 9.06513 3.21076 9.33333 3.56805 9.33333H4.93557C4.18031 9.33333 3.56805 9.93029 3.56805 10.6667C3.56805 11.403 4.18031 12 4.93557 12C5.69083 12 6.30309 11.403 6.30309 10.6667C6.30309 9.93029 5.69083 9.33333 4.93557 9.33333H11.7732ZM11.7732 9.33333C12.5284 9.33333 13.1407 9.93029 13.1407 10.6667C13.1407 11.403 12.5284 12 11.7732 12C11.0179 12 10.4057 11.403 10.4057 10.6667C10.4057 9.93029 11.0179 9.33333 11.7732 9.33333ZM6.98685 6C6.98685 6.36819 7.29298 6.66667 7.67062 6.66667H10.4057C10.7833 6.66667 11.0894 6.36819 11.0894 6V3.33333C11.0894 2.96514 10.7833 2.66667 10.4057 2.66667H9.7219V4C9.7219 4.36819 9.41577 4.66667 9.03814 4.66667C8.66051 4.66667 8.35438 4.36819 8.35438 4V2.66667H7.67062C7.29298 2.66667 6.98685 2.96514 6.98685 3.33333V6Z" fill="#99ABCE"/>
</svg>
