<svg width="20" height="21" viewBox="0 0 20 21" fill="none" xmlns="http://www.w3.org/2000/svg">
<path fill-rule="evenodd" clip-rule="evenodd" d="M0 10.5C0 16.0228 4.47715 20.5 10 20.5C15.5228 20.5 20 16.0228 20 10.5C20 4.97715 15.5228 0.5 10 0.5C4.47715 0.5 0 4.97715 0 10.5ZM2 10.5C2 6.08172 5.58172 2.5 10 2.5C14.4183 2.5 18 6.08172 18 10.5C18 14.9183 14.4183 18.5 10 18.5C5.58172 18.5 2 14.9183 2 10.5ZM10.5476 11.566C10.4916 11.93 10.1976 12.252 9.79159 12.252H9.67959C9.27359 12.252 8.97959 11.944 8.92359 11.566L8.78359 10.614C8.71359 10.152 8.97959 9.83 9.42759 9.774C10.6456 9.62 11.2056 9.242 11.2056 8.556V8.528C11.2056 7.898 10.7296 7.534 9.91759 7.534C9.31559 7.534 8.79759 7.716 8.29359 8.094C8.12559 8.22 7.90159 8.318 7.66359 8.318C7.13159 8.318 6.68359 7.87 6.68359 7.338C6.68359 7.072 6.79559 6.792 7.04759 6.582C7.78959 5.966 8.72759 5.574 9.95959 5.574C11.9756 5.574 13.3476 6.61 13.3476 8.472V8.5C13.3476 10.278 12.1156 11.006 10.5896 11.314L10.5476 11.566ZM8.46159 14.394V14.366C8.46159 13.694 8.97959 13.176 9.67959 13.176C10.3796 13.176 10.8976 13.694 10.8976 14.366V14.394C10.8976 15.066 10.3796 15.584 9.67959 15.584C8.97959 15.584 8.46159 15.066 8.46159 14.394Z" fill="#4F5B84"/>
</svg>
