<svg width="12" height="14" viewBox="0 0 12 14" fill="none" xmlns="http://www.w3.org/2000/svg">
<path fill-rule="evenodd" clip-rule="evenodd" d="M6.66602 0.333336C7.15954 0.333336 7.59044 0.601468 7.82097 1L9.33268 1C10.4373 1 11.3327 1.89543 11.3327 3L11.3327 11.6667C11.3327 12.7712 10.4373 13.6667 9.33269 13.6667L2.66602 13.6667C1.56145 13.6667 0.666017 12.7712 0.666017 11.6667L0.666016 3C0.666016 1.89544 1.56144 1 2.66601 1L4.17773 1C4.40827 0.601469 4.83916 0.333336 5.33268 0.333336H6.66602ZM5.99935 4.33334C7.10392 4.33334 7.99935 3.43791 7.99935 2.33334L9.33268 2.33334C9.70087 2.33334 9.99935 2.63181 9.99935 3L9.99935 11.6667C9.99935 12.0349 9.70087 12.3333 9.33268 12.3333L2.66602 12.3333C2.29783 12.3333 1.99935 12.0349 1.99935 11.6667L1.99935 3C1.99935 2.63181 2.29783 2.33334 2.66602 2.33334L3.99935 2.33334C3.99935 3.43791 4.89478 4.33334 5.99935 4.33334ZM5.99935 3C6.36754 3 6.66602 2.70153 6.66602 2.33334V1.66667L5.99935 1.66667H5.33268V2.33334C5.33268 2.70153 5.63116 3 5.99935 3ZM5.99935 5.66667C4.52659 5.66667 3.33268 6.86058 3.33268 8.33334C3.33268 9.8061 4.52659 11 5.99935 11C7.47211 11 8.66602 9.8061 8.66602 8.33334C8.66602 6.86058 7.47211 5.66667 5.99935 5.66667ZM5.99935 7C6.73573 7 7.33268 7.59696 7.33268 8.33334C7.33268 9.06972 6.73573 9.66667 5.99935 9.66667C5.26297 9.66667 4.66602 9.06972 4.66602 8.33334C4.66602 7.59696 5.26297 7 5.99935 7Z" fill="#99ABCE"/>
</svg>
