<svg width="21" height="18" viewBox="0 0 21 18" fill="none" xmlns="http://www.w3.org/2000/svg">
<path fill-rule="evenodd" clip-rule="evenodd" d="M9.98145 1.99528L9.98049 1.99621C10 1.99521 5.98261 5.03115 5.98261 5.03115H13.716L9.98461 1.99609L9.98384 1.99529L9.98273 1.99521L9.98145 1.99528ZM3.50344 7.02636H3.49706H1C0.447715 7.02636 0 6.57972 0 6.02875C0 5.47779 0.447715 5.03115 1 5.03115H3.10617L8.54596 0.605953C9.34641 -0.216033 10.6746 -0.199787 11.4542 0.642776L16.4378 5.03115H20C20.5523 5.03115 21 5.47779 21 6.02875C21 6.57972 20.5523 7.02636 20 7.02636H16.0034H15.9971H3.50344ZM5.48492 14.0527C5.19692 14.0527 4.97372 13.8228 4.97372 13.5355C4.97372 13.4565 5.00252 13.3775 5.03852 13.2985L6.79532 9.3408C6.91772 9.06785 7.14092 8.90265 7.44332 8.90265H7.50812C7.81052 8.90265 8.02652 9.06785 8.14892 9.3408L9.90572 13.2985C9.94172 13.3775 9.96332 13.4493 9.96332 13.5212C9.96332 13.8157 9.73292 14.0527 9.43772 14.0527C9.17852 14.0527 9.00572 13.9018 8.90492 13.672L8.56652 12.8819H6.34892L5.99612 13.7079C5.90252 13.9234 5.71532 14.0527 5.48492 14.0527ZM7.45772 10.2458L6.75932 11.905H8.15612L7.45772 10.2458ZM4.24821 12.5228C4.24821 13.5212 3.48501 14.0814 2.39781 14.0814C1.73541 14.0814 1.06581 13.8803 0.50421 13.4781C0.38181 13.3919 0.29541 13.2338 0.29541 13.0615C0.29541 12.7742 0.52581 12.5515 0.81381 12.5515C0.95781 12.5515 1.05861 12.6018 1.13061 12.652C1.51221 12.9322 1.92981 13.1046 2.41941 13.1046C2.87301 13.1046 3.14661 12.925 3.14661 12.6305C3.14661 12.3504 2.97381 12.1923 2.13141 11.9769C1.11621 11.7183 0.46101 11.4382 0.46101 10.4398V10.4254C0.46101 9.51318 1.19541 8.90983 2.22501 8.90983C2.83701 8.90983 3.36981 9.06785 3.82341 9.35516C3.94581 9.42699 4.06821 9.57783 4.06821 9.79331C4.06821 10.0806 3.83781 10.3033 3.54981 10.3033C3.44181 10.3033 3.35541 10.2746 3.26901 10.2243C2.90181 10.0088 2.55621 9.88669 2.21061 9.88669C1.78581 9.88669 1.56261 10.0806 1.56261 10.3248V10.3392C1.56261 10.6696 1.77861 10.7773 2.64981 11C3.67221 11.2658 4.24821 11.6465 4.24821 12.5228ZM11.5302 14.0096C11.2206 14.0096 10.9758 13.7654 10.9758 13.4565V9.49164C10.9758 9.18278 11.2206 8.93857 11.5302 8.93857C11.8398 8.93857 12.0846 9.18278 12.0846 9.49164V13.004H14.1366C14.4174 13.004 14.6406 13.2267 14.6406 13.5068C14.6406 13.7869 14.4174 14.0096 14.1366 14.0096H11.5302ZM19.4584 13.5212C19.4584 13.7941 19.2352 14.0096 18.9616 14.0096H16.132C15.8224 14.0096 15.5776 13.7654 15.5776 13.4565V9.53473C15.5776 9.22587 15.8224 8.98166 16.132 8.98166H18.9256C19.1992 8.98166 19.4224 9.20433 19.4224 9.47727C19.4224 9.75022 19.1992 9.9657 18.9256 9.9657H16.6792V10.9856H18.6016C18.8752 10.9856 19.0984 11.2083 19.0984 11.4813C19.0984 11.7542 18.8752 11.9697 18.6016 11.9697H16.6792V13.0255H18.9616C19.2352 13.0255 19.4584 13.2482 19.4584 13.5212ZM1 16.0048C0.447715 16.0048 0 16.4514 0 17.0024C0 17.5534 0.447715 18 1 18H20C20.5523 18 21 17.5534 21 17.0024C21 16.4514 20.5523 16.0048 20 16.0048H1Z" fill="white"/>
</svg>
