<svg width="14" height="16" viewBox="0 0 17 20" fill="none" xmlns="http://www.w3.org/2000/svg">
<path fill-rule="evenodd" clip-rule="evenodd" d="M6.98452 3.05597C6.98452 2.49356 7.43108 2.03764 7.98194 2.03764C8.5328 2.03764 8.97936 2.49356 8.97936 3.05597V3.99316C8.32524 4.03276 7.64984 4.21992 6.98452 4.59928V3.05597ZM4.98967 7.10878V8.6568C4.98967 9.21921 5.43623 9.67513 5.98709 9.67513C6.53795 9.67513 6.98452 9.21921 6.98452 8.6568V7.08189C7.5896 7.26612 8.01001 7.61451 8.30761 8.0095C8.77867 8.63472 8.97351 9.4264 8.97351 9.99809C8.97351 11.4847 8.0874 12.2703 7.6752 12.558C7.29297 12.8248 6.97867 13.2951 6.97867 13.8769V17.059L5.79598 17.7835L4.98383 16.5026L4.98383 15.0898V13.8769C4.98383 13.283 4.65563 12.816 4.27564 12.5565C3.76624 12.2087 2.98898 11.3565 2.98898 9.99809C2.98898 8.51798 3.8762 7.49132 4.98967 7.10878ZM4.98967 5.00834V3.05597C4.98967 1.36875 6.32935 0.000976562 7.98194 0.000976562C9.63452 0.000976562 10.9742 1.36875 10.9742 3.05597V4.31995C11.8502 4.6634 12.5713 5.22371 13.0465 5.77651C14.504 7.47191 14.3903 9.30618 14.2058 10.2125L16.153 12.4774L16.1807 12.5097L16.2057 12.5442L16.7015 13.2296C16.9872 13.6245 17.0695 14.1355 16.9228 14.6031L16.2465 16.7586C16.0181 17.4866 15.2978 17.9301 14.5606 17.7967L11.9919 17.3321C11.6182 17.2645 11.2837 17.0545 11.056 16.7445L9.068 14.0383C9.03562 14.0645 9.00408 14.0893 8.97351 14.1128V17.1264V17.3473C8.97351 17.8839 8.69778 18.3811 8.24713 18.6571L6.40901 19.7831C5.71749 20.2067 4.82156 19.9945 4.38332 19.3034L3.22917 17.4831C3.0724 17.2359 2.98898 16.9476 2.98898 16.653L2.98898 15.0898L2.98898 14.121C2.11481 13.4538 0.994141 12.0791 0.994141 9.99809C0.994141 7.2377 2.88492 5.44186 4.98967 5.00834ZM9.64357 6.05276C9.72897 6.08366 9.81972 6.10301 9.91402 6.10899C10.6075 6.28903 11.2028 6.71935 11.5473 7.12001C12.5078 8.2373 12.3494 9.4245 12.2255 9.91835C12.1106 10.3763 12.1783 10.9414 12.5542 11.3787L14.626 13.7887L14.9452 14.2299L14.4796 15.7137L12.5337 15.3617L10.386 12.438C10.7228 11.7972 10.9684 10.9898 10.9684 9.99809C10.9684 9.04227 10.6645 7.7973 9.88877 6.76772C9.68619 6.49885 9.45337 6.24763 9.18954 6.02216C9.34571 6.01855 9.49731 6.02991 9.64357 6.05276Z" fill="#99ABCE"/>
</svg>
