<svg width="15" height="14" viewBox="0 0 15 14" fill="none" xmlns="http://www.w3.org/2000/svg">
<path fill-rule="evenodd" clip-rule="evenodd" d="M10.8327 12.3516C11.9372 12.3516 12.8327 11.4684 12.8327 10.3789L12.8327 6.94172L13.4993 6.94125L14.166 6.94127L14.166 10.3789C14.166 12.1945 12.6737 13.6667 10.8327 13.6667L4.83268 13.6667C2.65042 13.6667 0.832683 11.9234 0.832683 9.75414C0.832683 9.37302 1.14594 9.06408 1.53235 9.06408L4.16602 9.06408L4.16602 1.56502C4.16602 0.734055 5.14411 0.275546 5.79744 0.800237L7.38826 2.07783L8.3863 0.795379C8.77375 0.297515 9.52791 0.278487 9.94067 0.756158L11.0509 2.04103L12.4518 0.631239C13.0788 0.000267124 14.166 0.43809 14.166 1.32157L14.166 6.94127L13.4993 6.94125L12.8327 6.94172L12.8327 2.12671L12.0032 2.96147C11.4548 3.51338 10.5444 3.48215 10.0361 2.894L9.19312 1.91842L8.44595 2.87851C7.98845 3.46638 7.12902 3.56548 6.54636 3.09754L5.49935 2.25669L5.49935 9.06408L8.13301 9.06408C8.51943 9.06408 8.83268 9.37302 8.83268 9.75414L8.83268 10.3791C8.83268 11.4685 9.72811 12.3516 10.8327 12.3516ZM8.16577 12.3516C7.74731 11.8022 7.49935 11.1192 7.49935 10.3791L2.24497 10.3791C2.53509 11.507 3.59026 12.3516 4.83268 12.3516L8.16577 12.3516ZM8.13301 10.3791L8.13211 10.3791L8.13301 10.3791Z" fill="#99ABCE"/>
<path fill-rule="evenodd" clip-rule="evenodd" d="M10.8327 5.77652C11.2009 5.77652 11.4993 5.48214 11.4993 5.11901C11.4993 4.75587 11.2009 4.4615 10.8327 4.4615L7.49935 4.4615C7.13116 4.4615 6.83268 4.75587 6.83268 5.11901C6.83268 5.48214 7.13116 5.77652 7.49935 5.77652L10.8327 5.77652ZM10.8327 8.40656C11.2009 8.40656 11.4993 8.11219 11.4993 7.74905C11.4993 7.38592 11.2009 7.09154 10.8327 7.09154L7.49935 7.09154C7.13116 7.09154 6.83268 7.38592 6.83268 7.74905C6.83268 8.11219 7.13116 8.40656 7.49935 8.40656L10.8327 8.40656Z" fill="#99ABCE"/>
</svg>
