<svg width="12" height="14" viewBox="0 0 12 14" fill="none" xmlns="http://www.w3.org/2000/svg">
<path fill-rule="evenodd" clip-rule="evenodd" d="M3.33333 0.333328C2.96514 0.333328 2.66667 0.631805 2.66667 0.999995V1.66666H2C0.89543 1.66666 0 2.56209 0 3.66666V4.99999V11.6667C0 12.7712 0.895431 13.6667 2 13.6667H10C11.1046 13.6667 12 12.7712 12 11.6667V4.99999V3.66666C12 2.56209 11.1046 1.66666 10 1.66666H9.33333V0.999995C9.33333 0.631805 9.03486 0.333328 8.66667 0.333328C8.29848 0.333328 8 0.631805 8 0.999995V1.66666H4V0.999995C4 0.631805 3.70152 0.333328 3.33333 0.333328ZM8.66667 2.99999H3.33333H2C1.63181 2.99999 1.33333 3.29847 1.33333 3.66666V4.33333H10.6667V3.66666C10.6667 3.29847 10.3682 2.99999 10 2.99999H8.66667ZM1.33333 11.6667V5.66666H10.6667V11.6667C10.6667 12.0349 10.3682 12.3333 10 12.3333H2C1.63181 12.3333 1.33333 12.0349 1.33333 11.6667ZM3.97729 8.4135L3.97548 8.4197L3.97451 8.42288C3.97429 8.42357 3.97419 8.42388 3.9742 8.42385L3.97469 8.42245C3.88109 8.73479 3.55415 8.91594 3.23872 8.82792C2.91955 8.73884 2.73301 8.40789 2.82208 8.08872L3.4 8.25C2.82208 8.08872 2.82216 8.08842 2.82225 8.08812L2.82242 8.08751L2.82278 8.08624L2.82357 8.08346L2.82544 8.07708L2.83037 8.06102C2.8342 8.0489 2.83917 8.03395 2.84541 8.01657C2.85784 7.98192 2.87556 7.93692 2.89972 7.88498C2.94746 7.78234 3.02371 7.64533 3.13995 7.5065C3.38261 7.21665 3.79166 6.93333 4.4 6.93333C5.10614 6.93333 5.51918 7.40602 5.7009 7.83675C5.93663 8.39548 5.73917 8.89849 5.50162 9.24467C5.36007 9.45094 5.1801 9.63896 5.00804 9.8H5.33359C5.66496 9.8 5.93359 10.0686 5.93359 10.4C5.93359 10.7314 5.66496 11 5.33359 11H3.4C3.1491 11 2.92468 10.8439 2.83744 10.6086C2.7502 10.3734 2.81854 10.1087 3.00878 9.94509L3.92563 9.15659C4.17543 8.94177 4.38484 8.75126 4.51218 8.5657C4.63131 8.39209 4.60757 8.33236 4.59527 8.3032C4.56326 8.22732 4.52692 8.18398 4.50037 8.16286C4.48162 8.14796 4.45628 8.13333 4.4 8.13333C4.20834 8.13333 4.11739 8.20835 4.06005 8.27683C4.02629 8.31716 4.00254 8.35932 3.98778 8.39106C3.98069 8.4063 3.97653 8.41729 3.9749 8.42184L3.97469 8.42245L3.97548 8.4197L3.97576 8.41881L3.97672 8.41549L3.97729 8.4135ZM6.80013 6.93333C6.46876 6.93333 6.20013 7.20196 6.20013 7.53333C6.20013 7.8647 6.46876 8.13333 6.80013 8.13333H7.526L6.58943 10.147C6.44968 10.4474 6.57996 10.8043 6.88043 10.944C7.18089 11.0838 7.53775 10.9535 7.6775 10.653L9.01083 7.78637C9.09725 7.60056 9.08287 7.38348 8.97267 7.2107C8.86248 7.03792 8.67173 6.93333 8.4668 6.93333H6.80013Z" fill="#99ABCE"/>
</svg>
