<svg width="14" height="12" viewBox="0 0 14 12" fill="none" xmlns="http://www.w3.org/2000/svg">
<path fill-rule="evenodd" clip-rule="evenodd" d="M7.20036 5.33333C6.09579 5.33333 5.20036 6.22876 5.20036 7.33333V8.95238V11.3333C5.20036 11.7015 4.90188 12 4.53369 12C4.1655 12 3.86702 11.7015 3.86702 11.3333V8.95238V7.33333L3.86711 7.30969C3.75821 7.32527 3.64689 7.33333 3.53369 7.33333C3.46032 7.33333 3.38774 7.32995 3.3161 7.32332C3.27851 7.3299 3.23983 7.33333 3.20036 7.33333H2.91464C2.33606 7.33333 1.86702 7.80237 1.86702 8.38095V10C1.86702 10.3682 1.56855 10.6667 1.20036 10.6667C0.832168 10.6667 0.533691 10.3682 0.533691 10V8.38095C0.533691 7.5336 0.976332 6.78964 1.643 6.36767C1.36453 5.98338 1.20036 5.51086 1.20036 5C1.20036 3.71134 2.24503 2.66667 3.53369 2.66667C3.89538 2.66667 4.23786 2.74896 4.5434 2.89585C4.53697 2.82031 4.53369 2.74387 4.53369 2.66667C4.53369 1.19391 5.7276 0 7.20036 0C8.67312 0 9.86703 1.19391 9.86703 2.66667C9.86703 2.74387 9.86374 2.82031 9.85731 2.89585C10.1629 2.74896 10.5053 2.66667 10.867 2.66667C12.1557 2.66667 13.2004 3.71134 13.2004 5C13.2004 5.51086 13.0362 5.98338 12.7577 6.36767C13.4244 6.78964 13.867 7.5336 13.867 8.38095V10C13.867 10.3682 13.5685 10.6667 13.2004 10.6667C12.8322 10.6667 12.5337 10.3682 12.5337 10V8.38095C12.5337 7.80237 12.0647 7.33333 11.4861 7.33333H11.2004C11.1609 7.33333 11.1222 7.3299 11.0846 7.32332C11.013 7.32995 10.9404 7.33333 10.867 7.33333C10.7538 7.33333 10.6425 7.32527 10.5336 7.30969L10.5337 7.33333V8.95238V11.3333C10.5337 11.7015 10.2352 12 9.86703 12C9.49884 12 9.20036 11.7015 9.20036 11.3333V8.95238V7.33333C9.20036 6.22876 8.30493 5.33333 7.20036 5.33333ZM7.20036 4C6.46398 4 5.86702 3.40305 5.86702 2.66667C5.86702 1.93029 6.46398 1.33333 7.20036 1.33333C7.93674 1.33333 8.53369 1.93029 8.53369 2.66667C8.53369 3.40305 7.93674 4 7.20036 4ZM3.53369 4C2.98141 4 2.53369 4.44772 2.53369 5C2.53369 5.55229 2.98141 6 3.53369 6C4.08598 6 4.53369 5.55229 4.53369 5C4.53369 4.44772 4.08598 4 3.53369 4ZM10.867 4C10.3147 4 9.86703 4.44772 9.86703 5C9.86703 5.55229 10.3147 6 10.867 6C11.4193 6 11.867 5.55229 11.867 5C11.867 4.44772 11.4193 4 10.867 4Z" fill="#99ABCE"/>
</svg>
