<svg width="14" height="14" viewBox="0 0 14 14" fill="none" xmlns="http://www.w3.org/2000/svg">
<path fill-rule="evenodd" clip-rule="evenodd" d="M8.33325 0.333252H2.99992C1.52716 0.333252 0.333252 1.52716 0.333252 2.99992V8.33325C0.333252 9.80601 1.52716 10.9999 2.99992 10.9999C2.99992 12.4727 4.19383 13.6666 5.66659 13.6666H7.99992H10.9999C12.4727 13.6666 13.6666 12.4727 13.6666 10.9999V5.66659C13.6666 4.19383 12.4727 2.99992 10.9999 2.99992C10.9999 1.52716 9.80601 0.333252 8.33325 0.333252ZM10.9999 4.33325V8.33325C10.9999 9.80601 9.80601 10.9999 8.33325 10.9999H4.33325C4.33325 11.7363 4.93021 12.3333 5.66659 12.3333H7.99992H10.9999C11.7363 12.3333 12.3333 11.7363 12.3333 10.9999V5.66659C12.3333 4.93021 11.7363 4.33325 10.9999 4.33325ZM1.66659 2.99992C1.66659 2.26354 2.26354 1.66659 2.99992 1.66659H8.33325C9.06963 1.66659 9.66659 2.26354 9.66659 2.99992V8.33325C9.66659 9.06963 9.06963 9.66659 8.33325 9.66659H2.99992C2.26354 9.66659 1.66659 9.06963 1.66659 8.33325V2.99992Z" fill="#90A4AE"/>
</svg>
