<svg width="14" height="14" viewBox="0 0 14 14" fill="none" xmlns="http://www.w3.org/2000/svg">
<path fill-rule="evenodd" clip-rule="evenodd" d="M6.99992 13.6668C3.31802 13.6668 0.333252 10.6821 0.333252 7.00016C0.333252 3.31826 3.31802 0.333496 6.99992 0.333496C10.6818 0.333496 13.6666 3.31826 13.6666 7.00016C13.6666 10.6821 10.6818 13.6668 6.99992 13.6668ZM6.99992 1.66683C4.0544 1.66683 1.66659 4.05464 1.66659 7.00016C1.66659 9.94568 4.0544 12.3335 6.99992 12.3335C9.94544 12.3335 12.3333 9.94568 12.3333 7.00016C12.3333 4.05464 9.94544 1.66683 6.99992 1.66683ZM6.99992 6.16683C7.46016 6.16683 7.83325 6.53993 7.83325 7.00016V9.66683C7.83325 10.1271 7.46016 10.5002 6.99992 10.5002C6.53968 10.5002 6.16659 10.1271 6.16659 9.66683V7.00016C6.16659 6.53993 6.53968 6.16683 6.99992 6.16683ZM6.99992 3.66683C6.53968 3.66683 6.16659 4.03993 6.16659 4.50016C6.16659 4.9604 6.53968 5.3335 6.99992 5.3335C7.46016 5.3335 7.83325 4.9604 7.83325 4.50016C7.83325 4.03993 7.46016 3.66683 6.99992 3.66683Z" fill="#869FAC"/>
</svg>
