<svg width="18" height="20" viewBox="0 0 18 20" fill="none" xmlns="http://www.w3.org/2000/svg">
<path fill-rule="evenodd" clip-rule="evenodd" d="M10 0.999998C10 0.672019 9.83917 0.364888 9.56959 0.178072C9.30002 -0.00874291 8.95597 -0.0514923 8.64888 0.0636689L0.648877 3.06367C0.258573 3.21003 0 3.58315 0 4V19C0 19.5523 0.447715 20 1 20C1.55228 20 2 19.5523 2 19V4.693L8 2.443V10V19C8 19.5523 8.44772 20 9 20C9.55229 20 10 19.5523 10 19V11.2808L16 12.7808V19C16 19.5523 16.4477 20 17 20C17.5523 20 18 19.5523 18 19V12C18 11.5411 17.6877 11.1411 17.2425 11.0299L10 9.21922V0.999998ZM4.5 5C3.94772 5 3.5 5.44771 3.5 6V7C3.5 7.55228 3.94772 8 4.5 8H5.5C6.05228 8 6.5 7.55228 6.5 7V6C6.5 5.44771 6.05228 5 5.5 5H4.5ZM3.5 11C3.5 10.4477 3.94772 10 4.5 10H5.5C6.05228 10 6.5 10.4477 6.5 11V12C6.5 12.5523 6.05228 13 5.5 13H4.5C3.94772 13 3.5 12.5523 3.5 12V11ZM4.5 15C3.94772 15 3.5 15.4477 3.5 16V17C3.5 17.5523 3.94772 18 4.5 18H5.5C6.05228 18 6.5 17.5523 6.5 17V16C6.5 15.4477 6.05228 15 5.5 15H4.5ZM12.5 14C11.9477 14 11.5 14.4477 11.5 15V16C11.5 16.5523 11.9477 17 12.5 17H13.5C14.0523 17 14.5 16.5523 14.5 16V15C14.5 14.4477 14.0523 14 13.5 14H12.5Z" fill="#CFD8DC"/>
</svg>
