<svg width="20" height="18" viewBox="0 0 20 18" fill="none" xmlns="http://www.w3.org/2000/svg">
<path fill-rule="evenodd" clip-rule="evenodd" d="M9.51433 0.125843C9.81635 -0.0419476 10.1836 -0.0419476 10.4856 0.125843L19.4856 5.12584C19.8839 5.34714 20.0823 5.80974 19.968 6.25084C19.8537 6.69195 19.4556 7 19 7H18V16H19C19.5523 16 20 16.4477 20 17C20 17.5523 19.5523 18 19 18H0.999971C0.447687 18 -2.85805e-05 17.5523 -2.85805e-05 17C-2.85805e-05 16.4477 0.447687 16 0.999971 16H1.99997V7H0.999971C0.544296 7 0.146246 6.69195 0.0319424 6.25084C-0.0823593 5.80974 0.115997 5.34714 0.514328 5.12584L9.51433 0.125843ZM3.99997 16H6.49997V7H3.99997V16ZM8.49997 16H11.5V7H8.49997V16ZM13.5 16H16V7H13.5V16ZM15.1408 5H12.5H7.49997H4.8591L9.99997 2.14396L15.1408 5Z" fill="#CFD8DC"/>
</svg>
