<svg width="14" height="14" viewBox="0 0 14 14" fill="none" xmlns="http://www.w3.org/2000/svg">
<path fill-rule="evenodd" clip-rule="evenodd" d="M12.3332 12.3334L10.3332 12.3334L10.3332 9.66675L12.3332 9.66675L12.3332 12.3334ZM6.99984 12.3334L8.99984 12.3334L8.99984 9.66675L6.99984 9.66675L6.99984 12.3334ZM5.6665 12.3334L2.99984 12.3334C2.26346 12.3334 1.6665 11.7365 1.6665 11.0001C1.6665 10.2637 2.26346 9.66675 2.99984 9.66675L5.6665 9.66675L5.6665 12.3334ZM1.6665 8.07142L3.34617 6.39176L4.33317 5.40476L4.33317 4.11119L4.33317 1.66675L1.6665 1.66675L1.6665 7.2223L1.6665 8.07142ZM5.6665 4.07142L7.90308 1.83485C8.42378 1.31415 9.268 1.31415 9.7887 1.83485L11.6743 3.72047C12.195 4.24116 12.195 5.08538 11.6743 5.60608L9.63156 7.64884L8.94698 8.33341L12.4544 8.33341C13.1238 8.33341 13.6665 8.8761 13.6665 9.54554L13.6665 12.4546C13.6665 13.1241 13.1238 13.6667 12.4544 13.6667L2.99984 13.6667C1.52708 13.6667 0.33317 12.4728 0.33317 11.0001L0.33317 7.2223L0.33317 1.66675C0.33317 0.930366 0.930125 0.333414 1.6665 0.333414L4.33317 0.333414C5.06955 0.333414 5.6665 0.930367 5.6665 1.66675L5.6665 4.07142ZM4.28898 7.33457L3.29013 8.33341L7.06137 8.33341L8.68875 6.70603L10.7315 4.66327L8.84589 2.77766L4.28898 7.33457Z" fill="#99ABCE"/>
</svg>
