<svg width="14" height="14" viewBox="0 0 14 14" fill="none" xmlns="http://www.w3.org/2000/svg">
<path fill-rule="evenodd" clip-rule="evenodd" d="M7.21089 0.369264C7.07405 0.321248 6.9261 0.321248 6.78926 0.369264L0.789338 2.47453C0.517114 2.57005 0.333496 2.83821 0.333496 3.14027V10.1578C0.333496 10.4351 0.48865 10.6865 0.729398 10.7991L6.72932 13.6061C6.90169 13.6867 7.09845 13.6867 7.27083 13.6061L13.2707 10.7991C13.5115 10.6865 13.6666 10.4351 13.6666 10.1578V3.15665C13.6679 3.09833 13.6623 3.03911 13.6491 2.98021C13.6407 2.94221 13.6293 2.90526 13.6151 2.86969C13.5454 2.69362 13.4137 2.56151 13.2562 2.49239C13.2389 2.48481 13.2213 2.47798 13.2034 2.47194L7.21089 0.369264ZM7.00007 1.77472L10.8918 3.14027L7.00007 4.50582L3.10831 3.14027L7.00007 1.77472ZM6.33342 5.75133L1.66681 4.1139V9.70176L6.33342 11.885V5.75133ZM7.66673 5.75133V11.885L12.3333 9.70176V4.1139L7.66673 5.75133ZM3.21094 6.25518C2.77926 6.10371 2.33347 6.44193 2.33347 6.92092V8.38246C2.33347 8.65351 2.48176 8.90032 2.71441 9.01649L4.04772 9.68226C4.49004 9.90313 5.0001 9.56356 5.0001 9.04823V7.38876C5.0001 7.0867 4.81648 6.81853 4.54426 6.72301L3.21094 6.25518Z" fill="#99ABCE"/>
</svg>
