<svg width="44" height="54" viewBox="0 0 44 54" fill="none" xmlns="http://www.w3.org/2000/svg">
<path fill-rule="evenodd" clip-rule="evenodd" d="M16.6252 8.48C16.6252 6.98025 17.816 5.76445 19.285 5.76445C20.754 5.76445 21.9448 6.98025 21.9448 8.48V10.9792C20.2005 11.0848 18.3994 11.5838 16.6252 12.5955V8.48ZM11.3056 19.2875V23.4155C11.3056 24.9153 12.4965 26.1311 13.9654 26.1311C15.4344 26.1311 16.6252 24.9153 16.6252 23.4155V19.2158C18.2388 19.7071 19.3599 20.6361 20.1535 21.6894C21.4096 23.3566 21.9292 25.4678 21.9292 26.9923C21.9292 30.9566 19.5662 33.0514 18.467 33.8187C17.4478 34.5302 16.6096 35.7844 16.6096 37.3359V45.8214L13.4558 47.7534L11.29 44.3377L11.29 40.5701V37.3359C11.29 35.752 10.4148 34.5067 9.40154 33.8148C8.04315 32.8872 5.97046 30.6146 5.97046 26.9923C5.97046 23.0453 8.33636 20.3076 11.3056 19.2875ZM11.3056 13.6863V8.48C11.3056 3.98073 14.8781 0.333344 19.285 0.333344C23.6919 0.333344 27.2644 3.98073 27.2644 8.48V11.8506C29.6003 12.7665 31.5233 14.2606 32.7906 15.7348C36.6773 20.2558 36.3741 25.1472 35.8821 27.564L41.0744 33.6039L41.1483 33.6899L41.2149 33.7819L42.5371 35.6096C43.2989 36.6627 43.5185 38.0255 43.1273 39.2723L41.3237 45.0205C40.7147 46.9616 38.7941 48.1442 36.8282 47.7887L29.9782 46.5496C28.9818 46.3694 28.0897 45.8093 27.4825 44.9827L22.1812 37.7662C22.0948 37.836 22.0107 37.9022 21.9292 37.9649V46.0012V46.5902C21.9292 48.021 21.1939 49.3469 19.9922 50.083L15.0905 53.0857C13.2465 54.2153 10.8573 53.6495 9.68868 51.8064L6.61097 46.9524C6.19289 46.293 5.97046 45.5243 5.97046 44.7389L5.97046 40.5701L5.97046 37.9867C3.63932 36.2076 0.650879 32.5416 0.650879 26.9923C0.650879 19.6313 5.69297 14.8424 11.3056 13.6863ZM23.716 16.4714C23.9438 16.5538 24.1858 16.6054 24.4372 16.6214C26.2864 17.1015 27.8741 18.249 28.7926 19.3174C31.354 22.2969 30.9315 25.4627 30.6012 26.7797C30.2948 28.0009 30.4752 29.5079 31.4777 30.674L37.0025 37.1006L37.8537 38.2772L36.6122 42.2339L31.4232 41.2953L25.6958 33.4987C26.5939 31.79 27.2488 29.637 27.2488 26.9923C27.2488 24.4435 26.4385 21.1235 24.3699 18.378C23.8297 17.661 23.2088 16.9911 22.5053 16.3898C22.9217 16.3802 23.326 16.4105 23.716 16.4714Z" fill="#FBB400"/>
</svg>
