<svg width="20" height="20" viewBox="0 0 20 20" fill="none" xmlns="http://www.w3.org/2000/svg">
<path fill-rule="evenodd" clip-rule="evenodd" d="M10 20C4.47715 20 0 15.5228 0 10C0 4.47715 4.47715 0 10 0C15.5228 0 20 4.47715 20 10C20 15.5228 15.5228 20 10 20ZM10 2C9.81224 2 9.62599 2.00647 9.44146 2.01919C9.40727 2.06251 9.37041 2.11028 9.33125 2.1625C9.08185 2.49504 8.73967 3.00672 8.39443 3.69721C8.08393 4.31821 7.77003 5.08553 7.51888 6H12.4811C12.23 5.08553 11.9161 4.31821 11.6056 3.69721C11.2603 3.00672 10.9182 2.49504 10.6687 2.1625C10.6296 2.11028 10.5927 2.06251 10.5585 2.01919C10.374 2.00647 10.1878 2 10 2ZM5 10C5 9.29528 5.03919 8.62858 5.10906 8H2.25204C2.08751 8.63924 2 9.3094 2 10C2 10.6906 2.08751 11.3608 2.25203 12H5.10906C5.03919 11.3714 5 10.7047 5 10ZM5.45471 14H3.07026C3.89252 15.4214 5.13957 16.5664 6.63784 17.2613L6.60557 17.1972C6.17988 16.3458 5.75879 15.2796 5.45471 14ZM7.51888 14L12.4811 14C12.23 14.9145 11.9161 15.6818 11.6056 16.3028C11.2603 16.9933 10.9182 17.505 10.6687 17.8375C10.6296 17.8897 10.5927 17.9375 10.5585 17.9808C10.374 17.9935 10.1878 18 10 18C9.81224 18 9.62599 17.9935 9.44146 17.9808C9.40727 17.9375 9.37041 17.8897 9.33125 17.8375C9.08185 17.505 8.73967 16.9933 8.39443 16.3028C8.08393 15.6818 7.77003 14.9145 7.51888 14ZM12.877 12L7.12304 12C7.04487 11.3796 7 10.713 7 10C7 9.28699 7.04487 8.62037 7.12304 8H12.877C12.9551 8.62037 13 9.28699 13 10C13 10.713 12.9551 11.3796 12.877 12ZM14.5453 14C14.2412 15.2796 13.8201 16.3458 13.3944 17.1972L13.3622 17.2613C14.8604 16.5664 16.1075 15.4214 16.9297 14H14.5453ZM17.748 12H14.8909C14.9608 11.3714 15 10.7047 15 10C15 9.29528 14.9608 8.62858 14.8909 8H17.748C17.9125 8.63924 18 9.3094 18 10C18 10.6906 17.9125 11.3608 17.748 12ZM6.60557 2.80279C6.17988 3.65418 5.75879 4.72036 5.45471 6H3.07026C3.89252 4.57856 5.13957 3.43359 6.63783 2.73869L6.60557 2.80279ZM13.3622 2.73869C14.8604 3.43359 16.1075 4.57856 16.9297 6H14.5453C14.2412 4.72036 13.8201 3.65418 13.3944 2.80279L13.3622 2.73869Z" fill="#4F5B84"/>
</svg>
