<svg width="252" height="24" viewBox="0 0 252 24" fill="none" xmlns="http://www.w3.org/2000/svg">
<path d="M16.0384 1.72528C13.0929 1.72528 10.7051 4.03848 10.7051 6.89195C10.7051 6.89246 10.7051 6.89298 10.7051 6.89349V17.2253C10.7051 20.0788 13.0929 22.3919 16.0384 22.3919C18.9839 22.3919 21.3717 20.0788 21.3717 17.2253V13.3503C21.3717 12.6369 21.9687 12.0586 22.7051 12.0586H26.7051C29.6506 12.0586 32.0384 9.74542 32.0384 6.89195C32.0384 4.03848 29.6506 1.72528 26.7051 1.72528L16.0411 1.72528C16.0402 1.72528 16.0393 1.72528 16.0384 1.72528Z" fill="#4F5B84"/>
<path d="M16.0381 22.3919C18.9836 22.3919 21.3714 20.0788 21.3714 17.2253C21.3714 17.2248 21.3714 17.2243 21.3714 17.2237L21.3714 6.89195C21.3714 4.03848 18.9836 1.72528 16.0381 1.72528C13.0926 1.72528 10.7048 4.03848 10.7048 6.89195V10.7669C10.7048 11.4803 10.1078 12.0586 9.37142 12.0586H5.37142C2.4259 12.0586 0.0380862 14.3718 0.0380859 17.2253C0.0380857 20.0787 2.4259 22.3919 5.37142 22.3919L16.0354 22.3919C16.0363 22.3919 16.0372 22.3919 16.0381 22.3919Z" fill="url(#paint0_linear_2107_372534)"/>
<path d="M128.999 5.07266C129.541 6.19287 129.812 7.4399 129.812 8.81374C129.812 10.1876 129.541 11.4346 128.999 12.5548C128.457 13.6539 127.759 14.531 126.904 15.1863C125.175 16.539 123.382 17.2153 121.528 17.2153H117.62V20.7979C117.62 21.284 117.599 21.6539 117.557 21.9075C117.537 22.14 117.443 22.4148 117.276 22.7318C116.984 23.3025 116.172 23.5878 114.838 23.5878C113.379 23.5878 112.525 23.1968 112.274 22.4148C112.149 22.0555 112.087 21.5059 112.087 20.7662V3.17041C112.087 2.68428 112.097 2.32497 112.118 2.09247C112.16 1.83884 112.264 1.5535 112.431 1.23646C112.723 0.665787 113.535 0.38045 114.869 0.38045H121.559C123.393 0.38045 125.175 1.0568 126.904 2.40951C127.759 3.06473 128.457 3.95244 128.999 5.07266ZM121.559 11.6037C122.184 11.6037 122.799 11.3712 123.403 10.9062C124.008 10.4412 124.31 9.74373 124.31 8.81374C124.31 7.88375 124.008 7.18626 123.403 6.72127C122.799 6.23514 122.174 5.99207 121.528 5.99207H117.62V11.6037H121.559Z" fill="#4F5B84"/>
<path d="M148.438 19.6882C148.75 20.4491 148.907 20.9987 148.907 21.3369C148.907 22.14 148.261 22.8164 146.968 23.3659C146.302 23.6618 145.76 23.8098 145.343 23.8098C144.947 23.8098 144.614 23.7147 144.343 23.5244C144.092 23.3131 143.905 23.1017 143.78 22.8904C143.571 22.4888 142.759 20.576 141.342 17.1519L140.373 17.2153H136.434V20.7979C136.434 21.284 136.413 21.6539 136.371 21.9075C136.35 22.14 136.257 22.4148 136.09 22.7318C135.798 23.3025 134.985 23.5878 133.652 23.5878C132.193 23.5878 131.338 23.1968 131.088 22.4148C130.963 22.0555 130.901 21.5059 130.901 20.7662V3.17041C130.901 2.68428 130.911 2.32497 130.932 2.09247C130.974 1.83884 131.078 1.5535 131.244 1.23646C131.536 0.665787 132.349 0.38045 133.683 0.38045H140.435C142.269 0.38045 144.051 1.0568 145.781 2.40951C146.614 3.06473 147.302 3.95244 147.844 5.07266C148.386 6.19287 148.657 7.4399 148.657 8.81374C148.657 11.2021 147.875 13.1678 146.312 14.7107C146.77 15.8309 147.479 17.4901 148.438 19.6882ZM136.434 11.6037H140.435C141.039 11.6037 141.644 11.3712 142.248 10.9062C142.852 10.4412 143.155 9.74373 143.155 8.81374C143.155 7.88375 142.852 7.18626 142.248 6.72127C141.644 6.23514 141.019 5.99207 140.373 5.99207H136.434V11.6037Z" fill="#4F5B84"/>
<path d="M160.132 0.0951129C163.216 0.0951129 165.894 1.22589 168.166 3.48745C170.438 5.74901 171.573 8.56011 171.573 11.9207C171.573 15.2602 170.49 18.1136 168.322 20.4808C166.155 22.8269 163.487 24 160.32 24C157.152 24 154.453 22.8375 152.223 20.5125C150.014 18.1876 148.91 15.4188 148.91 12.2061C148.91 10.4518 149.222 8.81374 149.847 7.29194C150.473 5.74901 151.306 4.45971 152.348 3.42404C153.39 2.38838 154.589 1.57464 155.943 0.982827C157.298 0.391018 158.694 0.0951129 160.132 0.0951129ZM154.443 12.0476C154.443 13.9287 155.037 15.461 156.224 16.6446C157.433 17.8071 158.777 18.3884 160.257 18.3884C161.737 18.3884 163.071 17.8177 164.258 16.6764C165.446 15.535 166.04 14.0026 166.04 12.0793C166.04 10.1559 165.436 8.61295 164.227 7.45046C163.039 6.28798 161.705 5.70674 160.226 5.70674C158.746 5.70674 157.412 6.29855 156.224 7.48217C155.037 8.64465 154.443 10.1664 154.443 12.0476Z" fill="#4F5B84"/>
<path d="M173.024 20.354C172.482 19.6777 172.211 19.0753 172.211 18.5469C172.211 17.9974 172.659 17.2787 173.555 16.391C174.076 15.8838 174.628 15.6301 175.212 15.6301C175.795 15.6301 176.608 16.1585 177.65 17.2153C177.942 17.5746 178.359 17.9234 178.901 18.2616C179.442 18.5786 179.943 18.7371 180.401 18.7371C182.339 18.7371 183.308 17.9339 183.308 16.3276C183.308 15.8415 183.037 15.4399 182.495 15.1229C181.974 14.7847 181.318 14.5416 180.526 14.3937C179.734 14.2457 178.88 14.0132 177.963 13.6962C177.046 13.358 176.191 12.967 175.399 12.5231C174.607 12.0793 173.941 11.3818 173.399 10.4306C172.878 9.45839 172.617 8.29591 172.617 6.9432C172.617 5.08322 173.294 3.46632 174.649 2.09247C176.025 0.69749 177.89 0 180.245 0C181.495 0 182.631 0.169089 183.652 0.507266C184.694 0.824307 185.413 1.15192 185.809 1.49009L186.591 2.09247C187.237 2.70542 187.56 3.22325 187.56 3.64597C187.56 4.06869 187.31 4.64993 186.809 5.3897C186.101 6.4465 185.371 6.9749 184.621 6.9749C184.184 6.9749 183.642 6.76354 182.996 6.34082C182.933 6.29855 182.808 6.19287 182.621 6.02378C182.454 5.85469 182.298 5.71731 182.152 5.61163C181.714 5.33686 181.151 5.19947 180.464 5.19947C179.797 5.19947 179.234 5.36856 178.775 5.70674C178.338 6.02378 178.119 6.4782 178.119 7.07001C178.119 7.64069 178.38 8.10568 178.901 8.46499C179.442 8.82431 180.109 9.06737 180.901 9.19419C181.693 9.321 182.558 9.5218 183.496 9.79657C184.434 10.0502 185.299 10.3672 186.09 10.7477C186.882 11.1281 187.539 11.7939 188.06 12.745C188.602 13.675 188.873 14.8269 188.873 16.2008C188.873 17.5746 188.602 18.79 188.06 19.8468C187.518 20.8824 186.809 21.6856 185.934 22.2563C184.246 23.3765 182.443 23.9366 180.526 23.9366C179.547 23.9366 178.619 23.8203 177.744 23.5878C176.869 23.3342 176.16 23.0277 175.618 22.6684C174.514 21.9921 173.743 21.3369 173.305 20.7028L173.024 20.354Z" fill="#4F5B84"/>
<path d="M204.128 1.23646C204.295 0.91942 204.576 0.697491 204.972 0.570674C205.368 0.443858 205.868 0.38045 206.473 0.38045C207.077 0.38045 207.556 0.43329 207.91 0.53897C208.265 0.64465 208.536 0.771467 208.723 0.91942C208.911 1.06737 209.057 1.27873 209.161 1.5535C209.265 1.91281 209.317 2.46235 209.317 3.20211V20.7979C209.317 21.284 209.296 21.6539 209.255 21.9075C209.234 22.14 209.14 22.4148 208.973 22.7318C208.682 23.3025 207.869 23.5878 206.535 23.5878C205.076 23.5878 204.222 23.1968 203.972 22.4148C203.847 22.0555 203.784 21.5059 203.784 20.7662V14.3303H195.5V20.7979C195.5 21.284 195.479 21.6539 195.438 21.9075C195.417 22.14 195.323 22.4148 195.156 22.7318C194.864 23.3025 194.052 23.5878 192.718 23.5878C191.259 23.5878 190.405 23.1968 190.155 22.4148C190.029 22.0555 189.967 21.5059 189.967 20.7662V3.17041C189.967 2.68428 189.977 2.32497 189.998 2.09247C190.04 1.83884 190.144 1.5535 190.311 1.23646C190.603 0.665787 191.415 0.38045 192.749 0.38045C194.208 0.38045 195.073 0.771467 195.344 1.5535C195.448 1.91281 195.5 2.46235 195.5 3.20211V9.66975H203.784V3.17041C203.784 2.68428 203.795 2.32497 203.815 2.09247C203.857 1.83884 203.961 1.5535 204.128 1.23646Z" fill="#4F5B84"/>
<path d="M221.641 0.0951129C224.725 0.0951129 227.403 1.22589 229.675 3.48745C231.946 5.74901 233.082 8.56011 233.082 11.9207C233.082 15.2602 231.998 18.1136 229.831 20.4808C227.664 22.8269 224.996 24 221.828 24C218.66 24 215.962 22.8375 213.732 20.5125C211.523 18.1876 210.418 15.4188 210.418 12.2061C210.418 10.4518 210.731 8.81374 211.356 7.29194C211.981 5.74901 212.815 4.45971 213.857 3.42404C214.899 2.38838 216.097 1.57464 217.452 0.982827C218.806 0.391018 220.203 0.0951129 221.641 0.0951129ZM215.951 12.0476C215.951 13.9287 216.545 15.461 217.733 16.6446C218.942 17.8071 220.286 18.3884 221.766 18.3884C223.245 18.3884 224.579 17.8177 225.767 16.6764C226.955 15.535 227.549 14.0026 227.549 12.0793C227.549 10.1559 226.945 8.61295 225.736 7.45046C224.548 6.28798 223.214 5.70674 221.734 5.70674C220.255 5.70674 218.921 6.29855 217.733 7.48217C216.545 8.64465 215.951 10.1664 215.951 12.0476Z" fill="#4F5B84"/>
<path d="M251.1 5.07266C251.642 6.19287 251.913 7.4399 251.913 8.81374C251.913 10.1876 251.642 11.4346 251.1 12.5548C250.558 13.6539 249.86 14.531 249.006 15.1863C247.276 16.539 245.484 17.2153 243.629 17.2153H239.721V20.7979C239.721 21.284 239.701 21.6539 239.659 21.9075C239.638 22.14 239.544 22.4148 239.378 22.7318C239.086 23.3025 238.273 23.5878 236.939 23.5878C235.48 23.5878 234.626 23.1968 234.376 22.4148C234.251 22.0555 234.188 21.5059 234.188 20.7662V3.17041C234.188 2.68428 234.199 2.32497 234.22 2.09247C234.261 1.83884 234.365 1.5535 234.532 1.23646C234.824 0.665787 235.637 0.38045 236.97 0.38045H243.66C245.494 0.38045 247.276 1.0568 249.006 2.40951C249.86 3.06473 250.558 3.95244 251.1 5.07266ZM243.66 11.6037C244.285 11.6037 244.9 11.3712 245.505 10.9062C246.109 10.4412 246.411 9.74373 246.411 8.81374C246.411 7.88375 246.109 7.18626 245.505 6.72127C244.9 6.23514 244.275 5.99207 243.629 5.99207H239.721V11.6037H243.66Z" fill="#4F5B84"/>
<path d="M43.5147 19.4025H51.9893C52.6748 19.4025 53.1733 19.4853 53.4849 19.651C53.7964 19.7959 54.0041 20.0341 54.108 20.3655C54.2119 20.6968 54.2638 21.1421 54.2638 21.7012C54.2638 22.2397 54.2119 22.6746 54.108 23.0059C54.0041 23.3373 53.8276 23.5651 53.5783 23.6893C53.1837 23.8964 52.6436 24 51.9582 24H40.7418C39.2878 24 38.4362 23.6065 38.1869 22.8195C38.0623 22.4882 38 21.9601 38 21.2353V3.9635C38 3.48718 38.0104 3.13512 38.0312 2.90732C38.0727 2.6588 38.1766 2.37922 38.3427 2.06858C38.6335 1.50942 39.4436 1.22984 40.7729 1.22984C42.2269 1.22984 43.0889 1.61297 43.3589 2.37922C43.4628 2.73128 43.5147 3.26973 43.5147 3.99457V19.4025Z" fill="url(#paint1_linear_2107_372534)"/>
<path d="M55.3516 3.9635C55.3516 3.48718 55.362 3.13512 55.3827 2.90732C55.4243 2.6588 55.5281 2.37922 55.6943 2.06858C55.9851 1.50942 56.7952 1.22984 58.1245 1.22984C59.5785 1.22984 60.4405 1.61297 60.7105 2.37922C60.8144 2.73128 60.8663 3.26973 60.8663 3.99457V21.2663C60.8663 21.7633 60.8456 22.1258 60.804 22.3536C60.7832 22.5814 60.6898 22.8506 60.5236 23.1612C60.2328 23.7204 59.4227 24 58.0934 24C56.6394 24 55.7878 23.6065 55.5385 22.8195C55.4139 22.4882 55.3516 21.9601 55.3516 21.2353V3.9635Z" fill="url(#paint2_linear_2107_372534)"/>
<path d="M83.2629 1.57155C84.4884 2.17213 85.1011 2.83483 85.1011 3.55966C85.1011 3.89102 84.9453 4.38805 84.6338 5.05075L76.0345 22.4468C75.806 22.9024 75.4529 23.2751 74.9752 23.5651C74.5182 23.8343 74.0405 23.9689 73.542 23.9689H73.2304C72.7111 23.9689 72.2126 23.8343 71.7349 23.5651C71.2779 23.2751 70.9352 22.9024 70.7067 22.4468L62.1075 5.05075C61.7959 4.38805 61.6401 3.89102 61.6401 3.55966C61.6401 2.83483 62.2529 2.17213 63.4784 1.57155C64.1638 1.21949 64.6831 1.04346 65.0362 1.04346C65.4101 1.04346 65.6905 1.08488 65.8774 1.16771C66.0644 1.25055 66.2409 1.39552 66.4071 1.60261C66.594 1.85113 66.7602 2.13071 66.9056 2.44135C67.0718 2.73128 67.4768 3.59073 68.1207 5.01969C68.7646 6.42794 69.4501 7.92938 70.1771 9.52401C70.9248 11.1186 71.6206 12.6304 72.2646 14.0594C72.9292 15.4677 73.3031 16.2546 73.3862 16.4203L79.6175 2.81412C79.7837 2.42064 79.9291 2.11 80.0537 1.88219C80.4276 1.32304 80.8846 1.04346 81.4246 1.04346C81.9647 1.04346 82.5774 1.21949 83.2629 1.57155Z" fill="url(#paint3_linear_2107_372534)"/>
<path d="M91.4011 18.5016H100.997C101.475 18.5016 101.828 18.5223 102.057 18.5637C102.306 18.5844 102.586 18.6776 102.898 18.8433C103.459 19.1332 103.739 19.9409 103.739 21.2663C103.739 22.716 103.355 23.5651 102.586 23.8136C102.233 23.9379 101.693 24 100.966 24H88.6281C87.1742 24 86.3225 23.6065 86.0733 22.8195C85.9487 22.4882 85.8863 21.9601 85.8863 21.2353V3.9635C85.8863 2.90732 86.0837 2.19284 86.4783 1.82006C86.873 1.42658 87.6207 1.22984 88.7216 1.22984H100.997C101.475 1.22984 101.828 1.25055 102.057 1.29197C102.306 1.31268 102.586 1.40587 102.898 1.57155C103.459 1.86148 103.739 2.66916 103.739 3.99457C103.739 5.44423 103.355 6.29333 102.586 6.54184C102.233 6.6661 101.693 6.72822 100.966 6.72822H91.4011V9.86572H97.5701C98.0478 9.86572 98.401 9.88643 98.6294 9.92785C98.8787 9.94856 99.1591 10.0418 99.4707 10.2074C100.031 10.4974 100.312 11.305 100.312 12.6304C100.312 14.0801 99.9172 14.9292 99.1279 15.1777C98.7748 15.302 98.2348 15.3641 97.5078 15.3641H91.4011V18.5016Z" fill="url(#paint4_linear_2107_372534)"/>
<defs>
<linearGradient id="paint0_linear_2107_372534" x1="21.3714" y1="1.72528" x2="0.713701" y2="23.0465" gradientUnits="userSpaceOnUse">
<stop stop-color="#4F5B84"/>
<stop offset="0.182292" stop-color="#93699C"/>
<stop offset="0.390625" stop-color="#D7779B"/>
<stop offset="0.59375" stop-color="#FF9384"/>
<stop offset="0.78125" stop-color="#FFC16C"/>
<stop offset="1" stop-color="#F9F871"/>
</linearGradient>
<linearGradient id="paint1_linear_2107_372534" x1="103.725" y1="24.0592" x2="38.0384" y2="2.30867" gradientUnits="userSpaceOnUse">
<stop stop-color="#4F5B84"/>
<stop offset="0.182292" stop-color="#93699C"/>
<stop offset="0.390625" stop-color="#D7779B"/>
<stop offset="0.59375" stop-color="#FF9384"/>
<stop offset="0.78125" stop-color="#FFC16C"/>
<stop offset="1" stop-color="#F9F871"/>
</linearGradient>
<linearGradient id="paint2_linear_2107_372534" x1="103.725" y1="24.0592" x2="38.0384" y2="2.30867" gradientUnits="userSpaceOnUse">
<stop stop-color="#4F5B84"/>
<stop offset="0.182292" stop-color="#93699C"/>
<stop offset="0.390625" stop-color="#D7779B"/>
<stop offset="0.59375" stop-color="#FF9384"/>
<stop offset="0.78125" stop-color="#FFC16C"/>
<stop offset="1" stop-color="#F9F871"/>
</linearGradient>
<linearGradient id="paint3_linear_2107_372534" x1="103.725" y1="24.0592" x2="38.0384" y2="2.30867" gradientUnits="userSpaceOnUse">
<stop stop-color="#4F5B84"/>
<stop offset="0.182292" stop-color="#93699C"/>
<stop offset="0.390625" stop-color="#D7779B"/>
<stop offset="0.59375" stop-color="#FF9384"/>
<stop offset="0.78125" stop-color="#FFC16C"/>
<stop offset="1" stop-color="#F9F871"/>
</linearGradient>
<linearGradient id="paint4_linear_2107_372534" x1="103.725" y1="24.0592" x2="38.0384" y2="2.30867" gradientUnits="userSpaceOnUse">
<stop stop-color="#4F5B84"/>
<stop offset="0.182292" stop-color="#93699C"/>
<stop offset="0.390625" stop-color="#D7779B"/>
<stop offset="0.59375" stop-color="#FF9384"/>
<stop offset="0.78125" stop-color="#FFC16C"/>
<stop offset="1" stop-color="#F9F871"/>
</linearGradient>
</defs>
</svg>
