<svg width="550" height="550" viewBox="0 0 180 53" fill="none" xmlns="http://www.w3.org/2000/svg">
<path fill-rule="evenodd" clip-rule="evenodd" d="M17.9621 16.9121H1.99326C0.89837 16.9121 0 17.8059 0 18.8953L5.13607 51.0168C5.13607 52.1062 6.03444 53 7.12933 53H62.8861C63.9809 53 64.8793 52.1062 64.8793 51.0168L70.0154 18.8953C70.0154 17.8059 69.117 16.9121 68.0221 16.9121H52.3853C52.2241 7.54433 44.58 0 35.1737 0C25.7675 0 18.1233 7.54433 17.9621 16.9121ZM49.6287 16.9121C49.4895 9.03778 43.0629 2.69734 35.1553 2.69734C27.2477 2.69734 20.8211 9.03778 20.6819 16.9121H49.6287Z" fill="url(#paint0_linear_329_2041)"/>
<path d="M13.6574 43.802C13.3055 43.802 13.0457 43.7301 12.8781 43.5865C12.7273 43.4269 12.6519 43.1795 12.6519 42.8443V27.7606C12.6519 27.2498 13.1546 26.9944 14.1602 26.9944H15.015C16.0206 26.9944 16.5234 27.2498 16.5234 27.7606V40.6655H21.9535C22.2217 40.6655 22.4144 40.7613 22.5318 40.9528C22.6491 41.1444 22.7077 41.4476 22.7077 41.8626V42.6048C22.7077 43.0198 22.6491 43.3231 22.5318 43.5146C22.4144 43.7062 22.2217 43.802 21.9535 43.802H13.6574Z" fill="white"/>
<path d="M25.5446 43.8738C24.539 43.8738 24.0362 43.6104 24.0362 43.0837V27.7606C24.0362 27.2338 24.539 26.9705 25.5446 26.9705H26.4245C27.4301 26.9705 27.9329 27.2338 27.9329 27.7606V43.0837C27.9329 43.6104 27.4301 43.8738 26.4245 43.8738H25.5446Z" fill="white"/>
<path d="M36.6614 43.8498C35.8402 43.8498 35.3709 43.6822 35.2536 43.3471L29.8234 27.9521C29.7564 27.7286 29.7229 27.585 29.7229 27.5211C29.7229 27.17 30.2341 26.9944 31.2564 26.9944H32.1363C32.9743 26.9944 33.4687 27.2258 33.6195 27.6887L36.7369 37.1939C37.0553 38.1675 37.2397 38.8938 37.2899 39.3726H37.3905C37.4408 38.8938 37.6251 38.1675 37.9436 37.1939L41.1614 27.6887C41.329 27.2258 41.8235 26.9944 42.6447 26.9944H43.3737C44.3793 26.9944 44.8821 27.17 44.8821 27.5211C44.8821 27.6329 44.857 27.7765 44.8067 27.9521L39.3765 43.3471C39.2592 43.6822 38.7899 43.8498 37.9687 43.8498H36.6614Z" fill="white"/>
<path d="M48.0042 43.802C47.6522 43.802 47.3924 43.7301 47.2248 43.5865C47.074 43.4269 46.9986 43.1795 46.9986 42.8443V28C46.9986 27.6648 47.074 27.4254 47.2248 27.2817C47.3924 27.1221 47.6522 27.0423 48.0042 27.0423H56.8282C57.0963 27.0423 57.2891 27.1381 57.4064 27.3296C57.5237 27.5211 57.5824 27.8244 57.5824 28.2394V28.9816C57.5824 29.3966 57.5237 29.6999 57.4064 29.8914C57.2891 30.083 57.0963 30.1787 56.8282 30.1787H50.8701V33.6504H56.1494C56.4176 33.6504 56.6103 33.7462 56.7276 33.9377C56.8449 34.1292 56.9036 34.4325 56.9036 34.8475V35.5897C56.9036 36.0047 56.8449 36.308 56.7276 36.4995C56.6103 36.6911 56.4176 36.7868 56.1494 36.7868H50.8701V40.6655H56.8533C57.1215 40.6655 57.3142 40.7613 57.4315 40.9528C57.5489 41.1444 57.6075 41.4476 57.6075 41.8626V42.6048C57.6075 43.0198 57.5489 43.3231 57.4315 43.5146C57.3142 43.7062 57.1215 43.802 56.8533 43.802H48.0042Z" fill="white"/>
<path d="M88.5788 29.8045C88.9818 30.6447 89.1833 31.5799 89.1833 32.6103C89.1833 33.6407 88.9818 34.576 88.5788 35.4161C88.1757 36.2404 87.6565 36.8983 87.0209 37.3897C85.7344 38.4042 84.4013 38.9115 83.0218 38.9115H80.1154V41.5984C80.1154 41.963 80.0999 42.2404 80.0689 42.4306C80.0534 42.605 79.9837 42.8111 79.8597 43.0489C79.6426 43.4769 79.0381 43.6909 78.0461 43.6909C76.961 43.6909 76.3255 43.3976 76.1395 42.8111C76.0465 42.5416 76 42.1295 76 41.5746V28.3778C76 28.0132 76.0078 27.7437 76.0233 27.5694C76.0543 27.3791 76.1318 27.1651 76.2558 26.9273C76.4728 26.4993 77.0773 26.2853 78.0693 26.2853H83.045C84.4091 26.2853 85.7344 26.7926 87.0209 27.8071C87.6565 28.2985 88.1757 28.9643 88.5788 29.8045ZM83.045 34.7028C83.5101 34.7028 83.9673 34.5284 84.4168 34.1797C84.8664 33.8309 85.0911 33.3078 85.0911 32.6103C85.0911 31.9128 84.8664 31.3897 84.4168 31.041C83.9673 30.6764 83.5023 30.4941 83.0218 30.4941H80.1154V34.7028H83.045Z" fill="#141A3C"/>
<path d="M103.037 40.7662C103.27 41.3369 103.386 41.749 103.386 42.0026C103.386 42.605 102.905 43.1123 101.944 43.5244C101.448 43.7464 101.045 43.8573 100.735 43.8573C100.441 43.8573 100.193 43.786 99.9912 43.6433C99.8051 43.4848 99.6656 43.3263 99.5726 43.1678C99.4176 42.8666 98.8131 41.432 97.7591 38.8639L97.0383 38.9115H94.1087V41.5984C94.1087 41.963 94.0932 42.2404 94.0622 42.4306C94.0467 42.605 93.9769 42.8111 93.8529 43.0489C93.6359 43.4769 93.0314 43.6909 92.0393 43.6909C90.9543 43.6909 90.3188 43.3976 90.1328 42.8111C90.0398 42.5416 89.9933 42.1295 89.9933 41.5746V28.3778C89.9933 28.0132 90.001 27.7437 90.0165 27.5694C90.0475 27.3791 90.125 27.1651 90.249 26.9273C90.466 26.4993 91.0705 26.2853 92.0626 26.2853H97.0848C98.4488 26.2853 99.7741 26.7926 101.061 27.8071C101.681 28.2985 102.192 28.9643 102.595 29.8045C102.998 30.6447 103.2 31.5799 103.2 32.6103C103.2 34.4016 102.619 35.8758 101.456 37.033C101.797 37.8732 102.324 39.1176 103.037 40.7662ZM94.1087 34.7028H97.0848C97.5343 34.7028 97.9838 34.5284 98.4333 34.1797C98.8829 33.8309 99.1076 33.3078 99.1076 32.6103C99.1076 31.9128 98.8829 31.3897 98.4333 31.041C97.9838 30.6764 97.5188 30.4941 97.0383 30.4941H94.1087V34.7028Z" fill="#141A3C"/>
<path d="M111.735 26.0713C114.029 26.0713 116.021 26.9194 117.711 28.6156C119.4 30.3118 120.245 32.4201 120.245 34.9406C120.245 37.4452 119.439 39.5852 117.827 41.3606C116.215 43.1202 114.231 44 111.875 44C109.518 44 107.511 43.1281 105.853 41.3844C104.21 39.6407 103.388 37.5641 103.388 35.1546C103.388 33.8388 103.62 32.6103 104.086 31.469C104.551 30.3118 105.171 29.3448 105.946 28.568C106.721 27.7913 107.612 27.181 108.619 26.7371C109.627 26.2933 110.666 26.0713 111.735 26.0713ZM107.503 35.0357C107.503 36.4465 107.945 37.5958 108.829 38.4835C109.728 39.3553 110.728 39.7913 111.828 39.7913C112.929 39.7913 113.921 39.3633 114.804 38.5073C115.688 37.6513 116.129 36.502 116.129 35.0594C116.129 33.6169 115.68 32.4597 114.781 31.5878C113.897 30.716 112.905 30.2801 111.805 30.2801C110.704 30.2801 109.712 30.7239 108.829 31.6116C107.945 32.4835 107.503 33.6248 107.503 35.0357Z" fill="#141A3C"/>
<path d="M121.324 41.2655C120.921 40.7583 120.719 40.3065 120.719 39.9102C120.719 39.498 121.052 38.959 121.719 38.2933C122.106 37.9128 122.517 37.7226 122.951 37.7226C123.385 37.7226 123.99 38.1189 124.765 38.9115C124.982 39.181 125.292 39.4425 125.695 39.6962C126.098 39.9339 126.47 40.0528 126.811 40.0528C128.252 40.0528 128.973 39.4505 128.973 38.2457C128.973 37.8811 128.772 37.5799 128.369 37.3421C127.981 37.0885 127.493 36.9062 126.904 36.7952C126.315 36.6843 125.679 36.5099 124.997 36.2721C124.315 36.0185 123.68 35.7252 123.091 35.3923C122.502 35.0594 122.006 34.5363 121.603 33.823C121.215 33.0938 121.021 32.2219 121.021 31.2074C121.021 29.8124 121.525 28.5997 122.533 27.5694C123.556 26.5231 124.943 26 126.694 26C127.625 26 128.469 26.1268 129.229 26.3804C130.004 26.6182 130.539 26.8639 130.833 27.1176L131.414 27.5694C131.895 28.0291 132.135 28.4174 132.135 28.7345C132.135 29.0515 131.949 29.4875 131.577 30.0423C131.05 30.8349 130.508 31.2312 129.95 31.2312C129.624 31.2312 129.221 31.0727 128.741 30.7556C128.694 30.7239 128.601 30.6446 128.462 30.5178C128.338 30.391 128.221 30.288 128.113 30.2087C127.787 30.0026 127.369 29.8996 126.857 29.8996C126.361 29.8996 125.943 30.0264 125.602 30.2801C125.276 30.5178 125.113 30.8587 125.113 31.3025C125.113 31.7305 125.307 32.0793 125.695 32.3487C126.098 32.6182 126.594 32.8005 127.183 32.8956C127.772 32.9908 128.415 33.1413 129.113 33.3474C129.81 33.5376 130.453 33.7754 131.042 34.0608C131.631 34.3461 132.12 34.8454 132.507 35.5588C132.91 36.2563 133.112 37.1202 133.112 38.1506C133.112 39.181 132.91 40.0925 132.507 40.8851C132.104 41.6618 131.577 42.2642 130.926 42.6922C129.671 43.5324 128.33 43.9524 126.904 43.9524C126.175 43.9524 125.485 43.8653 124.834 43.6909C124.183 43.5007 123.656 43.2708 123.253 43.0013C122.432 42.4941 121.858 42.0026 121.533 41.5271L121.324 41.2655Z" fill="#141A3C"/>
<path d="M144.458 26.9273C144.582 26.6896 144.792 26.5231 145.086 26.428C145.381 26.3329 145.753 26.2853 146.202 26.2853C146.652 26.2853 147.008 26.325 147.272 26.4042C147.535 26.4835 147.737 26.5786 147.876 26.6896C148.016 26.8005 148.124 26.959 148.202 27.1651C148.279 27.4346 148.318 27.8468 148.318 28.4016V41.5984C148.318 41.963 148.303 42.2404 148.272 42.4306C148.256 42.605 148.186 42.8111 148.062 43.0489C147.845 43.4769 147.241 43.6909 146.249 43.6909C145.164 43.6909 144.528 43.3976 144.342 42.8111C144.249 42.5416 144.203 42.1295 144.203 41.5746V36.7477H138.041V41.5984C138.041 41.963 138.026 42.2404 137.995 42.4306C137.979 42.605 137.909 42.8111 137.785 43.0489C137.568 43.4769 136.964 43.6909 135.972 43.6909C134.887 43.6909 134.251 43.3976 134.065 42.8111C133.972 42.5416 133.926 42.1295 133.926 41.5746V28.3778C133.926 28.0132 133.933 27.7437 133.949 27.5694C133.98 27.3791 134.057 27.1651 134.181 26.9273C134.398 26.4993 135.003 26.2853 135.995 26.2853C137.08 26.2853 137.723 26.5786 137.925 27.1651C138.002 27.4346 138.041 27.8468 138.041 28.4016V33.2523H144.203V28.3778C144.203 28.0132 144.21 27.7437 144.226 27.5694C144.257 27.3791 144.334 27.1651 144.458 26.9273Z" fill="#141A3C"/>
<path d="M157.484 26.0713C159.778 26.0713 161.77 26.9194 163.459 28.6156C165.149 30.3118 165.994 32.4201 165.994 34.9406C165.994 37.4452 165.188 39.5852 163.576 41.3606C161.964 43.1202 159.98 44 157.624 44C155.267 44 153.26 43.1281 151.602 41.3844C149.958 39.6407 149.137 37.5641 149.137 35.1546C149.137 33.8388 149.369 32.6103 149.834 31.469C150.299 30.3118 150.919 29.3448 151.695 28.568C152.47 27.7913 153.361 27.181 154.368 26.7371C155.376 26.2933 156.414 26.0713 157.484 26.0713ZM153.252 35.0357C153.252 36.4465 153.694 37.5958 154.578 38.4835C155.477 39.3553 156.476 39.7913 157.577 39.7913C158.678 39.7913 159.67 39.3633 160.553 38.5073C161.437 37.6513 161.878 36.502 161.878 35.0594C161.878 33.6169 161.429 32.4597 160.53 31.5878C159.646 30.716 158.654 30.2801 157.554 30.2801C156.453 30.2801 155.461 30.7239 154.578 31.6116C153.694 32.4835 153.252 33.6248 153.252 35.0357Z" fill="#141A3C"/>
<path d="M179.395 29.8045C179.798 30.6447 180 31.5799 180 32.6103C180 33.6407 179.798 34.576 179.395 35.4161C178.992 36.2404 178.473 36.8983 177.838 37.3897C176.551 38.4042 175.218 38.9115 173.838 38.9115H170.932V41.5984C170.932 41.963 170.917 42.2404 170.886 42.4306C170.87 42.605 170.8 42.8111 170.676 43.0489C170.459 43.4769 169.855 43.6909 168.863 43.6909C167.778 43.6909 167.142 43.3976 166.956 42.8111C166.863 42.5416 166.817 42.1295 166.817 41.5746V28.3778C166.817 28.0132 166.824 27.7437 166.84 27.5694C166.871 27.3791 166.948 27.1651 167.072 26.9273C167.289 26.4993 167.894 26.2853 168.886 26.2853H173.862C175.226 26.2853 176.551 26.7926 177.838 27.8071C178.473 28.2985 178.992 28.9643 179.395 29.8045ZM173.862 34.7028C174.327 34.7028 174.784 34.5284 175.234 34.1797C175.683 33.8309 175.908 33.3078 175.908 32.6103C175.908 31.9128 175.683 31.3897 175.234 31.041C174.784 30.6764 174.319 30.4941 173.838 30.4941H170.932V34.7028H173.862Z" fill="#141A3C"/>
<defs>
<linearGradient id="paint0_linear_329_2041" x1="0" y1="53" x2="51.0101" y2="-14.3866" gradientUnits="userSpaceOnUse">
<stop stop-color="#CA4573"/>
<stop offset="0.494792" stop-color="#EE5342"/>
<stop offset="1" stop-color="#EFBB58"/>
</linearGradient>
</defs>
</svg>
