<svg width="176" height="52" viewBox="0 0 176 52" fill="none" xmlns="http://www.w3.org/2000/svg">
<path fill-rule="evenodd" clip-rule="evenodd" d="M17.5708 16.5437C17.7285 7.37999 25.2062 0 34.4075 0C43.6088 0 51.0865 7.37999 51.2442 16.5437H66.5404C67.6114 16.5437 68.4902 17.418 68.4902 18.4837L63.466 49.9055C63.466 50.9711 62.5872 51.8455 61.5162 51.8455H6.97403C5.90299 51.8455 5.02419 50.9711 5.02419 49.9055L0 18.4837C0 17.418 0.8788 16.5437 1.94984 16.5437H17.5708ZM48.5476 16.5437H20.2314C20.3675 8.84091 26.6542 2.63858 34.3895 2.63858C42.1248 2.63858 48.4115 8.84091 48.5476 16.5437Z" fill="url(#paint0_linear_476_3452)"/>
<path d="M13.36 42.8482C13.0157 42.8482 12.7616 42.7779 12.5977 42.6374C12.4501 42.4813 12.3763 42.2392 12.3763 41.9113V27.1562C12.3763 26.6566 12.8682 26.4068 13.8519 26.4068H14.688C15.6717 26.4068 16.1635 26.6566 16.1635 27.1562V39.78H21.4754C21.7377 39.78 21.9263 39.8737 22.041 40.0611C22.1558 40.2485 22.2132 40.5451 22.2132 40.9511V41.6771C22.2132 42.0831 22.1558 42.3798 22.041 42.5671C21.9263 42.7545 21.7377 42.8482 21.4754 42.8482H13.36Z" fill="white"/>
<path d="M24.9882 42.9184C24.0045 42.9184 23.5127 42.6608 23.5127 42.1456V27.1562C23.5127 26.641 24.0045 26.3833 24.9882 26.3833H25.8489C26.8326 26.3833 27.3245 26.641 27.3245 27.1562V42.1456C27.3245 42.6608 26.8326 42.9184 25.8489 42.9184H24.9882Z" fill="white"/>
<path d="M35.8629 42.895C35.0596 42.895 34.6005 42.7311 34.4858 42.4032L29.1739 27.3436C29.1083 27.125 29.0755 26.9845 29.0755 26.922C29.0755 26.5785 29.5755 26.4068 30.5756 26.4068H31.4363C32.2561 26.4068 32.7397 26.6332 32.8873 27.086L35.9367 36.384C36.2482 37.3365 36.4285 38.0469 36.4777 38.5153H36.5761C36.6253 38.0469 36.8056 37.3365 37.1171 36.384L40.2649 27.086C40.4288 26.6332 40.9125 26.4068 41.7158 26.4068H42.429C43.4127 26.4068 43.9045 26.5785 43.9045 26.922C43.9045 27.0313 43.8799 27.1718 43.8307 27.3436L38.5189 42.4032C38.4041 42.7311 37.945 42.895 37.1417 42.895H35.8629Z" fill="white"/>
<path d="M46.9585 42.8482C46.6143 42.8482 46.3601 42.7779 46.1962 42.6374C46.0486 42.4813 45.9749 42.2392 45.9749 41.9113V27.3904C45.9749 27.0625 46.0486 26.8283 46.1962 26.6878C46.3601 26.5317 46.6143 26.4536 46.9585 26.4536H55.5904C55.8527 26.4536 56.0412 26.5473 56.156 26.7346C56.2707 26.922 56.3281 27.2187 56.3281 27.6246V28.3507C56.3281 28.7566 56.2707 29.0533 56.156 29.2407C56.0412 29.428 55.8527 29.5217 55.5904 29.5217H49.762V32.9177H54.9264C55.1887 32.9177 55.3772 33.0114 55.492 33.1988C55.6067 33.3862 55.6641 33.6828 55.6641 34.0888V34.8148C55.6641 35.2208 55.6067 35.5175 55.492 35.7048C55.3772 35.8922 55.1887 35.9859 54.9264 35.9859H49.762V39.78H55.6149C55.8773 39.78 56.0658 39.8737 56.1806 40.0611C56.2953 40.2485 56.3527 40.5451 56.3527 40.9511V41.6771C56.3527 42.0831 56.2953 42.3798 56.1806 42.5671C56.0658 42.7545 55.8773 42.8482 55.6149 42.8482H46.9585Z" fill="white"/>
<path d="M86.3057 29.5114C86.7012 30.3225 86.8989 31.2254 86.8989 32.2201C86.8989 33.2149 86.7012 34.1178 86.3057 34.9289C85.9103 35.7246 85.4009 36.3597 84.7774 36.8342C83.5151 37.8136 82.2072 38.3033 80.8537 38.3033H78.0023V40.8973C78.0023 41.2492 77.9871 41.5171 77.9567 41.7007C77.9414 41.869 77.873 42.068 77.7513 42.2975C77.5384 42.7107 76.9453 42.9173 75.972 42.9173C74.9075 42.9173 74.284 42.6342 74.1015 42.068C74.0102 41.8078 73.9646 41.4099 73.9646 40.8743V28.1341C73.9646 27.7821 73.9722 27.5219 73.9874 27.3536C74.0178 27.1699 74.0939 26.9633 74.2155 26.7338C74.4284 26.3206 75.0215 26.114 75.9948 26.114H80.8766C82.2148 26.114 83.5151 26.6037 84.7774 27.5831C85.4009 28.0576 85.9103 28.7003 86.3057 29.5114ZM80.8766 34.2402C81.3328 34.2402 81.7814 34.0719 82.2224 33.7352C82.6635 33.3985 82.884 32.8935 82.884 32.2201C82.884 31.5468 82.6635 31.0417 82.2224 30.7051C81.7814 30.3531 81.3252 30.1771 80.8537 30.1771H78.0023V34.2402H80.8766Z" fill="white"/>
<path d="M100.491 40.0938C100.719 40.6447 100.833 41.0426 100.833 41.2875C100.833 41.869 100.362 42.3587 99.4188 42.7566C98.9321 42.9709 98.5367 43.078 98.2325 43.078C97.9436 43.078 97.7003 43.0091 97.5026 42.8714C97.3201 42.7184 97.1832 42.5653 97.092 42.4123C96.9399 42.1215 96.3468 40.7366 95.3126 38.2574L94.6055 38.3033H91.7312V40.8973C91.7312 41.2492 91.716 41.5171 91.6856 41.7007C91.6704 41.869 91.6019 42.068 91.4803 42.2975C91.2674 42.7107 90.6743 42.9173 89.701 42.9173C88.6364 42.9173 88.0129 42.6342 87.8304 42.068C87.7391 41.8078 87.6935 41.4099 87.6935 40.8743V28.1341C87.6935 27.7821 87.7011 27.5219 87.7163 27.3536C87.7467 27.1699 87.8228 26.9633 87.9444 26.7338C88.1574 26.3206 88.7505 26.114 89.7238 26.114H94.6511C95.9894 26.114 97.2897 26.6037 98.5519 27.5831C99.1602 28.0576 99.6621 28.7003 100.057 29.5114C100.453 30.3225 100.651 31.2254 100.651 32.2201C100.651 33.9494 100.08 35.3727 98.9397 36.4898C99.2743 37.3009 99.7913 38.5022 100.491 40.0938ZM91.7312 34.2402H94.6511C95.0921 34.2402 95.5332 34.0719 95.9742 33.7352C96.4152 33.3985 96.6357 32.8935 96.6357 32.2201C96.6357 31.5468 96.4152 31.0417 95.9742 30.7051C95.5332 30.3531 95.0769 30.1771 94.6055 30.1771H91.7312V34.2402Z" fill="white"/>
<path d="M109.025 25.9074C111.275 25.9074 113.23 26.7261 114.887 28.3636C116.545 30.0011 117.374 32.0365 117.374 34.4698C117.374 36.8877 116.583 38.9537 115.001 40.6677C113.42 42.3664 111.473 43.2157 109.162 43.2157C106.85 43.2157 104.881 42.3741 103.253 40.6907C101.641 39.0073 100.835 37.0025 100.835 34.6764C100.835 33.4062 101.063 32.2201 101.52 31.1183C101.976 30.0011 102.584 29.0676 103.345 28.3177C104.105 27.5678 104.979 26.9786 105.968 26.5501C106.956 26.1216 107.975 25.9074 109.025 25.9074ZM104.873 34.5616C104.873 35.9236 105.306 37.0331 106.173 37.8901C107.055 38.7318 108.036 39.1526 109.116 39.1526C110.196 39.1526 111.169 38.7394 112.036 37.9131C112.903 37.0867 113.336 35.9772 113.336 34.5845C113.336 33.1919 112.895 32.0747 112.013 31.233C111.146 30.3913 110.173 29.9705 109.093 29.9705C108.013 29.9705 107.04 30.399 106.173 31.256C105.306 32.0977 104.873 33.1996 104.873 34.5616Z" fill="white"/>
<path d="M118.432 40.5759C118.037 40.0862 117.839 39.65 117.839 39.2674C117.839 38.8695 118.166 38.3492 118.82 37.7065C119.2 37.3392 119.603 37.1555 120.029 37.1555C120.455 37.1555 121.048 37.5381 121.808 38.3033C122.021 38.5635 122.325 38.816 122.721 39.0608C123.116 39.2904 123.481 39.4052 123.816 39.4052C125.23 39.4052 125.937 38.8236 125.937 37.6605C125.937 37.3086 125.739 37.0178 125.344 36.7882C124.964 36.5434 124.485 36.3674 123.907 36.2603C123.329 36.1531 122.705 35.9848 122.036 35.7553C121.367 35.5104 120.744 35.2273 120.166 34.9059C119.588 34.5845 119.101 34.0795 118.706 33.3908C118.326 32.6869 118.135 31.8452 118.135 30.8658C118.135 29.519 118.63 28.3483 119.618 27.3536C120.622 26.3436 121.983 25.8385 123.701 25.8385C124.614 25.8385 125.443 25.961 126.188 26.2058C126.948 26.4354 127.473 26.6726 127.762 26.9174L128.332 27.3536C128.804 27.7974 129.039 28.1723 129.039 28.4784C129.039 28.7845 128.857 29.2053 128.492 29.7409C127.975 30.5061 127.443 30.8887 126.895 30.8887C126.576 30.8887 126.18 30.7357 125.709 30.4296C125.663 30.399 125.572 30.3225 125.435 30.2001C125.314 30.0776 125.199 29.9782 125.093 29.9016C124.774 29.7027 124.363 29.6032 123.861 29.6032C123.375 29.6032 122.964 29.7256 122.629 29.9705C122.31 30.2001 122.15 30.5291 122.15 30.9576C122.15 31.3708 122.34 31.7075 122.721 31.9676C123.116 32.2278 123.603 32.4038 124.181 32.4956C124.758 32.5874 125.39 32.7328 126.074 32.9317C126.758 33.1154 127.389 33.3449 127.967 33.6204C128.545 33.8959 129.024 34.3779 129.404 35.0666C129.8 35.7399 129.998 36.574 129.998 37.5687C129.998 38.5635 129.8 39.4434 129.404 40.2086C129.009 40.9585 128.492 41.54 127.853 41.9532C126.621 42.7643 125.306 43.1698 123.907 43.1698C123.192 43.1698 122.515 43.0857 121.877 42.9173C121.238 42.7337 120.721 42.5118 120.325 42.2516C119.519 41.7619 118.957 41.2875 118.637 40.8284L118.432 40.5759Z" fill="white"/>
<path d="M141.13 26.7338C141.251 26.5042 141.457 26.3436 141.746 26.2517C142.035 26.1599 142.4 26.114 142.841 26.114C143.282 26.114 143.632 26.1523 143.89 26.2288C144.149 26.3053 144.346 26.3971 144.483 26.5042C144.62 26.6114 144.726 26.7644 144.803 26.9633C144.879 27.2235 144.917 27.6214 144.917 28.157V40.8973C144.917 41.2492 144.901 41.5171 144.871 41.7007C144.856 41.869 144.787 42.068 144.666 42.2975C144.453 42.7107 143.86 42.9173 142.886 42.9173C141.822 42.9173 141.198 42.6342 141.016 42.068C140.925 41.8078 140.879 41.4099 140.879 40.8743V36.2144H134.834V40.8973C134.834 41.2492 134.819 41.5171 134.788 41.7007C134.773 41.869 134.705 42.068 134.583 42.2975C134.37 42.7107 133.777 42.9173 132.804 42.9173C131.739 42.9173 131.115 42.6342 130.933 42.068C130.842 41.8078 130.796 41.4099 130.796 40.8743V28.1341C130.796 27.7821 130.804 27.5219 130.819 27.3536C130.849 27.1699 130.925 26.9633 131.047 26.7338C131.26 26.3206 131.853 26.114 132.826 26.114C133.891 26.114 134.522 26.3971 134.72 26.9633C134.796 27.2235 134.834 27.6214 134.834 28.157V32.8399H140.879V28.1341C140.879 27.7821 140.887 27.5219 140.902 27.3536C140.932 27.1699 141.008 26.9633 141.13 26.7338Z" fill="white"/>
<path d="M153.909 25.9074C156.16 25.9074 158.114 26.7261 159.772 28.3636C161.43 30.0011 162.258 32.0365 162.258 34.4698C162.258 36.8877 161.468 38.9537 159.886 40.6677C158.304 42.3664 156.358 43.2157 154.046 43.2157C151.735 43.2157 149.765 42.3741 148.138 40.6907C146.526 39.0073 145.72 37.0025 145.72 34.6764C145.72 33.4062 145.948 32.2201 146.404 31.1183C146.861 30.0011 147.469 29.0676 148.229 28.3177C148.99 27.5678 149.864 26.9786 150.853 26.5501C151.841 26.1216 152.86 25.9074 153.909 25.9074ZM149.758 34.5616C149.758 35.9236 150.191 37.0331 151.058 37.8901C151.94 38.7318 152.921 39.1526 154.001 39.1526C155.08 39.1526 156.054 38.7394 156.921 37.9131C157.787 37.0867 158.221 35.9772 158.221 34.5845C158.221 33.1919 157.78 32.0747 156.898 31.233C156.031 30.3913 155.058 29.9705 153.978 29.9705C152.898 29.9705 151.925 30.399 151.058 31.256C150.191 32.0977 149.758 33.1996 149.758 34.5616Z" fill="white"/>
<path d="M175.407 29.5114C175.802 30.3225 176 31.2254 176 32.2201C176 33.2149 175.802 34.1178 175.407 34.9289C175.012 35.7246 174.502 36.3597 173.879 36.8342C172.616 37.8136 171.308 38.3033 169.955 38.3033H167.103V40.8973C167.103 41.2492 167.088 41.5171 167.058 41.7007C167.043 41.869 166.974 42.068 166.853 42.2975C166.64 42.7107 166.047 42.9173 165.073 42.9173C164.009 42.9173 163.385 42.6342 163.203 42.068C163.111 41.8078 163.066 41.4099 163.066 40.8743V28.1341C163.066 27.7821 163.073 27.5219 163.089 27.3536C163.119 27.1699 163.195 26.9633 163.317 26.7338C163.53 26.3206 164.123 26.114 165.096 26.114H169.978C171.316 26.114 172.616 26.6037 173.879 27.5831C174.502 28.0576 175.012 28.7003 175.407 29.5114ZM169.978 34.2402C170.434 34.2402 170.883 34.0719 171.324 33.7352C171.765 33.3985 171.985 32.8935 171.985 32.2201C171.985 31.5468 171.765 31.0417 171.324 30.7051C170.883 30.3531 170.426 30.1771 169.955 30.1771H167.103V34.2402H169.978Z" fill="white"/>
<defs>
<linearGradient id="paint0_linear_476_3452" x1="0" y1="51.8455" x2="49.8989" y2="-14.0732" gradientUnits="userSpaceOnUse">
<stop stop-color="#CA4573"/>
<stop offset="0.494792" stop-color="#EE5342"/>
<stop offset="1" stop-color="#EFBB58"/>
</linearGradient>
</defs>
</svg>
