<svg width="176" height="52" viewBox="0 0 176 52" fill="none" xmlns="http://www.w3.org/2000/svg">
<path fill-rule="evenodd" clip-rule="evenodd" d="M17.5708 16.5437C17.7285 7.37999 25.2062 0 34.4075 0C43.6088 0 51.0865 7.37999 51.2442 16.5437H66.5404C67.6114 16.5437 68.4902 17.418 68.4902 18.4837L63.466 49.9055C63.466 50.9711 62.5872 51.8455 61.5162 51.8455H6.97403C5.90299 51.8455 5.02419 50.9711 5.02419 49.9055L0 18.4837C0 17.418 0.8788 16.5437 1.94984 16.5437H17.5708ZM48.5476 16.5437H20.2314C20.3675 8.84091 26.6542 2.63858 34.3895 2.63858C42.1248 2.63858 48.4115 8.84091 48.5476 16.5437Z" fill="url(#paint0_linear_281_1497)"/>
<path d="M13.3601 42.8481C13.0158 42.8481 12.7617 42.7779 12.5977 42.6374C12.4502 42.4812 12.3764 42.2392 12.3764 41.9113V27.1562C12.3764 26.6565 12.8682 26.4067 13.8519 26.4067H14.6881C15.6717 26.4067 16.1636 26.6565 16.1636 27.1562V39.78H21.4755C21.7378 39.78 21.9263 39.8737 22.0411 40.0611C22.1558 40.2484 22.2132 40.5451 22.2132 40.9511V41.6771C22.2132 42.0831 22.1558 42.3797 22.0411 42.5671C21.9263 42.7545 21.7378 42.8481 21.4755 42.8481H13.3601Z" fill="white"/>
<path d="M24.9883 42.9184C24.0046 42.9184 23.5128 42.6608 23.5128 42.1455V27.1562C23.5128 26.6409 24.0046 26.3833 24.9883 26.3833H25.849C26.8327 26.3833 27.3245 26.6409 27.3245 27.1562V42.1455C27.3245 42.6608 26.8327 42.9184 25.849 42.9184H24.9883Z" fill="white"/>
<path d="M35.863 42.895C35.0596 42.895 34.6006 42.731 34.4858 42.4032L29.1739 27.3436C29.1084 27.125 29.0756 26.9844 29.0756 26.922C29.0756 26.5785 29.5756 26.4067 30.5757 26.4067H31.4364C32.2561 26.4067 32.7398 26.6331 32.8873 27.0859L35.9367 36.384C36.2482 37.3364 36.4286 38.0469 36.4778 38.5153H36.5761C36.6253 38.0469 36.8057 37.3364 37.1172 36.384L40.2649 27.0859C40.4289 26.6331 40.9125 26.4067 41.7159 26.4067H42.429C43.4127 26.4067 43.9046 26.5785 43.9046 26.922C43.9046 27.0313 43.88 27.1718 43.8308 27.3436L38.5189 42.4032C38.4041 42.731 37.9451 42.895 37.1418 42.895H35.863Z" fill="white"/>
<path d="M46.9586 42.8481C46.6143 42.8481 46.3602 42.7779 46.1962 42.6374C46.0487 42.4812 45.9749 42.2392 45.9749 41.9113V27.3904C45.9749 27.0625 46.0487 26.8283 46.1962 26.6878C46.3602 26.5316 46.6143 26.4536 46.9586 26.4536H55.5904C55.8527 26.4536 56.0413 26.5472 56.156 26.7346C56.2708 26.922 56.3282 27.2186 56.3282 27.6246V28.3507C56.3282 28.7566 56.2708 29.0533 56.156 29.2406C56.0413 29.428 55.8527 29.5217 55.5904 29.5217H49.7621V32.9177H54.9264C55.1887 32.9177 55.3773 33.0114 55.492 33.1988C55.6068 33.3861 55.6642 33.6828 55.6642 34.0888V34.8148C55.6642 35.2208 55.6068 35.5174 55.492 35.7048C55.3773 35.8922 55.1887 35.9858 54.9264 35.9858H49.7621V39.78H55.615C55.8773 39.78 56.0659 39.8737 56.1806 40.0611C56.2954 40.2484 56.3528 40.5451 56.3528 40.9511V41.6771C56.3528 42.0831 56.2954 42.3797 56.1806 42.5671C56.0659 42.7545 55.8773 42.8481 55.615 42.8481H46.9586Z" fill="white"/>
<path d="M86.3057 29.5112C86.7011 30.3223 86.8988 31.2252 86.8988 32.22C86.8988 33.2147 86.7011 34.1176 86.3057 34.9287C85.9103 35.7245 85.4008 36.3596 84.7773 36.834C83.5151 37.8134 82.2072 38.3031 80.8537 38.3031H78.0022V40.8971C78.0022 41.2491 77.987 41.5169 77.9566 41.7005C77.9414 41.8689 77.8729 42.0678 77.7513 42.2974C77.5384 42.7106 76.9453 42.9172 75.972 42.9172C74.9074 42.9172 74.2839 42.6341 74.1014 42.0678C74.0102 41.8077 73.9645 41.4098 73.9645 40.8741V28.1339C73.9645 27.7819 73.9721 27.5218 73.9874 27.3534C74.0178 27.1698 74.0938 26.9632 74.2155 26.7336C74.4284 26.3204 75.0215 26.1138 75.9948 26.1138H80.8765C82.2148 26.1138 83.5151 26.6036 84.7773 27.583C85.4008 28.0574 85.9103 28.7001 86.3057 29.5112ZM80.8765 34.24C81.3327 34.24 81.7814 34.0717 82.2224 33.735C82.6634 33.3983 82.8839 32.8933 82.8839 32.22C82.8839 31.5466 82.6634 31.0416 82.2224 30.7049C81.7814 30.3529 81.3251 30.1769 80.8537 30.1769H78.0022V34.24H80.8765Z" fill="white"/>
<path d="M100.491 40.0937C100.719 40.6446 100.833 41.0425 100.833 41.2873C100.833 41.8689 100.362 42.3586 99.4187 42.7565C98.932 42.9707 98.5366 43.0779 98.2325 43.0779C97.9435 43.0779 97.7002 43.009 97.5025 42.8713C97.32 42.7182 97.1831 42.5652 97.0919 42.4122C96.9398 42.1214 96.3467 40.7364 95.3126 38.2572L94.6054 38.3031H91.7311V40.8971C91.7311 41.2491 91.7159 41.5169 91.6855 41.7005C91.6703 41.8689 91.6019 42.0678 91.4802 42.2974C91.2673 42.7106 90.6742 42.9172 89.7009 42.9172C88.6363 42.9172 88.0128 42.6341 87.8303 42.0678C87.7391 41.8077 87.6935 41.4098 87.6935 40.8741V28.1339C87.6935 27.7819 87.7011 27.5218 87.7163 27.3534C87.7467 27.1698 87.8227 26.9632 87.9444 26.7336C88.1573 26.3204 88.7504 26.1138 89.7237 26.1138H94.651C95.9893 26.1138 97.2896 26.6036 98.5518 27.583C99.1602 28.0574 99.662 28.7001 100.057 29.5112C100.453 30.3223 100.651 31.2252 100.651 32.22C100.651 33.9493 100.08 35.3725 98.9396 36.4897C99.2742 37.3008 99.7913 38.5021 100.491 40.0937ZM91.7311 34.24H94.651C95.0921 34.24 95.5331 34.0717 95.9741 33.735C96.4151 33.3983 96.6357 32.8933 96.6357 32.22C96.6357 31.5466 96.4151 31.0416 95.9741 30.7049C95.5331 30.3529 95.0769 30.1769 94.6054 30.1769H91.7311V34.24Z" fill="white"/>
<path d="M109.025 25.9072C111.275 25.9072 113.23 26.726 114.887 28.3635C116.545 30.001 117.374 32.0363 117.374 34.4696C117.374 36.8876 116.583 38.9535 115.001 40.6675C113.42 42.3662 111.473 43.2156 109.161 43.2156C106.85 43.2156 104.88 42.3739 103.253 40.6905C101.641 39.0071 100.835 37.0023 100.835 34.6762C100.835 33.406 101.063 32.22 101.52 31.1181C101.976 30.001 102.584 29.0674 103.344 28.3176C104.105 27.5677 104.979 26.9785 105.968 26.55C106.956 26.1215 107.975 25.9072 109.025 25.9072ZM104.873 34.5614C104.873 35.9234 105.306 37.0329 106.173 37.8899C107.055 38.7316 108.036 39.1525 109.116 39.1525C110.196 39.1525 111.169 38.7393 112.036 37.9129C112.903 37.0865 113.336 35.977 113.336 34.5844C113.336 33.1918 112.895 32.0746 112.013 31.2329C111.146 30.3912 110.173 29.9703 109.093 29.9703C108.013 29.9703 107.04 30.3988 106.173 31.2558C105.306 32.0975 104.873 33.1994 104.873 34.5614Z" fill="white"/>
<path d="M118.432 40.5757C118.037 40.086 117.839 39.6499 117.839 39.2673C117.839 38.8694 118.166 38.3491 118.82 37.7063C119.2 37.339 119.603 37.1554 120.029 37.1554C120.455 37.1554 121.048 37.538 121.808 38.3031C122.021 38.5633 122.325 38.8158 122.721 39.0607C123.116 39.2902 123.481 39.405 123.815 39.405C125.23 39.405 125.937 38.8235 125.937 37.6604C125.937 37.3084 125.739 37.0176 125.344 36.7881C124.964 36.5432 124.485 36.3672 123.907 36.2601C123.329 36.153 122.705 35.9847 122.036 35.7551C121.367 35.5102 120.744 35.2271 120.166 34.9058C119.588 34.5844 119.101 34.0794 118.706 33.3907C118.325 32.6867 118.135 31.845 118.135 30.8656C118.135 29.5189 118.63 28.3482 119.618 27.3534C120.622 26.3434 121.983 25.8384 123.701 25.8384C124.614 25.8384 125.443 25.9608 126.188 26.2057C126.948 26.4352 127.473 26.6724 127.762 26.9173L128.332 27.3534C128.804 27.7972 129.039 28.1722 129.039 28.4782C129.039 28.7843 128.857 29.2052 128.492 29.7408C127.975 30.506 127.443 30.8886 126.895 30.8886C126.576 30.8886 126.18 30.7355 125.709 30.4295C125.663 30.3988 125.572 30.3223 125.435 30.1999C125.313 30.0775 125.199 29.978 125.093 29.9015C124.774 29.7025 124.363 29.6031 123.861 29.6031C123.374 29.6031 122.964 29.7255 122.629 29.9703C122.31 30.1999 122.15 30.5289 122.15 30.9574C122.15 31.3706 122.34 31.7073 122.721 31.9675C123.116 32.2276 123.603 32.4036 124.18 32.4954C124.758 32.5873 125.389 32.7326 126.074 32.9316C126.758 33.1152 127.389 33.3448 127.967 33.6203C128.545 33.8957 129.024 34.3778 129.404 35.0664C129.8 35.7398 129.997 36.5738 129.997 37.5686C129.997 38.5633 129.8 39.4433 129.404 40.2084C129.009 40.9583 128.492 41.5399 127.853 41.9531C126.621 42.7641 125.306 43.1697 123.907 43.1697C123.192 43.1697 122.515 43.0855 121.876 42.9172C121.238 42.7335 120.721 42.5116 120.325 42.2515C119.519 41.7618 118.957 41.2873 118.637 40.8282L118.432 40.5757Z" fill="white"/>
<path d="M141.13 26.7336C141.251 26.5041 141.457 26.3434 141.746 26.2516C142.035 26.1598 142.4 26.1138 142.841 26.1138C143.282 26.1138 143.631 26.1521 143.89 26.2286C144.149 26.3051 144.346 26.397 144.483 26.5041C144.62 26.6112 144.726 26.7642 144.802 26.9632C144.879 27.2234 144.917 27.6212 144.917 28.1569V40.8971C144.917 41.2491 144.901 41.5169 144.871 41.7005C144.856 41.8689 144.787 42.0678 144.666 42.2974C144.453 42.7106 143.86 42.9172 142.886 42.9172C141.822 42.9172 141.198 42.6341 141.016 42.0678C140.924 41.8077 140.879 41.4098 140.879 40.8741V36.2142H134.834V40.8971C134.834 41.2491 134.819 41.5169 134.788 41.7005C134.773 41.8689 134.704 42.0678 134.583 42.2974C134.37 42.7106 133.777 42.9172 132.803 42.9172C131.739 42.9172 131.115 42.6341 130.933 42.0678C130.842 41.8077 130.796 41.4098 130.796 40.8741V28.1339C130.796 27.7819 130.804 27.5218 130.819 27.3534C130.849 27.1698 130.925 26.9632 131.047 26.7336C131.26 26.3204 131.853 26.1138 132.826 26.1138C133.891 26.1138 134.522 26.397 134.72 26.9632C134.796 27.2234 134.834 27.6212 134.834 28.1569V32.8398H140.879V28.1339C140.879 27.7819 140.886 27.5218 140.902 27.3534C140.932 27.1698 141.008 26.9632 141.13 26.7336Z" fill="white"/>
<path d="M153.909 25.9072C156.16 25.9072 158.114 26.726 159.772 28.3635C161.43 30.001 162.258 32.0363 162.258 34.4696C162.258 36.8876 161.468 38.9535 159.886 40.6675C158.304 42.3662 156.358 43.2156 154.046 43.2156C151.735 43.2156 149.765 42.3739 148.138 40.6905C146.526 39.0071 145.72 37.0023 145.72 34.6762C145.72 33.406 145.948 32.22 146.404 31.1181C146.861 30.001 147.469 29.0674 148.229 28.3176C148.99 27.5677 149.864 26.9785 150.853 26.55C151.841 26.1215 152.86 25.9072 153.909 25.9072ZM149.758 34.5614C149.758 35.9234 150.191 37.0329 151.058 37.8899C151.94 38.7316 152.921 39.1525 154.001 39.1525C155.08 39.1525 156.054 38.7393 156.92 37.9129C157.787 37.0865 158.221 35.977 158.221 34.5844C158.221 33.1918 157.78 32.0746 156.898 31.2329C156.031 30.3912 155.058 29.9703 153.978 29.9703C152.898 29.9703 151.925 30.3988 151.058 31.2558C150.191 32.0975 149.758 33.1994 149.758 34.5614Z" fill="white"/>
<path d="M175.407 29.5112C175.802 30.3223 176 31.2252 176 32.22C176 33.2147 175.802 34.1176 175.407 34.9287C175.011 35.7245 174.502 36.3596 173.879 36.834C172.616 37.8134 171.308 38.3031 169.955 38.3031H167.103V40.8971C167.103 41.2491 167.088 41.5169 167.058 41.7005C167.043 41.8689 166.974 42.0678 166.852 42.2974C166.64 42.7106 166.046 42.9172 165.073 42.9172C164.009 42.9172 163.385 42.6341 163.203 42.0678C163.111 41.8077 163.066 41.4098 163.066 40.8741V28.1339C163.066 27.7819 163.073 27.5218 163.089 27.3534C163.119 27.1698 163.195 26.9632 163.317 26.7336C163.53 26.3204 164.123 26.1138 165.096 26.1138H169.978C171.316 26.1138 172.616 26.6036 173.879 27.583C174.502 28.0574 175.011 28.7001 175.407 29.5112ZM169.978 34.24C170.434 34.24 170.883 34.0717 171.324 33.735C171.765 33.3983 171.985 32.8933 171.985 32.22C171.985 31.5466 171.765 31.0416 171.324 30.7049C170.883 30.3529 170.426 30.1769 169.955 30.1769H167.103V34.24H169.978Z" fill="white"/>
<defs>
<linearGradient id="paint0_linear_281_1497" x1="0" y1="51.8455" x2="49.8989" y2="-14.0732" gradientUnits="userSpaceOnUse">
<stop stop-color="#CA4573"/>
<stop offset="0.494792" stop-color="#EE5342"/>
<stop offset="1" stop-color="#EFBB58"/>
</linearGradient>
</defs>
</svg>
