<svg width="24" height="24" viewBox="0 0 24 24" fill="none" xmlns="http://www.w3.org/2000/svg">
<path d="M24 1.33929C24 0.964286 23.8393 0.642857 23.5714 0.375C23.3036 0.160714 22.9821 0 22.6607 0H1.33929C0.910714 0 0.589286 0.160714 0.375 0.375C0.107143 0.642857 0 0.964286 0 1.33929V22.6607C0 23.0357 0.107143 23.3571 0.375 23.625C0.589286 23.8929 0.910714 24 1.33929 24H12.8036V14.6786H9.69643V11.0893H12.8036V8.41071C12.8036 6.91071 13.2321 5.73214 14.0893 4.875C14.9464 4.07143 16.0714 3.64286 17.4643 3.64286C18.5357 3.64286 19.5 3.69643 20.25 3.75V7.01786H18.3214C17.625 7.01786 17.1429 7.17857 16.875 7.5C16.6607 7.76786 16.5536 8.19643 16.5536 8.78571V11.0893H20.1429L19.6607 14.6786H16.5536V24H22.6607C23.0357 24 23.3571 23.8929 23.625 23.625C23.8393 23.3571 24 23.0357 24 22.6607V1.33929Z" fill="white"/>
</svg>
