<svg width="52" height="36" viewBox="0 0 52 36" fill="none" xmlns="http://www.w3.org/2000/svg">
<path d="M0 6.00098C0 2.68727 2.68629 0.000976562 6 0.000976562H46C49.3137 0.000976562 52 2.68727 52 6.00098V30.001C52 33.3147 49.3137 36.001 46 36.001H6C2.68629 36.001 0 33.3147 0 30.001V6.00098Z" fill="#FFCB05"/>
<path d="M9.86344 13.501L8.28345 15.7811C8.28345 15.7811 16.4802 15.7811 16.8992 15.7811C17.3357 15.7811 17.3269 15.9573 17.1174 16.2631C16.8992 16.5783 16.5413 17.1159 16.3231 17.431C16.2096 17.5886 16.0088 17.8852 16.681 17.8852C17.388 17.8852 20.2076 17.8852 20.2076 17.8852C20.2076 17.8852 20.775 17.0603 21.2551 16.3744C21.9011 15.4382 21.3075 13.501 18.9942 13.501C16.9079 13.501 9.86344 13.501 9.86344 13.501Z" fill="#D71635"/>
<path d="M8.28345 21.5385L11.1593 17.1543C11.1593 17.1543 14.3432 17.1543 14.7225 17.1543C15.1175 17.1543 15.1096 17.3229 14.92 17.6158C14.7225 17.9175 14.3907 18.4234 14.1931 18.7252C14.0904 18.876 13.9087 19.16 14.5171 19.16C15.157 19.16 19.297 19.16 19.297 19.16C18.9019 19.7724 17.6141 21.5385 15.2992 21.5385C13.411 21.5385 8.28345 21.5385 8.28345 21.5385Z" fill="#D71635"/>
<path d="M26.6397 19.3462L24.6223 21.5383H19.2974L21.3147 19.3462H26.6397Z" fill="#D71635"/>
<path d="M33.6086 17.8852H21.4999L24.8196 13.501H29.7658L27.8634 16.0182H30.0797L31.9726 13.501H36.9188L33.6086 17.8852Z" fill="#D71635"/>
<path d="M33.9827 19.3462L31.9654 21.5383H26.6404L28.6577 19.3462H33.9827Z" fill="#D71635"/>
<path d="M42.7928 13.501L40.2348 17.8852H36.1847L38.7427 13.501H42.7928Z" fill="#D71635"/>
<path d="M34.6995 19.3462C34.6995 19.3462 34.3685 19.7715 34.203 19.976C33.6368 20.6958 34.1333 21.5383 35.9974 21.5383C38.1403 21.5383 43.2797 21.5383 43.2797 21.5383L44.9957 19.3462H34.6995Z" fill="#D71635"/>
<path d="M6 1.00098H46V-0.999023H6V1.00098ZM51 6.00098V30.001H53V6.00098H51ZM46 35.001H6V37.001H46V35.001ZM1 30.001V6.00098H-1V30.001H1ZM6 35.001C3.23858 35.001 1 32.7624 1 30.001H-1C-1 33.867 2.13401 37.001 6 37.001V35.001ZM51 30.001C51 32.7624 48.7614 35.001 46 35.001V37.001C49.866 37.001 53 33.867 53 30.001H51ZM46 1.00098C48.7614 1.00098 51 3.23955 51 6.00098H53C53 2.13498 49.866 -0.999023 46 -0.999023V1.00098ZM6 -0.999023C2.13401 -0.999023 -1 2.13498 -1 6.00098H1C1 3.23955 3.23858 1.00098 6 1.00098V-0.999023Z" fill="#F2F4F7"/>
</svg>
