<svg width="46" height="32" viewBox="0 0 46 32" fill="none" xmlns="http://www.w3.org/2000/svg">
<path d="M0 6.00098C0 2.68727 2.68629 0.000976562 6 0.000976562H40C43.3137 0.000976562 46 2.68727 46 6.00098V26.001C46 29.3147 43.3137 32.001 40 32.001H6C2.68629 32.001 0 29.3147 0 26.001V6.00098Z" fill="white"/>
<path d="M5.00412 11.027C7.02959 11.0166 9.05505 11.027 11.0805 11.0218C11.086 11.7511 11.0915 12.4803 11.0805 13.2044C9.97173 13.2096 8.86294 13.2096 7.75414 13.2044C7.74865 13.6576 7.74865 14.1107 7.75414 14.5639C8.77511 14.5587 9.79059 14.5639 10.8116 14.5587C10.817 14.9598 10.8116 15.3609 10.8116 15.762C11.0421 15.4338 11.333 15.1421 11.6514 14.8869C12.1838 14.5066 12.8315 14.2722 13.4902 14.2045C14.1489 14.168 14.8296 14.1576 15.4553 14.3868C16.2567 14.6316 16.9209 15.2046 17.3051 15.9079C17.4149 16.1006 17.4973 16.3089 17.5796 16.5121C17.8486 15.6734 18.4578 14.9286 19.2867 14.5223C20.0332 14.1733 20.9169 14.0899 21.7129 14.3243C22.1136 14.4441 22.4539 14.6837 22.7393 14.965C22.7448 13.6419 22.7393 12.3241 22.7393 11.001C23.5462 11.0062 24.3531 10.9958 25.16 11.0062C25.1435 12.8918 25.16 14.7775 25.1545 16.6579C25.16 18.0071 25.149 19.351 25.16 20.7001C24.3641 20.7262 23.5682 20.7105 22.7777 20.7105C22.7723 20.497 22.7723 20.2886 22.7723 20.0803L22.7503 20.1115C22.388 20.5647 21.872 20.9293 21.2737 21.0387C20.5217 21.1637 19.7313 21.0075 19.0836 20.622C18.1669 20.075 17.5521 19.1062 17.4369 18.0904C15.9384 18.0852 14.4343 18.0904 12.9358 18.0852C12.8535 18.0904 12.7602 18.0748 12.6833 18.1165C12.7163 18.5332 12.9523 18.9395 13.3201 19.1687C13.7372 19.4448 14.2971 19.4552 14.7582 19.2729C14.9558 19.1739 15.0985 18.9968 15.2412 18.8353C16.0207 18.8457 16.8056 18.8301 17.5851 18.8405C17.2722 19.6219 16.6794 20.3303 15.878 20.6949C15.1315 21.0439 14.2642 21.1168 13.4463 21.0179C12.4857 20.8981 11.5691 20.4084 10.9982 19.6583C10.5481 19.0697 10.3011 18.3352 10.323 17.606C10.3066 17.2882 10.3724 16.9705 10.4109 16.6527C9.52711 16.6527 8.63788 16.6527 7.75414 16.6527C7.74865 18.0123 7.74865 19.377 7.75414 20.7366C6.83747 20.7522 5.92079 20.7366 5.00412 20.7418C4.99863 17.5174 4.99863 14.2722 5.00412 11.027ZM13.3146 15.8974C13.0291 16.0745 12.87 16.3715 12.7657 16.6736C13.6275 16.6788 14.4837 16.6944 15.3455 16.6736C15.2632 16.434 15.1699 16.1839 14.9668 16.012C14.5277 15.6214 13.8031 15.5641 13.3146 15.8974ZM20.9883 15.9964C20.3845 16.137 20.0003 16.6944 19.9179 17.2518C19.7807 17.856 19.9618 18.554 20.4668 18.9603C20.9499 19.3614 21.7458 19.3354 22.2124 18.9187C22.646 18.4863 22.7338 17.8404 22.6515 17.2674C22.5746 16.8819 22.4319 16.4704 22.0971 16.2152C21.7897 15.9808 21.367 15.9235 20.9883 15.9964Z" fill="#312280"/>
<path d="M24.7496 11.001C26.6827 11.006 28.6213 11.006 30.5543 11.001C30.5543 11.6977 30.5543 12.3944 30.5543 13.0911C29.4426 13.1161 28.3308 13.0961 27.2134 13.1011C27.2078 13.5372 27.1687 13.9782 27.2414 14.4143C28.3475 14.4093 29.4537 14.4143 30.5655 14.4143C30.5432 15.0809 30.5655 15.7525 30.5543 16.4192C29.4537 16.4242 28.3475 16.4192 27.2469 16.4192C27.1743 16.775 27.219 17.1359 27.2078 17.4918C27.2078 17.7474 27.1911 18.008 27.2414 18.2637C28.3364 18.2586 29.4314 18.2486 30.5264 18.2637C30.599 18.4591 30.5376 18.6847 30.5543 18.8902C30.5767 19.3413 30.5041 19.7974 30.6102 20.2385C31.0069 19.8876 31.3533 19.4916 31.7387 19.1358C32.0628 18.7599 32.4427 18.4291 32.7835 18.0682C33.0069 17.8376 33.2695 17.6371 33.4595 17.3815C33.4315 17.3314 33.398 17.2863 33.3589 17.2462C32.8058 16.6898 32.2527 16.1335 31.694 15.5771C31.3309 15.1812 30.9063 14.8303 30.5655 14.4143C31.2918 14.3942 32.0181 14.4093 32.7444 14.4043C33.0405 14.4093 33.3422 14.3892 33.6383 14.4143C34.169 14.8503 34.5824 15.3917 35.1355 15.8127C35.521 15.4067 35.9288 15.0208 36.3032 14.6098C36.3981 14.5195 36.4931 14.3792 36.6551 14.4043C37.5993 14.4093 38.5435 14.3942 39.4876 14.4143C39.3703 14.5847 39.2195 14.7401 39.063 14.8854C38.2474 15.7074 37.4205 16.5144 36.6216 17.3514C36.9121 17.7524 37.3367 18.0632 37.6719 18.4341C38.1356 18.8701 38.577 19.3262 39.0295 19.7723C39.2083 19.9628 39.415 20.1382 39.5603 20.3537C38.6105 20.3688 37.6608 20.3537 36.711 20.3588C36.5993 20.3537 36.4652 20.3738 36.3814 20.2936C35.9177 19.8275 35.4651 19.3513 34.9847 18.9002C34.5713 19.3262 34.1299 19.7322 33.7332 20.1733C33.6494 20.2585 33.5656 20.3788 33.4148 20.3588C29.7051 20.3638 25.9955 20.3588 22.2859 20.3537C22.2803 20.1533 22.2747 19.9528 22.2914 19.7523L22.3138 19.7222C22.3138 19.9227 22.3138 20.1282 22.3194 20.3287C23.1295 20.3287 23.9396 20.3437 24.7441 20.3187C24.7329 19.0205 24.7441 17.7274 24.7385 16.4292C24.7496 14.6298 24.7329 12.8154 24.7496 11.001Z" fill="#EA6214"/>
<path d="M40.118 18.9458C40.5412 18.8203 41.0612 19.2087 40.9947 19.6568C41.0733 20.2066 40.3417 20.5412 39.9124 20.2604C39.3441 20.0034 39.5013 19.0354 40.118 18.9458ZM40.1241 19.0892C39.8883 19.1609 39.6706 19.3999 39.7008 19.6568C39.6706 20.0751 40.2027 20.362 40.5533 20.1648C40.9282 19.9975 40.9705 19.4059 40.638 19.1788C40.4929 19.0772 40.2994 19.0712 40.1241 19.0892Z" fill="#EA6214"/>
<path d="M6 1.00098H40V-0.999023H6V1.00098ZM45 6.00098V26.001H47V6.00098H45ZM40 31.001H6V33.001H40V31.001ZM1 26.001V6.00098H-1V26.001H1ZM6 31.001C3.23858 31.001 1 28.7624 1 26.001H-1C-1 29.867 2.13401 33.001 6 33.001V31.001ZM45 26.001C45 28.7624 42.7614 31.001 40 31.001V33.001C43.866 33.001 47 29.867 47 26.001H45ZM40 1.00098C42.7614 1.00098 45 3.23955 45 6.00098H47C47 2.13498 43.866 -0.999023 40 -0.999023V1.00098ZM6 -0.999023C2.13401 -0.999023 -1 2.13498 -1 6.00098H1C1 3.23955 3.23858 1.00098 6 1.00098V-0.999023Z" fill="#F2F4F7"/>
</svg>
