<svg width="46" height="32" viewBox="0 0 46 32" fill="none" xmlns="http://www.w3.org/2000/svg">
<path d="M0 6.00098C0 2.68727 2.68629 0.000976562 6 0.000976562H40C43.3137 0.000976562 46 2.68727 46 6.00098V26.001C46 29.3147 43.3137 32.001 40 32.001H6C2.68629 32.001 0 29.3147 0 26.001V6.00098Z" fill="white"/>
<g clip-path="url(#clip0_1874_212214)">
<path d="M23.0001 28.0719C23.2031 27.9689 28.4823 25.6511 30.1574 24.2604C31.8833 22.8183 32.797 20.758 32.797 18.2857V6.69688L32.6447 6.64537C28.4315 4.3276 23.2031 4.48212 22.9493 4.48212C22.7463 4.48212 17.5178 4.3276 13.3046 6.64537L13.2031 6.69688V18.3372C13.2031 20.8095 14.1168 22.8698 15.8427 24.3119C17.5178 25.7026 22.797 28.0204 23.0001 28.0719Z" fill="#341B14"/>
<path d="M23 28.3294C23 28.3294 17.4162 25.8571 15.6904 24.4664C13.8629 22.9212 13 20.8095 13 18.3887V6.33631C17.4162 3.91552 23 4.12155 23 4.12155C23 4.12155 28.5838 3.91552 33 6.33631V18.3372C33 20.758 32.1371 22.8697 30.3096 24.4149C28.5838 25.8571 23 28.3294 23 28.3294ZM13.8122 18.3887C13.8122 20.655 14.6244 22.5092 16.198 23.7968C17.6193 24.9815 21.8325 26.8872 23 27.4023C24.1675 26.8872 28.4315 24.93 29.802 23.7968C31.3756 22.5092 32.1878 20.6035 32.1878 18.3887V6.54233C26.2995 5.97576 19.2944 6.2848 13.8122 11.4354V18.3887Z" fill="#FFB406"/>
<path d="M28.6342 16.6888C29.3956 17.1524 29.7002 17.4614 29.7509 18.028C29.7509 18.646 29.3448 19.0066 28.6849 19.0066C28.1266 19.0066 27.4667 18.6975 27.0098 18.2855V19.9337C27.5682 20.2427 28.2281 20.5003 28.9388 20.5003C30.6646 20.5003 31.4768 19.2641 31.4768 18.131C31.5276 17.1009 31.223 16.2768 29.7509 15.4012C29.091 14.9891 28.5834 14.7316 28.5834 14.1135C28.5834 13.4954 29.1418 13.2379 29.5987 13.2379C30.2078 13.2379 30.8169 13.5985 31.1723 13.959V12.4138C30.8677 12.1563 30.2078 11.7957 29.2433 11.8472C28.0758 11.8988 26.8575 12.7229 26.8575 14.165C26.9083 15.1436 27.2129 15.8647 28.6342 16.6888ZM22.6443 20.3972C22.7966 20.4488 23.0504 20.5003 23.4565 20.5003C25.4362 20.5003 26.553 18.6975 26.553 16.1222C26.553 13.4954 25.3855 11.8988 23.3042 11.8988C22.3398 11.8988 21.5784 12.1048 20.9185 12.5168V24.1572H22.6443V20.3972ZM22.6443 13.3924C22.7966 13.3409 23.0504 13.2379 23.2535 13.2379C24.2687 13.2379 24.6748 14.062 24.6748 16.0707C24.6748 18.028 24.1672 18.9551 23.152 18.9551C22.8981 18.9551 22.6951 18.9036 22.5936 18.8521V13.3924H22.6443ZM17.3144 20.5003C18.3804 20.5003 19.2941 20.2427 19.954 19.7792V12.0018H18.1773V18.7491C17.9743 18.9036 17.7205 18.9551 17.3652 18.9551C16.553 18.9551 16.4515 18.1825 16.4515 17.7189V12.0018H14.6748V17.6159C14.6748 19.5216 15.5885 20.5003 17.3144 20.5003ZM29.1418 27.4536V28.6382H29.3448V28.1747H29.3956L29.7002 28.6382H29.954C29.954 28.6382 29.6494 28.1747 29.5987 28.1232C29.7509 28.0716 29.8525 27.9686 29.8525 27.8141C29.8525 27.6596 29.7509 27.4536 29.4464 27.4536H29.1418ZM29.4464 27.6081C29.5987 27.6081 29.6494 27.7111 29.6494 27.7626C29.6494 27.8656 29.5986 27.9686 29.3956 27.9686H29.3448V27.6081H29.4464Z" fill="#FFB406"/>
<path d="M30.2591 28.0201C30.2591 28.4322 29.9038 28.7927 29.4977 28.7927C29.0916 28.7927 28.7362 28.4322 28.7362 28.0201C28.7362 27.6081 29.0916 27.2475 29.4977 27.2475C29.9545 27.2475 30.2591 27.6081 30.2591 28.0201ZM29.4977 27.0415C28.9901 27.0415 28.5332 27.4536 28.5332 28.0201C28.5332 28.5352 28.9393 28.9987 29.4977 28.9987C30.0053 28.9987 30.4621 28.5867 30.4621 28.0201C30.4621 27.5051 30.0053 27.0415 29.4977 27.0415Z" fill="#FFB406"/>
</g>
<path d="M6 1.00098H40V-0.999023H6V1.00098ZM45 6.00098V26.001H47V6.00098H45ZM40 31.001H6V33.001H40V31.001ZM1 26.001V6.00098H-1V26.001H1ZM6 31.001C3.23858 31.001 1 28.7624 1 26.001H-1C-1 29.867 2.13401 33.001 6 33.001V31.001ZM45 26.001C45 28.7624 42.7614 31.001 40 31.001V33.001C43.866 33.001 47 29.867 47 26.001H45ZM40 1.00098C42.7614 1.00098 45 3.23955 45 6.00098H47C47 2.13498 43.866 -0.999023 40 -0.999023V1.00098ZM6 -0.999023C2.13401 -0.999023 -1 2.13498 -1 6.00098H1C1 3.23955 3.23858 1.00098 6 1.00098V-0.999023Z" fill="#F2F4F7"/>
<defs>
<clipPath id="clip0_1874_212214">
<rect width="20" height="25" fill="white" transform="translate(13 4.00098)"/>
</clipPath>
</defs>
</svg>
